<svg width="705" height="713" viewBox="0 0 705 713" fill="none" xmlns="http://www.w3.org/2000/svg">
<mask id="mask0_2647_9158" style="mask-type:alpha" maskUnits="userSpaceOnUse" x="0" y="0" width="705" height="713">
<rect width="705" height="713" fill="#D9D9D9"/>
<rect width="705" height="713" fill="#F0F8FF"/>
</mask>
<g mask="url(#mask0_2647_9158)">
<rect width="705" height="713" fill="#D9D9D9"/>
<rect width="705" height="713" fill="#F0F8FF"/>
<g opacity="0.1" filter="url(#filter0_f_2647_9158)">
<path d="M251.5 1265C504.723 1265 710 1059.72 710 806.5C710 553.277 504.723 348 251.5 348C-1.72252 348 -207 553.277 -207 806.5C-207 1059.72 -1.72252 1265 251.5 1265Z" fill="#92C8FF"/>
</g>
<g opacity="0.1" filter="url(#filter1_f_2647_9158)">
<path d="M881.5 927C1172.28 927 1408 691.278 1408 400.5C1408 109.722 1172.28 -126 881.5 -126C590.722 -126 355 109.722 355 400.5C355 691.278 590.722 927 881.5 927Z" fill="#FFD2DD"/>
</g>
<g opacity="0.1" filter="url(#filter2_f_2647_9158)">
<path d="M486.5 493C777.278 493 1013 257.278 1013 -33.5C1013 -324.278 777.278 -560 486.5 -560C195.722 -560 -40 -324.278 -40 -33.5C-40 257.278 195.722 493 486.5 493Z" fill="#F9ECD3"/>
</g>
<circle cx="401.25" cy="145.09" r="2.70513" stroke="#053D75"/>
<path d="M401.25 142.205V139" stroke="#053D75" stroke-linecap="round"/>
<path d="M403.404 143.097L404.764 141.737" stroke="#053D75" stroke-linecap="round"/>
<path d="M404.295 145.25L407.5 145.25" stroke="#053D75" stroke-linecap="round"/>
<path d="M403.404 147.403L404.764 148.763" stroke="#053D75" stroke-linecap="round"/>
<path d="M401.25 151.5V148.295" stroke="#053D75" stroke-linecap="round"/>
<path d="M397.738 148.763L399.098 147.403" stroke="#053D75" stroke-linecap="round"/>
<path d="M395 145.25L398.205 145.25" stroke="#053D75" stroke-linecap="round"/>
<path d="M397.738 141.737L399.098 143.097" stroke="#053D75" stroke-linecap="round"/>
<circle cx="87.2501" cy="236.09" r="2.70513" stroke="#053D75"/>
<path d="M87.25 233.205V230" stroke="#053D75" stroke-linecap="round"/>
<path d="M89.4039 234.097L90.7637 232.737" stroke="#053D75" stroke-linecap="round"/>
<path d="M90.2949 236.25L93.5 236.25" stroke="#053D75" stroke-linecap="round"/>
<path d="M89.4039 238.403L90.7637 239.763" stroke="#053D75" stroke-linecap="round"/>
<path d="M87.25 242.5V239.295" stroke="#053D75" stroke-linecap="round"/>
<path d="M83.7378 239.763L85.0977 238.403" stroke="#053D75" stroke-linecap="round"/>
<path d="M80.9999 236.25L84.2051 236.25" stroke="#053D75" stroke-linecap="round"/>
<path d="M83.7378 232.737L85.0977 234.097" stroke="#053D75" stroke-linecap="round"/>
<circle cx="302.25" cy="428.09" r="2.70513" stroke="#053D75"/>
<path d="M302.25 425.205V422" stroke="#053D75" stroke-linecap="round"/>
<path d="M304.404 426.097L305.764 424.737" stroke="#053D75" stroke-linecap="round"/>
<path d="M305.295 428.25L308.5 428.25" stroke="#053D75" stroke-linecap="round"/>
<path d="M304.404 430.403L305.764 431.763" stroke="#053D75" stroke-linecap="round"/>
<path d="M302.25 434.5V431.295" stroke="#053D75" stroke-linecap="round"/>
<path d="M298.738 431.763L300.098 430.403" stroke="#053D75" stroke-linecap="round"/>
<path d="M296 428.25L299.205 428.25" stroke="#053D75" stroke-linecap="round"/>
<path d="M298.738 424.737L300.098 426.097" stroke="#053D75" stroke-linecap="round"/>
<path fill-rule="evenodd" clip-rule="evenodd" d="M523.208 907.853C522.485 908.922 521.73 909.96 520.944 910.997C520.189 912.035 519.403 913.041 518.586 914.047C517.957 914.864 517.297 915.65 516.637 916.436C515.693 917.568 514.719 918.7 513.713 919.801C512.769 920.87 511.795 921.939 510.789 922.945C509.908 923.888 508.996 924.8 508.053 925.712C506.324 927.472 504.532 929.139 502.708 930.805C488.371 943.822 471.865 954.26 457.999 967.905C452.843 972.999 446.051 974.477 438.537 973.565C429.293 972.433 419.987 971.961 411.058 976.049C406.341 978.218 401.216 979.79 395.934 979.381C388.766 978.815 384.113 982.337 381.283 988.216C376.787 997.523 370.687 1005.51 363.896 1013.27C357.419 1020.73 354.244 1030.41 350.156 1039.37C347.861 1044.43 345.88 1049.65 343.679 1054.75C339.844 1063.64 333.775 1070.5 324.752 1074.46C315.068 1078.7 305.07 1075.94 300.134 1066.66C288.06 1043.9 279.728 1020 279.414 993.844C279.382 989.191 279.854 984.506 278.974 979.884C277.779 973.533 275.987 971.898 269.604 971.961C261.65 972.024 253.852 970.892 246.055 969.918C238.635 968.943 232.158 966.082 227.316 960.36C223.637 956.021 219.33 954.386 213.639 954.543C202.572 954.889 198.61 951.713 195.403 941.055C194.209 937.093 193.611 933.006 193.045 928.919C191.882 920.524 189.901 918.952 181.381 919.36C181.223 919.36 181.035 919.392 180.878 919.36C180.312 919.392 179.777 919.423 179.211 919.36C168.678 916.814 158.146 919.329 147.676 919.832C132.867 920.555 134.754 959.039 119.913 959.668C110.45 960.045 91.2706 961.271 76.399 954.071C65.0802 948.601 59.8611 932.786 57.0628 924.705C56.2139 922.159 55.5536 920.367 55.0506 919.926C55.0191 911.846 56.0253 899.27 56.2453 891.189C56.4026 885.31 68.696 886.19 70.6139 880.531C72.2803 875.626 75.8017 872.985 80.4864 872.639C88.3152 872.01 96.144 870.721 104.036 871.35C106.551 871.539 109.003 871.507 111.487 872.105C118.216 873.739 122.334 869.935 121.423 864.15C121.14 862.232 121.077 860.031 121.737 858.27C123.089 854.686 121.894 852.8 118.813 850.85C108.343 844.216 102.464 835.036 101.646 822.176C101.237 815.794 101.112 809.757 103.03 803.689C104.822 797.904 104.036 791.961 104.067 786.05C104.067 781.208 103.847 776.429 105.828 771.776C107.4 768.035 109.538 764.922 112.776 762.438C118.341 758.257 124.127 754.358 128.465 748.698C130.949 745.46 134.659 743.982 138.935 744.108C149.531 744.454 159.906 742.473 170.282 740.587C172.42 740.209 174.527 739.864 176.665 739.895C178.52 739.926 180.154 739.643 181.727 738.48C183.299 737.285 185.154 736.751 187.197 736.594C191.253 736.216 192.291 734.927 192.542 730.714C192.668 728.953 192.762 727.193 193.108 725.401C193.926 721.376 193.643 720.684 189.901 719.238C183.204 716.66 176.193 715.245 169.15 713.988C157.234 711.787 146.638 716.283 136.168 720.747C129.566 723.546 123.183 726.721 116.203 728.576C111.487 729.802 107.211 732.16 103.187 734.833C100.043 736.94 96.8672 738.983 93.3772 740.461C82.6873 745.051 74.544 740.524 71.7772 730.211C68.5073 717.792 72.689 705.719 83.0646 697.89C86.9318 694.966 90.4846 691.696 93.8802 688.237C97.9361 684.119 102.81 681.1 107.463 677.767C117.87 670.347 128.906 664.185 140.822 659.5C144.092 658.211 147.173 656.199 150.16 654.218C159.403 647.993 169.842 645.886 180.658 645.132C190.53 644.44 200.34 645.32 209.961 647.836C212.727 648.559 215.62 648.59 218.418 648.999C224.015 649.816 228.637 652.112 232.85 655.664C235.617 657.991 238.792 659.5 242.408 660.255C246.778 661.167 251.148 662.267 255.236 664.122C257.091 665.002 258.568 665.065 259.952 663.336C263.222 659.154 267.844 657.299 272.717 655.853C274.603 655.287 276.616 654.847 278.251 653.841C284.822 649.785 291.927 649.062 299.442 649.156C305.479 649.25 311.547 648.244 317.458 646.735C322.991 645.352 327.519 642.239 331.92 638.749C334.939 636.36 337.957 633.97 341.038 631.643C342.327 630.637 343.648 629.663 344.968 628.719C346.352 627.713 347.735 626.739 349.15 625.764C349.244 625.701 349.37 625.638 349.465 625.544C294.16 584.167 229.014 555.179 158.177 542.791C140.853 559.14 120.542 570.836 98.0934 578.948C84.951 583.696 71.3056 584.922 57.3458 582.815C51.0261 581.872 44.8323 582.564 39.4873 586.808C37.0978 588.695 34.3624 590.078 31.5641 591.305C23.4523 594.92 15.8122 593.443 9.20955 587.5C1.50649 580.583 -1.13457 571.528 -2.6123 561.781C-3.55553 555.776 -3.58697 549.771 -3.61841 543.766C-32.6385 549.205 -60.6839 557.443 -87.4402 568.195C-85.8996 575.836 -84.3905 583.413 -82.9127 591.053C-80.4918 603.598 -79.1084 616.3 -80.3031 629.002C-81.3407 639.912 -84.2961 650.477 -88.8865 660.506C-89.7669 662.456 -90.3328 664.594 -91.4961 666.386C-96.0236 673.334 -96.7782 681.006 -96.3695 689.055C-96.0236 695.877 -98.5075 702.103 -101.966 707.888C-104.261 711.692 -106.776 715.497 -110.078 718.578C-114.291 722.477 -115.989 727.381 -116.712 732.852C-117.812 740.838 -119.196 748.73 -122.057 756.339C-124.949 764.136 -129.697 770.55 -136.08 775.738C-143.374 781.68 -152.083 782.812 -161.012 781.743C-169.879 780.705 -178.839 780.045 -187.486 777.624C-189.718 776.995 -191.95 776.335 -194.151 775.612C-202.357 773.034 -205.313 774.323 -209.117 782.215C-212.387 789.037 -213.833 796.457 -215.908 803.657C-217.889 810.543 -219.304 817.554 -223.234 823.78C-227.007 829.722 -231.88 834.187 -238.2 837.236C-243.985 840.066 -249.833 842.739 -255.084 846.637C-258.48 849.153 -259.203 851.919 -258.7 855.912C-257.662 863.93 -255.807 871.727 -253.669 879.493C-251.908 885.75 -252.254 891.881 -254.424 897.949C-256.845 904.709 -259.014 911.532 -262.315 917.946C-265.114 923.416 -269.704 926.057 -275.741 926.309C-281.306 926.56 -286.871 926.057 -292.153 924.234C-299.573 921.624 -305.012 916.562 -308.722 909.645C-310.766 905.872 -312.527 901.942 -314.287 898.012C-317.714 890.309 -321.173 882.606 -326.172 875.72C-333.812 865.156 -340.038 853.712 -346.64 842.55C-351.765 857.799 -356.104 873.394 -359.562 889.303V889.334C-358.022 892.353 -356.481 895.339 -354.815 898.264C-347.206 911.532 -340.729 925.303 -335.604 939.703C-332.335 948.915 -328.09 957.467 -321.707 964.95C-320.23 966.648 -318.752 967.843 -316.708 968.754C-305.39 973.911 -294.668 979.884 -285.456 988.468C-277.25 996.14 -276.055 1005.38 -277.879 1015.57C-278.759 1020.69 -280.897 1025.51 -282.438 1030.47C-283.915 1035.25 -284.984 1040.13 -284.921 1045.22C-284.859 1047.77 -284.01 1049.68 -282.249 1051.41C-279.891 1053.71 -277.156 1055.41 -274.42 1057.07C-270.584 1059.4 -266.874 1061.88 -263.29 1064.62C-252.914 1072.6 -249.236 1082.76 -252.726 1095.43C-252.663 1095.81 -252.6 1096.18 -252.537 1096.56C-256.121 1105.49 -259.423 1114.55 -264.202 1122.91C-273.257 1138.79 -282.878 1154.32 -296.492 1166.8C-300.705 1170.67 -305.107 1174.35 -309.162 1178.4C-311.332 1180.57 -313.156 1182.99 -314.759 1185.57C-315.765 1187.18 -316.645 1188.78 -317.243 1190.45C-317.4 1190.85 -317.526 1191.29 -317.652 1191.7C-317.777 1192.11 -317.872 1192.55 -317.966 1192.99C-318.06 1193.4 -318.123 1193.84 -318.186 1194.28C-318.249 1194.69 -318.28 1195.13 -318.28 1195.57V1195.6C-242.916 1338.56 -92.8481 1436 79.9833 1436C220.21 1436 345.472 1371.86 428.004 1271.31C420.458 1269.14 413.101 1266.53 406.153 1262.73C391.941 1254.99 385.024 1242.92 384.301 1227.01C383.672 1213.62 387.76 1201.58 395.023 1190.51C400.305 1182.4 405.587 1174.32 411.529 1166.64C420.27 1155.45 430.865 1146.55 443.316 1139.79C456.458 1132.66 470.418 1127.56 484.787 1123.66C492.396 1121.59 499.816 1118.95 507.11 1115.99C508.556 1115.4 509.971 1114.74 511.449 1114.29C523.522 1073.61 529.999 1030.57 529.999 985.984C529.999 959.322 527.672 933.226 523.208 907.853ZM153.084 1274.36C150.317 1287.94 144.532 1300.52 139.187 1313.22C134.502 1324.35 128.937 1334.95 121.391 1344.38C116.706 1350.26 112.053 1356.17 106.897 1361.67C102.464 1366.36 98.3449 1371.23 93.3457 1375.41C80.675 1386.01 66.3064 1391.42 49.8628 1390.69C40.5877 1390.25 33.9222 1384.75 28.6087 1377.58C19.7108 1365.57 14.7117 1351.83 11.5676 1337.34C9.5554 1328.09 8.14054 1318.72 8.17199 1309.2C8.23487 1299.48 8.1091 1289.8 8.2663 1280.12C8.39207 1273.39 7.29164 1266.91 5.15365 1260.59C1.22352 1248.89 -2.9267 1237.26 -6.9826 1225.6C-10.0324 1216.82 -14.214 1208.84 -22.0114 1203.27C-23.7721 1202.58 -25.3127 1201.26 -27.2935 1201.04C-29.966 1198.56 -33.5188 1197.55 -36.5686 1195.7C-46.2525 1189.85 -53.9555 1181.89 -60.8726 1173.15C-65.8402 1166.86 -71.9398 1162.02 -78.2909 1157.31C-96.8411 1143.54 -109.575 1125.52 -116.052 1103.32C-118.756 1094.08 -118.221 1084.61 -117.121 1075.09C-116.146 1066.57 -115.391 1058.02 -113.536 1049.62C-111.43 1040.19 -109.04 1030.82 -105.267 1021.89C-100.048 1009.56 -91.8105 999.598 -81.3407 991.329C-71.0595 983.217 -60.0865 976.74 -47.007 974.382C-38.6437 972.873 -30.1547 973.25 -21.8228 974.005C-12.2333 974.885 -2.76949 976.898 6.75715 978.438C7.2602 978.533 7.76325 978.753 8.29775 978.91H8.39207C12.1336 978.753 67.3126 970.955 81.2095 978.218C104.539 990.417 122.68 1014.82 125.479 1016.64C125.51 1016.67 125.541 1016.7 125.573 1016.7C126.265 1017.27 127.113 1017.74 127.617 1018.43C130.792 1022.8 134.408 1027.01 138.715 1030.03C146.198 1035.28 147.802 1043.21 150.128 1050.94C150.631 1052.67 150.757 1054.49 151.826 1055.97C156.228 1061.95 157.894 1068.93 158.963 1076C160.818 1088.1 160.378 1100.21 159.435 1112.38C158.869 1119.8 157.548 1127.19 158.554 1134.83C159.906 1144.92 164.528 1153 170.816 1160.58C175.753 1166.52 179.903 1173.03 183.047 1180.1C187.48 1190.19 186.6 1200.35 183.424 1210.54C183.047 1211.79 182.575 1212.99 182.135 1214.21C182.041 1214.5 181.915 1214.81 181.821 1215.09C181.412 1215.44 181.035 1215.82 180.658 1216.16C180.06 1219.09 178.299 1221.48 176.602 1223.68C164.906 1238.8 156.92 1255.56 153.084 1274.36ZM239.232 1231.04C237.817 1243.93 232.692 1255.43 227.505 1267.07C222.757 1277.76 217.318 1288.01 211.407 1298.07C207.54 1304.58 202.446 1309.61 195.498 1312.78C190.939 1314.89 186.38 1315.39 182.387 1311.96C178.488 1308.63 176.507 1304.32 178.331 1299.04C180.406 1292.97 179.431 1286.62 180.437 1280.4C182.23 1269.58 185.028 1259.08 189.555 1249.08C192.228 1243.23 195.026 1237.42 198.516 1231.95C201.912 1226.6 206.125 1222.01 210.715 1217.7C212.476 1216.07 214.74 1214.69 215.243 1212.01V1211.98C215.243 1211.95 215.211 1211.95 215.18 1211.92H215.274C215.84 1211.48 216.469 1211.13 216.94 1210.63C221.751 1205.63 227.159 1204.22 233.51 1207.61H233.541C240.175 1214.25 240.207 1222.33 239.232 1231.04Z" stroke="#0876E4"/>
<path fill-rule="evenodd" clip-rule="evenodd" d="M523.209 907.853C522.485 908.922 521.731 909.96 520.945 910.997C520.19 912.035 519.404 913.041 518.587 914.047C517.958 914.864 517.298 915.651 516.637 916.437C515.694 917.568 514.72 918.7 513.713 919.801C512.77 920.87 511.796 921.939 510.789 922.945C509.909 923.888 508.997 924.8 508.054 925.712C506.325 927.472 504.533 929.139 502.709 930.805C488.372 943.822 471.865 954.26 458 967.906C452.844 972.999 446.052 974.477 438.538 973.565C429.294 972.433 419.988 971.961 411.058 976.049C406.342 978.218 401.217 979.79 395.935 979.382C388.767 978.816 384.113 982.337 381.284 988.216C376.788 997.523 370.688 1005.51 363.897 1013.27C357.42 1020.73 354.244 1030.41 350.157 1039.37C347.862 1044.43 345.881 1049.65 343.68 1054.75C339.844 1063.64 333.776 1070.5 324.753 1074.46C315.069 1078.7 305.071 1075.94 300.134 1066.66C288.061 1043.9 279.729 1020 279.415 993.844C279.383 989.191 279.855 984.506 278.975 979.885C277.78 973.533 275.988 971.899 269.605 971.961C261.651 972.024 253.853 970.892 246.056 969.918C238.636 968.943 232.159 966.082 227.317 960.36C223.638 956.021 219.331 954.386 213.64 954.543C202.573 954.889 198.611 951.713 195.404 941.055C194.21 937.093 193.612 933.006 193.046 928.919C191.883 920.524 189.902 918.952 181.382 919.361C181.224 919.361 181.036 919.392 180.879 919.361C180.313 919.392 179.778 919.423 179.212 919.361C168.679 916.814 158.147 919.329 147.677 919.832C132.868 920.555 134.755 959.039 119.914 959.668C110.451 960.045 91.2716 961.271 76.4 954.071C65.0812 948.601 59.862 932.786 57.0637 924.705C56.2148 922.159 55.5546 920.367 55.0515 919.926C55.0201 911.846 56.0262 899.27 56.2463 891.189C56.4035 885.31 68.6969 886.19 70.6148 880.531C72.2812 875.626 75.8026 872.985 80.4873 872.639C88.3161 872.01 96.145 870.721 104.037 871.35C106.552 871.539 109.004 871.507 111.488 872.105C118.217 873.74 122.335 869.935 121.424 864.15C121.141 862.232 121.078 860.031 121.738 858.271C123.09 854.686 121.895 852.8 118.814 850.851C108.344 844.216 102.465 835.036 101.647 822.176C101.238 815.794 101.113 809.757 103.031 803.689C104.823 797.904 104.037 791.961 104.068 786.05C104.068 781.209 103.848 776.43 105.829 771.776C107.401 768.035 109.539 764.922 112.777 762.438C118.342 758.257 124.127 754.358 128.466 748.699C130.95 745.46 134.66 743.982 138.936 744.108C149.532 744.454 159.907 742.473 170.283 740.587C172.421 740.209 174.527 739.864 176.665 739.895C178.52 739.926 180.155 739.644 181.727 738.48C183.3 737.285 185.155 736.751 187.198 736.594C191.254 736.216 192.292 734.927 192.543 730.714C192.669 728.954 192.763 727.193 193.109 725.401C193.927 721.376 193.644 720.685 189.902 719.238C183.205 716.66 176.194 715.245 169.151 713.988C157.235 711.787 146.639 716.283 136.169 720.747C129.567 723.546 123.184 726.721 116.204 728.576C111.488 729.802 107.212 732.161 103.188 734.833C100.044 736.94 96.8681 738.983 93.3781 740.461C82.6882 745.051 74.5449 740.524 71.7781 730.211C68.5082 717.792 72.6899 705.719 83.0655 697.89C86.9327 694.966 90.4855 691.696 93.8812 688.237C97.9371 684.119 102.81 681.1 107.464 677.768C117.871 670.347 128.907 664.185 140.823 659.5C144.093 658.211 147.174 656.199 150.161 654.218C159.404 647.993 169.843 645.886 180.658 645.132C190.531 644.44 200.341 645.32 209.962 647.836C212.728 648.559 215.621 648.59 218.419 648.999C224.016 649.816 228.638 652.112 232.851 655.664C235.617 657.991 238.793 659.5 242.409 660.255C246.779 661.167 251.149 662.267 255.237 664.122C257.092 665.002 258.569 665.065 259.953 663.336C263.223 659.154 267.844 657.299 272.718 655.853C274.604 655.287 276.617 654.847 278.251 653.841C284.823 649.785 291.928 649.062 299.443 649.156C305.479 649.251 311.548 648.244 317.458 646.735C322.992 645.352 327.52 642.239 331.921 638.749C334.94 636.36 337.958 633.97 341.039 631.644C342.328 630.637 343.649 629.663 344.969 628.719C346.353 627.713 347.736 626.739 349.151 625.764C349.245 625.701 349.371 625.638 349.465 625.544C439.261 692.796 503.086 792.81 523.209 907.853Z" stroke="#0876E4"/>
<path fill-rule="evenodd" clip-rule="evenodd" d="M158.178 542.791C140.854 559.141 120.544 570.837 98.0946 578.948C84.9523 583.696 71.3068 584.922 57.347 582.816C51.0274 581.872 44.8335 582.564 39.4885 586.809C37.099 588.695 34.3636 590.079 31.5654 591.305C23.4536 594.921 15.8134 593.443 9.21077 587.5C1.50771 580.583 -1.13335 571.528 -2.61107 561.782C-3.55431 555.776 -3.58575 549.771 -3.61719 543.766C23.4536 538.672 51.4046 536 79.9846 536C106.647 536 132.774 538.327 158.178 542.791Z" stroke="#0876E4"/>
<path opacity="0.6" d="M-411.747 642.129C-479.967 739.506 -520 858.078 -520 986C-520 1317.37 -251.371 1586 80 1586C411.371 1586 680 1317.37 680 986C680 807.385 601.952 646.998 478.099 537.085M-408.5 637.541C-394.255 617.606 -378.82 598.58 -362.299 580.567M-307.312 527.737C-261.707 489.154 -210.266 457.256 -154.5 433.555M-83 408.406C-31.1708 393.809 23.5027 386 80 386C157.473 386 231.517 400.683 299.5 427.419M304.719 429.5C357.205 450.715 406.005 479.14 449.891 513.547" stroke="#053D75"/>
<path d="M642.503 435.251C642.503 460.247 622.239 480.503 597.251 480.503C572.256 480.503 552 460.239 552 435.251C552 410.263 572.263 390 597.251 390C622.239 389.992 642.503 410.256 642.503 435.251Z" stroke="#053D75"/>
<path d="M616.025 418.486C612.34 416.811 611.666 415.469 607.647 415.802C601.278 416.136 595.917 420.496 589.207 419.821C582.17 419.154 576.802 416.136 569.432 417.811C564.738 419.154 564.405 419.154 559.378 418.486C558.175 418.316 556.818 418.184 555.375 418.099C553.21 423.389 552 429.177 552 435.243C552 460.239 572.263 480.495 597.251 480.495C622.247 480.495 642.503 460.231 642.503 435.243C642.503 429.735 641.518 424.46 639.718 419.58C632.511 423.095 623.907 422.435 616.025 418.486Z" stroke="#053D75"/>
<path d="M602.946 450.333C598.253 453.017 593.559 452.342 588.199 453.351C577.136 455.36 573.117 446.648 563.397 444.972C559.712 444.305 557.028 444.305 553.343 442.963C553.11 442.909 552.869 442.839 552.637 442.769C556.221 464.181 574.824 480.503 597.26 480.503C622.256 480.503 642.511 460.24 642.511 435.252C642.511 435.05 642.496 434.848 642.496 434.639C635.126 436.423 626.778 441.031 621.061 443.63C614.684 446.648 609.316 446.981 602.946 450.333Z" stroke="#053D75"/>
<path d="M566.5 402.064C567.408 401.226 568.346 400.427 569.316 399.666C570.456 399.69 571.775 399.721 571.775 399.721C571.775 399.721 575.716 399.721 576.05 399.721C576.383 399.721 586.864 399.55 586.864 399.55C586.864 399.55 588.874 399.302 589.215 399.302C589.463 399.302 592.109 399.395 593.497 399.441C593.994 399.457 594.327 399.472 594.327 399.472C594.327 399.472 592.9 399.558 591.643 399.806C590.386 400.054 588.874 400.396 588.455 400.481C588.036 400.566 587.369 400.481 586.608 400.566C585.856 400.652 584.684 400.815 583.761 401.071C582.838 401.319 581.496 401.241 580.743 401.404C579.991 401.575 579.153 401.652 577.555 401.738C575.965 401.823 572.861 402.071 571.938 402.071C571.015 402.071 569.176 402.071 568.758 402.071C568.362 402.064 567.509 402.064 566.5 402.064Z" stroke="#053D75"/>
<path d="M623.651 470.449C621.177 470.387 615.56 469.696 610.447 469.696C605.327 469.696 599.385 470.201 599.385 470.201C599.385 470.201 604.505 470.953 606.894 470.953C609.292 470.953 610.859 470.953 612.015 470.953C613.17 470.953 614.823 471.395 616.475 471.457C618.128 471.519 622.007 471.395 622.007 471.395C622.007 471.395 623.155 471.325 624.706 471.232C625.102 470.93 625.505 470.619 625.893 470.301C625.048 470.402 624.272 470.464 623.651 470.449Z" stroke="#053D75"/>
<path d="M626.39 412.412C625.963 412.451 624.427 412.637 623.155 412.754C621.883 412.878 620.455 412.816 620.455 412.816C620.455 412.816 620.789 412.862 621.277 412.924C622.651 413.11 625.273 413.475 625.521 413.498C625.855 413.529 627.879 413.483 627.879 413.483C627.879 413.483 634.505 414.049 637.367 414.297C636.995 413.591 636.615 412.893 636.203 412.21C635.304 412.187 634.706 412.203 634.148 412.265C633.38 412.358 632.053 412.133 631.114 412.296C630.168 412.451 628.989 412.498 628.228 412.505C627.468 412.529 626.809 412.373 626.39 412.412Z" stroke="#053D75"/>
<path d="M583.148 406.858C583.148 406.858 587.043 407.611 588.866 407.611C590.689 407.611 591.884 407.611 592.76 407.611C593.637 407.611 594.894 408.053 596.158 408.115C597.415 408.177 600.371 408.053 600.371 408.053C600.371 408.053 606.088 407.611 608.036 407.362C609.983 407.114 611.178 407.238 612.814 407.114C614.451 406.99 614.7 407.052 616.399 407.052C618.098 407.052 618.664 407.3 620.169 407.3C621.682 407.3 621.992 407.362 623.629 407.362C625.266 407.362 625.7 407.176 626.204 407.176C626.709 407.176 627.337 407.176 627.841 407.052C628.346 406.928 626.895 406.61 626.895 406.61C626.895 406.61 625.134 406.61 624.886 406.61C624.637 406.61 624.381 406.61 623.877 406.548C623.373 406.486 622.372 406.486 622.372 406.486C622.372 406.486 615.646 405.981 615.46 405.981C615.274 405.981 608.734 405.981 607.981 405.981C607.229 405.981 603.521 407.176 601.635 407.114C599.75 407.052 595.476 406.362 591.581 406.362C587.679 406.362 583.148 406.858 583.148 406.858Z" stroke="#053D75"/>
<path d="M642.139 429.511C640.696 429.386 638.54 429.208 638.447 429.208C638.315 429.216 633.629 429.379 633.094 429.402C632.551 429.417 629.952 430.907 628.594 430.884C627.244 430.86 624.149 430.162 621.364 430.263C618.571 430.364 615.352 431.062 615.352 431.062C615.352 431.062 618.175 431.838 619.479 431.791C620.782 431.745 621.643 431.714 622.272 431.691C622.9 431.667 623.823 432.148 624.723 432.187C625.623 432.226 627.733 432.009 627.733 432.009C627.733 432.009 631.806 431.349 633.195 431.008C634.583 430.666 635.437 430.783 636.608 430.589C637.772 430.403 637.958 430.465 639.168 430.426C640.386 430.379 640.797 430.659 641.883 430.62C642.023 430.612 642.155 430.612 642.271 430.612C642.225 430.248 642.186 429.883 642.139 429.511Z" stroke="#053D75"/>
<path d="M563.164 428.859C563.164 428.859 567.058 429.612 568.882 429.612C570.705 429.612 571.899 429.612 572.776 429.612C573.653 429.612 574.909 430.054 576.174 430.116C577.431 430.178 580.386 430.054 580.386 430.054C580.386 430.054 586.104 429.612 588.051 429.363C589.998 429.115 591.193 429.239 592.83 429.115C594.467 428.991 594.715 429.053 596.414 429.053C598.113 429.053 598.679 429.301 600.184 429.301C601.697 429.301 602.008 429.363 603.644 429.363C605.281 429.363 605.716 429.177 606.22 429.177C606.724 429.177 607.353 429.177 607.857 429.053C608.361 428.929 606.911 428.611 606.911 428.611C606.911 428.611 605.149 428.611 604.901 428.611C604.653 428.611 604.397 428.611 603.893 428.549C603.388 428.487 602.388 428.487 602.388 428.487C602.388 428.487 595.662 427.982 595.475 427.982C595.289 427.982 588.749 427.982 587.997 427.982C587.244 427.982 583.536 429.177 581.651 429.115C579.766 429.053 575.491 428.363 571.597 428.363C567.687 428.355 563.164 428.859 563.164 428.859Z" stroke="#053D75"/>
<path d="M600.852 443.63C601.899 443.63 602.24 443.878 603.171 443.878C604.102 443.878 604.296 443.94 605.297 443.94C606.298 443.94 606.569 443.754 606.88 443.754C607.19 443.754 607.578 443.754 607.888 443.63C608.198 443.506 607.306 443.188 607.306 443.188C607.306 443.188 606.22 443.188 606.065 443.188C605.91 443.188 605.755 443.188 605.444 443.126C605.134 443.064 604.513 443.064 604.513 443.064C604.513 443.064 600.371 442.56 600.254 442.56C600.138 442.56 596.112 442.56 595.654 442.56C595.189 442.56 592.908 443.754 591.744 443.692C590.58 443.63 587.951 442.94 585.553 442.94C583.156 442.94 580.371 443.444 580.371 443.444C580.371 443.444 582.768 444.196 583.893 444.196C585.018 444.196 585.747 444.196 586.29 444.196C586.833 444.196 587.609 444.639 588.377 444.701C589.153 444.763 590.968 444.639 590.968 444.639C590.968 444.639 594.49 444.196 595.685 443.948C596.888 443.7 597.617 443.824 598.625 443.7C599.649 443.568 599.804 443.63 600.852 443.63Z" stroke="#053D75"/>
<path d="M606.327 461.566C608.476 461.442 608.802 461.504 611.036 461.504C613.263 461.504 614.007 461.752 615.986 461.752C617.964 461.752 618.375 461.814 620.524 461.814C622.673 461.814 623.247 461.628 623.906 461.628C624.566 461.628 625.388 461.628 626.055 461.504C626.715 461.38 624.822 461.062 624.822 461.062C624.822 461.062 622.51 461.062 622.176 461.062C621.843 461.062 621.517 461.062 620.857 461C620.198 460.938 618.879 460.938 618.879 460.938C618.879 460.938 610.051 460.434 609.795 460.434C609.547 460.434 600.966 460.434 599.973 460.434C598.98 460.434 594.108 461.628 591.634 461.566C589.159 461.504 583.542 460.814 578.422 460.814C573.302 460.814 567.359 461.318 567.359 461.318C567.359 461.318 572.48 462.07 574.869 462.07C577.266 462.07 578.833 462.07 579.989 462.07C581.145 462.07 582.797 462.513 584.45 462.575C586.102 462.637 589.981 462.513 589.981 462.513C589.981 462.513 597.491 462.071 600.051 461.822C602.611 461.566 604.178 461.69 606.327 461.566Z" stroke="#053D75"/>
<path d="M638.143 449.899C636.56 450.062 635.722 450.186 634.977 450.395C634.233 450.605 632.891 450.589 631.983 450.884C631.075 451.179 629.912 451.412 629.167 451.528C628.414 451.652 627.747 451.605 627.328 451.706C626.909 451.815 625.42 452.226 624.179 452.536C622.937 452.854 621.518 453.01 621.518 453.01C621.518 453.01 621.851 453.002 622.348 452.994C623.736 452.971 626.382 452.932 626.63 452.917C626.964 452.901 628.957 452.544 628.957 452.544C628.957 452.544 637.367 451.978 639.337 451.854C639.624 451.132 639.888 450.403 640.136 449.666C639.399 449.759 638.686 449.844 638.143 449.899Z" stroke="#053D75"/>
<path d="M578.252 471.853C579.012 471.806 579.672 471.93 580.099 471.868C580.525 471.806 582.046 471.558 583.318 471.372C584.59 471.193 586.01 471.186 586.01 471.186C586.01 471.186 585.676 471.154 585.18 471.116C583.799 470.992 581.161 470.751 580.913 470.743C580.58 470.72 578.555 470.867 578.555 470.867C578.555 470.867 571.611 470.596 568.857 470.487C569.719 471.178 570.603 471.845 571.511 472.473C571.813 472.45 572.085 472.419 572.348 472.372C573.109 472.248 574.443 472.403 575.382 472.21C576.32 472 577.5 471.899 578.252 471.853Z" stroke="#053D75"/>
<path opacity="0.4" d="M-498.874 508.922C-470.255 474.277 -438.106 441.727 -402.472 411.786C-401.334 410.831 -400.195 409.879 -399.053 408.931M-555.91 587.977C-610.962 675.89 -646.359 773.284 -661.524 873.495M-666.207 1062.06C-656.055 1162.56 -625.566 1261.76 -574.173 1353.1M-571.529 1357.76C-549.508 1396.25 -523.75 1433.32 -494.214 1468.47C-227.752 1785.6 245.342 1826.68 562.471 1560.21C879.601 1293.75 920.675 820.658 654.213 503.528C644.732 492.244 634.988 481.309 625 470.725M-394.774 405.403C-331.149 353.347 -261.46 313.467 -188.566 285.515M-102.176 258.286C-40.8286 242.977 21.9193 235.593 84.5 235.999M560 409.553C425.261 297.092 258.403 238.374 90 236.054" stroke="#053D75"/>
<circle cx="462.912" cy="526.628" r="18.4085" transform="rotate(-118.688 462.912 526.628)" stroke="#D9D9D9" stroke-linejoin="round"/>
<circle cx="462.912" cy="526.628" r="18.4085" transform="rotate(-118.688 462.912 526.628)" stroke="#053D75" stroke-linejoin="round"/>
<path d="M469.078 509.13L425.571 473.342" stroke="#053D75" stroke-linecap="round"/>
<path d="M457.695 544.317L409.51 546.762" stroke="#053D75" stroke-linecap="round"/>
<path d="M446.841 535.987L431.826 535.39" stroke="#053D75" stroke-linecap="round"/>
<path d="M456.775 515.024L379.923 481.954" stroke="#053D75" stroke-linecap="round"/>
<path opacity="0.3" d="M-790.389 756.172C-780.206 717.505 -767.515 679.856 -752.5 643.408M-794.767 773.5C-811.26 841.634 -820 912.797 -820 986C-820 1483.06 -417.056 1886 80 1886C577.056 1886 980 1483.06 980 986C980 603.081 740.862 276.015 403.784 146M-750.413 638.385C-727.505 583.726 -699.358 531.807 -666.6 483.255M-614.5 413.536C-584.402 377.063 -551.486 343.002 -516.085 311.685M-512 308.093C-464.153 266.275 -411.84 229.441 -355.869 198.399M-301.241 170.5C-185.478 116.288 -56.2761 86 80 86C86.4717 86 92.9275 86.0683 99.3666 86.2042M200.387 93.9819C269.207 103.182 335.565 120.159 398.55 144" stroke="#053D75"/>
<path opacity="0.2" d="M-568.168 159.881C-389.674 19.6404 -164.605 -64 80 -64C659.899 -64 1130 406.101 1130 986C1130 1565.9 659.899 2036 80 2036C-499.899 2036 -970 1565.9 -970 986C-970 692.274 -849.393 426.717 -655 236.15" stroke="#053D75"/>
<path opacity="0.1" d="M-1087.28 706.5C-961.33 178.562 -486.509 -214 80 -214C742.742 -214 1280 323.258 1280 986C1280 1648.74 742.742 2186 80 2186C-582.742 2186 -1120 1648.74 -1120 986C-1120 891.617 -1109.1 799.778 -1088.5 711.674" stroke="#053D75"/>
<path d="M161.652 137.348C188.906 130.912 205.783 103.602 199.348 76.3476C192.912 49.0936 165.602 32.2169 138.348 38.6523C111.094 45.0877 94.2169 72.3984 100.652 99.6523C107.088 126.906 134.398 143.783 161.652 137.348Z" stroke="#053D75"/>
<path d="M156.039 102.692C156.039 109.586 161.624 115.171 168.519 115.171C175.413 115.171 180.998 109.586 180.998 102.692C180.998 95.7971 175.413 90.2119 168.519 90.2119C161.624 90.2119 156.039 95.7971 156.039 102.692Z" stroke="#053D75"/>
<path d="M179.735 64.7202C179.735 60.85 176.595 57.6982 172.713 57.6982C168.832 57.6982 165.691 60.8384 165.691 64.7202C165.691 68.602 168.832 71.7422 172.713 71.7422C176.595 71.7422 179.735 68.602 179.735 64.7202Z" stroke="#053D75"/>
<path d="M184.463 92.1703C184.463 99.8759 189.353 106.423 196.178 108.949C199.075 102.564 200.697 95.4959 200.697 88.0336C200.697 83.387 200.06 78.9027 198.889 74.627C190.674 76.226 184.463 83.4682 184.463 92.1703Z" stroke="#053D75"/>
<path d="M116.016 100.895C116.016 99.3304 114.753 98.0674 113.189 98.0674C111.624 98.0674 110.361 99.3304 110.361 100.895C110.361 102.459 111.624 103.722 113.189 103.722C114.741 103.722 116.016 102.459 116.016 100.895Z" stroke="#053D75"/>
<path d="M182.563 79.6906C182.563 78.1263 181.3 76.8633 179.736 76.8633C178.171 76.8633 176.908 78.1263 176.908 79.6906C176.908 81.2549 178.171 82.5179 179.736 82.5179C181.3 82.5064 182.563 81.2433 182.563 79.6906Z" stroke="#053D75"/>
<path d="M118.947 113.618C118.947 117.499 122.087 120.64 125.969 120.64C129.851 120.64 132.991 117.499 132.991 113.618C132.991 109.736 129.851 106.596 125.969 106.596C122.087 106.596 118.947 109.736 118.947 113.618Z" stroke="#053D75"/>
<path d="M145.947 54.0937C145.947 56.5734 147.952 58.578 150.432 58.578C152.911 58.578 154.916 56.5734 154.916 54.0937C154.916 51.614 152.911 49.6094 150.432 49.6094C147.952 49.6094 145.947 51.614 145.947 54.0937Z" stroke="#053D75"/>
<path d="M166.594 135.935C165.146 127.5 157.823 121.08 148.981 121.08C140.384 121.08 133.211 127.152 131.484 135.228C137.22 137.488 143.466 138.728 150.001 138.728C155.806 138.728 161.392 137.731 166.594 135.935Z" stroke="#053D75"/>
<path d="M121.335 86.8517C126.607 86.8517 130.895 82.5759 130.895 77.292C130.895 72.0198 126.619 67.7324 121.335 67.7324C116.063 67.7324 111.775 72.0082 111.775 77.292C111.775 82.5759 116.051 86.8517 121.335 86.8517Z" stroke="#053D75"/>
<path d="M150.928 78.3703C150.928 76.806 149.665 75.543 148.101 75.543C146.536 75.543 145.273 76.806 145.273 78.3703C145.273 79.9346 146.536 81.1976 148.101 81.1976C149.665 81.1976 150.928 79.9346 150.928 78.3703Z" stroke="#053D75"/>
<path d="M141.949 98.4512C139.469 98.4512 137.465 100.456 137.465 102.935C137.465 105.415 139.469 107.42 141.949 107.42C144.429 107.42 146.434 105.415 146.434 102.935C146.434 100.467 144.429 98.4512 141.949 98.4512Z" stroke="#053D75"/>
<g filter="url(#filter3_d_2647_9158)">
<path d="M262.936 390.171C262.936 390.171 225.777 375.29 215.739 388.305C204.402 403.006 186.068 451.631 191.171 470.097C194.474 482.042 216.29 488.376 216.29 488.376L262.936 390.171Z" fill="url(#paint0_linear_2647_9158)"/>
<path d="M250.538 526.898C259.784 539.014 276.035 544.227 288.187 546.464C291.354 545.578 294.546 544.308 297.713 542.632C289.333 542.148 264.781 539.289 254.015 522.395C252.96 523.602 251.812 525.058 250.538 526.898Z" fill="#0876E4"/>
<path d="M255.321 578.308C275.388 583.507 279.836 558.023 280.766 549.334C280.826 548.759 280.873 548.26 280.907 547.847C283.298 547.612 285.736 547.154 288.188 546.464C276.035 544.227 259.785 539.014 250.538 526.898C250.285 527.264 250.024 527.649 249.76 528.049C249.319 528.715 248.745 529.622 248.092 530.728C246.909 532.73 245.471 535.378 244.082 538.413C237.979 551.744 232.893 572.489 255.321 578.308Z" fill="url(#paint1_linear_2647_9158)"/>
<path d="M195.196 508.405C195.264 508.567 195.334 508.729 195.404 508.888C202.375 524.724 222.907 529.141 233.594 530.375C235.724 529.403 237.784 528.211 239.766 526.825C228.843 525.712 207.074 521.365 198.54 504.429C197.443 505.728 196.323 507.053 195.196 508.405Z" fill="#0876E4"/>
<path d="M196.638 563.7C216.925 568.952 220.974 542.054 221.739 533.391C222.626 533.334 223.506 533.242 224.373 533.114C227.586 532.649 230.661 531.716 233.596 530.375C222.908 529.141 202.376 524.723 195.406 508.888C195.335 508.728 195.265 508.566 195.197 508.404C194.268 509.52 193.33 510.652 192.401 511.797C191.957 512.344 191.514 512.895 191.072 513.449C185.676 520.225 166.301 555.832 196.638 563.7Z" fill="url(#paint2_linear_2647_9158)"/>
<path d="M352.639 353.685C354.942 362.065 362.032 378.086 382.917 381.401C383.971 379.725 385.034 377.984 386.102 376.17C368.008 372.404 359.578 359.718 355.738 350.234C354.691 351.424 353.655 352.574 352.639 353.685Z" fill="#0876E4"/>
<path d="M478.938 194.402C488.654 194.655 497.476 200.129 502.021 208.724L525.023 252.229C529.498 260.689 529.144 270.893 524.095 279.032L497.61 321.731C492.56 329.869 483.576 334.718 474.009 334.469L424.818 333.186C415.1 332.931 406.28 327.46 401.735 318.865L378.731 275.358C374.259 266.896 374.61 256.693 379.66 248.554L406.145 205.856C411.192 197.718 420.176 192.869 429.743 193.118L478.938 194.402Z" fill="#0876E4"/>
<path d="M421.515 312.733C418.093 310.61 415.225 307.596 413.28 303.916L397.457 273.975C393.641 266.752 393.946 257.952 398.256 251.006L416.551 221.515C420.86 214.568 428.61 210.384 436.776 210.594L470.627 211.468C478.946 211.683 486.529 216.386 490.418 223.745L506.241 253.686C510.059 260.908 509.752 269.709 505.442 276.656L487.147 306.147C482.838 313.093 475.09 317.277 466.921 317.065L433.07 316.191C428.911 316.086 424.936 314.855 421.515 312.733ZM478.125 221.472C475.845 220.057 473.193 219.237 470.42 219.165L436.568 218.289C431.126 218.148 425.958 220.938 423.085 225.57L404.79 255.061C401.917 259.693 401.714 265.559 404.258 270.373L420.081 300.314C422.673 305.219 427.73 308.354 433.275 308.498L467.128 309.374C472.573 309.516 477.739 306.727 480.612 302.095L498.906 272.604C501.779 267.972 501.985 262.105 499.438 257.29L483.615 227.349C482.319 224.896 480.408 222.886 478.125 221.472Z" fill="white"/>
<path fill-rule="evenodd" clip-rule="evenodd" d="M468.409 238.771C459.686 233.36 448.222 236.051 442.807 244.782C441.873 246.287 442.336 248.265 443.838 249.197C445.342 250.131 447.32 249.666 448.254 248.161C451.803 242.439 459.313 240.676 465.027 244.223C470.744 247.769 472.5 255.282 468.951 261.001L465.907 265.907L441.397 250.702C438.69 249.022 435.133 249.857 433.452 252.566L424.66 266.742C421.86 271.257 423.247 277.189 427.757 279.988L449.543 293.504C454.057 296.304 459.984 294.911 462.785 290.396L471.576 276.22C472.901 274.086 472.665 271.419 471.179 269.565L474.397 264.378C479.816 255.65 477.133 244.185 468.409 238.771ZM465.252 273.051L438.562 256.494L430.108 270.123C429.174 271.628 429.636 273.604 431.142 274.537L452.928 288.053C454.432 288.987 456.409 288.523 457.341 287.018L465.795 273.389L465.252 273.051ZM448.459 270.938C447.256 270.192 445.674 270.563 444.927 271.767C444.181 272.971 444.551 274.553 445.754 275.299C446.956 276.046 448.538 275.674 449.285 274.47C450.032 273.266 449.661 271.684 448.459 270.938ZM442.749 270.416C444.244 268.007 447.403 267.266 449.811 268.757C452.218 270.251 452.959 273.413 451.464 275.822C449.968 278.23 446.806 278.972 444.401 277.48C441.992 275.987 441.253 272.824 442.749 270.416Z" fill="white"/>
<path d="M355.739 350.235C359.579 359.719 368.008 372.404 386.102 376.171C387.023 374.608 387.948 372.99 388.877 371.317C390.824 367.809 392.785 364.063 394.743 360.064C394.743 360.064 399.032 360.785 403.815 359.808C408.918 358.767 412.675 354.19 415.116 348.685C418.066 342.022 419.091 334.005 418.24 329.227C416.361 318.677 410.077 318.677 410.077 318.677C408.555 315.373 405.519 312.683 400.572 310.997C387.794 306.642 381.027 316.619 381.027 316.619C375.762 324.783 370.546 332.037 365.531 338.444C363.515 341.021 361.531 343.462 359.589 345.768C358.286 347.318 357.005 348.805 355.739 350.235Z" fill="url(#paint3_linear_2647_9158)"/>
<path d="M198.54 504.429C207.074 521.365 228.844 525.712 239.766 526.825C241.408 525.683 243.001 524.405 244.541 523.006C245.457 522.17 246.358 521.294 247.238 520.377C250.686 516.798 253.853 512.597 256.735 507.939C256.735 507.939 259.753 509.568 264.791 511.005C264.736 511.092 264.681 511.178 264.627 511.264C261.825 515.648 259.479 516.976 256.414 519.898C255.873 520.411 255.312 520.973 254.72 521.613C254.49 521.861 254.255 522.123 254.015 522.395C258.024 528.686 263.945 533.033 270.231 536.032C280.825 541.09 292.452 542.329 297.713 542.632C299.138 541.877 300.558 541.043 301.971 540.12C314.997 531.63 327.168 515.993 334.61 491.735C344.246 460.302 345.259 433.096 345.295 423.905C345.295 423.905 345.29 423.9 345.295 423.892C345.303 421.748 345.259 420.59 345.259 420.59C345.259 420.59 360.953 414.17 379.794 386.196C380.822 384.664 381.864 383.067 382.916 381.402C362.032 378.087 354.941 362.066 352.639 353.686C351.25 355.202 349.895 356.642 348.574 358.009C343.301 363.472 338.607 367.778 334.777 371.04C334.777 371.04 323.703 401.746 298.512 400.047C279.554 398.766 266.35 391.371 258.275 384.933C258.017 384.724 257.761 384.517 257.515 384.311C251.344 379.24 248.42 374.914 248.42 374.914C247.3 379.276 245.729 384.598 243.857 390.349C243.755 390.668 243.648 390.982 243.549 391.309C241.964 396.129 240.194 401.223 238.315 406.284C232.882 420.985 226.627 435.383 221.918 441.923C213.535 453.558 212.178 484.186 212.178 484.186C211.972 485.485 211.421 486.92 210.588 488.481C210.499 488.651 210.405 488.818 210.306 488.988C208.353 492.501 205.095 496.6 201.339 501.098C200.433 502.186 199.496 503.297 198.54 504.429Z" fill="url(#paint4_linear_2647_9158)"/>
<path d="M396.533 324.501C396.611 324.221 396.692 323.933 396.783 323.641L396.392 324.365L396.533 324.501Z" fill="white"/>
<path d="M324.077 379.223C324.396 379.02 328.39 376.481 334.775 371.039L324.077 379.223Z" fill="white"/>
<path d="M318.762 487.427C314.935 487.216 310.653 486.907 306.069 486.471C308.779 486.928 311.28 487.315 313.515 487.642C315.303 487.895 317.081 487.814 318.762 487.427Z" fill="white"/>
<path d="M336.804 477.693C331.222 477.693 326.696 473.161 326.696 467.572C326.696 461.982 331.222 457.45 336.804 457.45C342.387 457.45 346.912 461.982 346.912 467.572C346.912 473.161 342.387 477.693 336.804 477.693Z" fill="url(#paint5_linear_2647_9158)"/>
<path d="M265.674 482.915L304.263 489.22L307.007 489.669L322.858 492.26C329.628 493.363 336.076 488.728 337.18 481.942L338.211 475.604L342.14 451.471C343.252 444.688 338.613 438.234 331.836 437.128L329.829 436.802L327.088 436.352L274.662 427.789C273.819 427.65 272.981 427.598 272.161 427.634C266.369 427.87 261.307 432.164 260.338 438.103L255.373 468.575C254.269 475.36 258.908 481.812 265.674 482.915Z" fill="url(#paint6_linear_2647_9158)"/>
<path d="M325.189 492.409C324.425 492.443 323.649 492.394 322.858 492.26L265.674 482.915C260.714 482.102 256.897 478.427 255.652 473.84C255.195 472.172 255.08 470.386 255.378 468.575L257.579 455.037L258.304 450.57L260.335 438.104C261.44 431.318 267.89 426.683 274.66 427.786L287.015 429.81C281.144 429.953 275.988 434.272 275.007 440.273L272.321 456.731L270.039 470.75C268.937 477.528 273.574 483.987 280.343 485.093L325.189 492.409Z" fill="url(#paint7_linear_2647_9158)"/>
<path d="M225.801 430.1C225.801 430.1 220.308 432.546 218.499 438.268C216.408 444.884 219.598 448.75 219.598 448.75C219.598 448.75 234.261 463.174 263.719 465.059C263.719 465.059 274.929 456.524 267.559 447.702C267.562 447.702 237.115 443.4 225.801 430.1Z" fill="url(#paint8_linear_2647_9158)"/>
<g opacity="0.35">
<path d="M218.888 447.569C219.778 445.418 220.786 443.494 221.919 441.921C222.506 441.105 223.12 440.167 223.754 439.113C222.939 436.818 222.84 434.285 223.571 431.854C223.589 431.786 223.616 431.723 223.634 431.653C223.665 431.546 223.702 431.433 223.754 431.334C221.994 432.594 219.585 434.845 218.501 438.274C217.087 442.744 218.086 445.959 218.888 447.569Z" fill="#371A45"/>
</g>
<path d="M201.297 448.552C202.378 448.193 203.518 447.901 204.704 447.668C215.036 445.642 228.88 448.17 237.474 450.238C237.704 448.737 238.053 446.897 238.586 444.837C228.279 442.223 211.394 439.241 202.832 442.79C202.25 444.717 201.738 446.641 201.297 448.552Z" fill="#0876E4"/>
<path d="M201.773 479.923C203.243 483.598 206.493 486.808 210.307 488.988C219.326 494.153 231.518 493.588 230.841 479.923C230.452 472.088 236.3 476.03 239.287 475.578C242.265 475.121 244.351 473.16 242.14 466.508C241.399 464.267 239.963 460.276 238.235 456.705C237.851 455.908 237.451 455.134 237.044 454.402C237.044 454.402 237.081 452.821 237.475 450.238C228.881 448.171 215.037 445.643 204.705 447.669C203.519 447.901 202.379 448.194 201.298 448.552C200.721 451.043 200.267 453.514 199.935 455.931C198.685 465.083 199.222 473.537 201.773 479.923Z" fill="url(#paint9_linear_2647_9158)"/>
<path d="M202.831 442.791C211.394 439.241 228.279 442.223 238.586 444.837C239.05 443.044 239.656 441.081 240.439 439.024C242.692 433.111 246.441 426.43 252.67 420.77L255.763 400.985L258.274 384.933L258.41 384.06C258.41 384.06 258.097 384.135 257.515 384.311C255.525 384.907 250.377 386.637 243.856 390.349C243.593 390.498 243.324 390.655 243.055 390.811C233.921 396.152 222.306 405.319 212.864 420.501C209.838 425.371 207.28 430.565 205.228 435.845C204.33 438.151 203.531 440.472 202.831 442.791Z" fill="url(#paint10_linear_2647_9158)"/>
<path d="M375.314 329.273C374.314 339.368 371.463 349.325 366.756 358.618C364.963 362.16 362.901 365.605 360.567 368.925C358.841 371.379 356.977 373.761 354.962 376.061C353.986 377.182 352.962 378.285 351.913 379.375C348.728 382.651 345.342 385.612 341.786 388.266C338.729 390.558 335.539 392.618 332.263 394.448C329.05 396.243 325.742 397.814 322.364 399.166C321.583 399.477 320.798 399.777 320.009 400.068C318.477 400.622 316.934 401.137 315.383 401.607C310.026 403.225 304.542 404.31 299.012 404.862C299.012 404.862 299.012 404.862 299.01 404.862C275.207 407.233 250.6 399.702 232.062 382.102C198.402 350.159 197.493 297.15 230.018 263.699C236.286 257.261 243.34 252.004 250.884 247.968C251.761 247.49 252.657 247.032 253.56 246.593C255.967 245.406 258.416 244.34 260.901 243.396C266.652 241.211 272.596 239.668 278.608 238.764C284.618 237.854 290.714 237.585 296.765 237.959C298.018 238.037 299.271 238.139 300.521 238.27C301.19 238.341 301.858 238.419 302.529 238.505C305.403 238.882 308.256 239.394 311.094 240.066C313.138 240.544 315.167 241.098 317.177 241.731C329.063 245.461 340.28 251.868 349.869 260.972C352.419 263.39 354.779 265.931 356.951 268.574C371.283 286.007 377.431 307.927 375.314 329.273Z" fill="url(#paint11_linear_2647_9158)"/>
<path d="M317.174 241.733C316.292 241.493 315.407 241.27 314.514 241.059C306.672 240.886 298.493 242.073 290.095 244.595C286.798 245.586 283.467 246.783 280.107 248.182C258.609 257.145 240.742 276.06 232.31 298.781C224.771 319.102 225.533 340.11 234.459 357.94C244.233 377.456 259.799 391.117 279.475 397.448C293.04 401.811 307.888 402.326 322.361 399.165C321.581 399.476 320.795 399.777 320.007 400.067C318.474 400.621 316.931 401.136 315.381 401.607C310.024 403.225 304.539 404.31 299.01 404.861C299.01 404.861 299.01 404.861 299.007 404.861C291.935 404.472 284.978 403.214 278.313 401.071C257.643 394.421 241.304 380.096 231.06 359.642C221.657 340.86 220.834 318.775 228.747 297.453C237.537 273.762 256.192 254.027 278.645 244.666C286.069 241.571 293.384 239.433 300.516 238.27C301.184 238.34 301.853 238.419 302.524 238.505C305.398 238.881 308.251 239.394 311.089 240.065C313.133 240.546 315.164 241.1 317.174 241.733Z" fill="#9CBDEA"/>
<mask id="mask1_2647_9158" style="mask-type:luminance" maskUnits="userSpaceOnUse" x="231" y="247" width="145" height="145">
<path d="M375.314 329.273C374.609 336.383 372.988 343.425 370.445 350.214C369.377 353.063 368.148 355.87 366.756 358.618C355.406 373.118 340.228 383.505 323.601 388.498C315.057 391.062 306.131 392.205 297.141 391.745C271.403 390.433 249.89 376.192 238.116 352.676C229.997 336.459 229.287 317.393 236.119 298.988C243.705 278.546 259.802 261.519 279.178 253.439C308.309 241.292 334.419 246.389 356.949 268.574C371.283 286.007 377.431 307.927 375.314 329.273Z" fill="white"/>
</mask>
<g mask="url(#mask1_2647_9158)">
<path d="M375.314 329.273C374.609 336.383 372.988 343.425 370.445 350.214C369.377 353.063 368.148 355.87 366.756 358.618C355.406 373.118 340.228 383.505 323.601 388.498C315.057 391.062 306.131 392.205 297.141 391.745C271.403 390.433 249.89 376.192 238.116 352.676C229.997 336.459 229.287 317.393 236.119 298.988C243.705 278.546 259.802 261.519 279.178 253.439C308.309 241.292 334.419 246.389 356.949 268.574C371.283 286.007 377.431 307.927 375.314 329.273Z" fill="#371A45"/>
</g>
<mask id="mask2_2647_9158" style="mask-type:luminance" maskUnits="userSpaceOnUse" x="231" y="247" width="145" height="145">
<path d="M375.314 329.273C374.609 336.383 372.988 343.425 370.445 350.214C369.377 353.063 368.148 355.87 366.756 358.618C355.406 373.118 340.228 383.505 323.601 388.498C315.057 391.062 306.131 392.205 297.141 391.745C271.403 390.433 249.89 376.192 238.116 352.676C229.997 336.459 229.287 317.393 236.119 298.988C243.705 278.546 259.802 261.519 279.178 253.439C308.309 241.292 334.419 246.389 356.949 268.574C371.283 286.007 377.431 307.927 375.314 329.273Z" fill="white"/>
</mask>
<g mask="url(#mask2_2647_9158)">
<path d="M266.036 333.883C266.036 333.883 264.987 328.697 257.506 324.783C250.027 320.87 246.608 325.249 245.561 330.396C244.514 335.543 249.243 349.332 254.905 352.185C260.567 355.038 264.279 351.213 264.279 351.213L266.035 333.882L266.036 333.883Z" fill="url(#paint12_linear_2647_9158)"/>
<g style="mix-blend-mode:multiply" opacity="0.6">
<path d="M265.124 342.88L264.589 348.16C264.589 348.16 262.777 341.866 261.295 341.803C259.814 341.739 260.017 345.787 259.356 347.121C258.696 348.454 256.768 346.77 256.756 342.216C256.746 337.662 259.841 338.027 259.841 338.027C259.841 338.027 257.221 329.627 252.741 331.534C248.26 333.441 249.627 344.409 249.627 344.409C249.627 344.409 244.818 333.639 246.419 330.015C248.02 326.391 251.676 326.495 257.205 330.648C259.917 332.684 262.34 336.875 264.104 340.614C264.474 341.398 264.816 342.162 265.124 342.88Z" fill="url(#paint13_linear_2647_9158)"/>
</g>
<g style="mix-blend-mode:multiply" opacity="0.6">
<path d="M265.17 342.398L264.806 345.998C264.092 344.2 262.208 339.864 261.042 340.815C259.582 342.007 260.033 344.52 258.757 346.103C257.479 347.686 256.354 342.963 257.579 340.025C258.805 337.087 262.324 338.66 263.322 339.631C263.561 339.865 263.826 340.206 264.103 340.614C264.452 341.132 264.818 341.754 265.17 342.398Z" fill="url(#paint14_linear_2647_9158)"/>
</g>
<path d="M342.022 341.606C342.022 341.606 344.09 336.738 352.201 334.412C360.312 332.087 362.783 337.066 362.777 342.319C362.77 347.571 355.373 360.125 349.254 361.779C343.136 363.432 340.266 358.936 340.266 358.936L342.022 341.606Z" fill="url(#paint15_linear_2647_9158)"/>
<g style="mix-blend-mode:multiply" opacity="0.6">
<path d="M341.111 350.603L340.576 355.883C340.576 355.883 343.614 350.084 345.077 350.32C346.541 350.557 345.531 354.481 345.91 355.92C346.29 357.36 348.517 356.099 349.441 351.64C350.364 347.182 347.259 346.915 347.259 346.915C347.259 346.915 351.51 339.215 355.517 341.986C359.525 344.758 355.986 355.226 355.986 355.226C355.986 355.226 362.857 345.646 362.015 341.773C361.174 337.9 357.572 337.265 351.323 340.218C348.258 341.666 345.044 345.282 342.567 348.59C342.046 349.282 341.559 349.962 341.111 350.603Z" fill="url(#paint16_linear_2647_9158)"/>
</g>
<g style="mix-blend-mode:multiply" opacity="0.6">
<path d="M341.16 350.124L340.795 353.723C341.855 352.106 344.569 348.238 345.521 349.405C346.713 350.867 345.767 353.238 346.699 355.046C347.633 356.854 349.683 352.455 349.072 349.33C348.461 346.205 344.698 347.036 343.526 347.785C343.243 347.966 342.916 348.248 342.564 348.591C342.119 349.028 341.635 349.563 341.16 350.124Z" fill="url(#paint17_linear_2647_9158)"/>
</g>
<path d="M312.959 403.586C313.426 398.984 315.646 377.082 315.646 377.082L300.062 377.354L284.851 373.947C284.851 373.947 282.631 395.849 282.165 400.451C281.698 405.053 278.263 406.227 278.263 406.227C278.263 406.227 280.923 411.007 296.49 412.592C312.058 414.177 315.623 410.031 315.623 410.031C315.623 410.031 312.493 408.188 312.959 403.586Z" fill="url(#paint18_linear_2647_9158)"/>
<g style="mix-blend-mode:multiply" opacity="0.6">
<path d="M315.649 377.079C315.649 377.079 314.384 389.551 313.564 397.65C310.86 399.893 307.459 401.531 303.332 401.418C293.173 401.14 286.172 388.277 283.892 383.432C284.418 378.243 284.854 373.942 284.854 373.942L300.065 377.35L315.649 377.079Z" fill="#D077B7"/>
</g>
<path d="M344.125 328.288C345.45 315.212 350.378 285.109 309.715 280.967C269.052 276.825 267.842 307.307 266.517 320.383C265.133 334.048 259.121 353.655 262.262 360.661C269.795 377.467 291.478 384.968 299.1 385.745C306.722 386.521 329.465 383.545 340.216 368.602C344.697 362.372 342.741 341.953 344.125 328.288Z" fill="url(#paint19_linear_2647_9158)"/>
<g style="mix-blend-mode:multiply" opacity="0.6">
<path d="M340.204 368.606C329.456 383.547 306.715 386.521 299.094 385.744C291.474 384.968 269.795 377.469 262.262 360.667C261.172 358.235 261.648 349.712 262.104 345.838C261.833 349.065 261.472 357.041 262.416 359.148C269.947 375.95 291.628 383.448 299.248 384.224C306.869 385 329.609 382.025 340.358 367.087C341.707 365.212 342.951 357.327 343.333 354.111C343.002 358 341.76 366.443 340.204 368.606Z" fill="url(#paint20_linear_2647_9158)"/>
</g>
<path d="M297.313 321.628C297.313 321.628 294.468 321.507 291.571 320.527C290.657 320.218 289.738 319.823 288.901 319.321C285.415 317.225 284.793 316.219 281.758 315.402C278.723 314.585 273.507 314.562 273.507 314.562C273.507 314.562 274.833 312.468 276.362 311.063C276.86 310.605 277.38 310.219 277.883 310.004L277.365 310.882C277.455 310.754 278.447 309.581 284.113 310.639C290.101 311.756 296.985 315.358 296.985 315.358L297.116 319.07C297.116 319.07 297.841 318.346 298.117 317.07C298.118 317.069 299.021 319.263 297.313 321.628Z" fill="url(#paint21_linear_2647_9158)"/>
<g style="mix-blend-mode:multiply" opacity="0.6">
<path d="M291.573 320.528C290.659 320.219 289.739 319.825 288.902 319.322C285.417 317.226 284.795 316.22 281.759 315.403C278.724 314.586 273.508 314.563 273.508 314.563C273.508 314.563 274.834 312.469 276.363 311.064C278.346 311.185 281.155 311.694 283.581 313.486C283.581 313.486 283.497 312.596 282.019 311.402C282.02 311.402 287.128 311.797 291.573 320.528C291.571 320.528 291.571 320.526 291.573 320.528Z" fill="#D077B7"/>
</g>
<path d="M314.766 323.399C314.766 323.399 317.577 323.854 320.611 323.478C321.569 323.36 322.548 323.159 323.469 322.835C327.304 321.485 328.115 320.625 331.252 320.437C334.387 320.248 339.503 321.277 339.503 321.277C339.503 321.277 338.624 318.959 337.408 317.274C337.012 316.725 336.58 316.243 336.13 315.93L336.462 316.895C336.399 316.752 335.663 315.402 329.9 315.296C323.811 315.183 316.345 317.323 316.345 317.323L315.472 320.933C315.472 320.933 314.907 320.077 314.893 318.772C314.89 318.77 313.568 320.738 314.766 323.399Z" fill="url(#paint22_linear_2647_9158)"/>
<g style="mix-blend-mode:multiply" opacity="0.6">
<path d="M320.608 323.478C321.566 323.36 322.545 323.158 323.466 322.835C327.301 321.485 328.112 320.624 331.249 320.436C334.385 320.248 339.5 321.277 339.5 321.277C339.5 321.277 338.621 318.958 337.405 317.274C335.439 316.992 332.585 316.925 329.849 318.191C329.849 318.191 330.11 317.337 331.797 316.465C331.796 316.465 326.714 315.822 320.608 323.478C320.61 323.478 320.61 323.476 320.608 323.478Z" fill="#D077B7"/>
</g>
<path d="M310.119 360.348C307.966 360.495 307.696 359.551 305.881 359.367C304.067 359.182 303.338 360.33 301.736 360.166C300.134 360.003 299.65 358.732 297.837 358.548C296.023 358.363 295.568 359.234 293.488 358.655C291.618 358.134 291.162 353.908 292.277 351.403C292.281 351.394 292.281 351.388 292.285 351.386C292.407 351.11 292.551 350.855 292.714 350.628C294.351 348.35 300.292 346.387 303.104 346.674C305.916 346.96 311.342 350.079 312.488 352.641C312.666 353.04 312.784 353.498 312.847 353.988C313.192 356.643 311.938 360.224 310.119 360.348Z" fill="url(#paint23_linear_2647_9158)"/>
<g style="mix-blend-mode:multiply" opacity="0.6">
<path d="M310.119 360.348C307.966 360.495 307.696 359.552 305.881 359.367C304.068 359.182 303.339 360.33 301.737 360.167C300.135 360.004 299.651 358.733 297.838 358.548C296.024 358.364 295.568 359.235 293.489 358.655C291.62 358.135 291.163 353.909 292.278 351.404C292.189 351.642 291.41 353.963 292.348 355.966C292.687 356.691 293.514 357.048 294.284 356.834C296.012 356.355 299.576 355.615 303.272 356.319C306.302 356.896 308.364 357.705 309.551 358.277C310.355 358.663 311.32 358.357 311.745 357.572C312.202 356.727 312.685 355.515 312.847 353.989C313.192 356.644 311.938 360.225 310.119 360.348Z" fill="#D077B7"/>
</g>
<path d="M294.266 358.82C293.238 358.604 294.962 356.942 298.681 358.735C298.681 358.735 295.039 358.981 294.266 358.82Z" fill="url(#paint24_linear_2647_9158)"/>
<path d="M309.38 360.357C310.429 360.353 308.942 358.685 305.072 359.384C305.072 359.384 308.589 360.36 309.38 360.357Z" fill="url(#paint25_linear_2647_9158)"/>
<g style="mix-blend-mode:multiply" opacity="0.6">
<path d="M293.117 358.494C292.656 357.532 293.595 357.012 294.283 356.835C294.969 356.658 297.977 355.724 302.146 356.149C306.316 356.573 311.909 358.571 310.512 360.265C309.115 361.958 304.627 362.541 300.772 362.148C295.238 361.585 293.117 358.494 293.117 358.494Z" fill="#D077B7"/>
</g>
<g style="mix-blend-mode:multiply" opacity="0.6">
<path d="M293.156 350.106C294.647 349.665 295.695 351.225 296.405 351.823C297.117 352.421 295.809 349.985 294.117 349.341L293.156 350.106Z" fill="url(#paint26_linear_2647_9158)"/>
</g>
<g style="mix-blend-mode:multiply" opacity="0.6">
<path d="M312.16 352.04C310.787 351.307 309.448 352.624 308.632 353.067C307.815 353.509 309.627 351.39 311.413 351.101L312.16 352.04Z" fill="url(#paint27_linear_2647_9158)"/>
</g>
<path opacity="0.2" d="M304.446 353.625C304.26 353.941 303.843 355.001 304.695 355.21C305.547 355.419 306.458 354.87 306.605 354.624C306.751 354.38 306.673 353.576 306.039 353.39C305.405 353.205 304.769 353.077 304.446 353.625Z" fill="#FFCEBE"/>
<path d="M293.061 344.351C293.061 344.351 281.719 346.814 276.303 345.38C271.757 344.175 269.451 337.397 269.759 334.209C269.816 333.598 269.97 333.119 270.223 332.837C273.061 329.654 284.954 325.481 289.99 329.875C292.516 332.077 293.28 335.711 293.415 338.788C293.55 341.844 293.061 344.351 293.061 344.351Z" fill="url(#paint28_linear_2647_9158)"/>
<mask id="mask3_2647_9158" style="mask-type:luminance" maskUnits="userSpaceOnUse" x="269" y="327" width="25" height="19">
<path d="M270.222 332.837C268.651 334.6 270.887 343.944 276.304 345.378C281.721 346.813 293.063 344.352 293.063 344.352C293.063 344.352 295.026 334.269 289.99 329.876C284.955 325.482 273.061 329.653 270.222 332.837Z" fill="white"/>
</mask>
<g mask="url(#mask3_2647_9158)">
<path d="M284.856 342.14C289.326 342.596 293.316 339.34 293.769 334.869C294.222 330.398 290.965 326.404 286.495 325.948C282.026 325.492 278.035 328.748 277.583 333.219C277.13 337.69 280.386 341.685 284.856 342.14Z" fill="url(#paint29_linear_2647_9158)"/>
</g>
<mask id="mask4_2647_9158" style="mask-type:luminance" maskUnits="userSpaceOnUse" x="269" y="327" width="25" height="19">
<path d="M270.222 332.837C268.651 334.6 270.887 343.944 276.304 345.378C281.721 346.813 293.063 344.352 293.063 344.352C293.063 344.352 295.026 334.269 289.99 329.876C284.955 325.482 273.061 329.653 270.222 332.837Z" fill="white"/>
</mask>
<g mask="url(#mask4_2647_9158)">
<path opacity="0.8" d="M284.922 341.494C289.035 341.913 292.707 338.918 293.124 334.803C293.54 330.688 290.543 327.012 286.43 326.593C282.317 326.174 278.645 329.17 278.228 333.284C277.811 337.399 280.808 341.075 284.922 341.494Z" fill="url(#paint30_linear_2647_9158)"/>
</g>
<mask id="mask5_2647_9158" style="mask-type:luminance" maskUnits="userSpaceOnUse" x="269" y="327" width="25" height="19">
<path d="M270.222 332.837C268.651 334.6 270.887 343.944 276.304 345.378C281.721 346.813 293.063 344.352 293.063 344.352C293.063 344.352 295.026 334.269 289.99 329.876C284.955 325.482 273.061 329.653 270.222 332.837Z" fill="white"/>
</mask>
<g mask="url(#mask5_2647_9158)">
<path d="M285.215 338.611C287.736 338.868 289.987 337.032 290.242 334.509C290.498 331.987 288.661 329.734 286.139 329.477C283.618 329.22 281.367 331.056 281.112 333.579C280.856 336.101 282.693 338.354 285.215 338.611Z" fill="url(#paint31_linear_2647_9158)"/>
</g>
<g style="mix-blend-mode:multiply" opacity="0.6">
<path d="M293.416 338.784C289.52 335.466 282.03 333.266 269.763 334.206C269.82 333.596 269.974 333.116 270.227 332.835C273.065 329.652 284.957 325.481 289.992 329.873C292.517 332.075 293.282 335.709 293.416 338.784Z" fill="#D077B7"/>
</g>
<path d="M281.951 324.36C275.527 324.612 270.637 332.425 270.637 332.425C270.637 332.425 277.888 326.666 285.582 329.842C292.165 332.559 293.276 337.096 293.276 337.087C293.276 337.08 294.772 323.857 281.951 324.36Z" fill="#714237"/>
<path d="M270.283 338.169C272.886 341.679 275.092 345.262 281.361 345.823C281.361 345.823 277.812 346.481 274.23 344.533C270.647 342.585 270.283 338.169 270.283 338.169Z" fill="#714237"/>
<path d="M293.407 341.102C293.407 341.102 294.844 343.205 293.844 344.404C292.844 345.603 289.25 345.044 289.25 345.044C289.25 345.044 292.085 344.557 292.702 343.773C293.319 342.988 293.407 341.102 293.407 341.102Z" fill="#714237"/>
<path d="M270.226 332.836C270.226 332.836 272.417 327.856 282.908 327.996C291.024 328.106 293.586 333.631 293.926 334.62C294.264 335.609 293.274 337.087 293.274 337.087C293.274 337.087 289.828 330.52 282.306 329.789C274.785 329.056 270.226 332.836 270.226 332.836Z" fill="#301126"/>
<path d="M276.487 334.082C276.487 334.082 277.05 333.593 280.565 335.493C280.682 335.556 280.507 335.745 280.379 335.715C279.496 335.506 276.43 334.733 276.487 334.082Z" fill="url(#paint32_linear_2647_9158)"/>
<path d="M282.1 335.437C281.521 335.836 281.928 336.279 282.495 336.403C282.912 336.496 283.045 335.836 282.895 335.647C282.746 335.457 282.468 335.183 282.1 335.437Z" fill="url(#paint33_linear_2647_9158)"/>
<path d="M314.734 346.659C314.734 346.659 325.35 351.359 330.943 351.046C335.637 350.783 339.256 344.606 339.594 341.423C339.66 340.813 339.606 340.312 339.414 339.986C337.272 336.295 326.459 329.81 320.646 333.098C317.73 334.746 316.252 338.152 315.503 341.138C314.759 344.107 314.734 346.659 314.734 346.659Z" fill="url(#paint34_linear_2647_9158)"/>
<mask id="mask6_2647_9158" style="mask-type:luminance" maskUnits="userSpaceOnUse" x="314" y="332" width="26" height="20">
<path d="M339.413 339.987C340.599 342.032 336.537 350.733 330.943 351.045C325.349 351.358 314.732 346.657 314.732 346.657C314.732 346.657 314.829 336.384 320.643 333.097C326.455 329.81 337.269 336.297 339.413 339.987Z" fill="white"/>
</mask>
<g mask="url(#mask6_2647_9158)">
<path d="M327.401 346.575C331.871 347.03 335.861 343.775 336.314 339.304C336.766 334.832 333.51 330.838 329.04 330.383C324.571 329.927 320.58 333.182 320.128 337.654C319.675 342.125 322.931 346.119 327.401 346.575Z" fill="url(#paint35_linear_2647_9158)"/>
</g>
<mask id="mask7_2647_9158" style="mask-type:luminance" maskUnits="userSpaceOnUse" x="314" y="332" width="26" height="20">
<path d="M339.413 339.987C340.599 342.032 336.537 350.733 330.943 351.045C325.349 351.358 314.732 346.657 314.732 346.657C314.732 346.657 314.829 336.384 320.643 333.097C326.455 329.81 337.269 336.297 339.413 339.987Z" fill="white"/>
</mask>
<g mask="url(#mask7_2647_9158)">
<path opacity="0.6" d="M320.746 338.896C320.978 343.027 324.514 346.187 328.641 345.957C332.769 345.727 335.927 342.191 335.694 338.063C335.462 333.933 331.925 330.772 327.799 331.002C323.671 331.232 320.513 334.766 320.746 338.896Z" fill="url(#paint36_linear_2647_9158)"/>
</g>
<mask id="mask8_2647_9158" style="mask-type:luminance" maskUnits="userSpaceOnUse" x="314" y="332" width="26" height="20">
<path d="M339.413 339.987C340.599 342.032 336.537 350.733 330.943 351.045C325.349 351.358 314.732 346.657 314.732 346.657C314.732 346.657 314.829 336.384 320.643 333.097C326.455 329.81 337.269 336.297 339.413 339.987Z" fill="white"/>
</mask>
<g mask="url(#mask8_2647_9158)">
<path d="M323.639 338.734C323.782 341.266 325.949 343.202 328.479 343.061C331.01 342.92 332.944 340.754 332.801 338.222C332.659 335.69 330.492 333.754 327.962 333.895C325.431 334.036 323.497 336.202 323.639 338.734Z" fill="url(#paint37_linear_2647_9158)"/>
</g>
<g style="mix-blend-mode:multiply" opacity="0.6">
<path d="M315.506 341.136C319.988 338.671 327.766 338.026 339.594 341.421C339.661 340.812 339.606 340.311 339.415 339.984C337.273 336.294 326.461 329.81 320.648 333.098C317.731 334.745 316.254 338.151 315.506 341.136Z" fill="#D077B7"/>
</g>
<path d="M329.632 329.316C335.874 330.859 339.097 339.499 339.097 339.499C339.097 339.499 333.148 332.395 324.975 333.954C317.982 335.289 315.984 339.509 315.985 339.5C315.987 339.493 317.173 326.238 329.632 329.316Z" fill="#714237"/>
<path d="M338.285 345.195C335.032 348.108 332.152 351.174 325.898 350.459C325.898 350.459 329.243 351.819 333.142 350.633C337.043 349.447 338.285 345.195 338.285 345.195Z" fill="#714237"/>
<path d="M315.046 343.411C315.046 343.411 313.216 345.182 313.956 346.559C314.694 347.934 318.328 348.11 318.328 348.11C318.328 348.11 315.649 347.061 315.202 346.169C314.753 345.275 315.046 343.411 315.046 343.411Z" fill="#714237"/>
<path d="M339.416 339.984C339.416 339.984 338.269 334.664 327.963 332.688C319.991 331.159 316.373 336.054 315.842 336.955C315.313 337.856 315.986 339.503 315.986 339.503C315.986 339.503 320.679 333.765 328.193 334.565C335.708 335.364 339.416 339.984 339.416 339.984Z" fill="#301126"/>
<path d="M337.217 340.367C337.217 340.367 336.764 339.774 332.939 340.927C332.812 340.965 332.946 341.185 333.077 341.182C333.983 341.157 337.142 341.017 337.217 340.367Z" fill="url(#paint38_linear_2647_9158)"/>
<path d="M331.444 340.565C331.931 341.072 331.444 341.425 330.863 341.432C330.437 341.438 330.439 340.765 330.623 340.611C330.809 340.455 331.136 340.243 331.444 340.565Z" fill="url(#paint39_linear_2647_9158)"/>
<g style="mix-blend-mode:multiply" opacity="0.6">
<path d="M291.458 374.887C291.458 374.887 295.529 380.115 300.995 380.66C306.754 381.234 310.542 376.64 310.542 376.64C310.542 376.64 304.428 380.35 291.458 374.887Z" fill="#D077B7"/>
</g>
<g style="mix-blend-mode:multiply">
<path d="M319.218 369.302L320.019 368.555C320.019 368.555 319.787 368.178 319.458 368.133L319.175 368.89C318.335 369.188 317.181 369.492 316.316 369.318C313.882 368.516 308.719 367.03 302.216 366.382C295.882 365.75 290.636 366.15 288.018 366.452C287.095 366.582 285.876 365.991 285.032 365.485L285.076 364.673C285.076 364.673 284.392 364.689 284.355 365.064L284.909 365.88C289.034 373.725 296.469 377.72 301.337 378.206C306.718 378.742 312.102 377.036 319.218 369.302Z" fill="#834E27"/>
</g>
<path d="M290.538 373.171C290.538 373.171 300.922 368.519 309.483 376.38C309.483 376.38 304.9 378.731 299.389 377.549C293.879 376.364 291.993 375.673 290.538 373.171Z" fill="#DD4C6B"/>
<path d="M291.892 366.263C291.892 366.263 296.414 370.247 302.315 370.368C307.348 370.472 312.165 368.121 312.165 368.121C312.165 368.121 302.706 364.967 291.892 366.263Z" fill="#FFDFED"/>
<path d="M302.361 364.971C295.778 364.315 287.978 366.442 287.978 366.442C297.989 366.051 302.175 366.837 302.175 366.837C302.175 366.837 306.434 366.892 316.172 369.252C316.172 369.254 308.943 365.627 302.361 364.971Z" fill="#8A4838"/>
<path d="M293.793 375.441C293.793 375.441 298.144 375.453 301.648 375.754C305.152 376.056 308.351 376.852 308.351 376.852C308.351 376.852 304.834 378.174 301.085 377.809C296.303 377.346 293.793 375.441 293.793 375.441Z" fill="#FFDFED"/>
<path d="M301.124 377.403C294.161 376.709 289.529 372.125 289.529 372.125C292.295 377.956 300.961 379.044 300.961 379.044C300.961 379.044 309.525 379.814 313.529 374.518C313.529 374.518 308.087 378.097 301.124 377.403Z" fill="#8F5038"/>
<path d="M272.106 277.283C272.106 277.283 256.081 262.176 252.579 279.569C251.459 285.133 253.439 298.631 268.071 312.772L267.923 304.407C267.923 304.407 248.647 289.809 254.481 278.692C258.163 271.678 269.197 278.513 269.197 278.513L272.106 277.283Z" fill="url(#paint40_linear_2647_9158)"/>
<path d="M353.669 306.853C352.451 308.509 351.508 308.195 351.508 308.195L343.544 340.401C343.544 340.401 344.316 320.889 342.104 309.086C342.104 309.086 338.2 296.372 329.263 292.345C329.263 292.345 312.773 292.595 288.273 288.466C288.273 288.466 279.251 291.109 274.41 299.375C274.41 299.375 267.251 321.889 264.152 335.118C264.152 335.118 262.731 327.542 264.145 313.585C264.145 313.585 257.088 308.985 254.578 304.388C254.499 304.241 254.429 304.097 254.368 303.957C252.434 299.511 253.363 291.939 259.531 283.76C262.844 279.365 269.334 274.515 269.334 274.515C269.334 274.515 268.311 270.515 270.061 267.478C270.441 266.804 270.967 266.177 271.666 265.652C275.528 262.755 291.86 255.289 298.156 256.821C298.156 256.821 298.928 254.998 300.571 253.852C300.953 253.583 301.382 253.351 301.862 253.191C304.395 252.335 316.555 250.902 321.022 255.142L323.479 259.39C323.483 259.395 323.482 259.399 323.482 259.399C323.482 259.399 324.581 259.053 326.059 258.963C327.3 258.884 328.806 258.989 330.156 259.633C333.105 261.047 340.26 267.283 341.185 273.525C341.185 273.525 348.511 276.64 348.92 287.221C348.92 287.221 351.063 288.031 352.777 290.134C354.492 292.243 354.891 305.196 353.669 306.853Z" fill="url(#paint41_linear_2647_9158)"/>
<g style="mix-blend-mode:multiply" opacity="0.6">
<path d="M353.669 306.853C352.451 308.51 351.507 308.196 351.507 308.196L343.544 340.402C343.544 340.402 344.316 320.89 342.104 309.087C342.104 309.087 338.199 296.373 329.262 292.346C329.253 292.345 329.248 292.349 329.239 292.348C328.536 292.357 312.234 292.505 288.271 288.466C288.271 288.466 279.25 291.109 274.409 299.375C274.409 299.375 267.25 321.889 264.15 335.119C264.15 335.119 262.729 327.543 264.144 313.585C264.144 313.585 257.087 308.986 254.576 304.389C254.462 303.669 254.427 303.14 254.48 302.838C255.201 298.753 255.551 296.215 262.934 291.132C266.976 288.35 283.246 286.472 283.246 286.472C275.805 284.157 268.915 278.633 268.915 278.633C281.169 282.811 285.326 285.531 289.721 286.241C294.682 287.04 302.339 287.228 303.089 286.266C305.233 283.506 295.391 269.453 287.907 268.664C280.423 267.874 269.333 274.516 269.333 274.516C269.333 274.516 268.309 270.516 270.059 267.479C273.493 264.156 285.157 263.664 293.248 267.155C301.349 270.651 304.296 284.016 305.159 285.734C306.027 287.457 312.909 288.304 314.014 287.678C315.115 287.046 315.021 282.139 312.316 272.215C309.614 262.295 298.154 256.823 298.154 256.823C298.154 256.823 298.926 255 300.569 253.854C305.044 253.913 309.21 257.503 313.516 266.254C317.818 275.001 317.538 288.037 317.538 288.037C320.031 288.291 323.331 283.577 323.331 283.577C328.352 272.066 323.481 259.402 323.481 259.402C323.481 259.402 324.579 259.055 326.057 258.965C330.435 269.247 325.548 282.174 326.265 283.876C326.982 285.583 333.022 291.839 334.874 291.137C336.725 290.435 341.527 281.128 341.185 273.528C341.185 273.528 345.046 275.168 347.316 280.118C348.177 281.982 348.808 284.322 348.919 287.223C348.919 287.223 351.062 288.033 352.776 290.136C353.77 291.355 354.319 296.202 354.372 300.393C354.41 303.447 354.185 306.154 353.669 306.853Z" fill="url(#paint42_linear_2647_9158)"/>
</g>
<g style="mix-blend-mode:multiply">
<path d="M275.279 289.377C275.279 289.377 262.003 290.969 256.575 301.219C255.493 303.262 260.29 310.592 260.29 310.592L264.147 313.593C264.147 313.593 268.792 297.771 275.279 289.377Z" fill="url(#paint43_linear_2647_9158)"/>
</g>
<g style="mix-blend-mode:multiply">
<path d="M353.663 306.849C352.446 308.506 351.502 308.191 351.502 308.191L343.537 340.401C343.537 340.401 344.309 320.887 342.096 309.082C342.096 309.082 338.191 296.368 329.253 292.34C341.664 299.144 342.495 294.873 342.495 294.873C346.908 289.092 347.307 280.11 347.307 280.11C348.167 281.974 348.799 284.315 348.91 287.216C348.91 287.216 351.054 288.027 352.768 290.13C352.768 290.13 344.215 304.252 345.712 305.295C347.208 306.338 349.943 306.318 354.314 300.43C354.314 300.43 354.329 300.414 354.364 300.386C354.405 303.442 354.18 306.15 353.663 306.849Z" fill="url(#paint44_linear_2647_9158)"/>
</g>
<path opacity="0.2" d="M310.104 260.33C310.104 260.33 315.736 264.585 324.59 263.236C324.59 263.236 325.478 266.942 325.538 269.789C325.538 269.789 324.74 267.314 320.722 265.792C316.705 264.269 316.046 267.699 314.461 268.405C314.459 268.405 312.128 262.888 310.104 260.33Z" fill="white"/>
<path opacity="0.2" d="M327.418 263.532C327.418 263.532 330.869 267.721 335.955 270.235C340.428 272.445 340.93 277.634 340.93 277.634L340.592 279.426C340.592 279.426 338.598 273.788 336.872 272.165C335.145 270.541 329.517 271.295 327.859 270.852C327.861 270.853 328.035 266.061 327.418 263.532Z" fill="white"/>
<path opacity="0.2" d="M305.369 261.769C305.369 261.769 304.47 263.703 298.468 264.754C293.214 265.672 286.693 265.262 286.693 265.262C286.693 265.262 291.994 265.645 296.412 269.187C296.412 269.187 296.89 267.161 300.889 266.113C304.889 265.065 306.12 268.318 310.711 268.284C310.711 268.282 308.352 264.142 305.369 261.769Z" fill="white"/>
<path opacity="0.2" d="M284.948 268.691C284.948 268.691 280.008 271.281 277.367 274.297C274.725 277.312 273.806 280.372 273.806 280.372L282.562 283.857C282.562 283.857 280.461 278.34 283.562 274.093C286.662 269.845 294.038 271.586 294.038 271.586C294.038 271.586 290.034 267.953 284.948 268.691Z" fill="white"/>
</g>
<mask id="mask9_2647_9158" style="mask-type:luminance" maskUnits="userSpaceOnUse" x="231" y="247" width="145" height="145">
<path d="M375.314 329.273C374.609 336.383 372.988 343.425 370.445 350.214C369.377 353.063 368.148 355.87 366.756 358.618C355.406 373.118 340.228 383.505 323.601 388.498C315.057 391.062 306.131 392.205 297.141 391.745C271.403 390.433 249.89 376.192 238.116 352.676C229.997 336.459 229.287 317.393 236.119 298.988C243.705 278.546 259.802 261.519 279.178 253.439C308.309 241.292 334.419 246.389 356.949 268.574C371.283 286.007 377.431 307.927 375.314 329.273Z" fill="white"/>
</mask>
<g mask="url(#mask9_2647_9158)">
<path opacity="0.1" d="M375.314 329.273C374.609 336.383 372.988 343.425 370.445 350.214C369.377 353.063 368.148 355.87 366.756 358.618C355.406 373.118 340.228 383.505 323.601 388.498C315.057 391.062 306.131 392.205 297.141 391.745C271.403 390.433 249.89 376.192 238.116 352.676C229.997 336.459 229.287 317.393 236.119 298.988C243.705 278.546 259.802 261.519 279.178 253.439C308.309 241.292 334.419 246.389 356.949 268.574C371.283 286.007 377.431 307.927 375.314 329.273Z" fill="#371A45"/>
</g>
<mask id="mask10_2647_9158" style="mask-type:luminance" maskUnits="userSpaceOnUse" x="231" y="247" width="145" height="145">
<path d="M375.314 329.273C374.609 336.383 372.988 343.425 370.445 350.214C369.377 353.063 368.148 355.87 366.756 358.618C355.406 373.118 340.228 383.505 323.601 388.498C315.057 391.062 306.131 392.205 297.141 391.745C271.403 390.433 249.89 376.192 238.116 352.676C229.997 336.459 229.287 317.393 236.119 298.988C243.705 278.546 259.802 261.519 279.178 253.439C308.309 241.292 334.419 246.389 356.949 268.574C371.283 286.007 377.431 307.927 375.314 329.273Z" fill="white"/>
</mask>
<g mask="url(#mask10_2647_9158)">
<g opacity="0.1">
<path d="M239.764 351.852C266.298 404.861 338.153 401.045 370.443 350.216L370.994 348.446C324.43 378.562 261.554 370.035 233.713 316.938C232.426 328.693 234.196 340.722 239.764 351.852Z" fill="#220F30"/>
</g>
</g>
<mask id="mask11_2647_9158" style="mask-type:luminance" maskUnits="userSpaceOnUse" x="231" y="247" width="145" height="145">
<path d="M375.314 329.273C374.609 336.383 372.988 343.425 370.445 350.214C369.377 353.063 368.148 355.87 366.756 358.618C355.406 373.118 340.228 383.505 323.601 388.498C315.057 391.062 306.131 392.205 297.141 391.745C271.403 390.433 249.89 376.192 238.116 352.676C229.997 336.459 229.287 317.393 236.119 298.988C243.705 278.546 259.802 261.519 279.178 253.439C308.309 241.292 334.419 246.389 356.949 268.574C371.283 286.007 377.431 307.927 375.314 329.273Z" fill="white"/>
</mask>
<g mask="url(#mask11_2647_9158)">
<g opacity="0.5">
<path d="M243.74 324.563C242.956 317.405 247.365 311.049 253.588 310.365C259.81 309.682 265.49 314.931 266.274 322.089C267.058 329.246 262.649 335.603 256.426 336.286C250.204 336.969 244.524 331.721 243.74 324.563Z" fill="white"/>
</g>
</g>
<mask id="mask12_2647_9158" style="mask-type:luminance" maskUnits="userSpaceOnUse" x="231" y="247" width="145" height="145">
<path d="M375.314 329.273C374.609 336.383 372.988 343.425 370.445 350.214C369.377 353.063 368.148 355.87 366.756 358.618C355.406 373.118 340.228 383.505 323.601 388.498C315.057 391.062 306.131 392.205 297.141 391.745C271.403 390.433 249.89 376.192 238.116 352.676C229.997 336.459 229.287 317.393 236.119 298.988C243.705 278.546 259.802 261.519 279.178 253.439C308.309 241.292 334.419 246.389 356.949 268.574C371.283 286.007 377.431 307.927 375.314 329.273Z" fill="white"/>
</mask>
<g mask="url(#mask12_2647_9158)">
<g opacity="0.5">
<path d="M253.089 346.908C253.041 343.934 255.096 341.49 257.679 341.448C260.263 341.406 262.396 343.783 262.444 346.756C262.492 349.73 260.437 352.175 257.854 352.217C255.27 352.258 253.137 349.882 253.089 346.908Z" fill="white"/>
</g>
</g>
<mask id="mask13_2647_9158" style="mask-type:luminance" maskUnits="userSpaceOnUse" x="231" y="247" width="145" height="145">
<path d="M375.314 329.273C374.609 336.383 372.988 343.425 370.445 350.214C369.377 353.063 368.148 355.87 366.756 358.618C355.406 373.118 340.228 383.505 323.601 388.498C315.057 391.062 306.131 392.205 297.141 391.745C271.403 390.433 249.89 376.192 238.116 352.676C229.997 336.459 229.287 317.393 236.119 298.988C243.705 278.546 259.802 261.519 279.178 253.439C308.309 241.292 334.419 246.389 356.949 268.574C371.283 286.007 377.431 307.927 375.314 329.273Z" fill="white"/>
</mask>
<g mask="url(#mask13_2647_9158)">
<g opacity="0.5">
<path d="M296.042 259.773C330.854 251.91 361.366 279.676 366.799 315.425C348.564 285.126 323.529 266.261 296.042 259.773Z" fill="white"/>
</g>
</g>
<path d="M206.364 362.283C211.901 377.836 225.854 387.591 237.537 384.067C249.219 380.544 254.197 365.074 248.66 349.521C248.626 349.422 248.587 349.32 248.55 349.223C242.946 333.842 229.086 324.236 217.49 327.736C208.468 330.457 203.443 340.309 204.174 351.819C204.39 355.206 205.106 358.746 206.364 362.283Z" fill="url(#paint45_linear_2647_9158)"/>
<path d="M304.263 489.22L307.007 489.67L311.951 465.595L325.048 460.874L329.828 436.802L327.087 436.353L322.579 458.977L309.432 463.854L304.263 489.22Z" fill="#0876E4"/>
<path fill-rule="evenodd" clip-rule="evenodd" d="M283.339 444.809L292.205 441.714C293.317 441.324 294.552 441.573 295.429 442.359L302.428 448.625C303.281 449.388 303.668 450.546 303.443 451.67L301.537 461.232C301.313 462.356 300.514 463.277 299.431 463.653L290.565 466.748C289.453 467.137 288.218 466.889 287.341 466.102L280.342 459.837C279.489 459.073 279.102 457.915 279.327 456.791L281.233 447.229C281.457 446.108 282.258 445.185 283.339 444.809ZM291.492 439.675C293.346 439.027 295.403 439.44 296.867 440.749L303.866 447.015C305.289 448.288 305.931 450.22 305.558 452.091L303.652 461.653C303.279 463.525 301.945 465.059 300.143 465.689L291.278 468.784C289.424 469.432 287.367 469.019 285.903 467.71L278.904 461.444C277.481 460.171 276.839 458.239 277.212 456.368L279.118 446.806C279.491 444.934 280.825 443.4 282.627 442.77L291.492 439.675Z" fill="#0876E4"/>
<path fill-rule="evenodd" clip-rule="evenodd" d="M292.612 447.013C295.045 447.499 296.625 449.867 296.142 452.301C296.058 452.722 295.651 452.994 295.231 452.91C294.81 452.826 294.539 452.418 294.622 451.998C294.941 450.403 293.904 448.85 292.312 448.531C290.717 448.213 289.166 449.248 288.848 450.842L288.576 452.209L295.416 453.576C296.17 453.728 296.661 454.463 296.51 455.218L295.721 459.17C295.471 460.43 294.246 461.246 292.988 460.995L286.911 459.779C285.652 459.528 284.835 458.303 285.086 457.045L285.874 453.093C285.992 452.497 286.475 452.066 287.044 451.985L287.331 450.539C287.811 448.105 290.179 446.527 292.612 447.013ZM287.508 453.579C287.511 453.579 287.511 453.579 287.508 453.579C287.511 453.582 287.511 453.582 287.508 453.579L294.956 455.066L294.199 458.867C294.116 459.288 293.709 459.56 293.288 459.476L287.211 458.261C286.791 458.177 286.519 457.769 286.603 457.348L287.36 453.548L287.508 453.579ZM290.824 455.981C291.161 456.049 291.377 456.376 291.309 456.711C291.242 457.045 290.915 457.265 290.581 457.197C290.244 457.129 290.028 456.802 290.096 456.468C290.163 456.133 290.49 455.913 290.824 455.981ZM291.918 456.833C292.051 456.162 291.615 455.508 290.944 455.375C290.273 455.242 289.62 455.675 289.485 456.347C289.352 457.019 289.788 457.673 290.458 457.806C291.132 457.939 291.785 457.503 291.918 456.833Z" fill="#0876E4"/>
<path d="M394.743 360.063C394.743 360.063 399.032 360.784 403.815 359.807C408.918 358.766 412.675 354.189 415.116 348.684C418.066 342.021 419.091 334.004 418.24 329.226C416.361 318.676 410.077 318.676 410.077 318.676C406.751 330.7 396.283 323.504 396.283 323.504C396.283 323.504 387.347 323.828 384.57 340.508C381.789 357.19 394.743 360.063 394.743 360.063Z" fill="url(#paint46_linear_2647_9158)"/>
<path d="M254.015 522.394C258.024 528.686 263.945 533.033 270.231 536.031L292.781 516.418C292.781 516.418 276.471 514.228 264.791 511.005C264.736 511.091 264.681 511.177 264.626 511.264C261.825 515.647 259.478 516.975 256.414 519.898C255.873 520.41 255.312 520.972 254.719 521.612C254.49 521.861 254.255 522.122 254.015 522.394Z" fill="url(#paint47_linear_2647_9158)"/>
</g>
</g>
<defs>
<filter id="filter0_f_2647_9158" x="-407" y="148" width="1317" height="1317" filterUnits="userSpaceOnUse" color-interpolation-filters="sRGB">
<feFlood flood-opacity="0" result="BackgroundImageFix"/>
<feBlend mode="normal" in="SourceGraphic" in2="BackgroundImageFix" result="shape"/>
<feGaussianBlur stdDeviation="100" result="effect1_foregroundBlur_2647_9158"/>
</filter>
<filter id="filter1_f_2647_9158" x="155" y="-326" width="1453" height="1453" filterUnits="userSpaceOnUse" color-interpolation-filters="sRGB">
<feFlood flood-opacity="0" result="BackgroundImageFix"/>
<feBlend mode="normal" in="SourceGraphic" in2="BackgroundImageFix" result="shape"/>
<feGaussianBlur stdDeviation="100" result="effect1_foregroundBlur_2647_9158"/>
</filter>
<filter id="filter2_f_2647_9158" x="-240" y="-760" width="1453" height="1453" filterUnits="userSpaceOnUse" color-interpolation-filters="sRGB">
<feFlood flood-opacity="0" result="BackgroundImageFix"/>
<feBlend mode="normal" in="SourceGraphic" in2="BackgroundImageFix" result="shape"/>
<feGaussianBlur stdDeviation="100" result="effect1_foregroundBlur_2647_9158"/>
</filter>
<filter id="filter3_d_2647_9158" x="45.002" y="189.109" width="618.145" height="655.892" filterUnits="userSpaceOnUse" color-interpolation-filters="sRGB">
<feFlood flood-opacity="0" result="BackgroundImageFix"/>
<feColorMatrix in="SourceAlpha" type="matrix" values="0 0 0 0 0 0 0 0 0 0 0 0 0 0 0 0 0 0 127 0" result="hardAlpha"/>
<feOffset dy="131"/>
<feGaussianBlur stdDeviation="67.5"/>
<feComposite in2="hardAlpha" operator="out"/>
<feColorMatrix type="matrix" values="0 0 0 0 0.283929 0 0 0 0 0.481548 0 0 0 0 0.679167 0 0 0 0.15 0"/>
<feBlend mode="normal" in2="BackgroundImageFix" result="effect1_dropShadow_2647_9158"/>
<feBlend mode="normal" in="SourceGraphic" in2="effect1_dropShadow_2647_9158" result="shape"/>
</filter>
<linearGradient id="paint0_linear_2647_9158" x1="262.936" y1="435.672" x2="190.293" y2="435.672" gradientUnits="userSpaceOnUse">
<stop stop-color="#84BCFD"/>
<stop offset="1" stop-color="#D0E5FD"/>
</linearGradient>
<linearGradient id="paint1_linear_2647_9158" x1="288.187" y1="552.949" x2="238.873" y2="552.949" gradientUnits="userSpaceOnUse">
<stop stop-color="#B4D6FE"/>
<stop offset="1" stop-color="#D0E5FD"/>
</linearGradient>
<linearGradient id="paint2_linear_2647_9158" x1="233.595" y1="536.389" x2="180" y2="536.389" gradientUnits="userSpaceOnUse">
<stop stop-color="#B4D6FE"/>
<stop offset="1" stop-color="#D0E5FD"/>
</linearGradient>
<linearGradient id="paint3_linear_2647_9158" x1="408.576" y1="323.483" x2="387.964" y2="343.77" gradientUnits="userSpaceOnUse">
<stop stop-color="#B4D6FE"/>
<stop offset="1" stop-color="#D0E5FD"/>
</linearGradient>
<linearGradient id="paint4_linear_2647_9158" x1="288.57" y1="441.782" x2="262.249" y2="484.103" gradientUnits="userSpaceOnUse">
<stop stop-color="#B4D6FE"/>
<stop offset="1" stop-color="#D0E5FD"/>
</linearGradient>
<linearGradient id="paint5_linear_2647_9158" x1="346.913" y1="467.572" x2="326.694" y2="467.572" gradientUnits="userSpaceOnUse">
<stop stop-color="#9AC9FD"/>
<stop offset="1" stop-color="#D0E5FD"/>
</linearGradient>
<linearGradient id="paint6_linear_2647_9158" x1="342.304" y1="460.023" x2="255.209" y2="460.023" gradientUnits="userSpaceOnUse">
<stop stop-color="#84BCFD"/>
<stop offset="1" stop-color="#D0E5FD"/>
</linearGradient>
<linearGradient id="paint7_linear_2647_9158" x1="325.189" y1="460.022" x2="255.214" y2="460.022" gradientUnits="userSpaceOnUse">
<stop stop-color="#84BCFD"/>
<stop offset="1" stop-color="#D0E5FD"/>
</linearGradient>
<linearGradient id="paint8_linear_2647_9158" x1="270.069" y1="447.579" x2="217.789" y2="447.579" gradientUnits="userSpaceOnUse">
<stop stop-color="#9AC9FD"/>
<stop offset="1" stop-color="#D0E5FD"/>
</linearGradient>
<linearGradient id="paint9_linear_2647_9158" x1="243.062" y1="469.46" x2="199.288" y2="469.46" gradientUnits="userSpaceOnUse">
<stop stop-color="#84BCFD"/>
<stop offset="1" stop-color="#B4D6FE"/>
</linearGradient>
<linearGradient id="paint10_linear_2647_9158" x1="214.803" y1="426.265" x2="244.844" y2="415.705" gradientUnits="userSpaceOnUse">
<stop stop-color="#84BCFD"/>
<stop offset="1" stop-color="#B4D6FE"/>
</linearGradient>
<linearGradient id="paint11_linear_2647_9158" x1="209.835" y1="345.993" x2="372.365" y2="297.326" gradientUnits="userSpaceOnUse">
<stop stop-color="#9AC9FD"/>
<stop offset="1" stop-color="#D0E5FD"/>
</linearGradient>
<linearGradient id="paint12_linear_2647_9158" x1="253.697" y1="352.739" x2="256.657" y2="323.682" gradientUnits="userSpaceOnUse">
<stop stop-color="#946A51"/>
<stop offset="0.0128" stop-color="#946950"/>
<stop offset="0.3419" stop-color="#94583C"/>
<stop offset="0.6714" stop-color="#944D30"/>
<stop offset="1" stop-color="#944A2C"/>
</linearGradient>
<linearGradient id="paint13_linear_2647_9158" x1="254.603" y1="347.145" x2="256.549" y2="328.042" gradientUnits="userSpaceOnUse">
<stop stop-color="#FFE9DA"/>
<stop offset="0.9944" stop-color="#D077F3"/>
</linearGradient>
<linearGradient id="paint14_linear_2647_9158" x1="260.684" y1="346.67" x2="261.52" y2="338.461" gradientUnits="userSpaceOnUse">
<stop stop-color="#FFE9DA"/>
<stop offset="0.9944" stop-color="#D077F3"/>
</linearGradient>
<linearGradient id="paint15_linear_2647_9158" x1="350.329" y1="362.565" x2="353.288" y2="333.508" gradientUnits="userSpaceOnUse">
<stop stop-color="#946A51"/>
<stop offset="0.0128" stop-color="#946950"/>
<stop offset="0.3419" stop-color="#94583C"/>
<stop offset="0.6714" stop-color="#944D30"/>
<stop offset="1" stop-color="#944A2C"/>
</linearGradient>
<linearGradient id="paint16_linear_2647_9158" x1="350.563" y1="356.903" x2="352.509" y2="337.799" gradientUnits="userSpaceOnUse">
<stop stop-color="#FFE9DA"/>
<stop offset="0.9944" stop-color="#D077F3"/>
</linearGradient>
<linearGradient id="paint17_linear_2647_9158" x1="344.699" y1="355.213" x2="345.536" y2="347.004" gradientUnits="userSpaceOnUse">
<stop stop-color="#FFE9DA"/>
<stop offset="0.9944" stop-color="#D077F3"/>
</linearGradient>
<linearGradient id="paint18_linear_2647_9158" x1="296.925" y1="408.309" x2="299.802" y2="380.043" gradientUnits="userSpaceOnUse">
<stop stop-color="#94765A"/>
<stop offset="0.257" stop-color="#946951"/>
<stop offset="0.6287" stop-color="#945D48"/>
<stop offset="1" stop-color="#945945"/>
</linearGradient>
<linearGradient id="paint19_linear_2647_9158" x1="299.099" y1="385.744" x2="309.772" y2="280.973" gradientUnits="userSpaceOnUse">
<stop stop-color="#946A3D"/>
<stop offset="0.4274" stop-color="#8D6546"/>
<stop offset="0.4875" stop-color="#8E6242"/>
<stop offset="0.7439" stop-color="#935936"/>
<stop offset="1" stop-color="#945632"/>
</linearGradient>
<linearGradient id="paint20_linear_2647_9158" x1="299.094" y1="385.745" x2="302.737" y2="349.976" gradientUnits="userSpaceOnUse">
<stop offset="0.005587" stop-color="#D077F3"/>
<stop offset="0.1573" stop-color="#D480F1"/>
<stop offset="0.4008" stop-color="#DD97EC"/>
<stop offset="0.7036" stop-color="#EDBDE4"/>
<stop offset="1" stop-color="#FFE9DA"/>
</linearGradient>
<linearGradient id="paint21_linear_2647_9158" x1="286.779" y1="308.319" x2="285.467" y2="321.195" gradientUnits="userSpaceOnUse">
<stop stop-color="#3D253F"/>
<stop offset="1" stop-color="#41112F"/>
</linearGradient>
<linearGradient id="paint22_linear_2647_9158" x1="327.754" y1="312.486" x2="326.442" y2="325.362" gradientUnits="userSpaceOnUse">
<stop stop-color="#3D253F"/>
<stop offset="1" stop-color="#41112F"/>
</linearGradient>
<linearGradient id="paint23_linear_2647_9158" x1="301.774" y1="359.804" x2="303.056" y2="347.216" gradientUnits="userSpaceOnUse">
<stop stop-color="#8D5541"/>
<stop offset="0.4655" stop-color="#925F3D"/>
<stop offset="1" stop-color="#94633B"/>
</linearGradient>
<linearGradient id="paint24_linear_2647_9158" x1="294.002" y1="358.264" x2="298.68" y2="358.738" gradientUnits="userSpaceOnUse">
<stop stop-color="#77254B"/>
<stop offset="1" stop-color="#8D2542"/>
</linearGradient>
<linearGradient id="paint25_linear_2647_9158" x1="309.732" y1="359.933" x2="305.064" y2="359.46" gradientUnits="userSpaceOnUse">
<stop stop-color="#77254B"/>
<stop offset="1" stop-color="#8D2542"/>
</linearGradient>
<linearGradient id="paint26_linear_2647_9158" x1="294.84" y1="351.383" x2="295.1" y2="348.831" gradientUnits="userSpaceOnUse">
<stop stop-color="#FFE9DA"/>
<stop offset="0.9944" stop-color="#D077F3"/>
</linearGradient>
<linearGradient id="paint27_linear_2647_9158" x1="310.256" y1="352.951" x2="310.516" y2="350.399" gradientUnits="userSpaceOnUse">
<stop stop-color="#FFE9DA"/>
<stop offset="0.9944" stop-color="#D077F3"/>
</linearGradient>
<linearGradient id="paint28_linear_2647_9158" x1="279.544" y1="346.236" x2="284.457" y2="327.679" gradientUnits="userSpaceOnUse">
<stop stop-color="#EDE1FF"/>
<stop offset="0.996" stop-color="#BCC8FA"/>
</linearGradient>
<linearGradient id="paint29_linear_2647_9158" x1="277.811" y1="331.961" x2="293.544" y2="336.114" gradientUnits="userSpaceOnUse">
<stop stop-color="#566496"/>
<stop offset="1" stop-color="#341752"/>
</linearGradient>
<linearGradient id="paint30_linear_2647_9158" x1="285.482" y1="330.582" x2="284.642" y2="315.531" gradientUnits="userSpaceOnUse">
<stop stop-color="#149DEA"/>
<stop offset="1" stop-color="#083A75"/>
</linearGradient>
<linearGradient id="paint31_linear_2647_9158" x1="284.843" y1="337.203" x2="286.662" y2="330.333" gradientUnits="userSpaceOnUse">
<stop stop-color="#334A79"/>
<stop offset="1" stop-color="#070459"/>
</linearGradient>
<linearGradient id="paint32_linear_2647_9158" x1="277.996" y1="335.497" x2="279.049" y2="334.231" gradientUnits="userSpaceOnUse">
<stop stop-color="#EDE1FF"/>
<stop offset="0.996" stop-color="#BCC8FA"/>
</linearGradient>
<linearGradient id="paint33_linear_2647_9158" x1="282.266" y1="336.345" x2="282.528" y2="335.355" gradientUnits="userSpaceOnUse">
<stop stop-color="#EDE1FF"/>
<stop offset="0.996" stop-color="#BCC8FA"/>
</linearGradient>
<linearGradient id="paint34_linear_2647_9158" x1="327.598" y1="351.233" x2="326.527" y2="332.063" gradientUnits="userSpaceOnUse">
<stop stop-color="#EDE1FF"/>
<stop offset="0.996" stop-color="#BCC8FA"/>
</linearGradient>
<linearGradient id="paint35_linear_2647_9158" x1="336.342" y1="338.026" x2="320.1" y2="338.941" gradientUnits="userSpaceOnUse">
<stop stop-color="#566496"/>
<stop offset="1" stop-color="#341752"/>
</linearGradient>
<linearGradient id="paint36_linear_2647_9158" x1="328.026" y1="335.018" x2="327.186" y2="319.964" gradientUnits="userSpaceOnUse">
<stop stop-color="#149DEA"/>
<stop offset="1" stop-color="#083A75"/>
</linearGradient>
<linearGradient id="paint37_linear_2647_9158" x1="328.404" y1="341.742" x2="328.008" y2="334.645" gradientUnits="userSpaceOnUse">
<stop stop-color="#334A79"/>
<stop offset="1" stop-color="#070459"/>
</linearGradient>
<linearGradient id="paint38_linear_2647_9158" x1="335.455" y1="341.45" x2="334.678" y2="339.996" gradientUnits="userSpaceOnUse">
<stop stop-color="#EDE1FF"/>
<stop offset="0.996" stop-color="#BCC8FA"/>
</linearGradient>
<linearGradient id="paint39_linear_2647_9158" x1="331.1" y1="341.42" x2="331.043" y2="340.399" gradientUnits="userSpaceOnUse">
<stop stop-color="#EDE1FF"/>
<stop offset="0.996" stop-color="#BCC8FA"/>
</linearGradient>
<linearGradient id="paint40_linear_2647_9158" x1="251.397" y1="290.675" x2="270.552" y2="292.616" gradientUnits="userSpaceOnUse">
<stop stop-color="#3D253F"/>
<stop offset="1" stop-color="#41112F"/>
</linearGradient>
<linearGradient id="paint41_linear_2647_9158" x1="301.157" y1="327.962" x2="306.707" y2="273.448" gradientUnits="userSpaceOnUse">
<stop stop-color="#3D253F"/>
<stop offset="1" stop-color="#41112F"/>
</linearGradient>
<linearGradient id="paint42_linear_2647_9158" x1="301.991" y1="326.97" x2="308.106" y2="266.915" gradientUnits="userSpaceOnUse">
<stop stop-color="#FFE9DA"/>
<stop offset="0.9944" stop-color="#8880EA"/>
</linearGradient>
<linearGradient id="paint43_linear_2647_9158" x1="264.387" y1="310.038" x2="266.21" y2="292.129" gradientUnits="userSpaceOnUse">
<stop stop-color="#FFE9DA"/>
<stop offset="0.9944" stop-color="#D077F3"/>
</linearGradient>
<linearGradient id="paint44_linear_2647_9158" x1="338.404" y1="331.312" x2="342.768" y2="288.448" gradientUnits="userSpaceOnUse">
<stop stop-color="#FFE9DA"/>
<stop offset="0.9944" stop-color="#D077F3"/>
</linearGradient>
<linearGradient id="paint45_linear_2647_9158" x1="206.421" y1="362.327" x2="248.846" y2="349.624" gradientUnits="userSpaceOnUse">
<stop stop-color="#9AC9FD"/>
<stop offset="1" stop-color="#D0E5FD"/>
</linearGradient>
<linearGradient id="paint46_linear_2647_9158" x1="396.766" y1="359.248" x2="402.3" y2="335.352" gradientUnits="userSpaceOnUse">
<stop stop-color="#84BCFD"/>
<stop offset="1" stop-color="#B4D6FE"/>
</linearGradient>
<linearGradient id="paint47_linear_2647_9158" x1="261.007" y1="516.678" x2="273.965" y2="522.697" gradientUnits="userSpaceOnUse">
<stop stop-color="#B4D6FE"/>
<stop offset="1" stop-color="#D0E5FD"/>
</linearGradient>
</defs>
</svg>
