<svg width="705" height="713" viewBox="0 0 705 713" fill="none" xmlns="http://www.w3.org/2000/svg">
<mask id="mask0_2647_7335" style="mask-type:alpha" maskUnits="userSpaceOnUse" x="0" y="0" width="705" height="713">
<rect width="705" height="713" fill="#D9D9D9"/>
<rect width="705" height="713" fill="#F0F8FF"/>
</mask>
<g mask="url(#mask0_2647_7335)">
<rect width="705" height="713" fill="#D9D9D9"/>
<rect width="705" height="713" fill="#F0F8FF"/>
<g opacity="0.1" filter="url(#filter0_f_2647_7335)">
<path d="M251.5 1265C504.723 1265 710 1059.72 710 806.5C710 553.277 504.723 348 251.5 348C-1.72252 348 -207 553.277 -207 806.5C-207 1059.72 -1.72252 1265 251.5 1265Z" fill="#92C8FF"/>
</g>
<g opacity="0.1" filter="url(#filter1_f_2647_7335)">
<path d="M881.5 927C1172.28 927 1408 691.278 1408 400.5C1408 109.722 1172.28 -126 881.5 -126C590.722 -126 355 109.722 355 400.5C355 691.278 590.722 927 881.5 927Z" fill="#FFD2DD"/>
</g>
<g opacity="0.1" filter="url(#filter2_f_2647_7335)">
<path d="M486.5 493C777.278 493 1013 257.278 1013 -33.5C1013 -324.278 777.278 -560 486.5 -560C195.722 -560 -40 -324.278 -40 -33.5C-40 257.278 195.722 493 486.5 493Z" fill="#F9ECD3"/>
</g>
<circle cx="401.25" cy="145.09" r="2.70513" stroke="#053D75"/>
<path d="M401.25 142.205V139" stroke="#053D75" stroke-linecap="round"/>
<path d="M403.404 143.097L404.764 141.737" stroke="#053D75" stroke-linecap="round"/>
<path d="M404.295 145.25L407.5 145.25" stroke="#053D75" stroke-linecap="round"/>
<path d="M403.404 147.403L404.764 148.763" stroke="#053D75" stroke-linecap="round"/>
<path d="M401.25 151.5V148.295" stroke="#053D75" stroke-linecap="round"/>
<path d="M397.738 148.763L399.098 147.403" stroke="#053D75" stroke-linecap="round"/>
<path d="M395 145.25L398.205 145.25" stroke="#053D75" stroke-linecap="round"/>
<path d="M397.738 141.737L399.098 143.097" stroke="#053D75" stroke-linecap="round"/>
<circle cx="87.2501" cy="236.09" r="2.70513" stroke="#053D75"/>
<path d="M87.25 233.205V230" stroke="#053D75" stroke-linecap="round"/>
<path d="M89.4039 234.097L90.7637 232.737" stroke="#053D75" stroke-linecap="round"/>
<path d="M90.2949 236.25L93.5 236.25" stroke="#053D75" stroke-linecap="round"/>
<path d="M89.4039 238.403L90.7637 239.763" stroke="#053D75" stroke-linecap="round"/>
<path d="M87.25 242.5V239.295" stroke="#053D75" stroke-linecap="round"/>
<path d="M83.7378 239.763L85.0977 238.403" stroke="#053D75" stroke-linecap="round"/>
<path d="M80.9999 236.25L84.2051 236.25" stroke="#053D75" stroke-linecap="round"/>
<path d="M83.7378 232.737L85.0977 234.097" stroke="#053D75" stroke-linecap="round"/>
<circle cx="302.25" cy="428.09" r="2.70513" stroke="#053D75"/>
<path d="M302.25 425.205V422" stroke="#053D75" stroke-linecap="round"/>
<path d="M304.404 426.097L305.764 424.737" stroke="#053D75" stroke-linecap="round"/>
<path d="M305.295 428.25L308.5 428.25" stroke="#053D75" stroke-linecap="round"/>
<path d="M304.404 430.403L305.764 431.763" stroke="#053D75" stroke-linecap="round"/>
<path d="M302.25 434.5V431.295" stroke="#053D75" stroke-linecap="round"/>
<path d="M298.738 431.763L300.098 430.403" stroke="#053D75" stroke-linecap="round"/>
<path d="M296 428.25L299.205 428.25" stroke="#053D75" stroke-linecap="round"/>
<path d="M298.738 424.737L300.098 426.097" stroke="#053D75" stroke-linecap="round"/>
<path fill-rule="evenodd" clip-rule="evenodd" d="M523.208 907.853C522.485 908.922 521.73 909.96 520.944 910.997C520.189 912.035 519.403 913.041 518.586 914.047C517.957 914.864 517.297 915.65 516.637 916.436C515.693 917.568 514.719 918.7 513.713 919.801C512.769 920.87 511.795 921.939 510.789 922.945C509.908 923.888 508.996 924.8 508.053 925.712C506.324 927.472 504.532 929.139 502.708 930.805C488.371 943.822 471.865 954.26 457.999 967.905C452.843 972.999 446.051 974.477 438.537 973.565C429.293 972.433 419.987 971.961 411.058 976.049C406.341 978.218 401.216 979.79 395.934 979.381C388.766 978.815 384.113 982.337 381.283 988.216C376.787 997.523 370.687 1005.51 363.896 1013.27C357.419 1020.73 354.244 1030.41 350.156 1039.37C347.861 1044.43 345.88 1049.65 343.679 1054.75C339.844 1063.64 333.775 1070.5 324.752 1074.46C315.068 1078.7 305.07 1075.94 300.134 1066.66C288.06 1043.9 279.728 1020 279.414 993.844C279.382 989.191 279.854 984.506 278.974 979.884C277.779 973.533 275.987 971.898 269.604 971.961C261.65 972.024 253.852 970.892 246.055 969.918C238.635 968.943 232.158 966.082 227.316 960.36C223.637 956.021 219.33 954.386 213.639 954.543C202.572 954.889 198.61 951.713 195.403 941.055C194.209 937.093 193.611 933.006 193.045 928.919C191.882 920.524 189.901 918.952 181.381 919.36C181.223 919.36 181.035 919.392 180.878 919.36C180.312 919.392 179.777 919.423 179.211 919.36C168.678 916.814 158.146 919.329 147.676 919.832C132.867 920.555 134.754 959.039 119.913 959.668C110.45 960.045 91.2706 961.271 76.399 954.071C65.0802 948.601 59.8611 932.786 57.0628 924.705C56.2139 922.159 55.5536 920.367 55.0506 919.926C55.0191 911.846 56.0253 899.27 56.2453 891.189C56.4026 885.31 68.696 886.19 70.6139 880.531C72.2803 875.626 75.8017 872.985 80.4864 872.639C88.3152 872.01 96.144 870.721 104.036 871.35C106.551 871.539 109.003 871.507 111.487 872.105C118.216 873.739 122.334 869.935 121.423 864.15C121.14 862.232 121.077 860.031 121.737 858.27C123.089 854.686 121.894 852.8 118.813 850.85C108.343 844.216 102.464 835.036 101.646 822.176C101.237 815.794 101.112 809.757 103.03 803.689C104.822 797.904 104.036 791.961 104.067 786.05C104.067 781.208 103.847 776.429 105.828 771.776C107.4 768.035 109.538 764.922 112.776 762.438C118.341 758.257 124.127 754.358 128.465 748.698C130.949 745.46 134.659 743.982 138.935 744.108C149.531 744.454 159.906 742.473 170.282 740.587C172.42 740.209 174.527 739.864 176.665 739.895C178.52 739.926 180.154 739.643 181.727 738.48C183.299 737.285 185.154 736.751 187.197 736.594C191.253 736.216 192.291 734.927 192.542 730.714C192.668 728.953 192.762 727.193 193.108 725.401C193.926 721.376 193.643 720.684 189.901 719.238C183.204 716.66 176.193 715.245 169.15 713.988C157.234 711.787 146.638 716.283 136.168 720.747C129.566 723.546 123.183 726.721 116.203 728.576C111.487 729.802 107.211 732.16 103.187 734.833C100.043 736.94 96.8672 738.983 93.3772 740.461C82.6873 745.051 74.544 740.524 71.7772 730.211C68.5073 717.792 72.689 705.719 83.0646 697.89C86.9318 694.966 90.4846 691.696 93.8802 688.237C97.9361 684.119 102.81 681.1 107.463 677.767C117.87 670.347 128.906 664.185 140.822 659.5C144.092 658.211 147.173 656.199 150.16 654.218C159.403 647.993 169.842 645.886 180.658 645.132C190.53 644.44 200.34 645.32 209.961 647.836C212.727 648.559 215.62 648.59 218.418 648.999C224.015 649.816 228.637 652.112 232.85 655.664C235.617 657.991 238.792 659.5 242.408 660.255C246.778 661.167 251.148 662.267 255.236 664.122C257.091 665.002 258.568 665.065 259.952 663.336C263.222 659.154 267.844 657.299 272.717 655.853C274.603 655.287 276.616 654.847 278.251 653.841C284.822 649.785 291.927 649.062 299.442 649.156C305.479 649.25 311.547 648.244 317.458 646.735C322.991 645.352 327.519 642.239 331.92 638.749C334.939 636.36 337.957 633.97 341.038 631.643C342.327 630.637 343.648 629.663 344.968 628.719C346.352 627.713 347.735 626.739 349.15 625.764C349.244 625.701 349.37 625.638 349.465 625.544C294.16 584.167 229.014 555.179 158.177 542.791C140.853 559.14 120.542 570.836 98.0934 578.948C84.951 583.696 71.3056 584.922 57.3458 582.815C51.0261 581.872 44.8323 582.564 39.4873 586.808C37.0978 588.695 34.3624 590.078 31.5641 591.305C23.4523 594.92 15.8122 593.443 9.20955 587.5C1.50649 580.583 -1.13457 571.528 -2.6123 561.781C-3.55553 555.776 -3.58697 549.771 -3.61841 543.766C-32.6385 549.205 -60.6839 557.443 -87.4402 568.195C-85.8996 575.836 -84.3905 583.413 -82.9127 591.053C-80.4918 603.598 -79.1084 616.3 -80.3031 629.002C-81.3407 639.912 -84.2961 650.477 -88.8865 660.506C-89.7669 662.456 -90.3328 664.594 -91.4961 666.386C-96.0236 673.334 -96.7782 681.006 -96.3695 689.055C-96.0236 695.877 -98.5075 702.103 -101.966 707.888C-104.261 711.692 -106.776 715.497 -110.078 718.578C-114.291 722.477 -115.989 727.381 -116.712 732.852C-117.812 740.838 -119.196 748.73 -122.057 756.339C-124.949 764.136 -129.697 770.55 -136.08 775.738C-143.374 781.68 -152.083 782.812 -161.012 781.743C-169.879 780.705 -178.839 780.045 -187.486 777.624C-189.718 776.995 -191.95 776.335 -194.151 775.612C-202.357 773.034 -205.313 774.323 -209.117 782.215C-212.387 789.037 -213.833 796.457 -215.908 803.657C-217.889 810.543 -219.304 817.554 -223.234 823.78C-227.007 829.722 -231.88 834.187 -238.2 837.236C-243.985 840.066 -249.833 842.739 -255.084 846.637C-258.48 849.153 -259.203 851.919 -258.7 855.912C-257.662 863.93 -255.807 871.727 -253.669 879.493C-251.908 885.75 -252.254 891.881 -254.424 897.949C-256.845 904.709 -259.014 911.532 -262.315 917.946C-265.114 923.416 -269.704 926.057 -275.741 926.309C-281.306 926.56 -286.871 926.057 -292.153 924.234C-299.573 921.624 -305.012 916.562 -308.722 909.645C-310.766 905.872 -312.527 901.942 -314.287 898.012C-317.714 890.309 -321.173 882.606 -326.172 875.72C-333.812 865.156 -340.038 853.712 -346.64 842.55C-351.765 857.799 -356.104 873.394 -359.562 889.303V889.334C-358.022 892.353 -356.481 895.339 -354.815 898.264C-347.206 911.532 -340.729 925.303 -335.604 939.703C-332.335 948.915 -328.09 957.467 -321.707 964.95C-320.23 966.648 -318.752 967.843 -316.708 968.754C-305.39 973.911 -294.668 979.884 -285.456 988.468C-277.25 996.14 -276.055 1005.38 -277.879 1015.57C-278.759 1020.69 -280.897 1025.51 -282.438 1030.47C-283.915 1035.25 -284.984 1040.13 -284.921 1045.22C-284.859 1047.77 -284.01 1049.68 -282.249 1051.41C-279.891 1053.71 -277.156 1055.41 -274.42 1057.07C-270.584 1059.4 -266.874 1061.88 -263.29 1064.62C-252.914 1072.6 -249.236 1082.76 -252.726 1095.43C-252.663 1095.81 -252.6 1096.18 -252.537 1096.56C-256.121 1105.49 -259.423 1114.55 -264.202 1122.91C-273.257 1138.79 -282.878 1154.32 -296.492 1166.8C-300.705 1170.67 -305.107 1174.35 -309.162 1178.4C-311.332 1180.57 -313.156 1182.99 -314.759 1185.57C-315.765 1187.18 -316.645 1188.78 -317.243 1190.45C-317.4 1190.85 -317.526 1191.29 -317.652 1191.7C-317.777 1192.11 -317.872 1192.55 -317.966 1192.99C-318.06 1193.4 -318.123 1193.84 -318.186 1194.28C-318.249 1194.69 -318.28 1195.13 -318.28 1195.57V1195.6C-242.916 1338.56 -92.8481 1436 79.9833 1436C220.21 1436 345.472 1371.86 428.004 1271.31C420.458 1269.14 413.101 1266.53 406.153 1262.73C391.941 1254.99 385.024 1242.92 384.301 1227.01C383.672 1213.62 387.76 1201.58 395.023 1190.51C400.305 1182.4 405.587 1174.32 411.529 1166.64C420.27 1155.45 430.865 1146.55 443.316 1139.79C456.458 1132.66 470.418 1127.56 484.787 1123.66C492.396 1121.59 499.816 1118.95 507.11 1115.99C508.556 1115.4 509.971 1114.74 511.449 1114.29C523.522 1073.61 529.999 1030.57 529.999 985.984C529.999 959.322 527.672 933.226 523.208 907.853ZM153.084 1274.36C150.317 1287.94 144.532 1300.52 139.187 1313.22C134.502 1324.35 128.937 1334.95 121.391 1344.38C116.706 1350.26 112.053 1356.17 106.897 1361.67C102.464 1366.36 98.3449 1371.23 93.3457 1375.41C80.675 1386.01 66.3064 1391.42 49.8628 1390.69C40.5877 1390.25 33.9222 1384.75 28.6087 1377.58C19.7108 1365.57 14.7117 1351.83 11.5676 1337.34C9.5554 1328.09 8.14054 1318.72 8.17199 1309.2C8.23487 1299.48 8.1091 1289.8 8.2663 1280.12C8.39207 1273.39 7.29164 1266.91 5.15365 1260.59C1.22352 1248.89 -2.9267 1237.26 -6.9826 1225.6C-10.0324 1216.82 -14.214 1208.84 -22.0114 1203.27C-23.7721 1202.58 -25.3127 1201.26 -27.2935 1201.04C-29.966 1198.56 -33.5188 1197.55 -36.5686 1195.7C-46.2525 1189.85 -53.9555 1181.89 -60.8726 1173.15C-65.8402 1166.86 -71.9398 1162.02 -78.2909 1157.31C-96.8411 1143.54 -109.575 1125.52 -116.052 1103.32C-118.756 1094.08 -118.221 1084.61 -117.121 1075.09C-116.146 1066.57 -115.391 1058.02 -113.536 1049.62C-111.43 1040.19 -109.04 1030.82 -105.267 1021.89C-100.048 1009.56 -91.8105 999.598 -81.3407 991.329C-71.0595 983.217 -60.0865 976.74 -47.007 974.382C-38.6437 972.873 -30.1547 973.25 -21.8228 974.005C-12.2333 974.885 -2.76949 976.898 6.75715 978.438C7.2602 978.533 7.76325 978.753 8.29775 978.91H8.39207C12.1336 978.753 67.3126 970.955 81.2095 978.218C104.539 990.417 122.68 1014.82 125.479 1016.64C125.51 1016.67 125.541 1016.7 125.573 1016.7C126.265 1017.27 127.113 1017.74 127.617 1018.43C130.792 1022.8 134.408 1027.01 138.715 1030.03C146.198 1035.28 147.802 1043.21 150.128 1050.94C150.631 1052.67 150.757 1054.49 151.826 1055.97C156.228 1061.95 157.894 1068.93 158.963 1076C160.818 1088.1 160.378 1100.21 159.435 1112.38C158.869 1119.8 157.548 1127.19 158.554 1134.83C159.906 1144.92 164.528 1153 170.816 1160.58C175.753 1166.52 179.903 1173.03 183.047 1180.1C187.48 1190.19 186.6 1200.35 183.424 1210.54C183.047 1211.79 182.575 1212.99 182.135 1214.21C182.041 1214.5 181.915 1214.81 181.821 1215.09C181.412 1215.44 181.035 1215.82 180.658 1216.16C180.06 1219.09 178.299 1221.48 176.602 1223.68C164.906 1238.8 156.92 1255.56 153.084 1274.36ZM239.232 1231.04C237.817 1243.93 232.692 1255.43 227.505 1267.07C222.757 1277.76 217.318 1288.01 211.407 1298.07C207.54 1304.58 202.446 1309.61 195.498 1312.78C190.939 1314.89 186.38 1315.39 182.387 1311.96C178.488 1308.63 176.507 1304.32 178.331 1299.04C180.406 1292.97 179.431 1286.62 180.437 1280.4C182.23 1269.58 185.028 1259.08 189.555 1249.08C192.228 1243.23 195.026 1237.42 198.516 1231.95C201.912 1226.6 206.125 1222.01 210.715 1217.7C212.476 1216.07 214.74 1214.69 215.243 1212.01V1211.98C215.243 1211.95 215.211 1211.95 215.18 1211.92H215.274C215.84 1211.48 216.469 1211.13 216.94 1210.63C221.751 1205.63 227.159 1204.22 233.51 1207.61H233.541C240.175 1214.25 240.207 1222.33 239.232 1231.04Z" stroke="#0876E4"/>
<path fill-rule="evenodd" clip-rule="evenodd" d="M523.209 907.853C522.485 908.922 521.731 909.96 520.945 910.997C520.19 912.035 519.404 913.041 518.587 914.047C517.958 914.864 517.298 915.651 516.637 916.437C515.694 917.568 514.72 918.7 513.713 919.801C512.77 920.87 511.796 921.939 510.789 922.945C509.909 923.888 508.997 924.8 508.054 925.712C506.325 927.472 504.533 929.139 502.709 930.805C488.372 943.822 471.865 954.26 458 967.906C452.844 972.999 446.052 974.477 438.538 973.565C429.294 972.433 419.988 971.961 411.058 976.049C406.342 978.218 401.217 979.79 395.935 979.382C388.767 978.816 384.113 982.337 381.284 988.216C376.788 997.523 370.688 1005.51 363.897 1013.27C357.42 1020.73 354.244 1030.41 350.157 1039.37C347.862 1044.43 345.881 1049.65 343.68 1054.75C339.844 1063.64 333.776 1070.5 324.753 1074.46C315.069 1078.7 305.071 1075.94 300.134 1066.66C288.061 1043.9 279.729 1020 279.415 993.844C279.383 989.191 279.855 984.506 278.975 979.885C277.78 973.533 275.988 971.899 269.605 971.961C261.651 972.024 253.853 970.892 246.056 969.918C238.636 968.943 232.159 966.082 227.317 960.36C223.638 956.021 219.331 954.386 213.64 954.543C202.573 954.889 198.611 951.713 195.404 941.055C194.21 937.093 193.612 933.006 193.046 928.919C191.883 920.524 189.902 918.952 181.382 919.361C181.224 919.361 181.036 919.392 180.879 919.361C180.313 919.392 179.778 919.423 179.212 919.361C168.679 916.814 158.147 919.329 147.677 919.832C132.868 920.555 134.755 959.039 119.914 959.668C110.451 960.045 91.2716 961.271 76.4 954.071C65.0812 948.601 59.862 932.786 57.0637 924.705C56.2148 922.159 55.5546 920.367 55.0515 919.926C55.0201 911.846 56.0262 899.27 56.2463 891.189C56.4035 885.31 68.6969 886.19 70.6148 880.531C72.2812 875.626 75.8026 872.985 80.4873 872.639C88.3161 872.01 96.145 870.721 104.037 871.35C106.552 871.539 109.004 871.507 111.488 872.105C118.217 873.74 122.335 869.935 121.424 864.15C121.141 862.232 121.078 860.031 121.738 858.271C123.09 854.686 121.895 852.8 118.814 850.851C108.344 844.216 102.465 835.036 101.647 822.176C101.238 815.794 101.113 809.757 103.031 803.689C104.823 797.904 104.037 791.961 104.068 786.05C104.068 781.209 103.848 776.43 105.829 771.776C107.401 768.035 109.539 764.922 112.777 762.438C118.342 758.257 124.127 754.358 128.466 748.699C130.95 745.46 134.66 743.982 138.936 744.108C149.532 744.454 159.907 742.473 170.283 740.587C172.421 740.209 174.527 739.864 176.665 739.895C178.52 739.926 180.155 739.644 181.727 738.48C183.3 737.285 185.155 736.751 187.198 736.594C191.254 736.216 192.292 734.927 192.543 730.714C192.669 728.954 192.763 727.193 193.109 725.401C193.927 721.376 193.644 720.685 189.902 719.238C183.205 716.66 176.194 715.245 169.151 713.988C157.235 711.787 146.639 716.283 136.169 720.747C129.567 723.546 123.184 726.721 116.204 728.576C111.488 729.802 107.212 732.161 103.188 734.833C100.044 736.94 96.8681 738.983 93.3781 740.461C82.6882 745.051 74.5449 740.524 71.7781 730.211C68.5082 717.792 72.6899 705.719 83.0655 697.89C86.9327 694.966 90.4855 691.696 93.8812 688.237C97.9371 684.119 102.81 681.1 107.464 677.768C117.871 670.347 128.907 664.185 140.823 659.5C144.093 658.211 147.174 656.199 150.161 654.218C159.404 647.993 169.843 645.886 180.658 645.132C190.531 644.44 200.341 645.32 209.962 647.836C212.728 648.559 215.621 648.59 218.419 648.999C224.016 649.816 228.638 652.112 232.851 655.664C235.617 657.991 238.793 659.5 242.409 660.255C246.779 661.167 251.149 662.267 255.237 664.122C257.092 665.002 258.569 665.065 259.953 663.336C263.223 659.154 267.844 657.299 272.718 655.853C274.604 655.287 276.617 654.847 278.251 653.841C284.823 649.785 291.928 649.062 299.443 649.156C305.479 649.251 311.548 648.244 317.458 646.735C322.992 645.352 327.52 642.239 331.921 638.749C334.94 636.36 337.958 633.97 341.039 631.644C342.328 630.637 343.649 629.663 344.969 628.719C346.353 627.713 347.736 626.739 349.151 625.764C349.245 625.701 349.371 625.638 349.465 625.544C439.261 692.796 503.086 792.81 523.209 907.853Z" stroke="#0876E4"/>
<path fill-rule="evenodd" clip-rule="evenodd" d="M158.178 542.791C140.854 559.141 120.544 570.837 98.0946 578.948C84.9523 583.696 71.3068 584.922 57.347 582.816C51.0274 581.872 44.8335 582.564 39.4885 586.809C37.099 588.695 34.3636 590.079 31.5654 591.305C23.4536 594.921 15.8134 593.443 9.21077 587.5C1.50771 580.583 -1.13335 571.528 -2.61107 561.782C-3.55431 555.776 -3.58575 549.771 -3.61719 543.766C23.4536 538.672 51.4046 536 79.9846 536C106.647 536 132.774 538.327 158.178 542.791Z" stroke="#0876E4"/>
<path opacity="0.6" d="M-411.747 642.129C-479.967 739.506 -520 858.078 -520 986C-520 1317.37 -251.371 1586 80 1586C411.371 1586 680 1317.37 680 986C680 807.385 601.952 646.998 478.099 537.085M-408.5 637.541C-394.255 617.606 -378.82 598.58 -362.299 580.567M-307.312 527.737C-261.707 489.154 -210.266 457.256 -154.5 433.555M-83 408.406C-31.1708 393.809 23.5027 386 80 386C157.473 386 231.517 400.683 299.5 427.419M304.719 429.5C357.205 450.715 406.005 479.14 449.891 513.547" stroke="#053D75"/>
<path d="M642.503 435.251C642.503 460.247 622.239 480.503 597.251 480.503C572.256 480.503 552 460.239 552 435.251C552 410.263 572.263 390 597.251 390C622.239 389.992 642.503 410.256 642.503 435.251Z" stroke="#053D75"/>
<path d="M616.025 418.487C612.34 416.811 611.666 415.469 607.647 415.803C601.278 416.136 595.917 420.496 589.207 419.821C582.17 419.154 576.802 416.136 569.432 417.812C564.738 419.154 564.405 419.154 559.378 418.487C558.175 418.316 556.818 418.184 555.375 418.099C553.21 423.39 552 429.177 552 435.244C552 460.24 572.263 480.495 597.251 480.495C622.247 480.495 642.503 460.232 642.503 435.244C642.503 429.736 641.518 424.46 639.718 419.581C632.511 423.095 623.907 422.436 616.025 418.487Z" stroke="#053D75"/>
<path d="M602.946 450.333C598.253 453.017 593.559 452.342 588.199 453.351C577.136 455.36 573.117 446.648 563.397 444.972C559.712 444.305 557.028 444.305 553.343 442.963C553.11 442.909 552.869 442.839 552.637 442.769C556.221 464.181 574.824 480.503 597.26 480.503C622.256 480.503 642.511 460.24 642.511 435.252C642.511 435.05 642.496 434.848 642.496 434.639C635.126 436.423 626.778 441.031 621.061 443.63C614.684 446.648 609.316 446.981 602.946 450.333Z" stroke="#053D75"/>
<path d="M566.5 402.064C567.408 401.226 568.346 400.427 569.316 399.666C570.456 399.69 571.775 399.721 571.775 399.721C571.775 399.721 575.716 399.721 576.05 399.721C576.383 399.721 586.864 399.55 586.864 399.55C586.864 399.55 588.874 399.302 589.215 399.302C589.463 399.302 592.109 399.395 593.497 399.441C593.994 399.457 594.327 399.472 594.327 399.472C594.327 399.472 592.9 399.558 591.643 399.806C590.386 400.054 588.874 400.396 588.455 400.481C588.036 400.566 587.369 400.481 586.608 400.566C585.856 400.652 584.684 400.815 583.761 401.071C582.838 401.319 581.496 401.241 580.743 401.404C579.991 401.575 579.153 401.652 577.555 401.738C575.965 401.823 572.861 402.071 571.938 402.071C571.015 402.071 569.176 402.071 568.758 402.071C568.362 402.064 567.509 402.064 566.5 402.064Z" stroke="#053D75"/>
<path d="M623.651 470.449C621.177 470.387 615.56 469.696 610.447 469.696C605.327 469.696 599.385 470.201 599.385 470.201C599.385 470.201 604.505 470.953 606.894 470.953C609.292 470.953 610.859 470.953 612.015 470.953C613.17 470.953 614.823 471.395 616.475 471.457C618.128 471.519 622.007 471.395 622.007 471.395C622.007 471.395 623.155 471.325 624.706 471.232C625.102 470.93 625.505 470.619 625.893 470.301C625.048 470.402 624.272 470.464 623.651 470.449Z" stroke="#053D75"/>
<path d="M626.39 412.413C625.963 412.451 624.427 412.638 623.155 412.754C621.883 412.878 620.455 412.816 620.455 412.816C620.455 412.816 620.789 412.863 621.277 412.925C622.651 413.111 625.273 413.475 625.521 413.499C625.855 413.53 627.879 413.483 627.879 413.483C627.879 413.483 634.505 414.05 637.367 414.298C636.995 413.592 636.615 412.894 636.203 412.211C635.304 412.188 634.706 412.203 634.148 412.265C633.38 412.358 632.053 412.133 631.114 412.296C630.168 412.451 628.989 412.498 628.228 412.506C627.468 412.529 626.809 412.374 626.39 412.413Z" stroke="#053D75"/>
<path d="M583.148 406.858C583.148 406.858 587.043 407.611 588.866 407.611C590.689 407.611 591.884 407.611 592.76 407.611C593.637 407.611 594.894 408.053 596.158 408.115C597.415 408.177 600.371 408.053 600.371 408.053C600.371 408.053 606.088 407.611 608.036 407.362C609.983 407.114 611.178 407.238 612.814 407.114C614.451 406.99 614.7 407.052 616.399 407.052C618.098 407.052 618.664 407.3 620.169 407.3C621.682 407.3 621.992 407.362 623.629 407.362C625.266 407.362 625.7 407.176 626.204 407.176C626.709 407.176 627.337 407.176 627.841 407.052C628.346 406.928 626.895 406.61 626.895 406.61C626.895 406.61 625.134 406.61 624.886 406.61C624.637 406.61 624.381 406.61 623.877 406.548C623.373 406.486 622.372 406.486 622.372 406.486C622.372 406.486 615.646 405.981 615.46 405.981C615.274 405.981 608.734 405.981 607.981 405.981C607.229 405.981 603.521 407.176 601.635 407.114C599.75 407.052 595.476 406.362 591.581 406.362C587.679 406.362 583.148 406.858 583.148 406.858Z" stroke="#053D75"/>
<path d="M642.139 429.511C640.696 429.386 638.54 429.208 638.447 429.208C638.315 429.216 633.629 429.379 633.094 429.402C632.551 429.417 629.952 430.907 628.594 430.884C627.244 430.86 624.149 430.162 621.364 430.263C618.571 430.364 615.352 431.062 615.352 431.062C615.352 431.062 618.175 431.838 619.479 431.791C620.782 431.745 621.643 431.714 622.272 431.691C622.9 431.667 623.823 432.148 624.723 432.187C625.623 432.226 627.733 432.009 627.733 432.009C627.733 432.009 631.806 431.349 633.195 431.008C634.583 430.666 635.437 430.783 636.608 430.589C637.772 430.403 637.958 430.465 639.168 430.426C640.386 430.379 640.797 430.659 641.883 430.62C642.023 430.612 642.155 430.612 642.271 430.612C642.225 430.248 642.186 429.883 642.139 429.511Z" stroke="#053D75"/>
<path d="M563.164 428.859C563.164 428.859 567.058 429.612 568.882 429.612C570.705 429.612 571.899 429.612 572.776 429.612C573.653 429.612 574.909 430.054 576.174 430.116C577.431 430.178 580.386 430.054 580.386 430.054C580.386 430.054 586.104 429.612 588.051 429.363C589.998 429.115 591.193 429.239 592.83 429.115C594.467 428.991 594.715 429.053 596.414 429.053C598.113 429.053 598.679 429.301 600.184 429.301C601.697 429.301 602.008 429.363 603.644 429.363C605.281 429.363 605.716 429.177 606.22 429.177C606.724 429.177 607.353 429.177 607.857 429.053C608.361 428.929 606.911 428.611 606.911 428.611C606.911 428.611 605.149 428.611 604.901 428.611C604.653 428.611 604.397 428.611 603.893 428.549C603.388 428.487 602.388 428.487 602.388 428.487C602.388 428.487 595.662 427.982 595.475 427.982C595.289 427.982 588.749 427.982 587.997 427.982C587.244 427.982 583.536 429.177 581.651 429.115C579.766 429.053 575.491 428.363 571.597 428.363C567.687 428.355 563.164 428.859 563.164 428.859Z" stroke="#053D75"/>
<path d="M600.852 443.63C601.899 443.63 602.24 443.878 603.171 443.878C604.102 443.878 604.296 443.94 605.297 443.94C606.298 443.94 606.569 443.754 606.88 443.754C607.19 443.754 607.578 443.754 607.888 443.63C608.198 443.506 607.306 443.188 607.306 443.188C607.306 443.188 606.22 443.188 606.065 443.188C605.91 443.188 605.755 443.188 605.444 443.126C605.134 443.064 604.513 443.064 604.513 443.064C604.513 443.064 600.371 442.56 600.254 442.56C600.138 442.56 596.112 442.56 595.654 442.56C595.189 442.56 592.908 443.754 591.744 443.692C590.58 443.63 587.951 442.94 585.553 442.94C583.156 442.94 580.371 443.444 580.371 443.444C580.371 443.444 582.768 444.196 583.893 444.196C585.018 444.196 585.747 444.196 586.29 444.196C586.833 444.196 587.609 444.639 588.377 444.701C589.153 444.763 590.968 444.639 590.968 444.639C590.968 444.639 594.49 444.196 595.685 443.948C596.888 443.7 597.617 443.824 598.625 443.7C599.649 443.568 599.804 443.63 600.852 443.63Z" stroke="#053D75"/>
<path d="M606.327 461.566C608.476 461.442 608.802 461.504 611.036 461.504C613.263 461.504 614.007 461.752 615.986 461.752C617.964 461.752 618.375 461.814 620.524 461.814C622.673 461.814 623.247 461.628 623.906 461.628C624.566 461.628 625.388 461.628 626.055 461.504C626.715 461.38 624.822 461.062 624.822 461.062C624.822 461.062 622.51 461.062 622.176 461.062C621.843 461.062 621.517 461.062 620.857 461C620.198 460.938 618.879 460.938 618.879 460.938C618.879 460.938 610.051 460.434 609.795 460.434C609.547 460.434 600.966 460.434 599.973 460.434C598.98 460.434 594.108 461.628 591.634 461.566C589.159 461.504 583.542 460.814 578.422 460.814C573.302 460.814 567.359 461.318 567.359 461.318C567.359 461.318 572.48 462.07 574.869 462.07C577.266 462.07 578.833 462.07 579.989 462.07C581.145 462.07 582.797 462.513 584.45 462.575C586.102 462.637 589.981 462.513 589.981 462.513C589.981 462.513 597.491 462.071 600.051 461.822C602.611 461.566 604.178 461.69 606.327 461.566Z" stroke="#053D75"/>
<path d="M638.143 449.898C636.56 450.061 635.722 450.185 634.977 450.395C634.233 450.604 632.891 450.589 631.983 450.884C631.075 451.178 629.912 451.411 629.167 451.527C628.414 451.652 627.747 451.605 627.328 451.706C626.909 451.814 625.42 452.226 624.179 452.536C622.937 452.854 621.518 453.009 621.518 453.009C621.518 453.009 621.851 453.001 622.348 452.994C623.736 452.97 626.382 452.932 626.63 452.916C626.964 452.901 628.957 452.544 628.957 452.544C628.957 452.544 637.367 451.977 639.337 451.853C639.624 451.132 639.888 450.403 640.136 449.666C639.399 449.759 638.686 449.844 638.143 449.898Z" stroke="#053D75"/>
<path d="M578.252 471.853C579.012 471.807 579.672 471.931 580.099 471.869C580.525 471.807 582.046 471.558 583.318 471.372C584.59 471.194 586.01 471.186 586.01 471.186C586.01 471.186 585.676 471.155 585.18 471.116C583.799 470.992 581.161 470.752 580.913 470.744C580.58 470.721 578.555 470.868 578.555 470.868C578.555 470.868 571.611 470.596 568.857 470.488C569.719 471.178 570.603 471.845 571.511 472.474C571.813 472.451 572.085 472.419 572.348 472.373C573.109 472.249 574.443 472.404 575.382 472.21C576.32 472.001 577.5 471.9 578.252 471.853Z" stroke="#053D75"/>
<path opacity="0.4" d="M-498.874 508.922C-470.255 474.277 -438.106 441.727 -402.472 411.786C-401.334 410.831 -400.195 409.879 -399.053 408.931M-555.91 587.977C-610.962 675.89 -646.359 773.284 -661.524 873.495M-666.207 1062.06C-656.055 1162.56 -625.566 1261.76 -574.173 1353.1M-571.529 1357.76C-549.508 1396.25 -523.75 1433.32 -494.214 1468.47C-227.752 1785.6 245.342 1826.68 562.471 1560.21C879.601 1293.75 920.675 820.658 654.213 503.528C644.732 492.244 634.988 481.309 625 470.725M-394.774 405.403C-331.149 353.347 -261.46 313.467 -188.566 285.515M-102.176 258.286C-40.8286 242.977 21.9193 235.593 84.5 235.999M560 409.553C425.261 297.092 258.403 238.374 90 236.054" stroke="#053D75"/>
<circle cx="462.912" cy="526.628" r="18.4085" transform="rotate(-118.688 462.912 526.628)" stroke="#D9D9D9" stroke-linejoin="round"/>
<circle cx="462.912" cy="526.628" r="18.4085" transform="rotate(-118.688 462.912 526.628)" stroke="#053D75" stroke-linejoin="round"/>
<path d="M469.078 509.13L425.571 473.342" stroke="#053D75" stroke-linecap="round"/>
<path d="M457.695 544.317L409.51 546.762" stroke="#053D75" stroke-linecap="round"/>
<path d="M446.841 535.987L431.826 535.39" stroke="#053D75" stroke-linecap="round"/>
<path d="M456.775 515.024L379.923 481.954" stroke="#053D75" stroke-linecap="round"/>
<path opacity="0.3" d="M-790.389 756.172C-780.206 717.505 -767.515 679.856 -752.5 643.408M-794.767 773.5C-811.26 841.634 -820 912.797 -820 986C-820 1483.06 -417.056 1886 80 1886C577.056 1886 980 1483.06 980 986C980 603.081 740.862 276.015 403.784 146M-750.413 638.385C-727.505 583.726 -699.358 531.807 -666.6 483.255M-614.5 413.536C-584.402 377.063 -551.486 343.002 -516.085 311.685M-512 308.093C-464.153 266.275 -411.84 229.441 -355.869 198.399M-301.241 170.5C-185.478 116.288 -56.2761 86 80 86C86.4717 86 92.9275 86.0683 99.3666 86.2042M200.387 93.9819C269.207 103.182 335.565 120.159 398.55 144" stroke="#053D75"/>
<path opacity="0.2" d="M-568.168 159.881C-389.674 19.6404 -164.605 -64 80 -64C659.899 -64 1130 406.101 1130 986C1130 1565.9 659.899 2036 80 2036C-499.899 2036 -970 1565.9 -970 986C-970 692.274 -849.393 426.717 -655 236.15" stroke="#053D75"/>
<path opacity="0.1" d="M-1087.28 706.5C-961.33 178.562 -486.509 -214 80 -214C742.742 -214 1280 323.258 1280 986C1280 1648.74 742.742 2186 80 2186C-582.742 2186 -1120 1648.74 -1120 986C-1120 891.617 -1109.1 799.778 -1088.5 711.674" stroke="#053D75"/>
<path d="M161.652 137.348C188.906 130.912 205.783 103.602 199.348 76.3476C192.912 49.0936 165.602 32.2169 138.348 38.6523C111.094 45.0877 94.2169 72.3984 100.652 99.6523C107.088 126.906 134.398 143.783 161.652 137.348Z" stroke="#053D75"/>
<path d="M156.039 102.691C156.039 109.585 161.624 115.17 168.519 115.17C175.413 115.17 180.998 109.585 180.998 102.691C180.998 95.7961 175.413 90.2109 168.519 90.2109C161.624 90.2109 156.039 95.7961 156.039 102.691Z" stroke="#053D75"/>
<path d="M179.735 64.7192C179.735 60.849 176.595 57.6973 172.713 57.6973C168.832 57.6973 165.691 60.8375 165.691 64.7192C165.691 68.601 168.832 71.7412 172.713 71.7412C176.595 71.7412 179.735 68.601 179.735 64.7192Z" stroke="#053D75"/>
<path d="M184.463 92.1698C184.463 99.8755 189.353 106.422 196.178 108.948C199.075 102.564 200.697 95.4954 200.697 88.0331C200.697 83.3865 200.06 78.9022 198.889 74.6265C190.674 76.2255 184.463 83.4677 184.463 92.1698Z" stroke="#053D75"/>
<path d="M116.016 100.895C116.016 99.3304 114.753 98.0674 113.189 98.0674C111.624 98.0674 110.361 99.3304 110.361 100.895C110.361 102.459 111.624 103.722 113.189 103.722C114.741 103.722 116.016 102.459 116.016 100.895Z" stroke="#053D75"/>
<path d="M182.563 79.6901C182.563 78.1258 181.3 76.8628 179.736 76.8628C178.171 76.8628 176.908 78.1258 176.908 79.6901C176.908 81.2544 178.171 82.5175 179.736 82.5175C181.3 82.5059 182.563 81.2428 182.563 79.6901Z" stroke="#053D75"/>
<path d="M118.947 113.618C118.947 117.499 122.087 120.64 125.969 120.64C129.851 120.64 132.991 117.499 132.991 113.618C132.991 109.736 129.851 106.596 125.969 106.596C122.087 106.596 118.947 109.736 118.947 113.618Z" stroke="#053D75"/>
<path d="M145.947 54.0932C145.947 56.5729 147.952 58.5775 150.432 58.5775C152.911 58.5775 154.916 56.5729 154.916 54.0932C154.916 51.6135 152.911 49.6089 150.432 49.6089C147.952 49.6089 145.947 51.6135 145.947 54.0932Z" stroke="#053D75"/>
<path d="M166.594 135.935C165.146 127.5 157.823 121.08 148.981 121.08C140.384 121.08 133.211 127.152 131.484 135.228C137.22 137.488 143.466 138.728 150.001 138.728C155.806 138.728 161.392 137.731 166.594 135.935Z" stroke="#053D75"/>
<path d="M121.335 86.8512C126.607 86.8512 130.895 82.5754 130.895 77.2916C130.895 72.0193 126.619 67.7319 121.335 67.7319C116.063 67.7319 111.775 72.0077 111.775 77.2916C111.775 82.5754 116.051 86.8512 121.335 86.8512Z" stroke="#053D75"/>
<path d="M150.928 78.3693C150.928 76.805 149.665 75.542 148.101 75.542C146.536 75.542 145.273 76.805 145.273 78.3693C145.273 79.9336 146.536 81.1967 148.101 81.1967C149.665 81.1967 150.928 79.9336 150.928 78.3693Z" stroke="#053D75"/>
<path d="M141.949 98.4502C139.469 98.4502 137.465 100.455 137.465 102.935C137.465 105.414 139.469 107.419 141.949 107.419C144.429 107.419 146.434 105.414 146.434 102.935C146.434 100.466 144.429 98.4502 141.949 98.4502Z" stroke="#053D75"/>
<g filter="url(#filter3_d_2647_7335)">
<path d="M262.219 361.281C262.219 361.281 225.38 346.542 215.429 359.432C204.189 373.993 186.014 422.155 191.073 440.444C194.347 452.276 215.975 458.549 215.975 458.549L262.219 361.281Z" fill="url(#paint0_linear_2647_7335)"/>
<path d="M249.929 496.704C259.095 508.704 275.206 513.866 287.253 516.083C290.393 515.205 293.558 513.947 296.697 512.287C288.39 511.808 264.049 508.976 253.376 492.243C252.33 493.439 251.192 494.881 249.929 496.704Z" fill="#0876E4"/>
<path d="M254.67 547.622C274.565 552.772 278.975 527.531 279.896 518.925C279.956 518.356 280.002 517.861 280.036 517.452C282.406 517.219 284.824 516.766 287.254 516.083C275.207 513.866 259.096 508.704 249.929 496.704C249.678 497.066 249.419 497.447 249.158 497.843C248.72 498.503 248.151 499.401 247.504 500.497C246.332 502.48 244.906 505.102 243.529 508.108C237.478 521.313 232.436 541.859 254.67 547.622Z" fill="url(#paint1_linear_2647_7335)"/>
<path d="M195.064 478.386C195.132 478.547 195.201 478.707 195.271 478.865C202.181 494.55 222.536 498.925 233.132 500.147C235.244 499.184 237.286 498.003 239.25 496.631C228.422 495.528 206.84 491.223 198.38 474.448C197.293 475.735 196.182 477.048 195.064 478.386Z" fill="#0876E4"/>
<path d="M196.494 533.155C216.606 538.356 220.62 511.715 221.378 503.135C222.258 503.078 223.13 502.987 223.989 502.86C227.175 502.4 230.224 501.475 233.133 500.147C222.537 498.925 202.182 494.55 195.272 478.865C195.202 478.707 195.132 478.547 195.065 478.386C194.144 479.492 193.215 480.613 192.293 481.747C191.853 482.288 191.413 482.834 190.976 483.383C185.627 490.094 166.418 525.362 196.494 533.155Z" fill="url(#paint2_linear_2647_7335)"/>
<path d="M351.151 325.143C353.433 333.444 360.462 349.312 381.167 352.595C382.212 350.935 383.266 349.211 384.324 347.414C366.386 343.683 358.03 331.119 354.223 321.726C353.185 322.904 352.157 324.043 351.151 325.143Z" fill="#0876E4"/>
<path d="M476.341 167.38C485.972 167.632 494.718 173.056 499.226 181.571L522.038 224.67C526.476 233.051 526.127 243.159 521.123 251.219L494.879 293.508C489.875 301.569 480.97 306.37 471.487 306.121L422.724 304.839C413.092 304.584 404.347 299.162 399.839 290.647L377.026 247.547C372.591 239.164 372.937 229.057 377.941 220.997L404.185 178.708C409.186 170.648 418.091 165.847 427.575 166.096L476.341 167.38Z" fill="#0876E4"/>
<path d="M419.449 284.577C416.058 282.473 413.213 279.487 411.284 275.842L395.591 246.179C391.807 239.023 392.106 230.306 396.376 223.426L414.502 194.218C418.773 187.339 426.453 183.196 434.547 183.407L468.103 184.282C476.349 184.498 483.867 189.159 487.724 196.449L503.418 226.113C507.205 233.267 506.902 241.985 502.632 248.865L484.506 278.073C480.236 284.952 472.558 289.094 464.46 288.882L430.904 288.007C426.783 287.901 422.841 286.681 419.449 284.577ZM475.539 194.194C473.278 192.791 470.649 191.978 467.901 191.906L434.344 191.029C428.949 190.888 423.827 193.65 420.981 198.237L402.855 227.445C400.008 232.032 399.808 237.843 402.331 242.612L418.025 272.276C420.596 277.134 425.609 280.242 431.106 280.386L464.663 281.263C470.06 281.405 475.18 278.644 478.027 274.057L496.153 244.849C498.999 240.262 499.202 234.451 496.675 229.68L480.982 200.017C479.696 197.587 477.802 195.595 475.539 194.194Z" fill="white"/>
<path fill-rule="evenodd" clip-rule="evenodd" d="M465.913 211.326C457.264 205.964 445.902 208.626 440.536 217.274C439.61 218.765 440.069 220.725 441.559 221.648C443.05 222.573 445.01 222.113 445.936 220.622C449.453 214.955 456.897 213.211 462.562 216.726C468.23 220.24 469.973 227.682 466.455 233.347L463.439 238.205L439.139 223.138C436.455 221.473 432.929 222.3 431.263 224.983L422.552 239.023C419.776 243.494 421.153 249.371 425.625 252.144L447.224 265.538C451.699 268.313 457.575 266.934 460.35 262.462L469.062 248.422C470.374 246.308 470.14 243.666 468.666 241.83L471.855 236.692C477.225 228.048 474.563 216.69 465.913 211.326ZM462.791 245.281L436.33 228.875L427.953 242.373C427.027 243.864 427.485 245.821 428.979 246.746L450.578 260.139C452.069 261.065 454.029 260.605 454.953 259.115L463.33 245.617L462.791 245.281ZM446.144 243.184C444.952 242.445 443.383 242.813 442.643 244.005C441.904 245.197 442.271 246.765 443.463 247.504C444.656 248.244 446.224 247.876 446.964 246.684C447.704 245.491 447.336 243.924 446.144 243.184ZM440.483 242.666C441.965 240.28 445.097 239.547 447.484 241.024C449.87 242.505 450.606 245.637 449.124 248.023C447.642 250.408 444.508 251.143 442.123 249.664C439.735 248.184 439.001 245.051 440.483 242.666Z" fill="white"/>
<path d="M354.221 321.726C358.028 331.119 366.385 343.683 384.323 347.414C385.236 345.866 386.153 344.263 387.074 342.606C389.005 339.132 390.948 335.422 392.889 331.46C392.889 331.46 397.141 332.175 401.883 331.207C406.942 330.176 410.667 325.643 413.086 320.19C416.011 313.591 417.028 305.65 416.184 300.917C414.321 290.468 408.092 290.468 408.092 290.468C406.583 287.195 403.573 284.531 398.668 282.861C386 278.548 379.292 288.43 379.292 288.43C374.072 296.516 368.901 303.701 363.929 310.046C361.931 312.599 359.964 315.017 358.039 317.301C356.747 318.836 355.476 320.309 354.221 321.726Z" fill="url(#paint3_linear_2647_7335)"/>
<path d="M198.38 474.448C206.84 491.223 228.422 495.528 239.25 496.631C240.878 495.5 242.457 494.234 243.984 492.849C244.892 492.02 245.785 491.153 246.657 490.244C250.076 486.7 253.215 482.539 256.073 477.925C256.073 477.925 259.064 479.538 264.059 480.962C264.005 481.048 263.951 481.133 263.896 481.219C261.119 485.561 258.793 486.876 255.754 489.77C255.219 490.278 254.662 490.834 254.075 491.469C253.847 491.715 253.614 491.974 253.376 492.243C257.351 498.475 263.221 502.78 269.453 505.75C279.955 510.76 291.482 511.987 296.697 512.287C298.11 511.539 299.518 510.713 300.918 509.799C313.833 501.39 325.898 485.902 333.277 461.876C342.829 430.743 343.833 403.796 343.87 394.693C343.87 394.693 343.864 394.688 343.87 394.68C343.877 392.557 343.833 391.41 343.833 391.41C343.833 391.41 359.393 385.051 378.071 357.343C379.09 355.826 380.123 354.244 381.166 352.595C360.462 349.312 353.432 333.444 351.15 325.143C349.773 326.645 348.43 328.071 347.12 329.425C341.892 334.836 337.239 339.101 333.442 342.332C333.442 342.332 322.464 372.745 297.489 371.062C278.695 369.794 265.604 362.469 257.6 356.093C257.343 355.885 257.09 355.681 256.846 355.476C250.728 350.454 247.83 346.169 247.83 346.169C246.719 350.49 245.161 355.761 243.306 361.457C243.205 361.773 243.099 362.084 243 362.407C241.429 367.181 239.675 372.228 237.811 377.24C232.426 391.801 226.225 406.061 221.556 412.539C213.246 424.063 211.9 454.399 211.9 454.399C211.695 455.686 211.149 457.107 210.324 458.653C210.236 458.821 210.143 458.987 210.044 459.155C208.108 462.635 204.878 466.694 201.154 471.15C200.256 472.227 199.327 473.327 198.38 474.448Z" fill="url(#paint4_linear_2647_7335)"/>
<path d="M394.666 296.236C394.743 295.959 394.823 295.674 394.914 295.384L394.526 296.101L394.666 296.236Z" fill="white"/>
<path d="M322.834 350.438C323.149 350.236 327.109 347.722 333.439 342.332L322.834 350.438Z" fill="white"/>
<path d="M317.564 457.609C313.77 457.4 309.526 457.094 304.981 456.662C307.668 457.115 310.147 457.498 312.362 457.822C314.135 458.073 315.898 457.992 317.564 457.609Z" fill="white"/>
<path d="M335.452 447.968C329.917 447.968 325.431 443.479 325.431 437.943C325.431 432.406 329.917 427.918 335.452 427.918C340.986 427.918 345.473 432.406 345.473 437.943C345.473 443.479 340.986 447.968 335.452 447.968Z" fill="url(#paint5_linear_2647_7335)"/>
<path d="M264.934 453.14L303.191 459.385L305.911 459.831L321.626 462.396C328.336 463.489 334.729 458.898 335.824 452.177L336.846 445.899L340.741 421.997C341.844 415.278 337.245 408.886 330.526 407.791L328.536 407.467L325.818 407.022L273.845 398.54C273.009 398.403 272.178 398.351 271.366 398.387C265.623 398.62 260.605 402.874 259.644 408.756L254.722 438.937C253.627 445.658 258.226 452.048 264.934 453.14Z" fill="url(#paint6_linear_2647_7335)"/>
<path d="M323.938 462.544C323.179 462.577 322.411 462.528 321.626 462.396L264.935 453.14C260.018 452.335 256.234 448.695 255 444.151C254.547 442.499 254.433 440.731 254.728 438.937L256.91 425.528L257.629 421.103L259.643 408.756C260.737 402.035 267.132 397.445 273.843 398.537L286.092 400.541C280.272 400.684 275.161 404.961 274.187 410.905L271.524 427.206L269.262 441.091C268.17 447.804 272.767 454.202 279.477 455.297L323.938 462.544Z" fill="url(#paint7_linear_2647_7335)"/>
<path d="M225.405 400.829C225.405 400.829 219.96 403.252 218.166 408.919C216.093 415.472 219.256 419.301 219.256 419.301C219.256 419.301 233.793 433.588 262.996 435.455C262.996 435.455 274.109 427.001 266.803 418.263C266.806 418.263 236.622 414.002 225.405 400.829Z" fill="url(#paint8_linear_2647_7335)"/>
<g opacity="0.35">
<path d="M218.551 418.131C219.433 416.001 220.432 414.095 221.556 412.536C222.138 411.729 222.746 410.799 223.375 409.756C222.568 407.483 222.469 404.974 223.194 402.566C223.212 402.499 223.238 402.437 223.256 402.367C223.287 402.26 223.323 402.149 223.375 402.051C221.631 403.299 219.242 405.528 218.168 408.925C216.765 413.352 217.756 416.537 218.551 418.131Z" fill="#371A45"/>
</g>
<path d="M201.112 419.105C202.184 418.75 203.315 418.46 204.49 418.229C214.733 416.223 228.458 418.727 236.978 420.775C237.205 419.288 237.552 417.466 238.08 415.426C227.862 412.836 211.123 409.882 202.634 413.398C202.057 415.306 201.55 417.212 201.112 419.105Z" fill="#0876E4"/>
<path d="M201.584 450.176C203.041 453.816 206.263 456.995 210.044 459.155C218.986 464.27 231.072 463.711 230.402 450.176C230.016 442.416 235.813 446.321 238.774 445.873C241.727 445.42 243.795 443.478 241.603 436.889C240.868 434.67 239.445 430.716 237.731 427.18C237.351 426.39 236.955 425.624 236.551 424.899C236.551 424.899 236.587 423.332 236.978 420.774C228.458 418.726 214.734 416.223 204.49 418.229C203.315 418.46 202.184 418.75 201.113 419.105C200.541 421.572 200.091 424.019 199.762 426.413C198.522 435.478 199.055 443.851 201.584 450.176Z" fill="url(#paint9_linear_2647_7335)"/>
<path d="M202.635 413.398C211.124 409.882 227.863 412.836 238.081 415.426C238.541 413.649 239.142 411.705 239.918 409.667C242.152 403.811 245.868 397.193 252.043 391.588L255.11 371.992L257.6 356.092L257.734 355.228C257.734 355.228 257.424 355.303 256.847 355.476C254.875 356.066 249.771 357.78 243.306 361.457C243.045 361.604 242.778 361.76 242.511 361.915C233.456 367.204 221.942 376.284 212.581 391.321C209.581 396.145 207.045 401.289 205.011 406.519C204.12 408.803 203.328 411.102 202.635 413.398Z" fill="url(#paint10_linear_2647_7335)"/>
<path d="M373.63 300.964C372.639 310.963 369.812 320.825 365.146 330.029C363.368 333.537 361.324 336.949 359.01 340.237C357.299 342.669 355.451 345.027 353.453 347.306C352.485 348.416 351.471 349.509 350.431 350.588C347.273 353.833 343.916 356.766 340.391 359.394C337.361 361.664 334.198 363.705 330.95 365.517C327.764 367.296 324.485 368.852 321.136 370.19C320.363 370.498 319.584 370.796 318.802 371.083C317.283 371.632 315.753 372.142 314.216 372.608C308.905 374.211 303.468 375.285 297.986 375.832C297.986 375.832 297.986 375.832 297.984 375.832C274.386 378.18 249.991 370.721 231.613 353.289C198.243 321.651 197.342 269.147 229.587 236.015C235.801 229.638 242.794 224.432 250.273 220.434C251.143 219.961 252.03 219.507 252.926 219.072C255.312 217.897 257.739 216.841 260.203 215.906C265.905 213.742 271.798 212.214 277.758 211.318C283.716 210.417 289.759 210.151 295.758 210.521C297 210.599 298.242 210.699 299.482 210.829C300.145 210.899 300.807 210.977 301.472 211.062C304.322 211.435 307.151 211.942 309.964 212.608C311.99 213.081 314.001 213.63 315.994 214.257C327.777 217.951 338.898 224.297 348.404 233.315C350.933 235.71 353.272 238.226 355.425 240.844C369.634 258.11 375.729 279.822 373.63 300.964Z" fill="url(#paint11_linear_2647_7335)"/>
<path d="M315.992 214.26C315.118 214.021 314.24 213.801 313.355 213.592C305.581 213.421 297.472 214.596 289.146 217.095C285.878 218.076 282.575 219.262 279.245 220.647C257.932 229.525 240.219 248.259 231.86 270.763C224.386 290.89 225.141 311.698 233.99 329.358C243.68 348.688 259.112 362.219 278.618 368.489C292.066 372.81 306.787 373.32 321.135 370.19C320.361 370.498 319.582 370.796 318.8 371.083C317.281 371.632 315.752 372.142 314.214 372.608C308.904 374.211 303.466 375.286 297.985 375.832C297.985 375.832 297.985 375.832 297.982 375.832C290.971 375.446 284.074 374.201 277.467 372.078C256.974 365.491 240.776 351.303 230.62 331.044C221.298 312.442 220.483 290.567 228.327 269.448C237.041 245.983 255.535 226.436 277.795 217.165C285.156 214.099 292.407 211.981 299.478 210.829C300.14 210.899 300.803 210.977 301.468 211.062C304.318 211.435 307.146 211.942 309.96 212.608C311.986 213.084 313.999 213.633 315.992 214.26Z" fill="#9CBDEA"/>
<mask id="mask1_2647_7335" style="mask-type:luminance" maskUnits="userSpaceOnUse" x="231" y="219" width="144" height="144">
<path d="M373.63 300.964C372.931 308.006 371.324 314.981 368.803 321.705C367.745 324.527 366.526 327.308 365.146 330.029C353.893 344.39 338.846 354.679 322.363 359.624C313.892 362.164 305.044 363.296 296.131 362.84C270.615 361.54 249.287 347.435 237.615 324.144C229.566 308.081 228.862 289.197 235.635 270.967C243.156 250.721 259.114 233.856 278.322 225.853C307.202 213.822 333.088 218.871 355.423 240.844C369.634 258.11 375.729 279.822 373.63 300.964Z" fill="white"/>
</mask>
<g mask="url(#mask1_2647_7335)">
<path d="M373.63 300.964C372.931 308.006 371.324 314.981 368.803 321.705C367.745 324.527 366.526 327.308 365.146 330.029C353.893 344.39 338.846 354.679 322.363 359.624C313.892 362.164 305.044 363.296 296.131 362.84C270.615 361.54 249.287 347.435 237.615 324.144C229.566 308.081 228.862 289.197 235.635 270.967C243.156 250.721 259.114 233.856 278.322 225.853C307.202 213.822 333.088 218.871 355.423 240.844C369.634 258.11 375.729 279.822 373.63 300.964Z" fill="#371A45"/>
</g>
<mask id="mask2_2647_7335" style="mask-type:luminance" maskUnits="userSpaceOnUse" x="231" y="219" width="144" height="144">
<path d="M373.63 300.964C372.931 308.006 371.324 314.981 368.803 321.705C367.745 324.527 366.526 327.308 365.146 330.029C353.893 344.39 338.846 354.679 322.363 359.624C313.892 362.164 305.044 363.296 296.131 362.84C270.615 361.54 249.287 347.435 237.615 324.144C229.566 308.081 228.862 289.197 235.635 270.967C243.156 250.721 259.114 233.856 278.322 225.853C307.202 213.822 333.088 218.871 355.423 240.844C369.634 258.11 375.729 279.822 373.63 300.964Z" fill="white"/>
</mask>
<g mask="url(#mask2_2647_7335)">
<path d="M357.969 309.412C353.345 319.839 338.891 342.962 329.607 345.256C326.263 346.083 328.194 342.702 328.85 340.392C329.395 338.458 296.193 329.358 273.698 331.929C275.076 313.811 278.92 264.932 280.584 260.182C274.985 268.136 265.962 286.886 263.406 294.817C260.545 303.668 262.636 321.05 261.101 320.365C260.745 320.207 260.407 320.011 260.089 319.788C262.096 325.449 265.008 329.87 267.574 333.005C265.578 333.502 263.731 334.13 262.077 334.913C262.077 334.913 261.974 337.345 260.219 337.552C257.115 337.919 247.232 320.306 246.516 310.504C246.516 310.504 242.103 308.19 240.057 299.221C238.007 290.26 242.779 277.722 246.34 273.95C247.1 273.145 248.409 271.526 250.038 269.442C250.043 269.433 250.048 269.43 250.049 269.425C250.054 269.422 250.055 269.417 250.055 269.417C256.05 261.731 266.361 247.742 269.64 244.732C273.81 240.9 280.474 247.003 280.474 247.003C280.474 247.003 294.89 231.199 305.874 235.113C308.631 236.094 312.053 238.393 316.152 241.25C321.946 245.276 329.095 250.41 337.63 254.506C348.672 259.806 354.601 264.413 357.721 271.015C358.728 273.131 359.443 275.451 359.944 278.06C359.945 278.06 363.145 297.738 357.969 309.412Z" fill="url(#paint12_linear_2647_7335)"/>
<g style="mix-blend-mode:multiply" opacity="0.9">
<path d="M357.97 309.413C353.346 319.839 338.891 342.962 329.608 345.256C327.957 345.663 327.59 345.048 327.729 344.04C330.111 342.319 332.305 340.303 334.195 337.946C336.468 335.107 337.466 329.011 338.106 321.942C337.123 323.15 336.154 324.272 335.23 325.296C332.367 328.483 336.359 306.849 328.372 302.414C321.231 300.184 313.327 295.864 313.077 295.731C313.128 295.922 314.533 301.316 311.142 300.502C307.692 299.67 300.493 292.89 300.493 292.89C300.493 292.89 292.594 291.223 286.564 283.909C282.355 278.803 281.01 266.901 280.585 260.183C281.562 257.394 281.578 254.264 281.332 251.753C281.256 250.967 281.392 250.147 281.284 249.512C281.013 247.931 280.477 247.004 280.477 247.004C280.477 247.004 287.567 238.999 296.271 235.669C296.271 235.669 294.272 237.834 293.379 241.322C293.379 241.322 292.688 244.71 295.663 248.153C295.663 248.153 292.474 245.272 287.668 246.793C287.668 246.793 287.157 247.927 286.935 249.602C286.812 250.487 286.769 251.518 286.92 252.62C286.92 252.62 288.717 273.648 301.694 285.108C301.694 285.108 302.286 264.548 297.031 251.196C297.031 251.196 314.829 277.341 332.182 288.834C332.182 288.834 337.139 278.947 336.868 273.943C336.676 270.406 332.874 262.084 330.654 257.509C329.739 255.608 329.091 254.355 329.091 254.355C329.095 254.356 329.099 254.361 329.103 254.361C329.622 254.709 346.283 265.956 351.466 276.935C352.814 279.792 357.918 276.267 357.722 271.014C358.729 273.13 359.444 275.45 359.945 278.059C359.946 278.06 363.146 297.738 357.97 309.413Z" fill="#D077B7"/>
</g>
<g style="mix-blend-mode:multiply" opacity="0.9">
<path d="M267.573 333.008C265.577 333.505 263.73 334.133 262.076 334.916C262.076 334.916 261.973 337.348 260.218 337.555C257.114 337.923 247.231 320.309 246.515 310.507C246.515 310.507 242.102 308.193 240.056 299.224C238.006 290.26 242.778 277.722 246.34 273.95C247.099 273.145 248.409 271.526 250.037 269.442C249.72 269.988 244.308 279.407 244.287 282.876C244.287 282.876 246.068 283.451 250.148 278.265C253.582 273.905 257.746 268.32 258.987 266.65C257.782 268.369 253.84 274.522 251.431 284.596C251.419 284.643 251.408 284.687 251.396 284.735C251.13 285.852 250.888 287.019 250.664 288.237C250.435 289.48 250.23 290.778 250.064 292.121L247.974 309.753L252.43 303.085C252.43 303.085 256.833 279.744 263.818 270.085C270.178 261.282 273.304 257.554 273.811 256.962C272.877 258.12 262.764 271.082 258.322 296.975C256.773 306.002 257.895 313.629 260.088 319.792C262.095 325.452 265.005 329.873 267.573 333.008Z" fill="#D077B7"/>
</g>
<path d="M291.832 367.797C271.534 364.665 265.057 366.948 263.834 368.402C263.834 368.402 262.71 371.63 261.312 372.588C261.312 372.588 259.18 374.252 257.332 374.085C255.482 373.918 253.899 372.031 252.589 372.415C251.28 372.798 248.936 375.84 248.936 375.84L238.585 378.933L334.178 393.686C334.178 393.686 318.651 384.956 315.37 381.107C315.37 381.107 312.91 376.798 314.327 374.905C314.327 374.905 312.373 370.969 291.832 367.797Z" fill="url(#paint13_linear_2647_7335)"/>
<path d="M262.008 299.501C262.008 299.501 261.231 294.279 253.976 289.992C246.72 285.705 243.082 289.894 241.771 294.97C240.459 300.046 244.458 314.035 249.957 317.171C255.455 320.307 259.356 316.685 259.356 316.685L262.008 299.501Z" fill="url(#paint14_linear_2647_7335)"/>
<g style="mix-blend-mode:multiply" opacity="0.6">
<path d="M260.632 308.424L259.824 313.66C259.824 313.66 258.344 307.293 256.87 307.153C255.396 307.014 255.387 311.059 254.659 312.354C253.931 313.65 252.095 311.871 252.321 307.331C252.547 302.791 255.615 303.315 255.615 303.315C255.615 303.315 253.439 294.806 248.872 296.476C244.303 298.146 245.096 309.15 245.096 309.15C245.096 309.15 240.859 298.166 242.645 294.636C244.43 291.106 248.071 291.398 253.37 295.823C255.969 297.992 258.168 302.295 259.732 306.113C260.061 306.913 260.362 307.691 260.632 308.424Z" fill="url(#paint15_linear_2647_7335)"/>
</g>
<g style="mix-blend-mode:multiply" opacity="0.6">
<path d="M260.706 307.947L260.155 311.516C259.536 309.687 257.884 305.268 256.671 306.155C255.152 307.268 255.471 309.797 254.116 311.309C252.76 312.821 251.883 308.055 253.258 305.19C254.633 302.324 258.061 304.074 259.006 305.093C259.233 305.338 259.479 305.693 259.734 306.113C260.054 306.646 260.387 307.285 260.706 307.947Z" fill="url(#paint16_linear_2647_7335)"/>
</g>
<path d="M337.416 311.139C337.416 311.139 339.732 306.393 347.942 304.494C356.152 302.594 358.358 307.685 358.078 312.92C357.799 318.155 349.768 330.287 343.58 331.619C337.392 332.952 334.764 328.323 334.764 328.323L337.416 311.139Z" fill="url(#paint17_linear_2647_7335)"/>
<g style="mix-blend-mode:multiply" opacity="0.6">
<path d="M336.039 320.062L335.231 325.297C335.231 325.297 338.562 319.673 340.009 319.984C341.457 320.295 340.245 324.155 340.549 325.609C340.853 327.064 343.139 325.921 344.293 321.525C345.446 317.128 342.363 316.702 342.363 316.702C342.363 316.702 347.003 309.246 350.854 312.215C354.707 315.185 350.633 325.437 350.633 325.437C350.633 325.437 357.985 316.242 357.346 312.337C356.709 308.433 353.149 307.615 346.762 310.236C343.63 311.521 340.237 314.96 337.594 318.129C337.039 318.793 336.517 319.444 336.039 320.062Z" fill="url(#paint18_linear_2647_7335)"/>
</g>
<g style="mix-blend-mode:multiply" opacity="0.6">
<path d="M336.112 319.585L335.561 323.154C336.702 321.597 339.61 317.881 340.499 319.093C341.612 320.612 340.545 322.927 341.381 324.777C342.219 326.628 344.492 322.348 344.045 319.201C343.598 316.055 339.802 316.689 338.594 317.376C338.303 317.542 337.961 317.805 337.592 318.13C337.124 318.54 336.616 319.049 336.112 319.585Z" fill="url(#paint19_linear_2647_7335)"/>
</g>
<path d="M305.209 371.403C305.914 366.84 309.265 345.123 309.265 345.123L293.707 344.59L278.712 340.408C278.712 340.408 275.361 362.125 274.657 366.688C273.952 371.251 270.464 372.244 270.464 372.244C270.464 372.244 272.87 377.146 288.315 379.53C303.761 381.914 307.532 377.965 307.532 377.965C307.532 377.965 304.505 375.966 305.209 371.403Z" fill="url(#paint20_linear_2647_7335)"/>
<g style="mix-blend-mode:multiply" opacity="0.6">
<path d="M309.265 345.123C309.265 345.123 307.356 357.49 306.117 365.52C303.303 367.617 299.827 369.074 295.716 368.748C285.597 367.946 279.282 354.763 277.259 349.816C278.053 344.67 278.711 340.406 278.711 340.406L293.707 344.589L309.265 345.123Z" fill="#D077B7"/>
</g>
<path d="M340.189 297.964C342.19 284.999 348.67 255.247 308.33 249.021C267.99 242.795 265.198 273.117 263.197 286.082C261.106 299.632 254.092 318.865 256.859 326.011C263.5 343.151 284.734 351.746 292.296 352.913C299.857 354.08 322.695 352.287 334.194 337.946C338.987 331.967 338.098 311.514 340.189 297.964Z" fill="url(#paint21_linear_2647_7335)"/>
<g style="mix-blend-mode:multiply" opacity="0.6">
<path d="M334.194 337.946C322.697 352.288 299.859 354.08 292.296 352.913C284.735 351.746 263.5 343.151 256.86 326.011C255.898 323.529 256.817 315.056 257.473 311.217C257.035 314.421 256.26 322.355 257.092 324.504C263.733 341.644 284.968 350.238 292.529 351.405C300.09 352.572 322.928 350.779 334.427 336.439C335.87 334.639 337.521 326.842 338.069 323.656C337.537 327.514 335.859 335.87 334.194 337.946Z" fill="url(#paint22_linear_2647_7335)"/>
</g>
<path d="M292.454 288.678C292.454 288.678 290.601 287.512 285.833 286.607C285.832 286.607 285.832 286.607 285.83 286.606C284.415 286.338 282.744 286.094 280.788 285.908C272.239 285.099 266.02 285.72 266.02 285.72C266.093 285.578 268.998 282.253 272.245 281.07C272.218 281.104 271.748 281.677 271.691 282.361C271.691 282.361 275.529 280.271 280.442 279.941C281.358 279.879 282.312 279.878 283.286 279.965C289.477 280.513 291.672 285.469 291.672 285.469C291.672 285.469 291.703 284.275 291.162 283.477C291.165 283.477 292.959 285.082 292.454 288.678Z" fill="url(#paint23_linear_2647_7335)"/>
<g style="mix-blend-mode:multiply" opacity="0.6">
<path d="M285.83 286.607C284.415 286.338 282.744 286.094 280.788 285.909C272.239 285.099 266.02 285.72 266.02 285.72C266.093 285.578 268.998 282.253 272.245 281.071C272.218 281.104 271.748 281.677 271.691 282.361C271.691 282.361 275.529 280.271 280.442 279.941C278.634 280.511 274.698 281.828 272.146 284.369C272.149 284.369 276.978 283.477 285.83 286.607Z" fill="#D077B7"/>
</g>
<path d="M311.754 291.656C311.754 291.656 313.872 291.104 318.691 291.678C318.692 291.678 318.692 291.678 318.694 291.678C320.124 291.849 321.791 292.12 323.712 292.533C332.107 294.339 337.849 296.805 337.849 296.805C337.822 296.648 336.055 292.602 333.316 290.496C333.331 290.536 333.607 291.223 333.455 291.893C333.455 291.893 330.426 288.743 325.841 286.947C324.986 286.613 324.077 286.324 323.122 286.113C317.053 284.769 313.465 288.832 313.465 288.832C313.465 288.832 313.795 287.685 314.552 287.087C314.551 287.087 312.356 288.075 311.754 291.656Z" fill="url(#paint24_linear_2647_7335)"/>
<path opacity="0.6" d="M318.693 291.678C320.123 291.849 321.79 292.12 323.711 292.533C332.106 294.339 337.849 296.805 337.849 296.805C337.821 296.648 336.054 292.602 333.315 290.496C333.33 290.536 333.606 291.223 333.454 291.893C333.454 291.893 330.425 288.743 325.84 286.947C327.391 288.036 330.748 290.478 332.415 293.67C332.412 293.67 328.077 291.363 318.693 291.678Z" fill="#D077B7"/>
<path d="M307.225 325.608C306.665 326.61 302.814 325.776 301.571 326.061C300.328 326.346 299.181 327.6 296.048 327.116C292.915 326.633 292.199 325.092 291.1 324.445C290.001 323.799 286.078 323.432 285.846 322.308C285.369 320.003 286.566 318.561 287.862 317.697L287.862 317.695C288.493 317.276 289.146 316.991 289.642 316.813C290.203 316.612 290.729 316.332 291.223 316.001C292.957 314.829 294.866 314.4 296.223 314.252C297.429 314.12 298.648 314.308 299.757 314.797C301.005 315.349 302.697 316.332 303.997 317.972C304.367 318.438 304.785 318.863 305.259 319.223C305.695 319.556 306.262 320.049 306.75 320.677C307.698 321.889 308.352 323.597 307.225 325.608Z" fill="url(#paint25_linear_2647_7335)"/>
<g style="mix-blend-mode:multiply" opacity="0.6">
<path d="M307.225 325.608C306.665 326.61 302.814 325.776 301.571 326.061C300.328 326.346 299.181 327.6 296.048 327.116C292.914 326.633 292.199 325.092 291.099 324.445C290 323.799 286.077 323.433 285.845 322.308C285.368 320.003 286.566 318.561 287.862 317.697C286.337 320.226 286.507 321.961 287.181 322.104C287.854 322.248 290.131 321.924 291.907 322.516C293.684 323.108 294.325 323.644 296.438 323.97C298.551 324.296 299.322 323.978 301.196 323.949C303.068 323.92 305.141 324.915 305.827 324.982C306.512 325.048 307.197 323.445 306.508 320.573L306.752 320.677C307.697 321.889 308.351 323.597 307.225 325.608Z" fill="#D077B7"/>
</g>
<path d="M288.262 323.586C289.915 323.229 291.099 324.444 291.099 324.444L288.262 323.586Z" fill="url(#paint26_linear_2647_7335)"/>
<path d="M304.448 326.084C302.979 325.245 301.484 326.046 301.484 326.046L304.448 326.084Z" fill="url(#paint27_linear_2647_7335)"/>
<g style="mix-blend-mode:multiply" opacity="0.6">
<path d="M286.024 322.63C286.024 322.63 286.09 322.065 287.181 322.104C288.273 322.144 290.193 321.774 292.083 322.663C293.973 323.551 295.48 323.91 296.725 324.012C297.969 324.113 301.125 323.581 302.758 324.074C304.391 324.567 305.156 324.878 305.827 324.982C306.499 325.086 307.08 325.47 306.957 325.86C306.835 326.25 301.376 330.43 295.666 329.549C289.956 328.668 286.024 322.63 286.024 322.63Z" fill="#D077B7"/>
</g>
<g style="mix-blend-mode:multiply" opacity="0.6">
<path d="M289.287 316.951C290.607 317.213 289.713 319.573 289.713 319.573C289.713 319.573 291.059 317.83 290.497 316.437L289.287 316.951Z" fill="url(#paint28_linear_2647_7335)"/>
</g>
<g style="mix-blend-mode:multiply" opacity="0.6">
<path d="M305.473 319.449C304.135 319.301 304.276 321.821 304.276 321.821C304.276 321.821 303.519 319.753 304.474 318.594L305.473 319.449Z" fill="url(#paint29_linear_2647_7335)"/>
</g>
<path d="M299.367 321.063C298.762 321.697 299.073 322.19 299.154 322.441C299.235 322.693 300.632 322.909 300.785 322.693C300.938 322.477 301.111 321.354 300.998 321.315C300.884 321.278 299.611 320.807 299.367 321.063Z" fill="#FFCEBE"/>
<path d="M333.576 312.389C333.576 312.389 331.157 315.959 325.151 316.689C319.146 317.42 312.974 316.521 309.463 314.389C309.463 314.389 309.821 313.117 310.758 311.462C310.758 311.46 310.76 311.458 310.76 311.456C312.385 308.588 315.749 304.574 321.995 304.036C330.657 303.295 333.037 310.307 333.489 312.018C333.549 312.256 333.576 312.389 333.576 312.389Z" fill="url(#paint30_linear_2647_7335)"/>
<mask id="mask3_2647_7335" style="mask-type:luminance" maskUnits="userSpaceOnUse" x="309" y="303" width="25" height="14">
<path d="M309.465 314.39C309.465 314.39 312.141 304.884 321.996 304.038C331.853 303.191 333.576 312.39 333.576 312.39C333.576 312.39 331.155 315.96 325.151 316.689C319.147 317.419 312.975 316.521 309.465 314.39Z" fill="white"/>
</mask>
<g mask="url(#mask3_2647_7335)">
<mask id="mask4_2647_7335" style="mask-type:luminance" maskUnits="userSpaceOnUse" x="311" y="302" width="25" height="14">
<path d="M311.672 313.286C311.672 313.286 314.348 303.78 324.203 302.934C334.06 302.087 335.783 311.286 335.783 311.286C335.783 311.286 333.363 314.856 327.358 315.585C321.354 316.315 315.182 315.417 311.672 313.286Z" fill="white"/>
</mask>
<g mask="url(#mask4_2647_7335)">
<path d="M321.51 315.965C325.962 316.652 330.129 313.599 330.816 309.146C331.504 304.694 328.451 300.527 323.998 299.84C319.545 299.152 315.378 302.205 314.691 306.658C314.004 311.111 317.057 315.277 321.51 315.965Z" fill="url(#paint31_linear_2647_7335)"/>
</g>
<mask id="mask5_2647_7335" style="mask-type:luminance" maskUnits="userSpaceOnUse" x="311" y="302" width="25" height="14">
<path d="M311.672 313.286C311.672 313.286 314.348 303.78 324.203 302.934C334.06 302.087 335.783 311.286 335.783 311.286C335.783 311.286 333.363 314.856 327.358 315.585C321.354 316.315 315.182 315.417 311.672 313.286Z" fill="white"/>
</mask>
<g mask="url(#mask5_2647_7335)">
<path d="M315.333 306.757C314.701 310.856 317.511 314.689 321.609 315.322C325.708 315.954 329.541 313.145 330.174 309.048C330.806 304.949 327.996 301.114 323.899 300.482C319.801 299.849 315.966 302.659 315.333 306.757Z" fill="url(#paint32_linear_2647_7335)"/>
</g>
<mask id="mask6_2647_7335" style="mask-type:luminance" maskUnits="userSpaceOnUse" x="309" y="303" width="25" height="14">
<path d="M309.465 314.39C309.465 314.39 312.141 304.884 321.996 304.038C331.853 303.191 333.576 312.39 333.576 312.39C333.576 312.39 331.155 315.96 325.151 316.689C319.147 317.419 312.975 316.521 309.465 314.39Z" fill="white"/>
</mask>
<g mask="url(#mask6_2647_7335)">
<g style="mix-blend-mode:multiply">
<path d="M322.052 312.45C324.564 312.838 326.915 311.116 327.302 308.604C327.69 306.092 325.968 303.742 323.456 303.354C320.944 302.967 318.594 304.689 318.206 307.2C317.819 309.712 319.541 312.063 322.052 312.45Z" fill="url(#paint33_linear_2647_7335)"/>
</g>
</g>
</g>
<g style="mix-blend-mode:multiply" opacity="0.6">
<path d="M333.489 312.018C331.651 310.087 328.216 307.919 323.079 307.126C316.728 306.146 311.057 310.993 310.761 311.456C312.386 308.588 315.75 304.574 321.996 304.036C330.658 303.295 333.038 310.309 333.489 312.018Z" fill="#D077B7"/>
</g>
<path d="M311.798 309.845C311.798 309.845 313.433 302.262 320.733 300.463C329.857 298.213 332.783 310.076 332.783 310.076C332.783 310.076 324.213 296.837 311.798 309.845Z" fill="#DC4C6A"/>
<path d="M312.914 315.862C313.598 316.052 325.265 315.95 332.328 313.702C332.519 313.641 329.305 317.106 324.096 317.557C316.956 318.175 312.914 315.862 312.914 315.862Z" fill="#DC6B7C"/>
<path d="M310.758 311.464C310.758 311.464 308.287 313.898 308.397 314.696C308.509 315.494 311.318 315.307 311.318 315.307C311.318 315.307 309.944 314.296 310.033 313.811C310.121 313.329 310.758 311.464 310.758 311.464Z" fill="#E08A97"/>
<path d="M333.332 311.484C333.332 311.484 333.188 307.871 332.586 306.712C331.984 305.554 327.541 302.667 321.998 302.664C316.454 302.66 312.848 307.672 311.013 311.03C311.013 311.03 316.783 303.706 323.909 304.946C331.034 306.188 333.332 311.484 333.332 311.484Z" fill="#4E1B3D"/>
<path d="M328.588 308.557C328.299 308.767 332.085 310.515 332.356 310.132C332.629 309.747 329.229 308.09 328.588 308.557Z" fill="white"/>
<path d="M325.804 307.38C325.547 307.421 325.386 308.135 325.692 308.109C325.997 308.084 326.556 308.141 326.596 307.878C326.638 307.616 326.15 307.328 325.804 307.38Z" fill="white"/>
<path d="M266.343 302.032C266.343 302.032 267.573 306.166 273.078 308.673C278.582 311.18 284.738 312.183 288.729 311.209C288.729 311.209 288.771 309.888 288.377 308.027C288.377 308.026 288.376 308.023 288.376 308.021C287.692 304.797 285.695 299.955 279.902 297.56C271.866 294.241 267.482 300.21 266.536 301.705C266.408 301.912 266.343 302.032 266.343 302.032Z" fill="url(#paint34_linear_2647_7335)"/>
<mask id="mask7_2647_7335" style="mask-type:luminance" maskUnits="userSpaceOnUse" x="266" y="296" width="23" height="16">
<path d="M288.729 311.209C288.729 311.209 289.043 301.339 279.902 297.561C270.759 293.782 266.343 302.034 266.343 302.034C266.343 302.034 267.574 306.167 273.079 308.673C278.583 311.178 284.739 312.181 288.729 311.209Z" fill="white"/>
</mask>
<g mask="url(#mask7_2647_7335)">
<mask id="mask8_2647_7335" style="mask-type:luminance" maskUnits="userSpaceOnUse" x="267" y="295" width="23" height="16">
<path d="M289.833 310.105C289.833 310.105 290.146 300.235 281.005 296.457C271.862 292.678 267.446 300.929 267.446 300.929C267.446 300.929 268.678 305.063 274.183 307.569C279.686 310.074 285.842 311.077 289.833 310.105Z" fill="white"/>
</mask>
<g mask="url(#mask8_2647_7335)">
<path d="M279.644 309.693C284.097 310.38 288.264 307.327 288.951 302.874C289.638 298.422 286.586 294.255 282.133 293.568C277.68 292.88 273.513 295.933 272.826 300.386C272.139 304.839 275.191 309.005 279.644 309.693Z" fill="url(#paint35_linear_2647_7335)"/>
</g>
<mask id="mask9_2647_7335" style="mask-type:luminance" maskUnits="userSpaceOnUse" x="267" y="295" width="23" height="16">
<path d="M289.833 310.105C289.833 310.105 290.146 300.235 281.005 296.457C271.862 292.678 267.446 300.929 267.446 300.929C267.446 300.929 268.678 305.063 274.183 307.569C279.686 310.074 285.842 311.077 289.833 310.105Z" fill="white"/>
</mask>
<g mask="url(#mask9_2647_7335)">
<path d="M288.308 302.775C287.676 306.874 283.841 309.682 279.744 309.049C275.645 308.417 272.836 304.582 273.468 300.485C274.101 296.386 277.936 293.577 282.034 294.209C286.132 294.843 288.941 298.677 288.308 302.775Z" fill="url(#paint36_linear_2647_7335)"/>
</g>
<mask id="mask10_2647_7335" style="mask-type:luminance" maskUnits="userSpaceOnUse" x="266" y="296" width="23" height="16">
<path d="M288.729 311.209C288.729 311.209 289.043 301.339 279.902 297.561C270.759 293.782 266.343 302.034 266.343 302.034C266.343 302.034 267.574 306.167 273.079 308.673C278.583 311.178 284.739 312.181 288.729 311.209Z" fill="white"/>
</mask>
<g mask="url(#mask10_2647_7335)">
<g style="mix-blend-mode:multiply">
<path d="M285.437 302.332C285.049 304.844 282.699 306.566 280.187 306.178C277.675 305.79 275.953 303.44 276.341 300.928C276.729 298.416 279.079 296.694 281.591 297.082C284.103 297.469 285.825 299.82 285.437 302.332Z" fill="url(#paint37_linear_2647_7335)"/>
</g>
</g>
</g>
<g style="mix-blend-mode:multiply" opacity="0.6">
<path d="M266.535 301.705C268.87 300.418 272.798 299.387 277.935 300.179C284.287 301.16 288.232 307.491 288.375 308.021C287.69 304.797 285.693 299.955 279.9 297.559C271.865 294.24 267.482 300.21 266.535 301.705Z" fill="#D077B7"/>
</g>
<path d="M287.872 306.172C287.872 306.172 288.6 298.449 282.182 294.533C274.16 289.637 267.795 300.066 267.795 300.066C267.795 300.066 279.958 290.027 287.872 306.172Z" fill="#DC4C6A"/>
<path d="M284.995 311.572C284.286 311.547 273.192 307.932 267.135 303.66C266.971 303.543 268.991 307.817 273.822 309.817C280.445 312.56 284.995 311.572 284.995 311.572Z" fill="#DC6B7C"/>
<path d="M288.377 308.028C288.377 308.028 289.999 311.094 289.653 311.822C289.306 312.549 286.684 311.524 286.684 311.524C286.684 311.524 288.299 310.974 288.361 310.485C288.422 309.998 288.377 308.028 288.377 308.028Z" fill="#E08A97"/>
<path d="M266.849 301.242C266.849 301.242 268.074 297.84 268.998 296.917C269.922 295.994 275.028 294.581 280.314 296.249C285.601 297.917 287.528 303.782 288.266 307.538C288.266 307.538 284.972 298.815 277.804 297.849C270.636 296.887 266.849 301.242 266.849 301.242Z" fill="#4E1B3D"/>
<path d="M275.13 300.496C275.342 300.783 271.205 301.309 271.062 300.861C270.918 300.413 274.661 299.857 275.13 300.496Z" fill="white"/>
<path d="M278.137 300.214C278.371 300.329 278.308 301.059 278.025 300.943C277.742 300.826 277.192 300.713 277.232 300.45C277.273 300.186 277.824 300.059 278.137 300.214Z" fill="white"/>
<g style="mix-blend-mode:multiply" opacity="0.6">
<path d="M304.062 340.509C301.035 342.117 297.808 344.383 294.098 344.09C290.388 343.798 287.154 339.906 284.949 337.151C289.343 341.928 298.262 343.632 304.062 340.509Z" fill="#CE77B5"/>
</g>
<path d="M309.908 338.227C307.069 340.451 301.275 342.945 294.257 341.829C286.996 340.675 281.463 336.026 279.442 333.009C279.442 333.009 289.503 336.348 294.056 338.963C299.309 337.838 309.908 338.227 309.908 338.227Z" fill="#FF6563"/>
<g style="mix-blend-mode:multiply" opacity="0.6">
<path d="M302.889 339.557C298.617 341.77 290.849 341.1 286.475 336.934L302.721 339.197L302.889 339.557Z" fill="#CE77B5"/>
</g>
<path d="M278.557 332.555C278.795 332.911 287.357 338.328 294.22 339.424C301.694 340.615 310.446 338.291 311.123 337.76C307.404 338.177 300.319 337.61 295.843 336.868C295.453 336.803 295.04 336.733 294.626 336.658C293.156 336.391 291.645 336.177 290.168 335.909C286.314 335.206 282.122 334.047 278.557 332.555Z" fill="#812751"/>
<path d="M286.878 332.905C290.528 332.427 299.951 333.929 303.249 335.54C306.547 337.15 306.552 336.989 309.741 337.865C305.116 338.397 299.699 337.69 294.632 336.657C289.434 335.891 285.19 335.352 279.725 333.024C283.053 333.127 283.229 333.383 286.878 332.905Z" fill="#D93F57"/>
<path d="M282.778 334.18C286.34 337.374 290.086 338.766 294.513 339.47C298.335 340.121 302.221 339.769 305.868 338.521C306.281 338.38 306.693 338.215 307.104 338.034C302.946 337.972 298.745 337.367 294.68 336.656C290.769 335.973 286.982 335.5 283.214 334.32C283.207 334.318 283.202 334.314 283.202 334.314C283.06 334.273 282.919 334.227 282.778 334.18Z" fill="#FFDDEB"/>
<path d="M280.388 331.674C279.007 332.463 277.887 333.316 276.976 334.613C277.266 333.512 277.716 331.968 278.569 331.281C279.424 330.594 279.746 331.256 280.388 331.674Z" fill="#DA6B7C"/>
<path d="M309.621 336.333C310.707 337.495 311.481 338.669 311.946 340.18C312.015 339.042 312.07 337.456 311.476 336.534C310.883 335.609 310.369 336.132 309.621 336.333Z" fill="#DA6B7C"/>
<path d="M289.324 338.642C288.595 339.111 288.625 339.109 288.136 339.823C287.896 339.659 287.66 339.492 287.421 339.325C287.623 338.522 287.615 338.559 288.225 338.051C288.574 338.22 288.972 338.473 289.324 338.642Z" fill="#FFDDEB"/>
<g style="mix-blend-mode:multiply" opacity="0.6">
<path d="M283.214 334.32C283.573 334.456 291.351 337.361 305.868 338.521C306.281 338.38 306.693 338.215 307.104 338.034C302.946 337.972 298.745 337.367 294.68 336.656C290.769 335.973 286.982 335.497 283.214 334.32Z" fill="#CE77B5"/>
</g>
<path d="M349.984 302.025C347.999 301.866 346.474 300.589 346.474 300.589C347.208 308.787 344.57 313.208 342.064 315.276C340.996 316.164 339.951 316.618 339.205 316.754C339.03 316.79 338.87 316.801 338.732 316.803C338.732 316.803 335.392 315.63 328.372 302.417C317.264 298.058 307.537 291.766 307.237 291.571C307.792 292.238 308.282 293.119 308.672 293.985C309.407 295.601 309.801 297.165 309.656 297.147C306.13 296.747 300.493 292.892 300.493 292.892C300.493 292.892 292.594 291.225 286.564 283.911C282.715 279.245 281.262 268.901 280.717 262.026C280.665 261.377 280.621 260.762 280.584 260.184C269.476 268.035 265.154 283.493 263.406 294.819C263.29 295.57 263.189 296.373 263.098 297.215C262.106 306.627 262.688 320.631 261.099 320.368C255.248 319.412 254.248 306.784 254.248 306.784C254.248 306.784 252.932 304.787 251.829 301.44C250.644 297.834 249.708 292.661 250.931 286.738C253.288 275.318 260.92 263.553 260.92 263.553C269.403 254.008 281.282 249.515 281.282 249.515C281.282 249.515 286.522 244.32 293.377 241.324L293.381 241.325C297.037 239.725 301.152 238.752 305.178 239.531C312.19 240.885 321.872 247.141 330.161 255.1L330.165 255.101C335.57 260.288 340.38 266.197 343.463 271.939C346.518 277.627 348.283 282.768 349.271 287.126L349.274 287.131C351.357 296.317 349.984 302.025 349.984 302.025Z" fill="url(#paint38_linear_2647_7335)"/>
<g style="mix-blend-mode:multiply" opacity="0.9">
<path d="M343.465 271.938C340.382 266.196 319.66 249.86 304.525 247.733C290.987 245.83 293.379 241.325 293.379 241.325C286.523 244.32 281.284 249.515 281.284 249.515C281.284 249.515 281.583 253.27 280.931 258.059C280.908 258.045 278.494 256.58 272.658 264.103C266.794 271.663 263.676 287.023 263.127 296.151C263.106 296.524 263.095 296.876 263.102 297.216C263.191 296.375 263.293 295.573 263.41 294.821C265.158 283.493 269.481 268.037 280.588 260.186C280.604 260.428 280.62 260.677 280.638 260.931C280.645 261.041 280.654 261.153 280.662 261.266C280.679 261.508 280.699 261.753 280.718 262.004C280.718 262.012 280.718 262.02 280.72 262.027C281.267 268.903 282.719 279.246 286.567 283.914C292.597 291.229 300.496 292.895 300.496 292.895C300.496 292.895 287.949 281.716 286.782 263.192C286.782 263.192 291.333 275.73 307.241 291.573C307.542 291.768 317.268 298.06 328.375 302.419C328.375 302.419 316.201 273.548 285.891 253.507C285.891 253.507 296.221 250.74 318.628 262.661C342.908 275.58 346.477 300.591 346.477 300.591C346.477 300.591 348.003 301.869 349.987 302.027C349.984 302.025 352.967 289.622 343.465 271.938Z" fill="#D077B7"/>
</g>
<g style="mix-blend-mode:multiply" opacity="0.9">
<path d="M254.248 306.782C254.248 306.782 252.932 304.786 251.829 301.438C251.834 301.434 251.834 301.434 251.834 301.434C251.834 301.434 255.299 278.722 270.334 262.476C270.334 262.476 257.368 285.382 254.248 306.782Z" fill="#D077B7"/>
</g>
<g style="mix-blend-mode:multiply" opacity="0.9">
<path d="M349.984 302.025C348 301.866 346.474 300.589 346.474 300.589C347.208 308.787 344.57 313.208 342.064 315.276C340.996 316.164 339.951 316.618 339.205 316.754C343.252 312.767 343.077 305.259 342.882 302.119C341.596 281.483 318.625 262.66 318.625 262.66C318.625 262.66 334.48 269.357 345.811 283.157C351.789 290.437 349.984 302.025 349.984 302.025Z" fill="#D077B7"/>
</g>
<g style="mix-blend-mode:multiply" opacity="0.9">
<path d="M292.525 258.241C292.525 258.241 318.839 269.963 328.15 284.039C338.999 300.439 338.087 314.355 338.087 314.355C338.087 314.355 328.82 289.577 319.446 280.012C305.932 266.223 292.525 258.241 292.525 258.241Z" fill="#D077B7"/>
</g>
<path d="M308.564 257.901C308.564 257.901 310.401 258.931 310.076 262.011C309.749 265.092 305.414 265.005 305.414 265.005C305.414 265.005 311.263 268.532 313.898 270.466C313.898 270.466 320.286 267.837 318.625 262.66L308.564 257.901Z" fill="#FFD3DF"/>
<path d="M262.231 253.566C266.221 257.238 266.99 260.955 266.99 260.955C266.99 260.955 266.652 266.048 264.439 269.509C264.439 269.509 266.518 265.691 264.233 261.536C261.948 257.381 256.865 260.539 256.865 260.539L262.231 253.566Z" fill="#FFD3DF"/>
<path d="M312.94 239.047C312.94 239.047 319.137 243.758 325.562 247.657C325.562 247.657 329.359 252.774 322.191 254.532C322.191 254.532 316.732 251.258 310.618 249.217C310.618 249.217 321.488 252.812 320.717 249.115C319.727 244.369 313.915 243.306 312.94 239.047Z" fill="#FFD3DF"/>
</g>
<mask id="mask11_2647_7335" style="mask-type:luminance" maskUnits="userSpaceOnUse" x="231" y="219" width="144" height="144">
<path d="M373.63 300.964C372.931 308.006 371.324 314.981 368.803 321.705C367.745 324.527 366.526 327.308 365.146 330.029C353.893 344.39 338.846 354.679 322.363 359.624C313.892 362.164 305.044 363.296 296.131 362.84C270.615 361.54 249.287 347.435 237.615 324.144C229.566 308.081 228.862 289.197 235.635 270.967C243.156 250.721 259.114 233.856 278.322 225.853C307.202 213.822 333.088 218.871 355.423 240.844C369.634 258.11 375.729 279.822 373.63 300.964Z" fill="white"/>
</mask>
<g mask="url(#mask11_2647_7335)">
<path opacity="0.1" d="M373.63 300.964C372.931 308.006 371.324 314.981 368.803 321.705C367.745 324.527 366.526 327.308 365.146 330.029C353.893 344.39 338.846 354.679 322.363 359.624C313.892 362.164 305.044 363.296 296.131 362.84C270.615 361.54 249.287 347.435 237.615 324.144C229.566 308.081 228.862 289.197 235.635 270.967C243.156 250.721 259.114 233.856 278.322 225.853C307.202 213.822 333.088 218.871 355.423 240.844C369.634 258.11 375.729 279.822 373.63 300.964Z" fill="#371A45"/>
</g>
<mask id="mask12_2647_7335" style="mask-type:luminance" maskUnits="userSpaceOnUse" x="231" y="219" width="144" height="144">
<path d="M373.63 300.964C372.931 308.006 371.324 314.981 368.803 321.705C367.745 324.527 366.526 327.308 365.146 330.029C353.893 344.39 338.846 354.679 322.363 359.624C313.892 362.164 305.044 363.296 296.131 362.84C270.615 361.54 249.287 347.435 237.615 324.144C229.566 308.081 228.862 289.197 235.635 270.967C243.156 250.721 259.114 233.856 278.322 225.853C307.202 213.822 333.088 218.871 355.423 240.844C369.634 258.11 375.729 279.822 373.63 300.964Z" fill="white"/>
</mask>
<g mask="url(#mask12_2647_7335)">
<g opacity="0.1">
<path d="M239.247 323.329C265.552 375.832 336.788 372.052 368.8 321.708L369.346 319.955C323.183 349.783 260.849 341.338 233.248 288.747C231.972 300.39 233.727 312.304 239.247 323.329Z" fill="#220F30"/>
</g>
</g>
<mask id="mask13_2647_7335" style="mask-type:luminance" maskUnits="userSpaceOnUse" x="231" y="219" width="144" height="144">
<path d="M373.63 300.964C372.931 308.006 371.324 314.981 368.803 321.705C367.745 324.527 366.526 327.308 365.146 330.029C353.893 344.39 338.846 354.679 322.363 359.624C313.892 362.164 305.044 363.296 296.131 362.84C270.615 361.54 249.287 347.435 237.615 324.144C229.566 308.081 228.862 289.197 235.635 270.967C243.156 250.721 259.114 233.856 278.322 225.853C307.202 213.822 333.088 218.871 355.423 240.844C369.634 258.11 375.729 279.822 373.63 300.964Z" fill="white"/>
</mask>
<g mask="url(#mask13_2647_7335)">
<g opacity="0.5">
<path d="M243.191 296.298C242.414 289.209 246.784 282.913 252.953 282.236C259.122 281.559 264.753 286.758 265.53 293.847C266.308 300.937 261.937 307.233 255.768 307.909C249.599 308.586 243.968 303.388 243.191 296.298Z" fill="white"/>
</g>
</g>
<mask id="mask14_2647_7335" style="mask-type:luminance" maskUnits="userSpaceOnUse" x="231" y="219" width="144" height="144">
<path d="M373.63 300.964C372.931 308.006 371.324 314.981 368.803 321.705C367.745 324.527 366.526 327.308 365.146 330.029C353.893 344.39 338.846 354.679 322.363 359.624C313.892 362.164 305.044 363.296 296.131 362.84C270.615 361.54 249.287 347.435 237.615 324.144C229.566 308.081 228.862 289.197 235.635 270.967C243.156 250.721 259.114 233.856 278.322 225.853C307.202 213.822 333.088 218.871 355.423 240.844C369.634 258.11 375.729 279.822 373.63 300.964Z" fill="white"/>
</mask>
<g mask="url(#mask14_2647_7335)">
<g opacity="0.5">
<path d="M252.459 318.431C252.412 315.486 254.449 313.065 257.01 313.023C259.571 312.982 261.686 315.336 261.734 318.281C261.782 321.226 259.744 323.647 257.183 323.689C254.622 323.73 252.507 321.376 252.459 318.431Z" fill="white"/>
</g>
</g>
<mask id="mask15_2647_7335" style="mask-type:luminance" maskUnits="userSpaceOnUse" x="231" y="219" width="144" height="144">
<path d="M373.63 300.964C372.931 308.006 371.324 314.981 368.803 321.705C367.745 324.527 366.526 327.308 365.146 330.029C353.893 344.39 338.846 354.679 322.363 359.624C313.892 362.164 305.044 363.296 296.131 362.84C270.615 361.54 249.287 347.435 237.615 324.144C229.566 308.081 228.862 289.197 235.635 270.967C243.156 250.721 259.114 233.856 278.322 225.853C307.202 213.822 333.088 218.871 355.423 240.844C369.634 258.11 375.729 279.822 373.63 300.964Z" fill="white"/>
</mask>
<g mask="url(#mask15_2647_7335)">
<g opacity="0.5">
<path d="M295.041 232.127C329.553 224.339 359.802 251.84 365.188 287.248C347.11 257.238 322.291 238.553 295.041 232.127Z" fill="white"/>
</g>
</g>
<path d="M206.137 333.659C211.626 349.063 225.459 358.726 237.041 355.236C248.622 351.746 253.558 336.424 248.068 321.019C248.035 320.92 247.996 320.819 247.96 320.724C242.403 305.49 228.663 295.975 217.167 299.442C208.223 302.137 203.241 311.895 203.965 323.295C204.18 326.65 204.889 330.156 206.137 333.659Z" fill="url(#paint39_linear_2647_7335)"/>
<path d="M303.19 459.385L305.91 459.83L310.812 435.985L323.796 431.309L328.535 407.467L325.818 407.021L321.348 429.43L308.315 434.261L303.19 459.385Z" fill="#0876E4"/>
<path fill-rule="evenodd" clip-rule="evenodd" d="M282.448 415.397L291.237 412.332C292.339 411.946 293.563 412.192 294.433 412.971L301.372 419.177C302.218 419.933 302.601 421.08 302.378 422.193L300.489 431.664C300.266 432.777 299.474 433.689 298.4 434.062L289.611 437.127C288.509 437.513 287.285 437.267 286.415 436.487L279.477 430.282C278.63 429.525 278.247 428.379 278.47 427.265L280.359 417.795C280.582 416.684 281.376 415.77 282.448 415.397ZM290.53 410.312C292.368 409.67 294.407 410.079 295.859 411.376L302.798 417.582C304.208 418.843 304.845 420.756 304.475 422.61L302.585 432.081C302.215 433.935 300.893 435.454 299.107 436.078L290.318 439.144C288.48 439.786 286.441 439.377 284.989 438.08L278.051 431.874C276.64 430.613 276.003 428.7 276.374 426.846L278.263 417.375C278.633 415.521 279.955 414.002 281.741 413.378L290.53 410.312Z" fill="#0876E4"/>
<path fill-rule="evenodd" clip-rule="evenodd" d="M291.64 417.58C294.052 418.061 295.618 420.407 295.139 422.817C295.056 423.234 294.653 423.504 294.236 423.421C293.819 423.338 293.55 422.934 293.633 422.517C293.949 420.938 292.921 419.4 291.342 419.084C289.761 418.768 288.224 419.793 287.908 421.373L287.639 422.727L294.42 424.081C295.168 424.231 295.654 424.959 295.504 425.707L294.722 429.621C294.474 430.869 293.26 431.677 292.013 431.429L285.988 430.225C284.74 429.976 283.93 428.762 284.179 427.517L284.96 423.602C285.077 423.012 285.556 422.584 286.12 422.504L286.404 421.072C286.881 418.662 289.228 417.098 291.64 417.58ZM286.58 424.083C286.583 424.083 286.583 424.083 286.58 424.083C286.583 424.086 286.583 424.086 286.58 424.083L293.964 425.557L293.214 429.321C293.131 429.738 292.727 430.007 292.31 429.924L286.285 428.72C285.869 428.638 285.6 428.234 285.682 427.817L286.433 424.052L286.58 424.083ZM289.867 426.463C290.201 426.53 290.416 426.854 290.349 427.185C290.281 427.517 289.958 427.734 289.627 427.667C289.293 427.599 289.078 427.276 289.145 426.944C289.213 426.613 289.536 426.395 289.867 426.463ZM290.952 427.307C291.084 426.641 290.651 425.994 289.986 425.862C289.321 425.73 288.674 426.16 288.54 426.825C288.408 427.491 288.84 428.138 289.505 428.27C290.173 428.402 290.82 427.97 290.952 427.307Z" fill="#0876E4"/>
<path d="M392.889 331.46C392.889 331.46 397.141 332.175 401.883 331.206C406.942 330.176 410.667 325.643 413.086 320.19C416.011 313.591 417.028 305.65 416.184 300.917C414.321 290.468 408.092 290.468 408.092 290.468C404.794 302.377 394.416 295.25 394.416 295.25C394.416 295.25 385.557 295.571 382.804 312.092C380.047 328.615 392.889 331.46 392.889 331.46Z" fill="url(#paint40_linear_2647_7335)"/>
<path d="M253.376 492.243C257.351 498.475 263.221 502.78 269.453 505.75L291.809 486.324C291.809 486.324 275.638 484.155 264.06 480.962C264.005 481.048 263.951 481.133 263.896 481.219C261.12 485.561 258.793 486.876 255.754 489.77C255.219 490.278 254.662 490.834 254.075 491.469C253.847 491.715 253.614 491.974 253.376 492.243Z" fill="url(#paint41_linear_2647_7335)"/>
</g>
</g>
<defs>
<filter id="filter0_f_2647_7335" x="-407" y="148" width="1317" height="1317" filterUnits="userSpaceOnUse" color-interpolation-filters="sRGB">
<feFlood flood-opacity="0" result="BackgroundImageFix"/>
<feBlend mode="normal" in="SourceGraphic" in2="BackgroundImageFix" result="shape"/>
<feGaussianBlur stdDeviation="100" result="effect1_foregroundBlur_2647_7335"/>
</filter>
<filter id="filter1_f_2647_7335" x="155" y="-326" width="1453" height="1453" filterUnits="userSpaceOnUse" color-interpolation-filters="sRGB">
<feFlood flood-opacity="0" result="BackgroundImageFix"/>
<feBlend mode="normal" in="SourceGraphic" in2="BackgroundImageFix" result="shape"/>
<feGaussianBlur stdDeviation="100" result="effect1_foregroundBlur_2647_7335"/>
</filter>
<filter id="filter2_f_2647_7335" x="-240" y="-760" width="1453" height="1453" filterUnits="userSpaceOnUse" color-interpolation-filters="sRGB">
<feFlood flood-opacity="0" result="BackgroundImageFix"/>
<feBlend mode="normal" in="SourceGraphic" in2="BackgroundImageFix" result="shape"/>
<feGaussianBlur stdDeviation="100" result="effect1_foregroundBlur_2647_7335"/>
</filter>
<filter id="filter3_d_2647_7335" x="45" y="162.087" width="615.137" height="652.222" filterUnits="userSpaceOnUse" color-interpolation-filters="sRGB">
<feFlood flood-opacity="0" result="BackgroundImageFix"/>
<feColorMatrix in="SourceAlpha" type="matrix" values="0 0 0 0 0 0 0 0 0 0 0 0 0 0 0 0 0 0 127 0" result="hardAlpha"/>
<feOffset dy="131"/>
<feGaussianBlur stdDeviation="67.5"/>
<feComposite in2="hardAlpha" operator="out"/>
<feColorMatrix type="matrix" values="0 0 0 0 0.283929 0 0 0 0 0.481548 0 0 0 0 0.679167 0 0 0 0.15 0"/>
<feBlend mode="normal" in2="BackgroundImageFix" result="effect1_dropShadow_2647_7335"/>
<feBlend mode="normal" in="SourceGraphic" in2="effect1_dropShadow_2647_7335" result="shape"/>
</filter>
<linearGradient id="paint0_linear_2647_7335" x1="262.219" y1="406.347" x2="190.203" y2="406.347" gradientUnits="userSpaceOnUse">
<stop stop-color="#84BCFD"/>
<stop offset="1" stop-color="#D0E5FD"/>
</linearGradient>
<linearGradient id="paint1_linear_2647_7335" x1="287.253" y1="522.506" x2="238.364" y2="522.506" gradientUnits="userSpaceOnUse">
<stop stop-color="#B4D6FE"/>
<stop offset="1" stop-color="#D0E5FD"/>
</linearGradient>
<linearGradient id="paint2_linear_2647_7335" x1="233.132" y1="506.104" x2="179.999" y2="506.104" gradientUnits="userSpaceOnUse">
<stop stop-color="#B4D6FE"/>
<stop offset="1" stop-color="#D0E5FD"/>
</linearGradient>
<linearGradient id="paint3_linear_2647_7335" x1="406.604" y1="295.228" x2="386.187" y2="315.341" gradientUnits="userSpaceOnUse">
<stop stop-color="#B4D6FE"/>
<stop offset="1" stop-color="#D0E5FD"/>
</linearGradient>
<linearGradient id="paint4_linear_2647_7335" x1="287.633" y1="412.4" x2="261.574" y2="454.339" gradientUnits="userSpaceOnUse">
<stop stop-color="#B4D6FE"/>
<stop offset="1" stop-color="#D0E5FD"/>
</linearGradient>
<linearGradient id="paint5_linear_2647_7335" x1="345.473" y1="437.943" x2="325.429" y2="437.943" gradientUnits="userSpaceOnUse">
<stop stop-color="#9AC9FD"/>
<stop offset="1" stop-color="#D0E5FD"/>
</linearGradient>
<linearGradient id="paint6_linear_2647_7335" x1="340.903" y1="430.467" x2="254.56" y2="430.467" gradientUnits="userSpaceOnUse">
<stop stop-color="#84BCFD"/>
<stop offset="1" stop-color="#D0E5FD"/>
</linearGradient>
<linearGradient id="paint7_linear_2647_7335" x1="323.937" y1="430.465" x2="254.565" y2="430.465" gradientUnits="userSpaceOnUse">
<stop stop-color="#84BCFD"/>
<stop offset="1" stop-color="#D0E5FD"/>
</linearGradient>
<linearGradient id="paint8_linear_2647_7335" x1="269.291" y1="418.141" x2="217.462" y2="418.141" gradientUnits="userSpaceOnUse">
<stop stop-color="#9AC9FD"/>
<stop offset="1" stop-color="#D0E5FD"/>
</linearGradient>
<linearGradient id="paint9_linear_2647_7335" x1="242.517" y1="439.813" x2="199.12" y2="439.813" gradientUnits="userSpaceOnUse">
<stop stop-color="#84BCFD"/>
<stop offset="1" stop-color="#B4D6FE"/>
</linearGradient>
<linearGradient id="paint10_linear_2647_7335" x1="214.503" y1="397.03" x2="244.279" y2="386.554" gradientUnits="userSpaceOnUse">
<stop stop-color="#84BCFD"/>
<stop offset="1" stop-color="#B4D6FE"/>
</linearGradient>
<linearGradient id="paint11_linear_2647_7335" x1="209.578" y1="317.524" x2="370.682" y2="269.24" gradientUnits="userSpaceOnUse">
<stop stop-color="#9AC9FD"/>
<stop offset="1" stop-color="#D0E5FD"/>
</linearGradient>
<linearGradient id="paint12_linear_2647_7335" x1="307.887" y1="244.97" x2="298.674" y2="304.667" gradientUnits="userSpaceOnUse">
<stop stop-color="#5A365D"/>
<stop offset="1" stop-color="#5F1945"/>
</linearGradient>
<linearGradient id="paint13_linear_2647_7335" x1="289.299" y1="367.406" x2="286.381" y2="386.31" gradientUnits="userSpaceOnUse">
<stop stop-color="#9159D0"/>
<stop offset="1" stop-color="#963773"/>
</linearGradient>
<linearGradient id="paint14_linear_2647_7335" x1="248.721" y1="317.66" x2="253.168" y2="288.848" gradientUnits="userSpaceOnUse">
<stop stop-color="#FFB29C"/>
<stop offset="0.2186" stop-color="#FF9B8E"/>
<stop offset="0.479" stop-color="#FF8781"/>
<stop offset="0.7398" stop-color="#FF7B7A"/>
<stop offset="1" stop-color="#FF7777"/>
</linearGradient>
<linearGradient id="paint15_linear_2647_7335" x1="249.916" y1="312.132" x2="252.84" y2="293.189" gradientUnits="userSpaceOnUse">
<stop stop-color="#FFE9DA"/>
<stop offset="0.9944" stop-color="#D077F3"/>
</linearGradient>
<linearGradient id="paint16_linear_2647_7335" x1="256.008" y1="311.973" x2="257.264" y2="303.832" gradientUnits="userSpaceOnUse">
<stop stop-color="#FFE9DA"/>
<stop offset="0.9944" stop-color="#D077F3"/>
</linearGradient>
<linearGradient id="paint17_linear_2647_7335" x1="344.61" y1="332.459" x2="349.057" y2="303.647" gradientUnits="userSpaceOnUse">
<stop stop-color="#FFB29C"/>
<stop offset="0.2186" stop-color="#FF9B8E"/>
<stop offset="0.479" stop-color="#FF8781"/>
<stop offset="0.7398" stop-color="#FF7B7A"/>
<stop offset="1" stop-color="#FF7777"/>
</linearGradient>
<linearGradient id="paint18_linear_2647_7335" x1="345.138" y1="326.828" x2="348.062" y2="307.884" gradientUnits="userSpaceOnUse">
<stop stop-color="#FFE9DA"/>
<stop offset="0.9944" stop-color="#D077F3"/>
</linearGradient>
<linearGradient id="paint19_linear_2647_7335" x1="339.377" y1="324.84" x2="340.634" y2="316.699" gradientUnits="userSpaceOnUse">
<stop stop-color="#FFE9DA"/>
<stop offset="0.9944" stop-color="#D077F3"/>
</linearGradient>
<linearGradient id="paint20_linear_2647_7335" x1="288.97" y1="375.283" x2="293.295" y2="347.255" gradientUnits="userSpaceOnUse">
<stop stop-color="#FFB29C"/>
<stop offset="0.2186" stop-color="#FF9B8E"/>
<stop offset="0.479" stop-color="#FF8781"/>
<stop offset="0.7398" stop-color="#FF7B7A"/>
<stop offset="1" stop-color="#FF7777"/>
</linearGradient>
<linearGradient id="paint21_linear_2647_7335" x1="292.296" y1="352.913" x2="308.33" y2="249.022" gradientUnits="userSpaceOnUse">
<stop stop-color="#FFA995"/>
<stop offset="0.4274" stop-color="#F8AA98"/>
<stop offset="0.5417" stop-color="#FBA28F"/>
<stop offset="0.771" stop-color="#FE9883"/>
<stop offset="1" stop-color="#FF957F"/>
</linearGradient>
<linearGradient id="paint22_linear_2647_7335" x1="292.297" y1="352.913" x2="297.772" y2="317.436" gradientUnits="userSpaceOnUse">
<stop offset="0.005587" stop-color="#D077F3"/>
<stop offset="0.1573" stop-color="#D480F1"/>
<stop offset="0.4008" stop-color="#DD97EC"/>
<stop offset="0.7036" stop-color="#EDBDE4"/>
<stop offset="1" stop-color="#FFE9DA"/>
</linearGradient>
<linearGradient id="paint23_linear_2647_7335" x1="280.206" y1="280.925" x2="279.262" y2="287.039" gradientUnits="userSpaceOnUse">
<stop stop-color="#5A365D"/>
<stop offset="1" stop-color="#5F1945"/>
</linearGradient>
<linearGradient id="paint24_linear_2647_7335" x1="325.769" y1="287.957" x2="324.825" y2="294.071" gradientUnits="userSpaceOnUse">
<stop stop-color="#5A365D"/>
<stop offset="1" stop-color="#5F1945"/>
</linearGradient>
<linearGradient id="paint25_linear_2647_7335" x1="296.248" y1="325.822" x2="298.198" y2="313.186" gradientUnits="userSpaceOnUse">
<stop stop-color="#F87A7E"/>
<stop offset="0.0566" stop-color="#F97C7E"/>
<stop offset="0.5286" stop-color="#FD887F"/>
<stop offset="1" stop-color="#FF8C7F"/>
</linearGradient>
<linearGradient id="paint26_linear_2647_7335" x1="288.244" y1="323.697" x2="291.145" y2="324.144" gradientUnits="userSpaceOnUse">
<stop stop-color="#77254B"/>
<stop offset="1" stop-color="#8D2542"/>
</linearGradient>
<linearGradient id="paint27_linear_2647_7335" x1="304.431" y1="326.195" x2="301.53" y2="325.747" gradientUnits="userSpaceOnUse">
<stop stop-color="#77254B"/>
<stop offset="1" stop-color="#8D2542"/>
</linearGradient>
<linearGradient id="paint28_linear_2647_7335" x1="289.552" y1="319.806" x2="290.127" y2="316.077" gradientUnits="userSpaceOnUse">
<stop stop-color="#FFE9DA"/>
<stop offset="0.9944" stop-color="#D077F3"/>
</linearGradient>
<linearGradient id="paint29_linear_2647_7335" x1="304.36" y1="322.092" x2="304.935" y2="318.363" gradientUnits="userSpaceOnUse">
<stop stop-color="#FFE9DA"/>
<stop offset="0.9944" stop-color="#D077F3"/>
</linearGradient>
<linearGradient id="paint30_linear_2647_7335" x1="320.914" y1="317.314" x2="323" y2="303.793" gradientUnits="userSpaceOnUse">
<stop stop-color="#EDE1FF"/>
<stop offset="0.996" stop-color="#BCC8FA"/>
</linearGradient>
<linearGradient id="paint31_linear_2647_7335" x1="330.816" y1="309.146" x2="314.691" y2="306.657" gradientUnits="userSpaceOnUse">
<stop stop-color="#72791A"/>
<stop offset="1" stop-color="#594A0B"/>
</linearGradient>
<linearGradient id="paint32_linear_2647_7335" x1="321.939" y1="313.185" x2="323.712" y2="301.696" gradientUnits="userSpaceOnUse">
<stop stop-color="#A58C18"/>
<stop offset="1" stop-color="#402F40"/>
</linearGradient>
<linearGradient id="paint33_linear_2647_7335" x1="322.255" y1="311.14" x2="323.342" y2="304.098" gradientUnits="userSpaceOnUse">
<stop stop-color="#72791A"/>
<stop offset="1" stop-color="#594A0B"/>
</linearGradient>
<linearGradient id="paint34_linear_2647_7335" x1="276.931" y1="310.546" x2="279.017" y2="297.024" gradientUnits="userSpaceOnUse">
<stop stop-color="#EDE1FF"/>
<stop offset="0.996" stop-color="#BCC8FA"/>
</linearGradient>
<linearGradient id="paint35_linear_2647_7335" x1="272.826" y1="300.386" x2="288.951" y2="302.875" gradientUnits="userSpaceOnUse">
<stop stop-color="#72791A"/>
<stop offset="1" stop-color="#594A0B"/>
</linearGradient>
<linearGradient id="paint36_linear_2647_7335" x1="280.073" y1="306.913" x2="281.846" y2="295.424" gradientUnits="userSpaceOnUse">
<stop stop-color="#A58C18"/>
<stop offset="1" stop-color="#402F40"/>
</linearGradient>
<linearGradient id="paint37_linear_2647_7335" x1="280.389" y1="304.868" x2="281.476" y2="297.826" gradientUnits="userSpaceOnUse">
<stop stop-color="#72791A"/>
<stop offset="1" stop-color="#594A0B"/>
</linearGradient>
<linearGradient id="paint38_linear_2647_7335" x1="308.072" y1="244.999" x2="298.859" y2="304.696" gradientUnits="userSpaceOnUse">
<stop stop-color="#5A365D"/>
<stop offset="1" stop-color="#5F1945"/>
</linearGradient>
<linearGradient id="paint39_linear_2647_7335" x1="206.194" y1="333.703" x2="248.246" y2="321.099" gradientUnits="userSpaceOnUse">
<stop stop-color="#9AC9FD"/>
<stop offset="1" stop-color="#D0E5FD"/>
</linearGradient>
<linearGradient id="paint40_linear_2647_7335" x1="394.895" y1="330.653" x2="400.371" y2="306.982" gradientUnits="userSpaceOnUse">
<stop stop-color="#84BCFD"/>
<stop offset="1" stop-color="#B4D6FE"/>
</linearGradient>
<linearGradient id="paint41_linear_2647_7335" x1="260.309" y1="486.582" x2="273.151" y2="492.552" gradientUnits="userSpaceOnUse">
<stop stop-color="#B4D6FE"/>
<stop offset="1" stop-color="#D0E5FD"/>
</linearGradient>
</defs>
</svg>
