<svg width="705" height="713" viewBox="0 0 705 713" fill="none" xmlns="http://www.w3.org/2000/svg">
<mask id="mask0_2576_8460" style="mask-type:alpha" maskUnits="userSpaceOnUse" x="0" y="0" width="705" height="713">
<rect width="705" height="713" fill="#D9D9D9"/>
<rect width="705" height="713" fill="#F0F8FF"/>
</mask>
<g mask="url(#mask0_2576_8460)">
<rect width="705" height="713" fill="#D9D9D9"/>
<rect width="705" height="713" fill="#F0F8FF"/>
<g opacity="0.1" filter="url(#filter0_f_2576_8460)">
<path d="M251.5 1265C504.723 1265 710 1059.72 710 806.5C710 553.277 504.723 348 251.5 348C-1.72252 348 -207 553.277 -207 806.5C-207 1059.72 -1.72252 1265 251.5 1265Z" fill="#92C8FF"/>
</g>
<g opacity="0.1" filter="url(#filter1_f_2576_8460)">
<path d="M881.5 927C1172.28 927 1408 691.278 1408 400.5C1408 109.722 1172.28 -126 881.5 -126C590.722 -126 355 109.722 355 400.5C355 691.278 590.722 927 881.5 927Z" fill="#FFD2DD"/>
</g>
<g opacity="0.1" filter="url(#filter2_f_2576_8460)">
<path d="M486.5 493C777.278 493 1013 257.278 1013 -33.5C1013 -324.278 777.278 -560 486.5 -560C195.722 -560 -40 -324.278 -40 -33.5C-40 257.278 195.722 493 486.5 493Z" fill="#F9ECD3"/>
</g>
<circle cx="401.25" cy="145.09" r="2.70513" stroke="#053D75"/>
<path d="M401.25 142.205V139" stroke="#053D75" stroke-linecap="round"/>
<path d="M403.404 143.097L404.764 141.737" stroke="#053D75" stroke-linecap="round"/>
<path d="M404.295 145.25L407.5 145.25" stroke="#053D75" stroke-linecap="round"/>
<path d="M403.404 147.403L404.764 148.763" stroke="#053D75" stroke-linecap="round"/>
<path d="M401.25 151.5V148.295" stroke="#053D75" stroke-linecap="round"/>
<path d="M397.738 148.763L399.098 147.403" stroke="#053D75" stroke-linecap="round"/>
<path d="M395 145.25L398.205 145.25" stroke="#053D75" stroke-linecap="round"/>
<path d="M397.738 141.737L399.098 143.097" stroke="#053D75" stroke-linecap="round"/>
<circle cx="87.2501" cy="236.09" r="2.70513" stroke="#053D75"/>
<path d="M87.25 233.205V230" stroke="#053D75" stroke-linecap="round"/>
<path d="M89.4039 234.097L90.7637 232.737" stroke="#053D75" stroke-linecap="round"/>
<path d="M90.2949 236.25L93.5 236.25" stroke="#053D75" stroke-linecap="round"/>
<path d="M89.4039 238.403L90.7637 239.763" stroke="#053D75" stroke-linecap="round"/>
<path d="M87.25 242.5V239.295" stroke="#053D75" stroke-linecap="round"/>
<path d="M83.7378 239.763L85.0977 238.403" stroke="#053D75" stroke-linecap="round"/>
<path d="M80.9999 236.25L84.2051 236.25" stroke="#053D75" stroke-linecap="round"/>
<path d="M83.7378 232.737L85.0977 234.097" stroke="#053D75" stroke-linecap="round"/>
<circle cx="302.25" cy="428.09" r="2.70513" stroke="#053D75"/>
<path d="M302.25 425.205V422" stroke="#053D75" stroke-linecap="round"/>
<path d="M304.404 426.097L305.764 424.737" stroke="#053D75" stroke-linecap="round"/>
<path d="M305.295 428.25L308.5 428.25" stroke="#053D75" stroke-linecap="round"/>
<path d="M304.404 430.403L305.764 431.763" stroke="#053D75" stroke-linecap="round"/>
<path d="M302.25 434.5V431.295" stroke="#053D75" stroke-linecap="round"/>
<path d="M298.738 431.763L300.098 430.403" stroke="#053D75" stroke-linecap="round"/>
<path d="M296 428.25L299.205 428.25" stroke="#053D75" stroke-linecap="round"/>
<path d="M298.738 424.737L300.098 426.097" stroke="#053D75" stroke-linecap="round"/>
<path fill-rule="evenodd" clip-rule="evenodd" d="M523.208 907.853C522.485 908.922 521.73 909.96 520.944 910.997C520.189 912.035 519.403 913.041 518.586 914.047C517.957 914.865 517.297 915.651 516.637 916.437C515.693 917.569 514.719 918.7 513.713 919.801C512.769 920.87 511.795 921.939 510.789 922.945C509.908 923.888 508.996 924.8 508.053 925.712C506.324 927.472 504.532 929.139 502.708 930.805C488.371 943.822 471.865 954.26 457.999 967.906C452.843 972.999 446.051 974.477 438.537 973.565C429.293 972.433 419.987 971.962 411.058 976.049C406.341 978.218 401.216 979.79 395.934 979.382C388.766 978.816 384.113 982.337 381.283 988.217C376.787 997.523 370.687 1005.51 363.896 1013.28C357.419 1020.73 354.244 1030.41 350.156 1039.37C347.861 1044.43 345.88 1049.65 343.679 1054.75C339.844 1063.64 333.775 1070.5 324.752 1074.46C315.068 1078.7 305.07 1075.94 300.134 1066.66C288.06 1043.9 279.728 1020 279.414 993.845C279.382 989.191 279.854 984.507 278.974 979.885C277.779 973.534 275.987 971.899 269.604 971.962C261.65 972.024 253.852 970.893 246.055 969.918C238.635 968.943 232.158 966.082 227.316 960.36C223.637 956.021 219.33 954.386 213.639 954.543C202.572 954.889 198.61 951.714 195.403 941.055C194.209 937.093 193.611 933.006 193.045 928.919C191.882 920.524 189.901 918.952 181.381 919.361C181.223 919.361 181.035 919.392 180.878 919.361C180.312 919.392 179.777 919.424 179.211 919.361C168.678 916.814 158.146 919.329 147.676 919.832C132.867 920.555 134.754 959.039 119.913 959.668C110.45 960.045 91.2706 961.272 76.399 954.072C65.0802 948.601 59.8611 932.786 57.0628 924.706C56.2139 922.159 55.5536 920.367 55.0506 919.927C55.0191 911.846 56.0253 899.27 56.2453 891.19C56.4026 885.31 68.696 886.19 70.6139 880.531C72.2803 875.626 75.8017 872.985 80.4864 872.639C88.3152 872.01 96.144 870.721 104.036 871.35C106.551 871.539 109.003 871.507 111.487 872.105C118.216 873.74 122.334 869.935 121.423 864.15C121.14 862.232 121.077 860.031 121.737 858.271C123.089 854.686 121.894 852.8 118.813 850.851C108.343 844.217 102.464 835.036 101.646 822.176C101.237 815.794 101.112 809.757 103.03 803.689C104.822 797.904 104.036 791.962 104.067 786.051C104.067 781.209 103.847 776.43 105.828 771.776C107.4 768.035 109.538 764.922 112.776 762.438C118.341 758.257 124.127 754.358 128.465 748.699C130.949 745.46 134.659 743.983 138.935 744.108C149.531 744.454 159.906 742.473 170.282 740.587C172.42 740.21 174.527 739.864 176.665 739.895C178.52 739.927 180.154 739.644 181.727 738.48C183.299 737.286 185.154 736.751 187.197 736.594C191.253 736.217 192.291 734.928 192.542 730.714C192.668 728.954 192.762 727.193 193.108 725.401C193.926 721.376 193.643 720.685 189.901 719.238C183.204 716.66 176.193 715.245 169.15 713.988C157.234 711.787 146.638 716.283 136.168 720.748C129.566 723.546 123.183 726.721 116.203 728.576C111.487 729.803 107.211 732.161 103.187 734.833C100.043 736.94 96.8672 738.983 93.3772 740.461C82.6873 745.052 74.544 740.524 71.7772 730.211C68.5073 717.792 72.689 705.719 83.0646 697.89C86.9318 694.966 90.4846 691.696 93.8802 688.238C97.9361 684.119 102.81 681.1 107.463 677.768C117.87 670.348 128.906 664.185 140.822 659.5C144.092 658.211 147.173 656.199 150.16 654.218C159.403 647.993 169.842 645.886 180.658 645.132C190.53 644.44 200.34 645.321 209.961 647.836C212.727 648.559 215.62 648.59 218.418 648.999C224.015 649.817 228.637 652.112 232.85 655.665C235.617 657.991 238.792 659.5 242.408 660.255C246.778 661.167 251.148 662.267 255.236 664.122C257.091 665.003 258.568 665.066 259.952 663.336C263.222 659.155 267.844 657.3 272.717 655.853C274.603 655.287 276.616 654.847 278.251 653.841C284.822 649.785 291.927 649.062 299.442 649.156C305.479 649.251 311.547 648.245 317.458 646.735C322.991 645.352 327.519 642.239 331.92 638.749C334.939 636.36 337.957 633.97 341.038 631.644C342.327 630.638 343.648 629.663 344.968 628.72C346.352 627.714 347.735 626.739 349.15 625.764C349.244 625.701 349.37 625.638 349.465 625.544C294.16 584.168 229.014 555.179 158.177 542.791C140.853 559.141 120.542 570.837 98.0934 578.948C84.951 583.696 71.3056 584.922 57.3458 582.816C51.0261 581.872 44.8323 582.564 39.4873 586.809C37.0978 588.695 34.3624 590.079 31.5641 591.305C23.4523 594.921 15.8122 593.443 9.20955 587.5C1.50649 580.583 -1.13457 571.528 -2.6123 561.782C-3.55553 555.776 -3.58697 549.771 -3.61841 543.766C-32.6385 549.205 -60.6839 557.443 -87.4402 568.196C-85.8996 575.836 -84.3905 583.413 -82.9127 591.053C-80.4918 603.598 -79.1084 616.3 -80.3031 629.003C-81.3407 639.913 -84.2961 650.477 -88.8865 660.507C-89.7669 662.456 -90.3328 664.594 -91.4961 666.386C-96.0236 673.335 -96.7782 681.006 -96.3695 689.055C-96.0236 695.878 -98.5075 702.103 -101.966 707.888C-104.261 711.693 -106.776 715.497 -110.078 718.578C-114.291 722.477 -115.989 727.382 -116.712 732.852C-117.812 740.838 -119.196 748.73 -122.057 756.339C-124.949 764.136 -129.697 770.55 -136.08 775.738C-143.374 781.68 -152.083 782.812 -161.012 781.743C-169.879 780.706 -178.839 780.045 -187.486 777.624C-189.718 776.996 -191.95 776.335 -194.151 775.612C-202.357 773.034 -205.313 774.323 -209.117 782.215C-212.387 789.038 -213.833 796.458 -215.908 803.658C-217.889 810.543 -219.304 817.555 -223.234 823.78C-227.007 829.722 -231.88 834.187 -238.2 837.237C-243.985 840.066 -249.833 842.739 -255.084 846.638C-258.48 849.153 -259.203 851.92 -258.7 855.913C-257.662 863.93 -255.807 871.728 -253.669 879.493C-251.908 885.75 -252.254 891.881 -254.424 897.949C-256.845 904.709 -259.014 911.532 -262.315 917.946C-265.114 923.417 -269.704 926.058 -275.741 926.309C-281.306 926.561 -286.871 926.058 -292.153 924.234C-299.573 921.624 -305.012 916.562 -308.722 909.645C-310.766 905.872 -312.527 901.942 -314.287 898.012C-317.714 890.309 -321.173 882.606 -326.172 875.721C-333.812 865.156 -340.038 853.712 -346.64 842.55C-351.765 857.799 -356.104 873.394 -359.562 889.303V889.334C-358.022 892.353 -356.481 895.34 -354.815 898.264C-347.206 911.532 -340.729 925.303 -335.604 939.703C-332.335 948.915 -328.09 957.467 -321.707 964.95C-320.23 966.648 -318.752 967.843 -316.708 968.755C-305.39 973.911 -294.668 979.885 -285.456 988.468C-277.25 996.14 -276.055 1005.38 -277.879 1015.57C-278.759 1020.7 -280.897 1025.51 -282.438 1030.47C-283.915 1035.25 -284.984 1040.13 -284.921 1045.22C-284.859 1047.77 -284.01 1049.68 -282.249 1051.41C-279.891 1053.71 -277.156 1055.41 -274.42 1057.07C-270.584 1059.4 -266.874 1061.88 -263.29 1064.62C-252.914 1072.6 -249.236 1082.76 -252.726 1095.43C-252.663 1095.81 -252.6 1096.19 -252.537 1096.56C-256.121 1105.49 -259.423 1114.55 -264.202 1122.91C-273.257 1138.79 -282.878 1154.32 -296.492 1166.8C-300.705 1170.67 -305.107 1174.35 -309.162 1178.4C-311.332 1180.57 -313.156 1182.99 -314.759 1185.57C-315.765 1187.18 -316.645 1188.78 -317.243 1190.45C-317.4 1190.85 -317.526 1191.29 -317.652 1191.7C-317.777 1192.11 -317.872 1192.55 -317.966 1192.99C-318.06 1193.4 -318.123 1193.84 -318.186 1194.28C-318.249 1194.69 -318.28 1195.13 -318.28 1195.57V1195.6C-242.916 1338.56 -92.8481 1436 79.9833 1436C220.21 1436 345.472 1371.86 428.004 1271.31C420.458 1269.14 413.101 1266.53 406.153 1262.73C391.941 1254.99 385.024 1242.92 384.301 1227.01C383.672 1213.62 387.76 1201.58 395.023 1190.51C400.305 1182.4 405.587 1174.32 411.529 1166.64C420.27 1155.45 430.865 1146.55 443.316 1139.79C456.458 1132.66 470.418 1127.56 484.787 1123.66C492.396 1121.59 499.816 1118.95 507.11 1115.99C508.556 1115.4 509.971 1114.74 511.449 1114.3C523.522 1073.61 529.999 1030.57 529.999 985.984C529.999 959.322 527.672 933.226 523.208 907.853ZM153.084 1274.36C150.317 1287.94 144.532 1300.52 139.187 1313.22C134.502 1324.35 128.937 1334.95 121.391 1344.38C116.706 1350.26 112.053 1356.17 106.897 1361.67C102.464 1366.36 98.3449 1371.23 93.3457 1375.41C80.675 1386.01 66.3064 1391.42 49.8628 1390.69C40.5877 1390.25 33.9222 1384.75 28.6087 1377.58C19.7108 1365.57 14.7117 1351.83 11.5676 1337.34C9.5554 1328.09 8.14054 1318.72 8.17199 1309.2C8.23487 1299.48 8.1091 1289.8 8.2663 1280.12C8.39207 1273.39 7.29164 1266.91 5.15365 1260.59C1.22352 1248.89 -2.9267 1237.26 -6.9826 1225.6C-10.0324 1216.82 -14.214 1208.84 -22.0114 1203.27C-23.7721 1202.58 -25.3127 1201.26 -27.2935 1201.04C-29.966 1198.56 -33.5188 1197.55 -36.5686 1195.7C-46.2525 1189.85 -53.9555 1181.89 -60.8726 1173.15C-65.8402 1166.86 -71.9398 1162.02 -78.2909 1157.31C-96.8411 1143.54 -109.575 1125.52 -116.052 1103.32C-118.756 1094.08 -118.221 1084.61 -117.121 1075.09C-116.146 1066.57 -115.391 1058.02 -113.536 1049.62C-111.43 1040.19 -109.04 1030.82 -105.267 1021.89C-100.048 1009.57 -91.8105 999.598 -81.3407 991.329C-71.0595 983.217 -60.0865 976.741 -47.007 974.383C-38.6437 972.873 -30.1547 973.251 -21.8228 974.005C-12.2333 974.886 -2.76949 976.898 6.75715 978.438C7.2602 978.533 7.76325 978.753 8.29775 978.91H8.39207C12.1336 978.753 67.3126 970.955 81.2095 978.218C104.539 990.417 122.68 1014.82 125.479 1016.64C125.51 1016.67 125.541 1016.7 125.573 1016.7C126.265 1017.27 127.113 1017.74 127.617 1018.43C130.792 1022.8 134.408 1027.01 138.715 1030.03C146.198 1035.28 147.802 1043.21 150.128 1050.94C150.631 1052.67 150.757 1054.49 151.826 1055.97C156.228 1061.95 157.894 1068.93 158.963 1076C160.818 1088.1 160.378 1100.21 159.435 1112.38C158.869 1119.8 157.548 1127.19 158.554 1134.83C159.906 1144.92 164.528 1153 170.816 1160.58C175.753 1166.52 179.903 1173.03 183.047 1180.1C187.48 1190.19 186.6 1200.35 183.424 1210.54C183.047 1211.79 182.575 1212.99 182.135 1214.21C182.041 1214.5 181.915 1214.81 181.821 1215.1C181.412 1215.44 181.035 1215.82 180.658 1216.16C180.06 1219.09 178.299 1221.48 176.602 1223.68C164.906 1238.8 156.92 1255.56 153.084 1274.36ZM239.232 1231.04C237.817 1243.93 232.692 1255.43 227.505 1267.07C222.757 1277.76 217.318 1288.01 211.407 1298.07C207.54 1304.58 202.446 1309.61 195.498 1312.78C190.939 1314.89 186.38 1315.39 182.387 1311.97C178.488 1308.63 176.507 1304.32 178.331 1299.04C180.406 1292.97 179.431 1286.62 180.437 1280.4C182.23 1269.58 185.028 1259.08 189.555 1249.08C192.228 1243.23 195.026 1237.42 198.516 1231.95C201.912 1226.6 206.125 1222.01 210.715 1217.7C212.476 1216.07 214.74 1214.69 215.243 1212.01V1211.98C215.243 1211.95 215.211 1211.95 215.18 1211.92H215.274C215.84 1211.48 216.469 1211.13 216.94 1210.63C221.751 1205.63 227.159 1204.22 233.51 1207.61H233.541C240.175 1214.25 240.207 1222.33 239.232 1231.04Z" stroke="#0876E4"/>
<path fill-rule="evenodd" clip-rule="evenodd" d="M523.209 907.853C522.485 908.922 521.731 909.96 520.945 910.997C520.19 912.035 519.404 913.041 518.587 914.047C517.958 914.865 517.298 915.651 516.637 916.437C515.694 917.569 514.72 918.701 513.713 919.801C512.77 920.87 511.796 921.939 510.789 922.945C509.909 923.888 508.997 924.8 508.054 925.712C506.325 927.473 504.533 929.139 502.709 930.805C488.372 943.822 471.865 954.26 458 967.906C452.844 972.999 446.052 974.477 438.538 973.565C429.294 972.433 419.988 971.962 411.058 976.049C406.342 978.218 401.217 979.79 395.935 979.382C388.767 978.816 384.113 982.337 381.284 988.217C376.788 997.523 370.688 1005.51 363.897 1013.28C357.42 1020.73 354.244 1030.41 350.157 1039.37C347.862 1044.43 345.881 1049.65 343.68 1054.75C339.844 1063.64 333.776 1070.5 324.753 1074.46C315.069 1078.7 305.071 1075.94 300.134 1066.66C288.061 1043.9 279.729 1020 279.415 993.845C279.383 989.191 279.855 984.507 278.975 979.885C277.78 973.534 275.988 971.899 269.605 971.962C261.651 972.025 253.853 970.893 246.056 969.918C238.636 968.943 232.159 966.082 227.317 960.36C223.638 956.021 219.331 954.386 213.64 954.543C202.573 954.889 198.611 951.714 195.404 941.055C194.21 937.094 193.612 933.006 193.046 928.919C191.883 920.524 189.902 918.952 181.382 919.361C181.224 919.361 181.036 919.392 180.879 919.361C180.313 919.392 179.778 919.424 179.212 919.361C168.679 916.814 158.147 919.329 147.677 919.832C132.868 920.556 134.755 959.039 119.914 959.668C110.451 960.046 91.2716 961.272 76.4 954.072C65.0812 948.601 59.862 932.786 57.0637 924.706C56.2148 922.159 55.5546 920.367 55.0515 919.927C55.0201 911.846 56.0262 899.27 56.2463 891.19C56.4035 885.31 68.6969 886.19 70.6148 880.531C72.2812 875.626 75.8026 872.985 80.4873 872.639C88.3161 872.011 96.145 870.722 104.037 871.35C106.552 871.539 109.004 871.507 111.488 872.105C118.217 873.74 122.335 869.935 121.424 864.15C121.141 862.232 121.078 860.032 121.738 858.271C123.09 854.687 121.895 852.8 118.814 850.851C108.344 844.217 102.465 835.036 101.647 822.176C101.238 815.794 101.113 809.757 103.031 803.689C104.823 797.904 104.037 791.962 104.068 786.051C104.068 781.209 103.848 776.43 105.829 771.776C107.401 768.035 109.539 764.922 112.777 762.438C118.342 758.257 124.127 754.358 128.466 748.699C130.95 745.46 134.66 743.983 138.936 744.108C149.532 744.454 159.907 742.473 170.283 740.587C172.421 740.21 174.527 739.864 176.665 739.895C178.52 739.927 180.155 739.644 181.727 738.48C183.3 737.286 185.155 736.751 187.198 736.594C191.254 736.217 192.292 734.928 192.543 730.714C192.669 728.954 192.763 727.193 193.109 725.401C193.927 721.377 193.644 720.685 189.902 719.239C183.205 716.66 176.194 715.246 169.151 713.988C157.235 711.787 146.639 716.283 136.169 720.748C129.567 723.546 123.184 726.721 116.204 728.577C111.488 729.803 107.212 732.161 103.188 734.833C100.044 736.94 96.8681 738.983 93.3781 740.461C82.6882 745.052 74.5449 740.524 71.7781 730.211C68.5082 717.792 72.6899 705.719 83.0655 697.89C86.9327 694.966 90.4855 691.696 93.8812 688.238C97.9371 684.119 102.81 681.101 107.464 677.768C117.871 670.348 128.907 664.185 140.823 659.501C144.093 658.211 147.174 656.199 150.161 654.218C159.404 647.993 169.843 645.887 180.658 645.132C190.531 644.44 200.341 645.321 209.962 647.836C212.728 648.559 215.621 648.59 218.419 648.999C224.016 649.817 228.638 652.112 232.851 655.665C235.617 657.991 238.793 659.501 242.409 660.255C246.779 661.167 251.149 662.267 255.237 664.122C257.092 665.003 258.569 665.066 259.953 663.336C263.223 659.155 267.844 657.3 272.718 655.853C274.604 655.287 276.617 654.847 278.251 653.841C284.823 649.785 291.928 649.062 299.443 649.156C305.479 649.251 311.548 648.245 317.458 646.735C322.992 645.352 327.52 642.239 331.921 638.749C334.94 636.36 337.958 633.97 341.039 631.644C342.328 630.638 343.649 629.663 344.969 628.72C346.353 627.714 347.736 626.739 349.151 625.764C349.245 625.701 349.371 625.639 349.465 625.544C439.261 692.797 503.086 792.811 523.209 907.853Z" stroke="#0876E4"/>
<path fill-rule="evenodd" clip-rule="evenodd" d="M158.178 542.791C140.854 559.141 120.544 570.837 98.0946 578.948C84.9523 583.696 71.3068 584.922 57.347 582.816C51.0274 581.872 44.8335 582.564 39.4885 586.809C37.099 588.695 34.3636 590.079 31.5654 591.305C23.4536 594.921 15.8134 593.443 9.21077 587.5C1.50771 580.583 -1.13335 571.528 -2.61107 561.782C-3.55431 555.776 -3.58575 549.771 -3.61719 543.766C23.4536 538.672 51.4046 536 79.9846 536C106.647 536 132.774 538.327 158.178 542.791Z" stroke="#0876E4"/>
<path opacity="0.6" d="M-411.747 642.129C-479.967 739.506 -520 858.078 -520 986C-520 1317.37 -251.371 1586 80 1586C411.371 1586 680 1317.37 680 986C680 807.385 601.952 646.998 478.099 537.085M-408.5 637.541C-394.255 617.606 -378.82 598.58 -362.299 580.567M-307.312 527.737C-261.707 489.154 -210.266 457.256 -154.5 433.555M-83 408.406C-31.1708 393.809 23.5027 386 80 386C157.473 386 231.517 400.683 299.5 427.419M304.719 429.5C357.205 450.715 406.005 479.14 449.891 513.547" stroke="#053D75"/>
<path d="M642.503 435.251C642.503 460.247 622.239 480.503 597.251 480.503C572.256 480.503 552 460.239 552 435.251C552 410.263 572.263 390 597.251 390C622.239 389.992 642.503 410.256 642.503 435.251Z" stroke="#053D75"/>
<path d="M616.025 418.487C612.34 416.811 611.666 415.469 607.647 415.803C601.278 416.136 595.917 420.496 589.207 419.821C582.17 419.154 576.802 416.136 569.432 417.812C564.738 419.154 564.405 419.154 559.378 418.487C558.175 418.316 556.818 418.184 555.375 418.099C553.21 423.39 552 429.177 552 435.244C552 460.24 572.263 480.495 597.251 480.495C622.247 480.495 642.503 460.232 642.503 435.244C642.503 429.736 641.518 424.46 639.718 419.581C632.511 423.095 623.907 422.436 616.025 418.487Z" stroke="#053D75"/>
<path d="M602.946 450.333C598.253 453.017 593.559 452.342 588.199 453.351C577.136 455.36 573.117 446.648 563.397 444.972C559.712 444.305 557.028 444.305 553.343 442.963C553.11 442.909 552.869 442.839 552.637 442.769C556.221 464.181 574.824 480.503 597.26 480.503C622.256 480.503 642.511 460.24 642.511 435.252C642.511 435.05 642.496 434.848 642.496 434.639C635.126 436.423 626.778 441.031 621.061 443.63C614.684 446.648 609.316 446.981 602.946 450.333Z" stroke="#053D75"/>
<path d="M566.5 402.064C567.408 401.226 568.346 400.427 569.316 399.666C570.456 399.69 571.775 399.721 571.775 399.721C571.775 399.721 575.716 399.721 576.05 399.721C576.383 399.721 586.864 399.55 586.864 399.55C586.864 399.55 588.874 399.302 589.215 399.302C589.463 399.302 592.109 399.395 593.497 399.441C593.994 399.457 594.327 399.472 594.327 399.472C594.327 399.472 592.9 399.558 591.643 399.806C590.386 400.054 588.874 400.396 588.455 400.481C588.036 400.566 587.369 400.481 586.608 400.566C585.856 400.652 584.684 400.815 583.761 401.071C582.838 401.319 581.496 401.241 580.743 401.404C579.991 401.575 579.153 401.652 577.555 401.738C575.965 401.823 572.861 402.071 571.938 402.071C571.015 402.071 569.176 402.071 568.758 402.071C568.362 402.064 567.509 402.064 566.5 402.064Z" stroke="#053D75"/>
<path d="M623.651 470.449C621.177 470.387 615.56 469.697 610.447 469.697C605.327 469.697 599.385 470.201 599.385 470.201C599.385 470.201 604.505 470.953 606.894 470.953C609.292 470.953 610.859 470.953 612.015 470.953C613.17 470.953 614.823 471.396 616.475 471.458C618.128 471.52 622.007 471.396 622.007 471.396C622.007 471.396 623.155 471.326 624.706 471.233C625.102 470.93 625.505 470.62 625.893 470.302C625.048 470.403 624.272 470.465 623.651 470.449Z" stroke="#053D75"/>
<path d="M626.39 412.412C625.963 412.451 624.427 412.637 623.155 412.754C621.883 412.878 620.455 412.816 620.455 412.816C620.455 412.816 620.789 412.862 621.277 412.924C622.651 413.111 625.273 413.475 625.521 413.499C625.855 413.53 627.879 413.483 627.879 413.483C627.879 413.483 634.505 414.049 637.367 414.298C636.995 413.592 636.615 412.893 636.203 412.211C635.304 412.187 634.706 412.203 634.148 412.265C633.38 412.358 632.053 412.133 631.114 412.296C630.168 412.451 628.989 412.498 628.228 412.506C627.468 412.529 626.809 412.374 626.39 412.412Z" stroke="#053D75"/>
<path d="M583.148 406.858C583.148 406.858 587.043 407.61 588.866 407.61C590.689 407.61 591.884 407.61 592.76 407.61C593.637 407.61 594.894 408.053 596.158 408.115C597.415 408.177 600.371 408.053 600.371 408.053C600.371 408.053 606.088 407.61 608.036 407.362C609.983 407.114 611.178 407.238 612.814 407.114C614.451 406.99 614.7 407.052 616.399 407.052C618.098 407.052 618.664 407.3 620.169 407.3C621.682 407.3 621.992 407.362 623.629 407.362C625.266 407.362 625.7 407.176 626.204 407.176C626.709 407.176 627.337 407.176 627.841 407.052C628.346 406.928 626.895 406.61 626.895 406.61C626.895 406.61 625.134 406.61 624.886 406.61C624.637 406.61 624.381 406.61 623.877 406.548C623.373 406.485 622.372 406.485 622.372 406.485C622.372 406.485 615.646 405.981 615.46 405.981C615.274 405.981 608.734 405.981 607.981 405.981C607.229 405.981 603.521 407.176 601.635 407.114C599.75 407.052 595.476 406.361 591.581 406.361C587.679 406.361 583.148 406.858 583.148 406.858Z" stroke="#053D75"/>
<path d="M642.139 429.511C640.696 429.386 638.54 429.208 638.447 429.208C638.315 429.216 633.629 429.379 633.094 429.402C632.551 429.417 629.952 430.907 628.594 430.884C627.244 430.86 624.149 430.162 621.364 430.263C618.571 430.364 615.352 431.062 615.352 431.062C615.352 431.062 618.175 431.838 619.479 431.791C620.782 431.745 621.643 431.714 622.272 431.691C622.9 431.667 623.823 432.148 624.723 432.187C625.623 432.226 627.733 432.009 627.733 432.009C627.733 432.009 631.806 431.349 633.195 431.008C634.583 430.666 635.437 430.783 636.608 430.589C637.772 430.403 637.958 430.465 639.168 430.426C640.386 430.379 640.797 430.659 641.883 430.62C642.023 430.612 642.155 430.612 642.271 430.612C642.225 430.248 642.186 429.883 642.139 429.511Z" stroke="#053D75"/>
<path d="M563.164 428.859C563.164 428.859 567.058 429.612 568.882 429.612C570.705 429.612 571.899 429.612 572.776 429.612C573.653 429.612 574.909 430.054 576.174 430.116C577.431 430.178 580.386 430.054 580.386 430.054C580.386 430.054 586.104 429.612 588.051 429.363C589.998 429.115 591.193 429.239 592.83 429.115C594.467 428.991 594.715 429.053 596.414 429.053C598.113 429.053 598.679 429.301 600.184 429.301C601.697 429.301 602.008 429.363 603.644 429.363C605.281 429.363 605.716 429.177 606.22 429.177C606.724 429.177 607.353 429.177 607.857 429.053C608.361 428.929 606.911 428.611 606.911 428.611C606.911 428.611 605.149 428.611 604.901 428.611C604.653 428.611 604.397 428.611 603.893 428.549C603.388 428.487 602.388 428.487 602.388 428.487C602.388 428.487 595.662 427.982 595.475 427.982C595.289 427.982 588.749 427.982 587.997 427.982C587.244 427.982 583.536 429.177 581.651 429.115C579.766 429.053 575.491 428.363 571.597 428.363C567.687 428.355 563.164 428.859 563.164 428.859Z" stroke="#053D75"/>
<path d="M600.852 443.63C601.899 443.63 602.24 443.878 603.171 443.878C604.102 443.878 604.296 443.94 605.297 443.94C606.298 443.94 606.569 443.754 606.88 443.754C607.19 443.754 607.578 443.754 607.888 443.63C608.198 443.506 607.306 443.188 607.306 443.188C607.306 443.188 606.22 443.188 606.065 443.188C605.91 443.188 605.755 443.188 605.444 443.126C605.134 443.064 604.513 443.064 604.513 443.064C604.513 443.064 600.371 442.56 600.254 442.56C600.138 442.56 596.112 442.56 595.654 442.56C595.189 442.56 592.908 443.754 591.744 443.692C590.58 443.63 587.951 442.94 585.553 442.94C583.156 442.94 580.371 443.444 580.371 443.444C580.371 443.444 582.768 444.196 583.893 444.196C585.018 444.196 585.747 444.196 586.29 444.196C586.833 444.196 587.609 444.639 588.377 444.701C589.153 444.763 590.968 444.639 590.968 444.639C590.968 444.639 594.49 444.196 595.685 443.948C596.888 443.7 597.617 443.824 598.625 443.7C599.649 443.568 599.804 443.63 600.852 443.63Z" stroke="#053D75"/>
<path d="M606.327 461.566C608.476 461.442 608.802 461.504 611.036 461.504C613.263 461.504 614.007 461.752 615.986 461.752C617.964 461.752 618.375 461.814 620.524 461.814C622.673 461.814 623.247 461.628 623.906 461.628C624.566 461.628 625.388 461.628 626.055 461.504C626.715 461.38 624.822 461.062 624.822 461.062C624.822 461.062 622.51 461.062 622.176 461.062C621.843 461.062 621.517 461.062 620.857 461C620.198 460.938 618.879 460.938 618.879 460.938C618.879 460.938 610.051 460.434 609.795 460.434C609.547 460.434 600.966 460.434 599.973 460.434C598.98 460.434 594.108 461.628 591.634 461.566C589.159 461.504 583.542 460.814 578.422 460.814C573.302 460.814 567.359 461.318 567.359 461.318C567.359 461.318 572.48 462.07 574.869 462.07C577.266 462.07 578.833 462.07 579.989 462.07C581.145 462.07 582.797 462.513 584.45 462.575C586.102 462.637 589.981 462.513 589.981 462.513C589.981 462.513 597.491 462.071 600.051 461.822C602.611 461.566 604.178 461.69 606.327 461.566Z" stroke="#053D75"/>
<path d="M638.143 449.898C636.56 450.061 635.722 450.185 634.977 450.395C634.233 450.604 632.891 450.589 631.983 450.884C631.075 451.178 629.912 451.411 629.167 451.527C628.414 451.652 627.747 451.605 627.328 451.706C626.909 451.814 625.42 452.226 624.179 452.536C622.937 452.854 621.518 453.009 621.518 453.009C621.518 453.009 621.851 453.001 622.348 452.994C623.736 452.97 626.382 452.932 626.63 452.916C626.964 452.901 628.957 452.544 628.957 452.544C628.957 452.544 637.367 451.977 639.337 451.853C639.624 451.132 639.888 450.403 640.136 449.666C639.399 449.759 638.686 449.844 638.143 449.898Z" stroke="#053D75"/>
<path d="M578.252 471.853C579.012 471.807 579.672 471.931 580.099 471.869C580.525 471.807 582.046 471.558 583.318 471.372C584.59 471.194 586.01 471.186 586.01 471.186C586.01 471.186 585.676 471.155 585.18 471.116C583.799 470.992 581.161 470.752 580.913 470.744C580.58 470.721 578.555 470.868 578.555 470.868C578.555 470.868 571.611 470.596 568.857 470.488C569.719 471.178 570.603 471.845 571.511 472.474C571.813 472.451 572.085 472.419 572.348 472.373C573.109 472.249 574.443 472.404 575.382 472.21C576.32 472.001 577.5 471.9 578.252 471.853Z" stroke="#053D75"/>
<path opacity="0.4" d="M-498.874 508.922C-470.255 474.277 -438.106 441.727 -402.472 411.786C-401.334 410.831 -400.195 409.879 -399.053 408.931M-555.91 587.977C-610.962 675.89 -646.359 773.284 -661.524 873.495M-666.207 1062.06C-656.055 1162.56 -625.566 1261.76 -574.173 1353.1M-571.529 1357.76C-549.508 1396.25 -523.75 1433.32 -494.214 1468.47C-227.752 1785.6 245.342 1826.68 562.471 1560.21C879.601 1293.75 920.675 820.658 654.213 503.528C644.732 492.244 634.988 481.309 625 470.725M-394.774 405.403C-331.149 353.347 -261.46 313.467 -188.566 285.515M-102.176 258.286C-40.8286 242.977 21.9193 235.593 84.5 235.999M560 409.553C425.261 297.092 258.403 238.374 90 236.054" stroke="#053D75"/>
<circle cx="462.912" cy="526.628" r="18.4085" transform="rotate(-118.688 462.912 526.628)" stroke="#D9D9D9" stroke-linejoin="round"/>
<circle cx="462.912" cy="526.628" r="18.4085" transform="rotate(-118.688 462.912 526.628)" stroke="#053D75" stroke-linejoin="round"/>
<path d="M469.078 509.13L425.571 473.342" stroke="#053D75" stroke-linecap="round"/>
<path d="M457.695 544.317L409.51 546.762" stroke="#053D75" stroke-linecap="round"/>
<path d="M446.841 535.987L431.826 535.391" stroke="#053D75" stroke-linecap="round"/>
<path d="M456.775 515.024L379.923 481.954" stroke="#053D75" stroke-linecap="round"/>
<path opacity="0.3" d="M-790.389 756.172C-780.206 717.505 -767.515 679.856 -752.5 643.408M-794.767 773.5C-811.26 841.634 -820 912.797 -820 986C-820 1483.06 -417.056 1886 80 1886C577.056 1886 980 1483.06 980 986C980 603.081 740.862 276.015 403.784 146M-750.413 638.385C-727.505 583.726 -699.358 531.807 -666.6 483.255M-614.5 413.536C-584.402 377.063 -551.486 343.002 -516.085 311.685M-512 308.093C-464.153 266.275 -411.84 229.441 -355.869 198.399M-301.241 170.5C-185.478 116.288 -56.2761 86 80 86C86.4717 86 92.9275 86.0683 99.3666 86.2042M200.387 93.9819C269.207 103.182 335.565 120.159 398.55 144" stroke="#053D75"/>
<path opacity="0.2" d="M-568.168 159.881C-389.674 19.6404 -164.605 -64 80 -64C659.899 -64 1130 406.101 1130 986C1130 1565.9 659.899 2036 80 2036C-499.899 2036 -970 1565.9 -970 986C-970 692.274 -849.393 426.717 -655 236.15" stroke="#053D75"/>
<path opacity="0.1" d="M-1087.28 706.5C-961.33 178.562 -486.509 -214 80 -214C742.742 -214 1280 323.258 1280 986C1280 1648.74 742.742 2186 80 2186C-582.742 2186 -1120 1648.74 -1120 986C-1120 891.617 -1109.1 799.778 -1088.5 711.674" stroke="#053D75"/>
<path d="M161.652 137.348C188.906 130.912 205.783 103.602 199.348 76.3476C192.912 49.0936 165.602 32.2169 138.348 38.6523C111.094 45.0877 94.2169 72.3984 100.652 99.6523C107.088 126.906 134.398 143.783 161.652 137.348Z" stroke="#053D75"/>
<path d="M156.039 102.691C156.039 109.585 161.624 115.171 168.519 115.171C175.413 115.171 180.998 109.585 180.998 102.691C180.998 95.7963 175.413 90.2112 168.519 90.2112C161.624 90.2112 156.039 95.7963 156.039 102.691Z" stroke="#053D75"/>
<path d="M179.735 64.7192C179.735 60.849 176.595 57.6973 172.713 57.6973C168.832 57.6973 165.691 60.8375 165.691 64.7192C165.691 68.601 168.832 71.7412 172.713 71.7412C176.595 71.7412 179.735 68.601 179.735 64.7192Z" stroke="#053D75"/>
<path d="M184.463 92.1697C184.463 99.8753 189.353 106.422 196.178 108.948C199.075 102.564 200.697 95.4953 200.697 88.033C200.697 83.3864 200.06 78.9021 198.889 74.6263C190.674 76.2254 184.463 83.4675 184.463 92.1697Z" stroke="#053D75"/>
<path d="M116.016 100.894C116.016 99.3302 114.753 98.0671 113.189 98.0671C111.624 98.0671 110.361 99.3302 110.361 100.894C110.361 102.459 111.624 103.722 113.189 103.722C114.741 103.722 116.016 102.459 116.016 100.894Z" stroke="#053D75"/>
<path d="M182.563 79.6901C182.563 78.1258 181.3 76.8628 179.736 76.8628C178.171 76.8628 176.908 78.1258 176.908 79.6901C176.908 81.2544 178.171 82.5175 179.736 82.5175C181.3 82.5059 182.563 81.2428 182.563 79.6901Z" stroke="#053D75"/>
<path d="M118.947 113.618C118.947 117.499 122.087 120.64 125.969 120.64C129.851 120.64 132.991 117.499 132.991 113.618C132.991 109.736 129.851 106.596 125.969 106.596C122.087 106.596 118.947 109.736 118.947 113.618Z" stroke="#053D75"/>
<path d="M145.947 54.0932C145.947 56.5729 147.952 58.5775 150.432 58.5775C152.911 58.5775 154.916 56.5729 154.916 54.0932C154.916 51.6135 152.911 49.6089 150.432 49.6089C147.952 49.6089 145.947 51.6135 145.947 54.0932Z" stroke="#053D75"/>
<path d="M166.594 135.935C165.146 127.499 157.823 121.08 148.981 121.08C140.384 121.08 133.211 127.152 131.484 135.228C137.22 137.488 143.466 138.727 150.001 138.727C155.806 138.727 161.392 137.731 166.594 135.935Z" stroke="#053D75"/>
<path d="M121.335 86.8512C126.607 86.8512 130.895 82.5754 130.895 77.2916C130.895 72.0193 126.619 67.7319 121.335 67.7319C116.063 67.7319 111.775 72.0077 111.775 77.2916C111.775 82.5754 116.051 86.8512 121.335 86.8512Z" stroke="#053D75"/>
<path d="M150.928 78.3691C150.928 76.8048 149.665 75.5417 148.101 75.5417C146.536 75.5417 145.273 76.8048 145.273 78.3691C145.273 79.9334 146.536 81.1964 148.101 81.1964C149.665 81.1964 150.928 79.9334 150.928 78.3691Z" stroke="#053D75"/>
<path d="M141.949 98.45C139.469 98.45 137.465 100.455 137.465 102.934C137.465 105.414 139.469 107.419 141.949 107.419C144.429 107.419 146.434 105.414 146.434 102.934C146.434 100.466 144.429 98.45 141.949 98.45Z" stroke="#053D75"/>
<g filter="url(#filter3_d_2576_8460)">
<path d="M262.219 361.123C262.219 361.123 225.38 346.395 215.429 359.276C204.189 373.825 186.014 421.948 191.073 440.222C194.347 452.044 215.975 458.313 215.975 458.313L262.219 361.123Z" fill="url(#paint0_linear_2576_8460)"/>
<path d="M249.929 496.436C259.096 508.427 275.206 513.585 287.253 515.8C290.393 514.923 293.558 513.666 296.697 512.007C288.39 511.529 264.049 508.699 253.376 491.979C252.33 493.174 251.192 494.615 249.929 496.436Z" fill="#0876E4"/>
<path d="M254.67 547.314C274.565 552.46 278.975 527.239 279.896 518.64C279.956 518.071 280.002 517.577 280.036 517.168C282.406 516.936 284.824 516.483 287.254 515.8C275.207 513.586 259.096 508.427 249.929 496.437C249.678 496.799 249.419 497.179 249.158 497.575C248.72 498.234 248.151 499.132 247.504 500.226C246.332 502.208 244.906 504.829 243.529 507.832C237.478 521.026 232.436 541.556 254.67 547.314Z" fill="url(#paint1_linear_2576_8460)"/>
<path d="M195.064 478.134C195.132 478.294 195.201 478.455 195.271 478.612C202.181 494.284 222.536 498.656 233.132 499.877C235.244 498.915 237.286 497.735 239.25 496.364C228.422 495.262 206.84 490.96 198.38 474.199C197.293 475.485 196.182 476.796 195.064 478.134Z" fill="#0876E4"/>
<path d="M196.494 532.858C216.606 538.056 220.62 511.436 221.378 502.863C222.258 502.806 223.13 502.715 223.989 502.588C227.175 502.128 230.224 501.204 233.133 499.877C222.537 498.656 202.182 494.284 195.272 478.612C195.202 478.455 195.132 478.294 195.065 478.134C194.144 479.238 193.215 480.359 192.293 481.492C191.853 482.032 191.413 482.578 190.976 483.127C185.627 489.832 166.418 525.072 196.494 532.858Z" fill="url(#paint2_linear_2576_8460)"/>
<path d="M351.151 325.014C353.433 333.308 360.462 349.163 381.167 352.443C382.212 350.785 383.266 349.062 384.324 347.267C366.386 343.539 358.03 330.985 354.223 321.599C353.185 322.776 352.157 323.914 351.151 325.014Z" fill="#0876E4"/>
<path d="M476.326 167.378C485.957 167.632 494.703 173.054 499.212 181.564L522.03 224.635C526.469 233.012 526.123 243.112 521.121 251.165L494.888 293.418C489.886 301.472 480.983 306.268 471.5 306.017L422.742 304.726C413.11 304.469 404.364 299.05 399.856 290.54L377.036 247.466C372.599 239.089 372.943 228.99 377.945 220.936L404.179 178.684C409.178 170.631 418.081 165.835 427.563 166.086L476.326 167.378Z" fill="#0876E4"/>
<path d="M419.465 284.478C416.073 282.374 413.228 279.39 411.299 275.746L395.599 246.1C391.814 238.948 392.111 230.238 396.379 223.364L414.495 194.182C418.763 187.308 426.442 183.17 434.536 183.383L468.088 184.266C476.333 184.484 483.851 189.143 487.71 196.43L503.409 226.076C507.198 233.227 506.898 241.938 502.63 248.812L484.513 277.994C480.245 284.868 472.569 289.005 464.472 288.791L430.92 287.908C426.798 287.801 422.857 286.581 419.465 284.478ZM475.525 194.173C473.264 192.771 470.636 191.958 467.887 191.885L434.334 191C428.94 190.858 423.819 193.616 420.974 198.2L402.857 227.382C400.012 231.965 399.814 237.771 402.338 242.538L418.037 272.184C420.609 277.04 425.623 280.147 431.119 280.292L464.673 281.178C470.07 281.321 475.189 278.563 478.033 273.98L496.15 244.798C498.995 240.214 499.196 234.407 496.668 229.639L480.969 199.993C479.683 197.565 477.789 195.574 475.525 194.173Z" fill="white"/>
<path fill-rule="evenodd" clip-rule="evenodd" d="M465.907 211.289C457.258 205.929 445.896 208.588 440.533 217.228C439.607 218.718 440.067 220.676 441.557 221.599C443.048 222.524 445.008 222.065 445.933 220.575C449.448 214.913 456.892 213.171 462.558 216.685C468.226 220.197 469.97 227.634 466.454 233.294L463.439 238.149L439.137 223.088C436.453 221.424 432.927 222.249 431.262 224.93L422.554 238.958C419.78 243.425 421.158 249.298 425.63 252.07L447.23 265.459C451.706 268.233 457.58 266.856 460.355 262.388L469.063 248.36C470.374 246.248 470.14 243.607 468.666 241.772L471.853 236.639C477.222 228.002 474.557 216.652 465.907 211.289ZM462.792 245.22L436.33 228.82L427.956 242.307C427.03 243.797 427.489 245.753 428.982 246.676L450.583 260.065C452.074 260.99 454.034 260.531 454.957 259.042L463.331 245.555L462.792 245.22ZM446.146 243.121C444.953 242.382 443.385 242.749 442.646 243.94C441.906 245.132 442.274 246.698 443.466 247.437C444.659 248.176 446.227 247.809 446.966 246.618C447.706 245.427 447.338 243.86 446.146 243.121ZM440.485 242.602C441.967 240.218 445.098 239.486 447.485 240.963C449.871 242.443 450.608 245.573 449.126 247.957C447.645 250.34 444.511 251.074 442.126 249.596C439.738 248.116 439.004 244.985 440.485 242.602Z" fill="white"/>
<path d="M354.221 321.599C358.028 330.985 366.385 343.539 384.323 347.267C385.236 345.72 386.153 344.119 387.074 342.463C389.005 338.991 390.948 335.284 392.889 331.326C392.889 331.326 397.141 332.04 401.883 331.073C406.942 330.043 410.667 325.513 413.086 320.065C416.011 313.471 417.028 305.537 416.184 300.808C414.321 290.367 408.092 290.367 408.092 290.367C406.583 287.097 403.573 284.435 398.668 282.766C386 278.456 379.292 288.331 379.292 288.331C374.072 296.41 368.901 303.589 363.929 309.929C361.931 312.48 359.964 314.896 358.039 317.178C356.747 318.712 355.476 320.184 354.221 321.599Z" fill="url(#paint3_linear_2576_8460)"/>
<path d="M198.38 474.199C206.84 490.96 228.422 495.262 239.25 496.364C240.878 495.234 242.457 493.969 243.984 492.585C244.892 491.757 245.785 490.89 246.657 489.982C250.076 486.44 253.215 482.283 256.073 477.673C256.073 477.673 259.064 479.285 264.059 480.708C264.005 480.793 263.951 480.878 263.896 480.964C261.119 485.302 258.793 486.616 255.754 489.509C255.219 490.016 254.662 490.572 254.075 491.206C253.847 491.451 253.614 491.71 253.376 491.979C257.351 498.206 263.221 502.508 269.453 505.475C279.955 510.481 291.482 511.707 296.697 512.007C298.11 511.26 299.518 510.435 300.918 509.521C313.833 501.119 325.898 485.644 333.277 461.637C342.829 430.528 343.833 403.603 343.87 394.508C343.87 394.508 343.864 394.502 343.87 394.495C343.877 392.373 343.833 391.227 343.833 391.227C343.833 391.227 359.393 384.874 378.071 357.188C379.09 355.672 380.123 354.091 381.166 352.444C360.462 349.163 353.432 333.308 351.15 325.014C349.773 326.514 348.43 327.94 347.12 329.293C341.892 334.7 337.239 338.96 333.442 342.189C333.442 342.189 322.464 372.578 297.489 370.896C278.695 369.629 265.604 362.31 257.6 355.938C257.343 355.732 257.09 355.527 256.846 355.323C250.728 350.304 247.83 346.023 247.83 346.023C246.719 350.34 245.161 355.607 243.306 361.299C243.205 361.614 243.099 361.925 243 362.248C241.429 367.018 239.675 372.06 237.811 377.069C232.426 391.618 226.225 405.867 221.556 412.339C213.246 423.854 211.9 454.166 211.9 454.166C211.695 455.451 211.149 456.871 210.324 458.416C210.236 458.584 210.143 458.75 210.044 458.918C208.108 462.395 204.878 466.451 201.154 470.903C200.256 471.979 199.327 473.079 198.38 474.199Z" fill="url(#paint4_linear_2576_8460)"/>
<path d="M394.666 296.13C394.743 295.854 394.823 295.569 394.914 295.279L394.526 295.996L394.666 296.13Z" fill="white"/>
<path d="M322.834 350.289C323.149 350.087 327.109 347.575 333.439 342.189L322.834 350.289Z" fill="white"/>
<path d="M317.564 457.373C313.77 457.164 309.526 456.859 304.981 456.427C307.668 456.879 310.147 457.262 312.362 457.585C314.135 457.836 315.898 457.756 317.564 457.373Z" fill="white"/>
<path d="M335.452 447.739C329.917 447.739 325.431 443.255 325.431 437.723C325.431 432.191 329.917 427.706 335.452 427.706C340.986 427.706 345.473 432.191 345.473 437.723C345.473 443.255 340.986 447.739 335.452 447.739Z" fill="url(#paint5_linear_2576_8460)"/>
<path d="M264.934 452.908L303.191 459.148L305.911 459.593L321.626 462.157C328.336 463.248 334.729 458.662 335.824 451.946L336.846 445.673L340.741 421.79C341.844 415.077 337.245 408.689 330.526 407.595L328.536 407.272L325.818 406.827L273.845 398.352C273.009 398.215 272.178 398.163 271.366 398.199C265.623 398.432 260.605 402.682 259.644 408.56L254.722 438.716C253.627 445.432 258.226 451.817 264.934 452.908Z" fill="url(#paint6_linear_2576_8460)"/>
<path d="M323.938 462.304C323.179 462.338 322.411 462.289 321.626 462.157L264.935 452.908C260.018 452.104 256.234 448.466 255 443.926C254.547 442.276 254.433 440.509 254.728 438.716L256.91 425.318L257.629 420.897L259.643 408.56C260.737 401.844 267.132 397.257 273.843 398.349L286.092 400.352C280.272 400.494 275.161 404.767 274.187 410.707L271.524 426.995L269.262 440.869C268.17 447.577 272.767 453.969 279.477 455.063L323.938 462.304Z" fill="url(#paint7_linear_2576_8460)"/>
<path d="M225.405 400.639C225.405 400.639 219.96 403.06 218.166 408.723C216.093 415.271 219.256 419.097 219.256 419.097C219.256 419.097 233.793 433.372 262.996 435.237C262.996 435.237 274.109 426.79 266.803 418.059C266.806 418.059 236.622 413.801 225.405 400.639Z" fill="url(#paint8_linear_2576_8460)"/>
<g opacity="0.35">
<path d="M218.551 417.927C219.433 415.798 220.432 413.894 221.556 412.337C222.138 411.53 222.746 410.601 223.375 409.558C222.568 407.287 222.469 404.78 223.194 402.374C223.212 402.307 223.238 402.245 223.256 402.175C223.287 402.069 223.323 401.958 223.375 401.86C221.631 403.107 219.242 405.334 218.168 408.728C216.765 413.152 217.756 416.334 218.551 417.927Z" fill="#371A45"/>
</g>
<path d="M201.112 418.9C202.184 418.546 203.315 418.256 204.49 418.026C214.733 416.021 228.458 418.522 236.978 420.569C237.205 419.084 237.552 417.262 238.08 415.224C227.862 412.637 211.123 409.685 202.634 413.198C202.057 415.105 201.55 417.009 201.112 418.9Z" fill="#0876E4"/>
<path d="M201.584 449.946C203.041 453.583 206.263 456.76 210.044 458.918C218.986 464.03 231.072 463.471 230.402 449.946C230.016 442.193 235.813 446.094 238.774 445.647C241.727 445.194 243.795 443.254 241.603 436.67C240.868 434.453 239.445 430.503 237.731 426.969C237.351 426.18 236.955 425.414 236.551 424.69C236.551 424.69 236.587 423.125 236.978 420.569C228.458 418.522 214.734 416.021 204.49 418.026C203.315 418.256 202.184 418.546 201.113 418.9C200.541 421.365 200.091 423.81 199.762 426.203C198.522 435.26 199.055 443.626 201.584 449.946Z" fill="url(#paint9_linear_2576_8460)"/>
<path d="M202.635 413.198C211.124 409.685 227.863 412.637 238.081 415.224C238.541 413.449 239.142 411.507 239.918 409.471C242.152 403.619 245.868 397.007 252.043 391.406L255.11 371.825L257.6 355.939L257.734 355.074C257.734 355.074 257.424 355.149 256.847 355.323C254.875 355.913 249.771 357.625 243.306 361.299C243.045 361.446 242.778 361.601 242.511 361.757C233.456 367.042 221.942 376.114 212.581 391.139C209.581 395.959 207.045 401.099 205.011 406.325C204.12 408.607 203.328 410.904 202.635 413.198Z" fill="url(#paint10_linear_2576_8460)"/>
<path d="M373.63 300.854C372.639 310.845 369.812 320.699 365.146 329.896C363.368 333.401 361.324 336.81 359.01 340.096C357.299 342.525 355.451 344.882 353.453 347.158C352.485 348.268 351.471 349.36 350.431 350.439C347.273 353.68 343.916 356.611 340.391 359.237C337.361 361.506 334.198 363.544 330.95 365.355C327.764 367.132 324.485 368.687 321.136 370.025C320.363 370.332 319.584 370.63 318.802 370.917C317.283 371.465 315.753 371.975 314.216 372.441C308.905 374.042 303.468 375.116 297.986 375.661C297.986 375.661 297.986 375.661 297.984 375.661C274.386 378.008 249.991 370.555 231.613 353.137C198.243 321.524 197.342 269.063 229.587 235.958C235.801 229.586 242.794 224.384 250.273 220.389C251.143 219.916 252.03 219.463 252.926 219.029C255.312 217.854 257.739 216.799 260.203 215.865C265.905 213.702 271.798 212.176 277.758 211.281C283.716 210.38 289.759 210.114 295.758 210.484C297 210.561 298.242 210.662 299.482 210.792C300.145 210.862 300.807 210.939 301.472 211.025C304.322 211.397 307.151 211.904 309.964 212.569C311.99 213.042 314.001 213.591 315.994 214.217C327.777 217.908 338.898 224.249 348.404 233.259C350.933 235.652 353.272 238.167 355.425 240.782C369.634 258.035 375.729 279.729 373.63 300.854Z" fill="url(#paint11_linear_2576_8460)"/>
<path d="M315.992 214.219C315.118 213.981 314.24 213.762 313.355 213.552C305.581 213.381 297.472 214.556 289.146 217.052C285.878 218.033 282.575 219.217 279.245 220.602C257.932 229.472 240.219 248.191 231.86 270.677C224.386 290.788 225.141 311.58 233.99 329.226C243.68 348.54 259.112 362.059 278.618 368.325C292.066 372.643 306.787 373.152 321.135 370.025C320.361 370.332 319.582 370.63 318.8 370.917C317.281 371.465 315.752 371.975 314.214 372.441C308.904 374.042 303.466 375.116 297.985 375.662C297.985 375.662 297.985 375.662 297.982 375.662C290.971 375.276 284.074 374.032 277.467 371.91C256.974 365.329 240.776 351.153 230.62 330.91C221.298 312.322 220.483 290.465 228.327 269.363C237.041 245.918 255.535 226.386 277.795 217.122C285.156 214.059 292.407 211.943 299.478 210.792C300.14 210.862 300.803 210.939 301.468 211.025C304.318 211.397 307.146 211.904 309.96 212.569C311.986 213.045 313.999 213.593 315.992 214.219Z" fill="#9CBDEA"/>
<mask id="mask1_2576_8460" style="mask-type:luminance" maskUnits="userSpaceOnUse" x="231" y="219" width="144" height="144">
<path d="M373.63 300.854C372.931 307.891 371.324 314.86 368.803 321.579C367.745 324.398 366.526 327.177 365.146 329.896C353.893 344.246 338.846 354.526 322.363 359.467C313.892 362.005 305.044 363.136 296.131 362.68C270.615 361.382 249.287 347.288 237.615 324.015C229.566 307.966 228.862 289.097 235.635 270.882C243.156 250.652 259.114 233.8 278.322 225.804C307.202 213.782 333.088 218.827 355.423 240.782C369.634 258.035 375.729 279.729 373.63 300.854Z" fill="white"/>
</mask>
<g mask="url(#mask1_2576_8460)">
<path d="M373.63 300.854C372.931 307.891 371.324 314.86 368.803 321.579C367.745 324.398 366.526 327.177 365.146 329.896C353.893 344.246 338.846 354.526 322.363 359.467C313.892 362.005 305.044 363.136 296.131 362.68C270.615 361.382 249.287 347.288 237.615 324.015C229.566 307.966 228.862 289.097 235.635 270.882C243.156 250.652 259.114 233.8 278.322 225.804C307.202 213.782 333.088 218.827 355.423 240.782C369.634 258.035 375.729 279.729 373.63 300.854Z" fill="#371A45"/>
</g>
<mask id="mask2_2576_8460" style="mask-type:luminance" maskUnits="userSpaceOnUse" x="231" y="219" width="144" height="144">
<path d="M373.63 300.854C372.931 307.891 371.324 314.86 368.803 321.579C367.745 324.398 366.526 327.177 365.146 329.896C353.893 344.246 338.846 354.526 322.363 359.467C313.892 362.005 305.044 363.136 296.131 362.68C270.615 361.382 249.287 347.288 237.615 324.015C229.566 307.966 228.862 289.097 235.635 270.882C243.156 250.652 259.114 233.8 278.322 225.804C307.202 213.782 333.088 218.827 355.423 240.782C369.634 258.035 375.729 279.729 373.63 300.854Z" fill="white"/>
</mask>
<g mask="url(#mask2_2576_8460)">
<path d="M308.223 363.648C287.969 364.716 282.169 368.232 281.279 369.882C281.279 369.882 280.844 373.23 279.687 374.436C279.687 374.436 277.964 376.474 276.142 376.686C274.32 376.898 272.407 375.393 271.219 376.029C270.031 376.666 268.38 380.075 268.38 380.075L258.998 385.153L354.389 380.117C354.389 380.117 337.616 374.816 333.666 371.758C333.666 371.758 330.418 368.09 331.407 365.976C331.404 365.976 328.72 362.567 308.223 363.648Z" fill="url(#paint12_linear_2576_8460)"/>
<path d="M265.602 303.674C265.602 303.674 263.796 298.785 255.915 296.107C248.034 293.43 245.363 298.211 245.123 303.382C244.879 308.551 251.57 321.263 257.52 323.183C263.467 325.102 266.508 320.818 266.508 320.818L265.602 303.674Z" fill="url(#paint13_linear_2576_8460)"/>
<g style="mix-blend-mode:multiply" opacity="0.6">
<path d="M266.073 312.574L266.35 317.797C266.35 317.797 263.632 311.942 262.18 312.105C260.728 312.268 261.536 316.18 261.093 317.577C260.651 318.976 258.516 317.626 257.817 313.194C257.121 308.763 260.19 308.649 260.19 308.649C260.19 308.649 256.368 300.868 252.289 303.403C248.21 305.938 251.199 316.41 251.199 316.41C251.199 316.41 244.884 306.652 245.899 302.88C246.911 299.108 250.49 298.656 256.507 301.864C259.458 303.436 262.452 307.149 264.737 310.522C265.213 311.228 265.661 311.919 266.073 312.574Z" fill="url(#paint14_linear_2576_8460)"/>
</g>
<g style="mix-blend-mode:multiply" opacity="0.6">
<path d="M266.047 312.097L266.236 315.657C265.268 314.014 262.779 310.077 261.787 311.182C260.543 312.563 261.363 314.943 260.359 316.676C259.352 318.41 257.543 313.981 258.294 310.936C259.044 307.891 262.711 308.887 263.829 309.684C264.099 309.875 264.409 310.168 264.738 310.522C265.155 310.972 265.605 311.523 266.047 312.097Z" fill="url(#paint15_linear_2576_8460)"/>
</g>
<path d="M340.85 299.701C340.85 299.701 342.131 294.648 349.685 291.156C357.24 287.663 360.4 292.136 361.184 297.253C361.971 302.368 356.658 315.714 350.943 318.249C345.231 320.784 341.756 316.844 341.756 316.844L340.85 299.701Z" fill="url(#paint16_linear_2576_8460)"/>
<g style="mix-blend-mode:multiply" opacity="0.6">
<path d="M341.318 308.6L341.595 313.823C341.595 313.823 343.678 307.715 345.141 307.725C346.603 307.733 346.212 311.709 346.797 313.052C347.385 314.397 349.364 312.829 349.592 308.349C349.817 303.868 346.753 304.078 346.753 304.078C346.753 304.078 349.732 295.937 354.057 298.029C358.381 300.122 356.513 310.85 356.513 310.85C356.513 310.85 361.764 300.482 360.356 296.837C358.951 293.192 355.345 293.119 349.701 296.943C346.934 298.816 344.346 302.823 342.431 306.419C342.03 307.172 341.657 307.906 341.318 308.6Z" fill="url(#paint17_linear_2576_8460)"/>
</g>
<g style="mix-blend-mode:multiply" opacity="0.6">
<path d="M341.295 308.124L341.484 311.683C342.273 309.948 344.333 305.772 345.436 306.763C346.818 308.007 346.253 310.457 347.436 312.077C348.619 313.696 349.952 309.102 348.885 306.15C347.819 303.201 344.276 304.577 343.249 305.488C343 305.707 342.723 306.028 342.433 306.419C342.061 306.91 341.672 307.505 341.295 308.124Z" fill="url(#paint18_linear_2576_8460)"/>
</g>
<path d="M321.882 364.434C321.641 359.884 320.497 338.221 320.497 338.221L305.349 340.846L290.01 339.832C290.01 339.832 291.154 361.496 291.394 366.046C291.635 370.597 288.465 372.263 288.465 372.263C288.465 372.263 291.78 376.513 307.192 375.701C322.604 374.886 325.453 370.309 325.453 370.309C325.453 370.309 322.122 368.985 321.882 364.434Z" fill="url(#paint19_linear_2576_8460)"/>
<g style="mix-blend-mode:multiply" opacity="0.6">
<path d="M320.498 338.221C320.498 338.221 321.15 350.555 321.574 358.567C319.279 361.162 316.212 363.27 312.172 363.785C302.229 365.053 293.463 353.587 290.505 349.215C290.233 344.083 290.008 339.83 290.008 339.83L305.35 340.844L320.498 338.221Z" fill="#D077B7"/>
</g>
<path d="M340.871 286.409C340.188 273.477 340.444 243.419 300.192 245.545C259.938 247.672 263.362 277.533 264.047 290.465C264.762 303.98 261.863 323.982 265.983 330.328C275.862 345.549 298.127 349.57 305.671 349.171C313.215 348.773 334.931 342.432 343.151 326.253C346.575 319.509 341.585 299.923 340.871 286.409Z" fill="url(#paint20_linear_2576_8460)"/>
<g style="mix-blend-mode:multiply" opacity="0.6">
<path d="M343.148 326.253C334.929 342.432 313.212 348.776 305.668 349.174C298.121 349.572 275.859 345.555 265.98 330.33C264.549 328.126 263.729 319.755 263.586 315.911C263.809 319.095 264.663 326.916 265.9 328.827C275.779 344.049 298.044 348.069 305.588 347.671C313.132 347.272 334.848 340.932 343.068 324.753C344.098 322.722 344.121 314.855 344.007 311.666C344.274 315.499 344.339 323.91 343.148 326.253Z" fill="url(#paint21_linear_2576_8460)"/>
</g>
<path d="M297.353 278.658C295.436 282.766 292.568 283.136 292.568 283.136C292.141 283.235 291.61 283.307 290.997 283.359C286.952 283.703 279.41 283.144 275.932 283.328C271.928 283.54 266.876 286.975 266.876 286.975C266.876 286.975 266.511 285.837 267.461 284.016C267.782 283.4 268.253 282.707 268.936 281.954C269.1 281.776 269.255 281.607 269.405 281.452C269.868 280.966 270.269 280.583 270.611 280.283H270.614C271.892 279.165 272.376 279.183 272.376 279.183C272.397 279.315 272.19 279.509 272.19 279.509C272.19 279.509 273.072 279.341 274.423 279.101H274.426C275.298 278.943 276.372 278.759 277.526 278.57C277.529 278.57 277.529 278.57 277.529 278.57C280.194 278.136 283.3 277.683 285.453 277.543C289.982 277.251 294.545 277.592 294.545 277.592C294.703 278.588 293.813 279.745 293.813 279.745C295.451 278.951 296.215 277.714 296.215 277.714L297.366 277.417C297.371 277.417 297.519 278.296 297.353 278.658Z" fill="url(#paint22_linear_2576_8460)"/>
<g style="mix-blend-mode:multiply" opacity="0.6">
<path d="M290.996 283.359C286.951 283.703 279.409 283.144 275.931 283.328C271.927 283.54 266.875 286.975 266.875 286.975C266.875 286.975 266.511 285.837 267.46 284.016C270.305 282.756 273.193 282.039 274.251 281.566C275.429 281.041 272.29 281.214 269.404 281.452C269.867 280.966 270.268 280.583 270.61 280.283H270.613C274.924 279.693 282.228 281.452 282.435 281.504C278.441 279.577 274.554 279.116 274.425 279.101C275.297 278.943 276.371 278.759 277.525 278.57C277.528 278.57 277.528 278.57 277.528 278.57C286.431 280.084 290.996 283.359 290.996 283.359Z" fill="#F1ABD2"/>
</g>
<path d="M307.545 278.117C309.884 282.001 312.775 282.068 312.775 282.068C313.21 282.122 313.746 282.138 314.362 282.125C318.42 282.039 325.86 280.692 329.339 280.508C333.342 280.296 338.728 283.18 338.728 283.18C338.728 283.18 338.971 282.008 337.835 280.298C337.452 279.719 336.911 279.08 336.15 278.402C335.969 278.242 335.796 278.092 335.633 277.952C335.12 277.517 334.683 277.178 334.31 276.915H334.308C332.921 275.939 332.439 276.007 332.439 276.007C332.431 276.141 332.659 276.312 332.659 276.312C332.659 276.312 331.764 276.237 330.395 276.141H330.392C329.507 276.076 328.42 276.007 327.253 275.939C327.25 275.939 327.25 275.939 327.25 275.939C324.553 275.787 321.417 275.665 319.261 275.753C314.727 275.939 310.223 276.759 310.223 276.759C310.172 277.766 311.178 278.821 311.178 278.821C309.465 278.205 308.575 277.054 308.575 277.054L307.397 276.881C307.395 276.886 307.338 277.779 307.545 278.117Z" fill="url(#paint23_linear_2576_8460)"/>
<g style="mix-blend-mode:multiply" opacity="0.6">
<path d="M314.36 282.125C318.418 282.039 325.858 280.692 329.337 280.508C333.34 280.296 338.726 283.18 338.726 283.18C338.726 283.18 338.969 282.008 337.833 280.298C334.873 279.346 331.925 278.938 330.82 278.578C329.593 278.18 332.735 278.022 335.628 277.952C335.116 277.517 334.678 277.179 334.306 276.915H334.303C329.953 276.783 322.877 279.3 322.675 279.372C326.441 277.034 330.261 276.17 330.387 276.139C329.502 276.074 328.415 276.004 327.248 275.937C327.246 275.937 327.246 275.937 327.246 275.937C318.555 278.387 314.36 282.125 314.36 282.125Z" fill="#F1ABD2"/>
</g>
<path d="M292.838 310.167C292.838 310.167 285.884 314.195 279.825 314.26C272.201 314.34 268.407 307.617 267.778 302.944C267.149 298.272 274.028 291.249 282.154 293.388C290.283 295.525 292.437 304.975 292.838 310.167Z" fill="url(#paint24_linear_2576_8460)"/>
<mask id="mask3_2576_8460" style="mask-type:luminance" maskUnits="userSpaceOnUse" x="267" y="292" width="26" height="23">
<path d="M292.838 310.167C292.838 310.167 285.948 314.193 279.825 314.26C272.201 314.345 268.407 307.617 267.778 302.944C267.149 298.272 274.028 291.249 282.154 293.388C290.283 295.525 292.437 304.975 292.838 310.167Z" fill="white"/>
</mask>
<g mask="url(#mask3_2576_8460)">
<path d="M282.938 307.301C278.943 307.301 275.705 304.064 275.705 300.07C275.705 296.077 278.943 292.84 282.938 292.84C286.933 292.84 290.172 296.077 290.172 300.07C290.172 304.064 286.933 307.301 282.938 307.301Z" fill="url(#paint25_linear_2576_8460)"/>
</g>
<mask id="mask4_2576_8460" style="mask-type:luminance" maskUnits="userSpaceOnUse" x="267" y="292" width="26" height="23">
<path d="M292.838 310.167C292.838 310.167 285.948 314.193 279.825 314.26C272.201 314.345 268.407 307.617 267.778 302.944C267.149 298.272 274.028 291.249 282.154 293.388C290.283 295.525 292.437 304.975 292.838 310.167Z" fill="white"/>
</mask>
<g mask="url(#mask4_2576_8460)">
<path d="M282.938 306.721C279.263 306.721 276.284 303.744 276.284 300.07C276.284 296.397 279.263 293.419 282.938 293.419C286.613 293.419 289.592 296.397 289.592 300.07C289.592 303.744 286.613 306.721 282.938 306.721Z" fill="url(#paint26_linear_2576_8460)"/>
</g>
<mask id="mask5_2576_8460" style="mask-type:luminance" maskUnits="userSpaceOnUse" x="267" y="292" width="26" height="23">
<path d="M292.838 310.167C292.838 310.167 285.948 314.193 279.825 314.26C272.201 314.345 268.407 307.617 267.778 302.944C267.149 298.272 274.028 291.249 282.154 293.388C290.283 295.525 292.437 304.975 292.838 310.167Z" fill="white"/>
</mask>
<g mask="url(#mask5_2576_8460)">
<g style="mix-blend-mode:multiply">
<path d="M283.159 304.21C280.876 304.331 278.92 302.572 278.801 300.29C278.679 298.009 280.439 296.053 282.722 295.934C285.004 295.812 286.961 297.571 287.08 299.853C287.202 302.132 285.442 304.088 283.159 304.21Z" fill="url(#paint27_linear_2576_8460)"/>
</g>
</g>
<path d="M268.804 298.852C268.711 298.968 270.491 291.277 278.157 290.68C285.82 290.085 289.459 298.019 289.459 298.019C289.459 298.019 279.21 285.873 268.804 298.852Z" fill="#DC4C6A"/>
<g style="mix-blend-mode:multiply" opacity="0.6">
<path d="M292.236 305.883C292.236 305.883 288.026 299.706 280.818 298.707C273.61 297.709 268.017 300.554 268.017 300.554C268.998 297.918 270.981 294.263 278.732 293.567C290.127 292.545 292.236 305.883 292.236 305.883Z" fill="#D077B7"/>
</g>
<path d="M268.058 300.484C268.058 300.484 268.876 297.527 272.15 294.964C280.046 288.784 291.081 292.139 292.238 305.883C292.238 305.883 288.563 290.005 274.945 294.969C270.597 296.552 268.058 300.484 268.058 300.484Z" fill="#4E1B3D"/>
<path d="M268.549 305.813C268.549 305.813 270.873 312.19 279.828 314.26C279.826 314.26 269.988 315.46 268.549 305.813Z" fill="#DC6B7C"/>
<path d="M292.287 306.846C292.287 306.846 293.082 308.232 293.159 309.518C293.211 310.374 292.507 310.982 290.17 311.513C290.17 311.513 291.884 310.136 292.339 309.143C292.507 308.781 292.287 306.846 292.287 306.846Z" fill="#DC6B7C"/>
<path d="M273.966 300.21C273.966 300.21 275.174 299.002 278.787 299.957C278.785 299.954 277.258 301.116 273.966 300.21Z" fill="white"/>
<path d="M280.387 299.362C280.387 299.362 279.843 300.288 280.439 300.347C281.034 300.407 281.813 299.957 281.784 299.781C281.756 299.607 280.552 299 280.387 299.362Z" fill="white"/>
<path d="M315.558 308.967C315.558 308.967 322.897 312.24 328.93 311.666C336.518 310.944 339.585 303.855 339.717 299.145C339.849 294.434 332.269 288.173 324.411 291.156C316.554 294.139 315.41 303.762 315.558 308.967Z" fill="url(#paint28_linear_2576_8460)"/>
<mask id="mask6_2576_8460" style="mask-type:luminance" maskUnits="userSpaceOnUse" x="315" y="290" width="25" height="22">
<path d="M315.558 308.967C315.558 308.967 322.835 312.245 328.93 311.666C336.521 310.946 339.585 303.855 339.717 299.145C339.849 294.434 332.269 288.173 324.411 291.156C316.554 294.139 315.41 303.762 315.558 308.967Z" fill="white"/>
</mask>
<g mask="url(#mask6_2576_8460)">
<path d="M329.77 304.828C325.775 304.828 322.537 301.591 322.537 297.598C322.537 293.604 325.775 290.367 329.77 290.367C333.765 290.367 337.004 293.604 337.004 297.598C337.004 301.591 333.765 304.828 329.77 304.828Z" fill="url(#paint29_linear_2576_8460)"/>
</g>
<mask id="mask7_2576_8460" style="mask-type:luminance" maskUnits="userSpaceOnUse" x="315" y="290" width="25" height="22">
<path d="M315.558 308.967C315.558 308.967 322.835 312.245 328.93 311.666C336.521 310.946 339.585 303.855 339.717 299.145C339.849 294.434 332.269 288.173 324.411 291.156C316.554 294.139 315.41 303.762 315.558 308.967Z" fill="white"/>
</mask>
<g mask="url(#mask7_2576_8460)">
<path d="M330.122 304.238C333.787 304.044 336.61 300.906 336.416 297.246C336.222 293.583 333.086 290.76 329.421 290.954C325.756 291.148 322.933 294.286 323.127 297.947C323.318 301.61 326.458 304.432 330.122 304.238Z" fill="url(#paint30_linear_2576_8460)"/>
</g>
<mask id="mask8_2576_8460" style="mask-type:luminance" maskUnits="userSpaceOnUse" x="315" y="290" width="25" height="22">
<path d="M315.558 308.967C315.558 308.967 322.835 312.245 328.93 311.666C336.521 310.946 339.585 303.855 339.717 299.145C339.849 294.434 332.269 288.173 324.411 291.156C316.554 294.139 315.41 303.762 315.558 308.967Z" fill="white"/>
</mask>
<g mask="url(#mask8_2576_8460)">
<g style="mix-blend-mode:multiply">
<path d="M329.772 301.742C327.482 301.742 325.626 299.887 325.626 297.598C325.626 295.309 327.482 293.453 329.772 293.453C332.062 293.453 333.918 295.309 333.918 297.598C333.918 299.887 332.062 301.742 329.772 301.742Z" fill="url(#paint31_linear_2576_8460)"/>
</g>
</g>
<path d="M338.268 295.184C338.374 295.29 335.792 287.829 328.108 288.044C320.424 288.259 317.642 296.532 317.642 296.532C317.642 296.532 326.552 283.374 338.268 295.184Z" fill="#DC4C6A"/>
<g style="mix-blend-mode:multiply" opacity="0.6">
<path d="M315.704 304.644C315.704 304.644 319.242 298.058 326.302 296.307C333.365 294.555 339.225 296.796 339.225 296.796C337.972 294.276 335.614 290.851 327.832 290.975C316.395 291.159 315.704 304.644 315.704 304.644Z" fill="#D077B7"/>
</g>
<path d="M339.182 296.728C339.182 296.728 338.058 293.875 334.531 291.671C326.029 286.357 315.408 290.856 315.705 304.644C315.705 304.644 317.685 288.468 331.751 291.968C336.242 293.086 339.182 296.728 339.182 296.728Z" fill="#4E1B3D"/>
<path d="M339.254 302.078C339.254 302.078 337.616 308.665 328.93 311.665C328.93 311.665 338.84 311.826 339.254 302.078Z" fill="#DC6B7C"/>
<path d="M315.757 305.607C315.757 305.607 315.113 307.068 315.172 308.357C315.211 309.213 315.977 309.746 318.355 310.025C318.355 310.025 316.505 308.838 315.949 307.899C315.742 307.555 315.757 305.607 315.757 305.607Z" fill="#DC6B7C"/>
<path d="M338.711 296.79C338.711 296.79 337.383 295.717 333.889 297.044C333.892 297.044 335.533 298.04 338.711 296.79Z" fill="white"/>
<path d="M332.235 296.625C332.235 296.625 332.874 297.489 332.287 297.61C331.699 297.732 330.879 297.367 330.889 297.189C330.9 297.013 332.033 296.281 332.235 296.625Z" fill="white"/>
<path d="M311.446 313.595C309.508 312.597 303.871 313.052 303.871 313.052C303.871 313.052 298.219 313.194 296.394 314.389C294.895 315.372 293.467 321.475 294.745 321.871C296.024 322.267 298.62 322.28 300.628 323.081C302.636 323.883 304.435 323.702 304.435 323.702C304.435 323.702 306.241 323.692 308.154 322.683C310.067 321.674 312.647 321.39 313.876 320.859C315.106 320.329 313.043 314.415 311.446 313.595Z" fill="url(#paint32_linear_2576_8460)"/>
<g style="mix-blend-mode:multiply" opacity="0.6">
<path d="M313.875 320.862C312.646 321.39 310.066 321.677 308.153 322.683C306.241 323.692 304.434 323.702 304.434 323.702C304.434 323.702 302.636 323.884 300.627 323.079C298.619 322.277 296.023 322.267 294.745 321.871C293.88 321.602 294.253 318.733 295.045 316.593C295.019 316.715 294.364 319.594 295.252 320.471C296.16 321.369 304.302 321.253 304.302 321.253C304.302 321.253 312.413 320.51 313.221 319.522C314.01 318.557 313.058 315.76 313.016 315.644C314.033 317.688 314.704 320.502 313.875 320.862Z" fill="#D077B7"/>
</g>
<path d="M295.856 322.041C295.856 322.041 297.445 321.604 299.787 322.776C299.787 322.776 297.543 322.737 295.856 322.041Z" fill="url(#paint33_linear_2576_8460)"/>
<path d="M312.926 321.139C312.926 321.139 311.3 320.87 309.095 322.285C309.093 322.285 311.319 322.01 312.926 321.139Z" fill="url(#paint34_linear_2576_8460)"/>
<g style="mix-blend-mode:multiply" opacity="0.6">
<path d="M294.552 321.747C294.552 321.747 294.912 320.611 296.053 320.802C297.194 320.994 300.807 321.418 304.658 321.214C308.509 321.009 311.995 320.021 312.862 319.775C313.729 319.527 313.877 320.864 313.877 320.864C313.877 320.864 310.259 325.599 304.456 325.904C298.654 326.207 294.552 321.747 294.552 321.747Z" fill="#D077B7"/>
</g>
<g style="mix-blend-mode:multiply" opacity="0.6">
<path d="M296.811 314.164C298.287 313.975 298.734 317.463 298.734 317.463C298.734 317.463 298.921 314.544 298.08 313.737L296.811 314.164Z" fill="url(#paint35_linear_2576_8460)"/>
</g>
<g style="mix-blend-mode:multiply" opacity="0.6">
<path d="M311.141 313.406C309.652 313.375 309.577 316.888 309.577 316.888C309.577 316.888 309.086 314.006 309.836 313.116L311.141 313.406Z" fill="url(#paint36_linear_2576_8460)"/>
</g>
<path d="M306.661 317.724C306.216 318.58 306.844 319.235 307.321 319.312C307.797 319.392 308.338 318.735 308.428 318.443C308.516 318.151 306.839 317.377 306.661 317.724Z" fill="#FFCEBE"/>
<path d="M278.164 247.265C278.164 247.265 282.613 232.139 291.239 229.876C299.865 227.612 337.681 244.365 354.234 255.228C358.085 257.756 350.448 285.684 345.901 293.36L342.208 299.134C342.089 299.354 341.972 298.578 341.938 298.33C341.602 295.975 340.864 289.57 340.013 283.845C338.983 276.904 332.451 269.112 332.451 269.112C332.451 269.112 318.869 268.592 304.756 262.223C290.646 255.854 285.157 250.321 285.157 250.321C285.157 250.321 276.663 253.971 271.976 258.371C271.976 258.371 267.56 269.969 266.507 278.984C266.507 278.984 266.781 292.245 266.052 299.31C266 299.802 264.193 303.674 263.911 303.271C263.145 302.176 262.853 300.852 261.404 299.553C261.404 299.553 254.095 279.928 254.812 268.709C255.531 257.489 266.163 247.708 275.397 248.647C275.397 248.647 268.715 243.535 259.688 242.252C259.688 242.252 261.732 238.317 266.569 238.853C271.406 239.386 278.164 247.265 278.164 247.265Z" fill="url(#paint37_linear_2576_8460)"/>
<g style="mix-blend-mode:multiply" opacity="0.5">
<path d="M345.897 293.363L342.207 299.134C342.088 299.354 341.971 298.578 341.938 298.332C341.599 295.975 340.861 289.568 340.012 283.843C338.98 276.904 332.447 269.11 332.447 269.11C332.447 269.11 325.304 268.836 316 266.259C312.473 265.279 308.635 263.972 304.755 262.221C290.645 255.854 285.156 250.318 285.156 250.318C285.156 250.318 276.659 253.971 271.972 258.371C271.972 258.371 267.557 269.969 266.504 278.984C266.504 278.984 266.776 292.235 266.048 299.307C265.997 299.799 264.193 303.679 263.905 303.271C263.145 302.174 262.849 300.852 261.4 299.553C261.4 299.553 254.092 279.928 254.811 268.711C255.098 264.207 256.742 260.637 259.159 257.254C259.13 257.453 258.533 260.446 258.846 262.345C259.167 264.295 269.643 257.732 271.742 256.09C273.841 254.449 279.224 250.634 279.224 250.634C279.224 250.634 277.666 248.766 278.163 247.271C278.163 247.271 278.173 247.24 278.194 247.172C278.29 246.852 278.637 245.768 279.221 244.285C279.221 244.285 288.647 234.651 293.106 234.199C297.247 233.78 308.417 241.432 309.983 242.529C308.935 241.866 303.627 238.651 298 237.872C291.724 237.003 284.519 245.468 284.519 245.468C284.519 245.468 294.561 243.08 298.634 243.628C302.708 244.177 313.218 259.357 318.386 263.675C323.555 267.992 332.644 266.637 332.644 266.637C332.644 266.637 325.079 255.89 317.338 252.147C317.338 252.147 323.599 252.698 332.323 260.596C341.047 268.489 342.691 272.664 342.691 272.664C342.691 272.664 343.537 263.879 340.325 258.912C337.163 254.023 312.76 244.117 311.997 243.807C312.61 243.998 330.408 249.532 335.452 251.518C340.587 253.541 342.401 254.757 343.066 254.941C343.731 255.125 344.528 251.578 342.727 248.507C347.106 250.846 351.061 253.14 354.234 255.226C358.082 257.756 350.445 285.682 345.897 293.363Z" fill="url(#paint38_linear_2576_8460)"/>
</g>
<path opacity="0.5" d="M315.998 266.259C312.471 265.278 308.632 263.972 304.753 262.221C290.643 255.854 285.154 250.318 285.154 250.318C291.976 248.026 299.132 247.648 300.325 248.132C301.497 248.605 309.89 261.639 315.998 266.259Z" fill="url(#paint39_linear_2576_8460)"/>
<path opacity="0.5" d="M341.027 255.161C345.339 258.648 349.272 265.654 349.578 270.991C349.881 276.33 346.532 286.342 346.532 286.342C346.532 286.342 354.601 271.539 352.87 262.554C351.967 257.859 341.027 255.161 341.027 255.161Z" fill="url(#paint40_linear_2576_8460)"/>
<path d="M310.318 233.94C313.066 237.515 308.625 240.371 308.625 240.371C308.625 240.371 308.876 243.041 319.014 244.552C319.014 244.552 312.626 239.256 317.065 236.524L310.318 233.94Z" fill="#FFD8BA"/>
<path d="M308.793 243.53C308.793 243.53 310.545 246.07 307.24 249.294C307.24 249.294 308.739 252.82 313.749 256.599C313.749 256.599 313.902 249.162 318.625 247.49C318.622 247.493 316.624 246.942 308.793 243.53Z" fill="#FFD8BA"/>
<g style="mix-blend-mode:multiply" opacity="0.6">
<path d="M314.271 334.609C311.694 336.777 309.059 339.617 305.433 340.101C301.807 340.585 297.897 337.514 295.21 335.323C300.418 339.004 309.341 338.803 314.271 334.609Z" fill="#CE77B5"/>
</g>
<path d="M319.42 331.212C317.15 333.934 312.096 337.522 305.121 337.897C297.905 338.285 291.629 334.961 289.065 332.48C289.065 332.48 299.422 333.613 304.337 335.186C309.153 333.023 319.42 331.212 319.42 331.212Z" fill="#FF6563"/>
<g style="mix-blend-mode:multiply" opacity="0.6">
<path d="M312.945 333.936C309.296 336.942 301.692 337.9 296.63 334.8L312.71 333.626L312.945 333.936Z" fill="#CE77B5"/>
</g>
<path d="M288.119 332.226C288.422 332.519 297.767 335.957 304.589 335.595C312.017 335.199 319.949 331.163 320.49 330.514C317.002 331.681 310.076 332.596 305.622 332.806C305.234 332.824 304.822 332.842 304.408 332.855C302.941 332.902 301.445 333.008 299.97 333.054C296.121 333.173 291.853 332.925 288.119 332.226Z" fill="#812751"/>
<path d="M296.189 330.848C299.597 329.637 308.963 329.138 312.465 330.004C315.967 330.871 315.938 330.716 319.184 330.899C314.849 332.364 309.497 332.801 304.414 332.852C299.261 333.189 295.071 333.546 289.338 332.436C292.558 331.849 292.78 332.058 296.189 330.848Z" fill="#D93F57"/>
<path d="M292.511 332.917C296.593 335.251 300.48 335.814 304.879 335.579C308.687 335.416 312.349 334.278 315.597 332.327C315.964 332.107 316.326 331.864 316.684 331.605C312.675 332.402 308.513 332.687 304.46 332.842C300.56 332.992 296.823 333.318 292.959 332.961C292.951 332.961 292.946 332.958 292.946 332.958C292.801 332.948 292.656 332.933 292.511 332.917Z" fill="#FFDDEB"/>
<path d="M289.697 331.003C288.533 332.045 287.632 333.096 287.024 334.529C287.076 333.411 287.189 331.836 287.868 331C288.548 330.165 288.993 330.734 289.697 331.003Z" fill="#DA6B7C"/>
<path d="M318.751 329.453C320.035 330.346 321.021 331.313 321.779 332.669C321.611 331.562 321.337 330.027 320.576 329.264C319.815 328.499 319.429 329.107 318.751 329.453Z" fill="#DA6B7C"/>
<path d="M299.721 335.853C299.118 336.454 299.146 336.446 298.823 337.232C298.559 337.124 298.297 337.012 298.033 336.901C298.062 336.089 298.062 336.125 298.543 335.512C298.913 335.603 299.348 335.763 299.721 335.853Z" fill="#FFDDEB"/>
<g style="mix-blend-mode:multiply" opacity="0.6">
<path d="M292.959 332.961C293.332 333.018 301.406 334.205 315.597 332.327C315.964 332.107 316.326 331.864 316.684 331.605C312.675 332.402 308.513 332.687 304.46 332.842C300.56 332.992 296.823 333.315 292.959 332.961Z" fill="#CE77B5"/>
</g>
</g>
<mask id="mask9_2576_8460" style="mask-type:luminance" maskUnits="userSpaceOnUse" x="231" y="219" width="144" height="144">
<path d="M373.63 300.854C372.931 307.891 371.324 314.86 368.803 321.579C367.745 324.398 366.526 327.177 365.146 329.896C353.893 344.246 338.846 354.526 322.363 359.467C313.892 362.005 305.044 363.136 296.131 362.68C270.615 361.382 249.287 347.288 237.615 324.015C229.566 307.966 228.862 289.097 235.635 270.882C243.156 250.652 259.114 233.8 278.322 225.804C307.202 213.782 333.088 218.827 355.423 240.782C369.634 258.035 375.729 279.729 373.63 300.854Z" fill="white"/>
</mask>
<g mask="url(#mask9_2576_8460)">
<path opacity="0.1" d="M373.63 300.854C372.931 307.891 371.324 314.86 368.803 321.579C367.745 324.398 366.526 327.177 365.146 329.896C353.893 344.246 338.846 354.526 322.363 359.467C313.892 362.005 305.044 363.136 296.131 362.68C270.615 361.382 249.287 347.288 237.615 324.015C229.566 307.966 228.862 289.097 235.635 270.882C243.156 250.652 259.114 233.8 278.322 225.804C307.202 213.782 333.088 218.827 355.423 240.782C369.634 258.035 375.729 279.729 373.63 300.854Z" fill="#371A45"/>
</g>
<mask id="mask10_2576_8460" style="mask-type:luminance" maskUnits="userSpaceOnUse" x="231" y="219" width="144" height="144">
<path d="M373.63 300.854C372.931 307.891 371.324 314.86 368.803 321.579C367.745 324.398 366.526 327.177 365.146 329.896C353.893 344.246 338.846 354.526 322.363 359.467C313.892 362.005 305.044 363.136 296.131 362.68C270.615 361.382 249.287 347.288 237.615 324.015C229.566 307.966 228.862 289.097 235.635 270.882C243.156 250.652 259.114 233.8 278.322 225.804C307.202 213.782 333.088 218.827 355.423 240.782C369.634 258.035 375.729 279.729 373.63 300.854Z" fill="white"/>
</mask>
<g mask="url(#mask10_2576_8460)">
<g opacity="0.1">
<path d="M239.247 323.201C265.552 375.662 336.788 371.885 368.8 321.581L369.346 319.83C323.183 349.634 260.849 341.195 233.248 288.646C231.972 300.28 233.727 312.185 239.247 323.201Z" fill="#220F30"/>
</g>
</g>
<mask id="mask11_2576_8460" style="mask-type:luminance" maskUnits="userSpaceOnUse" x="231" y="219" width="144" height="144">
<path d="M373.63 300.854C372.931 307.891 371.324 314.86 368.803 321.579C367.745 324.398 366.526 327.177 365.146 329.896C353.893 344.246 338.846 354.526 322.363 359.467C313.892 362.005 305.044 363.136 296.131 362.68C270.615 361.382 249.287 347.288 237.615 324.015C229.566 307.966 228.862 289.097 235.635 270.882C243.156 250.652 259.114 233.8 278.322 225.804C307.202 213.782 333.088 218.827 355.423 240.782C369.634 258.035 375.729 279.729 373.63 300.854Z" fill="white"/>
</mask>
<g mask="url(#mask11_2576_8460)">
<g opacity="0.5">
<path d="M243.191 296.192C242.414 289.108 246.784 282.818 252.953 282.141C259.122 281.465 264.753 286.66 265.53 293.743C266.308 300.827 261.937 307.118 255.768 307.794C249.599 308.47 243.968 303.276 243.191 296.192Z" fill="white"/>
</g>
</g>
<mask id="mask12_2576_8460" style="mask-type:luminance" maskUnits="userSpaceOnUse" x="231" y="219" width="144" height="144">
<path d="M373.63 300.854C372.931 307.891 371.324 314.86 368.803 321.579C367.745 324.398 366.526 327.177 365.146 329.896C353.893 344.246 338.846 354.526 322.363 359.467C313.892 362.005 305.044 363.136 296.131 362.68C270.615 361.382 249.287 347.288 237.615 324.015C229.566 307.966 228.862 289.097 235.635 270.882C243.156 250.652 259.114 233.8 278.322 225.804C307.202 213.782 333.088 218.827 355.423 240.782C369.634 258.035 375.729 279.729 373.63 300.854Z" fill="white"/>
</mask>
<g mask="url(#mask12_2576_8460)">
<g opacity="0.5">
<path d="M252.459 318.307C252.412 315.364 254.449 312.945 257.01 312.903C259.571 312.862 261.686 315.214 261.734 318.157C261.782 321.1 259.744 323.519 257.183 323.56C254.622 323.602 252.507 321.25 252.459 318.307Z" fill="white"/>
</g>
</g>
<mask id="mask13_2576_8460" style="mask-type:luminance" maskUnits="userSpaceOnUse" x="231" y="219" width="144" height="144">
<path d="M373.63 300.854C372.931 307.891 371.324 314.86 368.803 321.579C367.745 324.398 366.526 327.177 365.146 329.896C353.893 344.246 338.846 354.526 322.363 359.467C313.892 362.005 305.044 363.136 296.131 362.68C270.615 361.382 249.287 347.288 237.615 324.015C229.566 307.966 228.862 289.097 235.635 270.882C243.156 250.652 259.114 233.8 278.322 225.804C307.202 213.782 333.088 218.827 355.423 240.782C369.634 258.035 375.729 279.729 373.63 300.854Z" fill="white"/>
</mask>
<g mask="url(#mask13_2576_8460)">
<g opacity="0.5">
<path d="M295.041 232.072C329.553 224.291 359.802 251.769 365.188 287.149C347.11 257.163 322.291 238.493 295.041 232.072Z" fill="white"/>
</g>
</g>
<path d="M206.137 333.523C211.626 348.915 225.459 358.57 237.041 355.082C248.622 351.595 253.558 336.285 248.068 320.893C248.035 320.795 247.996 320.694 247.96 320.598C242.403 305.376 228.663 295.869 217.167 299.333C208.223 302.026 203.241 311.777 203.965 323.167C204.18 326.52 204.889 330.022 206.137 333.523Z" fill="url(#paint41_linear_2576_8460)"/>
<path d="M303.19 459.148L305.91 459.593L310.812 435.767L323.796 431.095L328.535 407.272L325.818 406.827L321.348 429.217L308.315 434.044L303.19 459.148Z" fill="#0876E4"/>
<path fill-rule="evenodd" clip-rule="evenodd" d="M282.448 415.195L291.237 412.132C292.339 411.747 293.563 411.993 294.433 412.771L301.372 418.972C302.218 419.728 302.601 420.874 302.378 421.986L300.489 431.449C300.266 432.562 299.474 433.472 298.4 433.845L289.611 436.908C288.509 437.293 287.285 437.048 286.415 436.269L279.477 430.068C278.63 429.313 278.247 428.166 278.47 427.054L280.359 417.591C280.582 416.481 281.376 415.568 282.448 415.195ZM290.53 410.115C292.368 409.473 294.407 409.882 295.859 411.178L302.798 417.379C304.208 418.639 304.845 420.55 304.475 422.403L302.585 431.866C302.215 433.718 300.893 435.237 299.107 435.86L290.318 438.923C288.48 439.565 286.441 439.156 284.989 437.86L278.051 431.659C276.64 430.399 276.003 428.487 276.374 426.635L278.263 417.172C278.633 415.32 279.955 413.801 281.741 413.178L290.53 410.115Z" fill="#0876E4"/>
<path fill-rule="evenodd" clip-rule="evenodd" d="M291.64 417.376C294.052 417.858 295.618 420.201 295.139 422.61C295.056 423.026 294.653 423.295 294.236 423.213C293.819 423.13 293.55 422.726 293.633 422.31C293.949 420.732 292.921 419.195 291.342 418.879C289.761 418.564 288.224 419.588 287.908 421.166L287.639 422.519L294.42 423.872C295.168 424.022 295.654 424.749 295.504 425.497L294.722 429.408C294.474 430.655 293.26 431.462 292.013 431.214L285.988 430.011C284.74 429.763 283.93 428.549 284.179 427.305L284.96 423.394C285.077 422.804 285.556 422.377 286.12 422.297L286.404 420.866C286.881 418.458 289.228 416.895 291.64 417.376ZM286.58 423.875C286.583 423.875 286.583 423.875 286.58 423.875C286.583 423.877 286.583 423.877 286.58 423.875L293.964 425.347L293.214 429.108C293.131 429.525 292.727 429.794 292.31 429.711L286.285 428.508C285.869 428.425 285.6 428.022 285.682 427.605L286.433 423.844L286.58 423.875ZM289.867 426.252C290.201 426.319 290.416 426.643 290.349 426.974C290.281 427.305 289.958 427.522 289.627 427.455C289.293 427.388 289.078 427.065 289.145 426.733C289.213 426.402 289.536 426.185 289.867 426.252ZM290.952 427.096C291.084 426.431 290.651 425.784 289.986 425.652C289.321 425.52 288.674 425.95 288.54 426.614C288.408 427.279 288.84 427.926 289.505 428.058C290.173 428.19 290.82 427.758 290.952 427.096Z" fill="#0876E4"/>
<path d="M392.889 331.326C392.889 331.326 397.141 332.04 401.883 331.073C406.942 330.043 410.667 325.513 413.086 320.065C416.011 313.471 417.028 305.537 416.184 300.808C414.321 290.367 408.092 290.367 408.092 290.367C404.794 302.267 394.416 295.145 394.416 295.145C394.416 295.145 385.557 295.466 382.804 311.973C380.047 328.483 392.889 331.326 392.889 331.326Z" fill="url(#paint42_linear_2576_8460)"/>
<path d="M253.376 491.979C257.351 498.206 263.221 502.508 269.453 505.475L291.809 486.065C291.809 486.065 275.638 483.897 264.06 480.708C264.005 480.793 263.951 480.879 263.896 480.964C261.12 485.302 258.793 486.616 255.754 489.509C255.219 490.016 254.662 490.572 254.075 491.206C253.847 491.451 253.614 491.71 253.376 491.979Z" fill="url(#paint43_linear_2576_8460)"/>
</g>
</g>
<defs>
<filter id="filter0_f_2576_8460" x="-407" y="148" width="1317" height="1317" filterUnits="userSpaceOnUse" color-interpolation-filters="sRGB">
<feFlood flood-opacity="0" result="BackgroundImageFix"/>
<feBlend mode="normal" in="SourceGraphic" in2="BackgroundImageFix" result="shape"/>
<feGaussianBlur stdDeviation="100" result="effect1_foregroundBlur_2576_8460"/>
</filter>
<filter id="filter1_f_2576_8460" x="155" y="-326" width="1453" height="1453" filterUnits="userSpaceOnUse" color-interpolation-filters="sRGB">
<feFlood flood-opacity="0" result="BackgroundImageFix"/>
<feBlend mode="normal" in="SourceGraphic" in2="BackgroundImageFix" result="shape"/>
<feGaussianBlur stdDeviation="100" result="effect1_foregroundBlur_2576_8460"/>
</filter>
<filter id="filter2_f_2576_8460" x="-240" y="-760" width="1453" height="1453" filterUnits="userSpaceOnUse" color-interpolation-filters="sRGB">
<feFlood flood-opacity="0" result="BackgroundImageFix"/>
<feBlend mode="normal" in="SourceGraphic" in2="BackgroundImageFix" result="shape"/>
<feGaussianBlur stdDeviation="100" result="effect1_foregroundBlur_2576_8460"/>
</filter>
<filter id="filter3_d_2576_8460" x="45" y="162.077" width="615.131" height="651.923" filterUnits="userSpaceOnUse" color-interpolation-filters="sRGB">
<feFlood flood-opacity="0" result="BackgroundImageFix"/>
<feColorMatrix in="SourceAlpha" type="matrix" values="0 0 0 0 0 0 0 0 0 0 0 0 0 0 0 0 0 0 127 0" result="hardAlpha"/>
<feOffset dy="131"/>
<feGaussianBlur stdDeviation="67.5"/>
<feComposite in2="hardAlpha" operator="out"/>
<feColorMatrix type="matrix" values="0 0 0 0 0.283929 0 0 0 0 0.481548 0 0 0 0 0.679167 0 0 0 0.15 0"/>
<feBlend mode="normal" in2="BackgroundImageFix" result="effect1_dropShadow_2576_8460"/>
<feBlend mode="normal" in="SourceGraphic" in2="effect1_dropShadow_2576_8460" result="shape"/>
</filter>
<linearGradient id="paint0_linear_2576_8460" x1="262.219" y1="406.153" x2="190.203" y2="406.153" gradientUnits="userSpaceOnUse">
<stop stop-color="#84BCFD"/>
<stop offset="1" stop-color="#D0E5FD"/>
</linearGradient>
<linearGradient id="paint1_linear_2576_8460" x1="287.253" y1="522.218" x2="238.364" y2="522.218" gradientUnits="userSpaceOnUse">
<stop stop-color="#B4D6FE"/>
<stop offset="1" stop-color="#D0E5FD"/>
</linearGradient>
<linearGradient id="paint2_linear_2576_8460" x1="233.132" y1="505.83" x2="179.999" y2="505.83" gradientUnits="userSpaceOnUse">
<stop stop-color="#B4D6FE"/>
<stop offset="1" stop-color="#D0E5FD"/>
</linearGradient>
<linearGradient id="paint3_linear_2576_8460" x1="406.604" y1="295.123" x2="386.203" y2="315.236" gradientUnits="userSpaceOnUse">
<stop stop-color="#B4D6FE"/>
<stop offset="1" stop-color="#D0E5FD"/>
</linearGradient>
<linearGradient id="paint4_linear_2576_8460" x1="287.633" y1="412.2" x2="261.605" y2="454.124" gradientUnits="userSpaceOnUse">
<stop stop-color="#B4D6FE"/>
<stop offset="1" stop-color="#D0E5FD"/>
</linearGradient>
<linearGradient id="paint5_linear_2576_8460" x1="345.473" y1="437.723" x2="325.429" y2="437.723" gradientUnits="userSpaceOnUse">
<stop stop-color="#9AC9FD"/>
<stop offset="1" stop-color="#D0E5FD"/>
</linearGradient>
<linearGradient id="paint6_linear_2576_8460" x1="340.903" y1="430.253" x2="254.56" y2="430.253" gradientUnits="userSpaceOnUse">
<stop stop-color="#84BCFD"/>
<stop offset="1" stop-color="#D0E5FD"/>
</linearGradient>
<linearGradient id="paint7_linear_2576_8460" x1="323.937" y1="430.252" x2="254.565" y2="430.252" gradientUnits="userSpaceOnUse">
<stop stop-color="#84BCFD"/>
<stop offset="1" stop-color="#D0E5FD"/>
</linearGradient>
<linearGradient id="paint8_linear_2576_8460" x1="269.291" y1="417.937" x2="217.462" y2="417.937" gradientUnits="userSpaceOnUse">
<stop stop-color="#9AC9FD"/>
<stop offset="1" stop-color="#D0E5FD"/>
</linearGradient>
<linearGradient id="paint9_linear_2576_8460" x1="242.517" y1="439.591" x2="199.12" y2="439.591" gradientUnits="userSpaceOnUse">
<stop stop-color="#84BCFD"/>
<stop offset="1" stop-color="#B4D6FE"/>
</linearGradient>
<linearGradient id="paint10_linear_2576_8460" x1="214.503" y1="396.843" x2="244.273" y2="386.361" gradientUnits="userSpaceOnUse">
<stop stop-color="#84BCFD"/>
<stop offset="1" stop-color="#B4D6FE"/>
</linearGradient>
<linearGradient id="paint11_linear_2576_8460" x1="209.578" y1="317.401" x2="370.661" y2="269.084" gradientUnits="userSpaceOnUse">
<stop stop-color="#9AC9FD"/>
<stop offset="1" stop-color="#D0E5FD"/>
</linearGradient>
<linearGradient id="paint12_linear_2576_8460" x1="305.677" y1="363.639" x2="306.674" y2="382.494" gradientUnits="userSpaceOnUse">
<stop stop-color="#64B3C5"/>
<stop offset="1" stop-color="#46408D"/>
</linearGradient>
<linearGradient id="paint13_linear_2576_8460" x1="256.404" y1="323.761" x2="254.885" y2="295.023" gradientUnits="userSpaceOnUse">
<stop stop-color="#FFB29C"/>
<stop offset="0.2186" stop-color="#FF9B8E"/>
<stop offset="0.479" stop-color="#FF8781"/>
<stop offset="0.7398" stop-color="#FF7B7A"/>
<stop offset="1" stop-color="#FF7777"/>
</linearGradient>
<linearGradient id="paint14_linear_2576_8460" x1="256.442" y1="318.179" x2="255.444" y2="299.283" gradientUnits="userSpaceOnUse">
<stop stop-color="#FFE9DA"/>
<stop offset="0.9944" stop-color="#D077F3"/>
</linearGradient>
<linearGradient id="paint15_linear_2576_8460" x1="262.3" y1="316.795" x2="261.87" y2="308.675" gradientUnits="userSpaceOnUse">
<stop stop-color="#FFE9DA"/>
<stop offset="0.9944" stop-color="#D077F3"/>
</linearGradient>
<linearGradient id="paint16_linear_2576_8460" x1="352.096" y1="318.745" x2="350.577" y2="290.006" gradientUnits="userSpaceOnUse">
<stop stop-color="#FFB29C"/>
<stop offset="0.2186" stop-color="#FF9B8E"/>
<stop offset="0.479" stop-color="#FF8781"/>
<stop offset="0.7398" stop-color="#FF7B7A"/>
<stop offset="1" stop-color="#FF7777"/>
</linearGradient>
<linearGradient id="paint17_linear_2576_8460" x1="351.469" y1="313.197" x2="350.47" y2="294.302" gradientUnits="userSpaceOnUse">
<stop stop-color="#FFE9DA"/>
<stop offset="0.9944" stop-color="#D077F3"/>
</linearGradient>
<linearGradient id="paint18_linear_2576_8460" x1="345.499" y1="312.438" x2="345.07" y2="304.318" gradientUnits="userSpaceOnUse">
<stop stop-color="#FFE9DA"/>
<stop offset="0.9944" stop-color="#D077F3"/>
</linearGradient>
<linearGradient id="paint19_linear_2576_8460" x1="306.949" y1="371.316" x2="305.471" y2="343.36" gradientUnits="userSpaceOnUse">
<stop stop-color="#FFB29C"/>
<stop offset="0.2186" stop-color="#FF9B8E"/>
<stop offset="0.479" stop-color="#FF8781"/>
<stop offset="0.7398" stop-color="#FF7B7A"/>
<stop offset="1" stop-color="#FF7777"/>
</linearGradient>
<linearGradient id="paint20_linear_2576_8460" x1="305.65" y1="349.029" x2="300.173" y2="245.403" gradientUnits="userSpaceOnUse">
<stop stop-color="#FFA995"/>
<stop offset="0.4274" stop-color="#F8AA98"/>
<stop offset="0.5417" stop-color="#FBA28F"/>
<stop offset="0.771" stop-color="#FE9883"/>
<stop offset="1" stop-color="#FF957F"/>
</linearGradient>
<linearGradient id="paint21_linear_2576_8460" x1="305.649" y1="349.029" x2="303.779" y2="313.643" gradientUnits="userSpaceOnUse">
<stop offset="0.005587" stop-color="#D077F3"/>
<stop offset="0.1573" stop-color="#D480F1"/>
<stop offset="0.4008" stop-color="#DD97EC"/>
<stop offset="0.7036" stop-color="#EDBDE4"/>
<stop offset="1" stop-color="#FFE9DA"/>
</linearGradient>
<linearGradient id="paint22_linear_2576_8460" x1="281.955" y1="279.384" x2="282.292" y2="285.751" gradientUnits="userSpaceOnUse">
<stop stop-color="#ED9963"/>
<stop offset="1" stop-color="#CE635E"/>
</linearGradient>
<linearGradient id="paint23_linear_2576_8460" x1="322.908" y1="277.242" x2="323.245" y2="283.609" gradientUnits="userSpaceOnUse">
<stop stop-color="#ED9963"/>
<stop offset="1" stop-color="#CE635E"/>
</linearGradient>
<linearGradient id="paint24_linear_2576_8460" x1="280.688" y1="314.084" x2="279.564" y2="292.81" gradientUnits="userSpaceOnUse">
<stop stop-color="#EDE1FF"/>
<stop offset="0.996" stop-color="#BCC8FA"/>
</linearGradient>
<linearGradient id="paint25_linear_2576_8460" x1="283.307" y1="307.263" x2="282.611" y2="294.077" gradientUnits="userSpaceOnUse">
<stop stop-color="#781813"/>
<stop offset="1" stop-color="#45000A"/>
</linearGradient>
<linearGradient id="paint26_linear_2576_8460" x1="283.229" y1="305.779" x2="282.64" y2="294.649" gradientUnits="userSpaceOnUse">
<stop stop-color="#AA4B15"/>
<stop offset="1" stop-color="#85171B"/>
</linearGradient>
<linearGradient id="paint27_linear_2576_8460" x1="283.139" y1="304.067" x2="282.702" y2="295.789" gradientUnits="userSpaceOnUse">
<stop stop-color="#9987A4"/>
<stop offset="0.9944" stop-color="#534181"/>
</linearGradient>
<linearGradient id="paint28_linear_2576_8460" x1="328.032" y1="311.592" x2="326.907" y2="290.318" gradientUnits="userSpaceOnUse">
<stop stop-color="#EDE1FF"/>
<stop offset="0.996" stop-color="#BCC8FA"/>
</linearGradient>
<linearGradient id="paint29_linear_2576_8460" x1="330.141" y1="304.797" x2="329.444" y2="291.611" gradientUnits="userSpaceOnUse">
<stop stop-color="#781813"/>
<stop offset="1" stop-color="#45000A"/>
</linearGradient>
<linearGradient id="paint30_linear_2576_8460" x1="330.062" y1="303.314" x2="329.474" y2="292.184" gradientUnits="userSpaceOnUse">
<stop stop-color="#AA4B15"/>
<stop offset="1" stop-color="#85171B"/>
</linearGradient>
<linearGradient id="paint31_linear_2576_8460" x1="329.973" y1="301.601" x2="329.536" y2="293.324" gradientUnits="userSpaceOnUse">
<stop stop-color="#9987A4"/>
<stop offset="0.9944" stop-color="#534181"/>
</linearGradient>
<linearGradient id="paint32_linear_2576_8460" x1="304.346" y1="322.261" x2="303.992" y2="315.553" gradientUnits="userSpaceOnUse">
<stop stop-color="#F87A7E"/>
<stop offset="0.0566" stop-color="#F97C7E"/>
<stop offset="0.5286" stop-color="#FD887F"/>
<stop offset="1" stop-color="#FF8C7F"/>
</linearGradient>
<linearGradient id="paint33_linear_2576_8460" x1="295.86" y1="322.347" x2="299.741" y2="322.141" gradientUnits="userSpaceOnUse">
<stop stop-color="#91314B"/>
<stop offset="1" stop-color="#992542"/>
</linearGradient>
<linearGradient id="paint34_linear_2576_8460" x1="312.931" y1="321.455" x2="309.051" y2="321.661" gradientUnits="userSpaceOnUse">
<stop stop-color="#91314B"/>
<stop offset="1" stop-color="#992542"/>
</linearGradient>
<linearGradient id="paint35_linear_2576_8460" x1="297.689" y1="313.811" x2="297.886" y2="317.521" gradientUnits="userSpaceOnUse">
<stop stop-color="#FFE9DA"/>
<stop offset="0.9944" stop-color="#D077F3"/>
</linearGradient>
<linearGradient id="paint36_linear_2576_8460" x1="310.208" y1="313.16" x2="310.404" y2="316.871" gradientUnits="userSpaceOnUse">
<stop stop-color="#FFE9DA"/>
<stop offset="0.9944" stop-color="#D077F3"/>
</linearGradient>
<linearGradient id="paint37_linear_2576_8460" x1="254.556" y1="267.604" x2="355.458" y2="262.267" gradientUnits="userSpaceOnUse">
<stop stop-color="#FEDAB6"/>
<stop offset="1" stop-color="#F4B995"/>
</linearGradient>
<linearGradient id="paint38_linear_2576_8460" x1="307.026" y1="303.108" x2="304.037" y2="246.564" gradientUnits="userSpaceOnUse">
<stop stop-color="#FFE9DA"/>
<stop offset="0.9944" stop-color="#EA7052"/>
</linearGradient>
<linearGradient id="paint39_linear_2576_8460" x1="296.945" y1="286.608" x2="301.448" y2="251.071" gradientUnits="userSpaceOnUse">
<stop stop-color="#FFE9DA"/>
<stop offset="0.9944" stop-color="#EA7052"/>
</linearGradient>
<linearGradient id="paint40_linear_2576_8460" x1="343.028" y1="292.447" x2="347.53" y2="256.911" gradientUnits="userSpaceOnUse">
<stop stop-color="#FFE9DA"/>
<stop offset="0.9944" stop-color="#EA7052"/>
</linearGradient>
<linearGradient id="paint41_linear_2576_8460" x1="206.194" y1="333.567" x2="248.241" y2="320.955" gradientUnits="userSpaceOnUse">
<stop stop-color="#9AC9FD"/>
<stop offset="1" stop-color="#D0E5FD"/>
</linearGradient>
<linearGradient id="paint42_linear_2576_8460" x1="394.895" y1="330.519" x2="400.363" y2="306.866" gradientUnits="userSpaceOnUse">
<stop stop-color="#84BCFD"/>
<stop offset="1" stop-color="#B4D6FE"/>
</linearGradient>
<linearGradient id="paint43_linear_2576_8460" x1="260.309" y1="486.322" x2="273.147" y2="492.296" gradientUnits="userSpaceOnUse">
<stop stop-color="#B4D6FE"/>
<stop offset="1" stop-color="#D0E5FD"/>
</linearGradient>
</defs>
</svg>
