<svg width="167" height="163" viewBox="0 0 167 163" xmlns="http://www.w3.org/2000/svg" fill="none">
<g fill="#F1EDF6">
  <path d="M47.4959 118.262C36.5 118.262 29.2802 112.307 26.5653 102.175C23.8504 92.0427 32.2504 78.5202 42.3825 75.8053L39.0934 81.7822C39.0934 81.7822 56.7442 70.9666 58.7027 59.3022C58.7027 59.3022 61.3906 68.5683 56.5265 72.2626C56.5265 72.2626 67.1521 63.2441 74.3797 62.9742L66.6891 67.9446C86.7421 66.2378 98.0841 66.8163 116.444 52.1432C116.444 52.1432 110.274 60.7821 103.724 64.9649L139.05 56.0893C139.05 56.0893 127.03 68.3455 106.33 83.3883C106.33 83.3883 112.77 81.977 118.557 83.0381C106.519 85.6164 81.3288 97.946 77.0076 101.939L87.415 98.4637C84.3876 103.965 77.9303 106.694 67.8766 108.241L80.5924 109.575C72.2781 109.247 56.7619 115.574 56.7619 115.574L61.1634 116.581C56.1092 118.047 52.8736 118.262 47.4959 118.262Z" stroke="#D9D9D9" stroke-linejoin="round"/>
</g>
  <rect x="29.293" y="82.1725" width="32.2623" height="32.2623" rx="16.1311" fill="url(#paint0_linear_2440_9486)"/>
  <path d="M45.4245 102.489C43.1173 102.489 41.2389 100.611 41.2389 98.3036C41.2389 95.9964 43.1173 94.118 45.4245 94.118C47.7318 94.118 49.6101 95.9964 49.6101 98.3036C49.6101 100.611 47.7318 102.489 45.4245 102.489Z" stroke="white" stroke-width="1.5"/>
  <path d="M49.21 106.654L41.6383 106.654C39.1222 106.654 37.0741 104.606 37.0741 102.089L37.0741 94.5178C37.0741 92.0017 39.1222 89.9536 41.6383 89.9536L49.21 89.9536C51.7261 89.9536 53.7741 92.0017 53.7741 94.5178L53.7741 102.089C53.7741 104.606 51.7261 106.654 49.21 106.654Z" stroke="white" stroke-width="1.5"/>
  <path d="M51.0712 93.3628C51.0712 93.7526 50.7551 94.0687 50.3653 94.0687C49.9754 94.0687 49.6593 93.7526 49.6593 93.3628C49.6593 92.973 49.9754 92.6569 50.3653 92.6569C50.7551 92.6569 51.0712 92.973 51.0712 93.3628Z" fill="white"/>
  <path d="M47.4959 118.262C36.5 118.262 29.2802 112.307 26.5653 102.175C23.8504 92.0427 32.2504 78.5202 42.3825 75.8053L39.0934 81.7822C39.0934 81.7822 56.7442 70.9666 58.7027 59.3022C58.7027 59.3022 61.3906 68.5683 56.5265 72.2626C56.5265 72.2626 67.1521 63.2441 74.3797 62.9742L66.6891 67.9446C86.7421 66.2378 98.0841 66.8163 116.444 52.1432C116.444 52.1432 110.274 60.7821 103.724 64.9649L139.05 56.0893C139.05 56.0893 127.03 68.3455 106.33 83.3883C106.33 83.3883 112.77 81.977 118.557 83.0381C106.519 85.6164 81.3288 97.946 77.0076 101.939L87.415 98.4637C84.3876 103.965 77.9303 106.694 67.8766 108.241L80.5924 109.575C72.2781 109.247 56.7619 115.574 56.7619 115.574L61.1634 116.581C56.1092 118.047 52.8736 118.262 47.4959 118.262Z" stroke="#053D75" stroke-linejoin="round"/>
<defs>
<linearGradient id="paint0_linear_2440_9486" x1="32.2463" y1="111.482" x2="58.602" y2="85.1256" gradientUnits="userSpaceOnUse">
<stop stop-color="#FFC107"/>
<stop offset="0.507" stop-color="#F44336"/>
<stop offset="0.99" stop-color="#9C27B0"/>
</linearGradient>
</defs>
</svg>
