<svg width="157" height="156" viewBox="0 0 157 156" fill="none" xmlns="http://www.w3.org/2000/svg">
<g fill="#F1EDF6">
  <path d="M109.668 41.4813C120 40.5 126.913 45.9453 130.022 55.1866C133.13 64.428 126.125 77.4616 116.883 80.5699L119.587 74.8338C119.587 74.8338 103.842 85.8946 102.704 96.8295C102.704 96.8295 99.6711 88.39 103.968 84.6797C103.968 84.6797 94.636 93.6645 87.9468 94.3356L94.792 89.277C76.2885 92.0275 65.733 92.151 49.5554 106.832C49.5554 106.832 54.7763 98.4583 60.6084 94.1969L28.3537 104.487C28.3537 104.487 38.7913 92.4173 57.1191 77.2574C57.1191 77.2574 51.2271 78.9415 45.7966 78.294C56.8135 75.2015 79.4647 62.2972 83.241 58.3414L73.7885 62.1712C76.2768 56.8915 82.1082 53.9838 91.3449 51.9641L79.471 51.4663C87.2031 51.2867 101.229 44.514 101.229 44.514L97.0872 43.8366C101.691 42.1824 104.692 41.954 109.668 41.4813Z" stroke="#D9D9D9" stroke-linejoin="round"/>
  <path d="M109.668 41.4813C120 40.5 126.913 45.9453 130.022 55.1866C133.13 64.428 126.125 77.4616 116.883 80.5699L119.587 74.8338C119.587 74.8338 103.842 85.8946 102.704 96.8295C102.704 96.8295 99.6711 88.39 103.968 84.6797C103.968 84.6797 94.636 93.6645 87.9468 94.3356L94.792 89.277C76.2885 92.0275 65.733 92.151 49.5554 106.832C49.5554 106.832 54.7763 98.4583 60.6084 94.1969L28.3537 104.487C28.3537 104.487 38.7913 92.4173 57.1191 77.2574C57.1191 77.2574 51.2271 78.9415 45.7966 78.294C56.8135 75.2015 79.4647 62.2972 83.241 58.3414L73.7885 62.1712C76.2768 56.8915 82.1082 53.9838 91.3449 51.9641L79.471 51.4663C87.2031 51.2867 101.229 44.514 101.229 44.514L97.0872 43.8366C101.691 42.1824 104.692 41.954 109.668 41.4813Z" stroke="#053D75" stroke-linejoin="round"/>
</g>
<circle cx="111.622" cy="60.2102" r="15.0027" fill="#5865F2"/>
<path d="M118.059 54.4406C116.95 53.924 115.75 53.549 114.5 53.3323C114.489 53.332 114.479 53.334 114.468 53.3383C114.458 53.3427 114.449 53.3491 114.442 53.3573C114.292 53.6323 114.117 53.9906 114 54.2656C112.675 54.0656 111.326 54.0656 110 54.2656C109.884 53.9823 109.709 53.6323 109.55 53.3573C109.542 53.3406 109.517 53.3323 109.492 53.3323C108.242 53.549 107.05 53.924 105.934 54.4406C105.925 54.4406 105.917 54.449 105.909 54.4573C103.642 57.849 103.017 61.149 103.325 64.4156C103.325 64.4323 103.334 64.449 103.35 64.4573C104.85 65.5573 106.292 66.224 107.717 66.6656C107.742 66.674 107.767 66.6656 107.775 66.649C108.109 66.1906 108.409 65.7073 108.667 65.199C108.684 65.1656 108.667 65.1323 108.634 65.124C108.159 64.9406 107.709 64.724 107.267 64.474C107.234 64.4573 107.234 64.4073 107.259 64.3823C107.35 64.3156 107.442 64.2406 107.534 64.174C107.55 64.1573 107.575 64.1573 107.592 64.1656C110.459 65.474 113.55 65.474 116.384 64.1656C116.4 64.1573 116.425 64.1573 116.442 64.174C116.534 64.249 116.625 64.3156 116.717 64.3906C116.75 64.4156 116.75 64.4656 116.709 64.4823C116.275 64.7406 115.817 64.949 115.342 65.1323C115.309 65.1406 115.3 65.1823 115.309 65.2073C115.575 65.7156 115.875 66.199 116.2 66.6573C116.225 66.6656 116.25 66.674 116.275 66.6656C117.709 66.224 119.15 65.5573 120.65 64.4573C120.667 64.449 120.675 64.4323 120.675 64.4156C121.042 60.6406 120.067 57.3656 118.092 54.4573C118.084 54.449 118.075 54.4406 118.059 54.4406ZM109.1 62.424C108.242 62.424 107.525 61.6323 107.525 60.6573C107.525 59.6823 108.225 58.8906 109.1 58.8906C109.984 58.8906 110.684 59.6906 110.675 60.6573C110.675 61.6323 109.975 62.424 109.1 62.424ZM114.909 62.424C114.05 62.424 113.334 61.6323 113.334 60.6573C113.334 59.6823 114.034 58.8906 114.909 58.8906C115.792 58.8906 116.492 59.6906 116.484 60.6573C116.484 61.6323 115.792 62.424 114.909 62.424Z" fill="white"/>
</svg>
