<svg width="277" height="260" viewBox="0 0 277 260" fill="none" xmlns="http://www.w3.org/2000/svg">
<g fill="#F1EDF4">
  <path d="M204.506 75.547C225 78.4726 233.74 88.4406 236.567 105.699C239.395 122.958 223.221 144.002 205.963 146.829L212.409 137.458C212.409 137.458 181.336 152.48 176.156 171.507C176.156 171.507 173.231 155.69 181.911 150.366C181.911 150.366 162.791 163.569 150.756 162.821L164.337 155.848C130.787 155.361 112.066 152.524 79.1791 173.829C79.1791 173.829 90.8447 160.518 102.402 154.662L42.3273 163.541C42.3273 163.541 64.2972 145.197 101.129 123.666C101.129 123.666 90.2113 124.942 80.7859 122.224C101.183 119.939 145.015 103.652 152.844 97.7428L135.003 101.786C140.936 93.1605 152.1 89.7013 169.035 88.7996L148.161 84.4815C161.9 86.4016 188.688 78.4726 188.688 78.4726L181.553 76.0746C190.18 74.4788 195.63 74.28 204.506 75.547Z" stroke="#D9D9D9" stroke-linejoin="round"/>
  <path d="M204.506 75.547C225 78.4726 233.74 88.4406 236.567 105.699C239.395 122.958 223.221 144.002 205.963 146.829L212.409 137.458C212.409 137.458 181.336 152.48 176.156 171.507C176.156 171.507 173.231 155.69 181.911 150.366C181.911 150.366 162.791 163.569 150.756 162.821L164.337 155.848C130.787 155.361 112.066 152.524 79.1791 173.829C79.1791 173.829 90.8447 160.518 102.402 154.662L42.3273 163.541C42.3273 163.541 64.2972 145.197 101.129 123.666C101.129 123.666 90.2113 124.942 80.7859 122.224C101.183 119.939 145.015 103.652 152.844 97.7428L135.003 101.786C140.936 93.1605 152.1 89.7013 169.035 88.7996L148.161 84.4815C161.9 86.4016 188.688 78.4726 188.688 78.4726L181.553 76.0746C190.18 74.4788 195.63 74.28 204.506 75.547Z" stroke="#053D75" stroke-linejoin="round"/>
</g>
<rect x="183.118" y="81.4707" width="50" height="50" rx="25" transform="rotate(5.94349 183.118 81.4707)" fill="#00E676"/>
<path fill-rule="evenodd" clip-rule="evenodd" d="M207.664 94.9181C211.169 95.2829 214.456 97.0273 216.672 99.8409C218.896 102.582 219.933 106.084 219.561 109.662C218.793 117.035 212.176 122.472 204.802 121.704C202.612 121.476 200.475 120.737 198.618 119.437L191.346 120.525L193.966 113.787C193.084 111.628 192.662 109.297 192.906 106.96C193.6 99.5791 200.218 94.1428 207.664 94.9181ZM211.614 111.565L212.379 112.014C212.517 112.102 212.583 112.182 212.583 112.182L212.529 112.694L212.529 112.695C212.418 113.052 212.307 113.409 212.131 113.685C212.043 113.824 211.882 113.954 211.72 114.085C211.64 114.151 211.561 114.198 211.482 114.245C211.404 114.292 211.325 114.339 211.244 114.405L211.083 114.536C210.993 114.609 210.907 114.636 210.808 114.668C210.73 114.693 210.644 114.72 210.542 114.774C210.234 114.89 209.781 114.99 209.416 114.952L208.686 114.876C208.58 114.828 208.454 114.797 208.328 114.765C208.203 114.734 208.077 114.702 207.971 114.654C206.053 113.938 204.4 112.807 203.004 111.333C202.923 111.18 202.808 111.055 202.684 110.919C202.617 110.847 202.548 110.772 202.48 110.688L202.219 110.366C201.165 109.149 200.418 107.816 199.905 106.361L199.855 106.134C199.689 105.6 199.604 105.001 199.665 104.417C199.748 103.614 200.124 102.841 200.703 102.238C200.784 102.172 200.846 102.105 200.909 102.037C200.971 101.97 201.033 101.903 201.114 101.837C201.191 101.809 201.27 101.761 201.348 101.714C201.427 101.667 201.506 101.62 201.582 101.591L201.663 101.526C201.736 101.533 201.811 101.523 201.886 101.512C201.961 101.501 202.036 101.491 202.109 101.498L202.912 101.582C203.123 101.678 203.262 101.766 203.385 102C203.558 102.461 204.229 104.523 204.264 104.896C204.314 105.123 204.211 105.407 204.042 105.611C203.961 105.676 203.897 105.762 203.833 105.847C203.769 105.933 203.704 106.018 203.624 106.084C203.382 106.28 203.052 106.615 203.052 106.615C202.971 106.68 202.956 106.826 202.941 106.972C202.963 107.031 202.976 107.078 202.986 107.118C203.004 107.183 203.016 107.23 203.057 107.279L203.114 107.433C203.411 108.128 203.861 108.765 204.319 109.33C204.384 109.41 204.468 109.493 204.552 109.575C204.635 109.658 204.719 109.74 204.784 109.821C205.308 110.466 205.992 110.98 206.757 111.428L207.107 111.612C207.173 111.693 207.311 111.781 207.384 111.789L207.457 111.796C207.603 111.812 207.757 111.754 207.845 111.615C208.989 110.554 209.069 110.488 209.069 110.488C209.223 110.43 209.376 110.373 209.595 110.395C209.632 110.399 209.667 110.421 209.701 110.443C209.736 110.465 209.77 110.487 209.807 110.491C210.499 110.932 211.614 111.565 211.614 111.565Z" stroke="white" stroke-width="1.5" stroke-linejoin="round"/>
</svg>
