<svg width="102" height="102" viewBox="0 0 102 102" fill="none" xmlns="http://www.w3.org/2000/svg">
<g clip-path="url(#clip0_2440_9431)">
<path fill-rule="evenodd" clip-rule="evenodd" d="M88.6257 44.3658C88.5643 44.4565 88.5002 44.5446 88.4335 44.6327C88.3695 44.7208 88.3027 44.8062 88.2333 44.8916C88.1799 44.961 88.1239 45.0277 88.0678 45.0945C87.9878 45.1906 87.905 45.2867 87.8196 45.3801C87.7395 45.4708 87.6568 45.5616 87.5714 45.647C87.4966 45.7271 87.4192 45.8045 87.3392 45.8819C87.1924 46.0313 87.0402 46.1728 86.8854 46.3143C85.6683 47.4193 84.267 48.3055 83.0899 49.4639C82.6521 49.8963 82.0756 50.0217 81.4377 49.9443C80.6529 49.8482 79.8629 49.8082 79.1048 50.1552C78.7045 50.3394 78.2694 50.4728 77.821 50.4381C77.2124 50.3901 76.8174 50.689 76.5771 51.1882C76.1955 51.9782 75.6776 52.6562 75.1011 53.3155C74.5513 53.9481 74.2817 54.7702 73.9347 55.5309C73.7398 55.9606 73.5717 56.4037 73.3848 56.8361C73.0592 57.5915 72.5441 58.1733 71.778 58.5096C70.9559 58.87 70.1071 58.6351 69.6881 57.8477C68.6631 55.9152 67.9558 53.8867 67.9291 51.6659C67.9264 51.2709 67.9665 50.8732 67.8917 50.4808C67.7903 49.9417 67.6381 49.8029 67.0963 49.8082C66.421 49.8135 65.7591 49.7174 65.0971 49.6347C64.4672 49.552 63.9173 49.3091 63.5063 48.8233C63.194 48.4549 62.8283 48.3161 62.3452 48.3295C61.4057 48.3588 61.0694 48.0893 60.7971 47.1844C60.6957 46.8481 60.645 46.5011 60.5969 46.1541C60.4982 45.4415 60.33 45.308 59.6067 45.3427C59.5933 45.3427 59.5773 45.3454 59.564 45.3427C59.5159 45.3454 59.4705 45.348 59.4225 45.3427C58.5283 45.1265 57.6342 45.34 56.7453 45.3827C55.4882 45.4441 55.6483 48.7112 54.3885 48.7646C53.5851 48.7966 51.9569 48.9007 50.6944 48.2895C49.7335 47.825 49.2904 46.4824 49.0528 45.7965C48.9808 45.5803 48.9247 45.4281 48.882 45.3908C48.8793 44.7048 48.9648 43.6371 48.9834 42.9511C48.9968 42.452 50.0404 42.5268 50.2032 42.0463C50.3447 41.6299 50.6437 41.4057 51.0414 41.3763C51.706 41.323 52.3706 41.2135 53.0406 41.2669C53.2541 41.2829 53.4623 41.2803 53.6731 41.331C54.2443 41.4698 54.594 41.1468 54.5166 40.6557C54.4926 40.4929 54.4872 40.306 54.5433 40.1565C54.6581 39.8523 54.5566 39.6921 54.2951 39.5266C53.4062 38.9634 52.9071 38.184 52.8377 37.0924C52.803 36.5505 52.7923 36.038 52.9551 35.5229C53.1073 35.0318 53.0406 34.5273 53.0432 34.0255C53.0432 33.6145 53.0245 33.2087 53.1927 32.8137C53.3262 32.4961 53.5077 32.2318 53.7826 32.021C54.255 31.666 54.7461 31.335 55.1145 30.8545C55.3253 30.5796 55.6403 30.4542 56.0033 30.4649C56.9028 30.4942 57.7836 30.3261 58.6645 30.1659C58.846 30.1339 59.0248 30.1045 59.2063 30.1072C59.3638 30.1099 59.5026 30.0858 59.636 29.9871C59.7695 29.8856 59.927 29.8403 60.1005 29.8269C60.4448 29.7949 60.5329 29.6855 60.5542 29.3278C60.5649 29.1783 60.5729 29.0288 60.6023 28.8767C60.6717 28.5351 60.6476 28.4763 60.33 28.3536C59.7615 28.1347 59.1663 28.0146 58.5684 27.9078C57.5568 27.721 56.6573 28.1027 55.7684 28.4817C55.2079 28.7192 54.6661 28.9888 54.0735 29.1463C53.6731 29.2504 53.3101 29.4506 52.9685 29.6775C52.7016 29.8563 52.432 30.0298 52.1357 30.1552C51.2282 30.5449 50.5369 30.1606 50.302 29.2851C50.0244 28.2308 50.3794 27.2058 51.2602 26.5412C51.5885 26.293 51.8901 26.0154 52.1784 25.7218C52.5227 25.3721 52.9365 25.1159 53.3315 24.8329C54.215 24.203 55.1519 23.6799 56.1635 23.2822C56.4411 23.1727 56.7026 23.0019 56.9562 22.8337C57.7409 22.3053 58.6271 22.1264 59.5453 22.0624C60.3834 22.0036 61.2162 22.0784 62.0329 22.2919C62.2678 22.3533 62.5134 22.356 62.7509 22.3907C63.226 22.4601 63.6184 22.6549 63.9761 22.9565C64.211 23.154 64.4805 23.2822 64.7875 23.3462C65.1585 23.4236 65.5295 23.517 65.8765 23.6745C66.034 23.7493 66.1594 23.7546 66.2769 23.6078C66.5545 23.2528 66.9468 23.0953 67.3606 22.9725C67.5207 22.9245 67.6915 22.8871 67.8303 22.8017C68.3882 22.4574 68.9914 22.396 69.6293 22.404C70.1418 22.412 70.657 22.3266 71.1588 22.1985C71.6285 22.081 72.0129 21.8168 72.3866 21.5205C72.6428 21.3177 72.899 21.1148 73.1606 20.9173C73.2701 20.8319 73.3822 20.7491 73.4943 20.6691C73.6117 20.5836 73.7292 20.5009 73.8493 20.4182C73.8573 20.4128 73.868 20.4075 73.876 20.3995C69.1809 16.8869 63.6504 14.4259 57.6368 13.3743C56.1661 14.7622 54.4419 15.7552 52.5361 16.4438C51.4204 16.8468 50.262 16.9509 49.0769 16.7721C48.5404 16.692 48.0145 16.7507 47.5608 17.1111C47.3579 17.2712 47.1257 17.3887 46.8882 17.4928C46.1995 17.7997 45.5509 17.6743 44.9904 17.1698C44.3364 16.5826 44.1122 15.8139 43.9868 14.9864C43.9067 14.4766 43.904 13.9668 43.9014 13.457C41.4377 13.9188 39.0569 14.6181 36.7854 15.5309C36.9162 16.1795 37.0443 16.8228 37.1698 17.4714C37.3753 18.5364 37.4927 19.6147 37.3913 20.6931C37.3032 21.6193 37.0523 22.5161 36.6626 23.3676C36.5879 23.5331 36.5399 23.7146 36.4411 23.8667C36.0567 24.4566 35.9927 25.1079 36.0274 25.7912C36.0567 26.3704 35.8459 26.8989 35.5523 27.39C35.3574 27.713 35.1439 28.0359 34.8636 28.2975C34.506 28.6285 34.3618 29.0449 34.3004 29.5093C34.207 30.1873 34.0896 30.8572 33.8467 31.5032C33.6011 32.1651 33.1981 32.7096 32.6562 33.15C32.037 33.6545 31.2976 33.7506 30.5396 33.6598C29.7869 33.5717 29.0262 33.5157 28.2922 33.3102C28.1027 33.2568 27.9132 33.2007 27.7263 33.1393C27.0297 32.9205 26.7788 33.0299 26.4558 33.6999C26.1782 34.2791 26.0554 34.909 25.8793 35.5202C25.7111 36.1048 25.591 36.7 25.2573 37.2285C24.937 37.733 24.5233 38.112 23.9868 38.3709C23.4957 38.6111 22.9992 38.838 22.5535 39.169C22.2652 39.3825 22.2038 39.6174 22.2465 39.9564C22.3346 40.637 22.4921 41.2989 22.6736 41.9582C22.8231 42.4894 22.7937 43.0099 22.6095 43.525C22.404 44.0989 22.2198 44.6781 21.9396 45.2226C21.702 45.687 21.3123 45.9112 20.7999 45.9326C20.3274 45.9539 19.855 45.9112 19.4066 45.7564C18.7766 45.5349 18.3149 45.1052 17.9999 44.5179C17.8264 44.1976 17.677 43.864 17.5275 43.5304C17.2365 42.8764 16.9429 42.2225 16.5185 41.6379C15.8699 40.7411 15.3414 39.7695 14.7809 38.822C14.3458 40.1165 13.9775 41.4404 13.6839 42.791V42.7937C13.8147 43.0499 13.9455 43.3035 14.0869 43.5517C14.7329 44.6781 15.2827 45.8472 15.7178 47.0696C15.9954 47.8517 16.3557 48.5777 16.8976 49.213C17.023 49.3571 17.1485 49.4585 17.322 49.5359C18.2828 49.9737 19.193 50.4808 19.9751 51.2095C20.6717 51.8608 20.7732 52.6455 20.6184 53.5103C20.5436 53.9454 20.3621 54.3538 20.2313 54.7755C20.1059 55.1812 20.0151 55.5949 20.0205 56.0273C20.0258 56.2435 20.0979 56.4063 20.2473 56.5531C20.4475 56.748 20.6797 56.8921 20.912 57.0336C21.2376 57.2311 21.5526 57.442 21.8568 57.6742C22.7377 58.3522 23.05 59.2143 22.7537 60.29C22.759 60.322 22.7644 60.354 22.7697 60.386C22.4654 61.1441 22.1852 61.9128 21.7794 62.6228C21.0107 63.9707 20.194 65.2893 19.0382 66.3489C18.6806 66.6772 18.3069 66.9895 17.9626 67.3339C17.7784 67.518 17.6236 67.7236 17.4874 67.9424C17.402 68.0786 17.3273 68.2147 17.2766 68.3561C17.2632 68.3908 17.2526 68.4282 17.2419 68.4629C17.2312 68.4976 17.2232 68.535 17.2152 68.5723C17.2072 68.607 17.2018 68.6444 17.1965 68.6818C17.1912 68.7165 17.1885 68.7538 17.1885 68.7912V68.7939C23.5865 80.9305 36.3263 89.2022 50.9986 89.2022C62.9031 89.2022 73.537 83.7572 80.5435 75.2212C79.9029 75.037 79.2783 74.8155 78.6884 74.4925C77.482 73.8359 76.8948 72.811 76.8334 71.4604C76.78 70.3233 77.127 69.301 77.7436 68.3615C78.192 67.6728 78.6404 66.9869 79.1449 66.3356C79.8869 65.3854 80.7864 64.63 81.8434 64.0561C82.9591 63.4502 84.1442 63.0178 85.364 62.6869C86.0099 62.5107 86.6398 62.2865 87.2591 62.0356C87.3819 61.9849 87.502 61.9288 87.6274 61.8915C88.6524 58.4376 89.2022 54.7835 89.2022 50.9986C89.2022 48.7352 89.0047 46.5198 88.6257 44.3658ZM57.2044 75.4801C56.9695 76.6332 56.4784 77.7008 56.0247 78.7792C55.627 79.7241 55.1545 80.6236 54.5139 81.4243C54.1162 81.9234 53.7212 82.4252 53.2834 82.8923C52.9071 83.29 52.5574 83.7038 52.133 84.0588C51.0574 84.9583 49.8376 85.4174 48.4416 85.356C47.6542 85.3186 47.0883 84.8515 46.6373 84.2429C45.8819 83.2233 45.4575 82.0569 45.1906 80.8264C45.0198 80.0417 44.8996 79.2463 44.9023 78.4375C44.9076 77.6128 44.897 76.7907 44.9103 75.9686C44.921 75.3974 44.8276 74.8475 44.6461 74.311C44.3124 73.3181 43.9601 72.3305 43.6158 71.3403C43.3569 70.5956 43.0019 69.9176 42.3399 69.4452C42.1904 69.3864 42.0597 69.2743 41.8915 69.2556C41.6646 69.0448 41.363 68.9594 41.1041 68.8019C40.282 68.3054 39.6281 67.6301 39.0408 66.8881C38.6191 66.3543 38.1013 65.9432 37.5621 65.5429C35.9873 64.3738 34.9063 62.8443 34.3565 60.9599C34.1269 60.1752 34.1723 59.3718 34.2657 58.563C34.3485 57.8397 34.4125 57.1137 34.57 56.401C34.7489 55.6003 34.9517 54.8049 35.272 54.0468C35.7151 53.0005 36.4144 52.1544 37.3032 51.4524C38.176 50.7638 39.1076 50.2139 40.2179 50.0137C40.9279 49.8856 41.6486 49.9176 42.3559 49.9817C43.17 50.0564 43.9734 50.2273 44.7822 50.358C44.8249 50.3661 44.8676 50.3847 44.913 50.3981H44.921C45.2386 50.3847 49.923 49.7228 51.1027 50.3394C53.0833 51.375 54.6234 53.4463 54.8609 53.6011C54.8636 53.6037 54.8663 53.6064 54.8689 53.6064C54.9276 53.6544 54.9997 53.6945 55.0424 53.7532C55.312 54.1242 55.619 54.4819 55.9846 54.7381C56.6199 55.1839 56.756 55.8565 56.9535 56.5131C56.9962 56.6599 57.0069 56.8147 57.0977 56.9402C57.4713 57.4473 57.6128 58.0399 57.7036 58.6404C57.861 59.668 57.8237 60.6957 57.7436 61.7286C57.6956 62.3586 57.5835 62.9858 57.6689 63.6344C57.7836 64.4912 58.176 65.1772 58.7098 65.8204C59.1289 66.3249 59.4812 66.8774 59.7481 67.478C60.1245 68.3348 60.0497 69.1969 59.7802 70.0617C59.7481 70.1685 59.7081 70.2699 59.6707 70.374C59.6627 70.398 59.652 70.4247 59.644 70.4488C59.6093 70.4781 59.5773 70.5101 59.5453 70.5395C59.4946 70.7877 59.3451 70.9906 59.201 71.1774C58.208 72.4613 57.5301 73.884 57.2044 75.4801ZM64.5179 71.802C64.3978 72.8964 63.9627 73.8733 63.5223 74.8609C63.1193 75.7684 62.6575 76.6385 62.1557 77.4927C61.8274 78.0452 61.395 78.4722 60.8051 78.7418C60.4181 78.9206 60.0311 78.9634 59.6921 78.6724C59.3611 78.3895 59.1929 78.0238 59.3478 77.5754C59.5239 77.0602 59.4412 76.5211 59.5266 75.9926C59.6787 75.0744 59.9163 74.1829 60.3006 73.3341C60.5275 72.8376 60.7651 72.3439 61.0614 71.8794C61.3496 71.4257 61.7073 71.036 62.097 70.6703C62.2465 70.5315 62.4386 70.4141 62.4813 70.1872V70.1845C62.4813 70.1818 62.4787 70.1818 62.476 70.1792H62.484C62.5321 70.1418 62.5854 70.1124 62.6255 70.0697C63.0339 69.6453 63.493 69.5252 64.0321 69.8135H64.0348C64.598 70.3767 64.6007 71.0627 64.5179 71.802Z" stroke="#0876E4"/>
<path fill-rule="evenodd" clip-rule="evenodd" d="M59.6707 70.374C59.6627 70.398 59.652 70.4247 59.644 70.4488C59.636 70.4327 59.6307 70.4141 59.6253 70.398C59.6253 70.398 59.6253 70.398 59.6253 70.3954C59.6387 70.3874 59.6547 70.3794 59.6707 70.374Z" stroke="#0876E4"/>
<path fill-rule="evenodd" clip-rule="evenodd" d="M88.6257 44.3659C88.5643 44.4566 88.5002 44.5447 88.4335 44.6328C88.3695 44.7209 88.3027 44.8063 88.2333 44.8917C88.18 44.9611 88.1239 45.0278 88.0678 45.0945C87.9878 45.1906 87.905 45.2867 87.8196 45.3801C87.7395 45.4709 87.6568 45.5616 87.5714 45.647C87.4967 45.7271 87.4192 45.8045 87.3392 45.8819C87.1924 46.0314 87.0402 46.1729 86.8854 46.3143C85.6683 47.4194 84.267 48.3055 83.0899 49.4639C82.6521 49.8963 82.0756 50.0218 81.4377 49.9444C80.6529 49.8483 79.8629 49.8083 79.1048 50.1553C78.7045 50.3394 78.2694 50.4729 77.821 50.4382C77.2124 50.3901 76.8174 50.6891 76.5771 51.1882C76.1955 51.9783 75.6776 52.6562 75.1011 53.3155C74.5513 53.9481 74.2817 54.7702 73.9347 55.5309C73.7398 55.9607 73.5717 56.4037 73.3848 56.8361C73.0592 57.5915 72.5441 58.1734 71.778 58.5097C70.9559 58.87 70.1071 58.6351 69.6881 57.8477C68.6631 55.9153 67.9558 53.8867 67.9291 51.666C67.9264 51.271 67.9665 50.8733 67.8917 50.4809C67.7903 49.9417 67.6382 49.8029 67.0963 49.8083C66.421 49.8136 65.7591 49.7175 65.0971 49.6348C64.4672 49.552 63.9174 49.3091 63.5063 48.8233C63.194 48.455 62.8283 48.3162 62.3452 48.3295C61.4057 48.3589 61.0694 48.0893 60.7971 47.1845C60.6957 46.8482 60.645 46.5012 60.5969 46.1542C60.4982 45.4415 60.33 45.3081 59.6067 45.3428C59.5933 45.3428 59.5773 45.3454 59.564 45.3428C59.5159 45.3454 59.4705 45.3481 59.4225 45.3428C58.5283 45.1266 57.6342 45.3401 56.7453 45.3828C55.4882 45.4442 55.6483 48.7112 54.3885 48.7646C53.5851 48.7967 51.9569 48.9007 50.6944 48.2895C49.7335 47.8251 49.2904 46.4825 49.0528 45.7965C48.9808 45.5803 48.9247 45.4282 48.882 45.3908C48.8794 44.7048 48.9648 43.6372 48.9834 42.9512C48.9968 42.4521 50.0404 42.5268 50.2032 42.0464C50.3447 41.63 50.6437 41.4058 51.0414 41.3764C51.706 41.323 52.3706 41.2136 53.0406 41.267C53.2541 41.283 53.4623 41.2803 53.6731 41.331C54.2443 41.4698 54.594 41.1469 54.5166 40.6557C54.4926 40.4929 54.4872 40.3061 54.5433 40.1566C54.6581 39.8523 54.5566 39.6922 54.2951 39.5267C53.4062 38.9635 52.9071 38.1841 52.8377 37.0924C52.803 36.5506 52.7923 36.0381 52.9551 35.523C53.1073 35.0318 53.0406 34.5274 53.0432 34.0256C53.0432 33.6145 53.0245 33.2088 53.1927 32.8138C53.3262 32.4961 53.5077 32.2319 53.7826 32.021C54.255 31.666 54.7461 31.3351 55.1145 30.8546C55.3254 30.5797 55.6403 30.4542 56.0033 30.4649C56.9028 30.4943 57.7836 30.3261 58.6645 30.166C58.846 30.1339 59.0248 30.1046 59.2063 30.1072C59.3638 30.1099 59.5026 30.0859 59.636 29.9871C59.7695 29.8857 59.927 29.8403 60.1005 29.827C60.4448 29.795 60.5329 29.6855 60.5542 29.3279C60.5649 29.1784 60.5729 29.0289 60.6023 28.8768C60.6717 28.5351 60.6476 28.4764 60.33 28.3536C59.7615 28.1347 59.1663 28.0146 58.5684 27.9079C57.5568 27.721 56.6573 28.1027 55.7684 28.4817C55.2079 28.7193 54.6661 28.9889 54.0735 29.1463C53.6731 29.2504 53.3101 29.4506 52.9685 29.6775C52.7016 29.8563 52.432 30.0298 52.1357 30.1553C51.2282 30.545 50.5369 30.1606 50.302 29.2851C50.0244 28.2308 50.3794 27.2059 51.2602 26.5413C51.5885 26.293 51.8902 26.0154 52.1784 25.7218C52.5227 25.3722 52.9365 25.1159 53.3315 24.833C54.215 24.2031 55.1519 23.6799 56.1635 23.2822C56.4411 23.1728 56.7026 23.002 56.9562 22.8338C57.7409 22.3053 58.6271 22.1265 59.5453 22.0624C60.3834 22.0037 61.2162 22.0784 62.0329 22.292C62.2678 22.3534 62.5134 22.356 62.7509 22.3907C63.226 22.4601 63.6184 22.655 63.9761 22.9566C64.211 23.1541 64.4805 23.2822 64.7875 23.3463C65.1585 23.4237 65.5295 23.5171 65.8765 23.6746C66.034 23.7493 66.1594 23.7547 66.2769 23.6079C66.5545 23.2529 66.9468 23.0954 67.3606 22.9726C67.5207 22.9246 67.6915 22.8872 67.8303 22.8018C68.3882 22.4575 68.9914 22.3961 69.6293 22.4041C70.1418 22.4121 70.657 22.3267 71.1588 22.1985C71.6285 22.0811 72.0129 21.8169 72.3866 21.5206C72.6428 21.3177 72.8991 21.1149 73.1606 20.9174C73.2701 20.8319 73.3822 20.7492 73.4943 20.6691C73.6117 20.5837 73.7292 20.501 73.8493 20.4182C73.8573 20.4129 73.868 20.4075 73.876 20.3995C81.4991 26.1089 86.9174 34.5994 88.6257 44.3659Z" stroke="#0876E4"/>
<path fill-rule="evenodd" clip-rule="evenodd" d="M59.6707 70.374C59.6627 70.398 59.652 70.4247 59.644 70.4488C59.636 70.4327 59.6307 70.4141 59.6253 70.398C59.6253 70.398 59.6253 70.398 59.6253 70.3954C59.6387 70.3874 59.6547 70.3794 59.6707 70.374Z" stroke="#0876E4"/>
<path fill-rule="evenodd" clip-rule="evenodd" d="M37.3913 20.693C37.3032 21.6192 37.0523 22.5161 36.6626 23.3675C36.5879 23.533 36.5398 23.7145 36.4411 23.8666C36.0567 24.4565 35.9927 25.1078 36.0274 25.7911C36.0567 26.3703 35.8459 26.8988 35.5523 27.3899C35.3574 27.7129 35.1439 28.0359 34.8636 28.2974C34.506 28.6284 34.3618 29.0448 34.3004 29.5092C34.207 30.1872 34.0896 30.8572 33.8467 31.5031C33.6011 32.165 33.1981 32.7096 32.6562 33.15C32.037 33.6544 31.2976 33.7505 30.5396 33.6598C29.7869 33.5717 29.0262 33.5156 28.2922 33.3101C28.1027 33.2567 27.9131 33.2007 27.7263 33.1393C27.0297 32.9204 26.7788 33.0298 26.4558 33.6998C26.1782 34.279 26.0554 34.9089 25.8793 35.5202C25.7111 36.1047 25.591 36.6999 25.2573 37.2284C24.937 37.7329 24.5233 38.1119 23.9868 38.3708C23.4957 38.611 22.9992 38.8379 22.5535 39.1689C22.2652 39.3824 22.2038 39.6173 22.2465 39.9563C22.3346 40.6369 22.4921 41.2989 22.6736 41.9582C22.8231 42.4893 22.7937 43.0098 22.6095 43.525C22.404 44.0988 22.2198 44.678 21.9396 45.2225C21.702 45.687 21.3123 45.9112 20.7999 45.9325C20.3274 45.9539 19.855 45.9112 19.4066 45.7564C18.7766 45.5348 18.3149 45.1051 17.9999 44.5179C17.8264 44.1976 17.6769 43.8639 17.5275 43.5303C17.2365 42.8764 16.9429 42.2224 16.5185 41.6379C15.8699 40.741 15.3414 39.7695 14.7809 38.8219C18.3469 28.2067 26.4504 19.6761 36.7854 15.5309C36.9162 16.1795 37.0443 16.8228 37.1698 17.4714C37.3753 18.5363 37.4927 19.6147 37.3913 20.693Z" stroke="#0876E4"/>
<path fill-rule="evenodd" clip-rule="evenodd" d="M87.6274 61.8915C86.1621 66.8241 83.7278 71.343 80.5435 75.2212C79.9029 75.0371 79.2783 74.8155 78.6884 74.4926C77.482 73.8359 76.8948 72.811 76.8334 71.4604C76.78 70.3233 77.127 69.301 77.7436 68.3615C78.192 67.6729 78.6404 66.9869 79.1449 66.3356C79.8869 65.3854 80.7864 64.63 81.8434 64.0562C82.9591 63.4503 84.1442 63.0179 85.364 62.6869C86.0099 62.5107 86.6398 62.2865 87.2591 62.0356C87.3819 61.9849 87.502 61.9288 87.6274 61.8915Z" stroke="#0876E4"/>
<path fill-rule="evenodd" clip-rule="evenodd" d="M22.7537 60.29C22.759 60.322 22.7643 60.3541 22.7697 60.3861C22.4654 61.1441 22.1851 61.9128 21.7794 62.6228C21.0107 63.9708 20.194 65.2893 19.0382 66.349C18.6805 66.6773 18.3069 66.9896 17.9625 67.3339C17.7784 67.5181 17.6236 67.7236 17.4874 67.9425C17.402 68.0786 17.3273 68.2147 17.2766 68.3562C17.2632 68.3909 17.2525 68.4282 17.2419 68.4629C17.2312 68.4976 17.2205 68.535 17.2152 68.5724C17.2072 68.6071 17.1992 68.6444 17.1965 68.6818C17.1912 68.7165 17.1885 68.7539 17.1885 68.7912C14.3832 63.477 12.7977 57.4233 12.7977 50.9987C12.7977 48.1827 13.102 45.4388 13.6839 42.7937C13.8147 43.0499 13.9455 43.3035 14.0869 43.5517C14.7329 44.6781 15.2827 45.8472 15.7178 47.0697C15.9954 47.8517 16.3557 48.5778 16.8975 49.213C17.023 49.3571 17.1484 49.4586 17.3219 49.536C18.2828 49.9737 19.193 50.4809 19.9751 51.2095C20.6717 51.8608 20.7732 52.6455 20.6183 53.5103C20.5436 53.9454 20.3621 54.3538 20.2313 54.7755C20.1059 55.1812 20.0151 55.595 20.0205 56.0274C20.0258 56.2436 20.0979 56.4064 20.2473 56.5532C20.4475 56.748 20.6797 56.8922 20.912 57.0336C21.2376 57.2311 21.5526 57.442 21.8568 57.6742C22.7377 58.3522 23.0499 59.2143 22.7537 60.29Z" stroke="#0876E4"/>
<path fill-rule="evenodd" clip-rule="evenodd" d="M57.6368 13.3743C56.1661 14.7622 54.4419 15.7552 52.5361 16.4438C51.4204 16.8468 50.262 16.9509 49.0769 16.7721C48.5404 16.692 48.0145 16.7507 47.5608 17.1111C47.3579 17.2712 47.1257 17.3887 46.8881 17.4928C46.1995 17.7997 45.5509 17.6743 44.9904 17.1698C44.3364 16.5826 44.1122 15.8139 43.9868 14.9864C43.9067 14.4766 43.904 13.9668 43.9014 13.457C46.1995 13.0246 48.5724 12.7977 50.9986 12.7977C53.2621 12.7977 55.4802 12.9952 57.6368 13.3743Z" stroke="#0876E4"/>
<path fill-rule="evenodd" clip-rule="evenodd" d="M59.7802 70.0617C59.7481 70.1685 59.7081 70.2699 59.6707 70.374C59.6547 70.3794 59.6387 70.3874 59.6254 70.3954C59.6254 70.3981 59.6254 70.3981 59.6254 70.3981C59.6307 70.4141 59.636 70.4328 59.644 70.4488C59.6093 70.4781 59.5773 70.5102 59.5453 70.5395C59.4946 70.7878 59.3451 70.9906 59.201 71.1775C58.208 72.4613 57.5301 73.884 57.2044 75.4801C56.9695 76.6332 56.4784 77.7009 56.0247 78.7792C55.627 79.7241 55.1545 80.6236 54.5139 81.4243C54.1162 81.9235 53.7212 82.4253 53.2834 82.8924C52.9071 83.2901 52.5574 83.7038 52.133 84.0588C51.0574 84.9583 49.8376 85.4174 48.4416 85.356C47.6542 85.3186 47.0883 84.8515 46.6373 84.243C45.8819 83.2233 45.4575 82.0569 45.1906 80.8264C45.0198 80.0417 44.8996 79.2463 44.9023 78.4375C44.9076 77.6128 44.897 76.7907 44.9103 75.9686C44.921 75.3974 44.8276 74.8475 44.6461 74.311C44.3124 73.3181 43.9601 72.3305 43.6158 71.3403C43.3569 70.5956 43.0019 69.9176 42.3399 69.4452C42.1905 69.3865 42.0597 69.2743 41.8915 69.2557C41.6646 69.0448 41.363 68.9594 41.1041 68.8019C40.282 68.3054 39.6281 67.6301 39.0409 66.8881C38.6191 66.3543 38.1013 65.9432 37.5621 65.5429C35.9873 64.3738 34.9063 62.8444 34.3565 60.9599C34.1269 60.1752 34.1723 59.3718 34.2657 58.563C34.3485 57.8397 34.4125 57.1137 34.57 56.401C34.7489 55.6003 34.9517 54.8049 35.272 54.0468C35.7151 53.0005 36.4144 52.1544 37.3032 51.4524C38.176 50.7638 39.1076 50.2139 40.2179 50.0137C40.9279 49.8856 41.6486 49.9177 42.3559 49.9817C43.17 50.0564 43.9734 50.2273 44.7822 50.3581C44.8249 50.3661 44.8676 50.3848 44.913 50.3981H44.921C45.2386 50.3848 49.923 49.7228 51.1028 50.3394C53.0833 51.375 54.6234 53.4463 54.8609 53.6011C54.8636 53.6038 54.8663 53.6064 54.8689 53.6064C54.9276 53.6545 54.9997 53.6945 55.0424 53.7532C55.312 54.1242 55.619 54.4819 55.9846 54.7381C56.6199 55.1839 56.756 55.8565 56.9535 56.5131C56.9962 56.6599 57.0069 56.8147 57.0977 56.9402C57.4713 57.4473 57.6128 58.0399 57.7036 58.6404C57.861 59.6681 57.8237 60.6957 57.7436 61.7287C57.6956 62.3586 57.5835 62.9858 57.6689 63.6344C57.7836 64.4912 58.176 65.1772 58.7098 65.8205C59.1289 66.3249 59.4812 66.8774 59.7481 67.478C60.1245 68.3348 60.0498 69.1969 59.7802 70.0617Z" stroke="#0876E4"/>
<path fill-rule="evenodd" clip-rule="evenodd" d="M59.6707 70.374C59.6627 70.398 59.652 70.4247 59.644 70.4488C59.636 70.4327 59.6307 70.4141 59.6253 70.398C59.6253 70.398 59.6253 70.398 59.6253 70.3954C59.6387 70.3874 59.6547 70.3794 59.6707 70.374Z" stroke="#0876E4"/>
<path fill-rule="evenodd" clip-rule="evenodd" d="M64.5179 71.8021C64.3978 72.8964 63.9627 73.8733 63.5223 74.8609C63.1193 75.7684 62.6575 76.6386 62.1557 77.4927C61.8274 78.0452 61.395 78.4723 60.8051 78.7418C60.4181 78.9207 60.0311 78.9634 59.6921 78.6725C59.3611 78.3895 59.1929 78.0238 59.3478 77.5754C59.5239 77.0603 59.4412 76.5211 59.5266 75.9926C59.6787 75.0744 59.9163 74.1829 60.3006 73.3341C60.5275 72.8377 60.7651 72.3439 61.0614 71.8795C61.3496 71.4257 61.7073 71.036 62.097 70.6703C62.2465 70.5315 62.4386 70.4141 62.4813 70.1872V70.1845C62.484 70.1819 62.484 70.1819 62.484 70.1792C62.5321 70.1418 62.5854 70.1125 62.6255 70.0698C63.0339 69.6454 63.493 69.5253 64.0321 69.8135H64.0348C64.598 70.3767 64.6007 71.0627 64.5179 71.8021Z" stroke="#0876E4"/>
</g>
<path d="M23.4719 1H1V23.4719" stroke="#053D75"/>
<path d="M78.5281 101L101 101L101 78.5281" stroke="#053D75"/>
<path d="M101 23.4719L101 1L78.5281 0.999999" stroke="#053D75"/>
<path d="M1 78.5281L1 101L23.4719 101" stroke="#053D75"/>
<defs>
<clipPath id="clip0_2440_9431">
<rect width="76.4045" height="76.4045" fill="white" transform="translate(12.7977 12.7977)"/>
</clipPath>
</defs>
</svg>
