<svg width="147" height="155" viewBox="0 0 147 155" fill="none" xmlns="http://www.w3.org/2000/svg">
<path d="M44.5739 72.4863C47.6887 69.5433 51.0837 66.6252 54.7377 63.8754C55.5636 63.2536 56.4026 62.6415 57.2546 62.0389M88.1852 99.185C89.3109 95.1524 90.2929 90.8907 91.0215 86.4814C91.1862 85.4844 91.3369 84.481 91.4737 83.4713" stroke="#053D75" stroke-linecap="round" stroke-linejoin="round"/>
<path d="M98.7325 81.3599C101.352 84.9928 101.758 89.9805 99.4058 94.111M55.9896 55.3005C51.2145 54.2821 46.0897 56.345 43.4223 60.781L43.0239 61.4436" stroke="#053D75"/>
<path d="M96.4062 128.146C97.8737 123.281 92.8225 121.765 92.3525 121.223C90.7201 119.342 85.4234 117.104 85.4234 117.104C85.4234 117.104 82.2379 115.733 77.82 113.711M76.5459 142.928C75.6954 141.188 75.5106 138.582 75.8842 135.823C75.3635 136.087 74.8257 136.316 74.2744 136.507C72.4832 137.131 70.4632 137.381 68.2525 136.947C66.8938 136.683 65.5853 136.207 64.3751 135.536C60.5721 133.426 58.2793 129.672 56.9178 126.297M12.5576 104.914C14.8917 105.417 16.9855 104.421 20.0293 102.234C20.0321 102.396 20.0381 102.56 20.0484 102.72C20.1745 104.993 20.8768 107.364 22.6159 109.504C22.8828 109.834 23.161 110.144 23.4464 110.435C27.0565 114.135 31.9784 114.868 36.1499 114.621M20.7312 79.2428C23.2746 79.3818 23.4082 79.6736 25.2722 80.4286C27.6332 81.3849 32.0908 85.0342 32.0908 85.0342C32.0908 85.0342 34.0379 86.5968 36.9839 88.8749" stroke="#053D75" stroke-linecap="round" stroke-linejoin="round"/>
<path d="M96.1869 125.781C96.2048 125.827 96.2182 125.865 96.2276 125.892C96.2379 126.074 96.2407 126.257 96.2358 126.443L96.2357 126.443C96.1444 130.069 93.9376 133.669 91.124 136.792C88.3228 139.9 84.9898 142.46 82.7873 144L82.7873 144C82.1726 144.43 81.4471 144.672 80.6986 144.698C79.9501 144.724 79.2107 144.533 78.5698 144.147L78.5695 144.146L77.3547 143.416C76.4721 142.568 76.4044 141.226 77.1008 139.419C77.7986 137.609 79.2041 135.518 80.9162 133.447C84.3429 129.304 88.8628 125.403 90.9516 124.203C92.0433 123.577 92.8964 123.411 93.5516 123.466C94.2033 123.521 94.712 123.799 95.1108 124.16C95.5146 124.525 95.8005 124.971 95.987 125.335C96.0793 125.516 96.1449 125.672 96.1869 125.781Z" stroke="#053D75"/>
<path d="M88.6644 125.344L95.4046 131.096" stroke="#053D75" stroke-linecap="round"/>
<path d="M92.8804 135.294L84.7783 128.723" stroke="#053D75" stroke-linecap="round"/>
<path d="M81.3462 132.375L89.63 138.901" stroke="#053D75" stroke-linecap="round"/>
<path d="M85.4939 142.438L77.9587 136.98" stroke="#053D75" stroke-linecap="round"/>
<path d="M11.1602 104.196L12.4209 104.954C18.3351 107.028 23.5616 88.472 23.7266 83.4961C23.9019 78.1695 19.113 79.1297 19.113 79.1297L11.1602 104.196ZM11.1602 104.196C10.4356 103.761 9.85296 103.125 9.48261 102.364M11.1602 104.196L9.48261 102.364M9.48261 102.364C9.11226 101.604 8.97012 100.752 9.07339 99.912L9.48261 102.364ZM18.7713 79.8623C18.933 79.7709 19.0964 79.6873 19.2614 79.6114C19.2898 79.6069 19.3294 79.6012 19.3786 79.5952C19.4948 79.5811 19.6634 79.5659 19.8661 79.5628C20.2755 79.5566 20.8033 79.6001 21.3152 79.7855C21.8208 79.9687 22.3052 80.2874 22.6593 80.8373C23.0152 81.3902 23.2682 82.2216 23.2268 83.4796C23.147 85.8869 21.8208 91.7082 19.7676 96.6778C18.7417 99.1608 17.5533 101.383 16.2817 102.848C15.0127 104.31 13.7953 104.88 12.6327 104.498L11.4178 103.767L11.4176 103.767C10.7761 103.382 10.2601 102.819 9.93211 102.145C9.60412 101.472 9.47816 100.718 9.56966 99.973L9.56966 99.9729C9.89721 97.3056 10.5949 93.1616 12.0273 89.2298C13.4661 85.2805 15.6111 81.6434 18.7708 79.8626L18.7713 79.8623Z" stroke="#053D75"/>
<path d="M15.0508 82.7785L23.1784 85.9665" stroke="#053D75" stroke-linecap="round"/>
<path d="M22.0161 90.983L12.7084 86.9309" stroke="#053D75" stroke-linecap="round"/>
<path d="M20.3999 95.7268L11.0469 91.493" stroke="#053D75" stroke-linecap="round"/>
<path d="M18.0339 100.947L9.67997 96.8502" stroke="#053D75" stroke-linecap="round"/>
<g opacity="0.35">
<path d="M60.494 99.5979C60.5086 100.009 60.5205 100.411 60.5297 100.804C60.5195 100.411 60.5079 100.006 60.494 99.5979Z" fill="#053D75"/>
</g>
<path d="M118.015 57.3686C118.07 57.3275 118.131 57.2951 118.197 57.2732C118.359 57.2199 118.534 57.2328 118.686 57.3091C119.473 57.7056 120.174 58.2536 120.749 58.9217C121.324 59.5898 121.762 60.3651 122.037 61.2031C122.313 62.0412 122.42 62.9257 122.354 63.8061C122.288 64.6864 122.049 65.5455 121.652 66.3342L118.817 71.957C118.419 72.7458 117.87 73.4487 117.201 74.0256C116.532 74.6025 115.757 75.0421 114.919 75.3193C114.081 75.5965 113.197 75.7058 112.318 75.641C111.438 75.5762 110.58 75.3386 109.793 74.9418C109.642 74.8654 109.527 74.7319 109.474 74.5706C109.457 74.52 109.447 74.468 109.444 74.4158" stroke="#053D75" stroke-linecap="round"/>
<path d="M64.7178 30.5281C64.7192 30.4565 64.7087 30.3846 64.686 30.3153C64.633 30.154 64.5181 30.0205 64.3667 29.9442C63.5796 29.5473 62.7218 29.3097 61.8423 29.2449C60.9628 29.1802 60.0789 29.2895 59.241 29.5667C58.403 29.8438 57.6276 30.2834 56.9588 30.8603C56.29 31.4372 55.7411 32.1402 55.3434 32.9289L52.5082 38.5518C52.1106 39.3404 51.8719 40.1995 51.8057 41.0799C51.7396 41.9603 51.8473 42.8448 52.1227 43.6828C52.3981 44.5209 52.8358 45.2961 53.4109 45.9643C53.9859 46.6324 54.687 47.1803 55.4741 47.5768C55.6256 47.6532 55.8013 47.6661 55.9625 47.6128C56.0114 47.5966 56.0577 47.5747 56.1007 47.5479" stroke="#053D75" stroke-linecap="round"/>
<path d="M113.612 68.2791C104.848 82.9683 85.8635 87.7864 71.2084 79.0438C56.5534 70.3012 51.7747 51.3066 60.538 36.6173C69.3013 21.9281 88.2863 17.11 102.941 25.8526C117.596 34.5952 122.375 53.5899 113.612 68.2791Z" stroke="#053D75"/>
<path d="M59.9049 38.2662L59.4717 38.0165L59.9049 38.2662C63.8885 31.3527 69.64 28.196 76.2264 27.7968C82.8455 27.3956 90.3492 29.7794 97.7698 34.0544C105.19 38.3293 111.016 43.6249 113.989 49.5519C116.947 55.4498 117.1 62.0084 113.116 68.9214C110.096 74.1615 105.596 78.0494 100.369 80.4044C98.4955 81.2485 94.5523 81.7388 89.6231 81.202C84.7171 80.6678 78.9053 79.1229 73.3186 75.9711C68.1523 73.0564 64.0126 68.8723 61.1091 64.8738C59.6582 62.8756 58.5206 60.9302 57.7202 59.2224C56.9157 57.506 56.4657 56.0589 56.3625 55.0518C55.7786 49.3493 56.8854 43.5062 59.9049 38.2662Z" stroke="#053D75"/>
<path d="M82.9604 100.65C82.7848 99.6894 82.456 98.749 81.973 97.8666L73.84 83.0065C72.2336 80.0713 69.1699 78.229 65.8241 78.1864L48.8853 77.9705C48.1189 77.9607 47.3647 78.0457 46.6372 78.2175M79.4404 110.992L72.8812 121.9C71.1839 124.723 68.1156 126.432 64.8214 126.39L47.8826 126.174C44.5368 126.132 41.4731 124.289 39.8666 121.354L31.7337 106.494C30.152 103.604 30.223 100.092 31.9203 97.2699L38.2066 86.8156" stroke="#0876E4"/>
<path d="M63.0408 84.596C65.7292 84.6298 68.1911 86.1101 69.4815 88.4689L75.0762 98.6959C76.346 101.017 76.2886 103.837 74.9257 106.103L68.7757 116.331C67.4127 118.598 64.949 119.97 62.3035 119.937L50.6472 119.791C47.9587 119.757 45.4968 118.277 44.2064 115.918L38.6117 105.691C37.342 103.37 37.3994 100.55 38.7623 98.2835L44.9123 88.0559C46.2752 85.7894 48.739 84.4165 51.3844 84.4497L63.0408 84.596Z" stroke="#0876E4"/>
<path fill-rule="evenodd" clip-rule="evenodd" d="M53.439 97.297C52.2622 96.5894 50.7346 96.9692 50.0271 98.1459L47.0708 103.062C45.9865 104.866 46.5699 107.206 48.3735 108.291L55.9397 112.841C57.7433 113.925 60.0845 113.343 61.1688 111.54L64.125 106.623C64.8326 105.447 64.4518 103.919 63.2751 103.212L53.439 97.297ZM50.8841 98.6612C51.3068 97.9582 52.2199 97.7308 52.9236 98.154L62.7598 104.069C63.4635 104.492 63.6908 105.405 63.268 106.108L60.3118 111.024C59.5122 112.354 57.7856 112.784 56.4551 111.984L48.8888 107.434C47.5583 106.634 47.1283 104.907 47.9278 103.578L50.8841 98.6612ZM56.4241 103.469C55.3518 102.824 53.9598 103.17 53.3151 104.242C52.6703 105.315 53.0173 106.706 54.0895 107.351C55.1618 107.996 56.5538 107.65 57.1986 106.578C57.8433 105.505 57.4963 104.114 56.4241 103.469ZM54.1721 104.758C54.532 104.159 55.3095 103.965 55.9088 104.326C56.508 104.686 56.7015 105.464 56.3416 106.062C55.9816 106.661 55.2041 106.855 54.6049 106.494C54.0056 106.134 53.8121 105.356 54.1721 104.758Z" fill="#0876E4"/>
<path d="M62.7246 103.721L63.747 102.021C65.2923 99.4512 64.4617 96.1151 61.8918 94.5698V94.5698C59.3219 93.0245 55.9858 93.8551 54.4405 96.425L54.1686 96.8771" stroke="#0876E4" stroke-linecap="round"/>
<g opacity="0.35">
<path d="M33.3783 68.8707C32.953 69.4311 32.5583 70.0142 32.1958 70.6173L32.1307 70.7256C32.1524 70.6895 32.1741 70.6534 32.1958 70.6173C32.5575 70.0137 32.9523 69.4306 33.3783 68.8707Z" fill="#053D75"/>
</g>
<g opacity="0.35">
<path d="M30.5345 74.32C30.6106 74.0729 30.6954 73.829 30.783 73.5911C30.696 73.8315 30.6144 74.0736 30.5345 74.32Z" fill="#053D75"/>
</g>
<g opacity="0.35">
<path d="M30.1319 75.7554C30.2078 75.4377 30.2899 75.1238 30.3824 74.814C30.294 75.1241 30.2105 75.4379 30.1319 75.7554Z" fill="#053D75"/>
</g>
<g opacity="0.35">
<path d="M29.4956 80.1259C29.5493 79.1803 29.6558 78.2383 29.8146 77.3044C29.6583 78.2387 29.5518 79.1805 29.4956 80.1259Z" fill="#053D75"/>
</g>
<path d="M43.3601 71.1833C46.3849 74.3955 48.748 77.0998 44.0785 83.7562C39.2066 90.7013 24.3585 85.3514 29.4648 72.2776C34.8216 58.5621 53.0322 60.8415 53.0322 60.8415C56.5847 61.3532 57.3477 61.9208 57.2851 62.1406" stroke="#053D75" stroke-linecap="round" stroke-linejoin="round"/>
<path d="M91.148 99.919C86.8925 98.7535 83.3959 97.9342 79.706 105.18C75.856 112.739 87.5434 123.346 96.6967 112.705C106.299 101.543 95.7474 86.5269 95.7474 86.5269C94.359 84.5619 92.6648 83.5696 91.9913 83.3191" stroke="#053D75" stroke-linecap="round" stroke-linejoin="round"/>
</svg>
