<svg width="209" height="195" viewBox="0 0 209 195" fill="none" xmlns="http://www.w3.org/2000/svg">
<rect x="34.0949" y="120.095" width="50" height="50" rx="25" fill="#FF0000"/>
<g clip-path="url(#clip0_2440_9386)">
<path fill-rule="evenodd" clip-rule="evenodd" d="M72.4588 136.157C72.9246 136.623 73.2603 137.203 73.4324 137.839C74.4232 141.827 74.1943 148.126 73.4516 152.268C73.2795 152.904 72.9438 153.484 72.478 153.95C72.0121 154.416 71.4324 154.751 70.7965 154.924C68.4685 155.558 59.0988 155.558 59.0988 155.558C59.0988 155.558 49.729 155.558 47.4009 154.924C46.765 154.751 46.1853 154.416 45.7195 153.95C45.2536 153.484 44.918 152.904 44.7459 152.268C43.7492 148.297 44.0224 141.994 44.7266 137.858C44.8986 137.222 45.2343 136.642 45.7001 136.176C46.1659 135.71 46.7457 135.375 47.3816 135.203C49.7096 134.568 59.0797 134.548 59.0797 134.548C59.0797 134.548 68.4493 134.548 70.7774 135.183C71.4133 135.355 71.993 135.691 72.4588 136.157ZM63.8702 145.053L56.0974 149.555V140.551L63.8702 145.053Z" fill="white"/>
</g>
<path d="M75.3622 172.998C57.9445 177.824 45.133 175.807 34.8088 162.786C24.4846 149.766 28.1847 124.82 41.2054 114.496L40.1858 125.255C40.1858 125.255 59.038 98.422 54.5433 80.2321C54.5433 80.2321 64.2831 92.0108 59.5373 100.443C59.5373 100.443 69.3078 80.6443 79.645 75.7026L71.5933 87.7691C99.671 72.666 116.524 66.368 133.978 33.4811C133.978 33.4811 130.446 49.9234 123.558 60.1264L169.326 24.9884C169.326 24.9884 159.566 50.3717 138.941 85.2696C138.941 85.2696 147.415 79.1644 156.496 77.0643C140.62 88.3892 111.759 122.169 107.991 130.694L120.933 119.091C119.995 128.994 112.325 137.026 98.683 145.602L118.008 139.538C105.715 144.295 87.1409 163.259 87.1409 163.259L94.173 161.952C87.7483 167.264 83.5722 170.724 75.3622 172.998Z" stroke="#D9D9D9" stroke-linejoin="round"/>
<path d="M75.3622 172.998C57.9445 177.824 45.133 175.807 34.8088 162.786C24.4846 149.766 28.1847 124.82 41.2054 114.496L40.1858 125.255C40.1858 125.255 59.038 98.422 54.5433 80.2321C54.5433 80.2321 64.2831 92.0108 59.5373 100.443C59.5373 100.443 69.3078 80.6443 79.645 75.7026L71.5933 87.7691C99.671 72.666 116.524 66.368 133.978 33.4811C133.978 33.4811 130.446 49.9234 123.558 60.1264L169.326 24.9884C169.326 24.9884 159.566 50.3717 138.941 85.2696C138.941 85.2696 147.415 79.1644 156.496 77.0643C140.62 88.3892 111.759 122.169 107.991 130.694L120.933 119.091C119.995 128.994 112.325 137.026 98.683 145.602L118.008 139.538C105.715 144.295 87.1409 163.259 87.1409 163.259L94.173 161.952C87.7483 167.264 83.5722 170.724 75.3622 172.998Z" stroke="#053D75" stroke-linejoin="round"/>
<defs>
<clipPath id="clip0_2440_9386">
<rect width="30" height="30" fill="white" transform="translate(44.0949 130.095)"/>
</clipPath>
</defs>
</svg>
