<svg width="33" height="32" viewBox="0 0 33 32" fill="none" xmlns="http://www.w3.org/2000/svg">
<g filter="url(#filter0_i_2520_19980)">
<path d="M17.4773 28.9529H24.9536L24.9943 22.2101H27.5C27.5 21.0817 27.5 20.382 27.5 19.3695C27.5 19.0933 27.2761 18.8692 27 18.8692H15.4717C15.1955 18.8692 14.9717 19.0931 14.9717 19.3692V22.2101H17.4773V28.9529Z" fill="#4C75BA" fill-opacity="0.2"/>
</g>
<path d="M24.9943 21.9601H24.7458L24.7443 22.2086L24.7051 28.7029H17.7273V22.2101V21.9601H17.4773H15.2217V19.3692C15.2217 19.2311 15.3336 19.1192 15.4717 19.1192H27C27.1379 19.1192 27.25 19.2312 27.25 19.3695V19.3754V19.3813V19.3872V19.3931V19.399V19.4049V19.4108V19.4167V19.4226V19.4284V19.4343V19.4402V19.446V19.4518V19.4577V19.4635V19.4693V19.4751V19.4809V19.4867V19.4925V19.4983V19.5041V19.5099V19.5156V19.5214V19.5272V19.5329V19.5386V19.5444V19.5501V19.5558V19.5616V19.5673V19.573V19.5787V19.5844V19.5901V19.5957V19.6014V19.6071V19.6127V19.6184V19.6241V19.6297V19.6353V19.641V19.6466V19.6522V19.6579V19.6635V19.6691V19.6747V19.6803V19.6859V19.6915V19.697V19.7026V19.7082V19.7137V19.7193V19.7249V19.7304V19.736V19.7415V19.747V19.7526V19.7581V19.7636V19.7691V19.7746V19.7801V19.7856V19.7911V19.7966V19.8021V19.8076V19.8131V19.8185V19.824V19.8295V19.8349V19.8404V19.8458V19.8513V19.8567V19.8622V19.8676V19.873V19.8785V19.8839V19.8893V19.8947V19.9001V19.9055V19.9109V19.9163V19.9217V19.9271V19.9325V19.9379V19.9432V19.9486V19.954V19.9593V19.9647V19.9701V19.9754V19.9808V19.9861V19.9915V19.9968V20.0021V20.0075V20.0128V20.0181V20.0235V20.0288V20.0341V20.0394V20.0447V20.05V20.0553V20.0606V20.0659V20.0712V20.0765V20.0818V20.0871V20.0924V20.0977V20.1029V20.1082V20.1135V20.1187V20.124V20.1293V20.1345V20.1398V20.1451V20.1503V20.1556V20.1608V20.1661V20.1713V20.1765V20.1818V20.187V20.1923V20.1975V20.2027V20.2079V20.2132V20.2184V20.2236V20.2288V20.2341V20.2393V20.2445V20.2497V20.2549V20.2601V20.2653V20.2705V20.2757V20.2809V20.2861V20.2913V20.2965V20.3017V20.3069V20.3121V20.3173V20.3225V20.3277V20.3329V20.3381V20.3432V20.3484V20.3536V20.3588V20.364V20.3691V20.3743V20.3795V20.3847V20.3898V20.395V20.4002V20.4054V20.4105V20.4157V20.4209V20.426V20.4312V20.4364V20.4415V20.4467V20.4519V20.457V20.4622V20.4674V20.4725V20.4777V20.4828V20.488V20.4932V20.4983V20.5035V20.5086V20.5138V20.519V20.5241V20.5293V20.5344V20.5396V20.5448V20.5499V20.5551V20.5602V20.5654V20.5706V20.5757V20.5809V20.586V20.5912V20.5964V20.6015V20.6067V20.6118V20.617V20.6222V20.6273V20.6325V20.6377V20.6428V20.648V20.6532V20.6583V20.6635V20.6687V20.6738V20.679V20.6842V20.6894V20.6945V20.6997V20.7049V20.7101V20.7152V20.7204V20.7256V20.7308V20.736V20.7411V20.7463V20.7515V20.7567V20.7619V20.7671V20.7723V20.7775V20.7827V20.7879V20.7931V20.7983V20.8035V20.8087V20.8139V20.8191V20.8243V20.8295V20.8347V20.8399V20.8451V20.8504V20.8556V20.8608V20.866V20.8712V20.8765V20.8817V20.8869V20.8922V20.8974V20.9027V20.9079V20.9131V20.9184V20.9236V20.9289V20.9341V20.9394V20.9447V20.9499V20.9552V20.9604V20.9657V20.971V20.9763V20.9815V20.9868V20.9921V20.9974V21.0027V21.008V21.0133V21.0186V21.0239V21.0292V21.0345V21.0398V21.0451V21.0504V21.0557V21.0611V21.0664V21.0717V21.0771V21.0824V21.0877V21.0931V21.0984V21.1038V21.1091V21.1145V21.1198V21.1252V21.1306V21.136V21.1413V21.1467V21.1521V21.1575V21.1629V21.1683V21.1737V21.1791V21.1845V21.1899V21.1953V21.2007V21.2062V21.2116V21.217V21.2225V21.2279V21.2333V21.2388V21.2443V21.2497V21.2552V21.2606V21.2661V21.2716V21.2771V21.2826V21.2881V21.2936V21.2991V21.3046V21.3101V21.3156V21.3211V21.3266V21.3322V21.3377V21.3432V21.3488V21.3543V21.3599V21.3654V21.371V21.3766V21.3822V21.3877V21.3933V21.3989V21.4045V21.4101V21.4157V21.4213V21.427V21.4326V21.4382V21.4438V21.4495V21.4551V21.4608V21.4664V21.4721V21.4778V21.4835V21.4891V21.4948V21.5005V21.5062V21.5119V21.5176V21.5234V21.5291V21.5348V21.5405V21.5463V21.552V21.5578V21.5635V21.5693V21.5751V21.5809V21.5867V21.5924V21.5982V21.6041V21.6099V21.6157V21.6215V21.6273V21.6332V21.639V21.6449V21.6507V21.6566V21.6625V21.6684V21.6742V21.6801V21.686V21.6919V21.6979V21.7038V21.7097V21.7157V21.7216V21.7275V21.7335V21.7395V21.7454V21.7514V21.7574V21.7634V21.7694V21.7754V21.7814V21.7875V21.7935V21.7995V21.8056V21.8116V21.8177V21.8238V21.8298V21.8359V21.842V21.8481V21.8542V21.8604V21.8665V21.8726V21.8788V21.8849V21.8911V21.8972V21.9034V21.9096V21.9158V21.922V21.9282V21.9344V21.9406V21.9469V21.9531V21.9594V21.9601H24.9943Z" stroke="url(#paint0_linear_2520_19980)" stroke-width="0.5"/>
<g filter="url(#filter1_i_2520_19980)">
<path d="M18.7304 3C19.653 3 20.4009 3.74788 20.4009 4.67044L20.4009 18.034L17.06 18.034L17.06 4.67044C17.06 3.74788 17.8079 3 18.7304 3Z" fill="#4C75BA" fill-opacity="0.2"/>
</g>
<path d="M18.7304 3.25C19.5149 3.25 20.1509 3.88595 20.1509 4.67044L20.1509 17.784L17.31 17.784L17.31 4.67044C17.31 3.88595 17.9459 3.25 18.7304 3.25Z" stroke="url(#paint1_linear_2520_19980)" stroke-width="0.5"/>
<g filter="url(#filter2_i_2520_19980)">
<path d="M23.7412 3C24.6637 3 25.4116 3.74788 25.4116 4.67044L25.4116 18.034L22.0707 18.034L22.0707 4.67044C22.0707 3.74788 22.8186 3 23.7412 3Z" fill="#4C75BA" fill-opacity="0.2"/>
</g>
<path d="M23.7412 3.25C24.5257 3.25 25.1616 3.88595 25.1616 4.67044L25.1616 17.784L22.3207 17.784L22.3207 4.67044C22.3207 3.88595 22.9567 3.25 23.7412 3.25Z" stroke="url(#paint2_linear_2520_19980)" stroke-width="0.5"/>
<path d="M18.9943 21.9601H18.7458L18.7443 22.2086L18.7051 28.7029H11.7273V22.2101V21.9601H11.4773H9.22168V19.3692C9.22168 19.2311 9.33361 19.1192 9.47168 19.1192H21C21.1379 19.1192 21.25 19.2312 21.25 19.3695V19.3754V19.3813V19.3872V19.3931V19.399V19.4049V19.4108V19.4167V19.4226V19.4284V19.4343V19.4402V19.446V19.4518V19.4577V19.4635V19.4693V19.4751V19.4809V19.4867V19.4925V19.4983V19.5041V19.5099V19.5156V19.5214V19.5272V19.5329V19.5386V19.5444V19.5501V19.5558V19.5616V19.5673V19.573V19.5787V19.5844V19.5901V19.5957V19.6014V19.6071V19.6127V19.6184V19.6241V19.6297V19.6353V19.641V19.6466V19.6522V19.6579V19.6635V19.6691V19.6747V19.6803V19.6859V19.6915V19.697V19.7026V19.7082V19.7137V19.7193V19.7249V19.7304V19.736V19.7415V19.747V19.7526V19.7581V19.7636V19.7691V19.7746V19.7801V19.7856V19.7911V19.7966V19.8021V19.8076V19.8131V19.8185V19.824V19.8295V19.8349V19.8404V19.8458V19.8513V19.8567V19.8622V19.8676V19.873V19.8785V19.8839V19.8893V19.8947V19.9001V19.9055V19.9109V19.9163V19.9217V19.9271V19.9325V19.9379V19.9432V19.9486V19.954V19.9593V19.9647V19.9701V19.9754V19.9808V19.9861V19.9915V19.9968V20.0021V20.0075V20.0128V20.0181V20.0235V20.0288V20.0341V20.0394V20.0447V20.05V20.0553V20.0606V20.0659V20.0712V20.0765V20.0818V20.0871V20.0924V20.0977V20.1029V20.1082V20.1135V20.1187V20.124V20.1293V20.1345V20.1398V20.1451V20.1503V20.1556V20.1608V20.1661V20.1713V20.1765V20.1818V20.187V20.1923V20.1975V20.2027V20.2079V20.2132V20.2184V20.2236V20.2288V20.2341V20.2393V20.2445V20.2497V20.2549V20.2601V20.2653V20.2705V20.2757V20.2809V20.2861V20.2913V20.2965V20.3017V20.3069V20.3121V20.3173V20.3225V20.3277V20.3329V20.3381V20.3432V20.3484V20.3536V20.3588V20.364V20.3691V20.3743V20.3795V20.3847V20.3898V20.395V20.4002V20.4054V20.4105V20.4157V20.4209V20.426V20.4312V20.4364V20.4415V20.4467V20.4519V20.457V20.4622V20.4674V20.4725V20.4777V20.4828V20.488V20.4932V20.4983V20.5035V20.5086V20.5138V20.519V20.5241V20.5293V20.5344V20.5396V20.5448V20.5499V20.5551V20.5602V20.5654V20.5706V20.5757V20.5809V20.586V20.5912V20.5964V20.6015V20.6067V20.6118V20.617V20.6222V20.6273V20.6325V20.6377V20.6428V20.648V20.6532V20.6583V20.6635V20.6687V20.6738V20.679V20.6842V20.6894V20.6945V20.6997V20.7049V20.7101V20.7152V20.7204V20.7256V20.7308V20.736V20.7411V20.7463V20.7515V20.7567V20.7619V20.7671V20.7723V20.7775V20.7827V20.7879V20.7931V20.7983V20.8035V20.8087V20.8139V20.8191V20.8243V20.8295V20.8347V20.8399V20.8451V20.8504V20.8556V20.8608V20.866V20.8712V20.8765V20.8817V20.8869V20.8922V20.8974V20.9027V20.9079V20.9131V20.9184V20.9236V20.9289V20.9341V20.9394V20.9447V20.9499V20.9552V20.9604V20.9657V20.971V20.9763V20.9815V20.9868V20.9921V20.9974V21.0027V21.008V21.0133V21.0186V21.0239V21.0292V21.0345V21.0398V21.0451V21.0504V21.0557V21.0611V21.0664V21.0717V21.0771V21.0824V21.0877V21.0931V21.0984V21.1038V21.1091V21.1145V21.1198V21.1252V21.1306V21.136V21.1413V21.1467V21.1521V21.1575V21.1629V21.1683V21.1737V21.1791V21.1845V21.1899V21.1953V21.2007V21.2062V21.2116V21.217V21.2225V21.2279V21.2333V21.2388V21.2443V21.2497V21.2552V21.2606V21.2661V21.2716V21.2771V21.2826V21.2881V21.2936V21.2991V21.3046V21.3101V21.3156V21.3211V21.3266V21.3322V21.3377V21.3432V21.3488V21.3543V21.3599V21.3654V21.371V21.3766V21.3822V21.3877V21.3933V21.3989V21.4045V21.4101V21.4157V21.4213V21.427V21.4326V21.4382V21.4438V21.4495V21.4551V21.4608V21.4664V21.4721V21.4778V21.4835V21.4891V21.4948V21.5005V21.5062V21.5119V21.5176V21.5234V21.5291V21.5348V21.5405V21.5463V21.552V21.5578V21.5635V21.5693V21.5751V21.5809V21.5867V21.5924V21.5982V21.6041V21.6099V21.6157V21.6215V21.6273V21.6332V21.639V21.6449V21.6507V21.6566V21.6625V21.6684V21.6742V21.6801V21.686V21.6919V21.6979V21.7038V21.7097V21.7157V21.7216V21.7275V21.7335V21.7395V21.7454V21.7514V21.7574V21.7634V21.7694V21.7754V21.7814V21.7875V21.7935V21.7995V21.8056V21.8116V21.8177V21.8238V21.8298V21.8359V21.842V21.8481V21.8542V21.8604V21.8665V21.8726V21.8788V21.8849V21.8911V21.8972V21.9034V21.9096V21.9158V21.922V21.9282V21.9344V21.9406V21.9469V21.9531V21.9594V21.9601H18.9943Z" stroke="#838993" stroke-width="0.5"/>
<path d="M12.7304 3.25C13.5149 3.25 14.1509 3.88595 14.1509 4.67044L14.1509 17.784L11.31 17.784L11.31 4.67044C11.31 3.88595 11.9459 3.25 12.7304 3.25Z" fill="#838993" stroke="#838993" stroke-width="0.5"/>
<path d="M17.7412 3.25C18.5257 3.25 19.1616 3.88595 19.1616 4.67044L19.1616 17.784L16.3207 17.784L16.3207 4.67044C16.3207 3.88595 16.9567 3.25 17.7412 3.25Z" fill="#838993" stroke="#838993" stroke-width="0.5"/>
<defs>
<filter id="filter0_i_2520_19980" x="12.9717" y="16.8692" width="14.5283" height="12.0837" filterUnits="userSpaceOnUse" color-interpolation-filters="sRGB">
<feFlood flood-opacity="0" result="BackgroundImageFix"/>
<feBlend mode="normal" in="SourceGraphic" in2="BackgroundImageFix" result="shape"/>
<feColorMatrix in="SourceAlpha" type="matrix" values="0 0 0 0 0 0 0 0 0 0 0 0 0 0 0 0 0 0 127 0" result="hardAlpha"/>
<feOffset dx="-2" dy="-2"/>
<feGaussianBlur stdDeviation="3"/>
<feComposite in2="hardAlpha" operator="arithmetic" k2="-1" k3="1"/>
<feColorMatrix type="matrix" values="0 0 0 0 0.983333 0 0 0 0 0.989394 0 0 0 0 1 0 0 0 0.8 0"/>
<feBlend mode="normal" in2="shape" result="effect1_innerShadow_2520_19980"/>
</filter>
<filter id="filter1_i_2520_19980" x="15.0601" y="1" width="5.34082" height="17.034" filterUnits="userSpaceOnUse" color-interpolation-filters="sRGB">
<feFlood flood-opacity="0" result="BackgroundImageFix"/>
<feBlend mode="normal" in="SourceGraphic" in2="BackgroundImageFix" result="shape"/>
<feColorMatrix in="SourceAlpha" type="matrix" values="0 0 0 0 0 0 0 0 0 0 0 0 0 0 0 0 0 0 127 0" result="hardAlpha"/>
<feOffset dx="-2" dy="-2"/>
<feGaussianBlur stdDeviation="3"/>
<feComposite in2="hardAlpha" operator="arithmetic" k2="-1" k3="1"/>
<feColorMatrix type="matrix" values="0 0 0 0 0.983333 0 0 0 0 0.989394 0 0 0 0 1 0 0 0 0.8 0"/>
<feBlend mode="normal" in2="shape" result="effect1_innerShadow_2520_19980"/>
</filter>
<filter id="filter2_i_2520_19980" x="20.0708" y="1" width="5.34082" height="17.034" filterUnits="userSpaceOnUse" color-interpolation-filters="sRGB">
<feFlood flood-opacity="0" result="BackgroundImageFix"/>
<feBlend mode="normal" in="SourceGraphic" in2="BackgroundImageFix" result="shape"/>
<feColorMatrix in="SourceAlpha" type="matrix" values="0 0 0 0 0 0 0 0 0 0 0 0 0 0 0 0 0 0 127 0" result="hardAlpha"/>
<feOffset dx="-2" dy="-2"/>
<feGaussianBlur stdDeviation="3"/>
<feComposite in2="hardAlpha" operator="arithmetic" k2="-1" k3="1"/>
<feColorMatrix type="matrix" values="0 0 0 0 0.983333 0 0 0 0 0.989394 0 0 0 0 1 0 0 0 0.8 0"/>
<feBlend mode="normal" in2="shape" result="effect1_innerShadow_2520_19980"/>
</filter>
<linearGradient id="paint0_linear_2520_19980" x1="14.9717" y1="18.9652" x2="25.5779" y2="30.8638" gradientUnits="userSpaceOnUse">
<stop stop-color="#E9EDF4"/>
<stop offset="1" stop-color="#E8EDF7"/>
</linearGradient>
<linearGradient id="paint1_linear_2520_19980" x1="20.3691" y1="3" x2="13.6986" y2="4.64165" gradientUnits="userSpaceOnUse">
<stop stop-color="#E9EDF4"/>
<stop offset="1" stop-color="#E8EDF7"/>
</linearGradient>
<linearGradient id="paint2_linear_2520_19980" x1="25.3798" y1="3" x2="18.7093" y2="4.64165" gradientUnits="userSpaceOnUse">
<stop stop-color="#E9EDF4"/>
<stop offset="1" stop-color="#E8EDF7"/>
</linearGradient>
</defs>
</svg>
