<svg width="32" height="33" viewBox="0 0 32 33" fill="none" xmlns="http://www.w3.org/2000/svg">
<g clip-path="url(#clip0_2513_2132)">
<rect y="0.161133" width="32" height="32" rx="16" fill="#1877F2"/>
<path d="M32 16.1611C32 7.32363 24.8375 0.161133 16 0.161133C7.1625 0.161133 0 7.32363 0 16.1611C0 24.1486 5.85 30.7674 13.5 31.9674V20.7861H9.4375V16.1611H13.5V12.6361C13.5 8.62676 15.8875 6.41113 19.5438 6.41113C21.2938 6.41113 23.125 6.72363 23.125 6.72363V10.6611H21.1063C19.1188 10.6611 18.5 11.8955 18.5 13.1611V16.1611H22.9375L22.2281 20.7861H18.5V31.9674C26.15 30.7674 32 24.1486 32 16.1611Z" fill="#1877F2"/>
<path d="M22.1482 22.1174L22.8219 17.6272H18.6073V14.7145C18.6073 13.4858 19.195 12.2873 21.0826 12.2873H23V8.46453C23 8.46453 21.2607 8.16113 19.5986 8.16113C16.126 8.16113 13.8584 10.3122 13.8584 14.2048V17.6272H10V22.1174H13.8584V32.973C14.6331 33.0974 15.4256 33.1611 16.2329 33.1611C17.0402 33.1611 17.8326 33.0974 18.6073 32.973V22.1174H22.1482Z" fill="white"/>
</g>
<defs>
<clipPath id="clip0_2513_2132">
<rect y="0.161133" width="32" height="32" rx="16" fill="white"/>
</clipPath>
</defs>
</svg>
