<svg width="65" height="64" viewBox="0 0 65 64" fill="none" xmlns="http://www.w3.org/2000/svg">
<path d="M37.9554 61.1749C51.1284 61.1749 61.8072 50.4961 61.8072 37.323C61.8072 24.15 51.1284 13.4712 37.9554 13.4712C24.7824 13.4712 14.1035 24.15 14.1035 37.323C14.1035 50.4961 24.7824 61.1749 37.9554 61.1749Z" fill="white"/>
<path d="M37.996 19.6921V37.3218V19.6921ZM37.5988 37.355H26.1914H37.5988Z" fill="white"/>
<path d="M32.6261 52.4354C43.9172 52.4354 53.0705 43.2821 53.0705 31.991C53.0705 20.6998 43.9172 11.5465 32.6261 11.5465C21.3349 11.5465 12.1816 20.6998 12.1816 31.991C12.1816 43.2821 21.3349 52.4354 32.6261 52.4354Z" fill="white"/>
<path d="M32.6651 16.8789V31.99V16.8789ZM32.3247 32.0185H22.5469H32.3247Z" fill="white"/>
<g filter="url(#filter0_i_2535_3810)">
<path d="M32.6304 61.3618C48.8514 61.3618 62.0011 48.2121 62.0011 31.9911C62.0011 15.7702 48.8514 2.62048 32.6304 2.62048C16.4095 2.62048 3.25977 15.7702 3.25977 31.9911C3.25977 48.2121 16.4095 61.3618 32.6304 61.3618Z" fill="#4C75BA" fill-opacity="0.2"/>
</g>
<path d="M32.6304 61.3618C48.8514 61.3618 62.0011 48.2121 62.0011 31.9911C62.0011 15.7702 48.8514 2.62048 32.6304 2.62048C16.4095 2.62048 3.25977 15.7702 3.25977 31.9911C3.25977 48.2121 16.4095 61.3618 32.6304 61.3618Z" stroke="url(#paint0_linear_2535_3810)" stroke-miterlimit="10" stroke-linecap="round" stroke-linejoin="round"/>
<path d="M37.9554 61.1749C51.1284 61.1749 61.8072 50.4961 61.8072 37.323C61.8072 24.15 51.1284 13.4712 37.9554 13.4712C24.7824 13.4712 14.1035 24.15 14.1035 37.323C14.1035 50.4961 24.7824 61.1749 37.9554 61.1749Z" stroke="#0876E4" stroke-miterlimit="10" stroke-linecap="round" stroke-linejoin="round"/>
<path d="M37.996 19.6921V37.3218M37.5988 37.355H26.1914" stroke="#0876E4" stroke-miterlimit="10" stroke-linecap="round" stroke-linejoin="round"/>
<defs>
<filter id="filter0_i_2535_3810" x="-2.57357" y="-3.21285" width="65.0755" height="65.0747" filterUnits="userSpaceOnUse" color-interpolation-filters="sRGB">
<feFlood flood-opacity="0" result="BackgroundImageFix"/>
<feBlend mode="normal" in="SourceGraphic" in2="BackgroundImageFix" result="shape"/>
<feColorMatrix in="SourceAlpha" type="matrix" values="0 0 0 0 0 0 0 0 0 0 0 0 0 0 0 0 0 0 127 0" result="hardAlpha"/>
<feOffset dx="-5.33333" dy="-5.33333"/>
<feGaussianBlur stdDeviation="8"/>
<feComposite in2="hardAlpha" operator="arithmetic" k2="-1" k3="1"/>
<feColorMatrix type="matrix" values="0 0 0 0 0.983333 0 0 0 0 0.989394 0 0 0 0 1 0 0 0 0.8 0"/>
<feBlend mode="normal" in2="shape" result="effect1_innerShadow_2535_3810"/>
</filter>
<linearGradient id="paint0_linear_2535_3810" x1="3.25977" y1="3.17994" x2="65.1309" y2="59.0464" gradientUnits="userSpaceOnUse">
<stop stop-color="#E9EDF4"/>
<stop offset="1" stop-color="#E8EDF7"/>
</linearGradient>
</defs>
</svg>
