<svg width="32" height="33" viewBox="0 0 32 33" fill="none" xmlns="http://www.w3.org/2000/svg">
<rect y="0.161133" width="32" height="32" rx="16" fill="url(#paint0_linear_2513_2136)"/>
<path d="M19.4613 24.4811H12.5387C9.85951 24.4811 7.67999 22.3015 7.67999 19.6224V12.6997C7.67999 10.0206 9.85951 7.84106 12.5387 7.84106H19.4613C22.1405 7.84106 24.32 10.0206 24.32 12.6997V19.6224C24.32 22.3015 22.1405 24.4811 19.4613 24.4811ZM12.5387 9.25123C10.6371 9.25123 9.09016 10.7982 9.09016 12.6997V19.6224C9.09016 21.5239 10.6371 23.0709 12.5387 23.0709H19.4613C21.3629 23.0709 22.9098 21.5239 22.9098 19.6224V12.6997C22.9098 10.7982 21.3629 9.25123 19.4613 9.25123H12.5387Z" fill="white"/>
<path d="M16 20.6735C13.5118 20.6735 11.4874 18.6492 11.4874 16.161C11.4874 13.6728 13.5118 11.6484 16 11.6484C18.4881 11.6484 20.5125 13.6728 20.5125 16.161C20.5125 18.6492 18.4881 20.6735 16 20.6735ZM16 13.0586C14.2892 13.0586 12.8976 14.4502 12.8976 16.161C12.8976 17.8717 14.2892 19.2634 16 19.2634C17.7107 19.2634 19.1023 17.8717 19.1023 16.161C19.1023 14.4502 17.7107 13.0586 16 13.0586Z" fill="white"/>
<path d="M21.1627 11.6437C21.1627 12.0001 20.8737 12.2891 20.5173 12.2891C20.1609 12.2891 19.8719 12.0001 19.8719 11.6437C19.8719 11.2873 20.1609 10.9983 20.5173 10.9983C20.8737 10.9983 21.1627 11.2873 21.1627 11.6437Z" fill="white"/>
<defs>
<linearGradient id="paint0_linear_2513_2136" x1="2.9293" y1="29.232" x2="29.0707" y2="3.09023" gradientUnits="userSpaceOnUse">
<stop stop-color="#FFC107"/>
<stop offset="0.507" stop-color="#F44336"/>
<stop offset="0.99" stop-color="#9C27B0"/>
</linearGradient>
</defs>
</svg>
