<svg width="24" height="24" viewBox="0 0 24 24" fill="none" xmlns="http://www.w3.org/2000/svg">
<g filter="url(#filter0_i_2525_3572)">
<path fill-rule="evenodd" clip-rule="evenodd" d="M2.625 7.64832H3.92446V6.34886C3.92446 5.65958 4.19827 4.99854 4.68567 4.51114C5.17306 4.02375 5.8341 3.74994 6.52338 3.74994H16.9191C17.6083 3.74994 18.2694 4.02375 18.7568 4.51114C19.2442 4.99854 19.518 5.65958 19.518 6.34886V19.3435C19.518 20.0327 19.2442 20.6938 18.7568 21.1812C18.2694 21.6686 17.6083 21.9424 16.9191 21.9424H6.52338C5.8341 21.9424 5.17306 21.6686 4.68567 21.1812C4.19827 20.6938 3.92446 20.0327 3.92446 19.3435V18.044H2.625M2.625 12.8462H3.92446H2.625ZM2.625 10.2472H3.92446H2.625ZM2.625 15.4451H3.92446H2.625Z" fill="#4C75BA" fill-opacity="0.2"/>
</g>
<path d="M2.625 7.64832H3.92446V6.34886C3.92446 5.65958 4.19827 4.99854 4.68567 4.51114C5.17306 4.02375 5.8341 3.74994 6.52338 3.74994H16.9191C17.6083 3.74994 18.2694 4.02375 18.7568 4.51114C19.2442 4.99854 19.518 5.65958 19.518 6.34886V19.3435C19.518 20.0327 19.2442 20.6938 18.7568 21.1812C18.2694 21.6686 17.6083 21.9424 16.9191 21.9424H6.52338C5.8341 21.9424 5.17306 21.6686 4.68567 21.1812C4.19827 20.6938 3.92446 20.0327 3.92446 19.3435V18.044H2.625M2.625 12.8462H3.92446M2.625 10.2472H3.92446M2.625 15.4451H3.92446" stroke="url(#paint0_linear_2525_3572)" stroke-width="0.5" stroke-linecap="round" stroke-linejoin="round"/>
<path d="M4.875 5.39832H6.17446V4.09886C6.17446 3.40958 6.44827 2.74854 6.93567 2.26114C7.42306 1.77375 8.0841 1.49994 8.77338 1.49994H19.1691C19.8583 1.49994 20.5194 1.77375 21.0068 2.26114C21.4942 2.74854 21.768 3.40958 21.768 4.09886V17.0935C21.768 17.7827 21.4942 18.4438 21.0068 18.9312C20.5194 19.4186 19.8583 19.6924 19.1691 19.6924H8.77338C8.0841 19.6924 7.42306 19.4186 6.93567 18.9312C6.44827 18.4438 6.17446 17.7827 6.17446 17.0935V15.794H4.875M4.875 10.5962H6.17446M4.875 7.99724H6.17446M4.875 13.1951H6.17446" stroke="#0876E4" stroke-width="0.5" stroke-linecap="round" stroke-linejoin="round"/>
<path d="M14.3284 10.5C15.7638 10.5 16.9273 9.33639 16.9273 7.90104C16.9273 6.4657 15.7638 5.30212 14.3284 5.30212C12.8931 5.30212 11.7295 6.4657 11.7295 7.90104C11.7295 9.33639 12.8931 10.5 14.3284 10.5Z" fill="#0876E4"/>
<path fill-rule="evenodd" clip-rule="evenodd" d="M18.2264 14.3983V13.0989C18.2264 12.4096 17.9526 11.7485 17.4652 11.2611C16.9778 10.7738 16.3168 10.4999 15.6275 10.4999H13.0286C12.3393 10.4999 11.6783 10.7738 11.1909 11.2611C10.7035 11.7485 10.4297 12.4096 10.4297 13.0989V14.3983C10.4297 14.743 10.5666 15.0735 10.8103 15.3172C11.054 15.5609 11.3845 15.6978 11.7291 15.6978H16.927C17.2716 15.6978 17.6021 15.5609 17.8458 15.3172C18.0895 15.0735 18.2264 14.743 18.2264 14.3983Z" stroke="#0876E4" stroke-width="0.5" stroke-linecap="round" stroke-linejoin="round"/>
<defs>
<filter id="filter0_i_2525_3572" x="0.375" y="1.49994" width="19.3926" height="20.6924" filterUnits="userSpaceOnUse" color-interpolation-filters="sRGB">
<feFlood flood-opacity="0" result="BackgroundImageFix"/>
<feBlend mode="normal" in="SourceGraphic" in2="BackgroundImageFix" result="shape"/>
<feColorMatrix in="SourceAlpha" type="matrix" values="0 0 0 0 0 0 0 0 0 0 0 0 0 0 0 0 0 0 127 0" result="hardAlpha"/>
<feOffset dx="-2" dy="-2"/>
<feGaussianBlur stdDeviation="3"/>
<feComposite in2="hardAlpha" operator="arithmetic" k2="-1" k3="1"/>
<feColorMatrix type="matrix" values="0 0 0 0 0.983333 0 0 0 0 0.989394 0 0 0 0 1 0 0 0 0.8 0"/>
<feBlend mode="normal" in2="shape" result="effect1_innerShadow_2525_3572"/>
</filter>
<linearGradient id="paint0_linear_2525_3572" x1="2.625" y1="3.92321" x2="21.5915" y2="19.8257" gradientUnits="userSpaceOnUse">
<stop stop-color="#E9EDF4"/>
<stop offset="1" stop-color="#E8EDF7"/>
</linearGradient>
</defs>
</svg>
