<svg width="32" height="32" viewBox="0 0 32 32" fill="none" xmlns="http://www.w3.org/2000/svg">
<g filter="url(#filter0_i_504_18337)">
<path d="M22.5785 5.18483C22.4471 5.09078 22.2947 5.03034 22.1345 5.00882C21.9744 4.98729 21.8114 5.00532 21.6598 5.06134L21.6663 5.05917L9.66522 9.32486C9.47103 9.39426 9.30301 9.52193 9.18413 9.69041C9.06526 9.8589 9.00133 10.06 9.00108 10.2662V24.1746C8.38775 23.8396 7.69999 23.6641 7.00108 23.6644H7C5.98569 23.6235 4.99628 23.9848 4.24713 24.6697C3.49798 25.3546 3.04975 26.3076 3 27.3213V27.33C3.0478 28.3466 3.49617 29.303 4.24712 29.99C4.99808 30.6771 5.99054 31.039 7.00758 30.9967H7C8.01431 31.0376 9.00372 30.6763 9.75287 29.9914C10.502 29.3065 10.9503 28.3535 11 27.3397V13.3761L21 9.88488V19.6045C20.3863 19.2704 19.6987 19.0954 19 19.0954H18.9989C17.9846 19.0542 16.9952 19.4155 16.2461 20.1004C15.4971 20.7854 15.0492 21.7386 15 22.7523V22.761C15.0475 23.7777 15.4958 24.7342 16.2468 25.4214C16.9978 26.1085 17.9905 26.4703 19.0076 26.4277H19L19.1138 26.4298C19.9882 26.4299 20.8377 26.1378 21.5272 25.6001C22.2167 25.0624 22.7069 24.3098 22.9198 23.4618L22.9252 23.4348C22.9736 23.3179 22.999 23.1929 23 23.0665V6.00157C23.0002 5.84208 22.9621 5.68489 22.8889 5.54315C22.8158 5.40142 22.7097 5.27929 22.5796 5.18699L22.5764 5.18483H22.5785Z" fill="#4C75BA" fill-opacity="0.2"/>
</g>
<path d="M19.0076 26.1778V26.1777H19L18.9995 26.234L18.9971 26.1779C18.046 26.2178 17.1178 25.8794 16.4156 25.2369C15.7152 24.5961 15.2964 23.7047 15.2501 22.7568C15.2979 21.8119 15.7164 20.9237 16.4149 20.2849C17.1152 19.6445 18.0404 19.3067 18.9888 19.3452L18.9888 19.3454H18.9989H19C19.657 19.3454 20.3035 19.51 20.8805 19.8241L21.25 20.0253V19.6045V9.88488V9.5328L20.9176 9.64885L10.9176 13.14L10.75 13.1986V13.3761V27.3335C10.702 28.2791 10.2832 29.1678 9.58418 29.8069C8.88369 30.4473 7.95853 30.7851 7.01008 30.7469L7.00844 30.7876L7.00758 30.7467H7L6.99908 30.7924L6.99718 30.7469C6.04613 30.7865 5.11809 30.448 4.41588 29.8056C3.71554 29.1648 3.29665 28.2736 3.25009 27.3258C3.2985 26.3809 3.71723 25.4929 4.41582 24.8542C5.11631 24.2138 6.04147 23.8759 6.98992 23.9142L6.98991 23.9144H7H7.00108H7.00118C7.65818 23.9141 8.30469 24.0791 8.88124 24.394L9.25108 24.596V24.1746V10.2665C9.25127 10.1118 9.29922 9.96094 9.3884 9.83454C9.47754 9.70821 9.60351 9.61245 9.74911 9.56037C9.74919 9.56034 9.74927 9.56031 9.74935 9.56028L21.75 5.29474L21.75 5.29455C21.8622 5.2537 21.9828 5.24067 22.1012 5.25659C22.196 5.26933 22.2872 5.30031 22.3698 5.34756L22.4377 5.39281L19.0076 26.1778ZM19.0076 26.1778L19.1161 26.1798C19.934 26.1793 20.7285 25.9059 21.3735 25.403C22.0175 24.9007 22.4757 24.1983 22.6759 23.4068L22.6801 23.3857L22.6849 23.3617L22.6943 23.3391C22.7302 23.2523 22.7491 23.1593 22.75 23.0654V6.00157V6.00132C22.7501 5.88181 22.7216 5.76401 22.6668 5.6578L22.8879 5.54367L22.6668 5.6578C22.6125 5.55259 22.534 5.46178 22.4377 5.39283L19.0076 26.1778Z" stroke="url(#paint0_linear_504_18337)" stroke-width="0.5"/>
<path d="M23.0076 24.0019V24.0018H23L22.9994 24.0636L22.9967 24.0021C22.0487 24.0433 21.1218 23.6933 20.419 23.0256C19.7175 22.3591 19.2964 21.4299 19.2501 20.4398C19.298 19.4527 19.7187 18.5269 20.4183 17.8625C21.1192 17.1969 22.0431 16.8475 22.9884 16.8873L22.9884 16.8876H22.9989H23C23.6552 16.8875 24.3005 17.058 24.877 17.3839L25.25 17.5948V17.1662V7.07276V6.7162L24.9148 6.83773L14.9148 10.4632L14.75 10.5229V10.6982V25.193C14.7019 26.1805 14.2807 27.1067 13.5807 27.7713C12.8797 28.4368 11.9558 28.7864 11.0105 28.7468L11.0086 28.7921L11.0076 28.7465H11L10.9989 28.7968L10.9968 28.7468C10.0488 28.7878 9.12207 28.4376 8.41932 27.7699C7.71789 27.1035 7.29666 26.1745 7.25007 25.1845C7.29852 24.1974 7.71959 23.2718 8.41926 22.6075C9.12029 21.942 10.0442 21.5924 10.9895 21.6321L10.9895 21.6323H11H11.0011H11.0012C11.6564 21.632 12.3017 21.8028 12.8777 22.1295L13.2511 22.3413V21.9121V7.469C13.2513 7.30423 13.3005 7.14437 13.3909 7.01131C13.4812 6.87843 13.6077 6.77927 13.752 6.72567C13.752 6.72564 13.7521 6.72561 13.7522 6.72558L25.7529 2.29598L25.7528 2.2958C25.8641 2.25375 25.9831 2.24044 26.1 2.25676C26.1935 2.26981 26.2839 2.30159 26.3662 2.35048L26.434 2.39745L23.0076 24.0019ZM23.0076 24.0019L23.1162 24.0041C23.9316 24.0035 24.7248 23.7206 25.3699 23.1981C26.0143 22.6763 26.4744 21.9449 26.6755 21.1188L26.6798 21.0965L26.6842 21.0732L26.693 21.0512C26.7297 20.9592 26.7491 20.8604 26.75 20.7603V3.04009V3.03985C26.7501 2.91261 26.7208 2.78756 26.665 2.6753L26.8879 2.56455L26.665 2.6753C26.6098 2.56412 26.5304 2.46911 26.4341 2.39748L23.0076 24.0019Z" stroke="#0876E4" stroke-width="0.5"/>
<path d="M7.22606 3.02619C7.16226 3.00283 7.09362 2.99493 7.02601 3.00316C6.9584 3.01139 6.89383 3.03551 6.83783 3.07346C6.78183 3.1114 6.73606 3.16205 6.70444 3.22106C6.67282 3.28007 6.65629 3.34569 6.65625 3.41231V10.0825C6.26645 9.77729 5.78391 9.60758 5.28463 9.60007C4.78535 9.59255 4.29769 9.74765 3.89847 10.0409C3.49926 10.3342 3.21116 10.7491 3.07955 11.2201C2.94795 11.6911 2.98032 12.1915 3.17156 12.6425C3.36281 13.0936 3.70206 13.4696 4.13589 13.7113C4.56972 13.9531 5.07347 14.0469 5.5678 13.9779C6.06214 13.909 6.51897 13.6812 6.86634 13.3304C7.21371 12.9797 7.43189 12.5259 7.4865 12.0405C7.49541 12.0069 7.49995 11.9724 7.5 11.9377V6.75756L11.4302 8.19862C11.494 8.22198 11.5626 8.22989 11.6302 8.22165C11.6979 8.21342 11.7624 8.1893 11.8184 8.15136C11.8744 8.11341 11.9202 8.06277 11.9518 8.00376C11.9834 7.94475 12 7.87912 12 7.8125V6.01558C12.0001 5.65159 11.8866 5.29625 11.6746 4.99706C11.4626 4.69787 11.1622 4.46909 10.8137 4.3413L7.22606 3.02619Z" fill="#0876E4"/>
<defs>
<filter id="filter0_i_504_18337" x="1" y="3" width="22" height="28" filterUnits="userSpaceOnUse" color-interpolation-filters="sRGB">
<feFlood flood-opacity="0" result="BackgroundImageFix"/>
<feBlend mode="normal" in="SourceGraphic" in2="BackgroundImageFix" result="shape"/>
<feColorMatrix in="SourceAlpha" type="matrix" values="0 0 0 0 0 0 0 0 0 0 0 0 0 0 0 0 0 0 127 0" result="hardAlpha"/>
<feOffset dx="-2" dy="-2"/>
<feGaussianBlur stdDeviation="3"/>
<feComposite in2="hardAlpha" operator="arithmetic" k2="-1" k3="1"/>
<feColorMatrix type="matrix" values="0 0 0 0 0.983333 0 0 0 0 0.989394 0 0 0 0 1 0 0 0 0.8 0"/>
<feBlend mode="normal" in2="shape" result="effect1_innerShadow_504_18337"/>
</filter>
<linearGradient id="paint0_linear_504_18337" x1="3" y1="5.24763" x2="28.7959" y2="23.1648" gradientUnits="userSpaceOnUse">
<stop stop-color="#E9EDF4"/>
<stop offset="1" stop-color="#E8EDF7"/>
</linearGradient>
</defs>
</svg>
