<svg width="64" height="64" viewBox="0 0 64 64" fill="none" xmlns="http://www.w3.org/2000/svg">
<g filter="url(#filter0_i_2535_3825)">
<path d="M17.3333 52C15.8667 52 14.6107 51.4782 13.5653 50.4347C12.5218 49.3893 12 48.1333 12 46.6667V28C12 24.6667 12.6329 21.544 13.8987 18.632C15.1662 15.7218 16.8782 13.1884 19.0347 11.032C21.1893 8.87733 23.7227 7.16622 26.6347 5.89867C29.5449 4.63289 32.6667 4 36 4C39.3333 4 42.456 4.63289 45.368 5.89867C48.2782 7.16622 50.8116 8.87733 52.968 11.032C55.1227 13.1884 56.8338 15.7218 58.1013 18.632C59.3671 21.544 60 24.6667 60 28V46.6667C60 48.1333 59.4782 49.3893 58.4347 50.4347C57.3893 51.4782 56.1333 52 54.6667 52H49.3333C47.8667 52 46.6116 51.4782 45.568 50.4347C44.5227 49.3893 44 48.1333 44 46.6667V36C44 34.5333 44.5227 33.2773 45.568 32.232C46.6116 31.1884 47.8667 30.6667 49.3333 30.6667H54.6667V28C54.6667 22.8 52.8551 18.3884 49.232 14.7653C45.6107 11.144 41.2 9.33333 36 9.33333C30.8 9.33333 26.3893 11.144 22.768 14.7653C19.1449 18.3884 17.3333 22.8 17.3333 28V30.6667H22.6667C24.1333 30.6667 25.3884 31.1884 26.432 32.232C27.4773 33.2773 28 34.5333 28 36V46.6667C28 48.1333 27.4773 49.3893 26.432 50.4347C25.3884 51.4782 24.1333 52 22.6667 52H17.3333Z" fill="#4C75BA" fill-opacity="0.2"/>
</g>
<path d="M17.3333 51.5C16.0002 51.5 14.871 51.0315 13.9186 50.0809C13.9186 50.0808 13.9186 50.0808 13.9186 50.0808C12.9683 49.1286 12.5 47.9995 12.5 46.6667V28C12.5 24.7319 13.1201 21.6776 14.3571 18.8317C15.6007 15.9765 17.2779 13.4959 19.3882 11.3856C21.4967 9.27709 23.9771 7.60079 26.8341 6.35717C29.6782 5.12014 32.7318 4.5 36 4.5C39.2681 4.5 42.3224 5.12009 45.1683 6.35707C48.0236 7.6007 50.5042 9.27706 52.6146 11.3857C54.723 13.4959 56.3992 15.9763 57.6428 18.8313C58.8799 21.6773 59.5 24.7318 59.5 28V46.6667C59.5 47.9997 59.0316 49.1288 58.0811 50.0811C57.1288 51.0316 55.9997 51.5 54.6667 51.5H49.3333C48.0002 51.5 46.872 51.0316 45.9216 50.0811C44.9692 49.1287 44.5 47.9995 44.5 46.6667V36C44.5 34.6671 44.9692 33.538 45.9216 32.5856C46.872 31.6351 48.0002 31.1667 49.3333 31.1667H54.6667H55.1667V30.6667V28C55.1667 22.6696 53.304 18.1302 49.5856 14.4118C45.8688 10.6951 41.3303 8.83333 36 8.83333C30.6697 8.83333 26.1312 10.6951 22.4144 14.4118C18.696 18.1302 16.8333 22.6696 16.8333 28V30.6667V31.1667H17.3333H22.6667C23.9998 31.1667 25.128 31.6351 26.0784 32.5856C27.0308 33.538 27.5 34.6671 27.5 36V46.6667C27.5 47.9995 27.0308 49.1287 26.0784 50.0811C25.128 51.0316 23.9998 51.5 22.6667 51.5H17.3333Z" stroke="url(#paint0_linear_2535_3825)"/>
<path d="M13.3333 55.5C12.0002 55.5 10.871 55.0315 9.91863 54.0809C9.91861 54.0808 9.9186 54.0808 9.91859 54.0808C8.96827 53.1286 8.5 51.9995 8.5 50.6667V32C8.5 28.7319 9.12009 25.6776 10.3571 22.8317C11.6007 19.9765 13.2779 17.4959 15.3882 15.3856C17.4967 13.2771 19.9771 11.6008 22.8341 10.3572C25.6782 9.12014 28.7318 8.5 32 8.5C35.2681 8.5 38.3224 9.12009 41.1683 10.3571C44.0236 11.6007 46.5042 13.2771 48.6146 15.3857C50.723 17.4959 52.3992 19.9763 53.6428 22.8313C54.8799 25.6773 55.5 28.7318 55.5 32V50.6667C55.5 51.9997 55.0316 53.1288 54.0811 54.0811C53.1288 55.0316 51.9997 55.5 50.6667 55.5H45.3333C44.0002 55.5 42.872 55.0316 41.9216 54.0811C40.9692 53.1287 40.5 51.9995 40.5 50.6667V40C40.5 38.6671 40.9692 37.538 41.9216 36.5856C42.872 35.6351 44.0002 35.1667 45.3333 35.1667H50.6667H51.1667V34.6667V32C51.1667 26.6696 49.304 22.1302 45.5856 18.4118C41.8688 14.6951 37.3303 12.8333 32 12.8333C26.6697 12.8333 22.1312 14.6951 18.4144 18.4118C14.696 22.1302 12.8333 26.6696 12.8333 32V34.6667V35.1667H13.3333H18.6667C19.9998 35.1667 21.128 35.6351 22.0784 36.5856C23.0308 37.538 23.5 38.6671 23.5 40V50.6667C23.5 51.9995 23.0308 53.1287 22.0784 54.0811C21.128 55.0316 19.9998 55.5 18.6667 55.5H13.3333Z" stroke="#0876E4"/>
<defs>
<filter id="filter0_i_2535_3825" x="8" y="0" width="52" height="52" filterUnits="userSpaceOnUse" color-interpolation-filters="sRGB">
<feFlood flood-opacity="0" result="BackgroundImageFix"/>
<feBlend mode="normal" in="SourceGraphic" in2="BackgroundImageFix" result="shape"/>
<feColorMatrix in="SourceAlpha" type="matrix" values="0 0 0 0 0 0 0 0 0 0 0 0 0 0 0 0 0 0 127 0" result="hardAlpha"/>
<feOffset dx="-4" dy="-4"/>
<feGaussianBlur stdDeviation="6"/>
<feComposite in2="hardAlpha" operator="arithmetic" k2="-1" k3="1"/>
<feColorMatrix type="matrix" values="0 0 0 0 0.983333 0 0 0 0 0.989394 0 0 0 0 1 0 0 0 0.8 0"/>
<feBlend mode="normal" in2="shape" result="effect1_innerShadow_2535_3825"/>
</filter>
<linearGradient id="paint0_linear_2535_3825" x1="12" y1="4.45716" x2="62.5575" y2="50.108" gradientUnits="userSpaceOnUse">
<stop stop-color="#E9EDF4"/>
<stop offset="1" stop-color="#E8EDF7"/>
</linearGradient>
</defs>
</svg>
