<svg width="33" height="32" viewBox="0 0 33 32" fill="none" xmlns="http://www.w3.org/2000/svg">
<g clip-path="url(#clip0_83_145)">
<g filter="url(#filter0_i_83_145)">
<path fill-rule="evenodd" clip-rule="evenodd" d="M13.2978 28.2154H14.2227C14.0873 28.3096 13.9258 28.3601 13.7603 28.3601C13.5947 28.3601 13.4333 28.3096 13.2978 28.2154ZM13.2978 28.2154H14.2227L14.2259 28.2138L14.2339 28.2083L14.258 28.19L14.3528 28.1224C14.433 28.0636 14.5502 27.9778 14.698 27.8649C14.9934 27.6408 15.4125 27.311 15.9127 26.8874C17.2256 25.7764 18.4534 24.5704 19.5857 23.2792C22.2414 20.2385 25 15.8984 25 10.9368C25 7.97235 23.8166 5.12715 21.71 3.02901C20.6687 1.99059 19.4303 1.16627 18.0659 0.603498C16.7016 0.0407296 15.2383 -0.249376 13.7603 -0.250122C12.2823 -0.24948 10.819 0.0405003 9.45467 0.603132C8.09033 1.16576 6.85187 1.98994 5.81054 3.02822C3.70182 5.13115 2.51909 7.97448 2.52051 10.9376C2.52051 15.8984 5.27906 20.2385 7.93485 23.2792C9.06716 24.5704 10.2949 25.7764 11.6078 26.8874C12.1088 27.311 12.5271 27.6408 12.8225 27.8649C12.9674 27.9755 13.1138 28.0841 13.2617 28.1908L13.2874 28.2083L13.2946 28.2138L13.2978 28.2154Z" fill="#4C75BA" fill-opacity="0.2"/>
</g>
<path d="M5.98706 3.20525C7.00504 2.19024 8.21589 1.38441 9.54998 0.834251C10.884 0.284107 12.3149 0.000521868 13.7602 -0.000122041C15.2056 0.000621319 16.6365 0.284329 17.9706 0.834609C19.3047 1.3849 20.5155 2.19088 21.5334 3.20603L21.5336 3.20615C23.5932 5.25751 24.75 8.03902 24.75 10.9368C24.75 15.8078 22.0391 20.0901 19.3977 23.1144C18.2735 24.3963 17.0547 25.5936 15.7512 26.6965L15.7511 26.6966C15.2546 27.1171 14.839 27.4441 14.5469 27.6658L14.5462 27.6663C14.4014 27.7769 14.2864 27.8612 14.2063 27.9198L14.205 27.9207L14.1423 27.9654H13.3767C13.2413 27.8673 13.1071 27.7676 12.9742 27.6662L12.9736 27.6658C12.6816 27.4442 12.2668 27.1172 11.7693 26.6965C10.4659 25.5937 9.24713 24.3964 8.12308 23.1147C5.4816 20.0903 2.77051 15.808 2.77051 10.9376L2.77051 10.9374C2.76912 8.0412 3.92514 5.26152 5.98706 3.20525ZM5.98706 3.20525L5.81054 3.02822L5.98706 3.20525Z" stroke="url(#paint0_linear_83_145)" stroke-width="0.5"/>
<path d="M8.98706 5.20525C10.005 4.19024 11.2159 3.38441 12.55 2.83425C13.884 2.28411 15.3149 2.00052 16.7602 1.99988C18.2056 2.00062 19.6365 2.28433 20.9706 2.83461C22.3047 3.3849 23.5155 4.19088 24.5334 5.20603L24.5336 5.20615C26.5932 7.25751 27.75 10.039 27.75 12.9368C27.75 17.8078 25.0391 22.0901 22.3977 25.1144C21.2735 26.3963 20.0547 27.5936 18.7512 28.6965L18.7511 28.6966C18.2546 29.1171 17.839 29.4441 17.5469 29.6658L17.5462 29.6663C17.4014 29.7769 17.2864 29.8612 17.2063 29.9198L17.205 29.9207L17.1423 29.9654H16.3767C16.2413 29.8673 16.1071 29.7676 15.9742 29.6662L15.9736 29.6658C15.6816 29.4442 15.2668 29.1172 14.7693 28.6965C13.4659 27.5937 12.2471 26.3964 11.1231 25.1147C8.4816 22.0903 5.77051 17.808 5.77051 12.9376L5.77051 12.9374C5.76912 10.0412 6.92514 7.26152 8.98706 5.20525ZM8.98706 5.20525L8.81054 5.02822L8.98706 5.20525Z" stroke="#0876E4" stroke-width="0.5"/>
<path fill-rule="evenodd" clip-rule="evenodd" d="M16.7603 8.90244C15.6763 8.90244 14.6367 9.33305 13.8702 10.0995C13.1037 10.866 12.6731 11.9056 12.6731 12.9896C12.6731 14.0736 13.1037 15.1132 13.8702 15.8797C14.6367 16.6462 15.6763 17.0768 16.7603 17.0768C17.8443 17.0768 18.8839 16.6462 19.6504 15.8797C20.4168 15.1132 20.8475 14.0736 20.8475 12.9896C20.8475 11.9056 20.4168 10.866 19.6504 10.0995C18.8839 9.33305 17.8443 8.90244 16.7603 8.90244Z" fill="#0876E4"/>
</g>
<defs>
<filter id="filter0_i_83_145" x="0.520508" y="-2.25012" width="24.4795" height="30.6103" filterUnits="userSpaceOnUse" color-interpolation-filters="sRGB">
<feFlood flood-opacity="0" result="BackgroundImageFix"/>
<feBlend mode="normal" in="SourceGraphic" in2="BackgroundImageFix" result="shape"/>
<feColorMatrix in="SourceAlpha" type="matrix" values="0 0 0 0 0 0 0 0 0 0 0 0 0 0 0 0 0 0 127 0" result="hardAlpha"/>
<feOffset dx="-2" dy="-2"/>
<feGaussianBlur stdDeviation="3"/>
<feComposite in2="hardAlpha" operator="arithmetic" k2="-1" k3="1"/>
<feColorMatrix type="matrix" values="0 0 0 0 0.983333 0 0 0 0 0.989394 0 0 0 0 1 0 0 0 0.8 0"/>
<feBlend mode="normal" in2="shape" result="effect1_innerShadow_83_145"/>
</filter>
<linearGradient id="paint0_linear_83_145" x1="2.52051" y1="0.0223652" x2="31.1114" y2="20.3065" gradientUnits="userSpaceOnUse">
<stop stop-color="#E9EDF4"/>
<stop offset="1" stop-color="#E8EDF7"/>
</linearGradient>
<clipPath id="clip0_83_145">
<rect width="32" height="32" fill="white" transform="translate(0.833496 6.10352e-05)"/>
</clipPath>
</defs>
</svg>
