<svg width="32" height="32" viewBox="0 0 32 32" fill="none" xmlns="http://www.w3.org/2000/svg">
<mask id="path-1-inside-1_506_19153" fill="white">
<path fill-rule="evenodd" clip-rule="evenodd" d="M3 13.5625C3 19.4125 7.7125 24.125 13.5625 24.125C16.1485 24.125 18.5122 23.2041 20.3448 21.6712L27.6736 29L29 27.6736L21.6712 20.3448C23.2041 18.5122 24.125 16.1485 24.125 13.5625C24.125 7.7125 19.4125 3 13.5625 3C7.7125 3 3 7.7125 3 13.5625Z"/>
</mask>
<g filter="url(#filter0_i_506_19153)">
<path fill-rule="evenodd" clip-rule="evenodd" d="M3 13.5625C3 19.4125 7.7125 24.125 13.5625 24.125C16.1485 24.125 18.5122 23.2041 20.3448 21.6712L27.6736 29L29 27.6736L21.6712 20.3448C23.2041 18.5122 24.125 16.1485 24.125 13.5625C24.125 7.7125 19.4125 3 13.5625 3C7.7125 3 3 7.7125 3 13.5625Z" fill="#4C75BA" fill-opacity="0.2"/>
</g>
<path d="M20.3448 21.6712L20.6984 21.3177L20.3749 20.9942L20.024 21.2877L20.3448 21.6712ZM27.6736 29L27.3201 29.3536L27.6736 29.7071L28.0272 29.3536L27.6736 29ZM29 27.6736L29.3536 28.0272L29.7071 27.6736L29.3536 27.3201L29 27.6736ZM21.6712 20.3448L21.2877 20.024L20.9942 20.3749L21.3177 20.6984L21.6712 20.3448ZM13.5625 23.625C7.98864 23.625 3.5 19.1364 3.5 13.5625H2.5C2.5 19.6886 7.43636 24.625 13.5625 24.625V23.625ZM20.024 21.2877C18.2785 22.7477 16.0276 23.625 13.5625 23.625V24.625C16.2694 24.625 18.7459 23.6605 20.6656 22.0547L20.024 21.2877ZM28.0272 28.6464L20.6984 21.3177L19.9913 22.0248L27.3201 29.3536L28.0272 28.6464ZM28.6464 27.3201L27.3201 28.6464L28.0272 29.3536L29.3536 28.0272L28.6464 27.3201ZM21.3177 20.6984L28.6464 28.0272L29.3536 27.3201L22.0248 19.9913L21.3177 20.6984ZM23.625 13.5625C23.625 16.0276 22.7477 18.2785 21.2877 20.024L22.0547 20.6656C23.6605 18.7459 24.625 16.2694 24.625 13.5625H23.625ZM13.5625 3.5C19.1364 3.5 23.625 7.98864 23.625 13.5625H24.625C24.625 7.43636 19.6886 2.5 13.5625 2.5V3.5ZM3.5 13.5625C3.5 7.98864 7.98864 3.5 13.5625 3.5V2.5C7.43636 2.5 2.5 7.43636 2.5 13.5625H3.5Z" fill="url(#paint0_linear_506_19153)" mask="url(#path-1-inside-1_506_19153)"/>
<mask id="path-3-inside-2_506_19153" fill="white">
<path d="M14.5625 21.125C8.7125 21.125 4 16.4125 4 10.5625C4 4.7125 8.7125 0 14.5625 0C20.4125 0 25.125 4.7125 25.125 10.5625C25.125 16.4125 20.4125 21.125 14.5625 21.125Z"/>
</mask>
<path d="M14.5625 20.625C8.98864 20.625 4.5 16.1364 4.5 10.5625H3.5C3.5 16.6886 8.43636 21.625 14.5625 21.625V20.625ZM4.5 10.5625C4.5 4.98864 8.98864 0.5 14.5625 0.5V-0.5C8.43636 -0.5 3.5 4.43636 3.5 10.5625H4.5ZM14.5625 0.5C20.1364 0.5 24.625 4.98864 24.625 10.5625H25.625C25.625 4.43636 20.6886 -0.5 14.5625 -0.5V0.5ZM24.625 10.5625C24.625 16.1364 20.1364 20.625 14.5625 20.625V21.625C20.6886 21.625 25.625 16.6886 25.625 10.5625H24.625Z" fill="#0876E4" mask="url(#path-3-inside-2_506_19153)"/>
<path d="M22.3716 17.1475L29.9997 24.7756L28.7754 26L21.125 18.3496L22.3716 17.1475Z" fill="#0876E4"/>
<defs>
<filter id="filter0_i_506_19153" x="1" y="1" width="28" height="28" filterUnits="userSpaceOnUse" color-interpolation-filters="sRGB">
<feFlood flood-opacity="0" result="BackgroundImageFix"/>
<feBlend mode="normal" in="SourceGraphic" in2="BackgroundImageFix" result="shape"/>
<feColorMatrix in="SourceAlpha" type="matrix" values="0 0 0 0 0 0 0 0 0 0 0 0 0 0 0 0 0 0 127 0" result="hardAlpha"/>
<feOffset dx="-2" dy="-2"/>
<feGaussianBlur stdDeviation="3"/>
<feComposite in2="hardAlpha" operator="arithmetic" k2="-1" k3="1"/>
<feColorMatrix type="matrix" values="0 0 0 0 0.983333 0 0 0 0 0.989394 0 0 0 0 1 0 0 0 0.8 0"/>
<feBlend mode="normal" in2="shape" result="effect1_innerShadow_506_19153"/>
</filter>
<linearGradient id="paint0_linear_506_19153" x1="3" y1="3.24763" x2="30.3853" y2="27.9752" gradientUnits="userSpaceOnUse">
<stop stop-color="#E9EDF4"/>
<stop offset="1" stop-color="#E8EDF7"/>
</linearGradient>
</defs>
</svg>
