<svg width="33" height="32" viewBox="0 0 33 32" fill="none" xmlns="http://www.w3.org/2000/svg">
<g clip-path="url(#clip0_83_137)">
<g filter="url(#filter0_i_83_137)">
<path d="M27.4999 24.5601V28.5601C27.5014 28.9314 27.4254 29.299 27.2766 29.6392C27.1278 29.9794 26.9096 30.2848 26.636 30.5359C26.3624 30.7869 26.0393 30.978 25.6876 31.097C25.3358 31.216 24.9631 31.2602 24.5932 31.2267C20.4904 30.7809 16.5492 29.3789 13.0866 27.1334C9.86501 25.0863 7.13369 22.355 5.08658 19.1334C2.83321 15.655 1.4309 11.6947 0.993244 7.57339C0.959925 7.20468 1.00374 6.83307 1.12191 6.48222C1.24008 6.13138 1.43001 5.80898 1.6796 5.53555C1.92919 5.26213 2.23298 5.04367 2.57163 4.89409C2.91028 4.7445 3.27636 4.66707 3.64658 4.66672H7.64658C8.29365 4.66036 8.92097 4.8895 9.41159 5.31143C9.90222 5.73337 10.2227 6.31932 10.3132 6.96006C10.4821 8.24015 10.7952 9.49703 11.2466 10.7067C11.426 11.184 11.4648 11.7026 11.3585 12.2012C11.2521 12.6999 11.0051 13.1575 10.6466 13.5201L8.95324 15.2134C10.8513 18.5515 13.6152 21.3153 16.9532 23.2134L18.6466 21.5201C19.0091 21.1616 19.4668 20.9145 19.9654 20.8082C20.464 20.7018 20.9827 20.7407 21.4599 20.9201C22.6696 21.3715 23.9265 21.6846 25.2066 21.8534C25.8543 21.9448 26.4458 22.271 26.8686 22.7701C27.2915 23.2691 27.5161 23.9062 27.4999 24.5601Z" fill="#4C75BA" fill-opacity="0.2"/>
</g>
<path d="M27.4999 24.5601V28.5601C27.5014 28.9314 27.4254 29.299 27.2766 29.6392C27.1278 29.9794 26.9096 30.2848 26.636 30.5359C26.3624 30.7869 26.0393 30.978 25.6876 31.097C25.3358 31.216 24.9631 31.2602 24.5932 31.2267C20.4904 30.7809 16.5492 29.3789 13.0866 27.1334C9.86501 25.0863 7.13369 22.355 5.08658 19.1334C2.83321 15.655 1.4309 11.6947 0.993244 7.57339C0.959925 7.20468 1.00374 6.83307 1.12191 6.48222C1.24008 6.13138 1.43001 5.80898 1.6796 5.53555C1.92919 5.26213 2.23298 5.04367 2.57163 4.89409C2.91028 4.7445 3.27636 4.66707 3.64658 4.66672H7.64658C8.29365 4.66036 8.92097 4.8895 9.41159 5.31143C9.90222 5.73337 10.2227 6.31932 10.3132 6.96006C10.4821 8.24015 10.7952 9.49703 11.2466 10.7067C11.426 11.184 11.4648 11.7026 11.3585 12.2012C11.2521 12.6999 11.0051 13.1575 10.6466 13.5201L8.95324 15.2134C10.8513 18.5515 13.6152 21.3153 16.9532 23.2134L18.6466 21.5201C19.0091 21.1616 19.4668 20.9145 19.9654 20.8082C20.464 20.7018 20.9827 20.7407 21.4599 20.9201C22.6696 21.3715 23.9265 21.6846 25.2066 21.8534C25.8543 21.9448 26.4458 22.271 26.8686 22.7701C27.2915 23.2691 27.5161 23.9062 27.4999 24.5601Z" stroke="url(#paint0_linear_83_137)" stroke-width="0.5" stroke-linecap="round" stroke-linejoin="round"/>
<path d="M29.4999 22.5601V26.5601C29.5014 26.9314 29.4254 27.299 29.2766 27.6392C29.1278 27.9794 28.9096 28.2848 28.636 28.5359C28.3624 28.7869 28.0393 28.978 27.6876 29.097C27.3358 29.216 26.9631 29.2602 26.5932 29.2267C22.4904 28.7809 18.5492 27.3789 15.0866 25.1334C11.865 23.0863 9.13369 20.355 7.08658 17.1334C4.83321 13.655 3.4309 9.69472 2.99324 5.57339C2.95992 5.20468 3.00374 4.83307 3.12191 4.48222C3.24008 4.13138 3.43001 3.80898 3.6796 3.53555C3.92919 3.26213 4.23298 3.04367 4.57163 2.89409C4.91028 2.7445 5.27636 2.66707 5.64658 2.66672H9.64658C10.2937 2.66036 10.921 2.8895 11.4116 3.31143C11.9022 3.73337 12.2227 4.31932 12.3132 4.96006C12.4821 6.24015 12.7952 7.49703 13.2466 8.70673C13.426 9.18396 13.4648 9.70261 13.3585 10.2012C13.2521 10.6999 13.0051 11.1575 12.6466 11.5201L10.9532 13.2134C12.8513 16.5515 15.6152 19.3153 18.9532 21.2134L20.6466 19.5201C21.0091 19.1616 21.4668 18.9145 21.9654 18.8082C22.464 18.7018 22.9827 18.7407 23.4599 18.9201C24.6696 19.3715 25.9265 19.6846 27.2066 19.8534C27.8543 19.9448 28.4458 20.271 28.8686 20.7701C29.2915 21.2691 29.5161 21.9062 29.4999 22.5601Z" stroke="#0876E4" stroke-width="0.5" stroke-linecap="round" stroke-linejoin="round"/>
<path d="M18.9 2.66672C21.6177 2.95308 24.1563 4.15845 26.0958 6.08349C28.0354 8.00853 29.2599 10.5379 29.5667 13.2534M18.9 8.00005C20.2114 8.25863 21.4147 8.90542 22.3539 9.85646C23.293 10.8075 23.9246 12.0189 24.1667 13.3334" stroke="#0876E4" stroke-linecap="round" stroke-linejoin="round"/>
</g>
<defs>
<filter id="filter0_i_83_137" x="-1.26758" y="2.4166" width="29.0183" height="29.071" filterUnits="userSpaceOnUse" color-interpolation-filters="sRGB">
<feFlood flood-opacity="0" result="BackgroundImageFix"/>
<feBlend mode="normal" in="SourceGraphic" in2="BackgroundImageFix" result="shape"/>
<feColorMatrix in="SourceAlpha" type="matrix" values="0 0 0 0 0 0 0 0 0 0 0 0 0 0 0 0 0 0 127 0" result="hardAlpha"/>
<feOffset dx="-2" dy="-2"/>
<feGaussianBlur stdDeviation="3"/>
<feComposite in2="hardAlpha" operator="arithmetic" k2="-1" k3="1"/>
<feColorMatrix type="matrix" values="0 0 0 0 0.983333 0 0 0 0 0.989394 0 0 0 0 1 0 0 0 0.8 0"/>
<feBlend mode="normal" in2="shape" result="effect1_innerShadow_83_137"/>
</filter>
<linearGradient id="paint0_linear_83_137" x1="0.982422" y1="4.91966" x2="28.9634" y2="30.135" gradientUnits="userSpaceOnUse">
<stop stop-color="#E9EDF4"/>
<stop offset="1" stop-color="#E8EDF7"/>
</linearGradient>
<clipPath id="clip0_83_137">
<rect width="32" height="32" fill="white" transform="translate(0.166626 6.10352e-05)"/>
</clipPath>
</defs>
</svg>
