<svg width="33" height="32" viewBox="0 0 33 32" fill="none" xmlns="http://www.w3.org/2000/svg">
<g clip-path="url(#clip0_449_6499)">
<g filter="url(#filter0_i_449_6499)">
<path d="M1.08301 22.3334C1.08301 18.6515 4.06778 15.6667 7.74968 15.6667H9.08301C12.7649 15.6667 15.7497 18.6515 15.7497 22.3334V28.3334C15.7497 29.0697 15.1527 29.6667 14.4163 29.6667H2.41634C1.67996 29.6667 1.08301 29.0697 1.08301 28.3334V22.3334Z" fill="#4C75BA" fill-opacity="0.2" stroke="url(#paint0_linear_449_6499)" stroke-width="0.5"/>
<path d="M15.75 22.3334C15.75 18.6515 18.7348 15.6667 22.4167 15.6667H23.75C27.4319 15.6667 30.4167 18.6515 30.4167 22.3334V28.3334C30.4167 29.0697 29.8197 29.6667 29.0833 29.6667H17.0833C16.347 29.6667 15.75 29.0697 15.75 28.3334V22.3334Z" fill="#4C75BA" fill-opacity="0.2" stroke="url(#paint1_linear_449_6499)" stroke-width="0.5"/>
<path d="M3.08301 10.3334C3.08301 13.2789 5.47082 15.6667 8.41634 15.6667C11.3619 15.6667 13.7497 13.2789 13.7497 10.3334V9.00004C13.7497 6.82232 12.4445 4.94946 10.5737 4.12103" stroke="url(#paint2_linear_449_6499)" stroke-width="0.5"/>
<path d="M11.7497 4.79698V3.66665C11.7497 1.8257 10.2573 0.333313 8.41634 0.333313C6.57539 0.333313 5.08301 1.8257 5.08301 3.66665V4.12742" stroke="url(#paint3_linear_449_6499)" stroke-width="0.5"/>
<path fill-rule="evenodd" clip-rule="evenodd" d="M10.5833 3.12672V3.75002C10.5833 7.4319 7.59854 10.4167 3.91666 10.4167C3.34116 10.4167 2.7827 10.3437 2.25 10.2066V9.58332C2.25 5.90144 5.23475 2.91669 8.91663 2.91669C9.49213 2.91669 10.0506 2.98961 10.5833 3.12672Z" fill="#4C75BA" fill-opacity="0.2"/>
<path d="M10.5833 3.12672H10.8333V2.93291L10.6456 2.88461L10.5833 3.12672ZM2.25 10.2066H2V10.4004L2.18769 10.4487L2.25 10.2066ZM10.3333 3.12672V3.75002H10.8333V3.12672H10.3333ZM10.3333 3.75002C10.3333 7.29383 7.46047 10.1667 3.91666 10.1667V10.6667C7.73661 10.6667 10.8333 7.56997 10.8333 3.75002H10.3333ZM3.91666 10.1667C3.36236 10.1667 2.82483 10.0964 2.31231 9.96451L2.18769 10.4487C2.74057 10.591 3.31997 10.6667 3.91666 10.6667V10.1667ZM2.5 10.2066V9.58332H2V10.2066H2.5ZM2.5 9.58332C2.5 6.03951 5.37283 3.16669 8.91663 3.16669V2.66669C5.09668 2.66669 2 5.76337 2 9.58332H2.5ZM8.91663 3.16669C9.47093 3.16669 10.0085 3.23691 10.521 3.36882L10.6456 2.88461C10.0927 2.7423 9.51333 2.66669 8.91663 2.66669V3.16669Z" fill="url(#paint4_linear_449_6499)"/>
<path d="M29.0827 9V10.3333C29.0827 13.2789 26.6949 15.6667 23.7493 15.6667C20.8038 15.6667 18.416 13.2789 18.416 10.3333V9.36841" stroke="url(#paint5_linear_449_6499)" stroke-width="0.5"/>
<path fill-rule="evenodd" clip-rule="evenodd" d="M20.7682 9.83334C22.7724 9.83334 24.5499 8.86265 25.6562 7.36575C26.7492 8.42331 28.2383 9.07408 29.8793 9.07408C29.8793 9.07408 29.8794 9.07408 29.8794 9.07408C29.8794 5.71946 27.1599 3 23.8053 3C20.4684 3 17.76 5.69077 17.7314 9.0209C18.6248 9.53761 19.662 9.83334 20.7682 9.83334Z" fill="#4C75BA" fill-opacity="0.2"/>
<path d="M25.6562 7.36575L25.83 7.18608L25.6248 6.98756L25.4551 7.21717L25.6562 7.36575ZM29.8794 9.07408V9.32408H30.1294V9.07408H29.8794ZM17.7314 9.0209L17.4815 9.01876L17.4802 9.16439L17.6063 9.23731L17.7314 9.0209ZM25.4551 7.21717C24.394 8.65303 22.6897 9.58334 20.7682 9.58334V10.0833C22.8551 10.0833 24.7058 9.07227 25.8572 7.51434L25.4551 7.21717ZM29.8793 8.82408C28.3057 8.82408 26.8783 8.20034 25.83 7.18608L25.4824 7.54542C26.6201 8.64627 28.1708 9.32408 29.8793 9.32408V8.82408ZM29.8794 8.82408C29.8872 8.82408 29.8935 8.82446 29.8973 8.82473C29.9008 8.82498 29.9038 8.82528 29.9033 8.82523H29.9033C29.9033 8.82523 29.9033 8.82523 29.9033 8.82523C29.9033 8.82523 29.9033 8.82523 29.9032 8.82523C29.9032 8.82522 29.9032 8.82522 29.9032 8.82522C29.9031 8.82521 29.903 8.8252 29.9029 8.82519C29.9027 8.82517 29.9023 8.82513 29.9018 8.82509C29.9008 8.825 29.8993 8.82487 29.8973 8.82473C29.8935 8.82445 29.8872 8.82408 29.8793 8.82408V9.32408C29.8715 9.32408 29.8651 9.32371 29.8613 9.32343C29.8579 9.32318 29.8549 9.32288 29.8554 9.32293H29.8554C29.8554 9.32293 29.8554 9.32293 29.8554 9.32293C29.8554 9.32293 29.8554 9.32293 29.8554 9.32294C29.8555 9.32294 29.8555 9.32294 29.8555 9.32294C29.8556 9.32295 29.8557 9.32296 29.8558 9.32297C29.856 9.32299 29.8564 9.32303 29.8569 9.32307C29.8579 9.32316 29.8594 9.32329 29.8614 9.32343C29.8652 9.32371 29.8715 9.32408 29.8794 9.32408V8.82408ZM23.8053 3.25C27.0219 3.25 29.6294 5.85753 29.6294 9.07408H30.1294C30.1294 5.58139 27.298 2.75 23.8053 2.75V3.25ZM17.9814 9.02305C18.0088 5.83002 20.6058 3.25 23.8053 3.25V2.75C20.3311 2.75 17.5112 5.55151 17.4815 9.01876L17.9814 9.02305ZM20.7682 9.58334C19.7071 9.58334 18.7129 9.29979 17.8566 8.80449L17.6063 9.23731C18.5367 9.77544 19.6168 10.0833 20.7682 10.0833V9.58334Z" fill="url(#paint6_linear_449_6499)"/>
</g>
<path d="M3.08301 24.3334C3.08301 20.6515 6.06778 17.6667 9.74968 17.6667H11.083C14.7649 17.6667 17.7497 20.6515 17.7497 24.3334V30.3334C17.7497 31.0697 17.1527 31.6667 16.4163 31.6667H4.41634C3.67996 31.6667 3.08301 31.0697 3.08301 30.3334V24.3334Z" stroke="#0876E4" stroke-width="0.5"/>
<path d="M17.75 24.3334C17.75 20.6515 20.7348 17.6667 24.4167 17.6667H25.75C29.4319 17.6667 32.4167 20.6515 32.4167 24.3334V30.3334C32.4167 31.0697 31.8197 31.6667 31.0833 31.6667H19.0833C18.347 31.6667 17.75 31.0697 17.75 30.3334V24.3334Z" stroke="#0876E4" stroke-width="0.5"/>
<path d="M13.75 28.3334C13.75 25.756 15.8393 23.6667 18.4167 23.6667C20.994 23.6667 23.0833 25.756 23.0833 28.3334V30.3334C23.0833 31.0697 22.4864 31.6667 21.75 31.6667H15.0833C14.347 31.6667 13.75 31.0697 13.75 30.3334V28.3334Z" fill="#0876E4" stroke="#0876E4" stroke-width="0.5"/>
<path d="M15.083 19.6666C15.083 17.8257 16.5754 16.3333 18.4163 16.3333C20.2573 16.3333 21.7497 17.8257 21.7497 19.6666V20.3333C21.7497 22.1743 20.2573 23.6666 18.4163 23.6666C16.5754 23.6666 15.083 22.1743 15.083 20.3333V19.6666Z" fill="#0876E4" stroke="#0876E4" stroke-width="0.5"/>
<path d="M5.08301 12.3334C5.08301 15.2789 7.47082 17.6667 10.4163 17.6667C13.3619 17.6667 15.7497 15.2789 15.7497 12.3334V11C15.7497 8.82232 14.4445 6.94946 12.5737 6.12103" stroke="#0876E4" stroke-width="0.5"/>
<path d="M13.7497 6.79698V5.66665C13.7497 3.8257 12.2573 2.33331 10.4163 2.33331C8.57539 2.33331 7.08301 3.8257 7.08301 5.66665V6.12742" stroke="#0876E4" stroke-width="0.5"/>
<path d="M12.5833 5.12672H12.8333V4.93291L12.6456 4.88461L12.5833 5.12672ZM4.25 12.2066H4V12.4004L4.18769 12.4487L4.25 12.2066ZM12.3333 5.12672V5.75002H12.8333V5.12672H12.3333ZM12.3333 5.75002C12.3333 9.29383 9.46047 12.1667 5.91666 12.1667V12.6667C9.73661 12.6667 12.8333 9.56997 12.8333 5.75002H12.3333ZM5.91666 12.1667C5.36236 12.1667 4.82483 12.0964 4.31231 11.9645L4.18769 12.4487C4.74057 12.591 5.31997 12.6667 5.91666 12.6667V12.1667ZM4.5 12.2066V11.5833H4V12.2066H4.5ZM4.5 11.5833C4.5 8.03951 7.37283 5.16669 10.9166 5.16669V4.66669C7.09668 4.66669 4 7.76337 4 11.5833H4.5ZM10.9166 5.16669C11.4709 5.16669 12.0085 5.23691 12.521 5.36882L12.6456 4.88461C12.0927 4.7423 11.5133 4.66669 10.9166 4.66669V5.16669Z" fill="#0876E4"/>
<path d="M31.0837 11V12.3333C31.0837 15.2789 28.6958 17.6667 25.7503 17.6667C22.8048 17.6667 20.417 15.2789 20.417 12.3333V11.3684" stroke="#0876E4" stroke-width="0.5"/>
<path d="M27.6562 9.36575L27.83 9.18608L27.6248 8.98756L27.4551 9.21717L27.6562 9.36575ZM31.8794 11.0741V11.3241H32.1294V11.0741H31.8794ZM19.7314 11.0209L19.4815 11.0188L19.4802 11.1644L19.6063 11.2373L19.7314 11.0209ZM27.4551 9.21717C26.394 10.653 24.6897 11.5833 22.7682 11.5833V12.0833C24.8551 12.0833 26.7058 11.0723 27.8572 9.51434L27.4551 9.21717ZM31.8793 10.8241C30.3057 10.8241 28.8783 10.2003 27.83 9.18608L27.4824 9.54542C28.6201 10.6463 30.1708 11.3241 31.8793 11.3241V10.8241ZM31.8794 10.8241C31.8872 10.8241 31.8935 10.8245 31.8973 10.8247C31.9008 10.825 31.9038 10.8253 31.9033 10.8252H31.9033C31.9033 10.8252 31.9033 10.8252 31.9033 10.8252C31.9033 10.8252 31.9033 10.8252 31.9032 10.8252C31.9032 10.8252 31.9032 10.8252 31.9032 10.8252C31.9031 10.8252 31.903 10.8252 31.9029 10.8252C31.9027 10.8252 31.9023 10.8251 31.9018 10.8251C31.9008 10.825 31.8993 10.8249 31.8973 10.8247C31.8935 10.8245 31.8872 10.8241 31.8793 10.8241V11.3241C31.8715 11.3241 31.8651 11.3237 31.8613 11.3234C31.8579 11.3232 31.8549 11.3229 31.8554 11.3229H31.8554C31.8554 11.3229 31.8554 11.3229 31.8554 11.3229C31.8554 11.3229 31.8554 11.3229 31.8554 11.3229C31.8555 11.3229 31.8555 11.3229 31.8555 11.3229C31.8556 11.3229 31.8557 11.323 31.8558 11.323C31.856 11.323 31.8564 11.323 31.8569 11.3231C31.8579 11.3232 31.8594 11.3233 31.8614 11.3234C31.8652 11.3237 31.8715 11.3241 31.8794 11.3241V10.8241ZM25.8053 5.25C29.0219 5.25 31.6294 7.85753 31.6294 11.0741H32.1294C32.1294 7.58139 29.298 4.75 25.8053 4.75V5.25ZM19.9814 11.023C20.0088 7.83002 22.6058 5.25 25.8053 5.25V4.75C22.3311 4.75 19.5112 7.55151 19.4815 11.0188L19.9814 11.023ZM22.7682 11.5833C21.7071 11.5833 20.7129 11.2998 19.8566 10.8045L19.6063 11.2373C20.5367 11.7754 21.6168 12.0833 22.7682 12.0833V11.5833Z" fill="#0876E4"/>
</g>
<defs>
<filter id="filter0_i_449_6499" x="-1.16699" y="-1.91669" width="31.834" height="31.8334" filterUnits="userSpaceOnUse" color-interpolation-filters="sRGB">
<feFlood flood-opacity="0" result="BackgroundImageFix"/>
<feBlend mode="normal" in="SourceGraphic" in2="BackgroundImageFix" result="shape"/>
<feColorMatrix in="SourceAlpha" type="matrix" values="0 0 0 0 0 0 0 0 0 0 0 0 0 0 0 0 0 0 127 0" result="hardAlpha"/>
<feOffset dx="-2" dy="-2"/>
<feGaussianBlur stdDeviation="3"/>
<feComposite in2="hardAlpha" operator="arithmetic" k2="-1" k3="1"/>
<feColorMatrix type="matrix" values="0 0 0 0 0.983333 0 0 0 0 0.989394 0 0 0 0 1 0 0 0 0.8 0"/>
<feBlend mode="normal" in2="shape" result="effect1_innerShadow_449_6499"/>
</filter>
<linearGradient id="paint0_linear_449_6499" x1="1.08301" y1="15.8" x2="15.883" y2="29.8" gradientUnits="userSpaceOnUse">
<stop stop-color="#E9EDF4"/>
<stop offset="1" stop-color="#E8EDF7"/>
</linearGradient>
<linearGradient id="paint1_linear_449_6499" x1="15.75" y1="15.8" x2="30.55" y2="29.8" gradientUnits="userSpaceOnUse">
<stop stop-color="#E9EDF4"/>
<stop offset="1" stop-color="#E8EDF7"/>
</linearGradient>
<linearGradient id="paint2_linear_449_6499" x1="3.08301" y1="4.23099" x2="15.1091" y2="14.2633" gradientUnits="userSpaceOnUse">
<stop stop-color="#E9EDF4"/>
<stop offset="1" stop-color="#E8EDF7"/>
</linearGradient>
<linearGradient id="paint3_linear_449_6499" x1="5.08301" y1="0.375825" x2="9.60528" y2="6.47453" gradientUnits="userSpaceOnUse">
<stop stop-color="#E9EDF4"/>
<stop offset="1" stop-color="#E8EDF7"/>
</linearGradient>
<linearGradient id="paint4_linear_449_6499" x1="2.25" y1="2.98812" x2="10.1907" y2="10.9549" gradientUnits="userSpaceOnUse">
<stop stop-color="#E9EDF4"/>
<stop offset="1" stop-color="#E8EDF7"/>
</linearGradient>
<linearGradient id="paint5_linear_449_6499" x1="18.416" y1="9.06349" x2="25.0223" y2="18.6078" gradientUnits="userSpaceOnUse">
<stop stop-color="#E9EDF4"/>
<stop offset="1" stop-color="#E8EDF7"/>
</linearGradient>
<linearGradient id="paint6_linear_449_6499" x1="17.7314" y1="3.06508" x2="24.2255" y2="13.4894" gradientUnits="userSpaceOnUse">
<stop stop-color="#E9EDF4"/>
<stop offset="1" stop-color="#E8EDF7"/>
</linearGradient>
<clipPath id="clip0_449_6499">
<rect width="32" height="32" fill="white" transform="translate(0.75)"/>
</clipPath>
</defs>
</svg>
