<svg width="65" height="64" viewBox="0 0 65 64" fill="none" xmlns="http://www.w3.org/2000/svg">
<g filter="url(#filter0_i_2535_3828)">
<path d="M39.5789 28.1249C37.5324 29.4923 35.1264 30.2221 32.6651 30.2221C29.3647 30.2221 26.1994 28.911 23.8656 26.5773C21.5318 24.2435 20.2207 21.0782 20.2207 17.7777C20.2207 15.3164 20.9506 12.9104 22.318 10.8639C23.6854 8.81746 25.6289 7.22243 27.9029 6.28053C30.1768 5.33864 32.679 5.0922 35.0929 5.57237C37.5069 6.05255 39.7243 7.23776 41.4647 8.97815C43.2051 10.7185 44.3903 12.9359 44.8705 15.3499C45.3506 17.7639 45.1042 20.2661 44.1623 22.54C43.2204 24.8139 41.6254 26.7575 39.5789 28.1249Z" fill="#4C75BA" fill-opacity="0.2"/>
</g>
<path d="M39.3011 27.7091C37.3369 29.0216 35.0275 29.7221 32.6651 29.7221C29.4973 29.7221 26.4592 28.4637 24.2192 26.2237C21.9791 23.9837 20.7207 20.9456 20.7207 17.7777C20.7207 15.4153 21.4212 13.106 22.7337 11.1417C24.0462 9.17747 25.9116 7.64652 28.0942 6.74247C30.2768 5.83843 32.6784 5.60189 34.9954 6.06277C37.3124 6.52365 39.4407 7.66124 41.1111 9.3317C42.7816 11.0022 43.9192 13.1305 44.3801 15.4475C44.841 17.7645 44.6044 20.1661 43.7004 22.3486C42.7963 24.5312 41.2654 26.3967 39.3011 27.7091Z" stroke="url(#paint0_linear_2535_3828)"/>
<g filter="url(#filter1_i_2535_3828)">
<path d="M54.8366 43.3244C51.9856 40.3111 48.55 37.9109 44.7398 36.2706C40.9296 34.6302 36.8249 33.7842 32.6766 33.7842C28.5284 33.7842 24.4236 34.6302 20.6135 36.2706C16.8033 37.9109 13.3677 40.3111 10.5166 43.3244C9.89853 43.9846 9.55524 44.8556 9.55664 45.76V55.1111C9.55664 56.0541 9.93125 56.9585 10.598 57.6252C11.2648 58.292 12.1692 58.6666 13.1122 58.6666H52.2233C53.1663 58.6666 54.0707 58.292 54.7375 57.6252C55.4043 56.9585 55.7789 56.0541 55.7789 55.1111V45.76C55.7851 44.858 55.4483 43.9874 54.8366 43.3244Z" fill="#4C75BA" fill-opacity="0.2"/>
</g>
<path d="M10.0566 45.76L10.0566 45.7592C10.0554 44.9824 10.3502 44.2343 10.8808 43.667C13.6849 40.7036 17.0639 38.3431 20.8112 36.7298C24.5589 35.1163 28.5963 34.2842 32.6766 34.2842C36.7569 34.2842 40.7944 35.1163 44.5421 36.7298C48.2889 38.3429 51.6674 40.7029 54.4713 43.6658C54.9956 44.2352 55.2842 44.9824 55.2789 45.7565V45.76V55.1111C55.2789 55.9215 54.9569 56.6987 54.3839 57.2717C53.8109 57.8447 53.0337 58.1666 52.2233 58.1666H13.1122C12.3018 58.1666 11.5246 57.8447 10.9516 57.2717C10.3786 56.6987 10.0566 55.9215 10.0566 55.1111L10.0566 45.76Z" stroke="url(#paint1_linear_2535_3828)"/>
<path d="M35.5789 24.1249C33.5324 25.4923 31.1264 26.2221 28.6651 26.2221C25.3647 26.2221 22.1994 24.911 19.8656 22.5773C17.5318 20.2435 16.2207 17.0782 16.2207 13.7777C16.2207 11.3164 16.9506 8.91042 18.318 6.86394C19.6854 4.81746 21.6289 3.22243 23.9029 2.28053C26.1768 1.33864 28.679 1.0922 31.0929 1.57237C33.5069 2.05255 35.7243 3.23776 37.4647 4.97815C39.2051 6.71854 40.3903 8.93593 40.8705 11.3499C41.3506 13.7639 41.1042 16.2661 40.1623 18.54C39.2204 20.8139 37.6254 22.7575 35.5789 24.1249Z" fill="#0876E4"/>
<path d="M6.05665 41.76L6.05664 41.7592C6.05544 40.9824 6.35015 40.2343 6.88082 39.667C9.68491 36.7036 13.0639 34.3431 16.8112 32.7298C20.5589 31.1163 24.5963 30.2842 28.6766 30.2842C32.7569 30.2842 36.7944 31.1163 40.5421 32.7298C44.2889 34.3429 47.6674 36.7029 50.4713 39.6658C50.9956 40.2352 51.2842 40.9824 51.2789 41.7565V41.76V51.1111C51.2789 51.9215 50.9569 52.6987 50.3839 53.2717C49.8109 53.8447 49.0337 54.1666 48.2233 54.1666H9.1122C8.30182 54.1666 7.52462 53.8447 6.9516 53.2717C6.37857 52.6987 6.05664 51.9215 6.05664 51.1111L6.05665 41.76Z" stroke="#0876E4"/>
<defs>
<filter id="filter0_i_2535_3828" x="16.2207" y="1.33325" width="28.8887" height="28.8889" filterUnits="userSpaceOnUse" color-interpolation-filters="sRGB">
<feFlood flood-opacity="0" result="BackgroundImageFix"/>
<feBlend mode="normal" in="SourceGraphic" in2="BackgroundImageFix" result="shape"/>
<feColorMatrix in="SourceAlpha" type="matrix" values="0 0 0 0 0 0 0 0 0 0 0 0 0 0 0 0 0 0 127 0" result="hardAlpha"/>
<feOffset dx="-4" dy="-4"/>
<feGaussianBlur stdDeviation="6"/>
<feComposite in2="hardAlpha" operator="arithmetic" k2="-1" k3="1"/>
<feColorMatrix type="matrix" values="0 0 0 0 0.983333 0 0 0 0 0.989394 0 0 0 0 1 0 0 0 0.8 0"/>
<feBlend mode="normal" in2="shape" result="effect1_innerShadow_2535_3828"/>
</filter>
<filter id="filter1_i_2535_3828" x="5.55664" y="29.7842" width="50.2227" height="28.8824" filterUnits="userSpaceOnUse" color-interpolation-filters="sRGB">
<feFlood flood-opacity="0" result="BackgroundImageFix"/>
<feBlend mode="normal" in="SourceGraphic" in2="BackgroundImageFix" result="shape"/>
<feColorMatrix in="SourceAlpha" type="matrix" values="0 0 0 0 0 0 0 0 0 0 0 0 0 0 0 0 0 0 127 0" result="hardAlpha"/>
<feOffset dx="-4" dy="-4"/>
<feGaussianBlur stdDeviation="6"/>
<feComposite in2="hardAlpha" operator="arithmetic" k2="-1" k3="1"/>
<feColorMatrix type="matrix" values="0 0 0 0 0.983333 0 0 0 0 0.989394 0 0 0 0 1 0 0 0 0.8 0"/>
<feBlend mode="normal" in2="shape" result="effect1_innerShadow_2535_3828"/>
</filter>
<linearGradient id="paint0_linear_2535_3828" x1="20.2207" y1="5.5703" x2="46.4357" y2="29.2411" gradientUnits="userSpaceOnUse">
<stop stop-color="#E9EDF4"/>
<stop offset="1" stop-color="#E8EDF7"/>
</linearGradient>
<linearGradient id="paint1_linear_2535_3828" x1="9.55664" y1="34.0212" x2="32.7321" y2="72.8943" gradientUnits="userSpaceOnUse">
<stop stop-color="#E9EDF4"/>
<stop offset="1" stop-color="#E8EDF7"/>
</linearGradient>
</defs>
</svg>
