<svg width="33" height="32" viewBox="0 0 33 32" fill="none" xmlns="http://www.w3.org/2000/svg">
<g clip-path="url(#clip0_83_173)">
<g filter="url(#filter0_i_83_173)">
<path d="M25.4108 17.0771C25.4579 16.7333 25.4815 16.3781 25.4815 16C25.4815 15.6333 25.4579 15.2667 25.399 14.9229L27.7903 13.1125C28.0024 12.9521 28.0613 12.6427 27.9317 12.4135L25.67 8.60937C25.5286 8.35729 25.2341 8.27708 24.9749 8.35729L22.1596 9.45729C21.5706 9.02187 20.9462 8.65521 20.2512 8.38021L19.8272 5.46979C19.78 5.19479 19.5444 5 19.2617 5H14.7383C14.4556 5 14.2317 5.19479 14.1846 5.46979L13.7605 8.38021C13.0655 8.65521 12.4294 9.03333 11.8522 9.45729L9.03684 8.35729C8.77768 8.26562 8.48319 8.35729 8.34183 8.60937L6.09188 12.4135C5.95053 12.6542 5.99764 12.9521 6.23324 13.1125L8.62454 14.9229C8.56565 15.2667 8.51853 15.6448 8.51853 16C8.51853 16.3552 8.54209 16.7333 8.60099 17.0771L6.20968 18.8875C5.99764 19.0479 5.93875 19.3573 6.06832 19.5865L8.33005 23.3906C8.47141 23.6427 8.7659 23.7229 9.02506 23.6427L11.8404 22.5427C12.4294 22.9781 13.0538 23.3448 13.7488 23.6198L14.1728 26.5302C14.2317 26.8052 14.4556 27 14.7383 27H19.2617C19.5444 27 19.78 26.8052 19.8154 26.5302L20.2395 23.6198C20.9345 23.3448 21.5706 22.9781 22.1478 22.5427L24.9632 23.6427C25.2223 23.7344 25.5168 23.6427 25.6582 23.3906L27.9199 19.5865C28.0613 19.3344 28.0024 19.0479 27.7785 18.8875L25.4108 17.0771Z" fill="#4C75BA" fill-opacity="0.2"/>
</g>
<path d="M25.4108 17.0771C25.4579 16.7333 25.4815 16.3781 25.4815 16C25.4815 15.6333 25.4579 15.2667 25.399 14.9229L27.7903 13.1125C28.0024 12.9521 28.0613 12.6427 27.9317 12.4135L25.67 8.60937C25.5286 8.35729 25.2341 8.27708 24.9749 8.35729L22.1596 9.45729C21.5706 9.02187 20.9462 8.65521 20.2512 8.38021L19.8272 5.46979C19.78 5.19479 19.5444 5 19.2617 5H14.7383C14.4556 5 14.2317 5.19479 14.1846 5.46979L13.7605 8.38021C13.0655 8.65521 12.4294 9.03333 11.8522 9.45729L9.03684 8.35729C8.77768 8.26562 8.48319 8.35729 8.34183 8.60937L6.09188 12.4135C5.95053 12.6542 5.99764 12.9521 6.23324 13.1125L8.62454 14.9229C8.56565 15.2667 8.51853 15.6448 8.51853 16C8.51853 16.3552 8.54209 16.7333 8.60099 17.0771L6.20968 18.8875C5.99764 19.0479 5.93875 19.3573 6.06832 19.5865L8.33005 23.3906C8.47141 23.6427 8.7659 23.7229 9.02506 23.6427L11.8404 22.5427C12.4294 22.9781 13.0538 23.3448 13.7488 23.6198L14.1728 26.5302C14.2317 26.8052 14.4556 27 14.7383 27H19.2617C19.5444 27 19.78 26.8052 19.8154 26.5302L20.2395 23.6198C20.9345 23.3448 21.5706 22.9781 22.1478 22.5427L24.9632 23.6427C25.2223 23.7344 25.5168 23.6427 25.6582 23.3906L27.9199 19.5865C28.0613 19.3344 28.0024 19.0479 27.7785 18.8875L25.4108 17.0771Z" stroke="url(#paint0_linear_83_173)" stroke-width="0.5"/>
<path d="M22.4108 13.0771C22.4579 12.7333 22.4815 12.3781 22.4815 12C22.4815 11.6333 22.4579 11.2667 22.399 10.9229L24.7903 9.1125C25.0024 8.95208 25.0613 8.64271 24.9317 8.41354L22.67 4.60937C22.5286 4.35729 22.2341 4.27708 21.9749 4.35729L19.1596 5.45729C18.5706 5.02187 17.9462 4.65521 17.2512 4.38021L16.8272 1.46979C16.78 1.19479 16.5444 1 16.2617 1H11.7383C11.4556 1 11.2317 1.19479 11.1846 1.46979L10.7605 4.38021C10.0655 4.65521 9.42943 5.03333 8.85222 5.45729L6.03684 4.35729C5.77768 4.26562 5.48319 4.35729 5.34183 4.60937L3.09188 8.41354C2.95053 8.65417 2.99764 8.95208 3.23324 9.1125L5.62454 10.9229C5.56565 11.2667 5.51853 11.6448 5.51853 12C5.51853 12.3552 5.54209 12.7333 5.60099 13.0771L3.20968 14.8875C2.99764 15.0479 2.93875 15.3573 3.06832 15.5865L5.33005 19.3906C5.47141 19.6427 5.7659 19.7229 6.02506 19.6427L8.84044 18.5427C9.42943 18.9781 10.0538 19.3448 10.7488 19.6198L11.1728 22.5302C11.2317 22.8052 11.4556 23 11.7383 23H16.2617C16.5444 23 16.78 22.8052 16.8154 22.5302L17.2395 19.6198C17.9345 19.3448 18.5706 18.9781 19.1478 18.5427L21.9632 19.6427C22.2223 19.7344 22.5168 19.6427 22.6582 19.3906L24.9199 15.5865C25.0613 15.3344 25.0024 15.0479 24.7785 14.8875L22.4108 13.0771ZM14 16.125C11.6676 16.125 9.75926 14.2688 9.75926 12C9.75926 9.73125 11.6676 7.875 14 7.875C16.3324 7.875 18.2407 9.73125 18.2407 12C18.2407 14.2688 16.3324 16.125 14 16.125Z" stroke="#0876E4" stroke-width="0.5"/>
<path d="M29.7054 25.0385C29.729 24.8667 29.7407 24.6891 29.7407 24.5C29.7407 24.3167 29.729 24.1333 29.6995 23.9615L30.8952 23.0562C31.0012 22.976 31.0306 22.8214 30.9658 22.7068L29.835 20.8047C29.7643 20.6786 29.617 20.6385 29.4875 20.6786L28.0798 21.2286C27.7853 21.0109 27.4731 20.8276 27.1256 20.6901L26.9136 19.2349C26.89 19.0974 26.7722 19 26.6309 19H24.3691C24.2278 19 24.1159 19.0974 24.0923 19.2349L23.8803 20.6901C23.5328 20.8276 23.2147 21.0167 22.9261 21.2286L21.5184 20.6786C21.3888 20.6328 21.2416 20.6786 21.1709 20.8047L20.0459 22.7068C19.9753 22.8271 19.9988 22.976 20.1166 23.0562L21.3123 23.9615C21.2828 24.1333 21.2593 24.3224 21.2593 24.5C21.2593 24.6776 21.271 24.8667 21.3005 25.0385L20.1048 25.9437C19.9988 26.024 19.9694 26.1786 20.0342 26.2932L21.165 28.1953C21.2357 28.3214 21.383 28.3615 21.5125 28.3214L22.9202 27.7714C23.2147 27.9891 23.5269 28.1724 23.8744 28.3099L24.0864 29.7651C24.1159 29.9026 24.2278 30 24.3691 30H26.6309C26.7722 30 26.89 29.9026 26.9077 29.7651L27.1197 28.3099C27.4672 28.1724 27.7853 27.9891 28.0739 27.7714L29.4816 28.3214C29.6112 28.3672 29.7584 28.3214 29.8291 28.1953L30.9599 26.2932C31.0306 26.1672 31.0012 26.024 30.8893 25.9437L29.7054 25.0385ZM25.5 26.5625C24.3338 26.5625 23.3796 25.6344 23.3796 24.5C23.3796 23.3656 24.3338 22.4375 25.5 22.4375C26.6662 22.4375 27.6204 23.3656 27.6204 24.5C27.6204 25.6344 26.6662 26.5625 25.5 26.5625Z" fill="#0876E4"/>
</g>
<defs>
<filter id="filter0_i_83_173" x="3.75012" y="2.75" width="24.4999" height="24.5" filterUnits="userSpaceOnUse" color-interpolation-filters="sRGB">
<feFlood flood-opacity="0" result="BackgroundImageFix"/>
<feBlend mode="normal" in="SourceGraphic" in2="BackgroundImageFix" result="shape"/>
<feColorMatrix in="SourceAlpha" type="matrix" values="0 0 0 0 0 0 0 0 0 0 0 0 0 0 0 0 0 0 127 0" result="hardAlpha"/>
<feOffset dx="-2" dy="-2"/>
<feGaussianBlur stdDeviation="3"/>
<feComposite in2="hardAlpha" operator="arithmetic" k2="-1" k3="1"/>
<feColorMatrix type="matrix" values="0 0 0 0 0.983333 0 0 0 0 0.989394 0 0 0 0 1 0 0 0 0.8 0"/>
<feBlend mode="normal" in2="shape" result="effect1_innerShadow_83_173"/>
</filter>
<linearGradient id="paint0_linear_83_173" x1="6" y1="5.20953" x2="29.1722" y2="26.1328" gradientUnits="userSpaceOnUse">
<stop stop-color="#E9EDF4"/>
<stop offset="1" stop-color="#E8EDF7"/>
</linearGradient>
<clipPath id="clip0_83_173">
<rect width="32" height="32" fill="white" transform="translate(0.5 6.10352e-05)"/>
</clipPath>
</defs>
</svg>
