<svg width="24" height="24" viewBox="0 0 24 24" fill="none" xmlns="http://www.w3.org/2000/svg">
<g filter="url(#filter0_i_2520_20136)">
<rect x="9.75" y="13.5" width="7.5" height="10.5" rx="1" fill="#4C75BA" fill-opacity="0.2"/>
</g>
<rect x="10" y="13.75" width="7" height="10" rx="0.75" stroke="url(#paint0_linear_2520_20136)" stroke-width="0.5"/>
<path d="M12 9.75V12M9.48221 5.16675C10.5555 3.75675 11.3835 1.8075 11.8305 0.75C12.6135 1.8075 14.313 4.461 14.85 5.87175C15.5205 7.63425 13.8435 9.75 11.8305 9.75C9.81746 9.75 8.14046 6.93 9.48221 5.16675Z" stroke="#0876E4" stroke-width="0.5" stroke-linecap="round" stroke-linejoin="round"/>
<path d="M11.3706 7.47225C11.6389 7.00225 11.8459 6.3525 11.9576 6C12.1534 6.3525 12.5782 7.237 12.7125 7.70725C12.8801 8.29475 12.4609 9 11.9576 9C11.4544 9 11.0351 8.06 11.3706 7.47225Z" fill="#0876E4"/>
<rect x="8.25" y="12" width="7.5" height="10.5" rx="1" stroke="#0876E4" stroke-width="0.5"/>
<path d="M4.5 19.5V19.5C4.5 21.1569 5.84315 22.5 7.5 22.5H19.5" stroke="#0876E4" stroke-width="0.5" stroke-linecap="round"/>
<defs>
<filter id="filter0_i_2520_20136" x="7.75" y="11.5" width="9.5" height="12.5" filterUnits="userSpaceOnUse" color-interpolation-filters="sRGB">
<feFlood flood-opacity="0" result="BackgroundImageFix"/>
<feBlend mode="normal" in="SourceGraphic" in2="BackgroundImageFix" result="shape"/>
<feColorMatrix in="SourceAlpha" type="matrix" values="0 0 0 0 0 0 0 0 0 0 0 0 0 0 0 0 0 0 127 0" result="hardAlpha"/>
<feOffset dx="-2" dy="-2"/>
<feGaussianBlur stdDeviation="3"/>
<feComposite in2="hardAlpha" operator="arithmetic" k2="-1" k3="1"/>
<feColorMatrix type="matrix" values="0 0 0 0 0.983333 0 0 0 0 0.989394 0 0 0 0 1 0 0 0 0.8 0"/>
<feBlend mode="normal" in2="shape" result="effect1_innerShadow_2520_20136"/>
</filter>
<linearGradient id="paint0_linear_2520_20136" x1="9.75" y1="13.6" x2="19.8775" y2="20.1319" gradientUnits="userSpaceOnUse">
<stop stop-color="#E9EDF4"/>
<stop offset="1" stop-color="#E8EDF7"/>
</linearGradient>
</defs>
</svg>
