<svg width="32" height="32" viewBox="0 0 32 32" fill="none" xmlns="http://www.w3.org/2000/svg">
<g filter="url(#filter0_i_506_19245)">
<path d="M27.9992 24.466V28.38C28.0007 28.7434 27.9261 29.1031 27.7802 29.436C27.6344 29.7689 27.4205 30.0678 27.1522 30.3134C26.8839 30.559 26.5672 30.7461 26.2223 30.8625C25.8774 30.9789 25.5119 31.0221 25.1493 30.9894C21.1266 30.5532 17.2626 29.1813 13.8676 26.984C10.709 24.9809 8.03104 22.3083 6.02394 19.1559C3.81462 15.7523 2.43971 11.8771 2.01061 7.84434C1.97794 7.48355 2.02091 7.11992 2.13676 6.77661C2.25262 6.43331 2.43884 6.11783 2.68355 5.85029C2.92827 5.58274 3.22612 5.36897 3.55815 5.2226C3.89018 5.07623 4.24911 5.00047 4.61208 5.00013H8.5339C9.16833 4.99389 9.78338 5.21811 10.2644 5.63098C10.7455 6.04386 11.0597 6.61721 11.1484 7.24418C11.314 8.49676 11.621 9.72664 12.0635 10.9103C12.2394 11.3773 12.2775 11.8848 12.1732 12.3727C12.069 12.8606 11.8267 13.3085 11.4753 13.6632L9.81503 15.3202C11.676 18.5865 14.3858 21.291 17.6587 23.1483L19.3189 21.4913C19.6743 21.1405 20.1231 20.8988 20.612 20.7947C21.1008 20.6907 21.6093 20.7287 22.0772 20.9042C23.2633 21.3459 24.4956 21.6523 25.7507 21.8175C26.3857 21.9069 26.9657 22.2261 27.3802 22.7145C27.7948 23.2028 28.0151 23.8261 27.9992 24.466Z" fill="#4C75BA" fill-opacity="0.2"/>
</g>
<path d="M27.9992 24.466V28.38C28.0007 28.7434 27.9261 29.1031 27.7802 29.436C27.6344 29.7689 27.4205 30.0678 27.1522 30.3134C26.8839 30.559 26.5672 30.7461 26.2223 30.8625C25.8774 30.9789 25.5119 31.0221 25.1493 30.9894C21.1266 30.5532 17.2626 29.1813 13.8676 26.984C10.709 24.9809 8.03104 22.3083 6.02394 19.1559C3.81462 15.7523 2.43971 11.8771 2.01061 7.84434C1.97794 7.48355 2.02091 7.11992 2.13676 6.77661C2.25262 6.43331 2.43884 6.11783 2.68355 5.85029C2.92827 5.58274 3.22612 5.36897 3.55815 5.2226C3.89018 5.07623 4.24911 5.00047 4.61208 5.00013H8.5339C9.16833 4.99389 9.78338 5.21811 10.2644 5.63098C10.7455 6.04386 11.0597 6.61721 11.1484 7.24418C11.314 8.49676 11.621 9.72664 12.0635 10.9103C12.2394 11.3773 12.2775 11.8848 12.1732 12.3727C12.069 12.8606 11.8267 13.3085 11.4753 13.6632L9.81503 15.3202C11.676 18.5865 14.3858 21.291 17.6587 23.1483L19.3189 21.4913C19.6743 21.1405 20.1231 20.8988 20.612 20.7947C21.1008 20.6907 21.6093 20.7287 22.0772 20.9042C23.2633 21.3459 24.4956 21.6523 25.7507 21.8175C26.3857 21.9069 26.9657 22.2261 27.3802 22.7145C27.7948 23.2028 28.0151 23.8261 27.9992 24.466Z" stroke="url(#paint0_linear_506_19245)" stroke-width="0.5" stroke-linecap="round" stroke-linejoin="round"/>
<path d="M30.9992 20.466V24.38C31.0007 24.7434 30.9261 25.1031 30.7802 25.436C30.6344 25.7689 30.4205 26.0678 30.1522 26.3134C29.8839 26.559 29.5672 26.7461 29.2223 26.8625C28.8774 26.9789 28.5119 27.0221 28.1493 26.9894C24.1266 26.5532 20.2626 25.1813 16.8676 22.984C13.709 20.9809 11.031 18.3083 9.02394 15.1559C6.81462 11.7523 5.43971 7.8771 5.01061 3.84434C4.97794 3.48355 5.02091 3.11992 5.13676 2.77661C5.25262 2.43331 5.43884 2.11783 5.68355 1.85029C5.92827 1.58274 6.22612 1.36897 6.55815 1.2226C6.89018 1.07623 7.24911 1.00047 7.61208 1.00013H11.5339C12.1683 0.993895 12.7834 1.21811 13.2644 1.63098C13.7455 2.04386 14.0597 2.61721 14.1484 3.24418C14.314 4.49676 14.621 5.72664 15.0635 6.91034C15.2394 7.37732 15.2775 7.88483 15.1732 8.37273C15.069 8.86064 14.8267 9.30849 14.4753 9.66322L12.815 11.3202C14.676 14.5865 17.3858 17.291 20.6587 19.1483L22.3189 17.4913C22.6743 17.1405 23.1231 16.8988 23.612 16.7947C24.1008 16.6907 24.6093 16.7287 25.0772 16.9042C26.2633 17.3459 27.4956 17.6523 28.7507 17.8175C29.3857 17.9069 29.9657 18.2261 30.3802 18.7145C30.7948 19.2028 31.0151 19.8261 30.9992 20.466Z" stroke="#0876E4" stroke-width="0.5" stroke-linecap="round" stroke-linejoin="round"/>
<path d="M25.0108 7.35355C25.206 7.15829 25.206 6.84171 25.0108 6.64645C24.8155 6.45118 24.4989 6.45118 24.3037 6.64645L25.0108 7.35355ZM18.5004 12.6569C18.5004 12.933 18.7242 13.1569 19.0004 13.1569L23.5004 13.1569C23.7765 13.1569 24.0004 12.933 24.0004 12.6569C24.0004 12.3807 23.7765 12.1569 23.5004 12.1569L19.5004 12.1569L19.5004 8.15685C19.5004 7.88071 19.2765 7.65685 19.0004 7.65685C18.7242 7.65685 18.5004 7.88071 18.5004 8.15685L18.5004 12.6569ZM24.3037 6.64645L18.6468 12.3033L19.3539 13.0104L25.0108 7.35355L24.3037 6.64645Z" fill="#0876E4"/>
<defs>
<filter id="filter0_i_506_19245" x="-0.25" y="2.75" width="28.5" height="28.5" filterUnits="userSpaceOnUse" color-interpolation-filters="sRGB">
<feFlood flood-opacity="0" result="BackgroundImageFix"/>
<feBlend mode="normal" in="SourceGraphic" in2="BackgroundImageFix" result="shape"/>
<feColorMatrix in="SourceAlpha" type="matrix" values="0 0 0 0 0 0 0 0 0 0 0 0 0 0 0 0 0 0 127 0" result="hardAlpha"/>
<feOffset dx="-2" dy="-2"/>
<feGaussianBlur stdDeviation="3"/>
<feComposite in2="hardAlpha" operator="arithmetic" k2="-1" k3="1"/>
<feColorMatrix type="matrix" values="0 0 0 0 0.983333 0 0 0 0 0.989394 0 0 0 0 1 0 0 0 0.8 0"/>
<feBlend mode="normal" in2="shape" result="effect1_innerShadow_506_19245"/>
</filter>
<linearGradient id="paint0_linear_506_19245" x1="2" y1="5.24763" x2="29.3853" y2="29.9752" gradientUnits="userSpaceOnUse">
<stop stop-color="#E9EDF4"/>
<stop offset="1" stop-color="#E8EDF7"/>
</linearGradient>
</defs>
</svg>
