<svg width="23" height="23" viewBox="0 0 23 23" fill="none" xmlns="http://www.w3.org/2000/svg">
<path fill-rule="evenodd" clip-rule="evenodd" d="M16.5385 0.297607H6.6783C2.03272 0.297607 0.333496 1.99605 0.333496 6.64163V16.5018C0.333496 21.1466 2.03272 22.8466 6.6783 22.8466H16.5353C21.1801 22.8466 22.8825 21.1466 22.8825 16.5018V6.64163C22.8825 1.99605 21.1825 0.297607 16.5377 0.297607" fill="#C8102E"/>
<path d="M4.79899 11.5732H5.39683V14.5211H4.79899V13.3246H3.44819V14.5211H2.84956V11.5732H3.44819V12.7626H4.79899V11.5732ZM8.16859 13.2576C8.16859 13.7377 7.93008 13.9934 7.49825 13.9934C7.06643 13.9934 6.82402 13.73 6.82402 13.2373V11.5755H6.22618V13.2576C6.22618 14.0869 6.68684 14.5624 7.49046 14.5624C8.29408 14.5624 8.76644 14.0784 8.76644 13.2373V11.5732H8.16859V13.2576ZM15.0808 13.5974L14.4113 11.5708H13.9233L13.2546 13.5974L12.6029 11.5708H11.9661L12.9942 14.5172H13.4892L14.1587 12.5818L14.8298 14.5172H15.3287L16.3545 11.5708H15.7309L15.0808 13.5974ZM17.4262 13.2498H18.5175V12.7135H17.4262V12.1095H19.0054V11.5724H16.8338V14.5164H19.06V13.9825H17.4231L17.4262 13.2498ZM19.7755 14.5141H20.3663V11.5732H19.7755V14.5141ZM9.94887 13.9022L9.68074 14.5164H9.06964L10.369 11.5701H10.8959L12.1898 14.5164H11.5663L11.3012 13.9022H9.94887ZM10.171 13.3714H11.0752L10.6208 12.3222L10.171 13.3714Z" fill="white"/>
<path d="M11.6115 7.82024C10.6165 7.819 9.66258 7.42319 8.95901 6.71961C8.25543 6.01604 7.85962 5.06214 7.85838 4.06714H8.38919C8.38919 4.92195 8.72877 5.74175 9.33321 6.34619C9.93765 6.95063 10.7574 7.2902 11.6123 7.2902C12.4671 7.2902 13.2869 6.95063 13.8913 6.34619C14.4958 5.74175 14.8353 4.92195 14.8353 4.06714H15.3654C15.3641 5.06228 14.9682 6.01629 14.2645 6.71989C13.5607 7.42348 12.6066 7.8192 11.6115 7.82024Z" fill="white"/>
</svg>
