<svg width="271" height="252" viewBox="0 0 271 252" fill="none" xmlns="http://www.w3.org/2000/svg">
<path d="M73.2895 184.882C52.6596 183.153 43.3542 173.711 39.5275 156.646C35.7007 139.581 50.6222 117.632 67.6871 113.805L61.7975 123.536C61.7975 123.536 91.9434 106.731 96.0069 87.4346C96.0069 87.4346 99.8482 103.055 91.4918 108.875C91.4918 108.875 109.812 94.5813 121.87 94.6279L108.717 102.38C142.24 100.914 161.094 102.656 192.685 79.474C192.685 79.474 181.814 93.4413 170.616 99.9593L230.073 87.6C230.073 87.6 209.208 107.191 173.691 130.829C173.691 130.829 184.516 128.92 194.084 131.085C173.854 134.553 131.044 153.362 123.572 159.717L141.147 154.643C135.726 163.599 124.782 167.702 107.928 169.588L129.019 172.684C115.191 171.566 88.9096 181.041 88.9096 181.041L96.1726 183.019C87.6526 185.114 82.2242 185.63 73.2895 184.882Z" stroke="#053D75" stroke-linejoin="round" fill="#F1EDF3"/>
<rect x="45.4598" y="126.612" width="50" height="50" rx="25" fill="#00E676"/>
<path fill-rule="evenodd" clip-rule="evenodd" d="M71.267 137.445C74.7903 137.445 78.2402 138.84 80.7358 141.409C83.2314 143.904 84.6262 147.281 84.6262 150.878C84.6262 158.291 78.6072 164.384 71.1936 164.384C68.9915 164.384 66.7895 163.87 64.8076 162.769L57.6877 164.604L59.5962 157.631C58.4951 155.575 57.8345 153.3 57.8345 150.951C57.7611 143.537 63.7801 137.445 71.267 137.445ZM76.9189 153.594L77.7263 153.961C77.8731 154.034 77.9466 154.107 77.9466 154.107L77.9466 154.621L77.9463 154.623C77.8729 154.989 77.7996 155.356 77.653 155.649C77.5795 155.796 77.4327 155.942 77.286 156.089C77.2126 156.163 77.1392 156.218 77.0658 156.273C76.9924 156.328 76.919 156.383 76.8456 156.456L76.6987 156.603C76.6163 156.685 76.5338 156.722 76.4384 156.763C76.3639 156.796 76.2815 156.832 76.185 156.897C75.8913 157.043 75.4509 157.19 75.0839 157.19L74.3499 157.19C74.2397 157.153 74.1112 157.135 73.9826 157.117C73.8543 157.098 73.7259 157.08 73.6159 157.043C71.634 156.53 69.8724 155.575 68.3309 154.254C68.2351 154.11 68.108 153.998 67.97 153.876C67.8966 153.811 67.8202 153.743 67.7438 153.667L67.4502 153.373C66.2757 152.272 65.3949 151.024 64.7343 149.63L64.6608 149.41C64.4406 148.896 64.2938 148.309 64.2938 147.721C64.2938 146.914 64.5874 146.107 65.1012 145.446C65.1746 145.373 65.2297 145.299 65.2847 145.226C65.3398 145.152 65.3949 145.079 65.4683 145.006C65.5417 144.969 65.6152 144.914 65.6886 144.859C65.7619 144.804 65.8353 144.749 65.9086 144.712L65.9821 144.639C66.0555 144.639 66.1289 144.62 66.2023 144.602C66.2757 144.583 66.3491 144.565 66.4226 144.565L67.23 144.565C67.4502 144.639 67.5969 144.712 67.7438 144.932C67.9639 145.373 68.8448 147.354 68.9181 147.721C68.9916 147.942 68.9181 148.235 68.7713 148.455C68.6979 148.529 68.6429 148.621 68.5879 148.712C68.5328 148.804 68.4778 148.896 68.4043 148.969C68.1842 149.189 67.8906 149.556 67.8906 149.556C67.8171 149.63 67.8171 149.777 67.8171 149.923C67.8452 149.98 67.8626 150.025 67.8774 150.064C67.9013 150.126 67.9186 150.172 67.9639 150.217L68.0374 150.364C68.4043 151.024 68.9181 151.612 69.4319 152.126C69.5053 152.199 69.5971 152.272 69.6888 152.346C69.7806 152.419 69.8724 152.493 69.9458 152.566C70.533 153.153 71.267 153.594 72.0744 153.961L72.4414 154.107C72.5149 154.181 72.6617 154.254 72.735 154.254L72.8085 154.254C72.9552 154.254 73.102 154.181 73.1755 154.034C74.2031 152.86 74.2765 152.786 74.2765 152.786C74.4233 152.713 74.5701 152.639 74.7903 152.639C74.827 152.639 74.8637 152.658 74.9004 152.676C74.9371 152.694 74.9738 152.713 75.0105 152.713C75.7446 153.08 76.9189 153.594 76.9189 153.594Z" stroke="white" stroke-width="1.5" stroke-linejoin="round"/>
</svg>
