<svg width="20" height="25" viewBox="0 0 20 25" fill="none" xmlns="http://www.w3.org/2000/svg">
<path d="M16.6813 13.2729C16.6931 12.358 16.9361 11.461 17.3877 10.6654C17.8393 9.86968 18.4848 9.20115 19.2642 8.72199C18.7691 8.01486 18.1159 7.43292 17.3565 7.02239C16.5971 6.61186 15.7525 6.38405 14.8897 6.35706C13.0491 6.16387 11.2648 7.4584 10.3269 7.4584C9.37086 7.4584 7.92681 6.37624 6.37181 6.40823C5.36599 6.44073 4.38574 6.73321 3.52657 7.25719C2.6674 7.78117 1.9586 8.51877 1.46925 9.39812C-0.650512 13.0682 0.930641 18.4619 2.9612 21.4285C3.97713 22.8811 5.16446 24.5038 6.71806 24.4462C8.23835 24.3832 8.80615 23.4768 10.6413 23.4768C12.4594 23.4768 12.9921 24.4462 14.5772 24.4097C16.2085 24.3832 17.2364 22.9505 18.2166 21.4841C18.9466 20.4491 19.5083 19.3051 19.8809 18.0946C18.9331 17.6937 18.1243 17.0227 17.5554 16.1653C16.9864 15.3079 16.6824 14.3019 16.6813 13.2729Z" fill="black"/>
<path d="M13.6873 4.40598C14.5768 3.3382 15.015 1.96574 14.9089 0.580078C13.5499 0.722807 12.2947 1.37228 11.3932 2.3991C10.9524 2.90072 10.6148 3.4843 10.3997 4.11647C10.1846 4.74864 10.0962 5.417 10.1396 6.08336C10.8193 6.09035 11.4917 5.94303 12.1063 5.65248C12.7208 5.36193 13.2614 4.93573 13.6873 4.40598Z" fill="black"/>
</svg>
