<svg width="24" height="24" viewBox="0 0 24 24" fill="none" xmlns="http://www.w3.org/2000/svg">
<g filter="url(#filter0_i_449_6325)">
<path fill-rule="evenodd" clip-rule="evenodd" d="M20.4442 13.3629C19.5622 8.44933 17.5902 7 16.5411 7C14.9041 7 14.4841 8.21393 11 8.25482C7.51599 8.21393 7.09598 7 5.45895 7C4.40993 7 2.4369 8.44933 1.55488 13.3629C1.05187 16.1678 0.505863 20.3552 1.80689 20.8579C3.42591 21.4833 3.97492 19.9193 5.75296 18.5976C7.55799 17.258 8.424 16.9428 11 16.9428C13.5761 16.9428 14.4421 17.258 16.2471 18.5976C18.0252 19.9183 18.5742 21.4833 20.1932 20.8579C21.4942 20.3552 20.9482 16.1688 20.4442 13.3629Z" fill="#4C75BA" fill-opacity="0.2"/>
</g>
<path d="M1.30881 13.3188L1.30881 13.3187C1.75437 10.8366 2.47943 9.20556 3.24451 8.18857C4.00501 7.17767 4.82608 6.75 5.45895 6.75C6.18666 6.75 6.70648 6.978 7.26715 7.22391C7.3863 7.27617 7.50729 7.32924 7.63252 7.3811C8.35106 7.67868 9.29502 7.98445 11 8.00481C12.7051 7.98445 13.649 7.67868 14.3676 7.3811C14.4928 7.32924 14.6138 7.27617 14.733 7.22391C15.2936 6.978 15.8134 6.75 16.5411 6.75C17.174 6.75 17.9949 7.1777 18.7551 8.1886C19.5199 9.20559 20.2447 10.8367 20.6903 13.3187M1.30881 13.3188L20.4442 13.3629M1.30881 13.3188C1.05684 14.7238 0.791701 16.4873 0.754451 17.9674C0.735868 18.7058 0.773395 19.3897 0.905051 19.9285C1.03343 20.4539 1.27104 20.9189 1.71678 21.0911L1.7168 21.0911C2.16158 21.2629 2.5532 21.2911 2.91901 21.1965C3.27872 21.1035 3.58874 20.8981 3.88229 20.6483C4.10298 20.4606 4.32825 20.2351 4.56358 19.9995C4.63786 19.9251 4.71315 19.8497 4.78961 19.7742C5.11334 19.4545 5.47142 19.1184 5.9021 18.7983M1.30881 13.3188L1.80689 20.8579C2.92218 21.2887 3.52971 20.6806 4.38102 19.8284C4.76552 19.4435 5.19975 19.0089 5.75296 18.5976M20.6903 13.3187L20.4442 13.3629M20.6903 13.3187C20.6903 13.3187 20.6903 13.3187 20.6903 13.3187L20.4442 13.3629M20.6903 13.3187C20.9428 14.7243 21.2081 16.4877 21.2455 17.9678C21.2642 18.7061 21.2267 19.3899 21.095 19.9287C20.9667 20.454 20.729 20.9189 20.2833 21.0911L20.2833 21.0911C19.8385 21.2629 19.4469 21.291 19.081 21.1963C18.7213 21.1033 18.4113 20.8977 18.1178 20.6479C17.8974 20.4604 17.6723 20.2351 17.4373 19.9998C17.3628 19.9252 17.2872 19.8496 17.2105 19.7738C16.8868 19.4542 16.5287 19.1182 16.0981 18.7983M20.4442 13.3629C20.9482 16.1688 21.4942 20.3552 20.1932 20.8579C19.0783 21.2886 18.4708 20.6805 17.6199 19.8288C17.2352 19.4437 16.8007 19.0088 16.2471 18.5976M16.0981 18.7983C16.0981 18.7984 16.0981 18.7984 16.0982 18.7984L16.2471 18.5976M16.0981 18.7983L16.2471 18.5976M16.0981 18.7983C15.2015 18.133 14.5603 17.7392 13.836 17.5058C13.11 17.2719 12.2813 17.1928 11 17.1928C9.71884 17.1928 8.89008 17.2719 8.16405 17.5058C7.43979 17.7392 6.7986 18.1329 5.9021 18.7983M16.2471 18.5976C14.4421 17.258 13.5761 16.9428 11 16.9428C8.424 16.9428 7.55799 17.258 5.75296 18.5976M5.75296 18.5976L5.9021 18.7983M5.75296 18.5976L5.90195 18.7984C5.902 18.7984 5.90205 18.7983 5.9021 18.7983" stroke="url(#paint0_linear_449_6325)" stroke-width="0.5"/>
<path d="M3.30881 11.3188L3.30881 11.3187C3.75437 8.83663 4.47943 7.20556 5.24451 6.18857C6.00501 5.17767 6.82608 4.75 7.45895 4.75C8.18666 4.75 8.70648 4.978 9.26715 5.22391C9.3863 5.27617 9.50729 5.32924 9.63252 5.3811C10.3511 5.67868 11.295 5.98445 13 6.00481C14.7051 5.98445 15.649 5.67868 16.3676 5.3811C16.4928 5.32924 16.6138 5.27617 16.733 5.22391C17.2936 4.978 17.8134 4.75 18.5411 4.75C19.174 4.75 19.9949 5.1777 20.7551 6.1886C21.5199 7.20559 22.2447 8.83665 22.6903 11.3187M3.30881 11.3188L22.4442 11.3629M3.30881 11.3188C3.05684 12.7238 2.7917 14.4873 2.75445 15.9674C2.73587 16.7058 2.7734 17.3897 2.90505 17.9285C3.03343 18.4539 3.27104 18.9189 3.71678 19.0911L3.7168 19.0911C4.16158 19.2629 4.5532 19.2911 4.91901 19.1965C5.27872 19.1035 5.58874 18.8981 5.88229 18.6483C6.10298 18.4606 6.32825 18.2351 6.56358 17.9995C6.63786 17.9251 6.71315 17.8497 6.78961 17.7742C7.11334 17.4545 7.47142 17.1184 7.9021 16.7983M3.30881 11.3188L3.80689 18.8579C4.92218 19.2887 5.52971 18.6806 6.38102 17.8284C6.76552 17.4435 7.19975 17.0089 7.75296 16.5976M22.6903 11.3187L22.4442 11.3629M22.6903 11.3187C22.6903 11.3187 22.6903 11.3187 22.6903 11.3187L22.4442 11.3629M22.6903 11.3187C22.9428 12.7243 23.2081 14.4877 23.2455 15.9678C23.2642 16.7061 23.2267 17.3899 23.095 17.9287C22.9667 18.454 22.729 18.9189 22.2833 19.0911L22.2833 19.0911C21.8385 19.2629 21.4469 19.291 21.081 19.1963C20.7213 19.1033 20.4113 18.8977 20.1178 18.6479C19.8974 18.4604 19.6723 18.2351 19.4373 17.9998C19.3628 17.9252 19.2872 17.8496 19.2105 17.7738C18.8868 17.4542 18.5287 17.1182 18.0981 16.7983M22.4442 11.3629C22.9482 14.1688 23.4942 18.3552 22.1932 18.8579C21.0783 19.2886 20.4708 18.6805 19.6199 17.8288C19.2352 17.4437 18.8007 17.0088 18.2471 16.5976M18.0981 16.7983C18.0981 16.7984 18.0981 16.7984 18.0982 16.7984L18.2471 16.5976M18.0981 16.7983L18.2471 16.5976M18.0981 16.7983C17.2015 16.133 16.5603 15.7392 15.836 15.5058C15.11 15.2719 14.2813 15.1928 13 15.1928C11.7188 15.1928 10.8901 15.2719 10.1641 15.5058C9.43979 15.7392 8.7986 16.1329 7.9021 16.7983M18.2471 16.5976C16.4421 15.258 15.5761 14.9428 13 14.9428C10.424 14.9428 9.55799 15.258 7.75296 16.5976M7.75296 16.5976L7.9021 16.7983M7.75296 16.5976L7.90195 16.7984C7.902 16.7984 7.90205 16.7983 7.9021 16.7983" stroke="#0876E4" stroke-width="0.5"/>
<path fill-rule="evenodd" clip-rule="evenodd" d="M9.00004 12.0003C8.46959 12.0003 7.96088 11.7901 7.5858 11.416C7.21072 11.0418 7 10.5344 7 10.0053C7 9.47623 7.21072 8.96881 7.5858 8.59468C7.96088 8.22056 8.46959 8.01038 9.00004 8.01038C9.53048 8.01038 10.0392 8.22056 10.4143 8.59468C10.7894 8.96881 11.0001 9.47623 11.0001 10.0053C11.0001 10.5344 10.7894 11.0418 10.4143 11.416C10.0392 11.7901 9.53048 12.0003 9.00004 12.0003ZM16.0002 12.0003C15.7349 12.0003 15.4806 11.8952 15.293 11.7081C15.1055 11.5211 15.0001 11.2673 15.0001 11.0028C15.0001 10.7383 15.1055 10.4845 15.293 10.2975C15.4806 10.1104 15.7349 10.0053 16.0002 10.0053C16.2654 10.0053 16.5197 10.1104 16.7073 10.2975C16.8948 10.4845 17.0002 10.7383 17.0002 11.0028C17.0002 11.2673 16.8948 11.5211 16.7073 11.7081C16.5197 11.8952 16.2654 12.0003 16.0002 12.0003ZM18.0002 10.0053C17.735 10.0053 17.4806 9.90023 17.2931 9.71317C17.1055 9.52611 17.0002 9.2724 17.0002 9.00785C17.0002 8.7433 17.1055 8.48959 17.2931 8.30253C17.4806 8.11547 17.735 8.01038 18.0002 8.01038C18.2654 8.01038 18.5198 8.11547 18.7073 8.30253C18.8949 8.48959 19.0002 8.7433 19.0002 9.00785C19.0002 9.2724 18.8949 9.52611 18.7073 9.71317C18.5198 9.90023 18.2654 10.0053 18.0002 10.0053Z" fill="#0876E4"/>
<defs>
<filter id="filter0_i_449_6325" x="-1.5" y="4.5" width="23" height="17" filterUnits="userSpaceOnUse" color-interpolation-filters="sRGB">
<feFlood flood-opacity="0" result="BackgroundImageFix"/>
<feBlend mode="normal" in="SourceGraphic" in2="BackgroundImageFix" result="shape"/>
<feColorMatrix in="SourceAlpha" type="matrix" values="0 0 0 0 0 0 0 0 0 0 0 0 0 0 0 0 0 0 127 0" result="hardAlpha"/>
<feOffset dx="-2" dy="-2"/>
<feGaussianBlur stdDeviation="3"/>
<feComposite in2="hardAlpha" operator="arithmetic" k2="-1" k3="1"/>
<feColorMatrix type="matrix" values="0 0 0 0 0.983333 0 0 0 0 0.989394 0 0 0 0 1 0 0 0 0.8 0"/>
<feBlend mode="normal" in2="shape" result="effect1_innerShadow_449_6325"/>
</filter>
<linearGradient id="paint0_linear_449_6325" x1="1" y1="7.13334" x2="15.3551" y2="25.6504" gradientUnits="userSpaceOnUse">
<stop stop-color="#E9EDF4"/>
<stop offset="1" stop-color="#E8EDF7"/>
</linearGradient>
</defs>
</svg>
