<svg width="33" height="32" viewBox="0 0 33 32" fill="none" xmlns="http://www.w3.org/2000/svg">
<g filter="url(#filter0_i_83_169)">
<path d="M16.1666 3.20007C12.7718 3.20007 9.51608 4.54864 7.11561 6.94911C4.71514 9.34957 3.36658 12.6053 3.36658 16.0001C3.36658 19.3948 4.71514 22.6506 7.11561 25.051C9.51608 27.4515 12.7718 28.8001 16.1666 28.8001C19.5613 28.8001 22.8171 27.4515 25.2175 25.051C27.618 22.6506 28.9666 19.3948 28.9666 16.0001C28.9666 12.6053 27.618 9.34957 25.2175 6.94911C22.8171 4.54864 19.5613 3.20007 16.1666 3.20007Z" fill="#4C75BA" fill-opacity="0.2"/>
</g>
<path d="M7.29239 7.12588C9.64597 4.7723 12.8381 3.45007 16.1666 3.45007C19.495 3.45007 22.6872 4.7723 25.0408 7.12588C27.3944 9.47947 28.7166 12.6716 28.7166 16.0001C28.7166 19.3285 27.3944 22.5207 25.0408 24.8743C22.6872 27.2278 19.495 28.5501 16.1666 28.5501C12.8381 28.5501 9.64597 27.2278 7.29239 24.8743C4.93881 22.5207 3.61658 19.3285 3.61658 16.0001C3.61658 12.6716 4.93881 9.47947 7.29239 7.12588Z" stroke="url(#paint0_linear_83_169)" stroke-width="0.5"/>
<path d="M9.29239 5.12588C11.646 2.7723 14.8381 1.45007 18.1666 1.45007C21.495 1.45007 24.6872 2.7723 27.0408 5.12588C29.3944 7.47947 30.7166 10.6716 30.7166 14.0001C30.7166 17.3285 29.3944 20.5207 27.0408 22.8743C24.6872 25.2278 21.495 26.5501 18.1666 26.5501C14.8381 26.5501 11.646 25.2278 9.29239 22.8743C6.93881 20.5207 5.61658 17.3285 5.61658 14.0001C5.61658 10.6716 6.93881 7.47947 9.29239 5.12588Z" stroke="#0876E4" stroke-width="0.5"/>
<path d="M11.9999 11V15.5" stroke="#0876E4" stroke-linecap="round"/>
<path d="M15.9999 9.5V18.5" stroke="#0876E4" stroke-linecap="round"/>
<path d="M19.9999 11V15.5" stroke="#0876E4" stroke-linecap="round"/>
<path d="M23.9999 9.5V18.5" stroke="#0876E4" stroke-linecap="round"/>
<defs>
<filter id="filter0_i_83_169" x="1.36658" y="1.20007" width="27.6" height="27.6" filterUnits="userSpaceOnUse" color-interpolation-filters="sRGB">
<feFlood flood-opacity="0" result="BackgroundImageFix"/>
<feBlend mode="normal" in="SourceGraphic" in2="BackgroundImageFix" result="shape"/>
<feColorMatrix in="SourceAlpha" type="matrix" values="0 0 0 0 0 0 0 0 0 0 0 0 0 0 0 0 0 0 127 0" result="hardAlpha"/>
<feOffset dx="-2" dy="-2"/>
<feGaussianBlur stdDeviation="3"/>
<feComposite in2="hardAlpha" operator="arithmetic" k2="-1" k3="1"/>
<feColorMatrix type="matrix" values="0 0 0 0 0.983333 0 0 0 0 0.989394 0 0 0 0 1 0 0 0 0.8 0"/>
<feBlend mode="normal" in2="shape" result="effect1_innerShadow_83_169"/>
</filter>
<linearGradient id="paint0_linear_83_169" x1="3.36658" y1="3.44389" x2="30.3306" y2="27.791" gradientUnits="userSpaceOnUse">
<stop stop-color="#E9EDF4"/>
<stop offset="1" stop-color="#E8EDF7"/>
</linearGradient>
</defs>
</svg>
