<svg width="32" height="32" viewBox="0 0 32 32" fill="none" xmlns="http://www.w3.org/2000/svg">
<g clip-path="url(#clip0_507_20137)">
<g filter="url(#filter0_i_507_20137)">
<path d="M18.166 3.99998C14.453 3.99998 10.892 5.47498 8.26652 8.10049C5.64101 10.726 4.16602 14.287 4.16602 18C4.16602 21.713 5.64101 25.274 8.26652 27.8995C10.892 30.525 14.453 32 18.166 32C21.879 32 25.44 30.525 28.0655 27.8995C30.691 25.274 32.166 21.713 32.166 18C32.166 14.287 30.691 10.726 28.0655 8.10049C25.44 5.47498 21.879 3.99998 18.166 3.99998Z" fill="#4C75BA" fill-opacity="0.2"/>
</g>
<path d="M8.4433 8.27727C11.0219 5.69864 14.5193 4.24998 18.166 4.24998C21.8127 4.24998 25.3101 5.69864 27.8887 8.27727C30.4674 10.8559 31.916 14.3533 31.916 18C31.916 21.6467 30.4674 25.1441 27.8887 27.7227C25.3101 30.3013 21.8127 31.75 18.166 31.75C14.5193 31.75 11.0219 30.3013 8.4433 27.7227C5.86467 25.1441 4.41602 21.6467 4.41602 18C4.41602 14.3533 5.86467 10.8559 8.4433 8.27727Z" stroke="url(#paint0_linear_507_20137)" stroke-width="0.5"/>
<path d="M17.8476 6.74998H10.4844C11.2042 4.00226 12.1479 1.73005 12.7923 0.320839C12.7955 0.320578 12.7988 0.320313 12.8021 0.320046C12.8986 0.312237 13.0335 0.301823 13.1871 0.291412C13.4957 0.270483 13.8737 0.249985 14.166 0.249985C14.716 0.249985 15.1076 0.250427 15.535 0.310616C16.1796 1.71905 17.1261 3.9956 17.8476 6.74998ZM21.1646 6.74998C20.5972 4.53534 19.8707 2.63933 19.2546 1.2234C21.9926 2.30176 24.3085 4.24089 25.8511 6.74998H21.1646ZM9.07741 1.2234C8.46134 2.63933 7.73481 4.53535 7.16741 6.74998H2.48088C4.02356 4.24089 6.33941 2.30176 9.07741 1.2234ZM0.994116 17.95C0.617071 16.7033 0.416016 15.3137 0.416016 14C0.416016 12.6862 0.617071 11.2967 0.994116 10.05H6.51874C6.51338 10.094 6.50753 10.1426 6.50126 10.1954C6.46962 10.4618 6.42744 10.8341 6.38525 11.2582C6.3011 12.104 6.21602 13.1643 6.21602 14C6.21602 14.8357 6.3011 15.8959 6.38525 16.7418C6.42744 17.1659 6.46962 17.5382 6.50126 17.8046C6.50753 17.8574 6.51338 17.906 6.51874 17.95H0.994116ZM27.916 14C27.916 15.3137 27.715 16.7033 27.3379 17.95H21.8216C22.212 15.3311 22.212 12.6688 21.8216 10.05H27.3379C27.715 11.2967 27.916 12.6862 27.916 14ZM9.79777 10.2543C9.807 10.1766 9.81532 10.1081 9.82247 10.05H18.516C18.9139 12.6683 18.9139 15.3317 18.516 17.95H9.82247C9.81532 17.8919 9.807 17.8233 9.79777 17.7456C9.76641 17.4816 9.7246 17.1125 9.68279 16.6923C9.59894 15.8495 9.51602 14.8097 9.51602 14C9.51602 13.1903 9.59894 12.1505 9.68279 11.3077C9.7246 10.8875 9.76641 10.5183 9.79777 10.2543ZM17.8475 21.25C17.1239 24.0057 16.1512 26.2828 15.4811 27.6898C15.069 27.7491 14.632 27.75 14.1731 27.75L12.8438 27.6747C12.1739 26.2666 11.2056 23.9958 10.4845 21.25H17.8475ZM19.2546 26.7766C19.8707 25.3606 20.5972 23.4646 21.1646 21.25H25.8511C24.3085 23.7591 21.9926 25.6982 19.2546 26.7766ZM2.48088 21.25H7.16741C7.73481 23.4646 8.46135 25.3606 9.07741 26.7766C6.33942 25.6982 4.02356 23.7591 2.48088 21.25Z" stroke="#0876E4" stroke-width="0.5"/>
<path d="M9.07836 1.2234C8.4623 2.63933 7.73577 4.53535 7.16836 6.74999H2.48184C4.02451 4.24089 6.34037 2.30176 9.07836 1.2234Z" fill="#0876E4" stroke="#0876E4" stroke-width="0.5"/>
<path d="M27.9163 14C27.9163 15.3137 27.7152 16.7033 27.3382 17.95H21.8219C22.2122 15.3311 22.2122 12.6689 21.8219 10.05H27.3382C27.7152 11.2967 27.9163 12.6862 27.9163 14Z" fill="#0876E4" stroke="#0876E4" stroke-width="0.5"/>
</g>
<defs>
<filter id="filter0_i_507_20137" x="2.16602" y="1.99998" width="30" height="30" filterUnits="userSpaceOnUse" color-interpolation-filters="sRGB">
<feFlood flood-opacity="0" result="BackgroundImageFix"/>
<feBlend mode="normal" in="SourceGraphic" in2="BackgroundImageFix" result="shape"/>
<feColorMatrix in="SourceAlpha" type="matrix" values="0 0 0 0 0 0 0 0 0 0 0 0 0 0 0 0 0 0 127 0" result="hardAlpha"/>
<feOffset dx="-2" dy="-2"/>
<feGaussianBlur stdDeviation="3"/>
<feComposite in2="hardAlpha" operator="arithmetic" k2="-1" k3="1"/>
<feColorMatrix type="matrix" values="0 0 0 0 0.983333 0 0 0 0 0.989394 0 0 0 0 1 0 0 0 0.8 0"/>
<feBlend mode="normal" in2="shape" result="effect1_innerShadow_507_20137"/>
</filter>
<linearGradient id="paint0_linear_507_20137" x1="4.16602" y1="4.26666" x2="33.6579" y2="30.8963" gradientUnits="userSpaceOnUse">
<stop stop-color="#E9EDF4"/>
<stop offset="1" stop-color="#E8EDF7"/>
</linearGradient>
<clipPath id="clip0_507_20137">
<rect width="32" height="32" fill="white"/>
</clipPath>
</defs>
</svg>
