<svg width="237" height="14" viewBox="0 0 237 14" fill="none" xmlns="http://www.w3.org/2000/svg">
<circle cx="5.5" cy="7" r="5.25" fill="#0876E4"/>
<path d="M10.75 5.5C9.92157 5.5 9.25 6.17157 9.25 7C9.25 7.82843 9.92157 8.5 10.75 8.5V5.5ZM112 8.5H113.5V5.5H112V8.5ZM10.75 8.5H112V5.5H10.75V8.5Z" fill="#0876E4"/>
<circle cx="231.25" cy="7" r="5.25" fill="url(#paint0_linear_2623_53091)"/>
<path d="M121 5.5H119.5V8.5H121V5.5ZM231.25 8.5C232.078 8.5 232.75 7.82843 232.75 7C232.75 6.17157 232.078 5.5 231.25 5.5V8.5ZM121 8.5H231.25V5.5H121V8.5Z" fill="url(#paint1_linear_2623_53091)"/>
<circle cx="118.75" cy="7" r="5.25" fill="white" stroke="#0876E4" stroke-width="3"/>
<defs>
<linearGradient id="paint0_linear_2623_53091" x1="226" y1="1.85" x2="237.059" y2="11.8361" gradientUnits="userSpaceOnUse">
<stop stop-color="#E9EDF4"/>
<stop offset="1" stop-color="#E8EDF7"/>
</linearGradient>
<linearGradient id="paint1_linear_2623_53091" x1="121" y1="7.00952" x2="121.021" y2="9.12686" gradientUnits="userSpaceOnUse">
<stop stop-color="#E9EDF4"/>
<stop offset="1" stop-color="#E8EDF7"/>
</linearGradient>
</defs>
</svg>
