<svg width="33" height="32" viewBox="0 0 33 32" fill="none" xmlns="http://www.w3.org/2000/svg">
<g clip-path="url(#clip0_2643_31503)">
<g filter="url(#filter0_i_2643_31503)">
<path d="M19.2521 6C21.4754 6.00036 23.6599 6.58209 25.589 7.68745C27.518 8.79281 29.1245 10.3834 30.249 12.3013C31.3735 14.2193 31.9769 16.3979 31.9993 18.6211C32.0218 20.8443 31.4626 23.0347 30.3771 24.975L31.4771 28.8125C31.5669 29.1128 31.5738 29.4319 31.497 29.7358C31.4203 30.0398 31.2627 30.3173 31.041 30.539C30.8194 30.7606 30.5419 30.9182 30.2379 30.995C29.934 31.0717 29.6149 31.0648 29.3146 30.975L25.4771 29.875C23.7767 30.827 21.8807 31.3766 19.9348 31.4815C17.9889 31.5864 16.0448 31.2439 14.2519 30.4802C12.4591 29.7166 10.8651 28.5521 9.59248 27.0762C8.31987 25.6004 7.4025 23.8525 6.91084 21.9668C6.41917 20.0811 6.3663 18.1078 6.75628 16.1985C7.14627 14.2891 7.96873 12.4946 9.16048 10.9528C10.3522 9.41089 11.8816 8.16273 13.631 7.30415C15.3804 6.44558 17.3033 5.99943 19.2521 6Z" fill="#4C75BA" fill-opacity="0.2"/>
</g>
<path d="M19.252 6.25H19.252C17.3415 6.24944 15.4562 6.68684 13.7411 7.52858C12.026 8.37032 10.5267 9.59401 9.35828 11.1056C8.1899 12.6173 7.38356 14.3766 7.00123 16.2485C6.61889 18.1204 6.67072 20.055 7.15275 21.9037C7.63477 23.7525 8.53416 25.4661 9.78181 26.913C11.0295 28.3599 12.5922 29.5015 14.3499 30.2502C16.1076 30.9989 18.0136 31.3347 19.9213 31.2319C21.8291 31.129 23.6879 30.5902 25.3549 29.6569L25.4458 29.606L25.546 29.6347L29.3835 30.7347L29.3835 30.7347L29.3862 30.7355C29.6433 30.8124 29.9165 30.8183 30.1767 30.7526C30.4369 30.6868 30.6745 30.5519 30.8643 30.3622C31.054 30.1724 31.1889 29.9348 31.2546 29.6746C31.3204 29.4144 31.3145 29.1413 31.2376 28.8841L31.2375 28.8841L31.2368 28.8814L30.1368 25.0439L30.1081 24.9438L30.1589 24.8529C31.2231 22.9507 31.7714 20.8032 31.7494 18.6236C31.7273 16.4441 31.1357 14.3081 30.0333 12.4278C28.9309 10.5474 27.3559 8.98805 25.4647 7.90436C23.5735 6.82067 21.4317 6.25036 19.252 6.25Z" stroke="url(#paint0_linear_2643_31503)" stroke-width="0.5"/>
<path d="M13.748 0.250001H13.748C15.6585 0.249444 17.5438 0.686839 19.2589 1.52858C20.974 2.37032 22.4733 3.59401 23.6417 5.10564C24.8101 6.61727 25.6164 8.37661 25.9988 10.2485C26.3811 12.1204 26.3293 14.055 25.8473 15.9037C25.3652 17.7525 24.4658 19.4661 23.2182 20.913C21.9705 22.3599 20.4078 23.5015 18.6501 24.2502C16.8924 24.9989 14.9864 25.3347 13.0787 25.2319C11.1709 25.129 9.31209 24.5902 7.64505 23.6569L7.55417 23.606L7.45403 23.6347L3.61653 24.7347L3.61653 24.7347L3.61379 24.7355C3.35666 24.8124 3.08352 24.8183 2.82331 24.7526C2.5631 24.6868 2.32552 24.5519 2.13575 24.3622C1.94597 24.1724 1.81108 23.9348 1.74536 23.6746C1.67964 23.4144 1.68554 23.1413 1.76244 22.8841L1.76246 22.8841L1.76324 22.8814L2.86324 19.0439L2.89193 18.9438L2.8411 18.8529C1.77689 16.9507 1.22861 14.8032 1.25064 12.6236C1.27267 10.4441 1.86426 8.30812 2.9667 6.42778C4.06915 4.54743 5.64412 2.98805 7.53533 1.90436C9.42655 0.820673 11.5683 0.250356 13.748 0.250001Z" stroke="#0876E4" stroke-width="0.5"/>
<rect x="9" y="12" width="2" height="2" rx="1" fill="#0876E4"/>
<rect x="13" y="12" width="2" height="2" rx="1" fill="#0876E4"/>
<rect x="17" y="12" width="2" height="2" rx="1" fill="#0876E4"/>
</g>
<defs>
<filter id="filter0_i_2643_31503" x="4.49854" y="4" width="27.5015" height="27.5" filterUnits="userSpaceOnUse" color-interpolation-filters="sRGB">
<feFlood flood-opacity="0" result="BackgroundImageFix"/>
<feBlend mode="normal" in="SourceGraphic" in2="BackgroundImageFix" result="shape"/>
<feColorMatrix in="SourceAlpha" type="matrix" values="0 0 0 0 0 0 0 0 0 0 0 0 0 0 0 0 0 0 127 0" result="hardAlpha"/>
<feOffset dx="-2" dy="-2"/>
<feGaussianBlur stdDeviation="3"/>
<feComposite in2="hardAlpha" operator="arithmetic" k2="-1" k3="1"/>
<feColorMatrix type="matrix" values="0 0 0 0 0.983333 0 0 0 0 0.989394 0 0 0 0 1 0 0 0 0.8 0"/>
<feBlend mode="normal" in2="shape" result="effect1_innerShadow_2643_31503"/>
</filter>
<linearGradient id="paint0_linear_2643_31503" x1="32" y1="6.24286" x2="5.14113" y2="30.4966" gradientUnits="userSpaceOnUse">
<stop stop-color="#E9EDF4"/>
<stop offset="1" stop-color="#E8EDF7"/>
</linearGradient>
<clipPath id="clip0_2643_31503">
<rect width="32" height="32" fill="white" transform="translate(0.5)"/>
</clipPath>
</defs>
</svg>
