<svg width="209" height="209" viewBox="0 0 209 209" fill="none" xmlns="http://www.w3.org/2000/svg">
<path d="M186.949 125.503C196.531 143.854 193.536 156.768 181.169 169.134C168.803 181.501 142.276 180.645 129.909 168.278L141.281 168.045C141.281 168.045 110.951 151.576 92.4761 158.471C92.4761 158.471 102.996 147.511 112.206 150.513C108.217 148.995 90.3929 141.822 84.7091 132.775L98.2969 139.736C79.1159 112.204 70.4962 95.3456 34.0052 81.0688C34.0052 81.0688 51.6222 82.7758 63.1212 88.7452L20.8575 45.1379C20.8575 45.1379 48.5742 52.2766 87.5504 69.6252C87.5504 69.6252 80.1442 61.5034 76.8519 52.2629C90.6094 67.494 129.411 93.5878 138.779 96.4983L125.085 84.3685C135.552 84.1538 144.876 91.2021 155.489 104.429L146.816 84.9569C153.273 97.2351 175.343 114.364 175.343 114.364L173.127 107.17C179.457 113.246 182.798 117.555 186.949 125.503Z" fill="url(#paint0_linear_2476_8500)"/>
<path d="M174.428 122.664C182.666 134.892 181.57 144.269 173.799 154.003C166.028 163.736 147.186 165.235 137.453 157.464L145.483 156.397C145.483 156.397 122.71 147.147 110.182 153.493C110.182 153.493 116.757 144.901 123.514 146.295C120.57 145.538 107.387 141.875 102.646 135.923L112.815 139.772C97.0555 121.809 89.6174 110.561 62.6586 103.352C62.6586 103.352 75.2622 103.162 83.8741 106.475L50.5026 78.9657C50.5026 78.9657 70.6851 81.8189 99.6465 91.0046C99.6465 91.0046 93.7605 85.8441 90.6972 79.5655C101.642 89.2536 131.174 104.642 138.035 105.959L127.381 98.4609C134.772 97.4784 141.93 101.727 150.491 110.246L142.807 97.1531C148.352 105.33 165.331 115.702 165.331 115.702L163.191 110.786C168.153 114.584 170.86 117.369 174.428 122.664Z" fill="url(#paint1_linear_2476_8500)"/>
<path d="M156.288 123.657C157.824 122.745 159.736 122.745 161.273 123.657L173.39 130.852C174.871 131.732 175.779 133.327 175.779 135.05V149.738C175.779 151.461 174.871 153.056 173.39 153.936L161.273 161.131C159.736 162.043 157.824 162.043 156.288 161.131L144.171 153.936C142.689 153.056 141.781 151.461 141.781 149.738V135.05C141.781 133.327 142.689 131.732 144.171 130.852L156.288 123.657Z" stroke="#0876E4" stroke-width="2.44103"/>
<path fill-rule="evenodd" clip-rule="evenodd" d="M159.064 132.753C155.687 132.753 152.949 135.381 152.949 138.624C152.949 139.183 153.421 139.636 154.003 139.636C154.586 139.636 155.058 139.183 155.058 138.624C155.058 136.499 156.851 134.777 159.064 134.777C161.277 134.777 163.071 136.499 163.071 138.624V140.446H153.581C152.533 140.446 151.684 141.261 151.684 142.268V147.531C151.684 149.208 153.1 150.568 154.847 150.568H163.282C165.029 150.568 166.445 149.208 166.445 147.531V142.268C166.445 141.474 165.917 140.799 165.18 140.549V138.624C165.18 135.381 162.442 132.753 159.064 132.753ZM164.118 142.47C164.12 142.47 164.123 142.47 164.125 142.47C164.128 142.47 164.13 142.47 164.133 142.47H164.336V147.531C164.336 148.09 163.864 148.543 163.282 148.543H154.847C154.264 148.543 153.792 148.09 153.792 147.531V142.47H164.118ZM159.064 144.697C158.598 144.697 158.221 145.059 158.221 145.507C158.221 145.954 158.598 146.316 159.064 146.316C159.53 146.316 159.908 145.954 159.908 145.507C159.908 145.059 159.53 144.697 159.064 144.697ZM157.377 145.507C157.377 144.612 158.133 143.887 159.064 143.887C159.996 143.887 160.751 144.612 160.751 145.507C160.751 146.401 159.996 147.126 159.064 147.126C158.133 147.126 157.377 146.401 157.377 145.507Z" fill="#0876E4"/>
<path d="M106.696 52.5028L105.077 51.2249L105.552 47.0013L104.608 46.958L102.713 49.3588L101.287 48.2333L106.595 41.5094L108.021 42.6349L105.592 45.7117L106.777 45.3636L110.403 44.5155L111.985 45.7644L107.291 46.8885L106.696 52.5028ZM114.437 50.1108C114.627 50.2608 114.774 50.3993 114.878 50.5261L113.734 51.7579C113.644 51.6377 113.518 51.5135 113.356 51.3852C112.908 51.0318 112.468 50.8709 112.035 50.9024C111.605 50.9363 111.227 51.1602 110.9 51.5741L108.834 54.191L107.432 53.0837L111.491 47.9419L112.553 48.7806L112.077 49.8086L112.146 49.863C112.533 49.7007 112.931 49.6386 113.338 49.6768C113.752 49.7144 114.118 49.8591 114.437 50.1108ZM114.863 54.7622C114.461 55.2712 114.24 55.7213 114.2 56.1126C114.163 56.5064 114.333 56.8521 114.71 57.1498C115.084 57.4451 115.454 57.5281 115.82 57.3988C116.191 57.2689 116.579 56.9479 116.983 56.4359C117.385 55.9269 117.604 55.4798 117.639 55.0947C117.674 54.7095 117.503 54.368 117.126 54.0703C116.752 53.775 116.382 53.6893 116.015 53.8131C115.651 53.9338 115.267 54.2502 114.863 54.7622ZM118.418 57.5686C117.757 58.4056 117.02 58.886 116.206 59.0096C115.391 59.1332 114.59 58.8841 113.802 58.262C113.309 57.8723 112.958 57.4213 112.75 56.909C112.545 56.3936 112.501 55.8537 112.618 55.2892C112.735 54.7248 113.007 54.1727 113.433 53.6331C114.096 52.793 114.831 52.313 115.637 52.1931C116.443 52.0731 117.244 52.3266 118.038 52.9535C118.531 53.3431 118.882 53.7941 119.09 54.3065C119.297 54.8188 119.344 55.3557 119.229 55.9171C119.114 56.4785 118.844 57.029 118.418 57.5686ZM122.287 64.8103L120.884 63.703L123.255 60.6998C123.84 59.9578 123.857 59.369 123.305 58.9333C122.913 58.6235 122.524 58.533 122.139 58.6618C121.753 58.7905 121.325 59.1539 120.853 59.7518L118.943 62.1709L117.54 61.0636L123.189 53.9074L124.592 55.0147L123.441 56.4726C123.352 56.5861 123.13 56.8443 122.777 57.2474L122.418 57.6359L122.492 57.694C123.202 57.4381 123.897 57.5788 124.578 58.1161C125.182 58.5929 125.512 59.1172 125.568 59.6891C125.624 60.261 125.413 60.8505 124.933 61.4575L122.287 64.8103ZM126.996 68.5279L127.277 67.6147L127.24 67.5856C126.769 67.6967 126.362 67.7112 126.018 67.6292C125.681 67.5466 125.311 67.3468 124.909 67.0297C124.415 66.6401 124.137 66.1916 124.075 65.6845C124.016 65.1797 124.192 64.6667 124.603 64.1455C125.034 63.5997 125.541 63.3482 126.124 63.3907C126.713 63.4327 127.404 63.7436 128.195 64.3235L129.109 65.0002L129.287 64.7749C129.698 64.2536 129.637 63.7824 129.104 63.3613C128.693 63.037 128.112 62.78 127.361 62.5902L127.644 61.2761C128.481 61.4336 129.259 61.7967 129.98 62.3655C130.669 62.9101 131.08 63.4778 131.21 64.0687C131.341 64.6596 131.165 65.2617 130.68 65.8749L127.976 69.3012L126.996 68.5279ZM128.463 65.8189L127.906 65.4089C127.488 65.0992 127.126 64.9332 126.821 64.9108C126.515 64.8883 126.253 65.0151 126.035 65.2911C125.723 65.6866 125.794 66.0634 126.248 66.4217C126.573 66.6782 126.905 66.7892 127.246 66.7547C127.59 66.7225 127.884 66.5516 128.129 66.242L128.463 65.8189ZM136.098 75.7127L136.874 73.7274L134.422 71.7923L132.671 73.008L131.135 71.7954L138.838 66.9173L140.581 68.2933L137.634 76.9253L136.098 75.7127ZM137.477 72.263C138.171 70.457 138.564 69.4359 138.656 69.1998C138.751 68.9662 138.83 68.7845 138.892 68.6547C138.481 68.9673 137.426 69.709 135.725 70.8798L137.477 72.263ZM139.93 78.887C139.326 78.4102 139.036 77.8005 139.059 77.0579C139.086 76.3177 139.428 75.5322 140.084 74.7013C140.749 73.8581 141.442 73.3399 142.162 73.1468C142.887 72.9529 143.558 73.0992 144.174 73.5857C144.821 74.0964 145.116 74.7375 145.06 75.509L145.106 75.5453C145.338 75.1064 145.572 74.7367 145.81 74.4362L147.109 72.7898L148.517 73.9007L142.868 81.0569L141.791 80.2073L142.046 79.3263L141.987 79.2791C141.268 79.5332 140.583 79.4026 139.93 78.887ZM141.304 78.1579C141.663 78.4411 142.007 78.5438 142.337 78.466C142.671 78.3906 143.042 78.1091 143.452 77.6214L143.572 77.4697C144.007 76.9178 144.234 76.4545 144.251 76.0798C144.271 75.7075 144.089 75.3701 143.706 75.0676C143.393 74.8207 143.044 74.7617 142.659 74.8904C142.279 75.0186 141.89 75.3356 141.49 75.8415C141.091 76.3474 140.878 76.7966 140.852 77.189C140.828 77.5784 140.979 77.9014 141.304 78.1579ZM145.558 83.1807L147.658 76.4923L149.125 77.6505L147.806 81.3643C147.623 81.8224 147.415 82.2279 147.181 82.5809L147.209 82.6026C147.456 82.3204 147.803 82.0238 148.247 81.7128L151.549 79.5638L153.016 80.7219L146.998 84.3171L145.558 83.1807ZM152.963 89.0259L153.243 88.1126L153.206 88.0836C152.735 88.1946 152.328 88.2091 151.985 88.1272C151.647 88.0446 151.277 87.8447 150.876 87.5277C150.382 87.138 150.104 86.6896 150.041 86.1824C149.982 85.6777 150.158 85.1647 150.569 84.6434C151 84.0977 151.507 83.8461 152.091 83.8887C152.68 83.9306 153.37 84.2415 154.161 84.8214L155.075 85.4982L155.253 85.2728C155.665 84.7516 155.604 84.2804 155.07 83.8592C154.659 83.5349 154.079 83.2779 153.328 83.0882L153.611 81.7741C154.447 81.9315 155.225 82.2946 155.946 82.8634C156.636 83.408 157.046 83.9757 157.177 84.5667C157.308 85.1576 157.131 85.7596 156.647 86.3729L153.942 89.7992L152.963 89.0259ZM154.429 86.3168L153.872 85.9068C153.455 85.5971 153.093 85.4311 152.787 85.4087C152.481 85.3863 152.22 85.513 152.002 85.789C151.689 86.1845 151.76 86.5614 152.214 86.9196C152.539 87.1762 152.872 87.2872 153.213 87.2526C153.557 87.2205 153.851 87.0496 154.095 86.7399L154.429 86.3168ZM160.137 94.6895L158.734 93.5822L161.105 90.579C161.398 90.208 161.551 89.8785 161.564 89.5904C161.58 89.2993 161.444 89.04 161.156 88.8125C160.763 88.5027 160.376 88.4107 159.993 88.5364C159.612 88.659 159.182 89.0239 158.703 89.631L156.794 92.0501L155.391 90.9428L159.45 85.801L160.521 86.6469L160.191 87.4534L160.269 87.5152C160.621 87.3902 160.984 87.3726 161.356 87.4623C161.733 87.5514 162.097 87.7339 162.446 88.0098C163.044 88.4818 163.37 89.0025 163.423 89.5719C163.478 90.1383 163.265 90.7266 162.784 91.3368L160.137 94.6895ZM163.597 97.5697C161.996 96.3063 161.889 94.7961 163.276 93.0393C163.966 92.1655 164.71 91.6705 165.508 91.5542C166.309 91.4349 167.116 91.696 167.929 92.3374C168.523 92.8069 168.965 93.3446 169.253 93.9503L167.982 94.709C167.832 94.4458 167.683 94.2116 167.537 94.0063C167.393 93.798 167.226 93.6188 167.035 93.4688C166.306 92.8927 165.532 93.1229 164.714 94.1592C163.92 95.1649 163.888 95.9557 164.617 96.5318C164.887 96.7447 165.165 96.9067 165.451 97.0178C165.739 97.1257 166.058 97.1938 166.409 97.222L165.462 98.4224C165.121 98.3874 164.812 98.3055 164.536 98.1767C164.262 98.0504 163.949 97.848 163.597 97.5697ZM171.905 97.0966C171.608 96.8618 171.3 96.7729 170.981 96.8299C170.665 96.8838 170.358 97.0743 170.06 97.4014L172.028 98.9553C172.296 98.604 172.416 98.2659 172.389 97.9409C172.364 97.6128 172.203 97.3314 171.905 97.0966ZM168.683 101.585C167.855 100.932 167.389 100.192 167.283 99.3677C167.178 98.543 167.456 97.7121 168.116 96.8751C168.796 96.0135 169.536 95.5176 170.336 95.3873C171.141 95.2564 171.924 95.4911 172.684 96.0914C173.411 96.665 173.813 97.3185 173.891 98.0519C173.969 98.7853 173.72 99.5169 173.144 100.247L172.607 100.927L169.291 98.3096C168.991 98.7203 168.864 99.1247 168.908 99.5228C168.952 99.9209 169.173 100.277 169.572 100.592C169.881 100.836 170.2 101.035 170.526 101.189C170.853 101.342 171.222 101.467 171.634 101.563L170.777 102.649C170.435 102.578 170.102 102.461 169.777 102.299C169.449 102.14 169.085 101.902 168.683 101.585ZM173.549 105.426C172.945 104.949 172.655 104.34 172.679 103.597C172.706 102.857 173.047 102.071 173.703 101.24C174.369 100.397 175.061 99.8791 175.781 99.6859C176.506 99.492 177.177 99.6384 177.794 100.125C178.441 100.636 178.736 101.277 178.679 102.048L178.725 102.084C178.957 101.646 179.192 101.276 179.429 100.975L180.729 99.3289L182.136 100.44L176.487 107.596L175.411 106.746L175.666 105.865L175.606 105.818C174.888 106.072 174.202 105.942 173.549 105.426ZM174.923 104.697C175.282 104.98 175.626 105.083 175.957 105.005C176.29 104.93 176.661 104.648 177.071 104.161L177.191 104.009C177.627 103.457 177.853 102.994 177.87 102.619C177.89 102.247 177.709 101.909 177.326 101.607C177.013 101.36 176.664 101.301 176.278 101.43C175.899 101.558 175.509 101.875 175.11 102.381C174.71 102.887 174.497 103.336 174.471 103.728C174.448 104.118 174.598 104.44 174.923 104.697Z" fill="#FB668A"/>
<defs>
<linearGradient id="paint0_linear_2476_8500" x1="23.5" y1="47" x2="161" y2="145.5" gradientUnits="userSpaceOnUse">
<stop stop-color="#C90000"/>
<stop offset="0.21875" stop-color="#D74D00"/>
<stop offset="0.489583" stop-color="#DB8300"/>
<stop offset="0.723958" stop-color="#EDBE19"/>
<stop offset="1" stop-color="#FFF500"/>
</linearGradient>
<linearGradient id="paint1_linear_2476_8500" x1="52.5206" y1="80.0739" x2="157.65" y2="138.876" gradientUnits="userSpaceOnUse">
<stop stop-color="#C90000"/>
<stop offset="0.21875" stop-color="#D74D00"/>
<stop offset="0.489583" stop-color="#DB8300"/>
<stop offset="0.723958" stop-color="#EDBE19"/>
<stop offset="1" stop-color="#FFF500"/>
</linearGradient>
</defs>
</svg>
