<svg width="32" height="33" viewBox="0 0 32 33" fill="none" xmlns="http://www.w3.org/2000/svg">
<rect y="0.161133" width="32" height="32" rx="16" fill="#FF0000"/>
<path d="M10.5541 10.4407C12.888 10.3245 14.7032 10.2664 16 10.2664C17.2968 10.2664 19.1128 10.3245 21.448 10.4411C22.0591 10.4716 22.6383 10.7228 23.0781 11.1481C23.518 11.5734 23.7885 12.1438 23.8396 12.7535C23.9465 14.031 24 15.156 24 16.1291C24 17.1139 23.9453 18.2546 23.8358 19.5514C23.785 20.1541 23.5196 20.7186 23.0879 21.1422C22.6562 21.5658 22.0869 21.8205 21.4834 21.86C19.4872 21.9906 17.6594 22.0558 16 22.0558C14.3411 22.0558 12.5137 21.9906 10.5187 21.86C9.9154 21.8206 9.34622 21.5661 8.91457 21.1427C8.48292 20.7193 8.21743 20.1551 8.16632 19.5527C8.05558 18.2461 8 17.1047 8 16.1291C8 15.1649 8.05432 14.0394 8.16211 12.7523C8.21334 12.1427 8.48399 11.5725 8.92381 11.1474C9.36363 10.7222 9.94276 10.4711 10.5537 10.4407H10.5541Z" fill="white"/>
<path d="M14.7377 14.313V18.0166C14.7376 18.0818 14.7553 18.1458 14.7887 18.2018C14.8222 18.2578 14.8702 18.3037 14.9277 18.3346C14.9851 18.3655 15.0498 18.3802 15.115 18.3772C15.1802 18.3742 15.2433 18.3537 15.2977 18.3177L18.0754 16.4819C18.125 16.4491 18.1658 16.4047 18.1941 16.3524C18.2224 16.3001 18.2373 16.2416 18.2376 16.1821C18.2378 16.1227 18.2234 16.0641 18.1955 16.0115C18.1677 15.959 18.1272 15.9142 18.0779 15.881L15.2998 14.0132C15.2455 13.9768 15.1823 13.9557 15.117 13.9524C15.0516 13.949 14.9866 13.9635 14.9289 13.9943C14.8712 14.025 14.8229 14.0709 14.7892 14.1269C14.7555 14.183 14.7377 14.2472 14.7377 14.3126V14.313Z" fill="#FF0000"/>
</svg>
