<svg width="103" height="24" viewBox="0 0 103 24" fill="none" xmlns="http://www.w3.org/2000/svg">
<path d="M36.4123 17.8051H32.3123L31.3084 20.548H29.5055L33.5213 10.3043H35.2291L39.336 20.548H37.4373L36.4123 17.8051ZM32.8268 16.4122H35.8877L34.7918 13.4783C34.6416 13.0735 34.4933 12.6258 34.3467 12.1353C34.2142 12.5692 34.0705 13.0122 33.9157 13.4642L32.8268 16.4122Z" fill="#231815"/>
<path d="M40.146 14.7861C40.146 14.2202 40.127 13.5982 40.0891 12.9201H41.7259C41.788 13.2399 41.8309 13.5632 41.8545 13.8882C42.5337 13.1487 43.3113 12.779 44.1874 12.779C44.6848 12.7756 45.1735 12.9085 45.6006 13.1633C46.0345 13.4231 46.385 13.8284 46.6521 14.3792C46.9192 14.93 47.0522 15.6336 47.0512 16.49C47.0512 17.3807 46.8989 18.1419 46.5944 18.7738C46.3231 19.3691 45.8787 19.8689 45.3192 20.208C44.7438 20.5408 44.0882 20.7096 43.4236 20.696C42.9015 20.6951 42.3833 20.6068 41.8904 20.4348V23.5878L40.1444 23.7366L40.146 14.7861ZM44.737 18.6834C45.0929 18.2048 45.2706 17.5062 45.2701 16.5874C45.2701 15.7347 45.1231 15.1161 44.8289 14.7315C44.6941 14.5473 44.5166 14.3987 44.3115 14.2983C44.1065 14.198 43.8801 14.149 43.652 14.1555C43.323 14.1533 42.9991 14.2366 42.7119 14.3972C42.4083 14.57 42.1319 14.787 41.8919 15.041V19.1269C42.0854 19.2185 42.2893 19.2861 42.4991 19.328C42.7245 19.377 42.9544 19.4019 43.1851 19.4021C43.8637 19.4021 44.381 19.163 44.737 18.685" fill="#231815"/>
<path d="M48.1682 14.7861C48.1682 14.2202 48.1492 13.5982 48.1113 12.9201H49.7481C49.8119 13.2398 49.857 13.5631 49.883 13.8881C50.5585 13.1487 51.3354 12.779 52.2136 12.779C52.71 12.7763 53.1978 12.9092 53.6244 13.1632C54.0588 13.4231 54.4093 13.8284 54.6759 14.3792C54.9424 14.93 55.0755 15.6336 55.075 16.49C55.075 17.3806 54.9227 18.1419 54.6182 18.7738C54.3466 19.3689 53.9023 19.8687 53.343 20.208C52.7675 20.5407 52.1119 20.7095 51.4474 20.6959C50.9253 20.6951 50.4071 20.6068 49.9142 20.4348V23.5877L48.1682 23.7366V14.7861ZM52.7592 18.6834C53.1157 18.2048 53.2934 17.5061 53.2923 16.5874C53.2923 15.7347 53.1453 15.116 52.8512 14.7315C52.7163 14.5474 52.5387 14.3987 52.3337 14.2984C52.1287 14.198 51.9023 14.149 51.6742 14.1555C51.3473 14.1544 51.0257 14.2376 50.7404 14.3971C50.4367 14.57 50.1604 14.787 49.9204 15.041V19.1269C50.1138 19.2185 50.3177 19.286 50.5276 19.328C50.7529 19.377 50.9829 19.4018 51.2135 19.402C51.8927 19.402 52.41 19.163 52.7654 18.6849" fill="#231815"/>
<path d="M58.3712 20.0639C57.6244 19.6547 57.0181 19.0299 56.6315 18.2712C56.2262 17.4917 56.0235 16.5727 56.0235 15.5142C56.0235 14.3653 56.2573 13.3886 56.725 12.5842C57.1661 11.805 57.8297 11.1751 58.6308 10.7751C59.4336 10.3713 60.3349 10.1697 61.3347 10.1702C61.9022 10.1677 62.4679 10.2329 63.0199 10.3643C63.5367 10.4874 64.0385 10.6664 64.5165 10.8983L64.0691 12.2444C63.1405 11.8016 62.2545 11.5803 61.4111 11.5803C60.6992 11.5803 60.0756 11.732 59.5404 12.0355C58.9996 12.3468 58.5651 12.8137 58.2933 13.3754C57.9966 13.9646 57.8479 14.6765 57.8474 15.5111C57.8354 16.1749 57.9521 16.8348 58.1912 17.4543C58.4062 18.0002 58.7836 18.4671 59.2723 18.7918C59.7649 19.1213 60.3856 19.286 61.1344 19.286C61.4756 19.286 61.8161 19.2576 62.1525 19.2011C62.4778 19.1486 62.7974 19.0659 63.1072 18.954V16.8861H60.74V15.529H64.8033V19.841C64.2141 20.1163 63.5968 20.3272 62.9622 20.47C62.3328 20.6147 61.6891 20.6882 61.0432 20.689C60.0159 20.689 59.1252 20.4812 58.3712 20.0655" fill="#231815"/>
<path d="M71.0959 20.548C71.0304 20.2138 70.9903 19.875 70.9759 19.5347C70.6836 19.8738 70.3267 20.1512 69.926 20.3508C69.4738 20.5795 68.9727 20.6948 68.466 20.6868C68.0514 20.6922 67.6408 20.604 67.2649 20.4288C66.908 20.2599 66.6095 19.9885 66.4075 19.6493C66.1955 19.3037 66.0895 18.881 66.0895 18.3811C66.0895 17.6406 66.3555 17.0503 66.8876 16.6102C67.4198 16.1701 68.3083 15.9497 69.5534 15.9492C70.0168 15.949 70.4797 15.9818 70.9385 16.0474V15.8993C70.9385 15.2238 70.7948 14.7491 70.5075 14.4753C70.2201 14.2014 69.8078 14.0634 69.2705 14.0614C68.8671 14.0652 68.4659 14.12 68.0763 14.2243C67.6924 14.3183 67.3184 14.4488 66.9594 14.614L66.6834 13.3411C67.0799 13.1719 67.4918 13.0414 67.9134 12.9514C68.4424 12.8327 68.9832 12.7746 69.5253 12.7784C70.1848 12.7784 70.7455 12.8787 71.2074 13.0792C71.6783 13.2877 72.0615 13.6541 72.2909 14.1151C72.5507 14.6026 72.6806 15.2589 72.6806 16.0841V19.1162C72.6806 19.4326 72.6993 19.9112 72.7367 20.5519L71.0959 20.548ZM70.0499 19.1341C70.387 18.9789 70.6897 18.7579 70.9401 18.484V17.0701C70.552 17.0235 70.1617 16.9975 69.7709 16.9921C69.0501 16.9921 68.5515 17.1088 68.2751 17.3421C68.1392 17.4577 68.0315 17.6026 67.96 17.7661C67.8886 17.9295 67.8553 18.107 67.8627 18.2852C67.8627 18.6625 67.9628 18.9421 68.1628 19.1239C68.3629 19.3058 68.6352 19.3965 68.9797 19.396C69.3509 19.3906 69.716 19.3011 70.0476 19.1341" fill="#231815"/>
<path d="M74.2067 18.7139V9.70412L75.9457 9.56226V18.4021C75.9457 18.7279 76.001 18.9579 76.1117 19.0919C76.2224 19.226 76.398 19.2933 76.6386 19.2938C76.7945 19.286 76.9488 19.2598 77.0985 19.2159L77.3035 20.4677C77.1078 20.5403 76.9051 20.5925 76.6987 20.6236C76.4757 20.6619 76.2499 20.6817 76.0236 20.6828C74.8129 20.6828 74.2072 20.0255 74.2067 18.7108" fill="#231815"/>
<path d="M78.5554 18.7139V9.70412L80.2936 9.56226V18.4021C80.2936 18.7279 80.3492 18.9579 80.4604 19.0919C80.5716 19.226 80.7469 19.2933 80.9865 19.2938C81.1423 19.286 81.2967 19.2598 81.4464 19.2159L81.6514 20.4677C81.4554 20.5404 81.2524 20.5926 81.0457 20.6236C80.823 20.6619 80.5975 20.6817 80.3715 20.6828C79.1607 20.6828 78.5554 20.0255 78.5554 18.7108" fill="#231815"/>
<path d="M88.8902 16.9569H83.9016C83.9816 18.5543 84.7427 19.3532 86.1847 19.3538C86.5551 19.3525 86.9242 19.3083 87.2845 19.222C87.6532 19.1365 88.0138 19.0194 88.3625 18.872L88.7444 20.067C87.8906 20.4827 86.9316 20.6905 85.8674 20.6905C85.0557 20.6905 84.3722 20.5375 83.8167 20.2314C83.269 19.9332 82.8297 19.4694 82.5617 18.9063C82.2822 18.3316 82.1421 17.6387 82.1416 16.8275C82.1416 15.9841 82.29 15.2582 82.5867 14.6497C82.8543 14.0744 83.2849 13.5903 83.8252 13.2576C84.3802 12.9305 85.0152 12.764 85.6593 12.7767C86.3811 12.7767 86.9836 12.9453 87.4669 13.2825C87.9495 13.6177 88.3238 14.0863 88.5441 14.631C88.7834 15.2212 88.9023 15.8532 88.8941 16.49L88.8902 16.9569ZM87.187 15.847C87.1543 15.239 87.001 14.783 86.7272 14.479C86.4543 14.175 86.088 14.023 85.6312 14.023C85.425 14.0175 85.2198 14.0555 85.0293 14.1346C84.8387 14.2138 84.6669 14.3322 84.5252 14.4821C84.2305 14.7887 84.0386 15.2437 83.9492 15.847H87.187Z" fill="#231815"/>
<path d="M90.2979 14.8361C90.2979 14.4163 90.2789 13.7774 90.241 12.9194H91.8778C91.9067 13.1322 91.9332 13.3871 91.9558 13.6802C91.9784 13.9733 91.9986 14.2133 92.008 14.3973C92.1839 14.1003 92.3836 13.818 92.6051 13.5531C92.7977 13.3262 93.0305 13.1368 93.2918 12.9943C93.5663 12.8475 93.8738 12.7735 94.185 12.7791C94.4188 12.7747 94.6521 12.803 94.878 12.8633L94.6597 14.3762C94.4758 14.3222 94.2848 14.296 94.093 14.2983C93.7115 14.2892 93.3364 14.3981 93.019 14.6101C92.7124 14.8179 92.3847 15.1632 92.0361 15.646V20.5449H90.2979V14.8361Z" fill="#231815"/>
<path d="M95.9256 23.6689C95.7124 23.6342 95.5021 23.5834 95.2966 23.5169L95.6138 22.2448C95.7323 22.2776 95.8809 22.3093 96.0597 22.3399C96.2277 22.3699 96.398 22.3853 96.5686 22.3859C97.3419 22.3859 97.9215 21.8886 98.3076 20.894L98.4206 20.6111L95.6076 12.9202H97.4783L98.893 17.2181C99.0765 17.7715 99.2249 18.3359 99.3373 18.908C99.4698 18.3561 99.6257 17.8045 99.805 17.2532L101.239 12.9202H103L100.194 20.6462C99.9305 21.3773 99.6446 21.9668 99.3365 22.4148C99.0636 22.8319 98.691 23.1743 98.2523 23.4109C97.8366 23.6276 97.3333 23.7359 96.7425 23.7359C96.4677 23.7372 96.1934 23.7148 95.9225 23.6689" fill="#231815"/>
<path d="M29.497 0.340454H32.646L32.5579 1.10121H30.4207V2.57361H32.4356V3.28681H30.4207V4.91822H32.6725L32.5938 5.68521H29.497V0.340454Z" fill="#231815"/>
<path d="M34.8168 2.95788L33.155 0.340454H34.2041L35.3296 2.26416L36.5152 0.340454H37.534L35.8877 2.92436L37.6696 5.68599H36.6072L35.3335 3.58223L34.0381 5.68599H33.0186L34.8168 2.95788Z" fill="#231815"/>
<path d="M38.3469 0.340454H39.7866C40.4621 0.340454 40.9799 0.478418 41.34 0.754347C41.7002 1.03028 41.88 1.42884 41.8794 1.95004C41.8871 2.27596 41.8034 2.59753 41.6378 2.87837C41.4771 3.14254 41.2432 3.35431 40.9643 3.48791C40.6538 3.63399 40.3137 3.70654 39.9705 3.69992C39.7349 3.69659 39.5001 3.6718 39.269 3.62588V5.68521H38.3469V0.340454ZM40.6611 2.72716C40.8583 2.54866 40.9558 2.2969 40.9558 1.97186C40.9558 1.64683 40.856 1.4052 40.6557 1.25866C40.4554 1.11212 40.1599 1.04197 39.7718 1.04197H39.2698V2.93917C39.4454 2.97049 39.6231 2.98898 39.8014 2.99451C40.1776 2.99451 40.4634 2.9054 40.6588 2.72716" fill="#231815"/>
<path d="M42.7945 0.340454H43.7166V4.89561H45.9279L45.8508 5.68521H42.7945V0.340454Z" fill="#231815"/>
<path d="M47.331 5.4241C46.9449 5.20547 46.6326 4.87688 46.4338 4.48017C46.2188 4.04123 46.1119 3.55724 46.122 3.06857C46.1098 2.55535 46.2233 2.04693 46.4525 1.5876C46.6649 1.17353 46.9968 0.832746 47.405 0.609379C47.8566 0.370462 48.362 0.251562 48.8728 0.264079C49.4116 0.264079 49.8754 0.375541 50.2641 0.598466C50.6477 0.814143 50.9578 1.13998 51.1542 1.53382C51.3656 1.97074 51.4704 2.45158 51.4598 2.93684C51.4749 3.45674 51.3616 3.97235 51.1301 4.43808C50.9172 4.85182 50.5855 5.19247 50.1776 5.4163C49.731 5.65353 49.231 5.7719 48.7254 5.76005C48.2399 5.77261 47.7597 5.65672 47.3333 5.4241M49.727 4.76857C49.9874 4.59295 50.1894 4.3435 50.307 4.05225C50.4402 3.72098 50.5057 3.36635 50.4995 3.00933C50.5053 2.65963 50.4475 2.31179 50.3288 1.98279C50.2234 1.69398 50.0332 1.44375 49.7832 1.2649C49.5343 1.08615 49.2142 0.99703 48.8229 0.99755C48.485 0.987444 48.1522 1.0822 47.8704 1.2688C47.6097 1.45004 47.4063 1.70212 47.2842 1.99526C47.1509 2.31381 47.0841 2.65624 47.0878 3.00154C47.0822 3.35608 47.1452 3.70837 47.2733 4.039C47.3855 4.33096 47.5819 4.58299 47.8376 4.76312C48.1162 4.94746 48.4454 5.04037 48.7792 5.02891C49.1142 5.03994 49.4447 4.94917 49.727 4.76857Z" fill="#231815"/>
<path d="M52.4918 0.340454H54.1645C54.774 0.340454 55.2362 0.46231 55.5511 0.706021C55.866 0.949732 56.0219 1.29789 56.0188 1.7505C56.0242 2.00981 55.9659 2.26649 55.8489 2.498C55.7463 2.70024 55.603 2.8791 55.428 3.02335C55.2732 3.15175 55.0987 3.2544 54.9112 3.32734L56.5551 5.68521H55.4857L54.092 3.56664H53.4131V5.68521H52.4918V0.340454ZM53.9361 2.86902C54.1417 2.87318 54.3453 2.82829 54.53 2.73807C54.6968 2.65572 54.8365 2.52756 54.933 2.36861C55.031 2.20178 55.0807 2.01097 55.0764 1.81753C55.0764 1.54888 54.9917 1.35245 54.8223 1.22826C54.6524 1.10354 54.4053 1.04197 54.0803 1.04197H53.4115V2.86902H53.9361Z" fill="#231815"/>
<path d="M57.2878 0.340454H60.436L60.3472 1.10121H58.2107V2.57361H60.2263V3.28681H58.2107V4.91822H60.4625L60.3846 5.68521H57.2878V0.340454Z" fill="#231815"/>
<path d="M64.7846 0.340454H63.8618V5.68521H64.7846V0.340454Z" fill="#231815"/>
<path d="M67.2259 1.11212H65.568L65.6483 0.340454H69.8098L69.7241 1.11212H68.148V5.68599H67.2259V1.11212Z" fill="#231815"/>
<path d="M73.8124 5.42421C73.4264 5.20557 73.1144 4.87697 72.916 4.48029C72.701 4.04135 72.5941 3.55735 72.6042 3.06869C72.5922 2.5554 72.7059 2.04697 72.9355 1.58771C73.1486 1.174 73.4813 0.83397 73.8903 0.611832C74.3416 0.372843 74.8467 0.253935 75.3572 0.266531C75.8966 0.266531 76.3604 0.377994 76.7486 0.600919C77.132 0.816646 77.4418 1.14249 77.6379 1.53627C77.8502 1.97294 77.9555 2.45388 77.945 2.9393C77.9576 3.45749 77.8428 3.97085 77.6107 4.4343C77.3978 4.84804 77.0661 5.1887 76.6582 5.41252C76.2116 5.64975 75.7115 5.76812 75.206 5.75626C74.7203 5.77011 74.2396 5.65557 73.8124 5.42421ZM76.2045 4.76869C76.4647 4.59282 76.6666 4.34344 76.7844 4.05236C76.9174 3.72104 76.9826 3.36641 76.9762 3.00945C76.9822 2.65987 76.9249 2.31208 76.807 1.9829C76.7016 1.69414 76.5114 1.44393 76.2614 1.26502C76.0125 1.08626 75.6924 0.997144 75.3011 0.997664C74.9632 0.987558 74.6305 1.08231 74.3486 1.26892C74.0881 1.4502 73.885 1.70229 73.7632 1.99537C73.6292 2.3137 73.5623 2.65628 73.5668 3.00165C73.561 3.35615 73.6237 3.70843 73.7516 4.03911C73.8643 4.33077 74.0606 4.58266 74.3159 4.76323C74.5945 4.94758 74.9236 5.04048 75.2575 5.02903C75.5914 5.03932 75.9207 4.94858 76.2022 4.76869" fill="#231815"/>
<path d="M78.9747 0.340454H80.0347L82.6779 4.4825C82.6561 4.08913 82.6451 3.72539 82.6451 3.39126V0.340454H83.5025V5.68521H82.476L79.7931 1.47613C79.8196 1.95316 79.8329 2.37614 79.8329 2.74509V5.68365H78.9755L78.9747 0.340454Z" fill="#231815"/>
<path fill-rule="evenodd" clip-rule="evenodd" d="M16.5385 0.297607H6.6783C2.03272 0.297607 0.333496 1.99605 0.333496 6.64163V16.5018C0.333496 21.1466 2.03272 22.8466 6.6783 22.8466H16.5353C21.1801 22.8466 22.8825 21.1466 22.8825 16.5018V6.64163C22.8825 1.99605 21.1825 0.297607 16.5377 0.297607" fill="#C8102E"/>
<path d="M4.79904 11.5733H5.39688V14.5212H4.79904V13.3248H3.44823V14.5212H2.84961V11.5733H3.44823V12.7628H4.79904V11.5733ZM8.16864 13.2577C8.16864 13.7379 7.93012 13.9935 7.4983 13.9935C7.06648 13.9935 6.82407 13.7301 6.82407 13.2375V11.5756H6.22623V13.2577C6.22623 14.0871 6.68689 14.5625 7.49051 14.5625C8.29413 14.5625 8.76648 14.0785 8.76648 13.2375V11.5733H8.16864V13.2577ZM15.0809 13.5976L14.4113 11.571H13.9234L13.2546 13.5976L12.603 11.571H11.9662L12.9943 14.5173H13.4892L14.1588 12.5819L14.8299 14.5173H15.3288L16.3545 11.571H15.731L15.0809 13.5976ZM17.4263 13.2499H18.5175V12.7137H17.4263V12.1096H19.0055V11.5725H16.8339V14.5165H19.06V13.9826H17.4232L17.4263 13.2499ZM19.7756 14.5142H20.3664V11.5733H19.7756V14.5142ZM9.94892 13.9023L9.68079 14.5165H9.06969L10.3691 11.5702H10.896L12.1899 14.5165H11.5663L11.3013 13.9023H9.94892ZM10.1711 13.3715H11.0752L10.6208 12.3224L10.1711 13.3715Z" fill="white"/>
<path d="M11.6115 7.82011C10.6165 7.81888 9.6626 7.42306 8.95902 6.71949C8.25545 6.01592 7.85964 5.06202 7.8584 4.06702H8.38921C8.38921 4.92183 8.72878 5.74163 9.33322 6.34607C9.93767 6.95051 10.7575 7.29008 11.6123 7.29008C12.4671 7.29008 13.2869 6.95051 13.8913 6.34607C14.4958 5.74163 14.8353 4.92183 14.8353 4.06702H15.3654C15.3641 5.06215 14.9682 6.01617 14.2645 6.71977C13.5607 7.42336 12.6066 7.81908 11.6115 7.82011Z" fill="white"/>
</svg>
