<svg width="33" height="32" viewBox="0 0 33 32" fill="none" xmlns="http://www.w3.org/2000/svg">
<g clip-path="url(#clip0_2643_28813)">
<g filter="url(#filter0_i_2643_28813)">
<rect x="0.333496" width="26" height="26" rx="4" fill="#4C75BA" fill-opacity="0.2"/>
</g>
<rect x="0.583496" y="0.25" width="25.5" height="25.5" rx="3.75" stroke="url(#paint0_linear_2643_28813)" stroke-width="0.5"/>
<rect x="4.58301" y="22.25" width="7.5" height="7.5" rx="1.75" stroke="#0876E4" stroke-width="0.5"/>
<rect x="13.583" y="22.25" width="7.5" height="7.5" rx="1.75" stroke="#0876E4" stroke-width="0.5"/>
<rect x="22.583" y="22.25" width="7.5" height="7.5" rx="1.75" fill="#0876E4" stroke="#0876E4" stroke-width="0.5"/>
<rect x="4.58301" y="13.25" width="7.5" height="7.5" rx="1.75" stroke="#0876E4" stroke-width="0.5"/>
<rect x="13.583" y="13.25" width="7.5" height="7.5" rx="1.75" fill="#0876E4" stroke="#0876E4" stroke-width="0.5"/>
<rect x="22.583" y="13.25" width="7.5" height="7.5" rx="1.75" stroke="#0876E4" stroke-width="0.5"/>
<rect x="4.58301" y="4.25" width="7.5" height="7.5" rx="1.75" stroke="#0876E4" stroke-width="0.5"/>
<rect x="13.583" y="4.25" width="7.5" height="7.5" rx="1.75" fill="#0876E4" stroke="#0876E4" stroke-width="0.5"/>
<rect x="22.583" y="4.25" width="7.5" height="7.5" rx="1.75" stroke="#0876E4" stroke-width="0.5"/>
</g>
<defs>
<filter id="filter0_i_2643_28813" x="-1.6665" y="-2" width="28" height="28" filterUnits="userSpaceOnUse" color-interpolation-filters="sRGB">
<feFlood flood-opacity="0" result="BackgroundImageFix"/>
<feBlend mode="normal" in="SourceGraphic" in2="BackgroundImageFix" result="shape"/>
<feColorMatrix in="SourceAlpha" type="matrix" values="0 0 0 0 0 0 0 0 0 0 0 0 0 0 0 0 0 0 127 0" result="hardAlpha"/>
<feOffset dx="-2" dy="-2"/>
<feGaussianBlur stdDeviation="3"/>
<feComposite in2="hardAlpha" operator="arithmetic" k2="-1" k3="1"/>
<feColorMatrix type="matrix" values="0 0 0 0 0.983333 0 0 0 0 0.989394 0 0 0 0 1 0 0 0 0.8 0"/>
<feBlend mode="normal" in2="shape" result="effect1_innerShadow_2643_28813"/>
</filter>
<linearGradient id="paint0_linear_2643_28813" x1="0.333496" y1="0.247627" x2="27.7188" y2="24.9752" gradientUnits="userSpaceOnUse">
<stop stop-color="#E9EDF4"/>
<stop offset="1" stop-color="#E8EDF7"/>
</linearGradient>
<clipPath id="clip0_2643_28813">
<rect width="32" height="32" fill="white" transform="translate(0.5)"/>
</clipPath>
</defs>
</svg>
