<svg width="62" height="53" viewBox="0 0 62 53" fill="none" xmlns="http://www.w3.org/2000/svg">
<path d="M1.47655 23.9756C0.564465 25.5349 0.564464 27.465 1.47655 29.0244L14.052 50.5244C14.9488 52.0576 16.5917 53 18.368 53L43.6321 53C45.4083 53 47.0512 52.0576 47.948 50.5244L60.5235 29.0244C61.4355 27.465 61.4355 25.5349 60.5235 23.9756L47.948 2.47558C47.0512 0.942352 45.4083 -1.98486e-06 43.632 -1.90722e-06L18.368 -8.02889e-07C16.5917 -7.25247e-07 14.9488 0.942352 14.052 2.47558L1.47655 23.9756Z" fill="url(#paint0_linear_2468_3692)"/>
<defs>
<linearGradient id="paint0_linear_2468_3692" x1="0.590495" y1="-4.5611e-07" x2="49.6071" y2="63.5033" gradientUnits="userSpaceOnUse">
<stop stop-color="#E9EDF4"/>
<stop offset="1" stop-color="#E8EDF7"/>
</linearGradient>
</defs>
</svg>
