<svg width="25" height="24" viewBox="0 0 25 24" fill="none" xmlns="http://www.w3.org/2000/svg">
<path d="M12.5 22C18.0228 22 22.5 17.5228 22.5 12C22.5 6.47715 18.0228 2 12.5 2C6.97715 2 2.5 6.47715 2.5 12C2.5 17.5228 6.97715 22 12.5 22Z" stroke="#0876E4" stroke-linecap="round" stroke-linejoin="round"/>
<path d="M9.58984 8.99996C9.82495 8.33163 10.289 7.76807 10.8998 7.40909C11.5106 7.05012 12.2287 6.9189 12.927 7.03867C13.6253 7.15844 14.2587 7.52148 14.7149 8.06349C15.1712 8.60549 15.4209 9.29148 15.4198 9.99996C15.4198 12 12.4198 13 12.4198 13" stroke="#0876E4" stroke-linecap="round" stroke-linejoin="round"/>
<path d="M12.5 17H12.51" stroke="#0876E4" stroke-linecap="round" stroke-linejoin="round"/>
</svg>
