<svg width="203" height="188" viewBox="0 0 203 188" fill="none" xmlns="http://www.w3.org/2000/svg">
<path d="M128.422 19.2278C145 12 157.965 15.8455 168.347 28.3802C178.729 40.9148 175.628 65.4199 163.093 75.802L163.867 65.2449C163.867 65.2449 145.967 91.915 150.748 109.633C150.748 109.633 140.964 98.3028 145.435 89.9464C145.435 89.9464 136.282 109.538 126.262 114.594L133.895 102.609C106.715 117.986 90.3443 124.505 73.9398 157.075C73.9398 157.075 77.0547 140.9 83.5866 130.764L39.5027 166.13C39.5027 166.13 48.5295 141.069 67.9966 106.465C67.9966 106.465 59.8264 112.62 50.9778 114.867C66.288 103.445 93.843 69.763 97.3551 61.3364L84.9241 72.9691C85.6361 63.2519 92.9783 55.2263 106.158 46.5431L87.3606 52.885C99.2993 47.9704 117.092 29.0114 117.092 29.0114L110.233 30.4386C116.413 25.1021 120.773 22.5626 128.422 19.2278Z" stroke="#053D75" stroke-linejoin="round" fill="#F1EEF7"/>
<rect x="118" y="21" width="50" height="50" rx="25" fill="#0F1622"/>
<path d="M149.9 36.73C148.874 35.5594 148.309 34.0561 148.31 32.5L143.675 32.5L143.675 51.1C143.639 52.1065 143.214 53.0599 142.489 53.7594C141.765 54.4589 140.797 54.8499 139.79 54.85C137.66 54.85 135.89 53.11 135.89 50.95C135.89 48.37 138.38 46.435 140.945 47.23L140.945 42.49C135.77 41.8 131.24 45.82 131.24 50.95C131.24 55.945 135.38 59.5 139.775 59.5C144.485 59.5 148.31 55.675 148.31 50.95L148.31 41.515C150.189 42.8648 152.446 43.589 154.76 43.585L154.76 38.95C154.76 38.95 151.94 39.085 149.9 36.73Z" fill="white"/>
</svg>
