<svg width="28" height="28" viewBox="0 0 28 28" fill="none" xmlns="http://www.w3.org/2000/svg">
<path d="M22.7243 14.63C22.771 14.28 22.7943 13.9183 22.7943 13.5333C22.7943 13.16 22.771 12.7867 22.7127 12.4367L25.081 10.5933C25.291 10.43 25.3493 10.115 25.221 9.88166L22.981 6.00833C22.841 5.75167 22.5493 5.67 22.2927 5.75167L19.5043 6.87167C18.921 6.42833 18.3027 6.055 17.6143 5.775L17.1943 2.81167C17.1477 2.53167 16.9143 2.33333 16.6343 2.33333H12.1543C11.8743 2.33333 11.6527 2.53167 11.606 2.81167L11.186 5.775C10.4977 6.055 9.86767 6.44 9.296 6.87167L6.50767 5.75167C6.251 5.65833 5.95933 5.75167 5.81933 6.00833L3.591 9.88166C3.451 10.1267 3.49767 10.43 3.731 10.5933L6.09933 12.4367C6.041 12.7867 5.99433 13.1717 5.99433 13.5333C5.99433 13.895 6.01767 14.28 6.076 14.63L3.70767 16.4733C3.49767 16.6367 3.43933 16.9517 3.56767 17.185L5.80767 21.0583C5.94767 21.315 6.23933 21.3967 6.496 21.315L9.28433 20.195C9.86767 20.6383 10.486 21.0117 11.1743 21.2917L11.5943 24.255C11.6527 24.535 11.8743 24.7333 12.1543 24.7333H16.6343C16.9143 24.7333 17.1477 24.535 17.1827 24.255L17.6027 21.2917C18.291 21.0117 18.921 20.6383 19.4927 20.195L22.281 21.315C22.5377 21.4083 22.8293 21.315 22.9693 21.0583L25.2093 17.185C25.3493 16.9283 25.291 16.6367 25.0693 16.4733L22.7243 14.63ZM14.3943 17.7333C12.0843 17.7333 10.1943 15.8433 10.1943 13.5333C10.1943 11.2233 12.0843 9.33333 14.3943 9.33333C16.7043 9.33333 18.5943 11.2233 18.5943 13.5333C18.5943 15.8433 16.7043 17.7333 14.3943 17.7333Z" stroke="#0876E4"/>
</svg>
