<svg width="32" height="32" viewBox="0 0 32 32" fill="none" xmlns="http://www.w3.org/2000/svg">
<g clip-path="url(#clip0_506_19546)">
<mask id="path-1-inside-1_506_19546" fill="white">
<path fill-rule="evenodd" clip-rule="evenodd" d="M26.4734 11.5312C26.9082 11.9747 27.2215 12.5265 27.3821 13.1319V13.132C28.3069 16.9286 28.0932 22.9249 27.4 26.8681C27.2394 27.4735 26.9261 28.0254 26.4913 28.4688C26.0565 28.9122 25.5154 29.2318 24.9219 29.3956C22.7491 30 14.0039 30 14.0039 30C14.0039 30 5.25853 30 3.08565 29.3956C2.49213 29.2318 1.95105 28.9122 1.51627 28.4688C1.0815 28.0253 0.768215 27.4735 0.607609 26.8681C-0.322641 23.088 -0.0676832 17.0879 0.589562 13.1503C0.750152 12.5449 1.06343 11.993 1.4982 11.5496C1.93298 11.1061 2.47407 10.7865 3.0676 10.6227C5.24048 10.0183 13.986 10 13.986 10C13.986 10 22.7312 10 24.904 10.6044C25.4976 10.7682 26.0386 11.0878 26.4734 11.5312ZM16.0003 19.5L11.6956 22.5V16.5454L16.0003 19.5Z"/>
</mask>
<path fill-rule="evenodd" clip-rule="evenodd" d="M26.4734 11.5312C26.9082 11.9747 27.2215 12.5265 27.3821 13.1319V13.132C28.3069 16.9286 28.0932 22.9249 27.4 26.8681C27.2394 27.4735 26.9261 28.0254 26.4913 28.4688C26.0565 28.9122 25.5154 29.2318 24.9219 29.3956C22.7491 30 14.0039 30 14.0039 30C14.0039 30 5.25853 30 3.08565 29.3956C2.49213 29.2318 1.95105 28.9122 1.51627 28.4688C1.0815 28.0253 0.768215 27.4735 0.607609 26.8681C-0.322641 23.088 -0.0676832 17.0879 0.589562 13.1503C0.750152 12.5449 1.06343 11.993 1.4982 11.5496C1.93298 11.1061 2.47407 10.7865 3.0676 10.6227C5.24048 10.0183 13.986 10 13.986 10C13.986 10 22.7312 10 24.904 10.6044C25.4976 10.7682 26.0386 11.0878 26.4734 11.5312ZM16.0003 19.5L11.6956 22.5V16.5454L16.0003 19.5Z" fill="white"/>
<path fill-rule="evenodd" clip-rule="evenodd" d="M26.4734 11.5312C26.9082 11.9747 27.2215 12.5265 27.3821 13.1319V13.132C28.3069 16.9286 28.0932 22.9249 27.4 26.8681C27.2394 27.4735 26.9261 28.0254 26.4913 28.4688C26.0565 28.9122 25.5154 29.2318 24.9219 29.3956C22.7491 30 14.0039 30 14.0039 30C14.0039 30 5.25853 30 3.08565 29.3956C2.49213 29.2318 1.95105 28.9122 1.51627 28.4688C1.0815 28.0253 0.768215 27.4735 0.607609 26.8681C-0.322641 23.088 -0.0676832 17.0879 0.589562 13.1503C0.750152 12.5449 1.06343 11.993 1.4982 11.5496C1.93298 11.1061 2.47407 10.7865 3.0676 10.6227C5.24048 10.0183 13.986 10 13.986 10C13.986 10 22.7312 10 24.904 10.6044C25.4976 10.7682 26.0386 11.0878 26.4734 11.5312ZM16.0003 19.5L11.6956 22.5V16.5454L16.0003 19.5Z" fill="#4C75BA" fill-opacity="0.2"/>
<path d="M27.3821 13.1319H27.8821V13.0667L27.8654 13.0037L27.3821 13.1319ZM26.4734 11.5312L26.8304 11.1812L26.8304 11.1812L26.4734 11.5312ZM27.3821 13.132H26.8821V13.192L26.8963 13.2503L27.3821 13.132ZM27.4 26.8681L27.8833 26.9963L27.8888 26.9757L27.8925 26.9547L27.4 26.8681ZM24.9219 29.3956L24.7888 28.9136L24.7879 28.9139L24.9219 29.3956ZM3.08565 29.3956L3.21964 28.9139L3.21869 28.9136L3.08565 29.3956ZM0.607609 26.8681L0.122016 26.9876L0.12433 26.9963L0.607609 26.8681ZM0.589562 13.1503L0.106278 13.0221L0.100253 13.0448L0.096385 13.068L0.589562 13.1503ZM1.4982 11.5496L1.14117 11.1995L1.14117 11.1995L1.4982 11.5496ZM3.0676 10.6227L3.20065 11.1047L3.2016 11.1044L3.0676 10.6227ZM13.986 10V9.5L13.985 9.5L13.986 10ZM24.904 10.6044L24.77 11.0861L24.771 11.0864L24.904 10.6044ZM11.6956 22.5H11.1956V23.4579L11.9815 22.9102L11.6956 22.5ZM16.0003 19.5L16.2861 19.9102L16.8793 19.4969L16.2832 19.0878L16.0003 19.5ZM11.6956 16.5454L11.9785 16.1332L11.1956 15.5958V16.5454H11.6956ZM27.8654 13.0037C27.6828 12.3154 27.3263 11.6869 26.8304 11.1812L26.1164 11.8813C26.4901 12.2624 26.7602 12.7376 26.8988 13.2601L27.8654 13.0037ZM27.8821 13.132V13.1319H26.8821V13.132H27.8821ZM27.8925 26.9547C28.5922 22.9747 28.8151 16.9026 27.8679 13.0137L26.8963 13.2503C27.7986 16.9547 27.5943 22.8751 26.9076 26.7815L27.8925 26.9547ZM26.8483 28.8188C27.3442 28.3131 27.7007 27.6846 27.8833 26.9963L26.9167 26.7399C26.7781 27.2624 26.508 27.7376 26.1343 28.1187L26.8483 28.8188ZM25.0549 29.8776C25.7342 29.6901 26.3524 29.3247 26.8483 28.8188L26.1343 28.1187C25.7607 28.4998 25.2966 28.7735 24.7888 28.9136L25.0549 29.8776ZM14.0039 30C14.0039 30.5 14.0039 30.5 14.004 30.5C14.0041 30.5 14.0042 30.5 14.0043 30.5C14.0046 30.5 14.005 30.5 14.0056 30.5C14.0067 30.5 14.0083 30.5 14.0105 30.5C14.0148 30.5 14.0212 30.5 14.0296 30.5C14.0464 30.5 14.0713 30.4999 14.1038 30.4999C14.1687 30.4997 14.2642 30.4994 14.3863 30.4988C14.6306 30.4976 14.9817 30.4953 15.4098 30.4905C16.2657 30.4811 17.4302 30.4621 18.6634 30.4242C19.8958 30.3863 21.201 30.3294 22.3369 30.2436C23.4583 30.1589 24.4589 30.0434 25.0559 29.8773L24.7879 28.9139C24.2984 29.05 23.3911 29.1611 22.2616 29.2464C21.1468 29.3306 19.8582 29.387 18.6327 29.4247C17.408 29.4623 16.2504 29.4812 15.3987 29.4906C14.973 29.4953 14.6239 29.4977 14.3815 29.4988C14.2602 29.4994 14.1656 29.4997 14.1015 29.4999C14.0694 29.4999 14.0449 29.5 14.0285 29.5C14.0203 29.5 14.0141 29.5 14.0099 29.5C14.0079 29.5 14.0063 29.5 14.0053 29.5C14.0048 29.5 14.0044 29.5 14.0042 29.5C14.0041 29.5 14.004 29.5 14.0039 29.5C14.0039 29.5 14.0039 29.5 14.0039 30ZM2.95166 29.8773C3.54863 30.0434 4.54924 30.1589 5.67065 30.2436C6.80665 30.3294 8.11183 30.3863 9.34423 30.4242C10.5775 30.4621 11.742 30.4811 12.5979 30.4905C13.026 30.4953 13.3772 30.4976 13.6214 30.4988C13.7436 30.4994 13.839 30.4997 13.904 30.4999C13.9365 30.4999 13.9614 30.5 13.9782 30.5C13.9866 30.5 13.9929 30.5 13.9972 30.5C13.9994 30.5 14.001 30.5 14.0021 30.5C14.0027 30.5 14.0031 30.5 14.0034 30.5C14.0035 30.5 14.0037 30.5 14.0037 30.5C14.0038 30.5 14.0039 30.5 14.0039 30C14.0039 29.5 14.0039 29.5 14.0038 29.5C14.0037 29.5 14.0037 29.5 14.0035 29.5C14.0033 29.5 14.0029 29.5 14.0024 29.5C14.0014 29.5 13.9999 29.5 13.9978 29.5C13.9937 29.5 13.9875 29.5 13.9793 29.5C13.9628 29.5 13.9384 29.4999 13.9063 29.4999C13.8421 29.4997 13.7475 29.4994 13.6263 29.4988C13.3838 29.4977 13.0347 29.4953 12.609 29.4906C11.7573 29.4812 10.5997 29.4623 9.37495 29.4247C8.1494 29.387 6.86083 29.3306 5.74596 29.2464C4.6165 29.1611 3.70911 29.05 3.21964 28.9139L2.95166 29.8773ZM1.15925 28.8188C1.65518 29.3246 2.27333 29.6901 2.95261 29.8776L3.21869 28.9136C2.71093 28.7735 2.24691 28.4998 1.8733 28.1187L1.15925 28.8188ZM0.12433 26.9963C0.306923 27.6846 0.663373 28.3131 1.15925 28.8188L1.8733 28.1187C1.49963 27.7376 1.22951 27.2624 1.09089 26.7399L0.12433 26.9963ZM0.096385 13.068C-0.565782 17.0351 -0.831548 23.1124 0.122095 26.9876L1.09312 26.7486C0.186267 23.0636 0.430416 17.1408 1.08274 13.2326L0.096385 13.068ZM1.14117 11.1995C0.645293 11.7053 0.288853 12.3338 0.106278 13.0221L1.07285 13.2785C1.21145 12.756 1.48157 12.2807 1.85524 11.8996L1.14117 11.1995ZM2.93456 10.1407C2.25527 10.3282 1.63711 10.6937 1.14117 11.1995L1.85524 11.8996C2.22885 11.5185 2.69287 11.2448 3.20065 11.1047L2.93456 10.1407ZM13.986 10C13.985 9.5 13.9849 9.5 13.9849 9.5C13.9848 9.5 13.9847 9.5 13.9845 9.5C13.9842 9.5 13.9838 9.5 13.9833 9.50001C13.9822 9.50001 13.9805 9.50001 13.9784 9.50002C13.9741 9.50003 13.9677 9.50005 13.9593 9.50007C13.9425 9.50013 13.9176 9.50022 13.8851 9.50036C13.8201 9.50064 13.7247 9.50114 13.6026 9.50198C13.3583 9.50367 13.0071 9.50675 12.5791 9.51235C11.7231 9.52353 10.5586 9.54476 9.32536 9.58496C8.09296 9.62514 6.78782 9.68438 5.65189 9.7719C4.53042 9.8583 3.53017 9.97505 2.93361 10.141L3.2016 11.1044C3.69148 10.9681 4.59925 10.856 5.7287 10.7689C6.84368 10.683 8.13234 10.6244 9.35794 10.5844C10.5827 10.5445 11.7404 10.5234 12.5921 10.5123C13.0179 10.5067 13.367 10.5036 13.6095 10.502C13.7307 10.5011 13.8253 10.5006 13.8895 10.5003C13.9216 10.5002 13.9461 10.5001 13.9625 10.5001C13.9707 10.5 13.9769 10.5 13.981 10.5C13.9831 10.5 13.9846 10.5 13.9856 10.5C13.9861 10.5 13.9865 10.5 13.9868 10.5C13.9869 10.5 13.987 10.5 13.987 10.5C13.9871 10.5 13.9871 10.5 13.986 10ZM25.038 10.1227C24.4411 9.95664 23.4405 9.84109 22.3191 9.7564C21.1831 9.67061 19.8779 9.61367 18.6456 9.57579C17.4124 9.53788 16.2479 9.51894 15.3919 9.50947C14.9639 9.50474 14.6127 9.50237 14.3685 9.50119C14.2463 9.50059 14.1509 9.5003 14.0859 9.50015C14.0534 9.50007 14.0286 9.50004 14.0117 9.50002C14.0033 9.50001 13.997 9.5 13.9927 9.5C13.9905 9.5 13.9889 9.5 13.9878 9.5C13.9872 9.5 13.9868 9.5 13.9865 9.5C13.9864 9.5 13.9862 9.5 13.9862 9.5C13.9861 9.5 13.986 9.5 13.986 10C13.986 10.5 13.9861 10.5 13.9861 10.5C13.9862 10.5 13.9862 10.5 13.9864 10.5C13.9866 10.5 13.987 10.5 13.9875 10.5C13.9885 10.5 13.9901 10.5 13.9921 10.5C13.9962 10.5 14.0024 10.5 14.0106 10.5C14.0271 10.5 14.0515 10.5001 14.0836 10.5001C14.1478 10.5003 14.2424 10.5006 14.3636 10.5012C14.6061 10.5024 14.9551 10.5047 15.3809 10.5094C16.2326 10.5188 17.3902 10.5377 18.6148 10.5753C19.8404 10.613 21.1289 10.6694 22.2438 10.7536C23.3732 10.8389 24.2806 10.95 24.77 11.0861L25.038 10.1227ZM26.8304 11.1812C26.3345 10.6753 25.7164 10.3099 25.0371 10.1224L24.771 11.0864C25.2788 11.2265 25.7428 11.5002 26.1164 11.8813L26.8304 11.1812ZM11.9815 22.9102L16.2861 19.9102L15.7144 19.0898L11.4097 22.0898L11.9815 22.9102ZM11.1956 16.5454V22.5H12.1956V16.5454H11.1956ZM16.2832 19.0878L11.9785 16.1332L11.4126 16.9577L15.7173 19.9122L16.2832 19.0878Z" fill="url(#paint0_linear_506_19546)" mask="url(#path-1-inside-1_506_19546)"/>
<path d="M18.004 22.75L18.0039 23L18.0038 22.75H18.0035H18.0023L17.9977 22.75L17.979 22.75L17.9057 22.7499C17.8413 22.7497 17.7465 22.7494 17.6251 22.7488C17.3821 22.7476 17.0326 22.7453 16.6062 22.7406C15.7535 22.7311 14.5941 22.7123 13.3673 22.6746C12.14 22.6368 10.8473 22.5803 9.72713 22.4957C8.59968 22.4106 7.66899 22.2984 7.15265 22.1547L7.15217 22.1546C6.60153 22.0026 6.09898 21.706 5.69479 21.2938C5.29108 20.882 4.99961 20.3692 4.84982 19.8062C3.93283 16.0772 4.181 10.1255 4.83419 6.20322C4.98466 5.64369 5.27517 5.13417 5.67672 4.72458C6.08091 4.31231 6.58347 4.01569 7.13413 3.86368L7.1346 3.86355C7.65115 3.71987 8.58204 3.60654 9.7095 3.51968C10.8297 3.43337 12.1225 3.37457 13.3498 3.33456C14.5767 3.29457 15.7361 3.27343 16.5889 3.26228C17.0152 3.25671 17.3648 3.25364 17.6077 3.25196C17.7292 3.25112 17.824 3.25063 17.8884 3.25035L17.9617 3.25007L17.9803 3.25001L17.985 3.25L17.9862 3.25L17.9864 3.25L17.9876 3.25L17.9922 3.25L18.0109 3.25002L18.0842 3.25015C18.1486 3.25029 18.2434 3.25059 18.3648 3.25118C18.6078 3.25236 18.9573 3.25471 19.3836 3.25943C20.2364 3.26886 21.3957 3.28772 22.6225 3.32543C23.8498 3.36315 25.1425 3.41968 26.2626 3.50427C27.39 3.58942 28.3207 3.70163 28.837 3.84526L28.8375 3.84539C29.3882 3.99738 29.8907 4.29399 30.2949 4.70625C30.6982 5.11764 30.9896 5.62988 31.1395 6.19235C32.0518 9.9395 31.8441 15.8896 31.1557 19.8141C31.0053 20.3741 30.7146 20.884 30.3128 21.2938C29.9086 21.706 29.406 22.0026 28.8554 22.1546L28.8549 22.1547C28.3386 22.2984 27.4079 22.4106 26.2805 22.4957C25.1603 22.5803 23.8676 22.6368 22.6404 22.6746C21.4136 22.7123 20.2542 22.7311 19.4015 22.7406C18.9752 22.7453 18.6256 22.7476 18.3827 22.7488C18.2612 22.7494 18.1664 22.7497 18.102 22.7499L18.0287 22.75L18.0101 22.75L18.0054 22.75H18.0042H18.004Z" stroke="#0876E4" stroke-width="0.5"/>
<path d="M16 17L22 13L16 9V17Z" fill="#0876E4"/>
</g>
<defs>
<linearGradient id="paint0_linear_506_19546" x1="-2.27328e-07" y1="10.1905" x2="20.6069" y2="36.2402" gradientUnits="userSpaceOnUse">
<stop stop-color="#E9EDF4"/>
<stop offset="1" stop-color="#E8EDF7"/>
</linearGradient>
<clipPath id="clip0_506_19546">
<rect width="32" height="32" fill="white"/>
</clipPath>
</defs>
</svg>
