<svg width="134" height="126" viewBox="0 0 134 126" fill="none" xmlns="http://www.w3.org/2000/svg">
<path d="M95.2153 30.8202C105 30.5 110.701 34.8288 113.492 43.1274C116.284 51.4261 109.993 63.1301 101.694 65.9213L104.122 60.7704C104.122 60.7704 89.9831 70.7029 88.9612 80.5223C88.9612 80.5223 86.2378 72.9437 90.0967 69.6119C90.0967 69.6119 81.7164 77.6801 75.7095 78.2828L81.8564 73.7402C65.2404 76.2101 55.7617 76.3211 41.2344 89.5042C41.2344 89.5042 45.9227 81.985 51.1599 78.1582L22.1955 87.3984C22.1955 87.3984 31.5684 76.5601 48.0266 62.9467C48.0266 62.9467 42.7356 64.459 37.8591 63.8776C47.7521 61.1005 68.0927 49.5127 71.4837 45.9604L62.9955 49.3995C65.23 44.6584 70.4665 42.0473 78.7609 40.2336L68.0983 39.7866C75.0417 39.6253 87.6368 33.5435 87.6368 33.5435L83.9175 32.9352C88.0513 31.4497 90.729 30.967 95.2153 30.8202Z" stroke="#053D75" stroke-linejoin="round" fill="#F1EDF4"/>
<rect x="86.6147" y="33" width="25.25" height="25.25" rx="12.625" transform="rotate(5.94349 86.6147 33)" fill="#7360F2"/>
<path fill-rule="evenodd" clip-rule="evenodd" d="M98.2804 39.9298C101.347 39.9434 102.723 40.9437 103.064 41.2583C104.195 42.2396 104.821 44.4169 104.399 47.8591C104.027 50.9004 101.909 51.4393 101.199 51.6201C101.129 51.6379 101.073 51.6522 101.033 51.665C100.841 51.7276 99.1493 52.1512 96.9498 51.9659C96.707 52.2484 96.3849 52.618 96.1517 52.8696C96.0813 52.9454 96.0155 53.0204 95.9526 53.092C95.6352 53.4532 95.3918 53.7303 95.0203 53.6148C94.6523 53.5007 94.6729 52.9413 94.6729 52.9413L94.6749 51.5594L94.6718 51.5594C91.4557 50.6538 91.5028 47.314 91.5392 45.5319C91.5756 43.7498 91.9208 42.3123 92.902 41.3299C94.6646 39.7115 98.2804 39.9298 98.2804 39.9298ZM98.2241 40.8981C100.818 40.9095 102.061 41.6913 102.349 41.9532C103.306 42.7733 103.793 44.7358 103.437 47.6109C103.126 50.1216 101.444 50.5143 100.836 50.6562C100.768 50.6719 100.714 50.6845 100.677 50.6967C100.517 50.749 99.0306 51.1181 97.1627 50.996C97.1627 50.996 95.7705 52.6773 95.3356 53.1144C95.2677 53.1822 95.1879 53.2098 95.1347 53.1968C95.0606 53.1785 95.04 53.0897 95.04 52.96C95.0413 52.7745 95.052 50.6637 95.052 50.6637C92.4228 49.9325 92.4838 47.2509 92.5185 45.7287C92.5197 45.6764 92.5208 45.6254 92.5218 45.5759C92.5525 44.0876 92.832 42.8681 93.6618 42.0479C95.1528 40.6961 98.2241 40.8981 98.2241 40.8981Z" fill="white"/>
<path d="M99.5426 45.4537C99.5089 44.7729 99.1635 44.4154 98.5063 44.3811" stroke="white" stroke-width="0.432092" stroke-linecap="round" stroke-linejoin="round"/>
<path d="M100.432 45.7521C100.446 45.1179 100.258 44.5881 99.8694 44.1625C99.4786 43.7355 98.9376 43.5003 98.2434 43.4495" stroke="white" stroke-width="0.432092" stroke-linecap="round" stroke-linejoin="round"/>
<path d="M101.343 46.1088C101.335 45.0083 101.006 44.1416 100.358 43.5086C99.709 42.8756 98.9023 42.5558 97.9376 42.5491" stroke="white" stroke-width="0.432092" stroke-linecap="round" stroke-linejoin="round"/>
<path d="M98.5404 47.7786C98.5404 47.7786 98.7842 47.7992 98.9154 47.6374L99.1713 47.3151C99.2947 47.1554 99.5926 47.0534 99.8843 47.2161C100.103 47.3409 100.315 47.4765 100.52 47.6226C100.714 47.7651 101.11 48.0962 101.111 48.0962C101.3 48.2557 101.344 48.4901 101.215 48.7371C101.215 48.7386 101.214 48.7411 101.214 48.7423C101.073 48.988 100.893 49.2096 100.682 49.3987C100.679 49.4 100.679 49.4012 100.677 49.4024C100.493 49.5559 100.313 49.6431 100.136 49.6641C100.11 49.6687 100.083 49.6704 100.057 49.6691C99.979 49.6698 99.9013 49.6579 99.8271 49.6337L99.8213 49.6252C99.5486 49.5482 99.0932 49.3555 98.3347 48.9367C97.8959 48.6972 97.478 48.4209 97.0857 48.1108C96.8891 47.9554 96.7015 47.7889 96.524 47.6121L96.505 47.5931L96.4861 47.5742L96.4672 47.5552C96.4608 47.5491 96.4546 47.5427 96.4483 47.5363C96.2716 47.3585 96.1052 47.1708 95.9501 46.974C95.6403 46.5813 95.3643 46.1631 95.125 45.7239C94.7066 44.9645 94.5141 44.509 94.4371 44.2356L94.4287 44.2298C94.4046 44.1555 94.3927 44.0778 94.3935 43.9996C94.3921 43.9732 94.3937 43.9466 94.3983 43.9206C94.4203 43.7436 94.5076 43.563 94.6601 43.3788C94.6613 43.3766 94.6626 43.3766 94.6638 43.3741C94.8527 43.1627 95.0741 42.9828 95.3196 42.8412C95.3208 42.8412 95.3233 42.84 95.3247 42.84C95.5716 42.7113 95.8057 42.7549 95.9649 42.9429C95.9661 42.9441 96.2962 43.3409 96.438 43.5347C96.5839 43.7401 96.7194 43.9528 96.844 44.1718C97.0065 44.4635 96.9047 44.7623 96.7451 44.8854L96.4232 45.1416C96.2607 45.273 96.2821 45.517 96.2821 45.517C96.2821 45.517 96.7589 47.3234 98.5404 47.7786Z" fill="white"/>
</svg>
