<svg width="32" height="33" viewBox="0 0 32 33" fill="none" xmlns="http://www.w3.org/2000/svg">
<rect y="0.5" width="32" height="32" rx="16" fill="#222222"/>
<path d="M21.257 11.9215C21.1479 11.8657 21.0418 11.8045 20.939 11.7381C20.6401 11.5424 20.366 11.3118 20.1227 11.0512C19.5132 10.3608 19.2857 9.66042 19.2024 9.17051H19.2053C19.1356 8.76309 19.1643 8.5 19.1694 8.5H16.3947V19.1251C16.3947 19.2673 16.3947 19.4088 16.389 19.5482C16.389 19.5653 16.3869 19.5809 16.3861 19.6001C16.3861 19.6072 16.3861 19.6158 16.384 19.6236V19.63C16.3548 20.0111 16.2316 20.3793 16.025 20.7022C15.8185 21.025 15.535 21.2927 15.1995 21.4815C14.8495 21.6788 14.4536 21.7822 14.0509 21.7816C12.7587 21.7816 11.7106 20.7378 11.7106 19.4487C11.7106 18.1588 12.7587 17.115 14.0509 17.115C14.2957 17.115 14.539 17.1534 14.7716 17.2288L14.7752 14.4301C14.0688 14.3398 13.3512 14.3956 12.6677 14.5939C11.9841 14.7921 11.3495 15.1286 10.8039 15.582C10.3257 15.9934 9.92359 16.4842 9.61577 17.0325C9.49876 17.2323 9.05654 18.0365 9.00342 19.3406C8.96968 20.0801 9.19437 20.848 9.30134 21.1644V21.1715C9.3681 21.3578 9.62941 21.9949 10.0544 22.5318C10.3971 22.9626 10.802 23.3412 11.2561 23.6552V23.6481L11.2626 23.6552C12.605 24.5582 14.0946 24.4992 14.0946 24.4992C14.3524 24.4885 15.216 24.4992 16.1966 24.0392C17.2842 23.5286 17.903 22.7685 17.903 22.7685C18.2987 22.3143 18.6133 21.7966 18.8334 21.2376C19.0847 20.5835 19.1679 19.7999 19.1679 19.4871V13.8492C19.2017 13.8691 19.6504 14.1628 19.6504 14.1628C19.6504 14.1628 20.2964 14.573 21.3036 14.8397C22.0258 15.0295 23 15.0701 23 15.0701V12.3418C22.659 12.3787 21.9662 12.2721 21.2563 11.9223L21.257 11.9215Z" fill="white"/>
</svg>
