<svg width="32" height="32" viewBox="0 0 32 32" fill="none" xmlns="http://www.w3.org/2000/svg">
<path d="M23.168 23.29H23.1684C23.6969 23.2892 24.203 23.0765 24.5759 22.6995C24.9487 22.3226 25.158 21.8122 25.1588 21.2804V21.28V20.65H25.7792H25.7796C26.3081 20.6492 26.8142 20.4365 27.1871 20.0595C27.5599 19.6826 27.7692 19.1722 27.77 18.6404V18.64V13.36V13.3597C27.7695 12.8278 27.5603 12.3172 27.1874 11.9402C26.8144 11.5631 26.3081 11.3505 25.7795 11.35H25.7792H25.1588V10.72V10.7197C25.1583 10.1878 24.9491 9.67719 24.5762 9.30019C24.2032 8.92311 23.6969 8.71053 23.1683 8.70999H23.168L7.50081 8.70999L7.50056 8.70999C6.9719 8.71053 6.46561 8.92311 6.09264 9.30019C5.71977 9.67719 5.51054 10.1878 5.51001 10.7197V10.72L5.51001 21.28L5.51001 21.2802C5.51054 21.8122 5.71977 22.3228 6.09264 22.6998C6.46561 23.0769 6.9719 23.2895 7.50056 23.29H7.50081H23.168Z" stroke="#FC6A81" stroke-width="0.5"/>
<path d="M12 10.72V21.28H8V10.72H12Z" fill="#D9D9D9"/>
<path d="M12 10.72V21.28H8V10.72H12Z" fill="url(#paint0_linear_2519_9744)"/>
<defs>
<linearGradient id="paint0_linear_2519_9744" x1="8" y1="16" x2="11.9842" y2="16" gradientUnits="userSpaceOnUse">
<stop stop-color="#FB6681"/>
<stop offset="1" stop-color="#FF7C7C"/>
</linearGradient>
</defs>
</svg>
