<svg width="120" height="28" viewBox="0 0 120 28" fill="none" xmlns="http://www.w3.org/2000/svg">
<path d="M39.2728 3.65292C39.2728 4.47677 39.0668 5.19765 38.5519 5.71256C37.934 6.33045 37.2131 6.63939 36.2863 6.63939C35.3595 6.63939 34.6386 6.33045 34.0207 5.71256C33.4028 5.09466 33.0939 4.37379 33.0939 3.44695C33.0939 2.52012 33.4028 1.79924 34.0207 1.18135C34.6386 0.563462 35.3595 0.254517 36.2863 0.254517C36.6982 0.254517 37.1102 0.357498 37.5221 0.563462C37.934 0.769426 38.243 0.97539 38.4489 1.28434L37.934 1.79924C37.5221 1.28433 37.0072 1.07837 36.2863 1.07837C35.6684 1.07837 35.0505 1.28433 34.6386 1.79924C34.1237 2.21117 33.9177 2.82906 33.9177 3.54994C33.9177 4.27081 34.1237 4.8887 34.6386 5.30063C35.1535 5.71256 35.6684 6.0215 36.2863 6.0215C37.0072 6.0215 37.5221 5.81554 38.037 5.30063C38.3459 4.99168 38.5519 4.57976 38.5519 4.06485H36.2863V3.24099H39.2728C39.2728 3.34397 39.2728 3.54994 39.2728 3.65292Z" fill="black"/>
<path d="M44.01 1.07842H41.2295V3.03507H43.804V3.75595H41.2295V5.7126H44.01V6.53646H40.4056V0.357544H44.01V1.07842Z" fill="black"/>
<path d="M47.409 6.53646H46.5852V1.07842H44.8345V0.357544H49.1597V1.07842H47.409V6.53646Z" fill="black"/>
<path d="M52.1461 6.53646V0.357544H52.97V6.53646H52.1461Z" fill="black"/>
<path d="M56.4698 6.53646H55.646V1.07842H53.8953V0.357544H58.1175V1.07842H56.3668V6.53646H56.4698Z" fill="black"/>
<path d="M66.2537 5.71256C65.6358 6.33045 64.9149 6.63939 63.9881 6.63939C63.0613 6.63939 62.3404 6.33045 61.7225 5.71256C61.1046 5.09466 60.7957 4.37379 60.7957 3.44695C60.7957 2.52012 61.1046 1.79924 61.7225 1.18135C62.3404 0.563462 63.0613 0.254517 63.9881 0.254517C64.9149 0.254517 65.6358 0.563462 66.2537 1.18135C66.8716 1.79924 67.1805 2.52012 67.1805 3.44695C67.1805 4.37379 66.8716 5.09466 66.2537 5.71256ZM62.3404 5.19765C62.7523 5.60957 63.3702 5.91852 63.9881 5.91852C64.606 5.91852 65.2239 5.71256 65.6358 5.19765C66.0477 4.78572 66.3567 4.16783 66.3567 3.44695C66.3567 2.72608 66.1507 2.10819 65.6358 1.69626C65.2239 1.28434 64.606 0.975389 63.9881 0.975389C63.3702 0.975389 62.7523 1.18135 62.3404 1.69626C61.9285 2.10819 61.6195 2.72608 61.6195 3.44695C61.6195 4.16783 61.8255 4.78572 62.3404 5.19765Z" fill="black"/>
<path d="M68.3137 6.53646V0.357544H69.2406L72.227 5.19769V3.96191V0.357544H73.0509V6.53646H72.227L69.0346 1.49034V2.72613V6.53646H68.3137Z" fill="black"/>
<path d="M60.9211 15.3825C58.4633 15.3825 56.5176 17.2065 56.5176 19.7399C56.5176 22.172 58.4633 24.0974 60.9211 24.0974C63.3789 24.0974 65.3247 22.2734 65.3247 19.7399C65.3247 17.1052 63.3789 15.3825 60.9211 15.3825ZM60.9211 22.2734C59.5898 22.2734 58.4633 21.1587 58.4633 19.6386C58.4633 18.1186 59.5898 17.0038 60.9211 17.0038C62.2524 17.0038 63.3789 18.0172 63.3789 19.6386C63.3789 21.1587 62.2524 22.2734 60.9211 22.2734ZM51.3972 15.3825C48.9394 15.3825 46.9936 17.2065 46.9936 19.7399C46.9936 22.172 48.9394 24.0974 51.3972 24.0974C53.855 24.0974 55.8007 22.2734 55.8007 19.7399C55.8007 17.1052 53.855 15.3825 51.3972 15.3825ZM51.3972 22.2734C50.0659 22.2734 48.9394 21.1587 48.9394 19.6386C48.9394 18.1186 50.0659 17.0038 51.3972 17.0038C52.7285 17.0038 53.855 18.0172 53.855 19.6386C53.855 21.1587 52.7285 22.2734 51.3972 22.2734ZM40.0299 16.6998V18.5239H44.4335C44.331 19.5373 43.9214 20.348 43.4094 20.8546C42.7949 21.4627 41.7709 22.172 40.0299 22.172C37.2649 22.172 35.2167 20.044 35.2167 17.3079C35.2167 14.5718 37.3673 12.4437 40.0299 12.4437C41.4636 12.4437 42.5901 13.0517 43.4094 13.7611L44.7407 12.4437C43.6142 11.4303 42.1805 10.6196 40.1323 10.6196C36.4456 10.6196 33.271 13.6597 33.271 17.3079C33.271 20.956 36.4456 23.9961 40.1323 23.9961C42.1805 23.9961 43.6142 23.3881 44.8431 22.0707C46.072 20.8546 46.4816 19.1319 46.4816 17.8145C46.4816 17.4092 46.4816 17.0038 46.3792 16.6998H40.0299ZM86.5231 18.1186C86.1134 17.1052 85.0894 15.3825 82.8364 15.3825C80.5834 15.3825 78.7401 17.1052 78.7401 19.7399C78.7401 22.172 80.5834 24.0974 83.0412 24.0974C84.987 24.0974 86.2159 22.8814 86.6255 22.172L85.1918 21.1587C84.6797 21.868 84.0653 22.3747 83.0412 22.3747C82.0171 22.3747 81.4027 21.9694 80.8906 21.0573L86.7279 18.6252L86.5231 18.1186ZM80.5834 19.5373C80.5834 17.9159 81.9147 17.0038 82.8364 17.0038C83.5533 17.0038 84.2701 17.4092 84.4749 17.9159L80.5834 19.5373ZM75.7703 23.6921H77.716V11.025H75.7703V23.6921ZM72.698 16.2945C72.186 15.7878 71.3667 15.2811 70.3426 15.2811C68.1921 15.2811 66.1439 17.2065 66.1439 19.6386C66.1439 22.0707 68.0897 23.8948 70.3426 23.8948C71.3667 23.8948 72.186 23.3881 72.5956 22.8814H72.698V23.4894C72.698 25.1108 71.7764 26.0228 70.3426 26.0228C69.2162 26.0228 68.3969 25.2121 68.1921 24.5028L66.5535 25.2121C67.0656 26.3268 68.2945 27.7456 70.445 27.7456C72.698 27.7456 74.5414 26.4282 74.5414 23.2867V15.5851H72.698V16.2945ZM70.445 22.2734C69.1137 22.2734 67.9873 21.1587 67.9873 19.6386C67.9873 18.1186 69.1137 17.0038 70.445 17.0038C71.7764 17.0038 72.8004 18.1186 72.8004 19.6386C72.8004 21.1587 71.7764 22.2734 70.445 22.2734ZM95.4326 11.025H90.8242V23.6921H92.77V18.9292H95.4326C97.5831 18.9292 99.6313 17.4092 99.6313 14.9771C99.6313 12.545 97.5831 11.025 95.4326 11.025ZM95.535 17.1052H92.77V12.7477H95.535C96.9687 12.7477 97.7879 13.9637 97.7879 14.8758C97.6855 15.9905 96.8663 17.1052 95.535 17.1052ZM107.312 15.2811C105.878 15.2811 104.444 15.8891 103.932 17.2065L105.673 17.9159C106.083 17.2065 106.697 17.0038 107.414 17.0038C108.438 17.0038 109.36 17.6119 109.462 18.6252V18.7266C109.155 18.5239 108.336 18.2199 107.517 18.2199C105.673 18.2199 103.83 19.2333 103.83 21.0573C103.83 22.78 105.366 23.8948 107.005 23.8948C108.336 23.8948 108.95 23.2867 109.462 22.6787H109.565V23.6921H111.408V18.8279C111.203 16.5985 109.462 15.2811 107.312 15.2811ZM107.107 22.2734C106.493 22.2734 105.571 21.9694 105.571 21.1587C105.571 20.1453 106.697 19.8413 107.619 19.8413C108.438 19.8413 108.848 20.044 109.36 20.2466C109.155 21.4627 108.131 22.2734 107.107 22.2734ZM117.86 15.5851L115.709 21.0573H115.607L113.354 15.5851H111.306L114.685 23.2867L112.739 27.5429H114.685L119.908 15.5851H117.86ZM100.655 23.6921H102.601V11.025H100.655V23.6921Z" fill="black"/>
<path d="M1.17047 0.872314C0.861526 1.18126 0.758545 1.69617 0.758545 2.31406V25.0731C0.758545 25.6909 0.964509 26.2059 1.27345 26.5148L1.37644 26.6178L14.1462 13.848V13.745V13.6421L1.17047 0.872314Z" fill="url(#paint0_linear_2952_1463)"/>
<path d="M18.266 18.1733L14.0437 13.951V13.745V13.6421L18.266 9.4198L18.3689 9.52278L23.4151 12.4063C24.8568 13.2301 24.8568 14.5689 23.4151 15.3927L18.266 18.1733Z" fill="url(#paint1_linear_2952_1463)"/>
<path d="M18.3678 18.0704L14.0425 13.7451L1.1698 26.6179C1.68471 27.1328 2.40558 27.1328 3.33242 26.7208L18.3678 18.0704Z" fill="url(#paint2_linear_2952_1463)"/>
<path d="M18.3678 9.41984L3.33242 0.872341C2.40558 0.357432 1.68471 0.460413 1.1698 0.975323L14.0425 13.7451L18.3678 9.41984Z" fill="url(#paint3_linear_2952_1463)"/>
<path opacity="0.2" d="M18.2648 17.9674L3.33242 26.4119C2.50856 26.9268 1.78769 26.8238 1.27278 26.4119L1.1698 26.5149L1.27278 26.6179C1.78769 27.0298 2.50856 27.1328 3.33242 26.6179L18.2648 17.9674Z" fill="black"/>
<path opacity="0.12" d="M1.17047 26.412C0.861526 26.103 0.758545 25.5881 0.758545 24.9702V25.0732C0.758545 25.6911 0.964509 26.206 1.27345 26.5149V26.412H1.17047Z" fill="black"/>
<path opacity="0.12" d="M23.4153 15.0839L18.2662 17.9674L18.3692 18.0704L23.4153 15.1869C24.1362 14.7749 24.4451 14.26 24.4451 13.7451C24.4451 14.26 24.0332 14.672 23.4153 15.0839Z" fill="black"/>
<path opacity="0.25" d="M3.33309 0.975345L23.4146 12.4063C24.0324 12.8183 24.4444 13.2302 24.4444 13.7451C24.4444 13.2302 24.1354 12.7153 23.4146 12.3034L3.33309 0.872363C1.89135 0.048508 0.758545 0.666399 0.758545 2.31411V2.41709C0.758545 0.872363 1.89135 0.15149 3.33309 0.975345Z" fill="black"/>
<defs>
<linearGradient id="paint0_linear_2952_1463" x1="12.91" y1="2.11819" x2="-4.37283" y2="19.401" gradientUnits="userSpaceOnUse">
<stop stop-color="#00A0FF"/>
<stop offset="0.00657445" stop-color="#00A1FF"/>
<stop offset="0.2601" stop-color="#00BEFF"/>
<stop offset="0.5122" stop-color="#00D2FF"/>
<stop offset="0.7604" stop-color="#00DFFF"/>
<stop offset="1" stop-color="#00E3FF"/>
</linearGradient>
<linearGradient id="paint1_linear_2952_1463" x1="25.304" y1="13.7466" x2="0.385627" y2="13.7466" gradientUnits="userSpaceOnUse">
<stop stop-color="#FFE000"/>
<stop offset="0.4087" stop-color="#FFBD00"/>
<stop offset="0.7754" stop-color="#FFA500"/>
<stop offset="1" stop-color="#FF9C00"/>
</linearGradient>
<linearGradient id="paint2_linear_2952_1463" x1="16.0269" y1="16.1098" x2="-7.41003" y2="39.5467" gradientUnits="userSpaceOnUse">
<stop stop-color="#FF3A44"/>
<stop offset="1" stop-color="#C31162"/>
</linearGradient>
<linearGradient id="paint3_linear_2952_1463" x1="-2.02552" y1="-6.66974" x2="8.44011" y2="3.79579" gradientUnits="userSpaceOnUse">
<stop stop-color="#32A071"/>
<stop offset="0.0685" stop-color="#2DA771"/>
<stop offset="0.4762" stop-color="#15CF74"/>
<stop offset="0.8009" stop-color="#06E775"/>
<stop offset="1" stop-color="#00F076"/>
</linearGradient>
</defs>
</svg>
