<svg width="25" height="24" viewBox="0 0 25 24" fill="none" xmlns="http://www.w3.org/2000/svg">
<path d="M23.4354 5.39786C23.405 5.3619 23.3547 5.3497 23.3118 5.36931C22.6763 5.65156 22.0077 5.85446 21.319 5.97433C22.0501 5.4238 22.5948 4.66142 22.8742 3.78724C22.8877 3.74539 22.8737 3.69962 22.8396 3.67238C22.8052 3.64513 22.7575 3.64165 22.7198 3.6641C21.8964 4.15295 21.0047 4.49753 20.068 4.68866C19.2381 3.82647 18.0792 3.33325 16.8798 3.33325C14.4405 3.33325 12.4563 5.31962 12.4563 7.76128C12.4563 8.0566 12.4848 8.34909 12.5414 8.63307C9.1629 8.42428 6.00385 6.80057 3.85587 4.16319C3.83388 4.13617 3.80057 4.12113 3.76574 4.12462C3.73112 4.12723 3.7002 4.14685 3.68279 4.17671C3.2909 4.84973 3.08385 5.61974 3.08385 6.40304C3.08385 7.76063 3.69999 9.02995 4.74916 9.86752C4.209 9.80258 3.68148 9.63236 3.20577 9.36799C3.17377 9.3499 3.13393 9.35012 3.10192 9.36864C3.06992 9.38695 3.04967 9.42095 3.0488 9.458L3.04836 9.51467C3.04836 11.4644 4.3318 13.1764 6.15777 13.7448C5.67684 13.8224 5.17784 13.8172 4.68732 13.7234C4.65118 13.7167 4.6133 13.7291 4.58848 13.757C4.56388 13.7849 4.55561 13.8239 4.56693 13.8592C5.11448 15.5701 6.63588 16.7699 8.40677 16.9194C6.92957 18.0028 5.1835 18.5736 3.33858 18.5736C2.99872 18.5736 2.65648 18.5534 2.3212 18.5139C2.2733 18.5085 2.22584 18.537 2.20929 18.583C2.19274 18.6294 2.21038 18.6813 2.25174 18.7077C4.24819 19.9894 6.55663 20.6666 8.92777 20.6666C16.6839 20.6666 21.3186 14.3596 21.3186 8.26234C21.3186 8.09256 21.3153 7.92365 21.3086 7.75518C22.1453 7.14253 22.8635 6.39258 23.4426 5.52449C23.4685 5.4857 23.4657 5.43404 23.4354 5.39786Z" fill="white"/>
</svg>
