<svg width="24" height="24" viewBox="0 0 24 24" fill="none" xmlns="http://www.w3.org/2000/svg">
<g filter="url(#filter0_i_2520_20166)">
<path d="M12.7328 21.7147H18.3399L18.3705 16.6575H20.2498C20.2498 15.8584 20.2498 15.346 20.2498 14.652C20.2498 14.3758 20.0259 14.1519 19.7498 14.1519H11.3535C11.0774 14.1519 10.8535 14.3757 10.8535 14.6519V16.6575H12.7328V21.7147Z" fill="#4C75BA" fill-opacity="0.2"/>
</g>
<path d="M18.3705 16.4075H18.122L18.1205 16.656L18.0914 21.4647H12.9828V16.6575V16.4075H12.7328H11.1035V14.6519C11.1035 14.5138 11.2154 14.4019 11.3535 14.4019H19.7498C19.8878 14.4019 19.9998 14.5138 19.9998 14.652V14.656V14.6601V14.6641V14.6682V14.6722V14.6763V14.6803V14.6844V14.6884V14.6924V14.6964V14.7005V14.7045V14.7085V14.7125V14.7165V14.7205V14.7245V14.7285V14.7325V14.7365V14.7404V14.7444V14.7484V14.7524V14.7563V14.7603V14.7643V14.7682V14.7722V14.7761V14.7801V14.784V14.7879V14.7919V14.7958V14.7997V14.8037V14.8076V14.8115V14.8154V14.8193V14.8232V14.8272V14.8311V14.835V14.8388V14.8427V14.8466V14.8505V14.8544V14.8583V14.8622V14.866V14.8699V14.8738V14.8776V14.8815V14.8854V14.8892V14.8931V14.8969V14.9008V14.9046V14.9085V14.9123V14.9161V14.92V14.9238V14.9276V14.9314V14.9353V14.9391V14.9429V14.9467V14.9505V14.9543V14.9581V14.962V14.9658V14.9696V14.9734V14.9771V14.9809V14.9847V14.9885V14.9923V14.9961V14.9999V15.0036V15.0074V15.0112V15.015V15.0187V15.0225V15.0263V15.03V15.0338V15.0376V15.0413V15.0451V15.0488V15.0526V15.0563V15.0601V15.0638V15.0675V15.0713V15.075V15.0788V15.0825V15.0862V15.09V15.0937V15.0974V15.1011V15.1049V15.1086V15.1123V15.116V15.1198V15.1235V15.1272V15.1309V15.1346V15.1383V15.142V15.1457V15.1494V15.1531V15.1568V15.1605V15.1642V15.1679V15.1716V15.1753V15.179V15.1827V15.1864V15.1901V15.1938V15.1975V15.2012V15.2048V15.2085V15.2122V15.2159V15.2196V15.2233V15.2269V15.2306V15.2343V15.238V15.2416V15.2453V15.249V15.2527V15.2563V15.26V15.2637V15.2673V15.271V15.2747V15.2783V15.282V15.2857V15.2893V15.293V15.2967V15.3003V15.304V15.3077V15.3113V15.315V15.3186V15.3223V15.326V15.3296V15.3333V15.3369V15.3406V15.3442V15.3479V15.3516V15.3552V15.3589V15.3625V15.3662V15.3698V15.3735V15.3771V15.3808V15.3845V15.3881V15.3918V15.3954V15.3991V15.4027V15.4064V15.41V15.4137V15.4173V15.421V15.4246V15.4283V15.432V15.4356V15.4393V15.4429V15.4466V15.4502V15.4539V15.4575V15.4612V15.4649V15.4685V15.4722V15.4758V15.4795V15.4831V15.4868V15.4905V15.4941V15.4978V15.5014V15.5051V15.5088V15.5124V15.5161V15.5198V15.5234V15.5271V15.5308V15.5344V15.5381V15.5418V15.5454V15.5491V15.5528V15.5564V15.5601V15.5638V15.5675V15.5711V15.5748V15.5785V15.5822V15.5858V15.5895V15.5932V15.5969V15.6006V15.6043V15.6079V15.6116V15.6153V15.619V15.6227V15.6264V15.6301V15.6338V15.6375V15.6412V15.6449V15.6486V15.6523V15.656V15.6597V15.6634V15.6671V15.6708V15.6745V15.6782V15.6819V15.6856V15.6893V15.6931V15.6968V15.7005V15.7042V15.708V15.7117V15.7154V15.7191V15.7229V15.7266V15.7303V15.7341V15.7378V15.7416V15.7453V15.749V15.7528V15.7565V15.7603V15.764V15.7678V15.7715V15.7753V15.7791V15.7828V15.7866V15.7904V15.7941V15.7979V15.8017V15.8055V15.8092V15.813V15.8168V15.8206V15.8244V15.8282V15.8319V15.8357V15.8395V15.8433V15.8471V15.8509V15.8548V15.8586V15.8624V15.8662V15.87V15.8738V15.8776V15.8815V15.8853V15.8891V15.893V15.8968V15.9006V15.9045V15.9083V15.9122V15.916V15.9199V15.9237V15.9276V15.9315V15.9353V15.9392V15.9431V15.9469V15.9508V15.9547V15.9586V15.9625V15.9663V15.9702V15.9741V15.978V15.9819V15.9858V15.9898V15.9937V15.9976V16.0015V16.0054V16.0093V16.0133V16.0172V16.0211V16.0251V16.029V16.033V16.0369V16.0409V16.0448V16.0488V16.0527V16.0567V16.0607V16.0647V16.0686V16.0726V16.0766V16.0806V16.0846V16.0886V16.0926V16.0966V16.1006V16.1046V16.1086V16.1126V16.1167V16.1207V16.1247V16.1288V16.1328V16.1368V16.1409V16.1449V16.149V16.1531V16.1571V16.1612V16.1653V16.1693V16.1734V16.1775V16.1816V16.1857V16.1898V16.1939V16.198V16.2021V16.2062V16.2103V16.2145V16.2186V16.2227V16.2269V16.231V16.2352V16.2393V16.2435V16.2476V16.2518V16.256V16.2601V16.2643V16.2685V16.2727V16.2769V16.2811V16.2853V16.2895V16.2937V16.2979V16.3021V16.3064V16.3106V16.3148V16.3191V16.3233V16.3276V16.3318V16.3361V16.3404V16.3446V16.3489V16.3532V16.3575V16.3618V16.3661V16.3704V16.3747V16.379V16.3833V16.3876V16.392V16.3963V16.4006V16.405V16.4075H18.3705Z" stroke="url(#paint0_linear_2520_20166)" stroke-width="0.5"/>
<g filter="url(#filter1_i_2520_20166)">
<path d="M13.6725 2.25C14.3644 2.25 14.9253 2.81091 14.9253 3.50283L14.9253 13.5255L12.4196 13.5255L12.4196 3.50283C12.4196 2.81091 12.9805 2.25 13.6725 2.25Z" fill="#4C75BA" fill-opacity="0.2"/>
</g>
<path d="M13.6725 2.5C14.2263 2.5 14.6753 2.94898 14.6753 3.50283L14.6753 13.2755L12.6696 13.2755L12.6696 3.50283C12.6696 2.94898 13.1186 2.5 13.6725 2.5Z" stroke="url(#paint1_linear_2520_20166)" stroke-width="0.5"/>
<g filter="url(#filter2_i_2520_20166)">
<path d="M17.4308 2.25C18.1227 2.25 18.6836 2.81091 18.6836 3.50283L18.6836 13.5255L16.1779 13.5255L16.1779 3.50283C16.1779 2.81091 16.7388 2.25 17.4308 2.25Z" fill="#4C75BA" fill-opacity="0.2"/>
</g>
<path d="M17.4308 2.5C17.9846 2.5 18.4336 2.94898 18.4336 3.50283L18.4336 13.2755L16.4279 13.2755L16.4279 3.50283C16.4279 2.94898 16.8769 2.5 17.4308 2.5Z" stroke="url(#paint2_linear_2520_20166)" stroke-width="0.5"/>
<path d="M13.8705 16.4075H13.622L13.6205 16.656L13.5914 21.4647H8.48276V16.6575V16.4075H8.23276H6.60352V14.6519C6.60352 14.5138 6.71544 14.4019 6.85352 14.4019H15.2498C15.3878 14.4019 15.4998 14.5138 15.4998 14.652V14.656V14.6601V14.6641V14.6682V14.6722V14.6763V14.6803V14.6844V14.6884V14.6924V14.6964V14.7005V14.7045V14.7085V14.7125V14.7165V14.7205V14.7245V14.7285V14.7325V14.7365V14.7404V14.7444V14.7484V14.7524V14.7563V14.7603V14.7643V14.7682V14.7722V14.7761V14.7801V14.784V14.7879V14.7919V14.7958V14.7997V14.8037V14.8076V14.8115V14.8154V14.8193V14.8232V14.8272V14.8311V14.835V14.8388V14.8427V14.8466V14.8505V14.8544V14.8583V14.8622V14.866V14.8699V14.8738V14.8776V14.8815V14.8854V14.8892V14.8931V14.8969V14.9008V14.9046V14.9085V14.9123V14.9161V14.92V14.9238V14.9276V14.9314V14.9353V14.9391V14.9429V14.9467V14.9505V14.9543V14.9581V14.962V14.9658V14.9696V14.9734V14.9771V14.9809V14.9847V14.9885V14.9923V14.9961V14.9999V15.0036V15.0074V15.0112V15.015V15.0187V15.0225V15.0263V15.03V15.0338V15.0376V15.0413V15.0451V15.0488V15.0526V15.0563V15.0601V15.0638V15.0675V15.0713V15.075V15.0788V15.0825V15.0862V15.09V15.0937V15.0974V15.1011V15.1049V15.1086V15.1123V15.116V15.1198V15.1235V15.1272V15.1309V15.1346V15.1383V15.142V15.1457V15.1494V15.1531V15.1568V15.1605V15.1642V15.1679V15.1716V15.1753V15.179V15.1827V15.1864V15.1901V15.1938V15.1975V15.2012V15.2048V15.2085V15.2122V15.2159V15.2196V15.2233V15.2269V15.2306V15.2343V15.238V15.2416V15.2453V15.249V15.2527V15.2563V15.26V15.2637V15.2673V15.271V15.2747V15.2783V15.282V15.2857V15.2893V15.293V15.2967V15.3003V15.304V15.3077V15.3113V15.315V15.3186V15.3223V15.326V15.3296V15.3333V15.3369V15.3406V15.3442V15.3479V15.3516V15.3552V15.3589V15.3625V15.3662V15.3698V15.3735V15.3771V15.3808V15.3845V15.3881V15.3918V15.3954V15.3991V15.4027V15.4064V15.41V15.4137V15.4173V15.421V15.4246V15.4283V15.432V15.4356V15.4393V15.4429V15.4466V15.4502V15.4539V15.4575V15.4612V15.4649V15.4685V15.4722V15.4758V15.4795V15.4831V15.4868V15.4905V15.4941V15.4978V15.5014V15.5051V15.5088V15.5124V15.5161V15.5198V15.5234V15.5271V15.5308V15.5344V15.5381V15.5418V15.5454V15.5491V15.5528V15.5564V15.5601V15.5638V15.5675V15.5711V15.5748V15.5785V15.5822V15.5858V15.5895V15.5932V15.5969V15.6006V15.6043V15.6079V15.6116V15.6153V15.619V15.6227V15.6264V15.6301V15.6338V15.6375V15.6412V15.6449V15.6486V15.6523V15.656V15.6597V15.6634V15.6671V15.6708V15.6745V15.6782V15.6819V15.6856V15.6893V15.6931V15.6968V15.7005V15.7042V15.708V15.7117V15.7154V15.7191V15.7229V15.7266V15.7303V15.7341V15.7378V15.7416V15.7453V15.749V15.7528V15.7565V15.7603V15.764V15.7678V15.7715V15.7753V15.7791V15.7828V15.7866V15.7904V15.7941V15.7979V15.8017V15.8055V15.8092V15.813V15.8168V15.8206V15.8244V15.8282V15.8319V15.8357V15.8395V15.8433V15.8471V15.8509V15.8548V15.8586V15.8624V15.8662V15.87V15.8738V15.8776V15.8815V15.8853V15.8891V15.893V15.8968V15.9006V15.9045V15.9083V15.9122V15.916V15.9199V15.9237V15.9276V15.9315V15.9353V15.9392V15.9431V15.9469V15.9508V15.9547V15.9586V15.9625V15.9663V15.9702V15.9741V15.978V15.9819V15.9858V15.9898V15.9937V15.9976V16.0015V16.0054V16.0093V16.0133V16.0172V16.0211V16.0251V16.029V16.033V16.0369V16.0409V16.0448V16.0488V16.0527V16.0567V16.0607V16.0647V16.0686V16.0726V16.0766V16.0806V16.0846V16.0886V16.0926V16.0966V16.1006V16.1046V16.1086V16.1126V16.1167V16.1207V16.1247V16.1288V16.1328V16.1368V16.1409V16.1449V16.149V16.1531V16.1571V16.1612V16.1653V16.1693V16.1734V16.1775V16.1816V16.1857V16.1898V16.1939V16.198V16.2021V16.2062V16.2103V16.2145V16.2186V16.2227V16.2269V16.231V16.2352V16.2393V16.2435V16.2476V16.2518V16.256V16.2601V16.2643V16.2685V16.2727V16.2769V16.2811V16.2853V16.2895V16.2937V16.2979V16.3021V16.3064V16.3106V16.3148V16.3191V16.3233V16.3276V16.3318V16.3361V16.3404V16.3446V16.3489V16.3532V16.3575V16.3618V16.3661V16.3704V16.3747V16.379V16.3833V16.3876V16.392V16.3963V16.4006V16.405V16.4075H13.8705Z" stroke="#0876E4" stroke-width="0.5"/>
<path d="M9.17246 2.5C9.72631 2.5 10.1753 2.94898 10.1753 3.50283L10.1753 13.2755L8.16963 13.2755L8.16963 3.50283C8.16963 2.94898 8.61861 2.5 9.17246 2.5Z" fill="#0876E4" stroke="#0876E4" stroke-width="0.5"/>
<path d="M12.9308 2.5C13.4846 2.5 13.9336 2.94898 13.9336 3.50283L13.9336 13.2755L11.9279 13.2755L11.9279 3.50283C11.9279 2.94898 12.3769 2.5 12.9308 2.5Z" fill="#0876E4" stroke="#0876E4" stroke-width="0.5"/>
<defs>
<filter id="filter0_i_2520_20166" x="8.85352" y="12.1519" width="11.3965" height="9.56281" filterUnits="userSpaceOnUse" color-interpolation-filters="sRGB">
<feFlood flood-opacity="0" result="BackgroundImageFix"/>
<feBlend mode="normal" in="SourceGraphic" in2="BackgroundImageFix" result="shape"/>
<feColorMatrix in="SourceAlpha" type="matrix" values="0 0 0 0 0 0 0 0 0 0 0 0 0 0 0 0 0 0 127 0" result="hardAlpha"/>
<feOffset dx="-2" dy="-2"/>
<feGaussianBlur stdDeviation="3"/>
<feComposite in2="hardAlpha" operator="arithmetic" k2="-1" k3="1"/>
<feColorMatrix type="matrix" values="0 0 0 0 0.983333 0 0 0 0 0.989394 0 0 0 0 1 0 0 0 0.8 0"/>
<feBlend mode="normal" in2="shape" result="effect1_innerShadow_2520_20166"/>
</filter>
<filter id="filter1_i_2520_20166" x="10.4194" y="0.25" width="4.50586" height="13.2755" filterUnits="userSpaceOnUse" color-interpolation-filters="sRGB">
<feFlood flood-opacity="0" result="BackgroundImageFix"/>
<feBlend mode="normal" in="SourceGraphic" in2="BackgroundImageFix" result="shape"/>
<feColorMatrix in="SourceAlpha" type="matrix" values="0 0 0 0 0 0 0 0 0 0 0 0 0 0 0 0 0 0 127 0" result="hardAlpha"/>
<feOffset dx="-2" dy="-2"/>
<feGaussianBlur stdDeviation="3"/>
<feComposite in2="hardAlpha" operator="arithmetic" k2="-1" k3="1"/>
<feColorMatrix type="matrix" values="0 0 0 0 0.983333 0 0 0 0 0.989394 0 0 0 0 1 0 0 0 0.8 0"/>
<feBlend mode="normal" in2="shape" result="effect1_innerShadow_2520_20166"/>
</filter>
<filter id="filter2_i_2520_20166" x="14.1777" y="0.25" width="4.50586" height="13.2755" filterUnits="userSpaceOnUse" color-interpolation-filters="sRGB">
<feFlood flood-opacity="0" result="BackgroundImageFix"/>
<feBlend mode="normal" in="SourceGraphic" in2="BackgroundImageFix" result="shape"/>
<feColorMatrix in="SourceAlpha" type="matrix" values="0 0 0 0 0 0 0 0 0 0 0 0 0 0 0 0 0 0 127 0" result="hardAlpha"/>
<feOffset dx="-2" dy="-2"/>
<feGaussianBlur stdDeviation="3"/>
<feComposite in2="hardAlpha" operator="arithmetic" k2="-1" k3="1"/>
<feColorMatrix type="matrix" values="0 0 0 0 0.983333 0 0 0 0 0.989394 0 0 0 0 1 0 0 0 0.8 0"/>
<feBlend mode="normal" in2="shape" result="effect1_innerShadow_2520_20166"/>
</filter>
<linearGradient id="paint0_linear_2520_20166" x1="10.8535" y1="14.2239" x2="18.8082" y2="23.1478" gradientUnits="userSpaceOnUse">
<stop stop-color="#E9EDF4"/>
<stop offset="1" stop-color="#E8EDF7"/>
</linearGradient>
<linearGradient id="paint1_linear_2520_20166" x1="14.9014" y1="2.25" x2="9.89857" y2="3.48124" gradientUnits="userSpaceOnUse">
<stop stop-color="#E9EDF4"/>
<stop offset="1" stop-color="#E8EDF7"/>
</linearGradient>
<linearGradient id="paint2_linear_2520_20166" x1="18.6597" y1="2.25" x2="13.6569" y2="3.48124" gradientUnits="userSpaceOnUse">
<stop stop-color="#E9EDF4"/>
<stop offset="1" stop-color="#E8EDF7"/>
</linearGradient>
</defs>
</svg>
