<svg width="41" height="20" viewBox="0 0 41 20" fill="none" xmlns="http://www.w3.org/2000/svg">
<g clip-path="url(#clip0_2927_6596)">
<path d="M0.987488 0.0664062H40.7226V19.934H0.987488V0.0664062Z" fill="#00AFCA"/>
<path d="M3.33146 5.87029C3.33146 6.27308 3.69292 6.47996 3.97716 6.47996C4.35994 6.47996 4.56378 6.25109 4.56378 5.95149C4.56378 5.78168 4.53265 5.67506 4.45438 5.51255C4.45438 5.51255 3.82299 4.19943 3.57716 3.69162C3.54656 3.62831 3.53663 3.55612 3.53663 3.45043C3.53663 3.28712 3.69491 3.15374 3.861 3.14963C4.01239 3.14579 4.17729 3.29069 4.17729 3.45586C4.17729 3.65639 4.07318 3.74579 3.96643 3.74579C3.83491 3.74579 3.78259 3.69175 3.78259 3.59943C3.78259 3.53519 3.81371 3.50725 3.85835 3.50725C3.97106 3.50725 3.93941 3.65904 3.93941 3.65904C3.9953 3.64672 4.0414 3.58963 4.01504 3.51811C4.05597 3.50897 4.09438 3.48751 4.12457 3.45308C4.09424 3.4238 4.05967 3.40116 4.01504 3.39347C4.0414 3.30632 4.00616 3.26367 3.92987 3.24579C3.94524 3.2793 3.9459 3.31016 3.94073 3.3393C3.8206 3.30513 3.63663 3.35943 3.63663 3.56698C3.63663 3.77294 3.77954 3.94632 4.04762 3.90301C3.98391 3.93347 3.95146 3.99586 3.94497 4.06566C3.99358 4.04672 4.04762 4.04394 4.04762 4.04394C4.01623 4.09917 3.97279 4.14685 3.97464 4.25533C4.02431 4.23268 4.07053 4.19096 4.13411 4.21745C4.03424 4.414 4.15689 4.6846 4.46934 4.74857C4.35504 4.61453 4.29901 4.4699 4.29901 4.32579C4.29901 3.85904 4.42868 3.78049 4.42868 3.45599C4.42868 3.32023 4.35888 3.17361 4.2206 3.07387V3.0793C4.31199 3.0548 4.37053 3.00976 4.40431 2.94857C4.19544 2.88937 3.89173 2.89043 3.72868 2.95453C3.54126 2.97625 3.4104 3.1201 3.37186 3.19308C3.33332 3.26606 3.25848 3.5299 3.37186 3.76751C3.49597 4.02751 4.08126 5.2687 4.26378 5.6589C4.30246 5.74168 4.32603 5.82937 4.32603 5.92447C4.32603 6.16341 4.10709 6.24685 3.98272 6.24685C3.83411 6.24685 3.68272 6.13361 3.68272 5.99215C3.68272 5.90248 3.73133 5.84857 3.80166 5.84857C3.96974 5.84857 3.95954 5.99149 3.92603 6.08169C4.03067 6.03467 4.09146 5.95069 4.07477 5.86221C4.13398 5.85414 4.1904 5.82606 4.24232 5.76738C4.2014 5.71572 4.15146 5.67665 4.07477 5.6752C4.10828 5.53784 4.01636 5.47983 3.92603 5.44765C3.95451 5.54844 3.97332 5.66433 3.80166 5.66433C3.67649 5.66433 3.57808 5.68606 3.52047 5.76738C3.51716 5.65904 3.50696 5.23082 3.50696 5.23082C3.49981 5.0699 3.72232 5.07453 3.86378 5.12248C3.8104 4.93718 3.701 4.83692 3.44749 4.86235C3.50895 4.83665 3.57451 4.77877 3.57451 4.66725C3.57451 4.51639 3.45212 4.34923 3.37173 4.29983L3.33146 5.87029ZM23.0462 5.43268C23.2023 5.46168 23.2802 5.37599 23.3034 5.25904C23.3344 5.10327 23.2678 4.31851 23.2678 4.31851C23.2678 4.31851 22.9059 5.01798 22.8749 5.17374C22.8516 5.29082 22.8903 5.40168 23.0462 5.43268ZM23.6157 5.60553C23.7632 5.66447 23.8562 5.59559 23.9019 5.48553C23.9627 5.33877 24.0504 4.55612 24.0504 4.55612C24.0504 4.55612 23.5591 5.17149 23.4983 5.31837C23.4528 5.42831 23.4689 5.54473 23.6157 5.60553ZM24.1407 5.88606C24.2738 5.97268 24.3786 5.92327 24.4448 5.8242C24.5331 5.69215 24.7717 4.94168 24.7717 4.94168C24.7717 4.94168 24.1697 5.44937 24.0815 5.58155C24.0153 5.68049 24.0085 5.79784 24.1407 5.88606ZM24.6007 6.26367C24.7145 6.37453 24.8268 6.34645 24.9111 6.26221C25.0234 6.1499 25.4039 5.46049 25.4039 5.46049C25.4039 5.46049 24.7145 5.84102 24.6022 5.95334C24.518 6.03758 24.4884 6.15135 24.6007 6.26367ZM24.9785 6.7238C25.0684 6.8548 25.184 6.8491 25.2831 6.78301C25.4152 6.6948 25.923 6.09281 25.923 6.09281C25.923 6.09281 25.1725 6.33149 25.0405 6.41983C24.9413 6.48592 24.8901 6.59175 24.9785 6.7238ZM25.259 7.2487C25.3217 7.3948 25.4361 7.41175 25.5463 7.36619C25.6931 7.30539 26.3084 6.81414 26.3084 6.81414C26.3084 6.81414 25.5258 6.90182 25.379 6.96261C25.2689 7.00818 25.1982 7.10195 25.259 7.2487ZM25.4317 7.81837C25.4647 7.97374 25.5737 8.01281 25.6905 7.98963C25.8463 7.95864 26.5458 7.59678 26.5458 7.59678C26.5458 7.59678 25.7611 7.53016 25.6052 7.56115C25.4885 7.58433 25.4009 7.66248 25.4317 7.81837ZM25.4901 8.41069C25.4921 8.5695 25.5915 8.6291 25.7105 8.6291C25.8695 8.6291 26.626 8.41069 26.626 8.41069C26.626 8.41069 25.8695 8.19228 25.7105 8.19228C25.5915 8.19228 25.4901 8.25188 25.4901 8.41069ZM25.4317 9.00301C25.4027 9.15917 25.4884 9.23705 25.6054 9.26023C25.7611 9.29122 26.5459 9.2246 26.5459 9.2246C26.5459 9.2246 25.8464 8.86274 25.6907 8.83175C25.5737 8.80857 25.4627 8.84725 25.4317 9.00301ZM25.259 9.57268C25.2001 9.72023 25.2689 9.81321 25.379 9.85877C25.5258 9.91957 26.3084 10.0072 26.3084 10.0072C26.3084 10.0072 25.6931 9.51599 25.5463 9.45519C25.4361 9.40963 25.3198 9.42592 25.259 9.57268ZM24.9785 10.0976C24.8919 10.2307 24.9413 10.3355 25.0403 10.4017C25.1724 10.49 25.9229 10.7287 25.9229 10.7287C25.9229 10.7287 25.4152 10.1267 25.283 10.0385C25.1839 9.97228 25.0667 9.96553 24.9785 10.0976ZM24.6007 10.5577C24.4899 10.6714 24.518 10.7838 24.6022 10.868C24.7145 10.9804 25.4039 11.3609 25.4039 11.3609C25.4039 11.3609 25.0234 10.6714 24.9111 10.5592C24.827 10.4748 24.7132 10.4453 24.6007 10.5577ZM24.1407 10.9353C24.0097 11.0253 24.0153 11.1409 24.0815 11.24C24.1697 11.3721 24.7717 11.8798 24.7717 11.8798C24.7717 11.8798 24.5331 11.1294 24.4448 10.9973C24.3786 10.8981 24.2728 10.8471 24.1407 10.9353ZM23.6157 11.2159C23.4696 11.2785 23.4527 11.3931 23.4982 11.5031C23.559 11.6499 24.0503 12.2654 24.0503 12.2654C24.0503 12.2654 23.9626 11.4827 23.9018 11.336C23.8564 11.2258 23.7625 11.1551 23.6157 11.2159ZM20.767 10.9353C20.6338 10.8487 20.5291 10.8982 20.4629 10.9973C20.3746 11.1294 20.136 11.8798 20.136 11.8798C20.136 11.8798 20.7378 11.3721 20.8262 11.24C20.8923 11.1409 20.899 11.0235 20.767 10.9353ZM20.3068 10.5577C20.193 10.4467 20.0807 10.4748 19.9965 10.5592C19.8842 10.6715 19.5036 11.3609 19.5036 11.3609C19.5036 11.3609 20.1931 10.9804 20.3054 10.868C20.3897 10.7838 20.4191 10.67 20.3068 10.5577ZM19.9292 10.0976C19.8393 9.96659 19.7236 9.97228 19.6246 10.0384C19.4925 10.1267 18.9847 10.7286 18.9847 10.7286C18.9847 10.7286 19.735 10.4899 19.8672 10.4016C19.9664 10.3355 20.0174 10.2296 19.9292 10.0976ZM19.6487 9.57268C19.586 9.42659 19.4716 9.40963 19.3614 9.45519C19.2146 9.51599 18.5993 10.0072 18.5993 10.0072C18.5993 10.0072 19.3819 9.91957 19.5287 9.85877C19.6387 9.81321 19.7095 9.71943 19.6487 9.57268ZM19.4758 9.00301C19.4429 8.84765 19.3338 8.80857 19.217 8.83175C19.0613 8.86274 18.3618 9.2246 18.3618 9.2246C18.3618 9.2246 19.1464 9.29122 19.3023 9.26023C19.4191 9.23705 19.5068 9.1589 19.4758 9.00301ZM19.4176 8.41069C19.4156 8.25188 19.3162 8.19228 19.1972 8.19228C19.0382 8.19228 18.2817 8.41069 18.2817 8.41069C18.2817 8.41069 19.0382 8.6291 19.1972 8.6291C19.3162 8.6291 19.4176 8.5695 19.4176 8.41069ZM19.4758 7.81837C19.5048 7.66221 19.4191 7.58433 19.3022 7.56115C19.1464 7.53016 18.3617 7.59678 18.3617 7.59678C18.3617 7.59678 19.0611 7.95864 19.2169 7.98963C19.3338 8.01281 19.4448 7.97414 19.4758 7.81837ZM19.6487 7.2487C19.7076 7.10116 19.6387 7.00818 19.5287 6.96261C19.3819 6.90182 18.5993 6.81414 18.5993 6.81414C18.5993 6.81414 19.2146 7.30539 19.3614 7.36619C19.4715 7.41175 19.5879 7.39546 19.6487 7.2487ZM19.9292 6.7238C20.0158 6.59056 19.9664 6.48592 19.8674 6.4197C19.7352 6.33135 18.9848 6.09268 18.9848 6.09268C18.9848 6.09268 19.4925 6.69467 19.6247 6.78288C19.7236 6.8491 19.841 6.85586 19.9292 6.7238ZM20.3068 6.26367C20.4177 6.1499 20.3897 6.03758 20.3054 5.95334C20.1931 5.84102 19.5036 5.46049 19.5036 5.46049C19.5036 5.46049 19.8842 6.1499 19.9965 6.26221C20.0807 6.34659 20.1945 6.37599 20.3068 6.26367Z" fill="#FEC50C"/>
<path d="M22.4504 11.0874C23.9267 11.0874 25.1235 9.89064 25.1235 8.41432C25.1235 6.938 23.9267 5.74121 22.4504 5.74121C20.9741 5.74121 19.7773 6.938 19.7773 8.41432C19.7773 9.89064 20.9741 11.0874 22.4504 11.0874Z" fill="#FEC50C"/>
<path d="M22.4539 5.37466C22.6128 5.37268 22.6723 5.27334 22.6723 5.15427C22.6723 4.99546 22.4539 4.23877 22.4539 4.23877C22.4539 4.23877 22.2355 4.99533 22.2355 5.15427C22.2355 5.27334 22.2949 5.37466 22.4539 5.37466ZM23.0462 11.3888C22.8907 11.4218 22.8516 11.5308 22.8749 11.6476C22.9059 11.8035 23.2678 12.5029 23.2678 12.5029C23.2678 12.5029 23.3344 11.7182 23.3034 11.5623C23.2802 11.4457 23.2019 11.358 23.0462 11.3888ZM22.4539 11.4472C22.2951 11.4494 22.2355 11.5486 22.2355 11.6678C22.2355 11.8267 22.4539 12.5833 22.4539 12.5833C22.4539 12.5833 22.6723 11.8267 22.6723 11.6678C22.6723 11.5484 22.6127 11.4472 22.4539 11.4472ZM21.8614 11.3888C21.7053 11.3598 21.6274 11.4457 21.6042 11.5625C21.5732 11.7184 21.6398 12.503 21.6398 12.503C21.6398 12.503 22.0017 11.8037 22.0327 11.6478C22.056 11.531 22.0173 11.42 21.8614 11.3888ZM21.2919 11.2161C21.1443 11.1572 21.0513 11.2262 21.0057 11.3363C20.9449 11.483 20.8572 12.2657 20.8572 12.2657C20.8572 12.2657 21.3486 11.6503 21.4092 11.5034C21.4549 11.3933 21.4386 11.2769 21.2919 11.2161ZM20.767 5.88632C20.898 5.79639 20.8924 5.68076 20.8262 5.58168C20.7378 5.44963 20.136 4.94182 20.136 4.94182C20.136 4.94182 20.3747 5.69228 20.4629 5.82433C20.5291 5.92354 20.6349 5.97466 20.767 5.88632ZM21.2919 5.60579C21.438 5.54314 21.4549 5.42857 21.4094 5.3185C21.3486 5.17175 20.8573 4.55625 20.8573 4.55625C20.8573 4.55625 20.945 5.3389 21.0058 5.48566C21.0514 5.59586 21.1451 5.66658 21.2919 5.60579ZM21.8614 5.43294C22.0168 5.39996 22.0559 5.29095 22.0327 5.17413C22.0017 5.01824 21.6398 4.3189 21.6398 4.3189C21.6398 4.3189 21.5732 5.10354 21.6042 5.25943C21.6275 5.37625 21.7057 5.46393 21.8614 5.43294Z" fill="#FEC50C"/>
<path d="M22.361 13.0788L22.3149 13.1711L22.2636 13.289L22.2329 13.3454L22.2073 13.3967L22.1868 13.4378L22.1612 13.4633L22.0998 13.4121L22.0332 13.3658L21.9614 13.33L21.8846 13.2992L21.8026 13.2787L21.7206 13.2582L21.6386 13.2428L21.5514 13.2326L21.372 13.2172L21.1926 13.2121L21.0183 13.2017L20.8544 13.1813L20.7622 13.166L20.675 13.1454L20.6289 13.1301L20.5828 13.1147L20.5418 13.0942L20.5059 13.0738L20.4495 13.0379L20.3932 12.9968L20.3317 12.9507L20.2753 12.8995L20.1574 12.7868L20.0395 12.6739L19.9216 12.5662L19.814 12.4689L19.7627 12.433L19.7114 12.3971L19.6654 12.3766L19.6193 12.3612L19.5321 12.3408L19.4553 12.3152L19.3783 12.2896L19.3014 12.2537L19.2348 12.2229L19.1681 12.1819L19.1067 12.1408L19.0503 12.0998L18.9888 12.0537L18.9375 12.0074L18.8863 11.9562L18.835 11.9049L18.7377 11.7972L18.6454 11.6844L18.4608 11.4436L18.2661 11.1976L18.1534 11.0798L18.0355 10.9619L17.9689 10.9004L17.9023 10.844L17.8305 10.7927L17.7537 10.7363L17.7383 10.7415L17.723 10.7568L17.7076 10.7774L17.6974 10.8029L17.682 10.849L17.6769 10.8696L17.641 10.8542L17.6103 10.8388L17.5744 10.8235L17.5436 10.8131H17.477L17.4411 10.8235L17.4052 10.8388L17.4411 10.885L17.4872 10.9465L17.5333 11.0183L17.5744 11.0952L17.6154 11.1772L17.6461 11.2542L17.6565 11.2952L17.6667 11.326L17.6718 11.3619V11.3926H17.395L17.4361 11.4541L17.4822 11.5155L17.5334 11.577L17.5899 11.6334L17.6463 11.6898L17.7026 11.7461L17.759 11.7922L17.8103 11.8281L17.754 11.8333L17.677 11.8384L17.6001 11.8486L17.5438 11.8538L17.5899 11.8949L17.6463 11.9359L17.7077 11.982L17.7744 12.0282L17.841 12.0693L17.9076 12.1052L17.9691 12.1257L18.0255 12.1411L18.051 12.1462L18.0716 12.1514L18.0869 12.1564L18.0971 12.1668L18.1023 12.1719V12.1925L18.0971 12.2027L18.0869 12.2334L18.0818 12.264L18.0766 12.2845V12.2999L18.0818 12.3254L18.0869 12.3458L18.0971 12.3562L18.1125 12.3665L18.133 12.3767L18.1586 12.3819L18.1842 12.3921L18.2097 12.4023L18.2354 12.4126L18.2559 12.428L18.2611 12.4331V12.4433L18.2559 12.4485L18.2354 12.4639L18.2149 12.4792L18.1944 12.4998L18.1738 12.5253V12.5458L18.1687 12.5664L18.1738 12.5919L18.179 12.6227L18.2661 12.6534L18.3585 12.684L18.3995 12.6943L18.4405 12.7097L18.4712 12.725L18.4967 12.7404L18.3276 12.8737L18.3737 12.9147L18.4301 12.9454L18.5019 12.9813L18.5737 13.007L18.6557 13.0326L18.7325 13.048L18.7991 13.0633H18.8606L18.8042 13.1044L18.7324 13.1505L18.6555 13.1915L18.5991 13.2326L18.6504 13.2685L18.722 13.3044L18.804 13.3454L18.9014 13.3915L19.1268 13.4889L19.3728 13.5862L19.6291 13.6784L19.8802 13.7604L19.993 13.7963L20.0956 13.8219L20.1877 13.8476L20.2697 13.8629L20.1057 13.8476L19.952 13.827L19.7982 13.8015L19.6548 13.7707L19.5113 13.7297L19.3729 13.6886L19.2397 13.6425L19.1116 13.5913L18.8604 13.4888L18.6247 13.3864L18.512 13.3401L18.3993 13.2941L18.2916 13.253L18.1839 13.2119L18.2096 13.1966L18.2403 13.1862L18.2814 13.1709L18.3275 13.1605L18.4248 13.1298L18.512 13.0991L18.3582 13.0735L18.1481 13.0325L18.0456 13.0017L17.9585 12.9762L17.9226 12.9608L17.8918 12.9454L17.8663 12.9301L17.8509 12.9147V12.9097L17.8561 12.9045L17.8714 12.8994L17.8868 12.889L17.9279 12.8737L17.9843 12.8583L18.1073 12.8224L18.2099 12.7865L17.9587 12.7403L17.7639 12.7096L17.6921 12.6942L17.6357 12.6737L17.6152 12.6635L17.5946 12.6481L17.5793 12.6379L17.5689 12.6225L17.5843 12.6123L17.6304 12.602L17.697 12.5917L17.774 12.5763L17.8559 12.5661L17.9276 12.5456L17.9635 12.5352L17.9942 12.525L18.0148 12.5097L18.0353 12.4943L17.9942 12.479L17.9532 12.4636L17.9019 12.4533L17.8506 12.4431L17.7328 12.4277L17.6149 12.4123L17.5534 12.397L17.4971 12.3866L17.4407 12.3662L17.3843 12.3457L17.333 12.3201L17.2869 12.2843L17.2459 12.2484L17.2152 12.2023L17.2255 12.1971L17.246 12.1921H17.2716L17.3126 12.1971L17.4048 12.2023L17.5073 12.2074L17.6201 12.2178H17.7635L17.8046 12.2126L17.8353 12.2024L17.8558 12.1922L17.7328 12.1409L17.5688 12.0692L17.4766 12.0229L17.3793 11.9768L17.2819 11.9256L17.1846 11.8743L17.0922 11.8179L17.0051 11.7564L16.9231 11.6949L16.8514 11.6334L16.8207 11.5975L16.79 11.5668L16.7695 11.536L16.7489 11.5001L16.7284 11.4694L16.7181 11.4335L16.7129 11.4028L16.7077 11.3669H16.7436L16.7847 11.3721L16.8257 11.3874L16.8668 11.4028L16.9488 11.4541L17.041 11.5053L17.082 11.5309L17.1281 11.5566L17.1742 11.5771L17.2153 11.5925L17.2614 11.6027L17.3024 11.6078H17.3487L17.3897 11.5925L17.2667 11.5003L17.1283 11.3823L16.9695 11.244L16.8105 11.0902L16.6516 10.9262L16.503 10.7623L16.4363 10.6751L16.3697 10.5931L16.3133 10.5111L16.262 10.4342L16.2517 10.4138V10.3779L16.2569 10.3625L16.262 10.3472L16.2774 10.3368L16.2928 10.3215L16.3081 10.3111L16.3287 10.3061L16.3492 10.3009H16.3903L16.4158 10.3061L16.4363 10.3111L16.4569 10.3265L16.4722 10.3419L16.5644 10.4341L16.6721 10.5417L16.785 10.6596L16.908 10.7775L17.0309 10.8852L17.154 10.9876L17.2154 11.0286L17.2718 11.0645L17.3333 11.0952L17.3897 11.1158L17.3487 11.0902L17.3024 11.044L17.241 10.9825L17.1744 10.9056L17.0257 10.7262L16.8618 10.516L16.7798 10.4033L16.703 10.2906L16.6312 10.1778L16.5595 10.0701L16.4981 9.96757L16.4468 9.87525L16.4109 9.7881L16.3802 9.71631L16.375 9.69075V9.64968L16.3802 9.63432L16.3905 9.61896L16.4007 9.60359L16.411 9.59339L16.4264 9.58306L16.4623 9.57286L16.493 9.56253H16.5648L16.5854 9.5677L16.6007 9.57286L16.6212 9.58306L16.6366 9.59843L16.6777 9.63432L16.7187 9.68558L16.8109 9.80346L16.9083 9.95207L17.021 10.1109L17.1389 10.2749L17.2003 10.3517L17.2618 10.4286L17.3284 10.4952L17.4001 10.5567L17.3129 10.3876L17.2156 10.1929L17.1643 10.0852L17.1182 9.9775L17.072 9.86478L17.0309 9.75207L16.995 9.63419L16.9591 9.52147L16.9336 9.40876L16.913 9.29604L16.9027 9.18836L16.8975 9.08584L16.9027 9.03459L16.9079 8.98849L16.913 8.9424L16.9232 8.89631L16.9336 8.88094L16.9387 8.86558L16.9541 8.85022L16.9643 8.84002L17.0002 8.82465L17.0361 8.81445H17.072L17.1027 8.81962L17.1181 8.82478L17.1283 8.82995L17.1334 8.84028L17.1386 8.85565L17.1899 9.01962L17.2359 9.19379L17.282 9.37313L17.3283 9.54743L17.3744 9.72174L17.4358 9.88571L17.4665 9.96266L17.5024 10.0395L17.5435 10.1113L17.5896 10.1831L17.5589 10.0345L17.5383 9.90121L17.5178 9.77816L17.5075 9.66545L17.4973 9.5681L17.4921 9.48094L17.4973 9.40916L17.5024 9.3477L17.5126 9.29644L17.528 9.25538L17.5383 9.24002L17.5485 9.22465L17.5589 9.21445L17.5742 9.20425L17.5896 9.19909H17.6357L17.6767 9.21445L17.7178 9.23498L17.7537 9.39896L17.7896 9.55776L17.8306 9.70637L17.8767 9.84982L17.928 9.99326L17.9844 10.1367L18.0459 10.2853L18.1175 10.4339L18.1688 10.5313L18.2201 10.6286L18.2765 10.726L18.3329 10.8233L18.3944 10.9156L18.4558 11.0078L18.5224 11.1L18.5891 11.1922L18.7121 11.346L18.8402 11.4894L18.9734 11.633L19.1118 11.7662L19.2553 11.8995L19.4039 12.0225L19.5577 12.1404L19.7166 12.2533L19.8243 12.325L19.937 12.3917L20.0549 12.4583L20.1676 12.5198L20.3469 12.6069L20.5211 12.6889L20.7056 12.7607L20.8901 12.8273L21.0644 12.8836L21.2438 12.9297L21.4283 12.9707L21.6076 13.0066L21.7973 13.0322L21.9818 13.0527L22.1714 13.0681L22.361 13.0788ZM22.8279 14.637L22.915 14.6472L22.9561 14.6625L22.9663 14.6676V14.6727H22.9561L22.9457 14.6779L22.8638 14.6933H22.7971L22.5819 14.6779L22.3204 14.6727L22.0386 14.6676L21.7464 14.6727L21.608 14.6779L21.4696 14.6882L21.3467 14.6984L21.2288 14.7086L21.1314 14.724L21.0443 14.7445L21.0136 14.7547L20.9828 14.7649L20.9573 14.7752L20.9367 14.7906L20.9471 14.7394L20.9675 14.6881L20.9316 14.6983L20.8957 14.7085L20.865 14.7239L20.8342 14.7392L20.8087 14.7546L20.7881 14.7751L20.7728 14.8007L20.7676 14.8264L20.7522 14.7905L20.742 14.7598L20.7369 14.7239L20.7317 14.6931L20.7369 14.6674L20.742 14.6368L20.7472 14.6111L20.7626 14.5854L20.7728 14.565L20.7933 14.5395L20.8138 14.519L20.8344 14.4986L20.8908 14.4627L20.9522 14.4268C20.9855 14.4469 21.0228 14.4616 21.0599 14.473C21.0921 14.4772 21.1304 14.4719 21.1676 14.4627C21.2301 14.5178 21.3138 14.511 21.3675 14.4523C21.3788 14.4406 21.3875 14.4266 21.3932 14.4113C21.4016 14.3817 21.4001 14.3429 21.3932 14.3089L21.4546 14.3037L21.5263 14.2935L21.6032 14.273L21.6852 14.2525L21.7672 14.2371L21.844 14.2166L21.9158 14.2062L21.9773 14.2012L21.9516 14.2216L21.8901 14.2678L21.8183 14.3243L21.7671 14.3601L21.8337 14.3755L21.89 14.3857L21.8489 14.4319L21.808 14.478L21.7669 14.5243L21.7362 14.5653L21.7773 14.5807L21.8183 14.5909L21.8644 14.6011H21.9567L22.0028 14.5909L22.0489 14.5807L22.0848 14.5601L22.1259 14.5807L22.1669 14.596L22.208 14.6062L22.2491 14.6164L22.3412 14.6266L22.4386 14.637H22.8279Z" fill="#FEC50C"/>
<path d="M21.2544 14.3447L21.2697 14.3498L21.2851 14.3549L21.2902 14.3703L21.2954 14.3857L21.2902 14.401L21.2851 14.4164L21.2697 14.4267H21.2338L21.2236 14.4164L21.2133 14.401L21.2081 14.3857L21.2133 14.3703L21.2236 14.3549L21.2338 14.3498L21.2544 14.3447Z" fill="#FEC50C"/>
<path d="M21.2484 14.3652L21.2587 14.3704L21.2639 14.3807L21.2587 14.3909L21.2484 14.3961L21.2382 14.3909L21.233 14.3807L21.2382 14.3704L21.2484 14.3652Z" fill="#FEC50C"/>
<path d="M21.2524 14.4356C21.2462 14.4356 21.2401 14.4344 21.2344 14.4321C21.2288 14.4297 21.2236 14.4263 21.2192 14.4219C21.2148 14.4176 21.2114 14.4124 21.209 14.4067C21.2066 14.4011 21.2054 14.395 21.2054 14.3888C21.2054 14.3827 21.2066 14.3766 21.2089 14.3709C21.2112 14.3652 21.2147 14.36 21.219 14.3556C21.2234 14.3513 21.2285 14.3478 21.2342 14.3454C21.2399 14.343 21.246 14.3418 21.2521 14.3418C21.2646 14.3418 21.2765 14.3467 21.2853 14.3554C21.2941 14.3642 21.2991 14.3761 21.2992 14.3886C21.2992 14.401 21.2943 14.4129 21.2855 14.4217C21.2768 14.4306 21.2648 14.4355 21.2524 14.4356Z" fill="#FEC50C"/>
<path d="M25.0709 14.8879L25.0351 14.9033L24.9993 14.9084L24.9685 14.9135L24.943 14.9084L24.9174 14.9033L24.8918 14.8931L24.8713 14.8827L24.8457 14.8674L24.8047 14.8366L24.7636 14.8059L24.7431 14.7905L24.7174 14.7803L24.6969 14.7752H24.6713L24.6252 14.8725L24.5638 14.9956L24.5432 15.0263L24.5227 15.0519L24.5022 15.0672L24.4816 15.0826L24.4561 15.0928H24.4305L24.405 15.0826L24.3742 15.0672L24.364 15.0519L24.3537 15.0365L24.3435 15.0161L24.3332 14.9904L24.323 14.9443L24.3178 14.9136L24.2871 14.9392L24.2563 14.975L24.2308 15.0161L24.2001 15.0622L24.1642 15.1084L24.1283 15.1443L24.1077 15.1649L24.0822 15.1802L24.0566 15.1904L24.0259 15.2006H24.0105L23.9848 15.2058L23.9593 15.2006L23.9387 15.1904L23.8773 15.1186L23.8106 15.0468L23.7646 15.1186L23.7133 15.1802L23.6877 15.2058L23.6622 15.2313L23.6366 15.2517L23.611 15.2671L23.5905 15.2774L23.5648 15.2826H23.5393L23.5187 15.2774L23.4982 15.2671L23.4828 15.2517L23.4623 15.2262L23.4521 15.1954L23.4418 15.1647L23.4212 15.1135L23.4161 15.0879L23.4059 15.0674L23.3955 15.0572H23.3848L23.2464 15.2826L23.2259 15.3031L23.19 15.3185L23.1489 15.3288L23.108 15.339H23.0618L23.026 15.3288L23.0157 15.3237L23.0003 15.3083L22.9952 15.2981V15.2776L23.0157 15.052L23.0003 15.0572L22.9798 15.0674L22.9593 15.0776L22.9387 15.0981L22.8977 15.1442L22.8516 15.1954L22.8055 15.2517L22.7491 15.298L22.7235 15.3184L22.6979 15.3389L22.6672 15.3543L22.6416 15.3593L22.6057 15.3646L22.5802 15.3594L22.57 15.3544L22.5597 15.3441L22.5545 15.3287V15.3133L22.5597 15.2467L22.57 15.1801L22.5751 15.1442L22.57 15.1135L22.5648 15.0827L22.5443 15.0468L22.5136 15.0929L22.4623 15.1596L22.4008 15.2262L22.3342 15.2928L22.2983 15.3184L22.2624 15.3441L22.2317 15.3544L22.206 15.3646L22.1958 15.3594H22.1804L22.1702 15.3492L22.1651 15.3441L22.1549 15.3287L22.1497 15.3133V15.2928L22.1446 15.2672L22.1497 15.0725L22.0216 15.1597L21.8679 15.257L21.8321 15.2724L21.791 15.2928L21.7552 15.3031L21.7141 15.3135L21.6782 15.3237H21.6424L21.6065 15.3185L21.5758 15.3082L21.5912 15.2671L21.6065 15.2312L21.6219 15.1953L21.6424 15.1646L21.663 15.1339L21.6835 15.1031L21.7091 15.0776L21.7346 15.052L21.791 15.0109L21.8577 14.9699L21.9243 14.9392L22.0012 14.9136L22.0781 14.8932L22.1652 14.8778L22.2524 14.8625L22.3395 14.8523L22.5292 14.8419L22.7239 14.8368H23.1134L23.2108 14.8316L23.303 14.8266L23.3951 14.8214L23.4823 14.8112L23.5695 14.7958L23.6463 14.7805L23.7232 14.76L23.795 14.7292L23.8616 14.6985L23.9179 14.6574L23.9744 14.6164L24.0204 14.56L23.9692 14.4576L24.0103 14.4524L24.0513 14.4422L24.0924 14.4217L24.1281 14.396L24.1435 14.3858L24.1589 14.3704L24.1691 14.35L24.1794 14.3347L24.1846 14.3141V14.2782L24.1744 14.2577L24.2615 14.2423L24.3537 14.232L24.451 14.2268H24.5536L24.7636 14.237L24.9789 14.2524L25.1993 14.278L25.4145 14.2985L25.6246 14.319L25.8194 14.3292V14.401L25.8142 14.4317L25.804 14.4625L25.7937 14.4932L25.7835 14.5188L25.7681 14.5393L25.7476 14.5649L25.7118 14.6007L25.6656 14.6315L25.6195 14.652L25.5683 14.6623L25.5118 14.6725L25.4554 14.6674L25.4042 14.6623L25.3477 14.647L25.2965 14.6214L25.2452 14.5958L25.2042 14.56L25.1631 14.5189V14.606L25.1477 14.7188L25.1374 14.7752L25.122 14.8264L25.1118 14.8468L25.0965 14.8622L25.0863 14.8776L25.0709 14.8879ZM20.9504 14.4062L21.0683 14.4574L21.099 14.4319L21.14 14.4011L21.1861 14.3756L21.2272 14.35L21.381 14.2884L21.5142 14.227L21.5808 14.2014L21.6371 14.1707L21.6936 14.14L21.7397 14.1092L21.8575 14.0323L21.9754 13.9554L22.0881 13.8837L22.1906 13.8119L22.2676 13.7504L22.3291 13.694L22.3957 13.6325L22.4675 13.5659L22.493 13.5403L22.5238 13.5198L22.5595 13.4993L22.6006 13.4788L22.6877 13.4377L22.7749 13.407L22.8928 13.3762L23.0208 13.3455L23.1541 13.32L23.3027 13.2943L23.482 13.2737L23.6614 13.2482L23.8459 13.2276L24.0252 13.1969L24.0867 13.1866L24.1431 13.1712L24.2046 13.1558L24.266 13.1405L24.3275 13.0635L24.4248 12.9558L24.4914 12.8892L24.5683 12.8278L24.6554 12.7611L24.7578 12.6945L24.9116 12.6022L25.0755 12.5202L25.2447 12.4331L25.4087 12.3562L25.5624 12.2793L25.7059 12.2076L25.8238 12.146L25.9161 12.0846L25.9416 12.0076L25.9775 11.9308L26.0236 11.854L26.0801 11.777L26.1415 11.6951L26.2185 11.6131L26.3004 11.5207L26.403 11.4234L26.4951 11.3414L26.5925 11.2594L26.6438 11.2235L26.695 11.1876L26.7514 11.1569L26.8077 11.1262L26.8642 11.1006L26.9206 11.0802L26.982 11.0649L27.0383 11.0495L27.0998 11.0443L27.1562 11.0393L27.2177 11.0443L27.2741 11.0547L27.2689 11.1161L27.2536 11.1776L27.233 11.239L27.2073 11.3056L27.1716 11.3723L27.1253 11.4389L27.0691 11.5107L27.0024 11.5825L27.0537 11.5773L27.0998 11.5671L27.1357 11.5568L27.1716 11.5414L27.2023 11.5311L27.2382 11.5207L27.2843 11.5157L27.3355 11.5105L27.3407 11.5464V11.5823L27.3355 11.6182L27.3253 11.649L27.31 11.6797L27.2895 11.7104L27.2689 11.7361L27.2434 11.7617L27.1357 11.8642L27.028 11.9615L27.0895 11.9667L27.1561 11.9872L27.2227 12.0076L27.274 12.018L27.2125 12.0641L27.1407 12.1103L27.0689 12.1564L26.9869 12.2025L26.905 12.2486L26.823 12.2998L26.741 12.3562L26.664 12.4177L26.6999 12.4229L26.746 12.4433L26.7665 12.4484L26.7871 12.4586L26.8024 12.4638L26.8178 12.4586L26.7153 12.5151L26.5872 12.5765L26.5257 12.6072L26.4745 12.638L26.4489 12.6533L26.4336 12.6687L26.4234 12.6841L26.413 12.6994L26.4182 12.72L26.4284 12.7353L26.4489 12.7507L26.4643 12.766L26.4591 12.7866L26.4488 12.8019L26.4283 12.8173L26.4077 12.8327L26.3616 12.8584L26.3002 12.8839L26.2387 12.9043L26.1823 12.9249L26.1412 12.9452L26.1105 12.9606L26.213 13.0631L26.1771 13.099L26.1412 13.1246L26.1105 13.14L26.0746 13.1553L26.0028 13.1655H25.9055L25.9158 13.2116L25.9312 13.2577L25.9415 13.309L25.9517 13.3603L25.8646 13.427L25.7569 13.5038L25.639 13.5806L25.5057 13.6576L25.4288 13.6986L25.352 13.7345L25.27 13.7652L25.1828 13.796L25.0905 13.8267L24.9932 13.8472L24.8906 13.8676L24.783 13.883L24.9726 13.8882H25.1366L25.2904 13.8728L25.4287 13.8574L25.5567 13.8319L25.6696 13.8011L25.7823 13.7601L25.89 13.719L26.0334 13.6524L26.1718 13.5756L26.3051 13.4936L26.4435 13.4116L26.3615 13.3705L26.2795 13.345L26.2385 13.3296L26.1974 13.3091L26.1513 13.2887L26.1052 13.2631L26.1463 13.2324L26.1924 13.2119L26.2487 13.1913L26.3101 13.176L26.4332 13.1504L26.5612 13.1351L26.6741 13.1197L26.7766 13.1095L26.8177 13.0993L26.8536 13.0891L26.8741 13.0788L26.8895 13.0634L26.8843 13.0582L26.874 13.048L26.8586 13.0429L26.8381 13.0327L26.7816 13.0223L26.7099 13.012L26.6382 13.007L26.5664 12.9966L26.505 12.9813L26.4639 12.9659L26.6022 12.9352L26.7406 12.9045L26.8636 12.8789L26.9661 12.8533L27.0533 12.8278L27.1303 12.797L27.1661 12.7817L27.1917 12.7663L27.2174 12.7509L27.2379 12.7304L27.2328 12.7252L27.2226 12.7149L27.202 12.7098L27.1765 12.7046L27.1099 12.6994H27.0329L26.9509 12.6944L26.874 12.6892L26.8073 12.679L26.7663 12.6687L26.8022 12.6533L26.8381 12.638L26.961 12.6021L27.0687 12.5713L27.166 12.5458L27.2583 12.5151L27.3557 12.4843L27.453 12.4433L27.4991 12.4177L27.5402 12.3921L27.5555 12.3768L27.5709 12.3564L27.5863 12.341L27.5914 12.3256L27.5863 12.3103L27.5709 12.3001L27.5555 12.2949H27.4121L27.3455 12.3001H27.2532L27.2276 12.2949L27.2071 12.2847L27.1865 12.2745L27.3916 12.1413L27.5812 12.0182L27.7504 11.9105L27.899 11.808L27.9604 11.7568L28.0169 11.7055L28.063 11.6543L28.104 11.603L28.1348 11.5466L28.1604 11.4903L28.1758 11.4288V11.3622H28.1401L28.1042 11.3674L28.0631 11.3827L28.022 11.3981L27.9401 11.4494L27.8529 11.5006L27.8068 11.5262L27.7657 11.5517L27.7197 11.5723L27.6734 11.5876L27.6325 11.598L27.5914 11.6031H27.5452L27.5042 11.5878L27.6272 11.4956L27.7656 11.3777L27.9244 11.2393L28.0834 11.0855L28.2423 10.9215L28.3909 10.7576L28.4575 10.6704L28.5242 10.5884L28.5806 10.5064L28.6318 10.4296L28.6422 10.4091L28.6473 10.3937L28.6422 10.3733L28.637 10.358L28.6318 10.3426L28.6165 10.3324L28.6011 10.317L28.5857 10.3119L28.5652 10.3017L28.5447 10.2965H28.5036L28.4831 10.3017L28.4575 10.3068L28.4422 10.3222L28.4216 10.3376L28.3295 10.4299L28.2218 10.5376L28.1089 10.6554L27.9859 10.7733L27.8628 10.881L27.7399 10.9835L27.6785 11.0246L27.622 11.0605L27.5606 11.0912L27.5093 11.1168L27.5452 11.086L27.5913 11.04L27.6528 10.9784L27.7194 10.9015L27.868 10.7222L28.032 10.5121L28.114 10.3993L28.1909 10.2864L28.2679 10.1788L28.3345 10.066L28.3959 9.96353L28.4472 9.87121L28.4883 9.78406L28.5138 9.71227L28.519 9.68671V9.64565L28.5138 9.63028L28.5036 9.61492L28.4933 9.59955L28.4831 9.58936L28.4677 9.58419L28.437 9.56882L28.4011 9.55849H28.3295L28.3089 9.56366L28.2936 9.56882L28.273 9.57902L28.2577 9.59439L28.2166 9.63028L28.1755 9.68154L28.0834 9.79942L27.986 9.94803L27.8783 10.1068L27.7604 10.2708L27.6938 10.3478L27.6324 10.4246L27.5657 10.4912L27.494 10.5527L27.5861 10.3835L27.6783 10.1888L27.7296 10.0811L27.7757 9.97359L27.8218 9.86088L27.8628 9.74816L27.8987 9.63028L27.9346 9.51757L27.9602 9.40485L27.9807 9.29214L27.9909 9.18445L27.9961 9.08194L27.9909 9.03068L27.9857 8.98459L27.9806 8.93849L27.9702 8.8924L27.9651 8.87704L27.9549 8.86167L27.9395 8.84631L27.9292 8.83611L27.8934 8.82075L27.8575 8.81055H27.8216L27.7909 8.81571L27.7806 8.82088L27.7652 8.82604L27.76 8.83637L27.7549 8.85174L27.7036 9.02088L27.6574 9.19002L27.6113 9.36936L27.5652 9.54366L27.5191 9.71796L27.4577 9.88194L27.4269 9.96392L27.391 10.0357L27.35 10.1125L27.3039 10.1792L27.3346 10.0305L27.3552 9.8973L27.3757 9.77426L27.3859 9.66154L27.3962 9.56419L27.4014 9.47704L27.3962 9.40525L27.391 9.34379L27.3807 9.29253L27.3653 9.25147L27.3552 9.23611L27.345 9.22075L27.3346 9.21055L27.3193 9.20538L27.3039 9.20022L27.2885 9.19505H27.2732L27.2578 9.20022L27.2167 9.21042L27.1757 9.23094L27.1398 9.39492L27.1039 9.55386L27.0628 9.70247L27.0167 9.84591L26.9655 9.98935L26.9092 10.1328L26.8477 10.2814L26.7759 10.43L26.7247 10.5274L26.6734 10.6247L26.6171 10.7221L26.5607 10.8194L26.4993 10.9116L26.4378 11.0038L26.3712 11.0961L26.3046 11.1884L26.1815 11.3421L26.0534 11.4856L25.9202 11.6291L25.7819 11.7623L25.6383 11.8956L25.4897 12.0186L25.3359 12.1365L25.177 12.2492L25.0693 12.321L24.9565 12.3928L24.8438 12.4594L24.731 12.526L24.5517 12.608L24.3724 12.69L24.1879 12.7566L24.0034 12.8233L23.8496 12.8695L23.6958 12.9156L23.537 12.9515L23.3781 12.9874L23.2193 13.0129L23.0553 13.0335L22.8963 13.0539L22.7324 13.0641L22.717 13.0692L22.7016 13.0744L22.6709 13.0898L22.635 13.1153L22.5838 13.1614L22.5171 13.223L22.4351 13.305L22.3378 13.4127L22.2456 13.5203L22.1379 13.6382L22.0815 13.6947L22.0252 13.7511L21.9586 13.8023L21.892 13.8536L21.8407 13.8895L21.7895 13.9202L21.7332 13.9459L21.6767 13.9715L21.5537 14.0227L21.4306 14.0688L21.3076 14.1151L21.1999 14.1561L21.1538 14.1766L21.1077 14.2022L21.0667 14.2227L21.0359 14.2433L21.0052 14.274L20.9797 14.2996L20.9643 14.3252L20.954 14.3508L20.9488 14.3867L20.9504 14.4062Z" fill="#FEC50C"/>
<path d="M21.2484 14.4002C21.2433 14.4002 21.2384 14.3982 21.2348 14.3946C21.2312 14.391 21.2292 14.3861 21.2292 14.381C21.2292 14.3759 21.2312 14.371 21.2348 14.3674C21.2384 14.3638 21.2433 14.3618 21.2484 14.3618C21.2535 14.3618 21.2584 14.3638 21.262 14.3674C21.2656 14.371 21.2676 14.3759 21.2676 14.381C21.2676 14.3861 21.2656 14.391 21.262 14.3946C21.2584 14.3982 21.2535 14.4002 21.2484 14.4002Z" fill="#FEC50C" stroke="#00AFCA" stroke-width="0.025298"/>
<path d="M3.37157 18.4851C3.37157 18.4851 3.18057 18.6456 3.1158 18.5651C3.01143 18.4356 3.43647 17.7909 3.43647 17.5637C3.43647 17.191 3.18786 17.0897 2.8807 17.0364C2.67461 17.0007 2.33911 17.0514 2.33911 17.0514C2.40229 17.1363 2.44335 17.1612 2.54984 17.1681C2.4313 17.2296 2.31064 17.3632 2.31064 17.571C2.31064 17.8917 2.44269 18.0239 2.44269 18.3852C2.44269 18.5857 2.27832 18.8409 2.27832 18.8409C2.56892 18.8118 2.71302 18.5428 2.63104 18.3277C2.67726 18.3211 2.71938 18.3314 2.75541 18.3656C2.77673 18.306 2.74309 18.2368 2.69819 18.1772C2.73435 18.1579 2.76097 18.1694 2.81872 18.1813C2.81315 18.1199 2.77647 18.0546 2.6864 17.9933C2.94772 18.0611 3.10839 17.879 3.10839 17.6882C3.10839 17.5443 3.00746 17.4411 2.90892 17.4411C2.877 17.4411 2.83024 17.4543 2.80375 17.4739C2.78508 17.4343 2.79474 17.3813 2.81395 17.3416C2.74176 17.3608 2.6958 17.4037 2.72839 17.4931C2.67289 17.4982 2.62878 17.517 2.59859 17.5527C2.62905 17.5917 2.67527 17.6142 2.72839 17.6123C2.68799 17.6958 2.73302 17.7425 2.79872 17.7804C2.79872 17.7804 2.757 17.6123 2.86362 17.6123C2.91157 17.6123 2.95527 17.628 2.95527 17.6986C2.95527 17.76 2.9015 17.8453 2.77713 17.8399C2.65276 17.8345 2.55196 17.7542 2.55196 17.5556C2.55196 17.3725 2.69964 17.2815 2.89435 17.2756C3.06984 17.2702 3.20229 17.3653 3.20229 17.5464C3.20229 17.7873 2.85435 18.3366 2.85435 18.5513C2.85435 18.7123 2.99925 18.8024 3.14097 18.8024C3.32481 18.8024 3.47991 18.6203 3.47991 18.6203L3.37196 18.4849L3.37157 18.4851ZM3.33143 14.1298C3.33143 13.727 3.69289 13.52 3.97713 13.52C4.35991 13.52 4.56375 13.7489 4.56375 14.0485C4.56375 14.2183 4.53262 14.3248 4.45435 14.4873C4.45435 14.4873 3.82296 15.8004 3.57713 16.3082C3.54653 16.3715 3.5366 16.4436 3.5366 16.5493C3.5366 16.7126 3.69488 16.846 3.86097 16.8501C4.01236 16.8538 4.17726 16.709 4.17726 16.5439C4.17726 16.3433 4.07315 16.2539 3.9664 16.2539C3.83488 16.2539 3.78256 16.308 3.78256 16.4002C3.78256 16.4644 3.81368 16.4923 3.85832 16.4923C3.97104 16.4923 3.93938 16.3406 3.93938 16.3406C3.99527 16.3529 4.04137 16.41 4.01501 16.4815C4.05594 16.4905 4.09435 16.5119 4.12455 16.5465C4.09421 16.5758 4.05964 16.5984 4.01501 16.6061C4.04137 16.6933 4.00613 16.7359 3.92984 16.7538C3.94521 16.7203 3.94587 16.6894 3.9407 16.6603C3.82057 16.6945 3.6366 16.6402 3.6366 16.4327C3.6366 16.2268 3.77951 16.0534 4.04759 16.0967C3.98388 16.0662 3.95143 16.0039 3.94494 15.9341C3.99355 15.953 4.04759 15.9558 4.04759 15.9558C4.0162 15.9006 3.97276 15.8529 3.97461 15.7444C4.02428 15.7669 4.07051 15.8088 4.13408 15.7824C4.03421 15.5858 4.15686 15.3153 4.46931 15.2513C4.35501 15.3853 4.29898 15.53 4.29898 15.6739C4.29898 16.1407 4.42865 16.2192 4.42865 16.5437C4.42865 16.6795 4.35885 16.8261 4.22057 16.9257V16.9203C4.31196 16.9448 4.37051 16.9898 4.40428 17.051C4.19541 17.1102 3.8917 17.1092 3.72865 17.0451C3.54123 17.0233 3.41037 16.8795 3.37183 16.8066C3.33329 16.7338 3.25845 16.4698 3.37183 16.2322C3.49594 15.9722 4.08123 14.731 4.26375 14.3408C4.30243 14.258 4.326 14.1704 4.326 14.0753C4.326 13.8363 4.10706 13.7529 3.98269 13.7529C3.83408 13.7529 3.68269 13.8661 3.68269 14.0076C3.68269 14.0972 3.7313 14.1511 3.80163 14.1511C3.96971 14.1511 3.95951 14.0082 3.926 13.918C4.03064 13.9651 4.09143 14.049 4.07474 14.1375C4.13395 14.1457 4.19037 14.1737 4.24229 14.2323C4.20137 14.2841 4.15143 14.3232 4.07474 14.3245C4.10825 14.4617 4.01633 14.5199 3.926 14.5521C3.95448 14.4513 3.97329 14.3354 3.80163 14.3354C3.67647 14.3354 3.57806 14.3137 3.52044 14.2323C3.51713 14.3407 3.50693 14.7689 3.50693 14.7689C3.49978 14.9298 3.72229 14.9252 3.86375 14.8772C3.81037 15.0625 3.70097 15.1628 3.44746 15.1374C3.50892 15.1631 3.57448 15.2211 3.57448 15.3326C3.57448 15.4835 3.4521 15.6505 3.3717 15.6999L3.33143 14.1298Z" fill="#FEC50C"/>
<path d="M3.41175 14.1298C3.41175 13.727 3.05016 13.52 2.76619 13.52C2.38341 13.52 2.17957 13.7489 2.17957 14.0485C2.17957 14.2183 2.21069 14.3248 2.28897 14.4873C2.28897 14.4873 2.92036 15.8004 3.16619 16.3082C3.19678 16.3715 3.20672 16.4436 3.20672 16.5493C3.20672 16.7126 3.04844 16.846 2.88235 16.8501C2.73096 16.8538 2.56606 16.709 2.56606 16.5438C2.56606 16.3433 2.67003 16.2539 2.77692 16.2539C2.90831 16.2539 2.96076 16.308 2.96076 16.4001C2.96076 16.4644 2.92976 16.4923 2.88513 16.4923C2.77241 16.4923 2.80407 16.3405 2.80407 16.3405C2.74804 16.3529 2.70208 16.4099 2.72844 16.4815C2.68738 16.4905 2.6491 16.5119 2.6189 16.5465C2.6491 16.5758 2.6838 16.5984 2.72844 16.6061C2.70195 16.6933 2.73731 16.7359 2.81361 16.7538C2.80024 16.7245 2.79644 16.6918 2.80274 16.6603C2.92288 16.6944 3.10685 16.6401 3.10685 16.4327C3.10685 16.2268 2.96394 16.0534 2.69599 16.0967C2.7597 16.0662 2.79215 16.0038 2.79864 15.934C2.7656 15.946 2.73105 15.9534 2.69599 15.9558C2.72725 15.9005 2.77082 15.8529 2.76897 15.7444C2.7193 15.7669 2.67321 15.8087 2.6095 15.7824C2.70937 15.5858 2.58672 15.3152 2.2744 15.2513C2.3887 15.3853 2.44473 15.5299 2.44473 15.6739C2.44473 16.1407 2.31493 16.2192 2.31493 16.5437C2.31493 16.6795 2.38473 16.8261 2.52314 16.9257V16.9203C2.43175 16.9448 2.37308 16.9898 2.33943 17.051C2.54831 17.1102 2.85202 17.1091 3.01506 17.045C3.20248 17.0233 3.33321 16.8795 3.37188 16.8066C3.41043 16.7336 3.48526 16.4698 3.37188 16.2322C3.07325 15.6023 2.7759 14.9719 2.47983 14.3408C2.44115 14.258 2.41771 14.1703 2.41771 14.0752C2.41771 13.8363 2.63665 13.7529 2.76102 13.7529C2.90976 13.7529 3.06102 13.8661 3.06102 14.0076C3.06102 14.0972 3.01241 14.1511 2.94208 14.1511C2.774 14.1511 2.78433 14.0082 2.81771 13.918C2.71308 13.965 2.65228 14.049 2.66897 14.1375C2.60976 14.1457 2.55334 14.1737 2.50142 14.2323C2.54235 14.2841 2.59228 14.3232 2.66897 14.3245C2.63546 14.4617 2.72738 14.5199 2.81771 14.5521C2.7891 14.4513 2.77043 14.3354 2.94208 14.3354C3.06725 14.3354 3.16579 14.3137 3.22327 14.2323C3.22659 14.3407 3.23678 14.7689 3.23678 14.7689C3.24407 14.9298 3.02142 14.9252 2.87996 14.8772C2.93334 15.0625 3.04274 15.1628 3.29625 15.1374C3.2348 15.1631 3.16923 15.2211 3.16923 15.3326C3.16937 15.4835 3.29162 15.6505 3.37202 15.6999L3.41175 14.1298ZM3.37162 18.485C3.37162 18.485 3.56248 18.6456 3.62738 18.565C3.73162 18.4356 3.30672 17.7909 3.30672 17.5637C3.30672 17.191 3.55533 17.0897 3.86248 17.0364C4.06857 17.0007 4.40407 17.0514 4.40407 17.0514C4.34089 17.1363 4.29983 17.1612 4.19334 17.1681C4.31188 17.2295 4.43255 17.3632 4.43255 17.571C4.43255 17.8917 4.30049 18.0238 4.30049 18.3852C4.30049 18.5857 4.465 18.8409 4.465 18.8409C4.1744 18.8118 4.03029 18.5428 4.11228 18.3277C4.06592 18.3211 4.02394 18.3314 3.98791 18.3656C3.96659 18.306 4.00023 18.2368 4.04526 18.1772C4.0091 18.1579 3.98235 18.1694 3.92473 18.1813C3.93029 18.1199 3.96698 18.0546 4.05705 17.9933C3.79572 18.0611 3.63506 17.8789 3.63506 17.6882C3.63506 17.5442 3.73599 17.4411 3.83466 17.4411C3.86659 17.4411 3.91334 17.4543 3.9397 17.4739C3.95837 17.4343 3.9487 17.3813 3.9295 17.3416C4.00182 17.3608 4.04764 17.4037 4.01506 17.4931C4.07056 17.4982 4.1148 17.517 4.14486 17.5527C4.12959 17.5723 4.10983 17.588 4.08724 17.5984C4.06465 17.6087 4.03989 17.6135 4.01506 17.6123C4.05546 17.6958 4.01043 17.7425 3.94486 17.7804C3.94486 17.7804 3.98659 17.6123 3.87996 17.6123C3.83202 17.6123 3.78831 17.628 3.78831 17.6985C3.78831 17.76 3.84208 17.8453 3.96645 17.8399C4.09082 17.8344 4.19162 17.7542 4.19162 17.5556C4.19162 17.3725 4.04394 17.2815 3.84937 17.2756C3.67387 17.2702 3.54142 17.3653 3.54142 17.5464C3.54142 17.7873 3.88923 18.3366 3.88923 18.5513C3.88923 18.7123 3.74433 18.8024 3.60261 18.8024C3.41877 18.8024 3.26367 18.6203 3.26367 18.6203L3.37162 18.485ZM3.33149 7.07842C3.33149 6.67564 3.69294 6.46875 3.97718 6.46875C4.35996 6.46875 4.5638 6.69762 4.5638 6.99723C4.5638 7.16703 4.53268 7.27365 4.4544 7.43617C4.4544 7.43617 3.82301 8.74928 3.57718 9.25709C3.54659 9.32041 3.53665 9.39246 3.53665 9.49829C3.53665 9.6616 3.69493 9.79498 3.86102 9.79908C4.01241 9.80292 4.17731 9.65802 4.17731 9.49286C4.17731 9.29233 4.07321 9.20292 3.96645 9.20292C3.83493 9.20292 3.78261 9.25696 3.78261 9.34928C3.78261 9.41352 3.81374 9.44146 3.85837 9.44146C3.97109 9.44146 3.93943 9.28968 3.93943 9.28968C3.99533 9.30199 4.04142 9.35921 4.01506 9.4306C4.05599 9.43974 4.0944 9.4612 4.1246 9.49564C4.09427 9.52491 4.0597 9.54756 4.01506 9.55524C4.04142 9.64239 4.00619 9.68504 3.9299 9.70292C3.94526 9.66941 3.94592 9.63855 3.94076 9.60941C3.82063 9.64358 3.63665 9.58928 3.63665 9.38173C3.63665 9.17577 3.77957 9.00239 4.04764 9.0457C3.98394 9.01524 3.95149 8.95286 3.945 8.88305C3.99361 8.902 4.04764 8.90478 4.04764 8.90478C4.01625 8.84954 3.97281 8.80186 3.97466 8.69339C4.02433 8.71603 4.07056 8.75776 4.13413 8.73127C4.03427 8.53471 4.15692 8.26411 4.46937 8.20014C4.35506 8.33405 4.29904 8.47882 4.29904 8.62279C4.29904 9.08954 4.4287 9.16809 4.4287 9.49259C4.4287 9.62835 4.3589 9.77498 4.22062 9.87471V9.86928C4.31202 9.89378 4.37056 9.93882 4.40433 10C4.19546 10.0592 3.89175 10.0582 3.7287 9.99405C3.54129 9.97233 3.41043 9.82848 3.37188 9.7555C3.33334 9.68252 3.25851 9.41868 3.37188 9.18107C3.49599 8.92107 4.08129 7.67988 4.2638 7.28968C4.30248 7.2069 4.32606 7.11908 4.32606 7.02411C4.32606 6.78504 4.10712 6.7016 3.98274 6.7016C3.83413 6.7016 3.68274 6.81484 3.68274 6.9563C3.68274 7.04597 3.73135 7.09988 3.80168 7.09988C3.96976 7.09988 3.95957 6.95696 3.92606 6.86676C4.03069 6.91378 4.09149 6.99776 4.0748 7.08623C4.134 7.09431 4.19043 7.12239 4.24235 7.18107C4.20142 7.23272 4.15149 7.2718 4.0748 7.27325C4.10831 7.4106 4.01639 7.46862 3.92606 7.5008C3.95453 7.40001 3.97334 7.28411 3.80168 7.28411C3.67652 7.28411 3.57811 7.26239 3.52049 7.1812C3.51718 7.28954 3.50698 7.71776 3.50698 7.71776C3.49983 7.87868 3.72235 7.87405 3.8638 7.8261C3.81043 8.0114 3.70102 8.11166 3.44751 8.08623C3.50897 8.11193 3.57453 8.16981 3.57453 8.28133C3.57453 8.43219 3.45215 8.59935 3.37175 8.64875L3.33149 7.07842Z" fill="#FEC50C"/>
<path d="M3.41175 7.07842C3.41175 6.67564 3.05016 6.46875 2.76619 6.46875C2.38341 6.46875 2.17957 6.69762 2.17957 6.99723C2.17957 7.16703 2.21069 7.27365 2.28897 7.43617C2.28897 7.43617 2.92036 8.74928 3.16619 9.25709C3.19678 9.32041 3.20672 9.39246 3.20672 9.49829C3.20672 9.6616 3.04844 9.79498 2.88235 9.79908C2.73096 9.80292 2.56606 9.65802 2.56606 9.49286C2.56606 9.29233 2.67003 9.20292 2.77692 9.20292C2.90831 9.20292 2.96076 9.25696 2.96076 9.34928C2.96076 9.41352 2.92976 9.44146 2.88513 9.44146C2.77241 9.44146 2.80407 9.28968 2.80407 9.28968C2.74804 9.30199 2.70208 9.35921 2.72844 9.4306C2.68738 9.43974 2.6491 9.4612 2.6189 9.49564C2.6491 9.52491 2.6838 9.54756 2.72844 9.55524C2.70195 9.64239 2.73731 9.68504 2.81361 9.70292C2.80024 9.67367 2.79644 9.64095 2.80274 9.60941C2.92288 9.64358 3.10685 9.58928 3.10685 9.38173C3.10685 9.17577 2.96394 9.00239 2.69599 9.0457C2.7597 9.01524 2.79215 8.95286 2.79864 8.88305C2.7656 8.89505 2.73105 8.90236 2.69599 8.90478C2.72725 8.84954 2.77082 8.80186 2.76897 8.69339C2.7193 8.71603 2.67321 8.75776 2.6095 8.73127C2.70937 8.53471 2.58672 8.26411 2.2744 8.20014C2.3887 8.33405 2.44473 8.47882 2.44473 8.62279C2.44473 9.08954 2.31493 9.16809 2.31493 9.49259C2.31493 9.62835 2.38473 9.77498 2.52314 9.87471V9.86928C2.43175 9.89378 2.37308 9.93882 2.33943 10C2.54831 10.0592 2.85202 10.0582 3.01506 9.99405C3.20248 9.97233 3.33321 9.82848 3.37188 9.7555C3.41043 9.68252 3.48526 9.41868 3.37188 9.18107C3.07325 8.55121 2.7759 7.92074 2.47983 7.28968C2.44115 7.2069 2.41771 7.11908 2.41771 7.02411C2.41771 6.78504 2.63665 6.7016 2.76102 6.7016C2.90976 6.7016 3.06102 6.81484 3.06102 6.9563C3.06102 7.04597 3.01241 7.09988 2.94208 7.09988C2.774 7.09988 2.78433 6.95696 2.81771 6.86676C2.71308 6.91378 2.65228 6.99776 2.66897 7.08623C2.60976 7.09431 2.55334 7.12239 2.50142 7.18107C2.54235 7.23272 2.59228 7.2718 2.66897 7.27325C2.63546 7.4106 2.72738 7.46862 2.81771 7.5008C2.7891 7.40001 2.77043 7.28411 2.94208 7.28411C3.06725 7.28411 3.16579 7.26239 3.22327 7.1812C3.22659 7.28954 3.23678 7.71776 3.23678 7.71776C3.24407 7.87868 3.02142 7.87405 2.87996 7.8261C2.93334 8.0114 3.04274 8.11166 3.29625 8.08623C3.2348 8.11193 3.16923 8.16981 3.16923 8.28133C3.16937 8.43219 3.29162 8.59935 3.37202 8.64875L3.41175 7.07842Z" fill="#FEC50C"/>
<path d="M3.41175 5.87029C3.41175 6.27308 3.05016 6.47996 2.76619 6.47996C2.38341 6.47996 2.17957 6.25109 2.17957 5.95149C2.17957 5.78168 2.21069 5.67506 2.28897 5.51255C2.28897 5.51255 2.92036 4.19943 3.16619 3.69162C3.19678 3.62831 3.20672 3.55612 3.20672 3.45043C3.20672 3.28712 3.04844 3.15374 2.88235 3.14963C2.73096 3.14579 2.56606 3.29069 2.56606 3.45586C2.56606 3.65639 2.67003 3.74579 2.77692 3.74579C2.90831 3.74579 2.96076 3.69175 2.96076 3.59943C2.96076 3.53519 2.92976 3.50725 2.88513 3.50725C2.77241 3.50725 2.80407 3.65904 2.80407 3.65904C2.74804 3.64672 2.70208 3.58963 2.72844 3.51811C2.6859 3.50873 2.6475 3.48594 2.6189 3.45308C2.6491 3.4238 2.6838 3.40116 2.72844 3.39347C2.70195 3.30632 2.73731 3.26367 2.81361 3.24579C2.79824 3.2793 2.79771 3.31016 2.80274 3.3393C2.92288 3.30513 3.10685 3.35943 3.10685 3.56698C3.10685 3.77294 2.96394 3.94632 2.69599 3.90301C2.7597 3.93347 2.79215 3.99586 2.79864 4.06566C2.7656 4.05367 2.73105 4.04636 2.69599 4.04394C2.72725 4.09917 2.77082 4.14685 2.76897 4.25533C2.7193 4.23268 2.67321 4.19096 2.6095 4.21745C2.70937 4.414 2.58672 4.6846 2.2744 4.74857C2.3887 4.61453 2.44473 4.4699 2.44473 4.32579C2.44473 3.85904 2.31493 3.78049 2.31493 3.45599C2.31493 3.32023 2.38473 3.17361 2.52314 3.07387V3.0793C2.43175 3.0548 2.37308 3.00976 2.33943 2.94857C2.54831 2.88937 2.85202 2.89043 3.01506 2.95453C3.20248 2.97625 3.33321 3.1201 3.37188 3.19308C3.41043 3.26606 3.48526 3.5299 3.37188 3.76751C3.07325 4.39737 2.7759 5.02784 2.47983 5.6589C2.44115 5.74168 2.41771 5.82937 2.41771 5.92447C2.41771 6.16341 2.63665 6.24685 2.76102 6.24685C2.90976 6.24685 3.06102 6.13361 3.06102 5.99215C3.06102 5.90248 3.01241 5.84857 2.94208 5.84857C2.774 5.84857 2.78433 5.99149 2.81771 6.08169C2.71308 6.03467 2.65228 5.95069 2.66897 5.86221C2.60976 5.85414 2.55334 5.82606 2.50142 5.76738C2.54235 5.71572 2.59228 5.67665 2.66897 5.6752C2.63546 5.53784 2.72738 5.47983 2.81771 5.44765C2.7891 5.54844 2.77043 5.66433 2.94208 5.66433C3.06725 5.66433 3.16579 5.68606 3.22327 5.76738C3.22659 5.65904 3.23678 5.23082 3.23678 5.23082C3.24407 5.0699 3.02142 5.07453 2.87996 5.12248C2.93334 4.93718 3.04274 4.83692 3.29625 4.86235C3.2348 4.83665 3.16923 4.77877 3.16923 4.66725C3.16937 4.51639 3.29162 4.34923 3.37202 4.29983L3.41175 5.87029ZM3.41175 12.9218C3.41175 13.3245 3.05016 13.5315 2.76619 13.5315C2.38341 13.5315 2.17957 13.3026 2.17957 13.003C2.17957 12.8332 2.21069 12.7266 2.28897 12.5642C2.28897 12.5642 2.92036 11.2511 3.16619 10.7433C3.19678 10.6798 3.20672 10.6079 3.20672 10.5021C3.20672 10.3388 3.04844 10.2054 2.88235 10.2013C2.73096 10.1976 2.56606 10.3423 2.56606 10.5075C2.56606 10.7082 2.67003 10.7974 2.77692 10.7974C2.90831 10.7974 2.96076 10.7434 2.96076 10.6511C2.96076 10.5869 2.92976 10.5589 2.88513 10.5589C2.77241 10.5589 2.80407 10.7107 2.80407 10.7107C2.74804 10.6985 2.70208 10.6412 2.72844 10.5698C2.6859 10.5604 2.6475 10.5376 2.6189 10.5047C2.6491 10.4755 2.6838 10.4528 2.72844 10.4451C2.70195 10.358 2.73731 10.3153 2.81361 10.2974C2.79824 10.331 2.79771 10.3617 2.80274 10.391C2.92288 10.3568 3.10685 10.4111 3.10685 10.6185C3.10685 10.8245 2.96394 10.9978 2.69599 10.9545C2.7597 10.985 2.79215 11.0474 2.79864 11.1172C2.76562 11.1051 2.73106 11.0978 2.69599 11.0955C2.72725 11.1507 2.77082 11.1984 2.76897 11.3068C2.7193 11.2843 2.67321 11.2425 2.6095 11.269C2.70937 11.4655 2.58672 11.736 2.2744 11.8001C2.3887 11.6661 2.44473 11.5214 2.44473 11.3774C2.44473 10.9107 2.31493 10.8321 2.31493 10.5076C2.31493 10.3719 2.38473 10.2253 2.52314 10.1255V10.131C2.43175 10.1065 2.37308 10.0616 2.33943 10.0002C2.54831 9.94102 2.85202 9.94208 3.01506 10.0062C3.20248 10.0279 3.33321 10.1718 3.37188 10.2447C3.41043 10.3177 3.48526 10.5816 3.37188 10.8192C3.07327 11.449 2.77592 12.0794 2.47983 12.7104C2.44115 12.7932 2.41771 12.881 2.41771 12.976C2.41771 13.2151 2.63665 13.2985 2.76102 13.2985C2.90976 13.2985 3.06102 13.1854 3.06102 13.0438C3.06102 12.9541 3.01241 12.9002 2.94208 12.9002C2.774 12.9002 2.78433 13.0431 2.81771 13.1332C2.71308 13.0862 2.65228 13.0022 2.66897 12.9137C2.60976 12.9057 2.55334 12.8776 2.50142 12.8189C2.54235 12.7672 2.59228 12.7282 2.66897 12.7269C2.63546 12.5895 2.72738 12.5315 2.81771 12.4993C2.7891 12.6001 2.77043 12.716 2.94208 12.716C3.06725 12.716 3.16579 12.7377 3.22327 12.8189C3.22659 12.7106 3.23678 12.2825 3.23678 12.2825C3.24407 12.1216 3.02142 12.1262 2.87996 12.1741C2.93334 11.9888 3.04274 11.8886 3.29625 11.914C3.2348 11.8883 3.16923 11.8304 3.16923 11.7189C3.16937 11.568 3.29162 11.401 3.37202 11.3516L3.41175 12.9218Z" fill="#FEC50C"/>
<path d="M3.33149 12.9218C3.33149 13.3245 3.69294 13.5315 3.97718 13.5315C4.35996 13.5315 4.5638 13.3026 4.5638 13.003C4.5638 12.8332 4.53268 12.7266 4.4544 12.5642C4.4544 12.5642 3.82301 11.2511 3.57718 10.7433C3.54659 10.6798 3.53665 10.6079 3.53665 10.5021C3.53665 10.3388 3.69493 10.2054 3.86102 10.2013C4.01241 10.1976 4.17731 10.3424 4.17731 10.5075C4.17731 10.7082 4.07321 10.7975 3.96645 10.7975C3.83493 10.7975 3.78261 10.7434 3.78261 10.6511C3.78261 10.5869 3.81374 10.5589 3.85837 10.5589C3.97109 10.5589 3.93943 10.7107 3.93943 10.7107C3.99533 10.6985 4.04142 10.6412 4.01506 10.5698C4.05599 10.5606 4.0944 10.5392 4.1246 10.5047C4.09427 10.4755 4.0597 10.4528 4.01506 10.4451C4.04142 10.358 4.00619 10.3153 3.9299 10.2975C3.94526 10.331 3.94592 10.3617 3.94076 10.391C3.82063 10.3568 3.63665 10.4111 3.63665 10.6185C3.63665 10.8245 3.77957 10.9979 4.04765 10.9545C3.98394 10.985 3.95149 11.0474 3.945 11.1172C3.99361 11.0981 4.04765 11.0955 4.04765 11.0955C4.01625 11.1507 3.97281 11.1984 3.97467 11.3069C4.02433 11.2843 4.07056 11.2425 4.13414 11.269C4.03427 11.4655 4.15692 11.736 4.46937 11.8001C4.35506 11.6661 4.29904 11.5214 4.29904 11.3775C4.29904 10.9107 4.42871 10.8322 4.42871 10.5077C4.42871 10.3719 4.3589 10.2253 4.22063 10.1255V10.131C4.31202 10.1065 4.37056 10.0616 4.40433 10.0002C4.19546 9.94103 3.89175 9.94209 3.7287 10.0062C3.54129 10.0279 3.41043 10.1718 3.37188 10.2447C3.33334 10.3177 3.25851 10.5816 3.37188 10.8192C3.49599 11.0792 4.08129 12.3204 4.2638 12.7104C4.30248 12.7932 4.32606 12.881 4.32606 12.976C4.32606 13.2151 4.10712 13.2985 3.98274 13.2985C3.83414 13.2985 3.68274 13.1854 3.68274 13.0438C3.68274 12.9541 3.73135 12.9002 3.80169 12.9002C3.96976 12.9002 3.95957 13.0432 3.92606 13.1332C4.03069 13.0862 4.09149 13.0022 4.0748 12.9137C4.134 12.9057 4.19043 12.8776 4.24235 12.8189C4.20142 12.7673 4.15149 12.7282 4.0748 12.7269C4.10831 12.5895 4.01639 12.5315 3.92606 12.4993C3.95453 12.6001 3.97334 12.716 3.80169 12.716C3.67652 12.716 3.57811 12.7377 3.52049 12.8189C3.51718 12.7106 3.50698 12.2825 3.50698 12.2825C3.49983 12.1216 3.72235 12.1262 3.8638 12.1741C3.81043 11.9888 3.70102 11.8886 3.44751 11.914C3.50897 11.8883 3.57453 11.8304 3.57453 11.7189C3.57453 11.5681 3.45215 11.401 3.37175 11.3516L3.33149 12.9218ZM3.37162 1.51507C3.37162 1.51507 3.56248 1.35468 3.62738 1.43507C3.73162 1.56448 3.30672 2.20925 3.30672 2.4364C3.30672 2.80911 3.55533 2.91044 3.86248 2.96368C4.06857 2.99944 4.40407 2.94872 4.40407 2.94872C4.34089 2.86382 4.29983 2.83878 4.19334 2.83203C4.31188 2.77044 4.43255 2.63693 4.43255 2.42911C4.43255 2.10845 4.30049 1.9764 4.30049 1.61494C4.30049 1.41441 4.465 1.15918 4.465 1.15918C4.1744 1.18832 4.03029 1.45733 4.11228 1.67242C4.06592 1.67905 4.02394 1.66872 3.98791 1.63454C3.96659 1.69415 4.00023 1.76329 4.04526 1.82289C4.0091 1.84223 3.98235 1.8307 3.92473 1.81878C3.93029 1.88024 3.96698 1.9454 4.05705 2.00686C3.79572 1.93905 3.63506 2.12117 3.63506 2.31176C3.63506 2.45574 3.73599 2.55891 3.83467 2.55891C3.86659 2.55891 3.91334 2.5458 3.9397 2.52607C3.95837 2.56567 3.94871 2.61878 3.9295 2.65838C4.00182 2.63931 4.04765 2.5964 4.01506 2.50699C4.07056 2.50183 4.1148 2.48315 4.14486 2.44739C4.1296 2.42777 4.10983 2.41212 4.08724 2.40174C4.06465 2.39137 4.03989 2.38658 4.01506 2.38779C4.05546 2.30435 4.01043 2.25759 3.94486 2.21971C3.94486 2.21971 3.98659 2.38779 3.87996 2.38779C3.83202 2.38779 3.78831 2.37216 3.78831 2.30156C3.78831 2.23997 3.84208 2.15481 3.96645 2.16024C4.09082 2.16567 4.19162 2.24593 4.19162 2.44448C4.19162 2.62766 4.04394 2.71865 3.84937 2.72461C3.67387 2.73004 3.54142 2.63494 3.54142 2.45388C3.54142 2.21295 3.88923 1.66368 3.88923 1.44898C3.88923 1.28792 3.74433 1.19786 3.60261 1.19786C3.41877 1.19786 3.26367 1.37984 3.26367 1.37984L3.37162 1.51521V1.51507Z" fill="#FEC50C"/>
<path d="M3.37157 1.51507C3.37157 1.51507 3.18057 1.35468 3.1158 1.43507C3.01143 1.56448 3.43647 2.20925 3.43647 2.4364C3.43647 2.80911 3.18786 2.91044 2.8807 2.96368C2.67461 2.99944 2.33911 2.94872 2.33911 2.94872C2.40229 2.86382 2.44335 2.83878 2.54984 2.83203C2.4313 2.77044 2.31064 2.63693 2.31064 2.42911C2.31064 2.10845 2.44269 1.9764 2.44269 1.61494C2.44269 1.41441 2.27832 1.15918 2.27832 1.15918C2.56892 1.18832 2.71302 1.45733 2.63104 1.67242C2.67726 1.67905 2.71938 1.66872 2.75541 1.63454C2.77673 1.69415 2.74309 1.76329 2.69819 1.82289C2.73435 1.84223 2.76097 1.8307 2.81872 1.81878C2.81315 1.88024 2.77647 1.9454 2.6864 2.00686C2.94772 1.93905 3.10839 2.12117 3.10839 2.31176C3.10839 2.45574 3.00746 2.55891 2.90892 2.55891C2.877 2.55891 2.83024 2.5458 2.80375 2.52607C2.78508 2.56567 2.79474 2.61878 2.81395 2.65838C2.74176 2.63931 2.6958 2.5964 2.72839 2.50699C2.67289 2.50183 2.62878 2.48315 2.59859 2.44739C2.61385 2.42777 2.63362 2.41212 2.65621 2.40174C2.6788 2.39137 2.70356 2.38658 2.72839 2.38779C2.68799 2.30435 2.73302 2.25759 2.79872 2.21971C2.79872 2.21971 2.757 2.38779 2.86362 2.38779C2.91157 2.38779 2.95527 2.37216 2.95527 2.30156C2.95527 2.23997 2.9015 2.15481 2.77713 2.16024C2.65276 2.16567 2.55196 2.24593 2.55196 2.44448C2.55196 2.62766 2.69964 2.71865 2.89435 2.72461C3.06984 2.73004 3.20229 2.63494 3.20229 2.45388C3.20229 2.21295 2.85435 1.66368 2.85435 1.44898C2.85435 1.28792 2.99925 1.19786 3.14097 1.19786C3.32481 1.19786 3.47991 1.37984 3.47991 1.37984L3.37196 1.51521L3.37157 1.51507Z" fill="#FEC50C"/>
</g>
<defs>
<clipPath id="clip0_2927_6596">
<rect width="39.87" height="20" fill="white" transform="translate(0.920044)"/>
</clipPath>
</defs>
</svg>
