<svg width="65" height="64" viewBox="0 0 65 64" fill="none" xmlns="http://www.w3.org/2000/svg">
<g clip-path="url(#clip0_2568_4863)">
<mask id="path-1-outside-1_2568_4863" maskUnits="userSpaceOnUse" x="8.24023" y="0.63269" width="48" height="61" fill="black">
<rect fill="white" x="8.24023" y="0.63269" width="48" height="61"/>
<path fill-rule="evenodd" clip-rule="evenodd" d="M14.8117 1.63269H33.3831C36.4601 1.63269 38.9545 3.97177 38.9545 6.85718V29.8895C39.8482 29.7231 40.6518 29.619 41.2684 29.619C42.6323 29.619 44.9114 30.1302 47.0561 30.6933C48.9719 31.2059 50.8746 31.7634 52.7627 32.3652C53.3067 32.5402 53.7889 32.8607 54.1539 33.29C54.5189 33.7194 54.752 34.2401 54.8264 34.7924C56.0045 43.3962 53.2707 49.7726 49.9539 53.9909C48.5474 55.7954 46.8703 57.3845 44.9786 58.705C44.3245 59.1619 43.6315 59.5638 42.907 59.9061C42.3516 60.1598 41.7586 60.3673 41.2684 60.3673C40.7782 60.3673 40.1832 60.1598 39.6297 59.9061C39.0288 59.6313 38.3212 59.2296 37.5582 58.705C35.6665 57.3844 33.9894 55.7954 32.5829 53.9909C32.5533 53.9533 32.5238 53.9155 32.4943 53.8776H14.8117C11.7346 53.8776 9.24023 51.5385 9.24023 48.6531V6.85718C9.24023 3.97177 11.7346 1.63269 14.8117 1.63269Z"/>
</mask>
<g filter="url(#filter0_i_2568_4863)">
<path fill-rule="evenodd" clip-rule="evenodd" d="M14.8117 1.63269H33.3831C36.4601 1.63269 38.9545 3.97177 38.9545 6.85718V29.8895C39.8482 29.7231 40.6518 29.619 41.2684 29.619C42.6323 29.619 44.9114 30.1302 47.0561 30.6933C48.9719 31.2059 50.8746 31.7634 52.7627 32.3652C53.3067 32.5402 53.7889 32.8607 54.1539 33.29C54.5189 33.7194 54.752 34.2401 54.8264 34.7924C56.0045 43.3962 53.2707 49.7726 49.9539 53.9909C48.5474 55.7954 46.8703 57.3845 44.9786 58.705C44.3245 59.1619 43.6315 59.5638 42.907 59.9061C42.3516 60.1598 41.7586 60.3673 41.2684 60.3673C40.7782 60.3673 40.1832 60.1598 39.6297 59.9061C39.0288 59.6313 38.3212 59.2296 37.5582 58.705C35.6665 57.3844 33.9894 55.7954 32.5829 53.9909C32.5533 53.9533 32.5238 53.9155 32.4943 53.8776H14.8117C11.7346 53.8776 9.24023 51.5385 9.24023 48.6531V6.85718C9.24023 3.97177 11.7346 1.63269 14.8117 1.63269Z" fill="#4C75BA" fill-opacity="0.2"/>
</g>
<path d="M38.9545 29.8895H37.9545V31.0929L39.1376 30.8726L38.9545 29.8895ZM47.0561 30.6933L47.3146 29.7273L47.31 29.7261L47.0561 30.6933ZM52.7627 32.3652L53.0689 31.4132L53.0665 31.4125L52.7627 32.3652ZM54.1539 33.29L53.392 33.9378L53.392 33.9378L54.1539 33.29ZM54.8264 34.7924L53.8353 34.9259L53.8356 34.9281L54.8264 34.7924ZM49.9539 53.9909L49.1678 53.3728L49.1652 53.3761L49.9539 53.9909ZM44.9786 58.705L44.4062 57.885L44.4059 57.8852L44.9786 58.705ZM42.907 59.9061L43.3225 60.8158L43.3343 60.8102L42.907 59.9061ZM39.6297 59.9061L40.0464 58.997L40.0456 58.9967L39.6297 59.9061ZM37.5582 58.705L36.9857 59.525L36.9916 59.529L37.5582 58.705ZM32.5829 53.9909L33.3716 53.3761L33.3689 53.3728L32.5829 53.9909ZM32.4943 53.8776L33.2841 53.2642L32.9838 52.8776H32.4943V53.8776ZM33.3831 0.63269H14.8117V2.63269H33.3831V0.63269ZM39.9545 6.85718C39.9545 3.3599 36.9509 0.63269 33.3831 0.63269V2.63269C35.9694 2.63269 37.9545 4.58365 37.9545 6.85718H39.9545ZM39.9545 29.8895V6.85718H37.9545V29.8895H39.9545ZM41.2684 28.619C40.559 28.619 39.6839 28.7365 38.7714 28.9064L39.1376 30.8726C40.0125 30.7097 40.7446 30.619 41.2684 30.619V28.619ZM47.31 29.7261C45.1895 29.1693 42.7838 28.619 41.2684 28.619V30.619C42.4808 30.619 44.6333 31.0911 46.8021 31.6605L47.31 29.7261ZM53.0665 31.4125C51.1634 30.8058 49.2455 30.2439 47.3146 29.7273L46.7976 31.6593C48.6982 32.1678 50.5859 32.7209 52.459 33.318L53.0665 31.4125ZM54.9158 32.6423C54.4284 32.069 53.7875 31.6444 53.0689 31.4132L52.4566 33.3172C52.8259 33.436 53.1494 33.6524 53.392 33.9378L54.9158 32.6423ZM55.8174 34.659C55.7172 33.9146 55.4034 33.2158 54.9158 32.6423L53.392 33.9378C53.6345 34.2229 53.7868 34.5656 53.8353 34.9259L55.8174 34.659ZM50.74 54.609C54.2024 50.2056 57.0366 43.5625 55.8171 34.6568L53.8356 34.9281C54.9724 43.2298 52.3391 49.3396 49.1678 53.3728L50.74 54.609ZM45.551 59.525C47.5239 58.1477 49.2741 56.4896 50.7426 54.6057L49.1652 53.3761C47.8206 55.1011 46.2166 56.6212 44.4062 57.885L45.551 59.525ZM43.3343 60.8102C44.1093 60.444 44.851 60.014 45.5513 59.5248L44.4059 57.8852C43.798 58.3099 43.1537 58.6835 42.4798 59.002L43.3343 60.8102ZM41.2684 61.3673C41.9883 61.3673 42.7489 61.0777 43.3225 60.8157L42.4916 58.9965C41.9543 59.2419 41.5289 59.3673 41.2684 59.3673V61.3673ZM39.2131 60.8152C39.7866 61.078 40.5488 61.3673 41.2684 61.3673V59.3673C41.0076 59.3673 40.5798 59.2415 40.0464 58.997L39.2131 60.8152ZM36.9916 59.529C37.7936 60.0805 38.5516 60.5127 39.2138 60.8155L40.0456 58.9967C39.506 58.7499 38.8487 58.3788 38.1247 57.881L36.9916 59.529ZM31.7942 54.6057C33.2627 56.4896 35.0129 58.1476 36.9857 59.5249L38.1306 57.885C36.3202 56.6212 34.7162 55.1011 33.3716 53.3761L31.7942 54.6057ZM31.7046 54.491C31.7352 54.5305 31.766 54.5698 31.7968 54.609L33.3689 53.3728C33.3406 53.3368 33.3123 53.3006 33.2841 53.2642L31.7046 54.491ZM14.8117 54.8776H32.4943V52.8776H14.8117V54.8776ZM8.24023 48.6531C8.24023 52.1504 11.2439 54.8776 14.8117 54.8776V52.8776C12.2254 52.8776 10.2402 50.9266 10.2402 48.6531H8.24023ZM8.24023 6.85718V48.6531H10.2402V6.85718H8.24023ZM14.8117 0.63269C11.2439 0.63269 8.24023 3.3599 8.24023 6.85718H10.2402C10.2402 4.58365 12.2254 2.63269 14.8117 2.63269V0.63269Z" fill="url(#paint0_linear_2568_4863)" mask="url(#path-1-outside-1_2568_4863)"/>
<path d="M42.5463 32.8163V10.449C42.5463 7.56357 40.0519 5.22449 36.9749 5.22449H18.4035C15.3264 5.22449 12.832 7.56357 12.832 10.449V52.2449C12.832 55.1303 15.3264 57.4694 18.4035 57.4694H35.5259" stroke="#0876E4" stroke-linecap="round" stroke-linejoin="round"/>
<path d="M21.4807 5.22449H20.9961C21.2683 5.22449 21.5293 5.29329 21.7218 5.41576C21.9142 5.53824 22.0223 5.70435 22.0223 5.87755C22.0223 6.22395 22.2386 6.55617 22.6235 6.80112C23.0084 7.04606 23.5305 7.18367 24.0748 7.18367H28.1798H32.2847C32.8291 7.18367 33.3511 7.04606 33.736 6.80112C34.121 6.55617 34.3372 6.22395 34.3372 5.87755C34.3372 5.70435 34.4453 5.53824 34.6378 5.41576C34.8302 5.29329 35.0913 5.22449 35.3634 5.22449H34.8788" fill="#0876E4"/>
<path d="M21.4807 5.22449H20.9961C21.2683 5.22449 21.5293 5.29329 21.7218 5.41576C21.9142 5.53824 22.0223 5.70435 22.0223 5.87755C22.0223 6.22395 22.2386 6.55617 22.6235 6.80112C23.0084 7.04606 23.5305 7.18367 24.0748 7.18367H28.1798H32.2847C32.8291 7.18367 33.3511 7.04606 33.736 6.80112C34.121 6.55617 34.3372 6.22395 34.3372 5.87755C34.3372 5.70435 34.4453 5.53824 34.6378 5.41576C34.8302 5.29329 35.0913 5.22449 35.3634 5.22449H34.8788" stroke="#0876E4" stroke-width="0.5" stroke-linecap="round" stroke-linejoin="round"/>
<path d="M38.1644 34.2537L38.1651 34.2536C40.3207 33.6837 42.5369 33.194 43.825 33.194C45.113 33.194 47.3282 33.6854 49.4846 34.2516C51.3922 34.762 53.2868 35.3171 55.1668 35.9163C55.6233 36.0632 56.0259 36.3316 56.3296 36.6889C56.6333 37.0461 56.8261 37.4778 56.8875 37.9341L56.8877 37.9352C58.0451 46.388 55.3616 52.631 52.1175 56.7568L52.1162 56.7585C50.7406 58.5232 49.1001 60.0778 47.249 61.37L47.2489 61.3701C46.6188 61.8103 45.9511 62.1975 45.253 62.5276C44.7077 62.7764 44.1997 62.9423 43.825 62.9423C43.4495 62.9423 42.9381 62.7756 42.3947 62.5265L42.3943 62.5263C41.8244 62.2657 41.1424 61.8797 40.3996 61.3689C38.5492 60.0769 36.9091 58.5227 35.5339 56.7584L35.5326 56.7568C32.2885 52.631 29.605 46.388 30.7624 37.9352L30.7625 37.9342C30.824 37.4783 31.0168 37.0468 31.3205 36.6899C31.6242 36.3331 32.0266 36.065 32.4828 35.9184C33.7803 35.5062 35.9826 34.827 38.1644 34.2537Z" stroke="#0876E4"/>
<path fill-rule="evenodd" clip-rule="evenodd" d="M43.8248 41.9185C44.5499 41.9174 45.252 42.1617 45.8066 42.6081C46.3613 43.0545 46.7329 43.6742 46.8555 44.3573C46.978 45.0405 46.8437 45.7431 46.4764 46.3407C46.109 46.9382 45.5322 47.3923 44.8482 47.6223L45.6363 51.5161C45.6649 51.6577 45.6605 51.8037 45.6233 51.9435C45.586 52.0833 45.5169 52.2134 45.4209 52.3247C45.3248 52.436 45.2042 52.5256 45.0677 52.587C44.9312 52.6485 44.7822 52.6804 44.6313 52.6804H43.0184C42.8677 52.6801 42.7188 52.648 42.5826 52.5864C42.4463 52.5248 42.326 52.4352 42.2302 52.324C42.1344 52.2127 42.0654 52.0826 42.0283 51.943C41.9912 51.8033 41.9868 51.6576 42.0154 51.5161L42.8014 47.6223C42.1174 47.3923 41.5407 46.9382 41.1733 46.3407C40.8059 45.7431 40.6716 45.0405 40.7942 44.3573C40.9168 43.6742 41.2883 43.0545 41.843 42.6081C42.3977 42.1617 43.0998 41.9174 43.8248 41.9185Z" fill="#0876E4"/>
</g>
<defs>
<filter id="filter0_i_2568_4863" x="6.24023" y="-1.36731" width="49.8652" height="62.7346" filterUnits="userSpaceOnUse" color-interpolation-filters="sRGB">
<feFlood flood-opacity="0" result="BackgroundImageFix"/>
<feBlend mode="normal" in="SourceGraphic" in2="BackgroundImageFix" result="shape"/>
<feColorMatrix in="SourceAlpha" type="matrix" values="0 0 0 0 0 0 0 0 0 0 0 0 0 0 0 0 0 0 127 0" result="hardAlpha"/>
<feOffset dx="-2" dy="-2"/>
<feGaussianBlur stdDeviation="3"/>
<feComposite in2="hardAlpha" operator="arithmetic" k2="-1" k3="1"/>
<feColorMatrix type="matrix" values="0 0 0 0 0.983333 0 0 0 0 0.989394 0 0 0 0 1 0 0 0 0.8 0"/>
<feBlend mode="normal" in2="shape" result="effect1_innerShadow_2568_4863"/>
</filter>
<linearGradient id="paint0_linear_2568_4863" x1="9.24023" y1="2.19209" x2="67.8147" y2="43.4928" gradientUnits="userSpaceOnUse">
<stop stop-color="#E9EDF4"/>
<stop offset="1" stop-color="#E8EDF7"/>
</linearGradient>
<clipPath id="clip0_2568_4863">
<rect width="64" height="64" fill="white" transform="translate(0.75)"/>
</clipPath>
</defs>
</svg>
