<svg width="33" height="32" viewBox="0 0 33 32" fill="none" xmlns="http://www.w3.org/2000/svg">
<g filter="url(#filter0_i_2520_19948)">
<rect x="13.5" y="18" width="10" height="14" rx="1" fill="#4C75BA" fill-opacity="0.2"/>
</g>
<rect x="13.75" y="18.25" width="9.5" height="13.5" rx="0.75" stroke="url(#paint0_linear_2520_19948)" stroke-width="0.5"/>
<path d="M16.5 13V16M13.143 6.889C14.574 5.009 15.678 2.41 16.274 1C17.318 2.41 19.584 5.948 20.3 7.829C21.194 10.179 18.958 13 16.274 13C13.59 13 11.354 9.24 13.143 6.889Z" stroke="#838993" stroke-width="0.5" stroke-linecap="round" stroke-linejoin="round"/>
<path d="M15.6607 9.963C16.0185 9.33633 16.2945 8.47 16.4435 8C16.7045 8.47 17.271 9.64933 17.45 10.2763C17.6735 11.0597 17.1145 12 16.4435 12C15.7725 12 15.2135 10.7467 15.6607 9.963Z" fill="#838993"/>
<rect x="11.5" y="16" width="10" height="14" rx="1" stroke="#838993" stroke-width="0.5"/>
<path d="M6.5 26V26C6.5 28.2091 8.29086 30 10.5 30H26.5" stroke="#838993" stroke-width="0.5" stroke-linecap="round"/>
<defs>
<filter id="filter0_i_2520_19948" x="11.5" y="16" width="12" height="16" filterUnits="userSpaceOnUse" color-interpolation-filters="sRGB">
<feFlood flood-opacity="0" result="BackgroundImageFix"/>
<feBlend mode="normal" in="SourceGraphic" in2="BackgroundImageFix" result="shape"/>
<feColorMatrix in="SourceAlpha" type="matrix" values="0 0 0 0 0 0 0 0 0 0 0 0 0 0 0 0 0 0 127 0" result="hardAlpha"/>
<feOffset dx="-2" dy="-2"/>
<feGaussianBlur stdDeviation="3"/>
<feComposite in2="hardAlpha" operator="arithmetic" k2="-1" k3="1"/>
<feColorMatrix type="matrix" values="0 0 0 0 0.983333 0 0 0 0 0.989394 0 0 0 0 1 0 0 0 0.8 0"/>
<feBlend mode="normal" in2="shape" result="effect1_innerShadow_2520_19948"/>
</filter>
<linearGradient id="paint0_linear_2520_19948" x1="13.5" y1="18.1333" x2="27.0033" y2="26.8425" gradientUnits="userSpaceOnUse">
<stop stop-color="#E9EDF4"/>
<stop offset="1" stop-color="#E8EDF7"/>
</linearGradient>
</defs>
</svg>
