<svg width="25" height="24" viewBox="0 0 25 24" fill="none" xmlns="http://www.w3.org/2000/svg">
<path d="M18.1646 0.0049936L15.0524 0C11.5559 0 9.29631 2.31828 9.29631 5.90643V8.62969H6.1671C5.8967 8.62969 5.67773 8.84891 5.67773 9.11932V13.065C5.67773 13.3354 5.89695 13.5544 6.1671 13.5544H9.29631V23.5106C9.29631 23.781 9.51528 24 9.78568 24H13.8684C14.1388 24 14.3578 23.7808 14.3578 23.5106V13.5544H18.0165C18.2869 13.5544 18.5059 13.3354 18.5059 13.065L18.5074 9.11932C18.5074 8.98948 18.4557 8.86514 18.3641 8.77326C18.2725 8.68138 18.1476 8.62969 18.0178 8.62969H14.3578V6.32115C14.3578 5.21157 14.6222 4.64829 16.0676 4.64829L18.1641 4.64755C18.4343 4.64755 18.6532 4.42833 18.6532 4.15817V0.494367C18.6532 0.224462 18.4345 0.00549296 18.1646 0.0049936Z" fill="white"/>
</svg>
