<svg width="32" height="32" viewBox="0 0 32 32" fill="none" xmlns="http://www.w3.org/2000/svg">
<g clip-path="url(#clip0_509_20176)">
<g filter="url(#filter0_i_509_20176)">
<path d="M2 1H26C26.2652 1 26.5196 1.10536 26.7071 1.29289C26.8946 1.48043 27 1.73478 27 2V26C27 26.2652 26.8946 26.5196 26.7071 26.7071C26.5196 26.8946 26.2652 27 26 27H2C1.73478 27 1.48043 26.8946 1.29289 26.7071C1.10536 26.5196 1 26.2652 1 26V2C1 1.73478 1.10536 1.48043 1.29289 1.29289C1.48043 1.10536 1.73478 1 2 1Z" fill="#4C75BA" fill-opacity="0.2"/>
</g>
<path d="M2 1.25H26C26.1989 1.25 26.3897 1.32902 26.5303 1.46967C26.671 1.61032 26.75 1.80109 26.75 2V26C26.75 26.1989 26.671 26.3897 26.5303 26.5303C26.3897 26.671 26.1989 26.75 26 26.75H2C1.80109 26.75 1.61032 26.671 1.46967 26.5303C1.32902 26.3897 1.25 26.1989 1.25 26V2C1.25 1.80109 1.32902 1.61032 1.46967 1.46967C1.61032 1.32902 1.80109 1.25 2 1.25Z" stroke="url(#paint0_linear_509_20176)" stroke-width="0.5"/>
<path d="M7 6.25H31C31.1989 6.25 31.3897 6.32902 31.5303 6.46967C31.671 6.61032 31.75 6.80109 31.75 7V31C31.75 31.1989 31.671 31.3897 31.5303 31.5303C31.3897 31.671 31.1989 31.75 31 31.75H7C6.80109 31.75 6.61032 31.671 6.46967 31.5303C6.32902 31.3897 6.25 31.1989 6.25 31V7C6.25 6.80109 6.32902 6.61032 6.46967 6.46967C6.61032 6.32902 6.80109 6.25 7 6.25Z" stroke="#0876E4" stroke-width="0.5"/>
<circle cx="13.833" cy="12.9999" r="2" fill="#0876E4"/>
<path d="M31.833 15.9999L24.8329 23.9999C24.3329 24.6666 22.8329 25.5999 20.8329 23.9999C18.3329 21.9999 16.3329 20.4999 15.8329 20.4999C15.3329 20.4999 14.8329 20.4999 13.3329 22.4999C12.1329 24.0999 7.99967 29.3333 6.33301 31.4999" stroke="#0876E4" stroke-width="0.5"/>
</g>
<defs>
<filter id="filter0_i_509_20176" x="-1" y="-1" width="28" height="28" filterUnits="userSpaceOnUse" color-interpolation-filters="sRGB">
<feFlood flood-opacity="0" result="BackgroundImageFix"/>
<feBlend mode="normal" in="SourceGraphic" in2="BackgroundImageFix" result="shape"/>
<feColorMatrix in="SourceAlpha" type="matrix" values="0 0 0 0 0 0 0 0 0 0 0 0 0 0 0 0 0 0 127 0" result="hardAlpha"/>
<feOffset dx="-2" dy="-2"/>
<feGaussianBlur stdDeviation="3"/>
<feComposite in2="hardAlpha" operator="arithmetic" k2="-1" k3="1"/>
<feColorMatrix type="matrix" values="0 0 0 0 0.983333 0 0 0 0 0.989394 0 0 0 0 1 0 0 0 0.8 0"/>
<feBlend mode="normal" in2="shape" result="effect1_innerShadow_509_20176"/>
</filter>
<linearGradient id="paint0_linear_509_20176" x1="1" y1="1.24763" x2="28.3853" y2="25.9752" gradientUnits="userSpaceOnUse">
<stop stop-color="#E9EDF4"/>
<stop offset="1" stop-color="#E8EDF7"/>
</linearGradient>
<clipPath id="clip0_509_20176">
<rect width="32" height="32" fill="white"/>
</clipPath>
</defs>
</svg>
