<svg width="21" height="25" viewBox="0 0 21 25" fill="none" xmlns="http://www.w3.org/2000/svg">
<path d="M17.0095 13.2587C17.0213 12.3439 17.2643 11.4469 17.7159 10.6512C18.1675 9.85552 18.813 9.18699 19.5924 8.70783C19.0973 8.0007 18.4441 7.41876 17.6847 7.00823C16.9253 6.5977 16.0807 6.36989 15.2179 6.3429C13.3773 6.14971 11.593 7.44424 10.6551 7.44424C9.69907 7.44424 8.25502 6.36208 6.70002 6.39407C5.6942 6.42657 4.71395 6.71905 3.85478 7.24303C2.99561 7.76701 2.28682 8.50461 1.79747 9.38396C-0.322295 13.054 1.25886 18.4477 3.28941 21.4143C4.30535 22.867 5.49268 24.4896 7.04628 24.4321C8.56657 24.369 9.13437 23.4626 10.9695 23.4626C12.7876 23.4626 13.3203 24.4321 14.9054 24.3955C16.5367 24.369 17.5646 22.9364 18.5449 21.47C19.2748 20.4349 19.8365 19.2909 20.2091 18.0804C19.2614 17.6796 18.4526 17.0086 17.8836 16.1511C17.3146 15.2937 17.0106 14.2878 17.0095 13.2587Z" fill="white"/>
<path d="M14.0155 4.39231C14.905 3.32452 15.3432 1.95207 15.2371 0.566406C13.8782 0.709135 12.6229 1.35861 11.7214 2.38542C11.2806 2.88705 10.9431 3.47063 10.728 4.1028C10.5129 4.73497 10.4245 5.40333 10.4678 6.06968C11.1475 6.07668 11.82 5.92936 12.4345 5.63881C13.049 5.34826 13.5896 4.92206 14.0155 4.39231Z" fill="white"/>
</svg>
