<svg width="21" height="24" viewBox="0 0 21 24" fill="none" xmlns="http://www.w3.org/2000/svg">
<path d="M7.2973 2.24872C9.02822 1.22099 11.1823 1.22099 12.9132 2.24872L17.0185 4.68622C18.6875 5.67717 19.7105 7.47444 19.7105 9.41542V14.5846C19.7105 16.5256 18.6875 18.3228 17.0185 19.3138L12.9132 21.7513C11.1823 22.779 9.02822 22.779 7.2973 21.7513L3.19204 19.3138C1.52307 18.3228 0.5 16.5256 0.5 14.5846V9.41542C0.5 7.47444 1.52307 5.67717 3.19204 4.68622L7.2973 2.24872Z" stroke="#FB668A"/>
<g clip-path="url(#clip0_2519_12655)">
<path d="M6.97164 11.4128L6.97164 8.31464C6.97164 7.55274 7.29394 6.82205 7.86763 6.2833C8.44133 5.74456 9.21943 5.44189 10.0308 5.44189C10.8421 5.44189 11.6202 5.74456 12.1939 6.2833C12.7676 6.82205 13.0899 7.55274 13.0899 8.31464V11.4128M5.96576 11.4128H14.101C14.2492 11.413 14.3911 11.4683 14.4958 11.5667C14.6005 11.6651 14.6593 11.7985 14.6593 11.9376V16.6361C14.6593 16.7753 14.6004 16.9087 14.4957 17.0071C14.391 17.1055 14.2489 17.1608 14.1008 17.1609H5.96605C5.81784 17.1609 5.6757 17.1056 5.5709 17.0072C5.4661 16.9088 5.40723 16.7753 5.40723 16.6361V11.9376C5.40723 11.7984 5.4661 11.6649 5.5709 11.5665C5.6757 11.4681 5.81755 11.4128 5.96576 11.4128Z" stroke="#FB668A" stroke-linecap="round" stroke-linejoin="round"/>
<path d="M10.01 15.4007C10.6652 15.4007 11.1964 14.9019 11.1964 14.2866C11.1964 13.6712 10.6652 13.1724 10.01 13.1724C9.35469 13.1724 8.82349 13.6712 8.82349 14.2866C8.82349 14.9019 9.35469 15.4007 10.01 15.4007Z" stroke="#FB668A" stroke-linecap="round" stroke-linejoin="round"/>
</g>
<defs>
<clipPath id="clip0_2519_12655">
<rect width="10" height="12.5" fill="white" transform="translate(5 5)"/>
</clipPath>
</defs>
</svg>
