<svg width="32" height="33" viewBox="0 0 32 33" fill="none" xmlns="http://www.w3.org/2000/svg">
<g clip-path="url(#clip0_2519_9382)">
<path d="M16 0.5C11.7575 0.5 7.685 2.18675 4.6875 5.18625C1.68691 8.18694 0.000831175 12.2565 0 16.5C0 20.7417 1.6875 24.8142 4.6875 27.8137C7.685 30.8132 11.7575 32.5 16 32.5C20.2425 32.5 24.315 30.8132 27.3125 27.8137C30.3125 24.8142 32 20.7417 32 16.5C32 12.2583 30.3125 8.18575 27.3125 5.18625C24.315 2.18675 20.2425 0.5 16 0.5Z" fill="url(#paint0_linear_2519_9382)"/>
<path d="M7.24262 16.3311C11.9076 14.2991 15.0176 12.9593 16.5726 12.3121C21.0176 10.4638 21.9401 10.1428 22.5426 10.1319C22.6751 10.1298 22.9701 10.1626 23.1626 10.3182C23.3226 10.4494 23.3676 10.6269 23.3901 10.7516C23.4101 10.8761 23.4376 11.1598 23.4151 11.3813C23.1751 13.9113 22.1326 20.0508 21.6026 22.8846C21.3801 24.0836 20.9376 24.4856 20.5101 24.5248C19.5801 24.6103 18.8751 23.9108 17.9751 23.3211C16.5676 22.3978 15.7726 21.8233 14.4051 20.9226C12.8251 19.8816 13.8501 19.3093 14.7501 18.3743C14.9851 18.1296 19.0801 14.4058 19.1576 14.0681C19.1676 14.0258 19.1776 13.8683 19.0826 13.7853C18.9901 13.7021 18.8526 13.7306 18.7526 13.7531C18.6101 13.7851 16.3626 15.2721 12.0026 18.2138C11.3651 18.6523 10.7876 18.8661 10.2676 18.8548C9.69762 18.8426 8.59762 18.5318 7.78012 18.2663C6.78012 17.9406 5.98262 17.7683 6.05262 17.2151C6.08762 16.9271 6.48512 16.6323 7.24262 16.3311Z" fill="white"/>
</g>
<defs>
<linearGradient id="paint0_linear_2519_9382" x1="16" y1="0.5" x2="16" y2="32.5" gradientUnits="userSpaceOnUse">
<stop stop-color="#2AABEE"/>
<stop offset="1" stop-color="#229ED9"/>
</linearGradient>
<clipPath id="clip0_2519_9382">
<rect width="32" height="32" fill="white" transform="translate(0 0.5)"/>
</clipPath>
</defs>
</svg>
