<svg width="136" height="132" viewBox="0 0 136 132" fill="none" xmlns="http://www.w3.org/2000/svg">
<path d="M81.0437 15.7566C88.5 11 100.015 11.7598 107.518 19.2634C115.022 26.767 114.502 42.863 106.999 50.3665L106.857 43.4665C106.857 43.4665 96.8641 61.8701 101.048 73.08C101.048 73.08 94.0065 66.3216 96.3992 60.6247C96.3992 60.6247 91.6518 73.9004 85.4562 77.7928L89.6799 69.5481C72.9746 81.1866 62.7452 86.4168 54.0824 108.559C54.0824 108.559 55.1182 97.8691 58.7403 90.8918L32.2805 116.536C32.2805 116.536 36.6121 99.7185 47.1388 76.0687C47.1388 76.0687 42.2107 80.5626 36.6038 82.5603C45.8456 74.2127 61.6787 50.6687 63.4447 44.9846L56.0846 53.2937C55.9543 46.9426 60.231 41.2853 68.2569 34.8452L56.4416 40.108C63.8917 36.1899 74.2852 22.7983 74.2852 22.7983L69.92 24.1429C73.6064 20.302 76.4572 18.6825 81.0437 15.7566Z" stroke="#053D75" stroke-linejoin="round" fill="#F1EEF4"/>
<rect x="76.4456" y="16.9323" width="31.3741" height="31.3741" rx="15.687" fill="#229ED9"/>
<path fill-rule="evenodd" clip-rule="evenodd" d="M83.5075 31.6288C88.8762 29.6178 92.4561 28.292 94.2474 27.6515C99.3618 25.8226 100.424 25.5049 101.117 25.4944C101.269 25.4921 101.61 25.5245 101.831 25.6785C102.017 25.8084 102.068 25.984 102.093 26.1072C102.117 26.2305 102.148 26.5112 102.124 26.7306C101.847 29.2342 100.647 35.3098 100.037 38.1139C99.7791 39.3004 99.2707 39.6983 98.7786 39.7372C97.7092 39.8218 96.8971 39.1296 95.8612 38.5458C94.2404 37.6323 93.3247 37.0637 91.7514 36.1723C89.9331 35.1421 91.1118 34.5759 92.148 33.6506C92.4192 33.4084 97.1313 29.7236 97.2225 29.3893C97.2339 29.3475 97.2445 29.1916 97.1368 29.1093C97.0291 29.0271 96.8702 29.0552 96.7555 29.0776C96.5929 29.1093 94.0036 30.5807 88.9874 33.4919C88.2525 33.9258 87.5867 34.1372 86.9903 34.1261C86.3327 34.1139 85.0678 33.8065 84.1275 33.5437C82.9742 33.2214 82.0576 33.051 82.1374 32.5036C82.179 32.2184 82.6357 31.9269 83.5075 31.6288Z" fill="white"/>
</svg>
