<svg width="25" height="24" viewBox="0 0 25 24" fill="none" xmlns="http://www.w3.org/2000/svg">
<path d="M16.0313 20.64H9.10866C6.42952 20.64 4.25 18.4605 4.25 15.7813V8.85866C4.25 6.17952 6.42952 4 9.10866 4H16.0313C18.7105 4 20.89 6.17952 20.89 8.85866V15.7813C20.89 18.4605 18.7105 20.64 16.0313 20.64ZM9.10866 5.41017C7.20713 5.41017 5.66017 6.95713 5.66017 8.85866V15.7813C5.66017 17.6829 7.20713 19.2298 9.10866 19.2298H16.0313C17.9329 19.2298 19.4798 17.6829 19.4798 15.7813V8.85866C19.4798 6.95713 17.9329 5.41017 16.0313 5.41017H9.10866Z" fill="white"/>
<path d="M12.5692 16.8326C10.081 16.8326 8.05664 14.8082 8.05664 12.32C8.05664 9.83186 10.081 7.8075 12.5692 7.8075C15.0574 7.8075 17.0817 9.83186 17.0817 12.32C17.0817 14.8082 15.0574 16.8326 12.5692 16.8326ZM12.5692 9.21766C10.8584 9.21766 9.46681 10.6093 9.46681 12.32C9.46681 14.0308 10.8584 15.4224 12.5692 15.4224C14.2799 15.4224 15.6716 14.0308 15.6716 12.32C15.6716 10.6093 14.2799 9.21766 12.5692 9.21766Z" fill="white"/>
<path d="M17.7322 7.80264C17.7322 8.15903 17.4432 8.44805 17.0868 8.44805C16.7304 8.44805 16.4414 8.15903 16.4414 7.80264C16.4414 7.44624 16.7304 7.15723 17.0868 7.15723C17.4432 7.15723 17.7322 7.44624 17.7322 7.80264Z" fill="white"/>
</svg>
