<svg width="33" height="32" viewBox="0 0 33 32" fill="none" xmlns="http://www.w3.org/2000/svg">
<path d="M29.333 29H5.19015C4.69776 28.9995 3.33304 29 3.33304 29C3.33304 29 3.3335 27.6353 3.33301 27.1429V3H3.83313V28.5H29.3331L29.333 29Z" fill="#0876E4"/>
<g filter="url(#filter0_i_2643_6699)">
<path d="M14.3335 25H7.3335V12H14.3335V25Z" fill="#4C75BA" fill-opacity="0.2"/>
</g>
<path d="M14.0835 24.75H7.5835V12.25H14.0835V24.75Z" stroke="url(#paint0_linear_2643_6699)" stroke-width="0.5"/>
<g filter="url(#filter1_i_2643_6699)">
<path d="M25.3335 23H18.3335V7H25.3335V23Z" fill="#4C75BA" fill-opacity="0.2"/>
</g>
<path d="M25.0835 22.75H18.5835V7.25H25.0835V22.75Z" stroke="url(#paint1_linear_2643_6699)" stroke-width="0.5"/>
<path d="M27.083 20.75H20.583V5.25001H27.083V20.75ZM16.083 22.75H9.58301V10.25H16.083V22.75Z" stroke="#0876E4" stroke-width="0.5"/>
<path d="M27.083 20.75H20.583V5.25H27.083V20.75Z" fill="#0876E4" stroke="#0876E4" stroke-width="0.5"/>
<defs>
<filter id="filter0_i_2643_6699" x="5.3335" y="10" width="9" height="15" filterUnits="userSpaceOnUse" color-interpolation-filters="sRGB">
<feFlood flood-opacity="0" result="BackgroundImageFix"/>
<feBlend mode="normal" in="SourceGraphic" in2="BackgroundImageFix" result="shape"/>
<feColorMatrix in="SourceAlpha" type="matrix" values="0 0 0 0 0 0 0 0 0 0 0 0 0 0 0 0 0 0 127 0" result="hardAlpha"/>
<feOffset dx="-2" dy="-2"/>
<feGaussianBlur stdDeviation="3"/>
<feComposite in2="hardAlpha" operator="arithmetic" k2="-1" k3="1"/>
<feColorMatrix type="matrix" values="0 0 0 0 0.983333 0 0 0 0 0.989394 0 0 0 0 1 0 0 0 0.8 0"/>
<feBlend mode="normal" in2="shape" result="effect1_innerShadow_2643_6699"/>
</filter>
<filter id="filter1_i_2643_6699" x="16.3335" y="5" width="9" height="18" filterUnits="userSpaceOnUse" color-interpolation-filters="sRGB">
<feFlood flood-opacity="0" result="BackgroundImageFix"/>
<feBlend mode="normal" in="SourceGraphic" in2="BackgroundImageFix" result="shape"/>
<feColorMatrix in="SourceAlpha" type="matrix" values="0 0 0 0 0 0 0 0 0 0 0 0 0 0 0 0 0 0 127 0" result="hardAlpha"/>
<feOffset dx="-2" dy="-2"/>
<feGaussianBlur stdDeviation="3"/>
<feComposite in2="hardAlpha" operator="arithmetic" k2="-1" k3="1"/>
<feColorMatrix type="matrix" values="0 0 0 0 0.983333 0 0 0 0 0.989394 0 0 0 0 1 0 0 0 0.8 0"/>
<feBlend mode="normal" in2="shape" result="effect1_innerShadow_2643_6699"/>
</filter>
<linearGradient id="paint0_linear_2643_6699" x1="7.3335" y1="12.1238" x2="18.1588" y2="17.3871" gradientUnits="userSpaceOnUse">
<stop stop-color="#E9EDF4"/>
<stop offset="1" stop-color="#E8EDF7"/>
</linearGradient>
<linearGradient id="paint1_linear_2643_6699" x1="18.3335" y1="7.15239" x2="29.911" y2="11.726" gradientUnits="userSpaceOnUse">
<stop stop-color="#E9EDF4"/>
<stop offset="1" stop-color="#E8EDF7"/>
</linearGradient>
</defs>
</svg>
