<svg width="159" height="34" viewBox="0 0 159 34" fill="none" xmlns="http://www.w3.org/2000/svg">
<g clip-path="url(#clip0_2846_9378)">
<path fill-rule="evenodd" clip-rule="evenodd" d="M129.213 3.28849L140.203 16.02L129.213 28.7535L132.261 31.3833L145.521 16.02L132.261 0.655762L129.213 3.28849Z" fill="#D9D9D9"/>
<path fill-rule="evenodd" clip-rule="evenodd" d="M142.58 3.28849L153.569 16.02L142.58 28.7535L145.627 31.3833L158.888 16.02L145.627 0.655762L142.58 3.28849Z" fill="#D9D9D9"/>
<path fill-rule="evenodd" clip-rule="evenodd" d="M13.7392 27.8036C13.7392 28.0757 13.7257 28.3038 13.6985 28.4873C13.6709 28.6712 13.6267 28.8276 13.5656 28.9569C13.5041 29.0867 13.4294 29.1816 13.3406 29.2426C13.2519 29.3041 13.1467 29.3346 13.024 29.3346H1.33027C1.01653 29.3346 0.720247 29.2295 0.440936 29.0184C0.16114 28.8073 0.0214844 28.4364 0.0214844 27.9058V3.45222C0.0214844 3.34328 0.0486396 3.2479 0.103435 3.16656C0.157745 3.08473 0.253274 3.02034 0.389535 2.97241C0.525796 2.92496 0.709579 2.88429 0.941368 2.84991C1.17316 2.8165 1.45247 2.79907 1.77979 2.79907C2.1202 2.79907 2.4029 2.8165 2.6279 2.84991C2.8529 2.88429 3.03329 2.92496 3.17004 2.97241C3.30581 3.02034 3.40183 3.08473 3.45614 3.16656C3.51045 3.24838 3.53809 3.34328 3.53809 3.45222V26.2935H13.024C13.1467 26.2935 13.2519 26.324 13.3406 26.3855C13.4289 26.447 13.5041 26.5351 13.5656 26.6503C13.6272 26.766 13.6714 26.919 13.6985 27.1098C13.7257 27.3006 13.7392 27.5315 13.7392 27.8036Z" fill="#D9D9D9"/>
<path fill-rule="evenodd" clip-rule="evenodd" d="M21.1396 28.8039C21.1396 28.9133 21.112 29.0082 21.0577 29.0896C21.0029 29.1714 20.9074 29.2358 20.7716 29.2837C20.6349 29.3316 20.455 29.3718 20.2295 29.4062C20.0045 29.4396 19.7218 29.457 19.3813 29.457C19.054 29.457 18.7742 29.4396 18.5429 29.4062C18.3111 29.3718 18.1274 29.3312 17.9911 29.2837C17.8548 29.2358 17.7593 29.1714 17.705 29.0896C17.6502 29.0077 17.623 28.9133 17.623 28.8039V3.45222C17.623 3.34328 17.6536 3.2479 17.7152 3.16656C17.7768 3.08473 17.8786 3.02034 18.0216 2.97241C18.1647 2.92496 18.349 2.88429 18.5735 2.84991C18.7985 2.8165 19.0671 2.79907 19.3813 2.79907C19.7218 2.79907 20.0045 2.8165 20.2295 2.84991C20.4545 2.88429 20.6349 2.92496 20.7716 2.97241C20.9074 3.02034 21.0034 3.08473 21.0577 3.16656C21.112 3.24838 21.1396 3.34328 21.1396 3.45222V28.8039Z" fill="#D9D9D9"/>
<path fill-rule="evenodd" clip-rule="evenodd" d="M53.5832 31.6617C53.5832 31.9744 53.5663 32.2364 53.5323 32.447C53.4979 32.6581 53.447 32.8213 53.3791 32.937C53.3107 33.0522 53.236 33.1311 53.1541 33.1718C53.0721 33.2125 52.9902 33.2333 52.9087 33.2333C52.6362 33.2333 52.1964 33.121 51.5902 32.8968C50.9841 32.6726 50.2853 32.3453 49.4949 31.9173C48.7045 31.4883 47.8593 30.9678 46.9598 30.3554C46.0603 29.7429 45.1879 29.0287 44.3432 28.2119C43.6755 28.6201 42.8303 28.974 41.8081 29.2733C40.7859 29.5725 39.6002 29.7226 38.2507 29.7226C36.2606 29.7226 34.5402 29.4296 33.0888 28.8448C31.6375 28.2599 30.4378 27.4024 29.4907 26.2728C28.5432 25.1433 27.8381 23.7387 27.3746 22.0581C26.911 20.3776 26.6797 18.4486 26.6797 16.2713C26.6797 14.1758 26.9318 12.2808 27.4362 10.5867C27.9405 8.89255 28.6969 7.45021 29.7056 6.25915C30.7142 5.06857 31.975 4.1501 33.4874 3.50373C35.0003 2.85736 36.7649 2.53394 38.7822 2.53394C40.6763 2.53394 42.3429 2.82686 43.7807 3.41174C45.2185 3.9971 46.4244 4.85118 47.3991 5.97349C48.3733 7.09628 49.106 8.48101 49.5968 10.1272C50.0875 11.7739 50.3329 13.6655 50.3329 15.8017C50.3329 16.9041 50.2679 17.9587 50.1384 18.9657C50.0089 19.9733 49.8043 20.9257 49.5255 21.8238C49.2457 22.7219 48.8946 23.5518 48.4727 24.3139C48.0499 25.0765 47.5524 25.763 46.9802 26.3755C47.9747 27.1918 48.8471 27.8285 49.5968 28.2841C50.346 28.7402 50.9666 29.0839 51.4569 29.3149C51.9476 29.5463 52.3288 29.7129 52.6018 29.8146C52.8738 29.9167 53.0784 30.0324 53.2152 30.1617C53.351 30.2905 53.447 30.4745 53.5013 30.7127C53.5556 30.9504 53.5832 31.2671 53.5832 31.6617ZM46.6325 16.0467C46.6325 14.5496 46.4996 13.162 46.2339 11.8823C45.9681 10.6031 45.5249 9.49099 44.9047 8.54492C44.2845 7.59933 43.4563 6.86097 42.421 6.33032C41.3852 5.79967 40.1041 5.53434 38.5776 5.53434C37.051 5.53434 35.7699 5.81662 34.7341 6.38164C33.6983 6.94667 32.8565 7.70827 32.2092 8.6679C31.5618 9.62704 31.0982 10.7397 30.8189 12.0053C30.5396 13.2709 30.3995 14.6111 30.3995 16.0268C30.3995 17.5781 30.5289 19.0035 30.7879 20.303C31.0468 21.6025 31.4828 22.7292 32.0962 23.6816C32.7096 24.6344 33.5306 25.3728 34.5596 25.8962C35.5885 26.42 36.8799 26.682 38.4335 26.682C39.9736 26.682 41.2683 26.3963 42.3177 25.825C43.3671 25.2537 44.2118 24.4814 44.8528 23.5082C45.4934 22.5355 45.9497 21.4055 46.2227 20.12C46.4962 18.8331 46.6325 17.4755 46.6325 16.0467Z" fill="#D9D9D9"/>
<path fill-rule="evenodd" clip-rule="evenodd" d="M72.5966 10.6577C72.5966 11.978 72.3784 13.1686 71.9425 14.2299C71.5061 15.2917 70.8829 16.1966 70.0722 16.9447C69.2614 17.6932 68.2659 18.2713 67.087 18.6795C65.9082 19.0876 64.501 19.2919 62.8659 19.2919H59.8604V28.804C59.8604 28.9134 59.8298 29.0083 59.7682 29.0896C59.7066 29.1714 59.6116 29.2358 59.4821 29.2838C59.3526 29.3317 59.1757 29.3719 58.9507 29.4063C58.7257 29.4397 58.4429 29.4571 58.1025 29.4571C57.7616 29.4571 57.4789 29.4397 57.2539 29.4063C57.0289 29.3719 56.8481 29.3312 56.7118 29.2838C56.5755 29.2358 56.48 29.1714 56.4257 29.0896C56.3709 29.0078 56.3438 28.9134 56.3438 28.804V4.43176C56.3438 3.88755 56.4868 3.49973 56.7729 3.26829C57.059 3.03686 57.379 2.92114 57.734 2.92114H63.3968C63.9695 2.92114 64.518 2.94487 65.0426 2.9928C65.5673 3.04073 66.187 3.14241 66.9028 3.2988C67.618 3.45567 68.3473 3.74811 69.0902 4.1766C69.8326 4.60509 70.463 5.13284 70.9814 5.75839C71.4993 6.38442 71.8979 7.10922 72.1772 7.93231C72.4565 8.75637 72.5966 9.66468 72.5966 10.6577ZM68.8963 10.9434C68.8963 9.86851 68.695 8.97038 68.293 8.24848C67.891 7.52755 67.3935 6.99012 66.8005 6.63619C66.2079 6.28226 65.5945 6.05809 64.9607 5.96271C64.3269 5.86781 63.7101 5.81987 63.1103 5.81987H59.8599V16.4135H63.0288C64.0922 16.4135 64.9743 16.278 65.6764 16.0054C66.3781 15.7338 66.9677 15.3561 67.4449 14.8724C67.9221 14.3897 68.2828 13.8111 68.5287 13.1376C68.7736 12.4642 68.8963 11.7326 68.8963 10.9434Z" fill="#D9D9D9"/>
<path fill-rule="evenodd" clip-rule="evenodd" d="M97.7823 28.0898C97.8909 28.3895 97.9491 28.6306 97.9559 28.8146C97.9622 28.9985 97.9113 29.138 97.8027 29.2334C97.6935 29.3283 97.5132 29.3893 97.261 29.4169C97.0084 29.444 96.6714 29.458 96.249 29.458C95.8266 29.458 95.4891 29.4479 95.237 29.4275C94.9848 29.4072 94.7938 29.3728 94.6648 29.3254C94.5348 29.2779 94.4398 29.213 94.3787 29.1317C94.3171 29.0499 94.2594 28.9477 94.2051 28.8257L91.9357 22.3959H80.9368L78.7698 28.7439C78.7285 28.8664 78.6742 28.9724 78.6059 29.06C78.5375 29.1486 78.439 29.2237 78.3096 29.2847C78.1801 29.3457 77.9958 29.3898 77.7577 29.4174C77.5192 29.4445 77.2088 29.4585 76.8277 29.4585C76.4325 29.4585 76.1085 29.4411 75.8569 29.4077C75.6047 29.3733 75.4277 29.3089 75.3254 29.2135C75.2236 29.1186 75.1751 28.9787 75.1824 28.7952C75.1891 28.6112 75.2468 28.3696 75.356 28.0704L84.2284 3.53502C84.2827 3.38541 84.3545 3.26292 84.4428 3.16753C84.531 3.07215 84.661 2.99711 84.8312 2.94288C85.0014 2.88865 85.2196 2.85089 85.4853 2.83055C85.7506 2.81022 86.0886 2.80005 86.4974 2.80005C86.9333 2.80005 87.2946 2.81022 87.5811 2.83055C87.8672 2.85089 88.099 2.88865 88.276 2.94288C88.453 2.99759 88.5893 3.07554 88.6848 3.1777C88.7798 3.27986 88.855 3.40575 88.9098 3.55536L97.7823 28.0898ZM86.395 6.4323H86.3747L81.816 19.5979H91.0153L86.395 6.4323Z" fill="#D9D9D9"/>
<path fill-rule="evenodd" clip-rule="evenodd" d="M110.62 19.0672V28.8034C110.62 28.9128 110.593 29.0077 110.538 29.0891C110.484 29.1709 110.389 29.2353 110.254 29.2832C110.118 29.3312 109.935 29.3713 109.705 29.4057C109.474 29.4391 109.196 29.4566 108.872 29.4566C108.533 29.4566 108.252 29.4391 108.028 29.4057C107.804 29.3713 107.621 29.3307 107.479 29.2832C107.336 29.2353 107.238 29.1709 107.184 29.0891C107.13 29.0072 107.103 28.9128 107.103 28.8034V19.0672L99.6209 4.16637C99.4705 3.85359 99.3784 3.6086 99.345 3.4314C99.3105 3.25467 99.345 3.11862 99.4473 3.02324C99.5491 2.92834 99.7334 2.86734 99.9991 2.83974C100.265 2.81262 100.622 2.79858 101.072 2.79858C101.481 2.79858 101.811 2.81262 102.064 2.83974C102.316 2.86734 102.517 2.90462 102.667 2.95207C102.817 3 102.929 3.06778 103.004 3.15639C103.079 3.24499 103.151 3.35732 103.219 3.49289L106.878 11.0861C107.218 11.8076 107.557 12.5629 107.895 13.3521C108.234 14.1413 108.58 14.9372 108.932 15.74H108.973C109.284 14.9644 109.606 14.1926 109.938 13.4232C110.27 12.6549 110.606 11.8962 110.947 11.1476L114.626 3.5137C114.667 3.37765 114.725 3.26194 114.8 3.16655C114.875 3.07166 114.977 3 115.107 2.95207C115.236 2.90462 115.416 2.86734 115.648 2.83974C115.88 2.81262 116.173 2.79858 116.527 2.79858C117.018 2.79858 117.403 2.81601 117.682 2.84942C117.962 2.8838 118.156 2.94819 118.265 3.04357C118.375 3.13896 118.412 3.27501 118.378 3.45173C118.344 3.62894 118.252 3.86667 118.102 4.16588L110.62 19.0672Z" fill="#D9D9D9"/>
</g>
<defs>
<clipPath id="clip0_2846_9378">
<rect width="159" height="32.6916" fill="white" transform="translate(0 0.654297)"/>
</clipPath>
</defs>
</svg>
