<svg width="44" height="36" viewBox="0 0 44 36" fill="none" xmlns="http://www.w3.org/2000/svg">
<path d="M42.5484 21.5706C45.0031 26.2716 44.2358 29.5799 41.0678 32.7479C37.8999 35.9158 31.1043 35.6966 27.9363 32.5286L30.8495 32.4689C30.8495 32.4689 23.0796 28.2498 18.3469 30.0163C18.3469 30.0163 21.0417 27.2085 23.4012 27.9775C22.3793 27.5887 17.8132 25.7511 16.3572 23.4335L19.838 25.2167C14.9243 18.1639 12.7162 13.8451 3.36813 10.1877C3.36813 10.1877 7.88115 10.625 10.8269 12.1543L0 0.983154C0 0.983154 7.10033 2.8119 17.0851 7.25619C17.0851 7.25619 15.1878 5.17557 14.3444 2.80839C17.8687 6.71023 27.8087 13.3948 30.2085 14.1404L26.7005 11.0331C29.3819 10.978 31.7703 12.7836 34.4893 16.1721L32.2674 11.1838C33.9216 14.3292 39.5754 18.7172 39.5754 18.7172L39.0077 16.8742C40.6293 18.4306 41.4852 19.5346 42.5484 21.5706Z" fill="url(#paint0_linear_2565_4511)"/>
<path d="M39.3408 20.8433C41.4511 23.9757 41.1705 26.378 39.1798 28.8714C37.1891 31.3648 32.3622 31.7488 29.8688 29.7581L31.9258 29.4847C31.9258 29.4847 26.092 27.1152 22.8827 28.7409C22.8827 28.7409 24.5671 26.5399 26.298 26.8969C25.5439 26.7029 22.1665 25.7646 20.9522 24.2399L23.5572 25.2257C19.52 20.6241 17.6145 17.7427 10.7084 15.896C10.7084 15.896 13.9371 15.8474 16.1432 16.696L7.5943 9.6488C7.5943 9.6488 12.7646 10.3797 20.1837 12.7329C20.1837 12.7329 18.6759 11.4109 17.8912 9.80246C20.695 12.2843 28.2603 16.2265 30.0179 16.5638L27.2886 14.643C29.1819 14.3913 31.0156 15.4797 33.2088 17.6621L31.2405 14.3079C32.6608 16.4028 37.0103 19.0598 37.0103 19.0598L36.4623 17.8005C37.7335 18.7733 38.4268 19.4867 39.3408 20.8433Z" fill="url(#paint1_linear_2565_4511)"/>
<path d="M34.6938 21.0978C35.0874 20.8641 35.5773 20.8641 35.9709 21.0978L39.075 22.9409C39.4545 23.1662 39.6871 23.5749 39.6871 24.0163V27.7791C39.6871 28.2204 39.4545 28.6291 39.075 28.8545L35.9709 30.6975C35.5773 30.9312 35.0874 30.9312 34.6938 30.6975L31.5897 28.8545C31.2102 28.6291 30.9776 28.2204 30.9776 27.7791V24.0163C30.9776 23.5749 31.2102 23.1662 31.5897 22.9409L34.6938 21.0978Z" stroke="#0876E4" stroke-width="0.62533"/>
<path fill-rule="evenodd" clip-rule="evenodd" d="M35.4051 23.4277C34.5399 23.4277 33.8385 24.1011 33.8385 24.9317C33.8385 25.0749 33.9594 25.191 34.1086 25.191C34.2578 25.191 34.3787 25.0749 34.3787 24.9317C34.3787 24.3875 34.8382 23.9463 35.4051 23.9463C35.972 23.9463 36.4315 24.3875 36.4315 24.9317V25.3984H34.0005C33.732 25.3984 33.5143 25.6073 33.5143 25.8651V27.2135C33.5143 27.6431 33.8771 27.9914 34.3247 27.9914H36.4855C36.933 27.9914 37.2958 27.6431 37.2958 27.2135V25.8651C37.2958 25.6619 37.1605 25.489 36.9717 25.4249V24.9317C36.9717 24.1011 36.2703 23.4277 35.4051 23.4277ZM36.6959 25.917C36.6978 25.917 36.6997 25.917 36.7016 25.917C36.7035 25.917 36.7054 25.917 36.7073 25.917H36.7556V27.2135C36.7556 27.3567 36.6347 27.4728 36.4855 27.4728H34.3247C34.1755 27.4728 34.0546 27.3567 34.0546 27.2135V25.917H36.6959ZM35.4051 26.4875C35.2858 26.4875 35.189 26.5804 35.189 26.695C35.189 26.8095 35.2858 26.9024 35.4051 26.9024C35.5244 26.9024 35.6212 26.8095 35.6212 26.695C35.6212 26.5804 35.5244 26.4875 35.4051 26.4875ZM34.9729 26.695C34.9729 26.4658 35.1664 26.2801 35.4051 26.2801C35.6438 26.2801 35.8373 26.4658 35.8373 26.695C35.8373 26.9241 35.6438 27.1099 35.4051 27.1099C35.1664 27.1099 34.9729 26.9241 34.9729 26.695Z" fill="#0876E4"/>
<defs>
<linearGradient id="paint0_linear_2565_4511" x1="0.676947" y1="1.46017" x2="35.901" y2="26.6934" gradientUnits="userSpaceOnUse">
<stop stop-color="#C90000"/>
<stop offset="0.21875" stop-color="#D74D00"/>
<stop offset="0.489583" stop-color="#DB8300"/>
<stop offset="0.723958" stop-color="#EDBE19"/>
<stop offset="1" stop-color="#FFF500"/>
</linearGradient>
<linearGradient id="paint1_linear_2565_4511" x1="8.11125" y1="9.9327" x2="35.0427" y2="24.9964" gradientUnits="userSpaceOnUse">
<stop stop-color="#C90000"/>
<stop offset="0.21875" stop-color="#D74D00"/>
<stop offset="0.489583" stop-color="#DB8300"/>
<stop offset="0.723958" stop-color="#EDBE19"/>
<stop offset="1" stop-color="#FFF500"/>
</linearGradient>
</defs>
</svg>
