<svg width="24" height="24" viewBox="0 0 24 24" fill="none" xmlns="http://www.w3.org/2000/svg">
<g filter="url(#filter0_i_2513_6802)">
<path d="M11.6 3.40002C9.05392 3.40002 6.61212 4.41145 4.81177 6.2118C3.01143 8.01215 2 10.4539 2 13C2 15.5461 3.01143 17.9879 4.81177 19.7882C6.61212 21.5886 9.05392 22.6 11.6 22.6C14.1461 22.6 16.5879 21.5886 18.3882 19.7882C20.1886 17.9879 21.2 15.5461 21.2 13C21.2 10.4539 20.1886 8.01215 18.3882 6.2118C16.5879 4.41145 14.1461 3.40002 11.6 3.40002Z" fill="#4C75BA" fill-opacity="0.2"/>
</g>
<path d="M4.98855 6.38858C6.74202 4.63511 9.12023 3.65002 11.6 3.65002C14.0798 3.65002 16.458 4.63511 18.2114 6.38858C19.9649 8.14204 20.95 10.5202 20.95 13C20.95 15.4798 19.9649 17.858 18.2114 19.6115C16.458 21.3649 14.0798 22.35 11.6 22.35C9.12023 22.35 6.74202 21.3649 4.98855 19.6115C3.23509 17.858 2.25 15.4798 2.25 13C2.25 10.5202 3.23509 8.14204 4.98855 6.38858Z" stroke="url(#paint0_linear_2513_6802)" stroke-width="0.5"/>
<path d="M22.75 11.4995V11.4993C22.7507 10.7837 22.6684 10.0706 22.5048 9.37441H16.6675C16.9318 9.7674 17.121 10.2079 17.2234 10.6735L22.75 11.4995ZM22.75 11.4995C22.7497 13.757 21.9242 15.9365 20.4287 17.6275M22.75 11.4995L20.4287 17.6275M20.4287 17.6275C19.016 19.225 17.0976 20.2824 15.0009 20.6274M20.4287 17.6275L15.0009 20.6274M15.0009 20.6274L17.1607 12.5669C17.3408 11.9513 17.3624 11.3001 17.2235 10.6739L15.0009 20.6274ZM4.25001 11.4995L4.25001 11.4992C4.24858 10.383 4.44982 9.27685 4.84287 8.23434L10.7614 14.1532C11.1349 14.5396 11.5862 14.8424 12.0854 15.0414C12.7885 15.3239 13.5602 15.3889 14.3007 15.2282C14.4473 15.197 14.5917 15.1571 14.7332 15.1088L13.2225 20.7462C10.8542 20.6752 8.6005 19.6976 6.92936 18.011C5.21286 16.2786 4.24991 13.9384 4.25001 11.4995ZM18.9528 4.02722C20.2463 4.97064 21.2711 6.23221 21.9298 7.68685H13.5813C13.0358 7.67419 12.494 7.77954 11.993 7.9957C11.3402 8.27452 10.7786 8.73076 10.372 9.31262C10.0669 9.74924 9.85823 10.2435 9.75724 10.7625L5.63098 6.63501C6.50388 5.2241 7.74078 4.07274 9.21313 3.30301C10.7426 2.50342 12.4652 2.1475 14.1863 2.27548C15.9074 2.40345 17.5584 3.01022 18.9528 4.02722ZM15.0026 13.0022C14.6041 13.4008 14.0636 13.6246 13.5 13.6246C12.9364 13.6246 12.3959 13.4008 11.9974 13.0022C11.5989 12.6037 11.375 12.0632 11.375 11.4995C11.375 10.9359 11.5989 10.3954 11.9974 9.99684C12.3959 9.59831 12.9364 9.37441 13.5 9.37441C14.0636 9.37441 14.6041 9.59831 15.0026 9.99684C15.4011 10.3954 15.625 10.9359 15.625 11.4995C15.625 12.0632 15.4011 12.6037 15.0026 13.0022Z" stroke="#0876E4" stroke-width="0.5"/>
<path fill-rule="evenodd" clip-rule="evenodd" d="M13.5 13.8746C14.1299 13.8746 14.734 13.6244 15.1794 13.179C15.6248 12.7335 15.875 12.1294 15.875 11.4995C15.875 10.8696 15.6248 10.2655 15.1794 9.82005C14.734 9.37462 14.1299 9.12439 13.5 9.12439C12.8701 9.12439 12.266 9.37462 11.8206 9.82005C11.3752 10.2655 11.125 10.8696 11.125 11.4995C11.125 12.1294 11.3752 12.7335 11.8206 13.179C12.266 13.6244 12.8701 13.8746 13.5 13.8746Z" fill="#0876E4"/>
<defs>
<filter id="filter0_i_2513_6802" x="0" y="1.40002" width="21.2" height="21.2" filterUnits="userSpaceOnUse" color-interpolation-filters="sRGB">
<feFlood flood-opacity="0" result="BackgroundImageFix"/>
<feBlend mode="normal" in="SourceGraphic" in2="BackgroundImageFix" result="shape"/>
<feColorMatrix in="SourceAlpha" type="matrix" values="0 0 0 0 0 0 0 0 0 0 0 0 0 0 0 0 0 0 127 0" result="hardAlpha"/>
<feOffset dx="-2" dy="-2"/>
<feGaussianBlur stdDeviation="3"/>
<feComposite in2="hardAlpha" operator="arithmetic" k2="-1" k3="1"/>
<feColorMatrix type="matrix" values="0 0 0 0 0.983333 0 0 0 0 0.989394 0 0 0 0 1 0 0 0 0.8 0"/>
<feBlend mode="normal" in2="shape" result="effect1_innerShadow_2513_6802"/>
</filter>
<linearGradient id="paint0_linear_2513_6802" x1="2" y1="3.58289" x2="22.223" y2="21.8432" gradientUnits="userSpaceOnUse">
<stop stop-color="#E9EDF4"/>
<stop offset="1" stop-color="#E8EDF7"/>
</linearGradient>
</defs>
</svg>
