<svg width="24" height="24" viewBox="0 0 24 24" fill="none" xmlns="http://www.w3.org/2000/svg">
<g filter="url(#filter0_i_2520_20145)">
<path d="M14.7 9C12.7904 9 10.9591 9.75857 9.60883 11.1088C8.25857 12.4591 7.5 14.2904 7.5 16.2C7.5 18.1096 8.25857 19.9409 9.60883 21.2912C10.9591 22.6414 12.7904 23.4 14.7 23.4C16.6096 23.4 18.4409 22.6414 19.7912 21.2912C21.1414 19.9409 21.9 18.1096 21.9 16.2C21.9 14.2904 21.1414 12.4591 19.7912 11.1088C18.4409 9.75857 16.6096 9 14.7 9Z" fill="#4C75BA" fill-opacity="0.2"/>
</g>
<path d="M9.78561 11.2856C11.089 9.98223 12.8567 9.25 14.7 9.25C16.5433 9.25 18.311 9.98223 19.6144 11.2856C20.9178 12.589 21.65 14.3567 21.65 16.2C21.65 18.0433 20.9178 19.811 19.6144 21.1144C18.311 22.4178 16.5433 23.15 14.7 23.15C12.8567 23.15 11.089 22.4178 9.78561 21.1144C8.48223 19.811 7.75 18.0433 7.75 16.2C7.75 14.3567 8.48223 12.589 9.78561 11.2856Z" stroke="url(#paint0_linear_2520_20145)" stroke-width="0.5"/>
<path d="M1.5 18.6818H3.50455H20.4955H22.5" stroke="#0876E4" stroke-width="0.5" stroke-linecap="round" stroke-linejoin="round"/>
<path d="M19.6365 18.6818C19.6365 14.4647 16.2173 11.0455 12.0001 11.0455C7.78295 11.0455 4.36377 14.4647 4.36377 18.6818" stroke="#0876E4" stroke-width="0.5" stroke-linejoin="round"/>
<circle cx="12" cy="6.75" r="0.75" fill="#0876E4"/>
<circle cx="4.5" cy="9.75" r="0.75" fill="#0876E4"/>
<circle cx="19.5" cy="9.75" r="0.75" fill="#0876E4"/>
<circle cx="23.25" cy="15.75" r="0.75" fill="#0876E4"/>
<circle cx="0.75" cy="15.75" r="0.75" fill="#0876E4"/>
<defs>
<filter id="filter0_i_2520_20145" x="5.5" y="7" width="16.3999" height="16.4" filterUnits="userSpaceOnUse" color-interpolation-filters="sRGB">
<feFlood flood-opacity="0" result="BackgroundImageFix"/>
<feBlend mode="normal" in="SourceGraphic" in2="BackgroundImageFix" result="shape"/>
<feColorMatrix in="SourceAlpha" type="matrix" values="0 0 0 0 0 0 0 0 0 0 0 0 0 0 0 0 0 0 127 0" result="hardAlpha"/>
<feOffset dx="-2" dy="-2"/>
<feGaussianBlur stdDeviation="3"/>
<feComposite in2="hardAlpha" operator="arithmetic" k2="-1" k3="1"/>
<feColorMatrix type="matrix" values="0 0 0 0 0.983333 0 0 0 0 0.989394 0 0 0 0 1 0 0 0 0.8 0"/>
<feBlend mode="normal" in2="shape" result="effect1_innerShadow_2520_20145"/>
</filter>
<linearGradient id="paint0_linear_2520_20145" x1="7.5" y1="9.13715" x2="22.6673" y2="22.8324" gradientUnits="userSpaceOnUse">
<stop stop-color="#E9EDF4"/>
<stop offset="1" stop-color="#E8EDF7"/>
</linearGradient>
</defs>
</svg>
