<svg width="25" height="25" viewBox="0 0 25 25" fill="none" xmlns="http://www.w3.org/2000/svg">
<g clip-path="url(#clip0_3021_1610)">
<path d="M24.4996 12.7763C24.4996 11.9605 24.4321 11.1404 24.2881 10.3379H12.7402V14.9589H19.3532C19.0788 16.4492 18.197 17.7676 16.9059 18.6054V21.6037H20.8512C23.168 19.5137 24.4996 16.4272 24.4996 12.7763Z" fill="#4285F4"/>
<path d="M12.7414 24.5003C16.0433 24.5003 18.828 23.4377 20.8568 21.6034L16.9116 18.6051C15.8139 19.337 14.3968 19.7515 12.7459 19.7515C9.55186 19.7515 6.84371 17.6394 5.87201 14.7998H1.80078V17.8907C3.87913 21.9429 8.11231 24.5003 12.7414 24.5003Z" fill="#34A853"/>
<path d="M5.86712 14.7997C5.35428 13.3094 5.35428 11.6956 5.86712 10.2052V7.11426H1.80039C0.0639325 10.505 0.0639325 14.4999 1.80039 17.8907L5.86712 14.7997Z" fill="#FBBC04"/>
<path d="M12.7414 5.24868C14.4868 5.22223 16.1738 5.86599 17.4379 7.04769L20.9333 3.62164C18.72 1.58453 15.7824 0.464557 12.7414 0.499832C8.11231 0.499832 3.87913 3.05725 1.80078 7.11383L5.86751 10.2048C6.83471 7.36075 9.54736 5.24868 12.7414 5.24868Z" fill="#EA4335"/>
</g>
<defs>
<clipPath id="clip0_3021_1610">
<rect width="24" height="24" fill="white" transform="translate(0.5 0.5)"/>
</clipPath>
</defs>
</svg>
