<svg width="24" height="24" viewBox="0 0 24 24" fill="none" xmlns="http://www.w3.org/2000/svg">
<path d="M5.76691 4.58813V19.3532C5.76691 20.3413 6.7275 21 7.36789 21C11.3693 21 13.6128 21 17.6142 21C18.2546 21 19.2152 20.3413 19.2152 19.3532C19.2152 13.6941 19.2152 4.86205 19.2152 4.86205V4.62363" stroke="#FB668A" stroke-linecap="round" stroke-linejoin="round"/>
<path d="M15.1809 8.22412L15.1809 16.2931" stroke="#FB668A" stroke-linecap="round" stroke-linejoin="round"/>
<path d="M9.80145 8.22412L9.80145 16.2931" stroke="#FB668A" stroke-linecap="round" stroke-linejoin="round"/>
<path d="M3.74982 4.52588H20.8964" stroke="#FB668A" stroke-linecap="round" stroke-linejoin="round"/>
<path d="M9.12909 3.0569V4.5H9.18091H15.8532V3.0569C15.8532 2.25 15.8532 2.25 14.9363 2.25H10.046C9.12909 2.25 9.12909 2.25 9.12909 3.0569Z" stroke="#FB668A" stroke-linecap="round" stroke-linejoin="round"/>
</svg>
