<svg width="24" height="24" viewBox="0 0 24 24" fill="none" xmlns="http://www.w3.org/2000/svg">
<g filter="url(#filter0_i_2520_20158)">
<path d="M13.875 2.25C12.1842 2.25 10.5627 2.93332 9.36719 4.14964C8.17165 5.36596 7.5 7.01564 7.5 8.73577C7.5 12.3122 11.0928 13.3101 11.3459 17.5379H16.4031C16.6563 13.3101 20.25 12.3122 20.25 8.73577C20.25 7.01564 19.5784 5.36596 18.3828 4.14964C17.1873 2.93332 15.5658 2.25 13.875 2.25ZM11.3705 23.25H16.3795V18.4654H11.3705V23.25Z" fill="#4C75BA" fill-opacity="0.2"/>
</g>
<path d="M9.54549 4.32489C10.6945 3.15592 12.252 2.5 13.875 2.5C15.498 2.5 17.0555 3.15592 18.2045 4.32489C19.3537 5.494 20 7.08057 20 8.73577C20 10.401 19.1856 11.4732 18.268 12.6814C18.2528 12.7014 18.2376 12.7214 18.2224 12.7414C17.3234 13.9255 16.3576 15.2303 16.1712 17.2879H11.5778C11.3915 15.2303 10.426 13.9255 9.52716 12.7414C9.51196 12.7214 9.49678 12.7014 9.48163 12.6814C8.56421 11.4733 7.75 10.401 7.75 8.73577C7.75 7.08057 8.39634 5.494 9.54549 4.32489ZM16.1295 18.7154V23H11.6205V18.7154H16.1295Z" stroke="url(#paint0_linear_2520_20158)" stroke-width="0.5"/>
<path d="M6.54549 3.57489C7.69449 2.40592 9.25195 1.75 10.875 1.75C12.498 1.75 14.0555 2.40592 15.2045 3.57489C16.3537 4.744 17 6.33057 17 7.98577C17 9.54471 16.2849 10.587 15.4393 11.7055C15.3858 11.7763 15.3318 11.8474 15.2774 11.919C14.4771 12.9717 13.6038 14.1204 13.2752 15.8044C13.1926 16.2274 12.8504 16.5379 12.4612 16.5379H9.28785C8.89867 16.5379 8.55645 16.2274 8.47393 15.8044C8.14538 14.1205 7.27231 12.9717 6.47223 11.919C6.41784 11.8475 6.36379 11.7763 6.31027 11.7055C5.46495 10.5871 4.75 9.54473 4.75 7.98577C4.75 6.33057 5.39634 4.744 6.54549 3.57489ZM9.37054 22.25C8.95632 22.25 8.62054 21.9142 8.62054 21.5V18.7154C8.62054 18.3011 8.95632 17.9654 9.37054 17.9654H12.3795C12.7937 17.9654 13.1295 18.3011 13.1295 18.7154V21.5C13.1295 21.9142 12.7937 22.25 12.3795 22.25H9.37054Z" stroke="#0876E4" stroke-width="0.5"/>
<path d="M8.37109 21.5C8.37109 22.0523 8.81881 22.5 9.37109 22.5H12.38C12.9323 22.5 13.38 22.0523 13.38 21.5V18.7153C13.38 18.163 12.9323 17.7153 12.38 17.7153H9.37109C8.81881 17.7153 8.37109 18.163 8.37109 18.7153V21.5Z" fill="#0876E4"/>
<defs>
<filter id="filter0_i_2520_20158" x="5.5" y="0.25" width="14.75" height="23" filterUnits="userSpaceOnUse" color-interpolation-filters="sRGB">
<feFlood flood-opacity="0" result="BackgroundImageFix"/>
<feBlend mode="normal" in="SourceGraphic" in2="BackgroundImageFix" result="shape"/>
<feColorMatrix in="SourceAlpha" type="matrix" values="0 0 0 0 0 0 0 0 0 0 0 0 0 0 0 0 0 0 127 0" result="hardAlpha"/>
<feOffset dx="-2" dy="-2"/>
<feGaussianBlur stdDeviation="3"/>
<feComposite in2="hardAlpha" operator="arithmetic" k2="-1" k3="1"/>
<feColorMatrix type="matrix" values="0 0 0 0 0.983333 0 0 0 0 0.989394 0 0 0 0 1 0 0 0 0.8 0"/>
<feBlend mode="normal" in2="shape" result="effect1_innerShadow_2520_20158"/>
</filter>
<linearGradient id="paint0_linear_2520_20158" x1="7.5" y1="2.45001" x2="26.2449" y2="12.7263" gradientUnits="userSpaceOnUse">
<stop stop-color="#E9EDF4"/>
<stop offset="1" stop-color="#E8EDF7"/>
</linearGradient>
</defs>
</svg>
