<svg width="32" height="33" viewBox="0 0 32 33" fill="none" xmlns="http://www.w3.org/2000/svg">
<path fill-rule="evenodd" clip-rule="evenodd" d="M1.33325 16.5C1.33325 18.4261 1.71262 20.3333 2.44969 22.1127C3.18675 23.8922 4.26709 25.509 5.62902 26.8709C6.99094 28.2329 8.60779 29.3132 10.3872 30.0503C12.1667 30.7873 14.0739 31.1667 15.9999 31.1667C17.926 31.1667 19.8332 30.7873 21.6126 30.0503C23.3921 29.3132 25.0089 28.2329 26.3708 26.8709C27.7327 25.509 28.8131 23.8922 29.5502 22.1127C30.2872 20.3333 30.6666 18.4261 30.6666 16.5C30.6666 12.6102 29.1214 8.87968 26.3708 6.12914C23.6203 3.37861 19.8898 1.83337 15.9999 1.83337C12.1101 1.83337 8.37955 3.37861 5.62902 6.12914C2.87849 8.87968 1.33325 12.6102 1.33325 16.5ZM28.9411 16.5C28.9411 19.9323 27.5777 23.2239 25.1507 25.6508C22.7238 28.0778 19.4321 29.4412 15.9999 29.4412C12.5677 29.4412 9.27607 28.0778 6.84912 25.6508C4.42218 23.2239 3.05874 19.9323 3.05874 16.5C3.05874 13.0678 4.42218 9.77619 6.84912 7.34925C9.27607 4.92231 12.5677 3.55886 15.9999 3.55886C19.4321 3.55886 22.7238 4.92231 25.1507 7.34925C27.5777 9.77619 28.9411 13.0678 28.9411 16.5Z" fill="#0876E4"/>
<path fill-rule="evenodd" clip-rule="evenodd" d="M9.96094 16.5001C9.96094 24.0853 12.4491 30.304 16.0002 30.304C19.5512 30.304 22.0394 24.0853 22.0394 16.5001C22.0394 8.91483 19.5512 2.69617 16.0002 2.69617C12.4491 2.69617 9.96094 8.91483 9.96094 16.5001ZM20.3139 16.5001C20.3139 23.2105 18.1656 28.5785 16.0002 28.5785C13.8347 28.5785 11.6864 23.2105 11.6864 16.5001C11.6864 9.78966 13.8347 4.42166 16.0002 4.42166C18.1656 4.42166 20.3139 9.78966 20.3139 16.5001Z" fill="#0876E4"/>
<path d="M4.99373 8.28031L6.1498 7C6.33443 7.16565 6.53114 7.32784 6.74165 7.48486C9.01584 9.18965 12.6049 10.2284 16.5165 10.2284C19.8519 10.2284 22.9647 9.47435 25.2389 8.17506C25.7629 7.87859 26.258 7.53371 26.7176 7.14494L27.8392 8.45631C27.325 8.89631 26.7418 9.3018 26.0965 9.67106C23.5479 11.1291 20.1401 11.9539 16.5165 11.9539C12.2546 11.9539 8.29976 10.8099 5.70635 8.86525C5.45993 8.68074 5.22213 8.48498 4.99373 8.27859V8.28031ZM4.99373 24.4792L6.1498 25.7561C6.33443 25.5904 6.53114 25.4282 6.74165 25.2729C9.01584 23.5682 12.6049 22.5294 16.5165 22.5294C19.8519 22.5294 22.9647 23.2817 25.2389 24.5827C25.7928 24.9002 26.288 25.2453 26.7176 25.6111L27.8392 24.2998C27.2975 23.8413 26.7141 23.4346 26.0965 23.085C23.5479 21.6287 20.1401 20.8039 16.5165 20.8039C12.2546 20.8039 8.29976 21.9479 5.70635 23.8908C5.45443 24.0806 5.21631 24.2756 4.99373 24.4775V24.4792ZM2 17.2322V15.5067H29.6078V17.2322H2Z" fill="#0876E4"/>
</svg>
