<svg width="64" height="64" viewBox="0 0 64 64" fill="none" xmlns="http://www.w3.org/2000/svg">
<g filter="url(#filter0_i_2568_4851)">
<path fill-rule="evenodd" clip-rule="evenodd" d="M31.616 46.568L37.552 40.388L35.088 37.9L29.128 44.104L21.688 36.668L27.652 30.46L25.164 28L19.232 34.18L16.768 31.72L10.564 37.9C9.42057 39.0388 8.51858 40.3965 7.912 41.892C7.29407 43.3734 6.97724 44.9629 6.98 46.568C6.98 47.896 7.18 49.192 7.58 50.448C8 51.688 8.612 52.836 9.416 53.896L4 59.336L6.46 61.796L11.9 56.384C12.96 57.184 14.108 57.796 15.348 58.216C16.604 58.616 17.9 58.816 19.228 58.816C20.852 58.816 22.412 58.508 23.908 57.888C25.42 57.268 26.748 56.384 27.9 55.236L34.08 49.028L31.616 46.568Z" fill="#4C75BA" fill-opacity="0.2"/>
</g>
<path d="M31.4357 46.3948L31.2658 46.5717L31.4394 46.7449L33.7267 49.0285L27.7235 55.0589C27.7235 55.059 27.7234 55.059 27.7234 55.0591C26.5947 56.1838 25.2945 57.0493 23.8132 57.6567L23.8123 57.657C22.3469 58.2644 20.8195 58.566 19.228 58.566C17.9262 58.566 16.6566 58.3701 15.4261 57.9785C14.2129 57.5673 13.0893 56.9683 12.0506 56.1845L11.8775 56.0538L11.7237 56.2068L6.46046 61.4429L4.35316 59.3356L9.59317 54.0724L9.74664 53.9182L9.61519 53.7449C8.82758 52.7065 8.22868 51.5831 7.81752 50.37C7.42587 49.1394 7.23 47.8698 7.23 46.568L7.23 46.5676C7.2273 44.9957 7.53758 43.439 8.14273 41.9882L8.14274 41.9882L8.14367 41.986C8.73761 40.5217 9.62081 39.1922 10.7404 38.0771L10.7404 38.0771L16.7678 32.0731L19.0554 34.3569L19.2358 34.5371L19.4124 34.3531L25.1687 28.3562L27.301 30.4645L21.5077 36.4948L21.3379 36.6716L21.5113 36.8448L28.9513 44.2808L29.1316 44.4611L29.3083 44.2772L35.0907 38.258L37.2028 40.3907L31.4357 46.3948Z" stroke="url(#paint0_linear_2568_4851)" stroke-width="0.5"/>
<path d="M31.2554 42.2216L30.9157 42.5753L31.2627 42.9218L33.3734 45.0291L27.5471 50.8818C27.5469 50.882 27.5467 50.8822 27.5465 50.8824C26.4413 51.9837 25.1689 52.8306 23.7183 53.4254L23.7166 53.4261C22.2818 54.0207 20.7869 54.316 19.228 54.316C17.9525 54.316 16.7091 54.1242 15.504 53.741C14.3177 53.3386 13.2185 52.7527 12.2012 51.9849L11.8549 51.7236L11.5474 52.0295L6.46091 57.0898L4.70633 55.3352L9.77033 50.2488L10.0773 49.9405L9.81437 49.5938C9.04316 48.5771 8.45737 47.4782 8.05504 46.2919C7.67175 45.0869 7.48 43.8435 7.48 42.568L7.48 42.5671C7.47736 41.0284 7.78108 39.5046 8.37346 38.0845L8.37348 38.0845L8.37534 38.0799C8.95664 36.6468 9.82104 35.3456 10.9168 34.2543L10.9169 34.2542L16.7676 28.4261L18.8787 30.5338L19.2396 30.8941L19.5927 30.5262L25.1733 24.7123L26.95 26.469L21.3274 32.3216L20.9878 32.6751L21.3345 33.0216L28.7745 40.4576L29.1353 40.8182L29.4886 40.4504L35.0934 34.6161L36.8536 36.3933L31.2554 42.2216Z" stroke="#0876E4"/>
<path fill-rule="evenodd" clip-rule="evenodd" d="M54.468 15.376C54.0698 14.124 53.4596 12.9496 52.664 11.904L58.08 6.464L55.616 4L50.176 9.416C49.1304 8.61947 47.9561 8.00796 46.704 7.608C43.907 6.67849 40.8691 6.78496 38.144 7.908C36.6597 8.52192 35.3123 9.42474 34.18 10.564L28 16.768L45.308 34.08L51.516 27.9C52.664 26.752 53.548 25.428 54.168 23.932C55.2907 21.2068 55.3972 18.1691 54.468 15.372V15.376Z" fill="#0876E4"/>
<defs>
<filter id="filter0_i_2568_4851" x="2" y="26" width="35.5527" height="35.796" filterUnits="userSpaceOnUse" color-interpolation-filters="sRGB">
<feFlood flood-opacity="0" result="BackgroundImageFix"/>
<feBlend mode="normal" in="SourceGraphic" in2="BackgroundImageFix" result="shape"/>
<feColorMatrix in="SourceAlpha" type="matrix" values="0 0 0 0 0 0 0 0 0 0 0 0 0 0 0 0 0 0 127 0" result="hardAlpha"/>
<feOffset dx="-2" dy="-2"/>
<feGaussianBlur stdDeviation="3"/>
<feComposite in2="hardAlpha" operator="arithmetic" k2="-1" k3="1"/>
<feColorMatrix type="matrix" values="0 0 0 0 0.983333 0 0 0 0 0.989394 0 0 0 0 1 0 0 0 0.8 0"/>
<feBlend mode="normal" in2="shape" result="effect1_innerShadow_2568_4851"/>
</filter>
<linearGradient id="paint0_linear_2568_4851" x1="4" y1="28.3219" x2="39.5696" y2="60.2075" gradientUnits="userSpaceOnUse">
<stop stop-color="#E9EDF4"/>
<stop offset="1" stop-color="#E8EDF7"/>
</linearGradient>
</defs>
</svg>
