<svg width="33" height="32" viewBox="0 0 33 32" fill="none" xmlns="http://www.w3.org/2000/svg">
<g filter="url(#filter0_i_2520_19972)">
<path d="M19 3C16.7457 3 14.5837 3.91109 12.9896 5.53285C11.3955 7.15461 10.5 9.35418 10.5 11.6477C10.5 16.4163 15.2904 17.7468 15.6279 23.3839H22.3709C22.7084 17.7468 27.5 16.4163 27.5 11.6477C27.5 9.35418 26.6045 7.15461 25.0104 5.53285C23.4163 3.91109 21.2543 3 19 3ZM15.6607 31H22.3393V24.6205H15.6607V31Z" fill="#4C75BA" fill-opacity="0.2"/>
</g>
<path d="M13.1679 5.7081C14.7154 4.13369 16.8134 3.25 19 3.25C21.1866 3.25 23.2846 4.13369 24.8321 5.7081C26.3798 7.28265 27.25 9.41911 27.25 11.6477C27.25 13.8962 26.1488 15.3461 24.9285 16.9525C24.9067 16.9813 24.8848 17.0101 24.8629 17.0389C23.654 18.6311 22.3672 20.3719 22.1381 23.1339H15.8607C15.6316 20.372 14.3451 18.6312 13.1365 17.0389C13.1146 17.0101 13.0928 16.9813 13.0709 16.9526C11.851 15.3461 10.75 13.8963 10.75 11.6477C10.75 9.41911 11.6202 7.28265 13.1679 5.7081ZM22.0893 24.8705V30.75H15.9107V24.8705H22.0893Z" stroke="url(#paint0_linear_2520_19972)" stroke-width="0.5"/>
<path d="M9.16789 4.7081C10.7154 3.13369 12.8134 2.25 15 2.25C17.1866 2.25 19.2846 3.13369 20.8321 4.7081C22.3798 6.28265 23.25 8.41911 23.25 10.6477C23.25 12.8028 22.2373 14.2267 21.0776 15.7562C21.0305 15.8183 20.9831 15.8806 20.9357 15.9431C19.8178 17.414 18.608 19.0059 18.2256 21.4072C18.1592 21.824 17.8198 22.1339 17.429 22.1339H12.5698C12.1789 22.1339 11.8396 21.824 11.7732 21.4072C11.3909 19.0059 10.1814 17.4141 9.06379 15.9432C9.0163 15.8807 8.96898 15.8184 8.9219 15.7563C7.76249 14.2267 6.75 12.8028 6.75 10.6477C6.75 8.41911 7.62022 6.28265 9.16789 4.7081ZM12.6607 29.75C12.2465 29.75 11.9107 29.4142 11.9107 29V24.6205C11.9107 24.2063 12.2465 23.8705 12.6607 23.8705H17.3393C17.7535 23.8705 18.0893 24.2063 18.0893 24.6205V29C18.0893 29.4142 17.7535 29.75 17.3393 29.75H12.6607Z" stroke="#838993" stroke-width="0.5"/>
<path d="M11.6611 29C11.6611 29.5523 12.1088 30 12.6611 30H17.3397C17.892 30 18.3397 29.5523 18.3397 29V24.6205C18.3397 24.0682 17.892 23.6205 17.3397 23.6205H12.6611C12.1088 23.6205 11.6611 24.0682 11.6611 24.6205V29Z" fill="#838993"/>
<defs>
<filter id="filter0_i_2520_19972" x="8.5" y="1" width="19" height="30" filterUnits="userSpaceOnUse" color-interpolation-filters="sRGB">
<feFlood flood-opacity="0" result="BackgroundImageFix"/>
<feBlend mode="normal" in="SourceGraphic" in2="BackgroundImageFix" result="shape"/>
<feColorMatrix in="SourceAlpha" type="matrix" values="0 0 0 0 0 0 0 0 0 0 0 0 0 0 0 0 0 0 127 0" result="hardAlpha"/>
<feOffset dx="-2" dy="-2"/>
<feGaussianBlur stdDeviation="3"/>
<feComposite in2="hardAlpha" operator="arithmetic" k2="-1" k3="1"/>
<feColorMatrix type="matrix" values="0 0 0 0 0.983333 0 0 0 0 0.989394 0 0 0 0 1 0 0 0 0.8 0"/>
<feBlend mode="normal" in2="shape" result="effect1_innerShadow_2520_19972"/>
</filter>
<linearGradient id="paint0_linear_2520_19972" x1="10.5" y1="3.26668" x2="35.4931" y2="16.9684" gradientUnits="userSpaceOnUse">
<stop stop-color="#E9EDF4"/>
<stop offset="1" stop-color="#E8EDF7"/>
</linearGradient>
</defs>
</svg>
