<svg width="24" height="24" viewBox="0 0 24 24" fill="none" xmlns="http://www.w3.org/2000/svg">
<g filter="url(#filter0_i_449_6344)">
<path d="M11.6 3.40002C9.05392 3.40002 6.61212 4.41145 4.81177 6.2118C3.01143 8.01215 2 10.4539 2 13C2 15.5461 3.01143 17.9879 4.81177 19.7882C6.61212 21.5886 9.05392 22.6 11.6 22.6C14.1461 22.6 16.5879 21.5886 18.3882 19.7882C20.1886 17.9879 21.2 15.5461 21.2 13C21.2 10.4539 20.1886 8.01215 18.3882 6.2118C16.5879 4.41145 14.1461 3.40002 11.6 3.40002Z" fill="#4C75BA" fill-opacity="0.2"/>
</g>
<path d="M4.98855 6.38858C6.74202 4.63511 9.12023 3.65002 11.6 3.65002C14.0798 3.65002 16.458 4.63511 18.2114 6.38858C19.9649 8.14204 20.95 10.5202 20.95 13C20.95 15.4798 19.9649 17.858 18.2114 19.6115C16.458 21.3649 14.0798 22.35 11.6 22.35C9.12023 22.35 6.74202 21.3649 4.98855 19.6115C3.23509 17.858 2.25 15.4798 2.25 13C2.25 10.5202 3.23509 8.14204 4.98855 6.38858Z" stroke="url(#paint0_linear_449_6344)" stroke-width="0.5"/>
<path d="M6.98855 4.98855C8.74202 3.23509 11.1202 2.25 13.6 2.25C16.0798 2.25 18.458 3.23509 20.2114 4.98855C21.9649 6.74202 22.95 9.12022 22.95 11.6C22.95 14.0798 21.9649 16.458 20.2114 18.2114C18.458 19.9649 16.0798 20.95 13.6 20.95C11.1202 20.95 8.74202 19.9649 6.98855 18.2114C5.23509 16.458 4.25 14.0798 4.25 11.6C4.25 9.12022 5.23509 6.74202 6.98855 4.98855Z" stroke="#0876E4" stroke-width="0.5"/>
<path d="M16.9476 9.65957C17.1424 9.46476 17.1429 9.14906 16.9487 8.95362L16.5559 8.55825C16.3609 8.3619 16.0434 8.36138 15.8477 8.5571L14.3536 10.0512C14.1583 10.2465 13.8417 10.2465 13.6464 10.0512L12.1512 8.55594C11.9559 8.36068 11.6393 8.36068 11.4441 8.55594L11.05 8.95003C10.8547 9.1453 10.8547 9.46188 11.05 9.65714L12.5453 11.1524C12.7405 11.3477 12.7405 11.6643 12.5453 11.8595L11.0535 13.3512C10.8583 13.5465 10.8583 13.8631 11.0535 14.0583L11.4476 14.4524C11.6429 14.6477 11.9595 14.6477 12.1547 14.4524L13.6464 12.9607C13.8417 12.7655 14.1583 12.7655 14.3536 12.9607L15.8488 14.456C16.0441 14.6513 16.3607 14.6513 16.5559 14.456L16.95 14.0619C17.1453 13.8667 17.1453 13.5501 16.95 13.3548L15.4547 11.8595C15.2595 11.6643 15.2595 11.3477 15.4547 11.1524L16.9476 9.65957Z" fill="#0876E4"/>
<defs>
<filter id="filter0_i_449_6344" x="0" y="1.40002" width="21.2002" height="21.2" filterUnits="userSpaceOnUse" color-interpolation-filters="sRGB">
<feFlood flood-opacity="0" result="BackgroundImageFix"/>
<feBlend mode="normal" in="SourceGraphic" in2="BackgroundImageFix" result="shape"/>
<feColorMatrix in="SourceAlpha" type="matrix" values="0 0 0 0 0 0 0 0 0 0 0 0 0 0 0 0 0 0 127 0" result="hardAlpha"/>
<feOffset dx="-2" dy="-2"/>
<feGaussianBlur stdDeviation="3"/>
<feComposite in2="hardAlpha" operator="arithmetic" k2="-1" k3="1"/>
<feColorMatrix type="matrix" values="0 0 0 0 0.983333 0 0 0 0 0.989394 0 0 0 0 1 0 0 0 0.8 0"/>
<feBlend mode="normal" in2="shape" result="effect1_innerShadow_449_6344"/>
</filter>
<linearGradient id="paint0_linear_449_6344" x1="2" y1="3.58289" x2="22.223" y2="21.8432" gradientUnits="userSpaceOnUse">
<stop stop-color="#E9EDF4"/>
<stop offset="1" stop-color="#E8EDF7"/>
</linearGradient>
</defs>
</svg>
