<svg width="33" height="32" viewBox="0 0 33 32" fill="none" xmlns="http://www.w3.org/2000/svg">
<g filter="url(#filter0_i_83_99)">
<path d="M8.8335 8H4.3335C3.5055 8 2.8335 8.672 2.8335 9.5V22C2.8335 22.7956 3.14957 23.5587 3.71218 24.1213C4.27478 24.6839 5.03785 25 5.8335 25M8.8335 8V22C8.8335 22.7956 8.51742 23.5587 7.95481 24.1213C7.39221 24.6839 6.62914 25 5.8335 25M8.8335 8V4.5C8.8335 3.672 9.5055 3 10.3335 3H25.3335C26.1615 3 26.8335 3.672 26.8335 4.5V22C26.8335 22.7956 26.5174 23.5587 25.9548 24.1213C25.3922 24.6839 24.6291 25 23.8335 25H5.8335" fill="#4C75BA" fill-opacity="0.2"/>
</g>
<path d="M16.8335 10H14.8335M16.8335 14H14.8335M24.8335 18H14.8335M24.8335 22H14.8335M10.8335 10H6.3335C5.5055 10 4.8335 10.672 4.8335 11.5V24C4.8335 24.7956 5.14957 25.5587 5.71218 26.1213C6.27478 26.6839 7.03785 27 7.8335 27M10.8335 10V24C10.8335 24.7956 10.5174 25.5587 9.95481 26.1213C9.39221 26.6839 8.62915 27 7.8335 27M10.8335 10V6.5C10.8335 5.672 11.5055 5 12.3335 5H27.3335C28.1615 5 28.8335 5.672 28.8335 6.5V24C28.8335 24.7956 28.5174 25.5587 27.9548 26.1213C27.3922 26.6839 26.6291 27 25.8335 27H7.8335M20.8335 10V14H25V10H20.8335Z" stroke="#0876E4" stroke-width="0.5" stroke-linecap="round" stroke-linejoin="round"/>
<rect x="21" y="10" width="4" height="4" fill="#0876E4"/>
<defs>
<filter id="filter0_i_83_99" x="0.833496" y="1" width="26" height="24" filterUnits="userSpaceOnUse" color-interpolation-filters="sRGB">
<feFlood flood-opacity="0" result="BackgroundImageFix"/>
<feBlend mode="normal" in="SourceGraphic" in2="BackgroundImageFix" result="shape"/>
<feColorMatrix in="SourceAlpha" type="matrix" values="0 0 0 0 0 0 0 0 0 0 0 0 0 0 0 0 0 0 127 0" result="hardAlpha"/>
<feOffset dx="-2" dy="-2"/>
<feGaussianBlur stdDeviation="3"/>
<feComposite in2="hardAlpha" operator="arithmetic" k2="-1" k3="1"/>
<feColorMatrix type="matrix" values="0 0 0 0 0.983333 0 0 0 0 0.989394 0 0 0 0 1 0 0 0 0.8 0"/>
<feBlend mode="normal" in2="shape" result="effect1_innerShadow_83_99"/>
</filter>
</defs>
</svg>
