<svg width="32" height="33" viewBox="0 0 32 33" fill="none" xmlns="http://www.w3.org/2000/svg">
<rect y="0.161133" width="32" height="32" rx="16" fill="#00ACEE"/>
<path d="M23.3334 10.1612C22.6949 10.6116 21.9881 10.956 21.24 11.1812C20.8385 10.7196 20.3049 10.3924 19.7114 10.2439C19.1178 10.0954 18.493 10.1327 17.9214 10.3509C17.3498 10.5691 16.859 10.9575 16.5153 11.4637C16.1717 11.9699 15.9918 12.5695 16 13.1812V13.8479C14.8284 13.8783 13.6675 13.6185 12.6207 13.0915C11.5738 12.5646 10 10.8279 10 10.8279C10 10.8279 7.33335 16.8279 13.3334 19.4946C11.9604 20.4266 10.3248 20.8939 8.66669 20.8279C14.6667 24.1612 22 20.8279 22 13.1612C21.9994 12.9755 21.9816 12.7903 21.9467 12.6079C22.6271 11.9369 23.1072 11.0897 23.3334 10.1612Z" fill="white"/>
</svg>
