<svg width="25" height="27" viewBox="0 0 25 27" fill="none" xmlns="http://www.w3.org/2000/svg">
<path d="M1.17047 0.372314C0.861526 0.68126 0.758545 1.19617 0.758545 1.81406V24.5731C0.758545 25.1909 0.964509 25.7059 1.27345 26.0148L1.37644 26.1178L14.1462 13.348V13.245V13.1421L1.17047 0.372314Z" fill="url(#paint0_linear_2468_3640)"/>
<path d="M18.266 17.6734L14.0437 13.4511V13.2452V13.1422L18.266 8.91992L18.369 9.0229L23.4151 11.9064C24.8568 12.7303 24.8568 14.069 23.4151 14.8929L18.266 17.6734Z" fill="url(#paint1_linear_2468_3640)"/>
<path d="M18.3677 17.5704L14.0425 13.2451L1.16977 26.1179C1.68468 26.6328 2.40555 26.6328 3.33239 26.2208L18.3677 17.5704Z" fill="url(#paint2_linear_2468_3640)"/>
<path d="M18.3677 8.91972L3.33239 0.372219C2.40555 -0.14269 1.68468 -0.0397086 1.16977 0.475201L14.0425 13.245L18.3677 8.91972Z" fill="url(#paint3_linear_2468_3640)"/>
<path opacity="0.2" d="M18.2648 17.4673L3.33239 25.9118C2.50854 26.4267 1.78766 26.3237 1.27275 25.9118L1.16977 26.0148L1.27275 26.1178C1.78766 26.5297 2.50854 26.6327 3.33239 26.1178L18.2648 17.4673Z" fill="black"/>
<path opacity="0.12" d="M1.17047 25.9117C0.861526 25.6028 0.758545 25.0879 0.758545 24.47V24.573C0.758545 25.1908 0.964509 25.7058 1.27345 26.0147V25.9117H1.17047Z" fill="black"/>
<path opacity="0.12" d="M23.4153 14.5839L18.2662 17.4674L18.3692 17.5704L23.4153 14.6869C24.1362 14.2749 24.4451 13.76 24.4451 13.2451C24.4451 13.76 24.0332 14.172 23.4153 14.5839Z" fill="black"/>
<path opacity="0.25" d="M3.33309 0.475345L23.4146 11.9063C24.0324 12.3183 24.4444 12.7302 24.4444 13.2451C24.4444 12.7302 24.1354 12.2153 23.4146 11.8034L3.33309 0.372363C1.89135 -0.451492 0.758545 0.166399 0.758545 1.81411V1.91709C0.758545 0.372363 1.89135 -0.34851 3.33309 0.475345Z" fill="black"/>
<defs>
<linearGradient id="paint0_linear_2468_3640" x1="12.91" y1="1.61819" x2="-4.37283" y2="18.901" gradientUnits="userSpaceOnUse">
<stop stop-color="#00A0FF"/>
<stop offset="0.00657445" stop-color="#00A1FF"/>
<stop offset="0.2601" stop-color="#00BEFF"/>
<stop offset="0.5122" stop-color="#00D2FF"/>
<stop offset="0.7604" stop-color="#00DFFF"/>
<stop offset="1" stop-color="#00E3FF"/>
</linearGradient>
<linearGradient id="paint1_linear_2468_3640" x1="25.3041" y1="13.2467" x2="0.385656" y2="13.2467" gradientUnits="userSpaceOnUse">
<stop stop-color="#FFE000"/>
<stop offset="0.4087" stop-color="#FFBD00"/>
<stop offset="0.7754" stop-color="#FFA500"/>
<stop offset="1" stop-color="#FF9C00"/>
</linearGradient>
<linearGradient id="paint2_linear_2468_3640" x1="16.0269" y1="15.6098" x2="-7.41006" y2="39.0467" gradientUnits="userSpaceOnUse">
<stop stop-color="#FF3A44"/>
<stop offset="1" stop-color="#C31162"/>
</linearGradient>
<linearGradient id="paint3_linear_2468_3640" x1="-2.02555" y1="-7.16987" x2="8.44009" y2="3.29567" gradientUnits="userSpaceOnUse">
<stop stop-color="#32A071"/>
<stop offset="0.0685" stop-color="#2DA771"/>
<stop offset="0.4762" stop-color="#15CF74"/>
<stop offset="0.8009" stop-color="#06E775"/>
<stop offset="1" stop-color="#00F076"/>
</linearGradient>
</defs>
</svg>
