<svg width="24" height="24" viewBox="0 0 24 24" fill="none" xmlns="http://www.w3.org/2000/svg">
<g filter="url(#filter0_i_2513_6747)">
<path d="M11.6 3.40002C9.05392 3.40002 6.61212 4.41145 4.81177 6.2118C3.01143 8.01215 2 10.4539 2 13C2 15.5461 3.01143 17.9879 4.81177 19.7882C6.61212 21.5886 9.05392 22.6 11.6 22.6C14.1461 22.6 16.5879 21.5886 18.3882 19.7882C20.1886 17.9879 21.2 15.5461 21.2 13C21.2 10.4539 20.1886 8.01215 18.3882 6.2118C16.5879 4.41145 14.1461 3.40002 11.6 3.40002Z" fill="#4C75BA" fill-opacity="0.2"/>
</g>
<path d="M4.98855 6.38858C6.74202 4.63511 9.12023 3.65002 11.6 3.65002C14.0798 3.65002 16.458 4.63511 18.2114 6.38858C19.9649 8.14204 20.95 10.5202 20.95 13C20.95 15.4798 19.9649 17.858 18.2114 19.6115C16.458 21.3649 14.0798 22.35 11.6 22.35C9.12023 22.35 6.74202 21.3649 4.98855 19.6115C3.23509 17.858 2.25 15.4798 2.25 13C2.25 10.5202 3.23509 8.14204 4.98855 6.38858Z" stroke="url(#paint0_linear_2513_6747)" stroke-width="0.5"/>
<path d="M6.58865 4.98855C8.34211 3.23509 10.7203 2.25 13.2001 2.25C15.6799 2.25 18.0581 3.23509 19.8115 4.98855C21.565 6.74202 22.5501 9.12022 22.5501 11.6C22.5501 14.0798 21.565 16.458 19.8115 18.2114C18.0581 19.9649 15.6799 20.95 13.2001 20.95C10.7203 20.95 8.34211 19.9649 6.58865 18.2114C4.83518 16.458 3.8501 14.0798 3.8501 11.6C3.8501 9.12022 4.83518 6.74202 6.58865 4.98855Z" stroke="#0876E4" stroke-width="0.5"/>
<path d="M12.112 14.6705L9.979 12.6344C9.77265 12.4374 9.77265 12.108 9.979 11.911L10.3977 11.5114C10.5909 11.3269 10.895 11.3269 11.0882 11.5114L12.112 12.4886C12.3052 12.6731 12.6093 12.6731 12.8025 12.4886L16.112 9.32955C16.3052 9.14512 16.6093 9.14512 16.8025 9.32955L17.2212 9.72923C17.4275 9.9262 17.4275 10.2556 17.2212 10.4526L12.8025 14.6705C12.6093 14.8549 12.3052 14.8549 12.112 14.6705Z" fill="#0876E4"/>
<defs>
<filter id="filter0_i_2513_6747" x="0" y="1.40002" width="21.2" height="21.2" filterUnits="userSpaceOnUse" color-interpolation-filters="sRGB">
<feFlood flood-opacity="0" result="BackgroundImageFix"/>
<feBlend mode="normal" in="SourceGraphic" in2="BackgroundImageFix" result="shape"/>
<feColorMatrix in="SourceAlpha" type="matrix" values="0 0 0 0 0 0 0 0 0 0 0 0 0 0 0 0 0 0 127 0" result="hardAlpha"/>
<feOffset dx="-2" dy="-2"/>
<feGaussianBlur stdDeviation="3"/>
<feComposite in2="hardAlpha" operator="arithmetic" k2="-1" k3="1"/>
<feColorMatrix type="matrix" values="0 0 0 0 0.983333 0 0 0 0 0.989394 0 0 0 0 1 0 0 0 0.8 0"/>
<feBlend mode="normal" in2="shape" result="effect1_innerShadow_2513_6747"/>
</filter>
<linearGradient id="paint0_linear_2513_6747" x1="2" y1="3.58289" x2="22.223" y2="21.8432" gradientUnits="userSpaceOnUse">
<stop stop-color="#E9EDF4"/>
<stop offset="1" stop-color="#E8EDF7"/>
</linearGradient>
</defs>
</svg>
