<svg width="110" height="28" viewBox="0 0 110 28" fill="none" xmlns="http://www.w3.org/2000/svg">
<path d="M16.6813 13.2729C16.6931 12.358 16.9361 11.461 17.3877 10.6654C17.8393 9.86968 18.4848 9.20115 19.2642 8.72199C18.7691 8.01486 18.1159 7.43292 17.3566 7.02239C16.5972 6.61186 15.7525 6.38405 14.8897 6.35706C13.0492 6.16387 11.2649 7.4584 10.327 7.4584C9.37092 7.4584 7.92687 6.37624 6.37187 6.40823C5.36605 6.44073 4.3858 6.73321 3.52663 7.25719C2.66746 7.78117 1.95866 8.51877 1.46931 9.39812C-0.650451 13.0682 0.930702 18.4619 2.96126 21.4285C3.97719 22.8811 5.16452 24.5038 6.71812 24.4462C8.23841 24.3832 8.80621 23.4768 10.6413 23.4768C12.4594 23.4768 12.9921 24.4462 14.5773 24.4097C16.2086 24.3832 17.2364 22.9505 18.2167 21.4841C18.9466 20.4491 19.5083 19.3051 19.881 18.0946C18.9332 17.6937 18.1244 17.0227 17.5554 16.1653C16.9864 15.3079 16.6824 14.3019 16.6813 13.2729Z" fill="black"/>
<path d="M13.6874 4.40598C14.5768 3.3382 15.015 1.96574 14.9089 0.580078C13.55 0.722807 12.2948 1.37228 11.3933 2.3991C10.9525 2.90072 10.6149 3.4843 10.3998 4.11647C10.1847 4.74864 10.0963 5.417 10.1397 6.08336C10.8194 6.09035 11.4918 5.94303 12.1063 5.65248C12.7209 5.36193 13.2614 4.93573 13.6874 4.40598Z" fill="black"/>
<path d="M35.8988 20.7687H30.7108L29.4649 24.4476H27.2674L32.1814 10.8368H34.4645L39.3786 24.4476H37.1436L35.8988 20.7687ZM31.2481 19.0711H35.3605L33.3332 13.1006H33.2765L31.2481 19.0711Z" fill="black"/>
<path d="M49.9919 19.4864C49.9919 22.5702 48.3414 24.5514 45.8506 24.5514C45.2197 24.5844 44.5922 24.4391 44.04 24.132C43.4878 23.825 43.0333 23.3686 42.7284 22.8153H42.6812V27.7304H40.6443V14.5242H42.616V16.1747H42.6535C42.9724 15.624 43.4346 15.17 43.991 14.8611C44.5474 14.5522 45.1771 14.3999 45.8132 14.4204C48.3317 14.4204 49.9919 16.4113 49.9919 19.4864ZM47.8982 19.4864C47.8982 17.4774 46.86 16.1565 45.2758 16.1565C43.7195 16.1565 42.6727 17.5052 42.6727 19.4864C42.6727 21.4859 43.7195 22.8249 45.2758 22.8249C46.86 22.8249 47.8982 21.5137 47.8982 19.4864Z" fill="black"/>
<path d="M60.9137 19.4864C60.9137 22.5702 59.2632 24.5514 56.7725 24.5514C56.1416 24.5844 55.5141 24.4391 54.9619 24.132C54.4097 23.825 53.9551 23.3686 53.6503 22.8152H53.6031V27.7304H51.5662V14.5242H53.5378V16.1747H53.5753C53.8942 15.624 54.3564 15.17 54.9128 14.8611C55.4692 14.5522 56.0989 14.3999 56.735 14.4204C59.2536 14.4204 60.9137 16.4113 60.9137 19.4864ZM58.8201 19.4864C58.8201 17.4774 57.7818 16.1565 56.1977 16.1565C54.6414 16.1565 53.5946 17.5052 53.5946 19.4864C53.5946 21.4859 54.6414 22.8249 56.1977 22.8249C57.7819 22.8249 58.8201 21.5137 58.8201 19.4864H58.8201Z" fill="black"/>
<path d="M68.1317 20.6553C68.2827 22.005 69.5939 22.8912 71.3856 22.8912C73.1025 22.8912 74.3377 22.005 74.3377 20.788C74.3377 19.7315 73.5927 19.0989 71.8288 18.6654L70.0648 18.2405C67.5655 17.6368 66.4052 16.468 66.4052 14.5713C66.4052 12.2229 68.4518 10.6099 71.3578 10.6099C74.2338 10.6099 76.2055 12.2229 76.2718 14.5713H74.2157C74.0926 13.213 72.9697 12.3931 71.3289 12.3931C69.688 12.3931 68.5652 13.2226 68.5652 14.43C68.5652 15.3923 69.2824 15.9585 71.0367 16.3919L72.5362 16.7601C75.3288 17.4206 76.4891 18.5423 76.4891 20.5332C76.4891 23.0796 74.4608 24.6744 71.2347 24.6744C68.2163 24.6744 66.1783 23.117 66.0466 20.6552L68.1317 20.6553Z" fill="black"/>
<path d="M80.8857 12.1759V14.5243H82.7727V16.1373H80.8857V21.6079C80.8857 22.4578 81.2635 22.8539 82.093 22.8539C82.3171 22.8499 82.5407 22.8342 82.7631 22.8067V24.4101C82.3901 24.4798 82.0111 24.5114 81.6317 24.5043C79.6227 24.5043 78.8391 23.7497 78.8391 21.8252V16.1373H77.3963V14.5243H78.8391V12.1759H80.8857Z" fill="black"/>
<path d="M83.865 19.4864C83.865 16.3642 85.7039 14.4022 88.5714 14.4022C91.4485 14.4022 93.2788 16.3642 93.2788 19.4864C93.2788 22.6173 91.4581 24.5707 88.5714 24.5707C85.6856 24.5707 83.865 22.6173 83.865 19.4864ZM91.2034 19.4864C91.2034 17.3447 90.2219 16.0806 88.5714 16.0806C86.9209 16.0806 85.9404 17.3543 85.9404 19.4864C85.9404 21.6368 86.9209 22.8913 88.5714 22.8913C90.2219 22.8913 91.2034 21.6368 91.2034 19.4864H91.2034Z" fill="black"/>
<path d="M94.9588 14.5243H96.9015V16.2133H96.9486C97.0801 15.6858 97.3891 15.2196 97.8238 14.8931C98.2585 14.5666 98.7923 14.3997 99.3356 14.4204C99.5703 14.4196 99.8044 14.4451 100.033 14.4964V16.4017C99.7371 16.3111 99.428 16.2695 99.1182 16.2786C98.8223 16.2666 98.5273 16.3188 98.2535 16.4315C97.9796 16.5443 97.7334 16.715 97.5318 16.9319C97.3301 17.1488 97.1778 17.4067 97.0853 17.6881C96.9928 17.9694 96.9622 18.2674 96.9957 18.5617V24.4476H94.9588L94.9588 14.5243Z" fill="black"/>
<path d="M109.424 21.533C109.15 23.3344 107.396 24.5707 105.151 24.5707C102.264 24.5707 100.472 22.6365 100.472 19.5335C100.472 16.4209 102.274 14.4022 105.065 14.4022C107.811 14.4022 109.537 16.2882 109.537 19.297V19.9949H102.529V20.118C102.496 20.4832 102.542 20.8511 102.663 21.1972C102.784 21.5434 102.977 21.8599 103.229 22.1258C103.482 22.3916 103.788 22.6007 104.127 22.7392C104.467 22.8776 104.832 22.9422 105.198 22.9287C105.679 22.9738 106.163 22.8623 106.575 22.6109C106.988 22.3594 107.309 21.9813 107.49 21.533L109.424 21.533ZM102.538 18.5713H107.499C107.518 18.2429 107.468 17.9143 107.353 17.6061C107.238 17.2979 107.061 17.0167 106.833 16.7802C106.604 16.5437 106.329 16.357 106.025 16.2318C105.721 16.1066 105.394 16.0457 105.065 16.0527C104.734 16.0507 104.405 16.1145 104.098 16.2402C103.791 16.366 103.512 16.5513 103.277 16.7855C103.042 17.0196 102.856 17.298 102.729 17.6045C102.602 17.911 102.537 18.2396 102.538 18.5713V18.5713Z" fill="black"/>
<path d="M30.9929 0.591894C31.4199 0.561249 31.8485 0.625763 32.2475 0.780781C32.6466 0.935798 33.0063 1.17746 33.3007 1.48832C33.5951 1.79919 33.8168 2.17152 33.9499 2.57845C34.083 2.98538 34.124 3.41678 34.0702 3.84151C34.0702 5.93086 32.941 7.13186 30.9929 7.13186H28.6306V0.591894H30.9929ZM29.6464 6.20697H30.8794C31.1846 6.22521 31.49 6.17518 31.7733 6.06051C32.0567 5.94585 32.3109 5.76944 32.5175 5.54413C32.7241 5.31882 32.8779 5.05028 32.9676 4.75805C33.0573 4.46582 33.0808 4.15727 33.0362 3.85484C33.0775 3.55361 33.0517 3.24696 32.9606 2.95688C32.8695 2.66679 32.7154 2.40045 32.5093 2.17693C32.3031 1.95341 32.0501 1.77826 31.7684 1.66401C31.4866 1.54976 31.183 1.49925 30.8794 1.5161H29.6464V6.20697Z" fill="black"/>
<path d="M35.2177 4.66187C35.1867 4.33752 35.2238 4.01028 35.3267 3.70112C35.4295 3.39195 35.5959 3.1077 35.815 2.86659C36.0341 2.62548 36.3013 2.43283 36.5992 2.301C36.8972 2.16917 37.2194 2.10107 37.5452 2.10107C37.8711 2.10107 38.1933 2.16917 38.4913 2.301C38.7892 2.43283 39.0563 2.62548 39.2755 2.86659C39.4946 3.1077 39.661 3.39195 39.7638 3.70112C39.8667 4.01028 39.9038 4.33752 39.8727 4.66187C39.9044 4.98654 39.8677 5.31424 39.7651 5.6239C39.6625 5.93356 39.4963 6.21834 39.2771 6.45992C39.0579 6.70151 38.7906 6.89456 38.4923 7.02667C38.1941 7.15879 37.8715 7.22704 37.5452 7.22704C37.219 7.22704 36.8964 7.15879 36.5982 7.02667C36.2999 6.89456 36.0326 6.70151 35.8134 6.45992C35.5942 6.21834 35.4279 5.93356 35.3254 5.6239C35.2228 5.31424 35.1861 4.98654 35.2177 4.66187ZM38.8709 4.66187C38.8709 3.59204 38.3903 2.96642 37.5468 2.96642C36.7002 2.96642 36.2239 3.59204 36.2239 4.66188C36.2239 5.74027 36.7002 6.36108 37.5468 6.36108C38.3903 6.36107 38.8709 5.73598 38.8709 4.66187H38.8709Z" fill="black"/>
<path d="M46.0604 7.13173H45.05L44.0299 3.49678H43.9529L42.9371 7.13173H41.9363L40.5759 2.19629H41.5638L42.4479 5.96232H42.5207L43.5354 2.19629H44.4699L45.4846 5.96232H45.5616L46.4415 2.19629H47.4155L46.0604 7.13173Z" fill="black"/>
<path d="M48.5604 2.19632H49.498V2.98036H49.5708C49.6943 2.69876 49.9025 2.4627 50.1665 2.30508C50.4305 2.14746 50.7371 2.07614 51.0436 2.10105C51.2838 2.08299 51.5249 2.1192 51.7491 2.20699C51.9734 2.29478 52.175 2.4319 52.3391 2.6082C52.5031 2.78449 52.6254 2.99544 52.6969 3.22541C52.7684 3.45538 52.7872 3.69849 52.7519 3.93672V7.13171H51.7779V4.18131C51.7779 3.38818 51.4332 2.99374 50.7129 2.99374C50.5498 2.98615 50.3871 3.0139 50.2357 3.07509C50.0844 3.13628 49.9481 3.22947 49.8362 3.34827C49.7243 3.46706 49.6393 3.60866 49.5872 3.76334C49.5352 3.91803 49.5171 4.08215 49.5344 4.24446V7.13177H48.5604L48.5604 2.19632Z" fill="black"/>
<path d="M54.3026 0.269653H55.2766V7.13175H54.3026V0.269653Z" fill="black"/>
<path d="M56.6319 4.66196C56.6009 4.33759 56.638 4.01033 56.7409 3.70116C56.8438 3.39198 57.0101 3.10772 57.2293 2.8666C57.4485 2.62548 57.7156 2.43283 58.0136 2.301C58.3116 2.16917 58.6338 2.10107 58.9597 2.10107C59.2855 2.10107 59.6078 2.16917 59.9057 2.301C60.2037 2.43283 60.4709 2.62548 60.69 2.8666C60.9092 3.10772 61.0756 3.39198 61.1784 3.70116C61.2813 4.01033 61.3184 4.33759 61.2874 4.66196C61.319 4.98665 61.2823 5.31435 61.1797 5.62401C61.0771 5.93367 60.9108 6.21844 60.6916 6.46002C60.4724 6.7016 60.205 6.89464 59.9068 7.02675C59.6085 7.15885 59.2859 7.2271 58.9597 7.2271C58.6335 7.2271 58.3108 7.15885 58.0126 7.02675C57.7143 6.89464 57.447 6.7016 57.2277 6.46002C57.0085 6.21844 56.8422 5.93367 56.7396 5.62401C56.637 5.31435 56.6003 4.98665 56.6319 4.66196ZM60.285 4.66196C60.285 3.59213 59.8044 2.96651 58.961 2.96651C58.1143 2.96651 57.6381 3.59214 57.6381 4.66197C57.6381 5.74036 58.1144 6.36117 58.961 6.36117C59.8044 6.36116 60.285 5.73607 60.285 4.66196H60.285Z" fill="black"/>
<path d="M62.3124 5.73602C62.3124 4.84762 62.9739 4.33545 64.148 4.26266L65.4849 4.1856V3.7596C65.4849 3.23833 65.1403 2.94398 64.4745 2.94398C63.9308 2.94398 63.554 3.14361 63.4459 3.49255H62.5029C62.6024 2.64482 63.3999 2.10107 64.5195 2.10107C65.7568 2.10107 66.4547 2.71706 66.4547 3.7596V7.13178H65.517V6.43819H65.44C65.2836 6.68698 65.0639 6.8898 64.8035 7.02595C64.543 7.16209 64.2511 7.22667 63.9575 7.21309C63.7503 7.23465 63.5409 7.21254 63.3428 7.1482C63.1447 7.08387 62.9622 6.97873 62.8072 6.83956C62.6522 6.7004 62.5281 6.5303 62.4429 6.34022C62.3577 6.15015 62.3132 5.94433 62.3124 5.73602ZM65.4849 5.31429V4.90167L64.2797 4.97874C63.6 5.02422 63.2918 5.25542 63.2918 5.69052C63.2918 6.13472 63.6771 6.39321 64.207 6.39321C64.3622 6.40893 64.519 6.39325 64.6681 6.34712C64.8172 6.30099 64.9554 6.22534 65.0747 6.12468C65.1939 6.02401 65.2917 5.90039 65.3622 5.76118C65.4326 5.62196 65.4744 5.46998 65.4849 5.31429Z" fill="black"/>
<path d="M67.7342 4.66191C67.7342 3.10239 68.5359 2.11444 69.7829 2.11444C70.0913 2.10023 70.3974 2.17411 70.6654 2.32744C70.9335 2.48077 71.1523 2.70722 71.2964 2.98032H71.3692V0.269653H72.3432V7.13175H71.4098V6.35199H71.3328C71.1776 6.62325 70.9511 6.84688 70.6779 6.99866C70.4047 7.15045 70.0952 7.2246 69.7829 7.21309C68.5273 7.21314 67.7342 6.22517 67.7342 4.66191ZM68.7404 4.66191C68.7404 5.70872 69.2338 6.33864 70.0591 6.33864C70.88 6.33864 71.3874 5.69964 71.3874 4.66619C71.3874 3.63757 70.8747 2.98946 70.0591 2.98946C69.2391 2.98946 68.7403 3.62365 68.7403 4.66191H68.7404Z" fill="black"/>
<path d="M76.3741 4.66187C76.3431 4.33752 76.3802 4.01028 76.483 3.70112C76.5859 3.39195 76.7522 3.1077 76.9714 2.86659C77.1905 2.62548 77.4576 2.43283 77.7556 2.301C78.0536 2.16917 78.3758 2.10107 78.7016 2.10107C79.0274 2.10107 79.3497 2.16917 79.6476 2.301C79.9456 2.43283 80.2127 2.62548 80.4318 2.86659C80.651 3.1077 80.8173 3.39195 80.9202 3.70112C81.023 4.01028 81.0601 4.33752 81.0291 4.66187C81.0607 4.98654 81.0241 5.31424 80.9215 5.6239C80.8189 5.93356 80.6527 6.21834 80.4335 6.45992C80.2143 6.70151 79.9469 6.89456 79.6487 7.02667C79.3504 7.15879 79.0278 7.22704 78.7016 7.22704C78.3754 7.22704 78.0528 7.15879 77.7545 7.02667C77.4563 6.89456 77.189 6.70151 76.9697 6.45992C76.7505 6.21834 76.5843 5.93356 76.4817 5.6239C76.3791 5.31424 76.3425 4.98654 76.3741 4.66187ZM80.0273 4.66187C80.0273 3.59204 79.5467 2.96642 78.7032 2.96642C77.8566 2.96642 77.3803 3.59204 77.3803 4.66188C77.3803 5.74027 77.8566 6.36108 78.7032 6.36108C79.5467 6.36107 80.0273 5.73598 80.0273 4.66187Z" fill="black"/>
<path d="M82.3358 2.19632H83.2734V2.98036H83.3462C83.4697 2.69876 83.6779 2.4627 83.9419 2.30508C84.2059 2.14746 84.5125 2.07614 84.819 2.10105C85.0591 2.08299 85.3003 2.1192 85.5245 2.20699C85.7488 2.29478 85.9504 2.4319 86.1145 2.6082C86.2785 2.78449 86.4008 2.99544 86.4723 3.22541C86.5437 3.45538 86.5625 3.69849 86.5273 3.93672V7.13171H85.5533V4.18131C85.5533 3.38818 85.2086 2.99374 84.4883 2.99374C84.3252 2.98615 84.1625 3.0139 84.0111 3.07509C83.8598 3.13628 83.7235 3.22947 83.6116 3.34827C83.4997 3.46706 83.4147 3.60866 83.3626 3.76334C83.3105 3.91803 83.2925 4.08215 83.3098 4.24446V7.13177H82.3358V2.19632Z" fill="black"/>
<path d="M92.0319 0.967529V2.21878H93.1012V3.03922H92.0319V5.57705C92.0319 6.09404 92.2449 6.32042 92.7297 6.32042C92.8539 6.32002 92.9779 6.31251 93.1012 6.29794V7.10927C92.9262 7.14056 92.749 7.15721 92.5713 7.15904C91.4881 7.15904 91.0568 6.77799 91.0568 5.82644V3.03918H90.2733V2.21874H91.0568V0.967529H92.0319Z" fill="black"/>
<path d="M94.4315 0.269653H95.3969V2.98945H95.474C95.6035 2.70522 95.8174 2.46783 96.0867 2.30962C96.356 2.1514 96.6676 2.08007 96.9789 2.10533C97.2178 2.09233 97.4566 2.13222 97.6783 2.22214C97.9 2.31206 98.0991 2.44981 98.2615 2.62554C98.4238 2.80128 98.5454 3.01069 98.6175 3.23881C98.6896 3.46694 98.7105 3.70817 98.6786 3.94529V7.13176H97.7036V4.18557C97.7036 3.39725 97.3364 2.998 96.6482 2.998C96.4808 2.98427 96.3124 3.00729 96.1548 3.06543C95.9972 3.12358 95.8543 3.21546 95.7359 3.33465C95.6175 3.45383 95.5266 3.59743 95.4696 3.75542C95.4125 3.9134 95.3907 4.08194 95.4055 4.24925V7.13174H94.4315L94.4315 0.269653Z" fill="black"/>
<path d="M104.357 5.79914C104.225 6.25021 103.938 6.64038 103.547 6.90141C103.156 7.16243 102.686 7.27768 102.219 7.227C101.893 7.23558 101.57 7.1733 101.272 7.04448C100.973 6.91567 100.706 6.7234 100.489 6.48102C100.272 6.23864 100.11 5.95196 100.015 5.64088C99.9204 5.32979 99.8942 5.00176 99.9387 4.67954C99.8954 4.35633 99.9221 4.02759 100.017 3.71557C100.112 3.40356 100.272 3.11555 100.488 2.87105C100.704 2.62655 100.97 2.43127 101.268 2.29842C101.565 2.16557 101.888 2.09825 102.214 2.10103C103.588 2.10103 104.416 3.03926 104.416 4.58907V4.92895H100.931V4.98353C100.916 5.16465 100.938 5.34696 100.998 5.51876C101.057 5.69057 101.152 5.84808 101.275 5.9812C101.399 6.11432 101.549 6.22012 101.716 6.2918C101.883 6.36347 102.064 6.39946 102.245 6.39744C102.478 6.42541 102.714 6.38346 102.923 6.27691C103.133 6.17037 103.305 6.00405 103.42 5.7991L104.357 5.79914ZM100.931 4.20858H103.424C103.436 4.04293 103.414 3.87655 103.358 3.72013C103.302 3.5637 103.214 3.42069 103.099 3.30028C102.985 3.17987 102.847 3.08473 102.693 3.02096C102.54 2.9572 102.375 2.92623 102.209 2.93003C102.04 2.92792 101.873 2.95955 101.717 3.02306C101.561 3.08657 101.419 3.18067 101.3 3.29983C101.181 3.41898 101.087 3.56078 101.024 3.71685C100.96 3.87292 100.929 4.04012 100.931 4.20858H100.931Z" fill="black"/>
</svg>
