<svg width="21" height="24" viewBox="0 0 21 24" fill="none" xmlns="http://www.w3.org/2000/svg">
<path d="M7.2973 2.24872C9.02822 1.22099 11.1823 1.22099 12.9132 2.24872L17.0185 4.68622C18.6875 5.67717 19.7105 7.47444 19.7105 9.41542V14.5846C19.7105 16.5256 18.6875 18.3228 17.0185 19.3138L12.9132 21.7513C11.1823 22.779 9.02822 22.779 7.2973 21.7513L3.19204 19.3138C1.52307 18.3228 0.5 16.5256 0.5 14.5846V9.41542C0.5 7.47444 1.52307 5.67717 3.19204 4.68622L7.2973 2.24872Z" stroke="#0876E4"/>
<g clip-path="url(#clip0_2519_12602)">
<path d="M6.97164 8.96543L6.97164 8.36726C6.97164 7.60536 7.29394 6.87466 7.86763 6.33592C8.44133 5.79717 9.21943 5.49451 10.0308 5.49451C10.8421 5.49451 11.6202 5.79717 12.1939 6.33592C12.7676 6.87466 13.0899 7.60536 13.0899 8.36726V11.4654M5.96576 11.4654H14.101C14.2492 11.4656 14.3911 11.5209 14.4958 11.6193C14.6005 11.7177 14.6593 11.8511 14.6593 11.9902V16.6888C14.6593 16.8279 14.6004 16.9613 14.4957 17.0597C14.391 17.1581 14.2489 17.2135 14.1008 17.2135H5.96605C5.81784 17.2135 5.6757 17.1582 5.5709 17.0598C5.4661 16.9614 5.40723 16.8279 5.40723 16.6888V11.9902C5.40723 11.851 5.4661 11.7175 5.5709 11.6191C5.6757 11.5207 5.81755 11.4654 5.96576 11.4654Z" stroke="#0876E4" stroke-linecap="round" stroke-linejoin="round"/>
<path d="M10.0102 15.4534C10.6655 15.4534 11.1967 14.9545 11.1967 14.3392C11.1967 13.7238 10.6655 13.225 10.0102 13.225C9.35493 13.225 8.82373 13.7238 8.82373 14.3392C8.82373 14.9545 9.35493 15.4534 10.0102 15.4534Z" stroke="#0876E4" stroke-linecap="round" stroke-linejoin="round"/>
</g>
<defs>
<clipPath id="clip0_2519_12602">
<rect width="10" height="12.5" fill="white" transform="translate(5 5.05261)"/>
</clipPath>
</defs>
</svg>
