<svg width="31" height="21" viewBox="0 0 31 21" fill="none" xmlns="http://www.w3.org/2000/svg">
<g clip-path="url(#clip0_2476_6798)">
<path d="M31.9053 -0.662447L-0.184647 -1.22949L0.0285216 20.0213L32.1185 20.5884L31.9053 -0.662447Z" fill="#003D7C"/>
<path d="M31.1744 1.87592L21.1182 8.0969L31.2155 8.23408L31.248 13.4056L22.5308 13.2886L31.2787 18.9151L31.2899 20.5278L28.7556 20.4922L17.6214 13.3258L17.6659 20.3472L12.832 20.2828L12.785 13.2512L1.65321 20.1295L-0.796322 20.1011L-0.806591 18.4403L7.83839 13.0952L-0.838151 12.9789L-0.869742 7.80281L9.25536 7.93744L-0.909968 1.39653L-0.922069 -0.211605L1.61315 -0.180561L12.7464 6.99038L12.7019 -0.0309753L17.5402 0.0344488L17.5828 7.06499L28.7156 0.182072L31.1641 0.215078L31.1744 1.87592Z" fill="white"/>
<path d="M31.168 0.831008L18.027 8.97417L31.2172 9.14572L31.236 12.5198L19.4399 12.3667L31.2826 19.9915L31.2843 20.5535L30.4063 20.5414L17.6795 12.3415L16.7695 12.3309L16.8164 20.3497L13.6663 20.3071L13.6194 12.2883L12.6911 12.2779L-0.0117704 20.1461L-0.804082 20.1366L-0.80824 19.5208L10.9255 12.2561L-0.852428 12.1029L-0.871211 8.72882L12.3372 8.90019L-0.922868 0.360227L-0.924562 -0.201749L-0.0465542 -0.189688L13.5978 8.59884L13.542 -0.0128573L16.693 0.0251541L16.7469 8.64605L30.3759 0.206797L31.1639 0.215151L31.168 0.831008Z" fill="#C62424"/>
</g>
<defs>
<clipPath id="clip0_2476_6798">
<rect width="31" height="20" fill="white" transform="translate(0 0.161133)"/>
</clipPath>
</defs>
</svg>
