<svg width="32" height="32" viewBox="0 0 32 32" fill="none" xmlns="http://www.w3.org/2000/svg">
<g clip-path="url(#clip0_2519_9679)">
<path d="M0.133369 15.8558C0.132593 18.6501 0.865995 21.3785 2.26055 23.7833L0 32L8.44656 29.7952C10.7828 31.0613 13.4003 31.7248 16.0603 31.7249H16.0673C24.8483 31.7249 31.9962 24.6116 32 15.8683C32.0017 11.6316 30.3458 7.64767 27.3374 4.65037C24.3294 1.65333 20.329 0.00193357 16.0666 0C7.28456 0 0.137125 7.11297 0.133499 15.8558" fill="url(#paint0_linear_2519_9679)"/>
<path d="M11.5762 8.74328C11.2445 8.03653 10.8953 8.02227 10.5798 8.00988C10.3214 7.99921 10.0261 8.00001 9.73101 8.00001C9.43566 8.00001 8.95579 8.1065 8.55017 8.53098C8.14413 8.95585 7 9.98259 7 12.0709C7 14.1593 8.58702 16.1774 8.80825 16.4609C9.02976 16.7438 11.872 21.1664 16.3735 22.8678C20.1145 24.2817 20.8759 24.0005 21.6878 23.9296C22.4999 23.8589 24.3081 22.9031 24.677 21.9119C25.0462 20.9209 25.0462 20.0714 24.9355 19.8939C24.8248 19.717 24.5295 19.6108 24.0866 19.3987C23.6436 19.1864 21.4663 18.1595 21.0604 18.0178C20.6544 17.8763 20.3591 17.8056 20.0638 18.2306C19.7684 18.655 18.9204 19.6108 18.6619 19.8939C18.4036 20.1776 18.1451 20.213 17.7024 20.0007C17.2592 19.7877 15.833 19.34 14.1408 17.8941C12.8243 16.769 11.9354 15.3797 11.6771 14.9546C11.4187 14.5303 11.6494 14.3003 11.8715 14.0888C12.0704 13.8986 12.3145 13.5931 12.5361 13.3454C12.757 13.0975 12.8307 12.9206 12.9783 12.6375C13.1261 12.3542 13.0522 12.1063 12.9416 11.894C12.8307 11.6817 11.97 9.58264 11.5762 8.74342" fill="white"/>
</g>
<defs>
<linearGradient id="paint0_linear_2519_9679" x1="16" y1="32" x2="16" y2="0" gradientUnits="userSpaceOnUse">
<stop stop-color="#1FAF38"/>
<stop offset="1" stop-color="#60D669"/>
</linearGradient>
<clipPath id="clip0_2519_9679">
<rect width="32" height="32" fill="white"/>
</clipPath>
</defs>
</svg>
