<svg width="33" height="32" viewBox="0 0 33 32" fill="none" xmlns="http://www.w3.org/2000/svg">
<g filter="url(#filter0_bi_449_6554)">
<path d="M8.5498 21.3334C8.5498 17.6515 11.5346 14.6667 15.2165 14.6667H16.5498C20.2317 14.6667 23.2165 17.6515 23.2165 21.3334V27.3334C23.2165 28.0697 22.6195 28.6667 21.8831 28.6667H9.88314C9.14676 28.6667 8.5498 28.0697 8.5498 27.3334V21.3334Z" fill="#4C75BA" fill-opacity="0.2"/>
<path d="M8.5498 21.3334C8.5498 17.6515 11.5346 14.6667 15.2165 14.6667H16.5498C20.2317 14.6667 23.2165 17.6515 23.2165 21.3334V27.3334C23.2165 28.0697 22.6195 28.6667 21.8831 28.6667H9.88314C9.14676 28.6667 8.5498 28.0697 8.5498 27.3334V21.3334Z" stroke="url(#paint0_linear_449_6554)" stroke-width="0.5"/>
</g>
<g filter="url(#filter1_i_449_6554)">
<path fill-rule="evenodd" clip-rule="evenodd" d="M10.1494 6.95002C10.1494 4.43713 12.1865 2.40002 14.6994 2.40002H17.1994C19.5262 2.40002 21.445 4.14649 21.7165 6.40002H24.3494C24.6808 6.40002 24.9494 6.66865 24.9494 7.00002C24.9494 7.3314 24.6808 7.60002 24.3494 7.60002H21.2013C21.2111 7.73208 21.2161 7.86547 21.2161 8.00002V9.33335C21.2161 12.2789 18.8283 14.6667 15.8828 14.6667C12.9373 14.6667 10.5494 12.2789 10.5494 9.33335V8.00002C10.5494 7.85099 10.5556 7.70339 10.5675 7.55745C10.3231 7.46406 10.1494 7.22732 10.1494 6.95002Z" fill="#4C75BA" fill-opacity="0.2"/>
</g>
<path d="M21.7165 6.40002L21.4683 6.42993L21.4948 6.65002H21.7165V6.40002ZM21.2013 7.60002V7.35002H20.9321L20.952 7.61851L21.2013 7.60002ZM10.5675 7.55745L10.8167 7.57791L10.8321 7.39087L10.6567 7.3239L10.5675 7.55745ZM14.6994 2.15002C12.0484 2.15002 9.89941 4.29906 9.89941 6.95002H10.3994C10.3994 4.5752 12.3246 2.65002 14.6994 2.65002V2.15002ZM17.1994 2.15002H14.6994V2.65002H17.1994V2.15002ZM21.9647 6.37012C21.6782 3.9925 19.6542 2.15002 17.1994 2.15002V2.65002C19.3981 2.65002 21.2117 4.30048 21.4683 6.42993L21.9647 6.37012ZM24.3494 6.15002H21.7165V6.65002H24.3494V6.15002ZM25.1994 7.00002C25.1994 6.53058 24.8189 6.15002 24.3494 6.15002V6.65002C24.5427 6.65002 24.6994 6.80672 24.6994 7.00002H25.1994ZM24.3494 7.85002C24.8189 7.85002 25.1994 7.46947 25.1994 7.00002H24.6994C24.6994 7.19332 24.5427 7.35002 24.3494 7.35002V7.85002ZM21.2013 7.85002H24.3494V7.35002H21.2013V7.85002ZM20.952 7.61851C20.9614 7.74442 20.9661 7.87164 20.9661 8.00002H21.4661C21.4661 7.85929 21.4609 7.71974 21.4506 7.58154L20.952 7.61851ZM20.9661 8.00002V9.33335H21.4661V8.00002H20.9661ZM20.9661 9.33335C20.9661 12.1408 18.6902 14.4167 15.8828 14.4167V14.9167C18.9664 14.9167 21.4661 12.4169 21.4661 9.33335H20.9661ZM15.8828 14.4167C13.0753 14.4167 10.7994 12.1408 10.7994 9.33335H10.2994C10.2994 12.4169 12.7992 14.9167 15.8828 14.9167V14.4167ZM10.7994 9.33335V8.00002H10.2994V9.33335H10.7994ZM10.7994 8.00002C10.7994 7.85783 10.8053 7.71705 10.8167 7.57791L10.3184 7.53698C10.3058 7.68972 10.2994 7.84415 10.2994 8.00002H10.7994ZM9.89941 6.95002C9.89941 7.33437 10.1402 7.66185 10.4783 7.79099L10.6567 7.3239C10.5059 7.26628 10.3994 7.12028 10.3994 6.95002H9.89941Z" fill="url(#paint1_linear_449_6554)"/>
<path d="M12.5498 19.3334C12.5498 15.6515 15.5346 12.6667 19.2165 12.6667H20.5498C24.2317 12.6667 27.2165 15.6515 27.2165 19.3334V25.3334C27.2165 26.0697 26.6195 26.6667 25.8831 26.6667H13.8831C13.1468 26.6667 12.5498 26.0697 12.5498 25.3334V19.3334Z" stroke="#0876E4" stroke-width="0.5"/>
<path d="M14.5498 6.00002C14.5498 3.0545 16.9376 0.666687 19.8831 0.666687C22.8287 0.666687 25.2165 3.0545 25.2165 6.00002V7.33335C25.2165 10.2789 22.8287 12.6667 19.8831 12.6667C16.9376 12.6667 14.5498 10.2789 14.5498 7.33335V6.00002Z" stroke="#0876E4" stroke-width="0.5"/>
<path fill-rule="evenodd" clip-rule="evenodd" d="M18.7004 0.400024C16.1875 0.400024 14.1504 2.43713 14.1504 4.95002C14.1504 5.30901 14.4414 5.60002 14.8004 5.60002H18.3504H25.1004H28.3504C28.6818 5.60002 28.9504 5.3314 28.9504 5.00002C28.9504 4.66865 28.6818 4.40002 28.3504 4.40002H25.7175C25.446 2.14649 23.5271 0.400024 21.2004 0.400024H18.7004Z" fill="#0876E4"/>
<defs>
<filter id="filter0_bi_449_6554" x="4.2998" y="10.4167" width="23.167" height="22.5" filterUnits="userSpaceOnUse" color-interpolation-filters="sRGB">
<feFlood flood-opacity="0" result="BackgroundImageFix"/>
<feGaussianBlur in="BackgroundImageFix" stdDeviation="2"/>
<feComposite in2="SourceAlpha" operator="in" result="effect1_backgroundBlur_449_6554"/>
<feBlend mode="normal" in="SourceGraphic" in2="effect1_backgroundBlur_449_6554" result="shape"/>
<feColorMatrix in="SourceAlpha" type="matrix" values="0 0 0 0 0 0 0 0 0 0 0 0 0 0 0 0 0 0 127 0" result="hardAlpha"/>
<feOffset dx="-2" dy="-2"/>
<feGaussianBlur stdDeviation="3"/>
<feComposite in2="hardAlpha" operator="arithmetic" k2="-1" k3="1"/>
<feColorMatrix type="matrix" values="0 0 0 0 0.983333 0 0 0 0 0.989394 0 0 0 0 1 0 0 0 0.8 0"/>
<feBlend mode="normal" in2="shape" result="effect2_innerShadow_449_6554"/>
</filter>
<filter id="filter1_i_449_6554" x="8.89941" y="1.15002" width="16.2998" height="13.7667" filterUnits="userSpaceOnUse" color-interpolation-filters="sRGB">
<feFlood flood-opacity="0" result="BackgroundImageFix"/>
<feBlend mode="normal" in="SourceGraphic" in2="BackgroundImageFix" result="shape"/>
<feColorMatrix in="SourceAlpha" type="matrix" values="0 0 0 0 0 0 0 0 0 0 0 0 0 0 0 0 0 0 127 0" result="hardAlpha"/>
<feOffset dx="-1" dy="-1"/>
<feGaussianBlur stdDeviation="2"/>
<feComposite in2="hardAlpha" operator="arithmetic" k2="-1" k3="1"/>
<feColorMatrix type="matrix" values="0 0 0 0 0.983333 0 0 0 0 0.989394 0 0 0 0 1 0 0 0 0.8 0"/>
<feBlend mode="normal" in2="shape" result="effect1_innerShadow_449_6554"/>
</filter>
<linearGradient id="paint0_linear_449_6554" x1="8.5498" y1="14.8" x2="23.3498" y2="28.8" gradientUnits="userSpaceOnUse">
<stop stop-color="#E9EDF4"/>
<stop offset="1" stop-color="#E8EDF7"/>
</linearGradient>
<linearGradient id="paint1_linear_449_6554" x1="10.1494" y1="2.44955" x2="13.8706" y2="12.0128" gradientUnits="userSpaceOnUse">
<stop stop-color="#E9EDF4"/>
<stop offset="1" stop-color="#E8EDF7"/>
</linearGradient>
</defs>
</svg>
