<svg width="65" height="64" viewBox="0 0 65 64" fill="none" xmlns="http://www.w3.org/2000/svg">
<g filter="url(#filter0_i_2535_3853)">
<path d="M52.334 13.3023H6.6197C5.86194 13.3023 5.13521 12.9961 4.59939 12.4509C4.06358 11.9057 3.76256 11.1663 3.76256 10.3953C3.76256 9.62437 4.06358 8.88497 4.59939 8.33981C5.13521 7.79464 5.86194 7.48837 6.6197 7.48837H45.4768C45.9315 7.48837 46.3675 7.30461 46.689 6.97751C47.0105 6.65041 47.1911 6.20677 47.1911 5.74419C47.1911 5.2816 47.0105 4.83796 46.689 4.51086C46.3675 4.18376 45.9315 4 45.4768 4H6.6197C4.95494 4.00765 3.36051 4.6839 2.18333 5.8816C1.00616 7.07931 0.3415 8.70155 0.333984 10.3953V47.6046C0.3415 49.2984 1.00616 50.9207 2.18333 52.1184C3.36051 53.3161 4.95494 53.9924 6.6197 54H52.334C53.3949 54 54.4123 53.5712 55.1624 52.808C55.9126 52.0448 56.334 51.0096 56.334 49.9302V17.3721C56.334 16.2927 55.9126 15.2576 55.1624 14.4943C54.4123 13.7311 53.3949 13.3023 52.334 13.3023Z" fill="#4C75BA" fill-opacity="0.2"/>
</g>
<path d="M6.6197 14.3023H52.334C53.124 14.3023 53.8852 14.6215 54.4492 15.1953C55.0138 15.7697 55.334 16.5524 55.334 17.3721V49.9302C55.334 50.7499 55.0138 51.5326 54.4492 52.107C53.8852 52.6809 53.124 53 52.334 53H6.62192C5.22725 52.993 3.88809 52.4263 2.89652 51.4174C1.90433 50.4079 1.3409 49.0372 1.33398 47.6023V10.3977C1.3409 8.96281 1.90433 7.59207 2.89652 6.58257C3.88813 5.57367 5.22736 5.00699 6.6221 5H45.4768C45.6607 5 45.8405 5.07413 45.9758 5.21183C46.1117 5.35011 46.1911 5.54128 46.1911 5.74419C46.1911 5.94709 46.1117 6.13826 45.9758 6.27654C45.8405 6.41424 45.6607 6.48837 45.4768 6.48837H6.6197C5.59109 6.48837 4.60817 6.90428 3.8862 7.63884C3.16481 8.37282 2.76256 9.36468 2.76256 10.3953C2.76256 11.426 3.16481 12.4179 3.8862 13.1519C4.60817 13.8864 5.59109 14.3023 6.6197 14.3023Z" stroke="url(#paint0_linear_2535_3853)" stroke-width="2"/>
<path d="M10.6197 17.8023H56.334C57.2594 17.8023 58.1487 18.1763 58.8058 18.8448C59.4632 19.5136 59.834 20.4226 59.834 21.3721V53.9302C59.834 54.8797 59.4632 55.7887 58.8058 56.4575C58.1487 57.126 57.2594 57.5 56.334 57.5L10.622 57.5C10.6217 57.5 10.6215 57.5 10.6212 57.5C9.09133 57.4928 7.62438 56.8713 6.53993 55.7679C5.45525 54.6643 4.84121 53.1678 4.83398 51.6035V14.3965C4.84121 12.8322 5.45525 11.3357 6.53993 10.2321C7.62431 9.12879 9.09114 8.50733 10.6209 8.5H49.4768C49.7961 8.5 50.104 8.62895 50.3324 8.86134C50.5611 9.09403 50.6911 9.41144 50.6911 9.74419C50.6911 10.0769 50.5611 10.3943 50.3324 10.627C50.104 10.8594 49.7961 10.9884 49.4768 10.9884H10.6197C9.72651 10.9884 8.87169 11.3495 8.2428 11.9893C7.61419 12.6289 7.26256 13.4945 7.26256 14.3953C7.26256 15.2962 7.61419 16.1618 8.2428 16.8014C8.87169 17.4412 9.72651 17.8023 10.6197 17.8023Z" stroke="#0876E4"/>
<circle cx="44.334" cy="38" r="6" fill="#0876E4"/>
<defs>
<filter id="filter0_i_2535_3853" x="-3.66602" y="0" width="60" height="54" filterUnits="userSpaceOnUse" color-interpolation-filters="sRGB">
<feFlood flood-opacity="0" result="BackgroundImageFix"/>
<feBlend mode="normal" in="SourceGraphic" in2="BackgroundImageFix" result="shape"/>
<feColorMatrix in="SourceAlpha" type="matrix" values="0 0 0 0 0 0 0 0 0 0 0 0 0 0 0 0 0 0 127 0" result="hardAlpha"/>
<feOffset dx="-4" dy="-4"/>
<feGaussianBlur stdDeviation="6"/>
<feComposite in2="hardAlpha" operator="arithmetic" k2="-1" k3="1"/>
<feColorMatrix type="matrix" values="0 0 0 0 0.983333 0 0 0 0 0.989394 0 0 0 0 1 0 0 0 0.8 0"/>
<feBlend mode="normal" in2="shape" result="effect1_innerShadow_2535_3853"/>
</filter>
<linearGradient id="paint0_linear_2535_3853" x1="0.333984" y1="4.47621" x2="53.2694" y2="58.0099" gradientUnits="userSpaceOnUse">
<stop stop-color="#E9EDF4"/>
<stop offset="1" stop-color="#E8EDF7"/>
</linearGradient>
</defs>
</svg>
