<svg width="33" height="32" viewBox="0 0 33 32" fill="none" xmlns="http://www.w3.org/2000/svg">
<path d="M21.0973 9.04666C21.1185 8.98391 21.1592 8.9293 21.2138 8.89059C21.2684 8.85188 21.334 8.83105 21.4014 8.83105C21.4687 8.83105 21.5343 8.85188 21.5889 8.89059C21.6435 8.9293 21.6842 8.98391 21.7054 9.04666L22.2766 10.7306C22.532 11.4813 23.1312 12.0696 23.8958 12.3203L25.6109 12.8811C25.6748 12.9019 25.7305 12.942 25.7699 12.9955C25.8093 13.0491 25.8305 13.1136 25.8305 13.1797C25.8305 13.2458 25.8093 13.3102 25.7699 13.3638C25.7305 13.4174 25.6748 13.4574 25.6109 13.4782L23.8958 14.039C23.5187 14.1624 23.1761 14.3702 22.895 14.6462C22.614 14.9221 22.4023 15.2585 22.2766 15.6287L21.7054 17.3127C21.6842 17.3754 21.6435 17.43 21.5889 17.4687C21.5343 17.5075 21.4687 17.5283 21.4014 17.5283C21.334 17.5283 21.2684 17.5075 21.2138 17.4687C21.1592 17.43 21.1185 17.3754 21.0973 17.3127L20.5261 15.6287C20.4004 15.2585 20.1887 14.9221 19.9077 14.6462C19.6266 14.3702 19.284 14.1624 18.9069 14.039L17.1918 13.4782C17.1279 13.4574 17.0722 13.4174 17.0328 13.3638C16.9934 13.3102 16.9722 13.2458 16.9722 13.1797C16.9722 13.1136 16.9934 13.0491 17.0328 12.9955C17.0722 12.942 17.1279 12.9019 17.1918 12.8811L18.9069 12.3203C19.284 12.197 19.6266 11.9891 19.9077 11.7132C20.1887 11.4372 20.4004 11.1008 20.5261 10.7306L21.0973 9.04666ZM27.1032 3.17902C27.1177 3.13775 27.145 3.10197 27.1813 3.07665C27.2175 3.05133 27.2609 3.03772 27.3054 3.03772C27.3499 3.03772 27.3932 3.05133 27.4295 3.07665C27.4657 3.10197 27.493 3.13775 27.5076 3.17902L27.8884 4.30067C28.0581 4.80208 28.4581 5.1948 28.9688 5.36145L30.1113 5.73533C30.1533 5.74964 30.1897 5.77645 30.2155 5.81203C30.2413 5.84761 30.2552 5.8902 30.2552 5.93387C30.2552 5.97754 30.2413 6.02013 30.2155 6.05571C30.1897 6.09129 30.1533 6.1181 30.1113 6.1324L28.9688 6.50629C28.7172 6.58849 28.4885 6.72716 28.3009 6.9113C28.1134 7.09544 27.9721 7.31997 27.8884 7.56707L27.5076 8.68872C27.493 8.72998 27.4657 8.76576 27.4295 8.79109C27.3932 8.81641 27.3499 8.83002 27.3054 8.83002C27.2609 8.83002 27.2175 8.81641 27.1813 8.79109C27.145 8.76576 27.1177 8.72998 27.1032 8.68872L26.7224 7.56707C26.6386 7.31997 26.4974 7.09544 26.3098 6.9113C26.1223 6.72716 25.8936 6.58849 25.6419 6.50629L24.4995 6.1324C24.4575 6.1181 24.421 6.09129 24.3952 6.05571C24.3694 6.02013 24.3556 5.97754 24.3556 5.93387C24.3556 5.8902 24.3694 5.84761 24.3952 5.81203C24.421 5.77645 24.4575 5.74964 24.4995 5.73533L25.6419 5.36145C26.1526 5.1948 26.5526 4.80208 26.7224 4.30067L27.1032 3.18047V3.17902Z" fill="#0876E4"/>
<path d="M28.8634 11.0976C28.8733 11.0691 28.8918 11.0444 28.9163 11.0269C28.9409 11.0094 28.9703 11 29.0005 11C29.0306 11 29.0601 11.0094 29.0846 11.0269C29.1092 11.0444 29.1277 11.0691 29.1376 11.0976L29.3958 11.8722C29.5109 12.2184 29.7821 12.4896 30.1283 12.6047L30.9029 12.8629C30.9314 12.8728 30.9561 12.8913 30.9736 12.9159C30.9911 12.9404 31.0005 12.9698 31.0005 13C31.0005 13.0302 30.9911 13.0596 30.9736 13.0841C30.9561 13.1087 30.9314 13.1272 30.9029 13.1371L30.1283 13.3953C29.9577 13.4521 29.8026 13.5478 29.6755 13.675C29.5483 13.8021 29.4525 13.9572 29.3958 14.1278L29.1376 14.9024C29.1277 14.9309 29.1092 14.9556 29.0846 14.9731C29.0601 14.9906 29.0306 15 29.0005 15C28.9703 15 28.9409 14.9906 28.9163 14.9731C28.8918 14.9556 28.8733 14.9309 28.8634 14.9024L28.6052 14.1278C28.5484 13.9572 28.4527 13.8021 28.3255 13.675C28.1983 13.5478 28.0433 13.4521 27.8726 13.3953L27.0981 13.1371C27.0696 13.1272 27.0449 13.1087 27.0274 13.0841C27.0099 13.0596 27.0005 13.0302 27.0005 13C27.0005 12.9698 27.0099 12.9404 27.0274 12.9159C27.0449 12.8913 27.0696 12.8728 27.0981 12.8629L27.8726 12.6047C28.2189 12.4896 28.4901 12.2184 28.6052 11.8722L28.8634 11.0986V11.0976Z" fill="#0876E4"/>
<g filter="url(#filter0_i_2520_19938)">
<path d="M10.7006 6.43333C10.8503 6.61867 10.942 6.84549 10.9639 7.08449C10.9858 7.32349 10.9368 7.56367 10.8233 7.77401C9.93682 9.43264 9.47386 11.2918 9.47703 13.1805C9.47703 19.4636 14.5034 24.5513 20.6982 24.5513C21.5062 24.5513 22.2928 24.4653 23.0488 24.3013C23.2805 24.2501 23.5219 24.2697 23.7428 24.3575C23.9637 24.4453 24.1543 24.5975 24.2908 24.795C24.4349 25.0004 24.5084 25.2486 24.4998 25.501C24.4912 25.7533 24.401 25.9957 24.2433 26.1904C23.0406 27.6958 21.5235 28.9088 19.8024 29.7408C18.0813 30.5729 16.1998 31.0031 14.2948 31C7.22605 31 1.50049 25.1966 1.50049 18.0463C1.50049 12.6648 4.74201 8.04903 9.35742 6.09269C9.58733 5.99368 9.84256 5.97335 10.0848 6.03478C10.327 6.0962 10.5431 6.23606 10.7006 6.43333Z" fill="#4C75BA" fill-opacity="0.2"/>
</g>
<path d="M9.22703 13.1806C9.2271 19.5987 14.3623 24.8013 20.6982 24.8013C21.524 24.8013 22.3284 24.7134 23.1018 24.5456L23.1027 24.5454C23.2855 24.5051 23.4759 24.5204 23.6504 24.5898C23.825 24.6592 23.9764 24.7798 24.0851 24.9372L24.0862 24.9386C24.1989 25.0993 24.2567 25.294 24.25 25.4924C24.2432 25.6909 24.1723 25.8809 24.049 26.033L24.048 26.0344C22.8684 27.5109 21.3808 28.7001 19.6936 29.5158C18.0065 30.3314 16.1622 30.753 14.2952 30.75H14.2948C7.36711 30.75 1.75049 25.0616 1.75049 18.0463C1.75049 12.7673 4.93005 8.24085 9.45499 6.32287L9.45499 6.32287L9.45631 6.3223C9.63573 6.24503 9.8346 6.22925 10.0233 6.27711C10.2121 6.32498 10.3814 6.43419 10.5053 6.58935L10.5062 6.5904C10.6246 6.73704 10.6975 6.91705 10.7149 7.10727C10.7323 7.2975 10.6933 7.48845 10.6033 7.65532L10.6028 7.65617C9.69685 9.35125 9.22383 11.251 9.22703 13.1806ZM9.22703 13.1806C9.22703 13.1806 9.22703 13.1805 9.22703 13.1805H9.47703L9.22703 13.1809C9.22703 13.1808 9.22703 13.1807 9.22703 13.1806Z" stroke="url(#paint0_linear_2520_19938)" stroke-width="0.5"/>
<path d="M11.8802 12.8934C11.8803 19.0592 16.7961 24.0592 22.8635 24.0592C23.6542 24.0592 24.4245 23.9748 25.1651 23.8135L25.166 23.8133C25.3385 23.7751 25.5183 23.7897 25.6831 23.8554C25.8479 23.9212 25.9911 24.0355 26.094 24.185L26.095 24.1865C26.2016 24.3389 26.2564 24.5239 26.25 24.7124C26.2436 24.901 26.1764 25.0814 26.0599 25.2258L26.0589 25.2271C24.9316 26.6433 23.5098 27.784 21.8975 28.5663C20.2853 29.3486 18.523 29.7529 16.739 29.75H16.7386C10.119 29.75 4.75049 24.2946 4.75049 17.5645C4.75049 12.5002 7.78963 8.15853 12.1137 6.31904L12.1137 6.31904L12.115 6.31847C12.2843 6.24529 12.4719 6.23036 12.6499 6.27566C12.8279 6.32098 12.9879 6.42443 13.105 6.57167L13.1059 6.57273C13.2179 6.71193 13.287 6.88295 13.3035 7.06381C13.32 7.24468 13.283 7.42617 13.1978 7.58469L13.1973 7.58554C12.33 9.21423 11.8772 11.0395 11.8802 12.8934ZM11.8802 12.8934C11.8802 12.8934 11.8802 12.8933 11.8802 12.8933H12.1302L11.8802 12.8937C11.8802 12.8936 11.8802 12.8935 11.8802 12.8934Z" stroke="#0876E4" stroke-width="0.5"/>
<defs>
<filter id="filter0_i_2520_19938" x="-0.499512" y="4" width="25" height="27" filterUnits="userSpaceOnUse" color-interpolation-filters="sRGB">
<feFlood flood-opacity="0" result="BackgroundImageFix"/>
<feBlend mode="normal" in="SourceGraphic" in2="BackgroundImageFix" result="shape"/>
<feColorMatrix in="SourceAlpha" type="matrix" values="0 0 0 0 0 0 0 0 0 0 0 0 0 0 0 0 0 0 127 0" result="hardAlpha"/>
<feOffset dx="-2" dy="-2"/>
<feGaussianBlur stdDeviation="3"/>
<feComposite in2="hardAlpha" operator="arithmetic" k2="-1" k3="1"/>
<feColorMatrix type="matrix" values="0 0 0 0 0.983333 0 0 0 0 0.989394 0 0 0 0 1 0 0 0 0.8 0"/>
<feBlend mode="normal" in2="shape" result="effect1_innerShadow_2520_19938"/>
</filter>
<linearGradient id="paint0_linear_2520_19938" x1="1.50049" y1="6.2381" x2="27.521" y2="27.8537" gradientUnits="userSpaceOnUse">
<stop stop-color="#E9EDF4"/>
<stop offset="1" stop-color="#E8EDF7"/>
</linearGradient>
</defs>
</svg>
