<svg width="80" height="73" viewBox="0 0 80 73" fill="none" xmlns="http://www.w3.org/2000/svg">
<path d="M34.4522 6.71711C37.8807 4.71387 42.1227 4.71387 45.5511 6.71711L62.6639 16.7161C66.0394 18.6884 68.1144 22.3042 68.1144 26.2137V46.5031C68.1144 50.4126 66.0394 54.0284 62.6639 56.0007L45.5511 65.9997C42.1227 68.003 37.8807 68.003 34.4522 65.9997L17.3395 56.0007C13.964 54.0284 11.8889 50.4126 11.8889 46.5031V26.2137C11.8889 22.3042 13.964 18.6884 17.3395 16.7161L34.4522 6.71711Z" stroke="#0876E4" stroke-width="6"/>
<path fill-rule="evenodd" clip-rule="evenodd" d="M40.3704 19.4646C34.4385 19.4646 29.6297 24.233 29.6297 30.115C29.6297 31.1292 30.4588 31.9513 31.4815 31.9513C32.5043 31.9513 33.3334 31.1292 33.3334 30.115C33.3334 26.2613 36.484 23.1372 40.3704 23.1372C44.2569 23.1372 47.4075 26.2613 47.4075 30.115V33.4204H30.7408C28.8999 33.4204 27.4075 34.9002 27.4075 36.7257V46.2743C27.4075 49.3168 29.8948 51.7832 32.963 51.7832H47.7778C50.8461 51.7832 53.3334 49.3168 53.3334 46.2743V36.7257C53.3334 35.2865 52.4058 34.0622 51.1112 33.6084V30.115C51.1112 24.233 46.3024 19.4646 40.3704 19.4646ZM49.2593 37.0929H31.1112V46.2743C31.1112 47.2885 31.9403 48.1106 32.963 48.1106H47.7778C48.8006 48.1106 49.6297 47.2885 49.6297 46.2743V37.0929H49.2593ZM40.3704 41.1327C39.5522 41.1327 38.889 41.7904 38.889 42.6018C38.889 43.4131 39.5522 44.0708 40.3704 44.0708C41.1886 44.0708 41.8519 43.4131 41.8519 42.6018C41.8519 41.7904 41.1886 41.1327 40.3704 41.1327ZM37.4075 42.6018C37.4075 40.9791 38.734 39.6637 40.3704 39.6637C42.0068 39.6637 43.3334 40.9791 43.3334 42.6018C43.3334 44.2244 42.0068 45.5398 40.3704 45.5398C38.734 45.5398 37.4075 44.2244 37.4075 42.6018Z" fill="#0876E4"/>
</svg>
