<svg width="228" height="68" viewBox="0 0 228 68" fill="none" xmlns="http://www.w3.org/2000/svg">
<path d="M20.9654 8.83572C23.4588 7.37882 26.5438 7.37882 29.0373 8.83572L43.3441 17.1952C45.799 18.6296 47.3081 21.2593 47.3081 24.1025V41.0297C47.3081 43.873 45.799 46.5026 43.3441 47.9371L29.0373 56.2966C26.5438 57.7535 23.4588 57.7535 20.9654 56.2966L6.65851 47.9371C4.20358 46.5026 2.69446 43.873 2.69446 41.0297V24.1025C2.69446 21.2593 4.20358 18.6296 6.65851 17.1952L20.9654 8.83572Z" stroke="#0876E4" stroke-width="4"/>
<path fill-rule="evenodd" clip-rule="evenodd" d="M25.2894 19.3672C20.6551 19.3672 16.8982 23.0925 16.8982 27.6878C16.8982 28.4802 17.546 29.1224 18.345 29.1224C19.144 29.1224 19.7917 28.4802 19.7917 27.6878C19.7917 24.6771 22.2531 22.2364 25.2894 22.2364C28.3257 22.2364 30.7871 24.6771 30.7871 27.6878V30.2705H17.7663C16.328 30.2705 15.1621 31.4266 15.1621 32.8528V40.3127C15.1621 42.6896 17.1053 44.6165 19.5024 44.6165H31.0765C33.4735 44.6165 35.4167 42.6896 35.4167 40.3127V32.8528C35.4167 31.7284 34.6921 30.7719 33.6806 30.4174V27.6878C33.6806 23.0925 29.9238 19.3672 25.2894 19.3672ZM18.0556 33.1397V40.3127C18.0556 41.105 18.7034 41.7473 19.5024 41.7473H31.0765C31.8755 41.7473 32.5232 41.105 32.5232 40.3127V33.1397H18.0556ZM25.2894 36.2951C24.6502 36.2951 24.132 36.809 24.132 37.4428C24.132 38.0767 24.6502 38.5905 25.2894 38.5905C25.9286 38.5905 26.4468 38.0767 26.4468 37.4428C26.4468 36.809 25.9286 36.2951 25.2894 36.2951ZM22.9746 37.4428C22.9746 36.1751 24.011 35.1475 25.2894 35.1475C26.5679 35.1475 27.6042 36.1751 27.6042 37.4428C27.6042 38.7105 26.5679 39.7382 25.2894 39.7382C24.011 39.7382 22.9746 38.7105 22.9746 37.4428Z" fill="#0876E4"/>
<path d="M67.52 26.1611C69.3067 26.1611 70.7067 26.5878 71.72 27.4411C72.7333 28.2945 73.24 29.4678 73.24 30.9611C73.24 32.4545 72.7333 33.6278 71.72 34.4811C70.7067 35.3211 69.3067 35.7411 67.52 35.7411H63.76V40.1611H62.28V26.1611H67.52ZM67.48 34.4411C68.8667 34.4411 69.9267 34.1411 70.66 33.5411C71.3933 32.9278 71.76 32.0678 71.76 30.9611C71.76 29.8278 71.3933 28.9611 70.66 28.3611C69.9267 27.7478 68.8667 27.4411 67.48 27.4411H63.76V34.4411H67.48ZM85.6816 29.6411V40.1611H84.3216V38.0811C83.8949 38.7878 83.3282 39.3278 82.6216 39.7011C81.9282 40.0745 81.1416 40.2611 80.2616 40.2611C79.2749 40.2611 78.3816 40.0345 77.5816 39.5811C76.7816 39.1278 76.1549 38.4945 75.7016 37.6811C75.2482 36.8678 75.0216 35.9411 75.0216 34.9011C75.0216 33.8611 75.2482 32.9345 75.7016 32.1211C76.1549 31.3078 76.7816 30.6811 77.5816 30.2411C78.3816 29.7878 79.2749 29.5611 80.2616 29.5611C81.1149 29.5611 81.8816 29.7411 82.5616 30.1011C83.2549 30.4478 83.8216 30.9611 84.2616 31.6411V29.6411H85.6816ZM80.3816 39.0011C81.1149 39.0011 81.7749 38.8345 82.3616 38.5011C82.9616 38.1545 83.4282 37.6678 83.7616 37.0411C84.1082 36.4145 84.2816 35.7011 84.2816 34.9011C84.2816 34.1011 84.1082 33.3878 83.7616 32.7611C83.4282 32.1345 82.9616 31.6545 82.3616 31.3211C81.7749 30.9745 81.1149 30.8011 80.3816 30.8011C79.6349 30.8011 78.9616 30.9745 78.3616 31.3211C77.7749 31.6545 77.3082 32.1345 76.9616 32.7611C76.6282 33.3878 76.4616 34.1011 76.4616 34.9011C76.4616 35.7011 76.6282 36.4145 76.9616 37.0411C77.3082 37.6678 77.7749 38.1545 78.3616 38.5011C78.9616 38.8345 79.6349 39.0011 80.3816 39.0011ZM90.9963 31.7011C91.3296 30.9945 91.8229 30.4611 92.4763 30.1011C93.1429 29.7411 93.9629 29.5611 94.9363 29.5611V30.9411L94.5963 30.9211C93.4896 30.9211 92.6229 31.2611 91.9963 31.9411C91.3696 32.6211 91.0563 33.5745 91.0563 34.8011V40.1611H89.6363V29.6411H90.9963V31.7011ZM101.91 39.0011C102.563 39.0011 103.163 38.8878 103.71 38.6611C104.27 38.4211 104.743 38.0745 105.13 37.6211L105.93 38.5411C105.463 39.1011 104.883 39.5278 104.19 39.8211C103.496 40.1145 102.73 40.2611 101.89 40.2611C100.81 40.2611 99.8497 40.0345 99.0097 39.5811C98.1697 39.1145 97.5164 38.4745 97.0497 37.6611C96.583 36.8478 96.3497 35.9278 96.3497 34.9011C96.3497 33.8745 96.5697 32.9545 97.0097 32.1411C97.463 31.3278 98.083 30.6945 98.8697 30.2411C99.6564 29.7878 100.55 29.5611 101.55 29.5611C102.483 29.5611 103.323 29.7745 104.07 30.2011C104.83 30.6278 105.43 31.2211 105.87 31.9811C106.323 32.7411 106.563 33.6078 106.59 34.5811L97.9497 36.2611C98.2164 37.1145 98.6964 37.7878 99.3897 38.2811C100.096 38.7611 100.936 39.0011 101.91 39.0011ZM101.55 30.7811C100.816 30.7811 100.156 30.9545 99.5697 31.3011C98.9964 31.6345 98.543 32.1078 98.2097 32.7211C97.8897 33.3211 97.7297 34.0145 97.7297 34.8011C97.7297 35.0011 97.7364 35.1478 97.7497 35.2411L105.17 33.8011C105.01 32.9211 104.603 32.2011 103.95 31.6411C103.296 31.0678 102.496 30.7811 101.55 30.7811ZM114.84 29.5611C116.16 29.5611 117.207 29.9478 117.98 30.7211C118.767 31.4811 119.16 32.5945 119.16 34.0611V40.1611H117.74V34.2011C117.74 33.1078 117.467 32.2745 116.92 31.7011C116.373 31.1278 115.593 30.8411 114.58 30.8411C113.447 30.8411 112.547 31.1811 111.88 31.8611C111.227 32.5278 110.9 33.4545 110.9 34.6411V40.1611H109.48V29.6411H110.84V31.5811C111.227 30.9411 111.76 30.4478 112.44 30.1011C113.133 29.7411 113.933 29.5611 114.84 29.5611ZM128.195 39.5211C127.928 39.7611 127.602 39.9478 127.215 40.0811C126.828 40.2011 126.422 40.2611 125.995 40.2611C125.008 40.2611 124.248 39.9945 123.715 39.4611C123.182 38.9278 122.915 38.1745 122.915 37.2011V27.3411H124.335V29.6411H127.515V30.8411H124.335V37.1211C124.335 37.7478 124.488 38.2278 124.795 38.5611C125.102 38.8811 125.548 39.0411 126.135 39.0411C126.775 39.0411 127.295 38.8611 127.695 38.5011L128.195 39.5211ZM139.998 29.6411V40.1611H138.638V38.0811C138.211 38.7878 137.645 39.3278 136.938 39.7011C136.245 40.0745 135.458 40.2611 134.578 40.2611C133.591 40.2611 132.698 40.0345 131.898 39.5811C131.098 39.1278 130.471 38.4945 130.018 37.6811C129.565 36.8678 129.338 35.9411 129.338 34.9011C129.338 33.8611 129.565 32.9345 130.018 32.1211C130.471 31.3078 131.098 30.6811 131.898 30.2411C132.698 29.7878 133.591 29.5611 134.578 29.5611C135.431 29.5611 136.198 29.7411 136.878 30.1011C137.571 30.4478 138.138 30.9611 138.578 31.6411V29.6411H139.998ZM134.698 39.0011C135.431 39.0011 136.091 38.8345 136.678 38.5011C137.278 38.1545 137.745 37.6678 138.078 37.0411C138.425 36.4145 138.598 35.7011 138.598 34.9011C138.598 34.1011 138.425 33.3878 138.078 32.7611C137.745 32.1345 137.278 31.6545 136.678 31.3211C136.091 30.9745 135.431 30.8011 134.698 30.8011C133.951 30.8011 133.278 30.9745 132.678 31.3211C132.091 31.6545 131.625 32.1345 131.278 32.7611C130.945 33.3878 130.778 34.1011 130.778 34.9011C130.778 35.7011 130.945 36.4145 131.278 37.0411C131.625 37.6678 132.091 38.1545 132.678 38.5011C133.278 38.8345 133.951 39.0011 134.698 39.0011ZM146.913 40.2611C145.966 40.2611 145.233 39.9945 144.713 39.4611C144.206 38.9278 143.953 38.1878 143.953 37.2411V25.3211H145.373V37.1211C145.373 37.7478 145.519 38.2278 145.813 38.5611C146.106 38.8811 146.546 39.0411 147.133 39.0411C147.506 39.0411 147.826 38.9811 148.093 38.8611L148.193 40.0411C147.779 40.1878 147.353 40.2611 146.913 40.2611ZM161.739 40.2811C160.352 40.2811 159.099 39.9745 157.979 39.3611C156.872 38.7478 155.999 37.9011 155.359 36.8211C154.732 35.7278 154.419 34.5078 154.419 33.1611C154.419 31.8145 154.732 30.6011 155.359 29.5211C155.999 28.4278 156.879 27.5745 157.999 26.9611C159.119 26.3478 160.372 26.0411 161.759 26.0411C162.799 26.0411 163.759 26.2145 164.639 26.5611C165.519 26.9078 166.266 27.4145 166.879 28.0811L165.939 29.0211C164.846 27.9145 163.466 27.3611 161.799 27.3611C160.692 27.3611 159.686 27.6145 158.779 28.1211C157.872 28.6278 157.159 29.3211 156.639 30.2011C156.132 31.0811 155.879 32.0678 155.879 33.1611C155.879 34.2545 156.132 35.2411 156.639 36.1211C157.159 37.0011 157.872 37.6945 158.779 38.2011C159.686 38.7078 160.692 38.9611 161.799 38.9611C163.479 38.9611 164.859 38.4011 165.939 37.2811L166.879 38.2211C166.266 38.8878 165.512 39.4011 164.619 39.7611C163.739 40.1078 162.779 40.2811 161.739 40.2811ZM173.565 40.2611C172.552 40.2611 171.638 40.0345 170.825 39.5811C170.012 39.1145 169.372 38.4745 168.905 37.6611C168.438 36.8478 168.205 35.9278 168.205 34.9011C168.205 33.8745 168.438 32.9545 168.905 32.1411C169.372 31.3278 170.012 30.6945 170.825 30.2411C171.638 29.7878 172.552 29.5611 173.565 29.5611C174.578 29.5611 175.492 29.7878 176.305 30.2411C177.118 30.6945 177.752 31.3278 178.205 32.1411C178.672 32.9545 178.905 33.8745 178.905 34.9011C178.905 35.9278 178.672 36.8478 178.205 37.6611C177.752 38.4745 177.118 39.1145 176.305 39.5811C175.492 40.0345 174.578 40.2611 173.565 40.2611ZM173.565 39.0011C174.312 39.0011 174.978 38.8345 175.565 38.5011C176.165 38.1545 176.632 37.6678 176.965 37.0411C177.298 36.4145 177.465 35.7011 177.465 34.9011C177.465 34.1011 177.298 33.3878 176.965 32.7611C176.632 32.1345 176.165 31.6545 175.565 31.3211C174.978 30.9745 174.312 30.8011 173.565 30.8011C172.818 30.8011 172.145 30.9745 171.545 31.3211C170.958 31.6545 170.492 32.1345 170.145 32.7611C169.812 33.3878 169.645 34.1011 169.645 34.9011C169.645 35.7011 169.812 36.4145 170.145 37.0411C170.492 37.6678 170.958 38.1545 171.545 38.5011C172.145 38.8345 172.818 39.0011 173.565 39.0011ZM187.164 29.5611C188.484 29.5611 189.531 29.9478 190.304 30.7211C191.091 31.4811 191.484 32.5945 191.484 34.0611V40.1611H190.064V34.2011C190.064 33.1078 189.791 32.2745 189.244 31.7011C188.698 31.1278 187.918 30.8411 186.904 30.8411C185.771 30.8411 184.871 31.1811 184.204 31.8611C183.551 32.5278 183.224 33.4545 183.224 34.6411V40.1611H181.804V29.6411H183.164V31.5811C183.551 30.9411 184.084 30.4478 184.764 30.1011C185.458 29.7411 186.258 29.5611 187.164 29.5611ZM200.519 39.5211C200.253 39.7611 199.926 39.9478 199.539 40.0811C199.153 40.2011 198.746 40.2611 198.319 40.2611C197.333 40.2611 196.573 39.9945 196.039 39.4611C195.506 38.9278 195.239 38.1745 195.239 37.2011V27.3411H196.659V29.6411H199.839V30.8411H196.659V37.1211C196.659 37.7478 196.813 38.2278 197.119 38.5611C197.426 38.8811 197.873 39.0411 198.459 39.0411C199.099 39.0411 199.619 38.8611 200.019 38.5011L200.519 39.5211ZM204.453 31.7011C204.787 30.9945 205.28 30.4611 205.933 30.1011C206.6 29.7411 207.42 29.5611 208.393 29.5611V30.9411L208.053 30.9211C206.947 30.9211 206.08 31.2611 205.453 31.9411C204.827 32.6211 204.513 33.5745 204.513 34.8011V40.1611H203.093V29.6411H204.453V31.7011ZM215.167 40.2611C214.153 40.2611 213.24 40.0345 212.427 39.5811C211.613 39.1145 210.973 38.4745 210.507 37.6611C210.04 36.8478 209.807 35.9278 209.807 34.9011C209.807 33.8745 210.04 32.9545 210.507 32.1411C210.973 31.3278 211.613 30.6945 212.427 30.2411C213.24 29.7878 214.153 29.5611 215.167 29.5611C216.18 29.5611 217.093 29.7878 217.907 30.2411C218.72 30.6945 219.353 31.3278 219.807 32.1411C220.273 32.9545 220.507 33.8745 220.507 34.9011C220.507 35.9278 220.273 36.8478 219.807 37.6611C219.353 38.4745 218.72 39.1145 217.907 39.5811C217.093 40.0345 216.18 40.2611 215.167 40.2611ZM215.167 39.0011C215.913 39.0011 216.58 38.8345 217.167 38.5011C217.767 38.1545 218.233 37.6678 218.567 37.0411C218.9 36.4145 219.067 35.7011 219.067 34.9011C219.067 34.1011 218.9 33.3878 218.567 32.7611C218.233 32.1345 217.767 31.6545 217.167 31.3211C216.58 30.9745 215.913 30.8011 215.167 30.8011C214.42 30.8011 213.747 30.9745 213.147 31.3211C212.56 31.6545 212.093 32.1345 211.747 32.7611C211.413 33.3878 211.247 34.1011 211.247 34.9011C211.247 35.7011 211.413 36.4145 211.747 37.0411C212.093 37.6678 212.56 38.1545 213.147 38.5011C213.747 38.8345 214.42 39.0011 215.167 39.0011ZM226.366 40.2611C225.419 40.2611 224.686 39.9945 224.166 39.4611C223.659 38.9278 223.406 38.1878 223.406 37.2411V25.3211H224.826V37.1211C224.826 37.7478 224.972 38.2278 225.266 38.5611C225.559 38.8811 225.999 39.0411 226.586 39.0411C226.959 39.0411 227.279 38.9811 227.546 38.8611L227.646 40.0411C227.232 40.1878 226.806 40.2611 226.366 40.2611Z" fill="#0F1622"/>
</svg>
