<svg width="183" height="70" viewBox="0 0 183 70" fill="none" xmlns="http://www.w3.org/2000/svg">
<path d="M25.9478 2.53731C29.6879 0.351956 34.3155 0.351957 38.0556 2.53731L57.1684 13.7049C60.8508 15.8565 63.1144 19.801 63.1144 24.0659V46.6509C63.1144 50.9158 60.8508 54.8603 57.1684 57.0119L38.0556 68.1795C34.3155 70.3649 29.6879 70.3649 25.9478 68.1795L6.83499 57.0119C3.15259 54.8603 0.888916 50.9158 0.888916 46.6509V24.0659C0.888916 19.801 3.1526 15.8565 6.83499 13.7049L25.9478 2.53731Z" fill="#0876E4"/>
<path d="M27.9348 10.7206C30.4429 9.24082 33.5571 9.24082 36.0652 10.7206L51.0652 19.5706C53.5036 21.0093 55 23.6296 55 26.4608V44.5392C55 47.3704 53.5036 49.9907 51.0652 51.4294L36.0652 60.2794C33.5571 61.7592 30.4429 61.7592 27.9348 60.2794L12.9348 51.4294C10.4964 49.9907 9 47.3704 9 44.5392V26.4608C9 23.6296 10.4964 21.0093 12.9348 19.5706L27.9348 10.7206Z" stroke="white" stroke-width="4"/>
<path fill-rule="evenodd" clip-rule="evenodd" d="M32.3871 21.9309C27.7847 21.9309 24.0537 25.6619 24.0537 30.2642C24.0537 31.0578 24.697 31.701 25.4905 31.701C26.284 31.701 26.9273 31.0578 26.9273 30.2642C26.9273 27.2489 29.3717 24.8045 32.3871 24.8045C35.4024 24.8045 37.8468 27.2489 37.8468 30.2642V32.8504H24.9158C23.4875 32.8504 22.3296 34.0083 22.3296 35.4367V42.9079C22.3296 45.2885 24.2594 47.2183 26.6399 47.2183H38.1342C40.5147 47.2183 42.4445 45.2885 42.4445 42.9079V35.4367C42.4445 34.3106 41.7249 33.3526 40.7204 32.9976V30.2642C40.7204 25.6619 36.9894 21.9309 32.3871 21.9309ZM39.2853 35.724C39.2847 35.724 39.2842 35.724 39.2836 35.724C39.2831 35.724 39.2825 35.724 39.2819 35.724H25.2032V42.9079C25.2032 43.7014 25.8464 44.3447 26.6399 44.3447H38.1342C38.9277 44.3447 39.571 43.7014 39.571 42.9079V35.724H39.2853ZM32.3871 38.8849C31.7523 38.8849 31.2376 39.3995 31.2376 40.0344C31.2376 40.6692 31.7523 41.1838 32.3871 41.1838C33.0219 41.1838 33.5365 40.6692 33.5365 40.0344C33.5365 39.3995 33.0219 38.8849 32.3871 38.8849ZM30.0882 40.0344C30.0882 38.7647 31.1174 37.7355 32.3871 37.7355C33.6567 37.7355 34.6859 38.7647 34.6859 40.0344C34.6859 41.304 33.6567 42.3332 32.3871 42.3332C31.1174 42.3332 30.0882 41.304 30.0882 40.0344Z" fill="white"/>
<path d="M94.592 35.472L90.016 40.112V46H87.648V23.6H90.016V37.136L103.168 23.6H105.888L96.192 33.744L106.56 46H103.744L94.592 35.472ZM111.782 32.464C112.315 31.3333 113.104 30.48 114.15 29.904C115.216 29.328 116.528 29.04 118.086 29.04V31.248L117.542 31.216C115.771 31.216 114.384 31.76 113.382 32.848C112.379 33.936 111.878 35.4613 111.878 37.424V46H109.606V29.168H111.782V32.464ZM128.923 46.16C127.302 46.16 125.84 45.7973 124.539 45.072C123.238 44.3253 122.214 43.3013 121.467 42C120.72 40.6987 120.347 39.2267 120.347 37.584C120.347 35.9413 120.72 34.4693 121.467 33.168C122.214 31.8667 123.238 30.8533 124.539 30.128C125.84 29.4027 127.302 29.04 128.923 29.04C130.544 29.04 132.006 29.4027 133.307 30.128C134.608 30.8533 135.622 31.8667 136.347 33.168C137.094 34.4693 137.467 35.9413 137.467 37.584C137.467 39.2267 137.094 40.6987 136.347 42C135.622 43.3013 134.608 44.3253 133.307 45.072C132.006 45.7973 130.544 46.16 128.923 46.16ZM128.923 44.144C130.118 44.144 131.184 43.8773 132.123 43.344C133.083 42.7893 133.83 42.0107 134.363 41.008C134.896 40.0053 135.163 38.864 135.163 37.584C135.163 36.304 134.896 35.1627 134.363 34.16C133.83 33.1573 133.083 32.3893 132.123 31.856C131.184 31.3013 130.118 31.024 128.923 31.024C127.728 31.024 126.651 31.3013 125.691 31.856C124.752 32.3893 124.006 33.1573 123.451 34.16C122.918 35.1627 122.651 36.304 122.651 37.584C122.651 38.864 122.918 40.0053 123.451 41.008C124.006 42.0107 124.752 42.7893 125.691 43.344C126.651 43.8773 127.728 44.144 128.923 44.144ZM150.682 29.04C152.794 29.04 154.468 29.6587 155.706 30.896C156.964 32.112 157.594 33.8933 157.594 36.24V46H155.322V36.464C155.322 34.7147 154.884 33.3813 154.01 32.464C153.135 31.5467 151.887 31.088 150.266 31.088C148.452 31.088 147.012 31.632 145.946 32.72C144.9 33.7867 144.378 35.2693 144.378 37.168V46H142.106V22.256H144.378V32.112C144.996 31.1307 145.85 30.3733 146.938 29.84C148.026 29.3067 149.274 29.04 150.682 29.04ZM179.184 29.168V46H177.008V42.672C176.326 43.8027 175.419 44.6667 174.288 45.264C173.179 45.8613 171.92 46.16 170.512 46.16C168.934 46.16 167.504 45.7973 166.224 45.072C164.944 44.3467 163.942 43.3333 163.216 42.032C162.491 40.7307 162.128 39.248 162.128 37.584C162.128 35.92 162.491 34.4373 163.216 33.136C163.942 31.8347 164.944 30.832 166.224 30.128C167.504 29.4027 168.934 29.04 170.512 29.04C171.878 29.04 173.104 29.328 174.192 29.904C175.302 30.4587 176.208 31.28 176.912 32.368V29.168H179.184ZM170.704 44.144C171.878 44.144 172.934 43.8773 173.872 43.344C174.832 42.7893 175.579 42.0107 176.112 41.008C176.667 40.0053 176.944 38.864 176.944 37.584C176.944 36.304 176.667 35.1627 176.112 34.16C175.579 33.1573 174.832 32.3893 173.872 31.856C172.934 31.3013 171.878 31.024 170.704 31.024C169.51 31.024 168.432 31.3013 167.472 31.856C166.534 32.3893 165.787 33.1573 165.232 34.16C164.699 35.1627 164.432 36.304 164.432 37.584C164.432 38.864 164.699 40.0053 165.232 41.008C165.787 42.0107 166.534 42.7893 167.472 43.344C168.432 43.8773 169.51 44.144 170.704 44.144Z" fill="#434A57"/>
</svg>
