<svg width="375" height="30" viewBox="0 0 375 30" fill="none" xmlns="http://www.w3.org/2000/svg">
<path d="M330.093 9.99219V20H328.828V11.5713L326.278 12.501V11.3594L329.895 9.99219H330.093ZM337.968 9.99219V20H336.703V11.5713L334.153 12.501V11.3594L337.77 9.99219H337.968ZM341.769 19.3301C341.769 19.1159 341.835 18.9359 341.967 18.79C342.104 18.6396 342.299 18.5645 342.555 18.5645C342.81 18.5645 343.004 18.6396 343.136 18.79C343.272 18.9359 343.341 19.1159 343.341 19.3301C343.341 19.5397 343.272 19.7174 343.136 19.8633C343.004 20.0091 342.81 20.082 342.555 20.082C342.299 20.082 342.104 20.0091 341.967 19.8633C341.835 19.7174 341.769 19.5397 341.769 19.3301ZM341.775 13.2939C341.775 13.0798 341.841 12.8997 341.974 12.7539C342.11 12.6035 342.306 12.5283 342.562 12.5283C342.817 12.5283 343.01 12.6035 343.143 12.7539C343.279 12.8997 343.348 13.0798 343.348 13.2939C343.348 13.5036 343.279 13.6813 343.143 13.8271C343.01 13.973 342.817 14.0459 342.562 14.0459C342.306 14.0459 342.11 13.973 341.974 13.8271C341.841 13.6813 341.775 13.5036 341.775 13.2939ZM349.233 9.99219V20H347.969V11.5713L345.419 12.501V11.3594L349.035 9.99219H349.233ZM357.108 9.99219V20H355.844V11.5713L353.294 12.501V11.3594L356.91 9.99219H357.108Z" fill="#838993"/>
<path d="M17.3379 9.5V20H16.0664V9.5H17.3379ZM20.7422 12.6035V20H19.4707V12.6035H20.7422ZM19.375 10.6416C19.375 10.4365 19.4365 10.2633 19.5596 10.1221C19.6872 9.98079 19.874 9.91016 20.1201 9.91016C20.3617 9.91016 20.5462 9.98079 20.6738 10.1221C20.806 10.2633 20.8721 10.4365 20.8721 10.6416C20.8721 10.8376 20.806 11.0062 20.6738 11.1475C20.5462 11.2842 20.3617 11.3525 20.1201 11.3525C19.874 11.3525 19.6872 11.2842 19.5596 11.1475C19.4365 11.0062 19.375 10.8376 19.375 10.6416ZM24.6592 20H23.3945V11.8242C23.3945 11.291 23.4902 10.8421 23.6816 10.4775C23.8776 10.1084 24.1579 9.8304 24.5225 9.64355C24.887 9.45215 25.32 9.35645 25.8213 9.35645C25.9671 9.35645 26.113 9.36556 26.2588 9.38379C26.4092 9.40202 26.555 9.42936 26.6963 9.46582L26.6279 10.498C26.5322 10.4753 26.4229 10.4593 26.2998 10.4502C26.1813 10.4411 26.0628 10.4365 25.9443 10.4365C25.6755 10.4365 25.443 10.4912 25.2471 10.6006C25.0557 10.7054 24.9098 10.8604 24.8096 11.0654C24.7093 11.2705 24.6592 11.5234 24.6592 11.8242V20ZM26.2314 12.6035V13.5742H22.2256V12.6035H26.2314ZM30.5449 20.1367C30.0299 20.1367 29.5628 20.0501 29.1436 19.877C28.7288 19.6992 28.3711 19.4508 28.0703 19.1318C27.7741 18.8128 27.5462 18.4346 27.3867 17.9971C27.2272 17.5596 27.1475 17.0811 27.1475 16.5615V16.2744C27.1475 15.6729 27.2363 15.1374 27.4141 14.668C27.5918 14.194 27.8333 13.793 28.1387 13.4648C28.444 13.1367 28.7904 12.8883 29.1777 12.7197C29.5651 12.5511 29.9661 12.4668 30.3809 12.4668C30.9095 12.4668 31.3652 12.5579 31.748 12.7402C32.1354 12.9225 32.4521 13.1777 32.6982 13.5059C32.9443 13.8294 33.1266 14.2122 33.2451 14.6543C33.3636 15.0918 33.4229 15.5703 33.4229 16.0898V16.6572H27.8994V15.625H32.1582V15.5293C32.14 15.2012 32.0716 14.8822 31.9531 14.5723C31.8392 14.2624 31.6569 14.0072 31.4062 13.8066C31.1556 13.6061 30.8138 13.5059 30.3809 13.5059C30.0938 13.5059 29.8294 13.5674 29.5879 13.6904C29.3464 13.8089 29.139 13.9867 28.9658 14.2236C28.7926 14.4606 28.6582 14.75 28.5625 15.0918C28.4668 15.4336 28.4189 15.8278 28.4189 16.2744V16.5615C28.4189 16.9124 28.4668 17.2428 28.5625 17.5527C28.6628 17.8581 28.8063 18.127 28.9932 18.3594C29.1846 18.5918 29.4147 18.7741 29.6836 18.9062C29.957 19.0384 30.2669 19.1045 30.6133 19.1045C31.0599 19.1045 31.4382 19.0133 31.748 18.8311C32.0579 18.6488 32.3291 18.4049 32.5615 18.0996L33.3271 18.708C33.1676 18.9495 32.9648 19.1797 32.7188 19.3984C32.4727 19.6172 32.1696 19.7949 31.8096 19.9316C31.4541 20.0684 31.0326 20.1367 30.5449 20.1367ZM37.8594 19.0977C38.1602 19.0977 38.4382 19.0361 38.6934 18.9131C38.9486 18.79 39.1582 18.6214 39.3223 18.4072C39.4863 18.1885 39.5798 17.9401 39.6025 17.6621H40.8057C40.7829 18.0996 40.6348 18.5075 40.3613 18.8857C40.0924 19.2594 39.7393 19.5625 39.3018 19.7949C38.8643 20.0228 38.3835 20.1367 37.8594 20.1367C37.3034 20.1367 36.818 20.0387 36.4033 19.8428C35.9932 19.6468 35.6514 19.3779 35.3779 19.0361C35.109 18.6943 34.9062 18.3024 34.7695 17.8604C34.6374 17.4137 34.5713 16.9421 34.5713 16.4453V16.1582C34.5713 15.6615 34.6374 15.1921 34.7695 14.75C34.9062 14.3034 35.109 13.9092 35.3779 13.5674C35.6514 13.2256 35.9932 12.9567 36.4033 12.7607C36.818 12.5648 37.3034 12.4668 37.8594 12.4668C38.4382 12.4668 38.944 12.5853 39.377 12.8223C39.8099 13.0547 40.1494 13.3737 40.3955 13.7793C40.6462 14.1803 40.7829 14.6361 40.8057 15.1465H39.6025C39.5798 14.8411 39.4932 14.5654 39.3428 14.3193C39.1969 14.0732 38.9964 13.8773 38.7412 13.7314C38.4906 13.5811 38.1966 13.5059 37.8594 13.5059C37.472 13.5059 37.1462 13.5833 36.8818 13.7383C36.6221 13.8887 36.4147 14.0938 36.2598 14.3535C36.1094 14.6087 36 14.8936 35.9316 15.208C35.8678 15.5179 35.8359 15.8346 35.8359 16.1582V16.4453C35.8359 16.7689 35.8678 17.0879 35.9316 17.4023C35.9954 17.7168 36.1025 18.0016 36.2529 18.2568C36.4079 18.512 36.6152 18.7171 36.875 18.8721C37.1393 19.0225 37.4674 19.0977 37.8594 19.0977ZM45.2969 20.1367C44.7819 20.1367 44.3148 20.0501 43.8955 19.877C43.4808 19.6992 43.123 19.4508 42.8223 19.1318C42.526 18.8128 42.2982 18.4346 42.1387 17.9971C41.9792 17.5596 41.8994 17.0811 41.8994 16.5615V16.2744C41.8994 15.6729 41.9883 15.1374 42.166 14.668C42.3438 14.194 42.5853 13.793 42.8906 13.4648C43.196 13.1367 43.5423 12.8883 43.9297 12.7197C44.3171 12.5511 44.7181 12.4668 45.1328 12.4668C45.6615 12.4668 46.1172 12.5579 46.5 12.7402C46.8874 12.9225 47.2041 13.1777 47.4502 13.5059C47.6963 13.8294 47.8786 14.2122 47.9971 14.6543C48.1156 15.0918 48.1748 15.5703 48.1748 16.0898V16.6572H42.6514V15.625H46.9102V15.5293C46.8919 15.2012 46.8236 14.8822 46.7051 14.5723C46.5911 14.2624 46.4089 14.0072 46.1582 13.8066C45.9076 13.6061 45.5658 13.5059 45.1328 13.5059C44.8457 13.5059 44.5814 13.5674 44.3398 13.6904C44.0983 13.8089 43.891 13.9867 43.7178 14.2236C43.5446 14.4606 43.4102 14.75 43.3145 15.0918C43.2188 15.4336 43.1709 15.8278 43.1709 16.2744V16.5615C43.1709 16.9124 43.2188 17.2428 43.3145 17.5527C43.4147 17.8581 43.5583 18.127 43.7451 18.3594C43.9365 18.5918 44.1667 18.7741 44.4355 18.9062C44.709 19.0384 45.0189 19.1045 45.3652 19.1045C45.8118 19.1045 46.1901 19.0133 46.5 18.8311C46.8099 18.6488 47.0811 18.4049 47.3135 18.0996L48.0791 18.708C47.9196 18.9495 47.7168 19.1797 47.4707 19.3984C47.2246 19.6172 46.9215 19.7949 46.5615 19.9316C46.2061 20.0684 45.7845 20.1367 45.2969 20.1367ZM51.0254 9.5V20H49.7539V9.5H51.0254ZM54.4297 9.5V20H53.1582V9.5H54.4297Z" fill="#838993"/>
<path d="M263 22.1016L254.281 11.2383C257.117 9.24609 260.023 8.25 263 8.25C265.977 8.25 268.883 9.24609 271.719 11.2383L263 22.1016Z" fill="#838993"/>
<path d="M278.512 22.4883L293.488 7.51172V22.4883H278.512Z" fill="#838993"/>
<path d="M311.742 8.98828C312.023 8.98828 312.258 9.09375 312.445 9.30469C312.656 9.49219 312.762 9.72656 312.762 10.0078V21.5039C312.762 21.7852 312.656 22.0195 312.445 22.207C312.258 22.3945 312.023 22.4883 311.742 22.4883H306.258C305.977 22.4883 305.73 22.3945 305.52 22.207C305.332 22.0195 305.238 21.7852 305.238 21.5039V10.0078C305.238 9.72656 305.332 9.49219 305.52 9.30469C305.73 9.09375 305.977 8.98828 306.258 8.98828H307.488V7.51172H310.512V8.98828H311.742Z" fill="#838993"/>
</svg>
