<svg width="3302" height="3302" viewBox="0 0 3302 3302" fill="none" xmlns="http://www.w3.org/2000/svg">
<path opacity="0.8" d="M1847.5 2055.92C1822.27 2068.13 1795.54 2078.15 1767.47 2085.67C1527.41 2149.99 1280.66 2007.53 1216.33 1767.47C1152.01 1527.41 1294.47 1280.66 1534.53 1216.33C1774.59 1152.01 2021.34 1294.47 2085.67 1534.53C2101.48 1593.56 2104.8 1652.99 2097.23 1710.02M1920.93 2011.21C1983.09 1964.59 2031.64 1902.86 2062.61 1832.91" stroke="#053D75"/>
<path opacity="0.6" d="M2142.75 1994.87C2210.97 1897.49 2251 1778.92 2251 1651C2251 1319.63 1982.37 1051 1651 1051C1319.63 1051 1051 1319.63 1051 1651C1051 1982.37 1319.63 2251 1651 2251C1700.28 2251 1748.17 2245.06 1794 2233.85M2139.5 1999.46C2125.25 2019.39 2109.82 2038.42 2093.3 2056.43M2038.31 2109.26C1992.71 2147.85 1941.27 2179.74 1885.5 2203.44" stroke="#053D75"/>
<path opacity="0.4" d="M2146.35 2214.15C2091.84 2262.14 2030.31 2302.33 1963.5 2332.99M2272 2071.5C2328.88 1988.02 2368.59 1893.76 2388 1790.77M2388.97 1785.5C2396.87 1741.86 2401 1696.91 2401 1651C2401 1236.79 2065.21 901 1651 901C1236.79 901 901 1236.79 901 1651C901 2065.21 1236.79 2401 1651 2401C1696.91 2401 1741.86 2396.87 1785.5 2388.97" stroke="#053D75"/>
<path opacity="0.3" d="M2521.39 1880.83C2511.21 1919.5 2498.52 1957.14 2483.5 1993.59M2525.77 1863.5C2542.26 1795.37 2551 1724.2 2551 1651C2551 1153.94 2148.06 751 1651 751C1153.94 751 751 1153.94 751 1651C751 2148.06 1153.94 2551 1651 2551C1787.28 2551 1916.48 2520.71 2032.24 2466.5M2481.41 1998.62C2460.65 2048.15 2435.59 2095.43 2406.69 2140M2247.09 2325.32C2282.09 2294.34 2314.67 2260.69 2344.5 2224.67M2243 2328.91C2204.87 2362.24 2163.9 2392.4 2120.5 2418.98" stroke="#053D75"/>
<path opacity="0.2" d="M2477.12 1002.83C2617.36 1181.33 2701 1406.4 2701 1651C2701 2230.9 2230.9 2701 1651 2701C1071.1 2701 601 2230.9 601 1651C601 1071.1 1071.1 601 1651 601C1944.73 601 2210.28 721.607 2400.85 916" stroke="#053D75"/>
<path opacity="0.1" d="M1930.5 483.722C2458.44 609.67 2851 1084.49 2851 1651C2851 2313.74 2313.74 2851 1651 2851C988.258 2851 451 2313.74 451 1651C451 988.258 988.258 451 1651 451C1745.38 451 1837.22 461.896 1925.33 482.5" stroke="#053D75"/>
<path opacity="0.1" d="M2392.97 523C2180.06 382.67 1925.07 301 1651 301C905.416 301 301 905.416 301 1651C301 2396.58 905.416 3001 1651 3001C2396.58 3001 3001 2396.58 3001 1651C3001 1181.48 2761.31 767.937 2397.61 526.07" stroke="#053D75"/>
<path opacity="0.1" d="M2196.37 253.224C2755.15 471.403 3151 1014.97 3151 1651C3151 2479.43 2479.43 3151 1651 3151C822.573 3151 151 2479.43 151 1651C151 822.573 822.573 151 1651 151C1841.47 151 2023.65 186.501 2191.28 251.247" stroke="#053D75"/>
<circle opacity="0.1" cx="1651" cy="1651" r="1650" transform="rotate(90 1651 1651)" stroke="#053D75"/>
</svg>
