<svg width="3498" height="3397" viewBox="0 0 3498 3397" fill="none" xmlns="http://www.w3.org/2000/svg">
<g opacity="0.1" filter="url(#filter0_f_3067_7522)">
<path d="M658.5 2025C911.723 2025 1117 1819.72 1117 1566.5C1117 1313.28 911.723 1108 658.5 1108C405.277 1108 200 1313.28 200 1566.5C200 1819.72 405.277 2025 658.5 2025Z" fill="#92BEFF"/>
</g>
<g opacity="0.1" filter="url(#filter1_f_3067_7522)">
<path d="M1488.5 1683C1779.28 1683 2015 1447.28 2015 1156.5C2015 865.722 1779.28 630 1488.5 630C1197.72 630 962 865.722 962 1156.5C962 1447.28 1197.72 1683 1488.5 1683Z" fill="#FF8CA7"/>
</g>
<g opacity="0.1" filter="url(#filter2_f_3067_7522)">
<path d="M893.5 1253C1184.28 1253 1420 1017.28 1420 726.5C1420 435.722 1184.28 200 893.5 200C602.722 200 367 435.722 367 726.5C367 1017.28 602.722 1253 893.5 1253Z" fill="#FFE5AE"/>
</g>
<path opacity="0.8" d="M2043.5 2150.92C2018.27 2163.13 1991.54 2173.15 1963.47 2180.67C1723.41 2244.99 1476.66 2102.53 1412.33 1862.47C1348.01 1622.41 1490.47 1375.66 1730.53 1311.33C1970.59 1247.01 2217.34 1389.47 2281.67 1629.53C2297.48 1688.56 2300.8 1747.99 2293.23 1805.02M2116.93 2106.21C2179.09 2059.59 2227.64 1997.86 2258.61 1927.91" stroke="#053D75"/>
<path opacity="0.6" d="M2338.75 2089.87C2406.97 1992.49 2447 1873.92 2447 1746C2447 1414.63 2178.37 1146 1847 1146C1515.63 1146 1247 1414.63 1247 1746C1247 2077.37 1515.63 2346 1847 2346C1896.28 2346 1944.17 2340.06 1990 2328.85M2335.5 2094.46C2321.25 2114.39 2305.82 2133.42 2289.3 2151.43M2234.31 2204.26C2188.71 2242.85 2137.27 2274.74 2081.5 2298.44" stroke="#053D75"/>
<path opacity="0.4" d="M2342.35 2309.15C2287.84 2357.14 2226.31 2397.33 2159.5 2427.99M2468 2166.5C2524.88 2083.02 2564.59 1988.76 2584 1885.77M2584.97 1880.5C2592.87 1836.86 2597 1791.91 2597 1746C2597 1331.79 2261.21 996 1847 996C1432.79 996 1097 1331.79 1097 1746C1097 2160.21 1432.79 2496 1847 2496C1892.91 2496 1937.86 2491.87 1981.5 2483.97" stroke="#053D75"/>
<path opacity="0.3" d="M2717.39 1975.83C2707.21 2014.5 2694.52 2052.14 2679.5 2088.59M2721.77 1958.5C2738.26 1890.37 2747 1819.2 2747 1746C2747 1248.94 2344.06 846 1847 846C1349.94 846 947 1248.94 947 1746C947 2243.06 1349.94 2646 1847 2646C1983.28 2646 2112.48 2615.71 2228.24 2561.5M2677.41 2093.62C2656.65 2143.15 2631.59 2190.43 2602.69 2235M2443.09 2420.32C2478.09 2389.34 2510.67 2355.69 2540.5 2319.67M2439 2423.91C2400.87 2457.24 2359.9 2487.4 2316.5 2513.98" stroke="#053D75"/>
<path opacity="0.2" d="M2673.12 1097.83C2813.36 1276.33 2897 1501.4 2897 1746C2897 2325.9 2426.9 2796 1847 2796C1267.1 2796 797 2325.9 797 1746C797 1166.1 1267.1 696 1847 696C2140.73 696 2406.28 816.607 2596.85 1011" stroke="#053D75"/>
<path opacity="0.1" d="M2126.5 578.722C2654.44 704.67 3047 1179.49 3047 1746C3047 2408.74 2509.74 2946 1847 2946C1184.26 2946 647 2408.74 647 1746C647 1083.26 1184.26 546 1847 546C1941.38 546 2033.22 556.896 2121.33 577.5" stroke="#053D75"/>
<path opacity="0.1" d="M2588.97 618C2376.06 477.67 2121.07 396 1847 396C1101.42 396 497 1000.42 497 1746C497 2491.58 1101.42 3096 1847 3096C2592.58 3096 3197 2491.58 3197 1746C3197 1276.48 2957.31 862.937 2593.61 621.07" stroke="#053D75"/>
<path opacity="0.1" d="M2392.37 348.224C2951.15 566.403 3347 1109.97 3347 1746C3347 2574.43 2675.43 3246 1847 3246C1018.57 3246 347 2574.43 347 1746C347 917.573 1018.57 246 1847 246C2037.47 246 2219.65 281.501 2387.28 346.247" stroke="#053D75"/>
<circle opacity="0.1" cx="1847" cy="1746" r="1650" transform="rotate(90 1847 1746)" stroke="#053D75"/>
<defs>
<filter id="filter0_f_3067_7522" x="0" y="908" width="1317" height="1317" filterUnits="userSpaceOnUse" color-interpolation-filters="sRGB">
<feFlood flood-opacity="0" result="BackgroundImageFix"/>
<feBlend mode="normal" in="SourceGraphic" in2="BackgroundImageFix" result="shape"/>
<feGaussianBlur stdDeviation="100" result="effect1_foregroundBlur_3067_7522"/>
</filter>
<filter id="filter1_f_3067_7522" x="762" y="430" width="1453" height="1453" filterUnits="userSpaceOnUse" color-interpolation-filters="sRGB">
<feFlood flood-opacity="0" result="BackgroundImageFix"/>
<feBlend mode="normal" in="SourceGraphic" in2="BackgroundImageFix" result="shape"/>
<feGaussianBlur stdDeviation="100" result="effect1_foregroundBlur_3067_7522"/>
</filter>
<filter id="filter2_f_3067_7522" x="167" y="0" width="1453" height="1453" filterUnits="userSpaceOnUse" color-interpolation-filters="sRGB">
<feFlood flood-opacity="0" result="BackgroundImageFix"/>
<feBlend mode="normal" in="SourceGraphic" in2="BackgroundImageFix" result="shape"/>
<feGaussianBlur stdDeviation="100" result="effect1_foregroundBlur_3067_7522"/>
</filter>
</defs>
</svg>
