<svg width="3302" height="3302" viewBox="0 0 3302 3302" fill="none" xmlns="http://www.w3.org/2000/svg">
<path opacity="0.8" d="M1566 1209.02C1593.53 1203.75 1621.94 1201 1651 1201C1899.53 1201 2101 1402.47 2101 1651C2101 1899.53 1899.53 2101 1651 2101C1402.47 2101 1201 1899.53 1201 1651C1201 1589.89 1213.18 1531.62 1235.25 1478.5M1483.5 1233.21C1411.39 1262.14 1348.51 1309.2 1300.5 1368.75" stroke="#053D75"/>
<path opacity="0.6" d="M1702.54 1052.81C1584.1 1042.42 1461.4 1067.04 1350.62 1131C1063.64 1296.69 965.315 1663.64 1131 1950.62C1296.69 2237.59 1663.64 2335.92 1950.62 2170.23C2237.59 2004.55 2335.92 1637.59 2170.23 1350.62C2145.59 1307.94 2116.5 1269.43 2083.88 1235.35M1708.14 1053.33C1732.53 1055.7 1756.72 1059.56 1780.58 1064.86M1853.83 1086.06C1910.04 1106.27 1963.39 1134.87 2011.8 1171.31" stroke="#053D75"/>
<circle cx="1161.25" cy="1305.09" r="2.70513" stroke="#053D75"/>
<path d="M1161.25 1302.21V1299" stroke="#053D75" stroke-linecap="round"/>
<path d="M1163.4 1303.1L1164.76 1301.74" stroke="#053D75" stroke-linecap="round"/>
<path d="M1164.29 1305.25L1167.5 1305.25" stroke="#053D75" stroke-linecap="round"/>
<path d="M1163.4 1307.4L1164.76 1308.76" stroke="#053D75" stroke-linecap="round"/>
<path d="M1161.25 1311.5V1308.29" stroke="#053D75" stroke-linecap="round"/>
<path d="M1157.74 1308.76L1159.1 1307.4" stroke="#053D75" stroke-linecap="round"/>
<path d="M1155 1305.25L1158.21 1305.25" stroke="#053D75" stroke-linecap="round"/>
<path d="M1157.74 1301.74L1159.1 1303.1" stroke="#053D75" stroke-linecap="round"/>
<circle cx="483.25" cy="1374.09" r="2.70513" stroke="#053D75"/>
<path d="M483.25 1371.21V1368" stroke="#053D75" stroke-linecap="round"/>
<path d="M485.403 1372.1L486.763 1370.74" stroke="#053D75" stroke-linecap="round"/>
<path d="M486.295 1374.25L489.5 1374.25" stroke="#053D75" stroke-linecap="round"/>
<path d="M485.403 1376.4L486.763 1377.76" stroke="#053D75" stroke-linecap="round"/>
<path d="M483.25 1380.5V1377.29" stroke="#053D75" stroke-linecap="round"/>
<path d="M479.737 1377.76L481.097 1376.4" stroke="#053D75" stroke-linecap="round"/>
<path d="M477 1374.25L480.205 1374.25" stroke="#053D75" stroke-linecap="round"/>
<path d="M479.737 1370.74L481.097 1372.1" stroke="#053D75" stroke-linecap="round"/>
<circle cx="525.25" cy="907.09" r="2.70513" stroke="#053D75"/>
<path d="M525.25 904.205V901" stroke="#053D75" stroke-linecap="round"/>
<path d="M527.403 905.097L528.763 903.737" stroke="#053D75" stroke-linecap="round"/>
<path d="M528.295 907.25L531.5 907.25" stroke="#053D75" stroke-linecap="round"/>
<path d="M527.403 909.403L528.763 910.763" stroke="#053D75" stroke-linecap="round"/>
<path d="M525.25 913.5V910.295" stroke="#053D75" stroke-linecap="round"/>
<path d="M521.737 910.763L523.097 909.403" stroke="#053D75" stroke-linecap="round"/>
<path d="M519 907.25L522.205 907.25" stroke="#053D75" stroke-linecap="round"/>
<path d="M521.737 903.737L523.097 905.097" stroke="#053D75" stroke-linecap="round"/>
<circle cx="252.25" cy="1108.09" r="2.70513" stroke="#053D75"/>
<path d="M252.25 1105.21V1102" stroke="#053D75" stroke-linecap="round"/>
<path d="M254.403 1106.1L255.763 1104.74" stroke="#053D75" stroke-linecap="round"/>
<path d="M255.295 1108.25L258.5 1108.25" stroke="#053D75" stroke-linecap="round"/>
<path d="M254.403 1110.4L255.763 1111.76" stroke="#053D75" stroke-linecap="round"/>
<path d="M252.25 1114.5V1111.29" stroke="#053D75" stroke-linecap="round"/>
<path d="M248.737 1111.76L250.097 1110.4" stroke="#053D75" stroke-linecap="round"/>
<path d="M246 1108.25L249.205 1108.25" stroke="#053D75" stroke-linecap="round"/>
<path d="M248.737 1104.74L250.097 1106.1" stroke="#053D75" stroke-linecap="round"/>
<circle cx="2137.46" cy="1080.93" r="2.70513" transform="rotate(120 2137.46 1080.93)" stroke="#053D75"/>
<path d="M2139.96 1082.37L2142.74 1083.97" stroke="#053D75" stroke-linecap="round"/>
<path d="M2138.11 1083.79L2138.61 1085.65" stroke="#053D75" stroke-linecap="round"/>
<path d="M2135.8 1083.49L2134.2 1086.26" stroke="#053D75" stroke-linecap="round"/>
<path d="M2134.38 1081.64L2132.52 1082.14" stroke="#053D75" stroke-linecap="round"/>
<path d="M2131.91 1077.72L2134.69 1079.33" stroke="#053D75" stroke-linecap="round"/>
<path d="M2136.04 1076.05L2136.54 1077.91" stroke="#053D75" stroke-linecap="round"/>
<path d="M2140.45 1075.44L2138.85 1078.21" stroke="#053D75" stroke-linecap="round"/>
<path d="M2142.12 1079.56L2140.26 1080.06" stroke="#053D75" stroke-linecap="round"/>
<circle cx="2336.59" cy="2233.45" r="2.70513" transform="rotate(-162.198 2336.59 2233.45)" stroke="#053D75"/>
<path d="M2335.7 2236.19L2334.72 2239.25" stroke="#053D75" stroke-linecap="round"/>
<path d="M2333.93 2234.69L2332.22 2235.57" stroke="#053D75" stroke-linecap="round"/>
<path d="M2333.74 2232.36L2330.68 2231.38" stroke="#053D75" stroke-linecap="round"/>
<path d="M2335.24 2230.59L2334.36 2228.88" stroke="#053D75" stroke-linecap="round"/>
<path d="M2338.55 2227.34L2337.57 2230.4" stroke="#053D75" stroke-linecap="round"/>
<path d="M2341.05 2231.03L2339.34 2231.9" stroke="#053D75" stroke-linecap="round"/>
<path d="M2342.59 2235.21L2339.53 2234.23" stroke="#053D75" stroke-linecap="round"/>
<path d="M2338.91 2237.71L2338.03 2236" stroke="#053D75" stroke-linecap="round"/>
<circle cx="2009.74" cy="2476.14" r="2.70513" transform="rotate(-162.198 2009.74 2476.14)" stroke="#053D75"/>
<path d="M2008.85 2478.89L2007.87 2481.94" stroke="#053D75" stroke-linecap="round"/>
<path d="M2007.08 2477.38L2005.37 2478.26" stroke="#053D75" stroke-linecap="round"/>
<path d="M2006.89 2475.06L2003.84 2474.08" stroke="#053D75" stroke-linecap="round"/>
<path d="M2008.39 2473.28L2007.52 2471.57" stroke="#053D75" stroke-linecap="round"/>
<path d="M2011.7 2470.04L2010.72 2473.09" stroke="#053D75" stroke-linecap="round"/>
<path d="M2014.2 2473.72L2012.49 2474.6" stroke="#053D75" stroke-linecap="round"/>
<path d="M2015.74 2477.9L2012.68 2476.92" stroke="#053D75" stroke-linecap="round"/>
<path d="M2012.06 2480.41L2011.18 2478.7" stroke="#053D75" stroke-linecap="round"/>
<circle cx="778.104" cy="2234.03" r="2.70513" transform="rotate(-101.126 778.104 2234.03)" stroke="#053D75"/>
<path d="M775.274 2234.58L772.129 2235.2" stroke="#053D75" stroke-linecap="round"/>
<path d="M775.733 2232.3L774.137 2231.23" stroke="#053D75" stroke-linecap="round"/>
<path d="M777.674 2231.01L777.055 2227.86" stroke="#053D75" stroke-linecap="round"/>
<path d="M779.958 2231.47L781.03 2229.87" stroke="#053D75" stroke-linecap="round"/>
<path d="M784.394 2232.79L781.249 2233.41" stroke="#053D75" stroke-linecap="round"/>
<path d="M782.386 2236.76L780.789 2235.69" stroke="#053D75" stroke-linecap="round"/>
<path d="M779.467 2240.13L778.849 2236.98" stroke="#053D75" stroke-linecap="round"/>
<path d="M775.492 2238.12L776.564 2236.52" stroke="#053D75" stroke-linecap="round"/>
<path opacity="0.4" d="M2385.9 1503.11C2400.2 1574.31 2404.24 1647.69 2397.39 1720.88M2325.18 1322.97C2281.33 1231.97 2219.55 1150.45 2140.06 1082.14M2135.99 1078.67C2102.15 1050 2065.28 1023.96 2025.52 1001C1666.8 793.893 1208.11 916.799 1001 1275.52C793.893 1634.24 916.799 2092.93 1275.52 2300.04C1634.24 2507.14 2092.93 2384.24 2300.04 2025.52C2323 1985.76 2341.9 1944.77 2356.87 1903.03" stroke="#053D75"/>
<path opacity="0.3" d="M2409.51 2136C2387.99 2169.7 2364.4 2201.66 2338.96 2231.78M2418.98 2120.84C2455.51 2061.01 2485.59 1995.92 2507.97 1926.23C2659.94 1452.97 2399.48 946.127 1926.23 794.16C1452.97 642.193 946.127 902.65 794.16 1375.91C642.193 1849.16 902.65 2356 1375.91 2507.97C1505.66 2549.64 1637.93 2560.3 1764.73 2544.08M2335.44 2235.92C2300.53 2276.74 2262.21 2314.09 2221.07 2347.69M2012.45 2475.34C2055.25 2456.55 2096.56 2434.47 2135.97 2409.3M2007.46 2477.51C1960.96 2497.58 1912.73 2513.77 1863.29 2525.82" stroke="#053D75"/>
<circle cx="2416.28" cy="2129.67" r="9.18938" transform="rotate(-12.0087 2416.28 2129.67)" stroke="#D9D9D9" stroke-linejoin="round"/>
<circle cx="2416.28" cy="2129.67" r="9.18938" transform="rotate(-12.0087 2416.28 2129.67)" stroke="#053D75" stroke-linejoin="round"/>
<path d="M2423.76 2135.13L2447.11 2119.45" stroke="#053D75" stroke-linecap="round"/>
<path d="M2408.57 2124.65L2414.3 2101.25" stroke="#053D75" stroke-linecap="round"/>
<path d="M2414.11 2120.65L2416.54 2113.55" stroke="#053D75" stroke-linecap="round"/>
<path d="M2422.71 2128.4L2449.53 2096.39" stroke="#053D75" stroke-linecap="round"/>
<path opacity="0.2" d="M965.378 2446.29C793.329 2298.22 667.827 2093.52 620.625 1853.51C508.718 1284.51 879.265 732.531 1448.26 620.624C2017.26 508.718 2569.25 879.265 2681.15 1448.26C2793.06 2017.26 2422.51 2569.25 1853.51 2681.15C1565.31 2737.83 1281.47 2670.74 1056.97 2516.78" stroke="#053D75"/>
<path d="M1013.68 2507.38C1010.19 2504.89 1006.67 2502.12 1003.27 2499.07C1002.5 2498.38 1001.74 2497.67 1000.98 2496.95M1031.46 2459.44C1027.29 2459.11 1022.91 2458.97 1018.45 2459.1C1017.44 2459.13 1016.42 2459.18 1015.41 2459.24" stroke="#053D75" stroke-linecap="round" stroke-linejoin="round"/>
<path d="M1011.93 2452.53C1014.99 2449.25 1019.81 2447.89 1024.32 2449.4M994.613 2499.49C994.536 2504.38 997.549 2509.01 1002.42 2510.77L1003.14 2511.03" stroke="#053D75"/>
<path d="M1058.29 2445.78C1053.23 2445.28 1052.72 2450.53 1052.28 2451.09C1050.75 2453.06 1049.58 2458.69 1049.58 2458.69C1049.58 2458.69 1048.84 2462.08 1047.71 2466.8M1076.63 2462.41C1075.08 2463.58 1072.56 2464.27 1069.78 2464.43C1070.14 2464.89 1070.47 2465.38 1070.77 2465.88C1071.72 2467.52 1072.36 2469.45 1072.36 2471.71C1072.36 2473.09 1072.15 2474.47 1071.72 2475.78C1070.39 2479.92 1067.15 2482.9 1064.1 2484.88M1051.68 2532.54C1051.72 2530.15 1050.34 2528.29 1047.6 2525.72C1047.76 2525.69 1047.92 2525.65 1048.08 2525.61C1050.28 2525.05 1052.47 2523.9 1054.24 2521.78C1054.51 2521.46 1054.76 2521.12 1054.99 2520.79C1057.93 2516.53 1057.7 2511.56 1056.65 2507.51M1024.91 2529.47C1024.56 2526.95 1024.82 2526.76 1025.2 2524.79C1025.68 2522.28 1028.4 2517.21 1028.4 2517.21C1028.4 2517.21 1029.56 2514.99 1031.22 2511.66" stroke="#053D75" stroke-linecap="round" stroke-linejoin="round"/>
<path d="M1056.11 2446.39C1056.09 2446.4 1056.05 2446.43 1056.01 2446.45C1055.91 2446.51 1055.77 2446.61 1055.61 2446.73C1055.29 2446.99 1054.91 2447.35 1054.63 2447.82C1054.35 2448.28 1054.18 2448.83 1054.25 2449.48C1054.32 2450.14 1054.65 2450.94 1055.47 2451.89L1056.11 2446.39ZM1056.11 2446.39C1056.29 2446.35 1056.47 2446.31 1056.65 2446.28L1056.65 2446.28C1060.23 2445.67 1064.19 2447.14 1067.79 2449.29C1071.38 2451.44 1074.54 2454.22 1076.47 2456.08L1076.47 2456.08C1077.01 2456.6 1077.39 2457.27 1077.56 2458C1077.73 2458.73 1077.69 2459.49 1077.43 2460.19L1077.43 2460.19L1076.95 2461.53C1076.29 2462.56 1074.98 2462.88 1073.08 2462.55C1071.17 2462.21 1068.84 2461.24 1066.48 2459.96C1061.75 2457.39 1057.05 2453.71 1055.47 2451.89L1056.11 2446.39Z" stroke="#053D75"/>
<path d="M1057.04 2453.92L1061.38 2446.19" stroke="#053D75" stroke-linecap="round"/>
<path d="M1065.98 2447.86L1061.1 2457.08" stroke="#053D75" stroke-linecap="round"/>
<path d="M1065.35 2459.74L1070.15 2450.35" stroke="#053D75" stroke-linecap="round"/>
<path d="M1074.42 2453.73L1070.52 2462.18" stroke="#053D75" stroke-linecap="round"/>
<path d="M1051.24 2534.05L1051.74 2532.66C1052.64 2526.46 1033.42 2524.91 1028.51 2525.71L1051.24 2534.05ZM1051.24 2534.05C1050.95 2534.84 1050.44 2535.53 1049.77 2536.05M1051.24 2534.05L1049.77 2536.05M1049.77 2536.05C1049.09 2536.56 1048.28 2536.86 1047.44 2536.92L1049.77 2536.05ZM1026.1 2527.27C1026.58 2526.81 1027.34 2526.41 1028.59 2526.2C1030.96 2525.82 1036.93 2526 1042.2 2527.05C1044.84 2527.58 1047.25 2528.32 1048.93 2529.28C1050.61 2530.24 1051.4 2531.33 1051.25 2532.54L1050.77 2533.88L1050.77 2533.88C1050.52 2534.58 1050.06 2535.19 1049.47 2535.65C1048.87 2536.1 1048.15 2536.37 1047.4 2536.42L1047.4 2536.42C1044.72 2536.61 1040.52 2536.73 1036.39 2536.08C1032.24 2535.43 1028.25 2534.03 1025.9 2531.27L1025.9 2531.27C1025.78 2531.13 1025.66 2530.99 1025.56 2530.84C1025.55 2530.81 1025.53 2530.78 1025.52 2530.73C1025.48 2530.62 1025.43 2530.46 1025.39 2530.26C1025.31 2529.86 1025.25 2529.33 1025.33 2528.79C1025.41 2528.26 1025.63 2527.72 1026.1 2527.27Z" stroke="#053D75"/>
<path d="M1029.48 2534.36L1031.03 2525.77" stroke="#053D75" stroke-linecap="round"/>
<path d="M1036.18 2525.94L1034 2535.86" stroke="#053D75" stroke-linecap="round"/>
<path d="M1041.15 2526.61L1038.8 2536.61" stroke="#053D75" stroke-linecap="round"/>
<path d="M1046.73 2527.93L1044.32 2536.92" stroke="#053D75" stroke-linecap="round"/>
<g opacity="0.35">
<path d="M1037.21 2486.53C1037.61 2486.43 1038 2486.34 1038.39 2486.26C1038 2486.34 1037.61 2486.43 1037.21 2486.53Z" fill="#053D75"/>
</g>
<path d="M984.673 2438.24C984.623 2438.19 984.579 2438.14 984.545 2438.08C984.461 2437.93 984.44 2437.75 984.486 2437.59C984.723 2436.74 985.125 2435.95 985.67 2435.25C986.214 2434.56 986.891 2433.98 987.66 2433.55C988.429 2433.12 989.276 2432.84 990.153 2432.74C991.029 2432.63 991.918 2432.7 992.769 2432.94L998.833 2434.63C999.684 2434.87 1000.48 2435.28 1001.17 2435.82C1001.87 2436.36 1002.45 2437.04 1002.88 2437.81C1003.32 2438.58 1003.6 2439.42 1003.7 2440.3C1003.81 2441.18 1003.74 2442.06 1003.5 2442.91C1003.46 2443.08 1003.35 2443.21 1003.2 2443.3C1003.15 2443.32 1003.1 2443.34 1003.05 2443.36" stroke="#053D75" stroke-linecap="round"/>
<path d="M968.623 2495.71C968.552 2495.72 968.483 2495.75 968.42 2495.78C968.272 2495.87 968.163 2496 968.117 2496.17C967.88 2497.02 967.812 2497.9 967.918 2498.78C968.025 2499.66 968.302 2500.5 968.736 2501.27C969.17 2502.04 969.751 2502.71 970.446 2503.26C971.141 2503.8 971.937 2504.21 972.787 2504.45L978.852 2506.14C979.702 2506.38 980.591 2506.45 981.468 2506.34C982.344 2506.24 983.191 2505.96 983.961 2505.53C984.73 2505.1 985.406 2504.52 985.95 2503.83C986.495 2503.13 986.897 2502.34 987.135 2501.49C987.18 2501.33 987.159 2501.15 987.076 2501C987.05 2500.96 987.02 2500.92 986.985 2500.88" stroke="#053D75" stroke-linecap="round"/>
<path d="M996.228 2440.45C1012.33 2446.21 1020.72 2463.91 1014.97 2479.98C1009.22 2496.05 991.508 2504.4 975.404 2498.64C959.3 2492.87 950.908 2475.17 956.659 2459.11C962.409 2443.04 980.124 2434.69 996.228 2440.45Z" stroke="#053D75"/>
<path d="M977.144 2498.94L976.982 2499.41L977.144 2498.94C969.592 2496.37 965.384 2491.33 963.722 2484.95C962.051 2478.53 962.942 2470.71 965.704 2462.6C968.467 2454.49 972.539 2447.75 977.781 2443.69C982.997 2439.65 989.402 2438.24 996.954 2440.81C1002.68 2442.76 1007.36 2446.43 1010.68 2451.1C1011.87 2452.78 1013.11 2456.55 1013.54 2461.49C1013.96 2466.41 1013.57 2472.41 1011.55 2478.5C1009.69 2484.13 1006.38 2489 1003.02 2492.62C1001.34 2494.43 999.649 2495.92 998.128 2497.04C996.599 2498.16 995.266 2498.88 994.298 2499.18C988.815 2500.85 982.868 2500.89 977.144 2498.94Z" stroke="#053D75"/>
<path d="M1033.91 2464.28C1033 2464.64 1032.14 2465.14 1031.37 2465.79L1018.35 2476.63C1015.78 2478.78 1014.57 2482.14 1015.17 2485.43L1018.23 2502.09C1018.37 2502.84 1018.6 2503.57 1018.9 2504.25M1044.73 2465.74L1056.7 2470.07C1059.8 2471.19 1062.07 2473.87 1062.66 2477.11L1065.72 2493.77C1066.32 2497.06 1065.11 2500.42 1062.54 2502.57L1049.53 2513.42C1047 2515.52 1043.54 2516.13 1040.44 2515.01L1028.97 2510.86" stroke="#0876E4"/>
<path d="M1024.56 2479.86L1033.51 2472.39C1035.54 2470.7 1038.32 2470.21 1040.81 2471.11L1052.03 2475.17C1054.52 2476.07 1056.34 2478.22 1056.82 2480.83L1058.92 2492.29C1059.41 2494.94 1058.43 2497.64 1056.37 2499.36L1047.41 2506.82C1045.38 2508.52 1042.6 2509 1040.11 2508.1L1028.89 2504.04C1026.4 2503.14 1024.58 2500.99 1024.1 2498.39L1022 2486.92C1021.51 2484.28 1022.49 2481.58 1024.56 2479.86Z" stroke="#0876E4"/>
<path fill-rule="evenodd" clip-rule="evenodd" d="M1036.31 2493.89C1035.85 2495.18 1036.51 2496.61 1037.8 2497.08L1043.2 2499.03C1045.18 2499.74 1047.36 2498.72 1048.08 2496.74L1051.08 2488.44C1051.8 2486.46 1050.77 2484.28 1048.8 2483.56L1043.4 2481.61C1042.11 2481.14 1040.69 2481.81 1040.22 2483.1L1036.31 2493.89ZM1038.14 2496.14C1037.37 2495.86 1036.97 2495.01 1037.25 2494.23L1041.16 2483.44C1041.44 2482.67 1042.29 2482.27 1043.06 2482.55L1048.46 2484.5C1049.91 2485.03 1050.67 2486.64 1050.14 2488.1L1047.14 2496.4C1046.61 2497.86 1045 2498.62 1043.54 2498.09L1038.14 2496.14ZM1041.79 2489.77C1041.37 2490.95 1041.98 2492.25 1043.15 2492.67C1044.33 2493.1 1045.63 2492.49 1046.05 2491.31C1046.48 2490.14 1045.87 2488.84 1044.69 2488.41C1043.52 2487.99 1042.22 2488.6 1041.79 2489.77ZM1043.49 2491.73C1042.84 2491.5 1042.5 2490.77 1042.73 2490.11C1042.97 2489.46 1043.7 2489.12 1044.35 2489.35C1045.01 2489.59 1045.35 2490.32 1045.11 2490.97C1044.87 2491.63 1044.15 2491.97 1043.49 2491.73Z" fill="#0876E4"/>
<path d="M1040.82 2483.54L1038.96 2482.87C1036.14 2481.85 1033.03 2483.31 1032.01 2486.13V2486.13C1030.99 2488.95 1032.44 2492.06 1035.26 2493.08L1035.76 2493.26" stroke="#0876E4" stroke-linecap="round"/>
<g opacity="0.35">
<path d="M1012.29 2519.06C1012.92 2519.37 1013.57 2519.65 1014.23 2519.89L1014.35 2519.93C1014.31 2519.91 1014.27 2519.9 1014.23 2519.89C1013.57 2519.65 1012.92 2519.37 1012.29 2519.06V2519.06Z" fill="#053D75"/>
</g>
<g opacity="0.35">
<path d="M1018.19 2520.8C1017.93 2520.77 1017.67 2520.74 1017.42 2520.7C1017.68 2520.74 1017.93 2520.77 1018.19 2520.8Z" fill="#053D75"/>
</g>
<g opacity="0.35">
<path d="M1019.67 2520.92C1019.35 2520.91 1019.02 2520.89 1018.7 2520.85C1019.02 2520.88 1019.35 2520.9 1019.67 2520.92Z" fill="#053D75"/>
</g>
<g opacity="0.35">
<path d="M1024.08 2520.7C1023.15 2520.83 1022.2 2520.91 1021.25 2520.93C1022.2 2520.9 1023.15 2520.83 1024.08 2520.7V2520.7Z" fill="#053D75"/>
</g>
<path d="M1012.63 2508.82C1015.2 2505.23 1017.4 2502.39 1024.83 2505.69C1032.59 2509.13 1030.2 2524.73 1016.39 2522.24C1001.9 2519.64 1000.62 2501.33 1000.62 2501.33C1000.44 2497.74 1000.85 2496.88 1001.08 2496.9" stroke="#053D75" stroke-linecap="round" stroke-linejoin="round"/>
<path d="M1031.61 2456.39C1031.29 2460.79 1031.16 2464.38 1038.98 2466.6C1047.14 2468.92 1055.29 2455.4 1043.08 2448.47C1030.28 2441.21 1017.58 2454.46 1017.58 2454.46C1015.92 2456.2 1015.27 2458.05 1015.16 2458.76" stroke="#053D75" stroke-linecap="round" stroke-linejoin="round"/>
<path opacity="0.1" d="M483.722 1371.5C609.67 843.562 1084.49 451 1651 451C2313.74 451 2851 988.258 2851 1651C2851 2313.74 2313.74 2851 1651 2851C988.258 2851 451 2313.74 451 1651C451 1556.62 461.896 1464.78 482.5 1376.67" stroke="#053D75"/>
<path opacity="0.1" d="M523 909.028C382.67 1121.94 301 1376.93 301 1651C301 2396.58 905.416 3001 1651 3001C2396.58 3001 3001 2396.58 3001 1651C3001 905.416 2396.58 301 1651 301C1181.48 301 767.937 540.694 526.07 904.391" stroke="#053D75"/>
<path opacity="0.1" d="M253.224 1105.63C471.403 546.854 1014.97 151 1651 151C2479.43 151 3151 822.573 3151 1651C3151 2479.43 2479.43 3151 1651 3151C822.573 3151 151 2479.43 151 1651C151 1460.53 186.501 1278.35 251.247 1110.72" stroke="#053D75"/>
<circle opacity="0.1" cx="1651" cy="1651" r="1650" stroke="#053D75"/>
<g clip-path="url(#clip0_3040_7685)">
<path fill-rule="evenodd" clip-rule="evenodd" d="M1841.06 1107.21C1840.96 1107.21 1840.85 1107.2 1840.74 1107.18C1840.63 1107.17 1840.52 1107.16 1840.41 1107.14C1840.33 1107.13 1840.24 1107.11 1840.15 1107.1C1840.03 1107.07 1839.91 1107.05 1839.78 1107.02C1839.66 1107 1839.54 1106.97 1839.43 1106.94C1839.32 1106.92 1839.22 1106.89 1839.11 1106.86C1838.91 1106.81 1838.71 1106.75 1838.51 1106.68C1836.94 1106.18 1835.47 1105.41 1833.88 1104.97C1833.29 1104.81 1832.89 1104.37 1832.64 1103.78C1832.33 1103.05 1831.97 1102.35 1831.29 1101.86C1830.93 1101.61 1830.6 1101.3 1830.4 1100.89C1830.14 1100.34 1829.68 1100.15 1829.13 1100.19C1828.26 1100.26 1827.41 1100.15 1826.55 1099.98C1825.73 1099.82 1824.88 1099.99 1824.05 1100.07C1823.58 1100.12 1823.11 1100.2 1822.64 1100.25C1821.83 1100.35 1821.07 1100.19 1820.39 1099.7C1819.67 1099.16 1819.45 1098.31 1819.92 1097.56C1821.08 1095.7 1822.48 1094.07 1824.39 1092.94C1824.73 1092.74 1825.1 1092.58 1825.4 1092.32C1825.82 1091.96 1825.86 1091.76 1825.59 1091.29C1825.24 1090.71 1825 1090.09 1824.74 1089.47C1824.49 1088.89 1824.43 1088.29 1824.64 1087.69C1824.81 1087.23 1824.74 1086.85 1824.49 1086.44C1824 1085.64 1824.06 1085.21 1824.71 1084.52C1824.95 1084.27 1825.22 1084.05 1825.5 1083.84C1826.07 1083.39 1826.1 1083.18 1825.71 1082.57C1825.7 1082.56 1825.69 1082.55 1825.69 1082.53C1825.66 1082.49 1825.64 1082.46 1825.62 1082.41C1825.36 1081.53 1824.73 1080.86 1824.24 1080.11C1823.56 1079.06 1820.81 1080.83 1820.14 1079.76C1819.71 1079.08 1818.8 1077.73 1818.7 1076.33C1818.62 1075.26 1819.56 1074.21 1820.04 1073.66C1820.19 1073.49 1820.29 1073.36 1820.31 1073.31C1820.9 1072.96 1821.87 1072.5 1822.47 1072.18C1822.91 1071.94 1823.36 1072.88 1823.86 1072.78C1824.29 1072.69 1824.64 1072.84 1824.86 1073.17C1825.24 1073.72 1825.67 1074.24 1825.96 1074.85C1826.05 1075.04 1826.15 1075.22 1826.22 1075.43C1826.38 1075.99 1826.84 1076.13 1827.22 1075.82C1827.35 1075.72 1827.51 1075.62 1827.67 1075.59C1827.99 1075.54 1828.08 1075.37 1828.09 1075.06C1828.13 1074.01 1828.56 1073.19 1829.47 1072.58C1829.92 1072.28 1830.36 1072.02 1830.89 1071.9C1831.39 1071.79 1831.79 1071.48 1832.23 1071.23C1832.58 1071.02 1832.93 1070.8 1833.35 1070.75C1833.69 1070.71 1834.01 1070.73 1834.33 1070.87C1834.88 1071.1 1835.41 1071.36 1836.01 1071.44C1836.35 1071.48 1836.62 1071.69 1836.79 1072.01C1837.22 1072.81 1837.8 1073.48 1838.38 1074.17C1838.5 1074.31 1838.61 1074.45 1838.7 1074.61C1838.78 1074.75 1838.87 1074.85 1839.02 1074.92C1839.18 1074.98 1839.29 1075.1 1839.39 1075.24C1839.59 1075.52 1839.73 1075.55 1840.05 1075.39C1840.19 1075.32 1840.32 1075.25 1840.47 1075.2C1840.8 1075.09 1840.84 1075.04 1840.78 1074.7C1840.69 1074.1 1840.5 1073.53 1840.29 1072.96C1839.94 1071.99 1839.16 1071.4 1838.39 1070.82C1837.91 1070.45 1837.4 1070.12 1836.97 1069.68C1836.68 1069.39 1836.32 1069.17 1835.96 1068.99C1835.67 1068.85 1835.38 1068.7 1835.13 1068.51C1834.34 1067.92 1834.32 1067.13 1834.96 1066.48C1835.74 1065.72 1836.8 1065.51 1837.82 1065.94C1838.2 1066.1 1838.59 1066.23 1838.99 1066.33C1839.46 1066.45 1839.89 1066.68 1840.33 1066.88C1841.32 1067.33 1842.24 1067.88 1843.09 1068.56C1843.33 1068.75 1843.6 1068.89 1843.88 1069.02C1844.73 1069.44 1845.33 1070.12 1845.84 1070.88C1846.31 1071.58 1846.66 1072.33 1846.88 1073.15C1846.95 1073.38 1847.07 1073.6 1847.16 1073.82C1847.34 1074.27 1847.36 1074.7 1847.28 1075.16C1847.23 1075.46 1847.25 1075.76 1847.35 1076.06C1847.47 1076.42 1847.57 1076.79 1847.61 1077.17C1847.62 1077.34 1847.68 1077.45 1847.87 1077.48C1848.31 1077.54 1848.65 1077.8 1848.96 1078.1C1849.08 1078.22 1849.2 1078.35 1849.34 1078.42C1849.92 1078.73 1850.27 1079.23 1850.59 1079.78C1850.84 1080.23 1851.17 1080.63 1851.53 1081C1851.87 1081.35 1852.29 1081.55 1852.73 1081.73C1853.03 1081.85 1853.34 1081.97 1853.64 1082.1C1853.77 1082.15 1853.9 1082.21 1854.02 1082.26C1854.15 1082.32 1854.28 1082.38 1854.42 1082.44C1854.42 1082.45 1854.43 1082.45 1854.45 1082.46C1855.14 1076.64 1854.51 1070.62 1852.41 1064.88C1850.47 1064.3 1848.75 1063.31 1847.2 1062C1846.29 1061.23 1845.62 1060.28 1845.19 1059.17C1844.99 1058.66 1844.67 1058.24 1844.14 1058.02C1843.9 1057.93 1843.68 1057.79 1843.47 1057.63C1842.86 1057.19 1842.64 1056.57 1842.8 1055.83C1842.98 1054.97 1843.53 1054.39 1844.19 1053.87C1844.59 1053.54 1845.03 1053.29 1845.47 1053.03C1843.84 1051.13 1842.04 1049.41 1840.12 1047.9C1839.62 1048.34 1839.13 1048.77 1838.63 1049.21C1837.81 1049.92 1836.93 1050.56 1835.95 1051.01C1835.1 1051.39 1834.2 1051.63 1833.27 1051.71C1833.09 1051.73 1832.91 1051.78 1832.72 1051.77C1832.02 1051.73 1831.43 1052 1830.85 1052.38C1830.36 1052.69 1829.8 1052.77 1829.23 1052.76C1828.85 1052.76 1828.47 1052.73 1828.1 1052.62C1827.63 1052.48 1827.2 1052.56 1826.77 1052.74C1826.13 1053 1825.5 1053.23 1824.81 1053.34C1824.12 1053.46 1823.45 1053.38 1822.79 1053.14C1822.05 1052.85 1821.59 1052.26 1821.29 1051.56C1820.99 1050.86 1820.66 1050.17 1820.47 1049.44C1820.42 1049.25 1820.38 1049.05 1820.34 1048.86C1820.18 1048.15 1819.96 1047.99 1819.22 1048.04C1818.58 1048.09 1817.97 1048.3 1817.35 1048.45C1816.76 1048.6 1816.19 1048.79 1815.56 1048.77C1814.96 1048.74 1814.43 1048.57 1813.94 1048.24C1813.48 1047.93 1813.04 1047.62 1812.53 1047.4C1812.2 1047.25 1811.97 1047.32 1811.69 1047.52C1811.15 1047.94 1810.65 1048.41 1810.17 1048.89C1809.79 1049.29 1809.32 1049.52 1808.78 1049.62C1808.18 1049.73 1807.59 1049.86 1806.98 1049.89C1806.46 1049.92 1806.07 1049.69 1805.79 1049.26C1805.54 1048.86 1805.34 1048.43 1805.25 1047.96C1805.13 1047.31 1805.27 1046.69 1805.62 1046.13C1805.81 1045.82 1806.02 1045.52 1806.24 1045.22C1806.66 1044.65 1807.08 1044.06 1807.37 1043.4C1807.83 1042.39 1808.4 1041.45 1808.94 1040.49C1807.6 1040.76 1806.27 1041.1 1804.96 1041.53L1804.96 1041.53C1804.8 1041.77 1804.64 1042.01 1804.5 1042.26C1803.85 1043.38 1803.11 1044.44 1802.27 1045.43C1801.73 1046.06 1801.28 1046.73 1801 1047.52C1800.94 1047.7 1800.92 1047.86 1800.94 1048.05C1801.04 1049.1 1801.05 1050.14 1800.81 1051.18C1800.6 1052.11 1799.97 1052.59 1799.14 1052.89C1798.73 1053.04 1798.28 1053.09 1797.85 1053.19C1797.44 1053.28 1797.03 1053.41 1796.66 1053.63C1796.48 1053.74 1796.37 1053.89 1796.32 1054.09C1796.25 1054.36 1796.24 1054.63 1796.24 1054.91C1796.23 1055.29 1796.2 1055.67 1796.15 1056.05C1796.01 1057.15 1795.42 1057.85 1794.34 1058.13C1794.31 1058.15 1794.29 1058.17 1794.26 1058.19C1793.45 1058.31 1792.65 1058.45 1791.83 1058.45C1790.28 1058.46 1788.73 1058.41 1787.23 1057.94C1786.77 1057.8 1786.31 1057.63 1785.84 1057.5C1785.59 1057.44 1785.34 1057.4 1785.08 1057.4C1784.92 1057.39 1784.76 1057.39 1784.61 1057.42C1784.58 1057.43 1784.54 1057.43 1784.5 1057.44C1784.47 1057.45 1784.43 1057.46 1784.4 1057.47C1784.36 1057.49 1784.33 1057.5 1784.29 1057.51C1784.26 1057.53 1784.23 1057.54 1784.19 1057.56L1784.19 1057.56C1776.88 1069.17 1776.09 1084.34 1783.42 1097.05C1789.37 1107.36 1799.41 1113.84 1810.3 1115.64C1810.14 1115 1810.02 1114.34 1810.01 1113.67C1809.97 1112.3 1810.56 1111.28 1811.7 1110.55C1812.66 1109.93 1813.72 1109.72 1814.84 1109.79C1815.66 1109.83 1816.48 1109.88 1817.3 1109.99C1818.49 1110.16 1819.6 1110.56 1820.62 1111.19C1821.7 1111.85 1822.67 1112.66 1823.57 1113.55C1824.04 1114.02 1824.55 1114.46 1825.08 1114.87C1825.18 1114.95 1825.29 1115.02 1825.39 1115.11C1828.89 1114.27 1832.33 1112.92 1835.61 1111.03C1837.57 1109.9 1839.39 1108.62 1841.06 1107.21ZM1798.41 1095.56C1797.29 1095.93 1796.12 1096.04 1794.96 1096.19C1793.94 1096.32 1792.93 1096.36 1791.92 1096.2C1791.28 1096.11 1790.65 1096.02 1790.03 1095.87C1789.5 1095.74 1788.96 1095.65 1788.44 1095.46C1787.13 1094.98 1786.12 1094.15 1785.47 1092.91C1785.11 1092.21 1785.23 1091.49 1785.54 1090.79C1786.04 1089.63 1786.84 1088.68 1787.77 1087.83C1788.37 1087.29 1788.99 1086.79 1789.7 1086.38C1790.41 1085.98 1791.12 1085.56 1791.84 1085.16C1792.34 1084.88 1792.77 1084.53 1793.14 1084.1C1793.83 1083.31 1794.51 1082.52 1795.2 1081.72C1795.71 1081.13 1796.12 1080.48 1796.2 1079.67C1796.18 1079.51 1796.21 1079.34 1796.14 1079.19C1796.21 1078.88 1796.13 1078.58 1796.14 1078.28C1796.16 1077.32 1796.42 1076.41 1796.77 1075.53C1797.02 1074.9 1797.12 1074.25 1797.19 1073.58C1797.42 1071.63 1798.2 1069.93 1799.56 1068.51C1800.12 1067.92 1800.84 1067.56 1801.59 1067.24C1802.26 1066.95 1802.92 1066.64 1803.61 1066.42C1804.4 1066.17 1805.19 1065.95 1806 1065.85C1807.13 1065.71 1808.21 1065.89 1809.27 1066.31C1810.3 1066.72 1811.24 1067.25 1811.97 1068.12C1812.44 1068.67 1812.77 1069.31 1813.07 1069.95C1813.41 1070.69 1813.66 1071.48 1813.95 1072.24C1813.97 1072.28 1813.97 1072.33 1813.98 1072.37L1813.99 1072.38C1814.16 1072.65 1817.07 1076.38 1817.13 1077.71C1817.22 1079.94 1816.2 1082.31 1816.18 1082.59C1816.18 1082.59 1816.18 1082.6 1816.18 1082.6C1816.17 1082.68 1816.17 1082.76 1816.14 1082.82C1815.96 1083.24 1815.8 1083.69 1815.76 1084.13C1815.69 1084.91 1815.18 1085.36 1814.71 1085.86C1814.6 1085.97 1814.47 1086.06 1814.41 1086.2C1814.16 1086.77 1813.72 1087.19 1813.24 1087.57C1812.43 1088.22 1811.52 1088.7 1810.59 1089.15C1810.02 1089.42 1809.42 1089.64 1808.9 1090.04C1808.21 1090.57 1807.82 1091.25 1807.53 1092.03C1807.3 1092.65 1807 1093.23 1806.61 1093.76C1806.06 1094.52 1805.27 1094.88 1804.39 1095.08C1804.28 1095.11 1804.17 1095.12 1804.06 1095.14C1804.04 1095.15 1804.01 1095.15 1803.99 1095.16C1803.94 1095.14 1803.9 1095.13 1803.86 1095.12C1803.62 1095.2 1803.37 1095.17 1803.13 1095.14C1801.52 1094.92 1799.95 1095.04 1798.41 1095.56ZM1805.25 1100.05C1804.24 1100.5 1803.18 1100.61 1802.1 1100.72C1801.12 1100.83 1800.13 1100.86 1799.14 1100.85C1798.5 1100.85 1797.91 1100.69 1797.38 1100.31C1797.04 1100.06 1796.8 1099.75 1796.89 1099.31C1796.97 1098.88 1797.2 1098.55 1797.67 1098.46C1798.2 1098.36 1798.63 1098.02 1799.13 1097.83C1800 1097.5 1800.89 1097.26 1801.81 1097.17C1802.36 1097.12 1802.9 1097.08 1803.45 1097.1C1803.99 1097.12 1804.51 1097.24 1805.02 1097.39C1805.21 1097.45 1805.41 1097.56 1805.63 1097.48L1805.63 1097.48C1805.64 1097.48 1805.63 1097.48 1805.63 1097.48L1805.64 1097.48C1805.7 1097.5 1805.75 1097.54 1805.8 1097.55C1806.38 1097.69 1806.71 1098.03 1806.73 1098.64L1806.73 1098.64C1806.52 1099.41 1805.93 1099.76 1805.25 1100.05Z" stroke="#0876E4"/>
<path fill-rule="evenodd" clip-rule="evenodd" d="M1804.06 1095.14C1804.04 1095.15 1804.01 1095.15 1803.99 1095.16C1804 1095.14 1804.01 1095.13 1804.02 1095.12C1804.02 1095.12 1804.02 1095.12 1804.02 1095.11C1804.04 1095.12 1804.05 1095.13 1804.06 1095.14Z" stroke="#0876E4"/>
<path fill-rule="evenodd" clip-rule="evenodd" d="M1841.06 1107.21C1840.96 1107.21 1840.85 1107.2 1840.74 1107.18C1840.63 1107.17 1840.52 1107.16 1840.41 1107.14C1840.33 1107.13 1840.24 1107.11 1840.15 1107.1C1840.03 1107.07 1839.91 1107.05 1839.78 1107.02C1839.66 1107 1839.54 1106.97 1839.43 1106.94C1839.32 1106.92 1839.22 1106.89 1839.11 1106.86C1838.91 1106.81 1838.71 1106.75 1838.51 1106.68C1836.94 1106.18 1835.47 1105.41 1833.88 1104.97C1833.29 1104.81 1832.89 1104.37 1832.64 1103.78C1832.33 1103.05 1831.97 1102.35 1831.29 1101.86C1830.93 1101.61 1830.6 1101.3 1830.4 1100.89C1830.14 1100.34 1829.68 1100.15 1829.13 1100.19C1828.26 1100.26 1827.41 1100.15 1826.55 1099.98C1825.73 1099.82 1824.88 1099.99 1824.05 1100.07C1823.58 1100.12 1823.11 1100.2 1822.64 1100.25C1821.83 1100.35 1821.07 1100.19 1820.39 1099.7C1819.67 1099.16 1819.45 1098.31 1819.92 1097.56C1821.08 1095.7 1822.48 1094.07 1824.39 1092.94C1824.73 1092.74 1825.1 1092.58 1825.4 1092.32C1825.82 1091.96 1825.86 1091.76 1825.59 1091.29C1825.24 1090.71 1825 1090.09 1824.74 1089.47C1824.49 1088.89 1824.43 1088.29 1824.64 1087.69C1824.81 1087.23 1824.74 1086.85 1824.49 1086.44C1824 1085.64 1824.06 1085.21 1824.71 1084.52C1824.95 1084.27 1825.22 1084.05 1825.5 1083.84C1826.07 1083.39 1826.1 1083.18 1825.71 1082.57C1825.7 1082.56 1825.69 1082.55 1825.69 1082.54C1825.66 1082.49 1825.64 1082.46 1825.62 1082.41C1825.36 1081.53 1824.73 1080.86 1824.24 1080.11C1823.56 1079.06 1820.81 1080.83 1820.14 1079.76C1819.71 1079.08 1818.8 1077.73 1818.7 1076.33C1818.62 1075.26 1819.56 1074.21 1820.04 1073.66C1820.19 1073.49 1820.29 1073.36 1820.31 1073.31C1820.9 1072.96 1821.87 1072.5 1822.47 1072.18C1822.91 1071.94 1823.36 1072.88 1823.86 1072.78C1824.29 1072.69 1824.64 1072.84 1824.86 1073.17C1825.24 1073.72 1825.67 1074.24 1825.96 1074.85C1826.05 1075.04 1826.16 1075.22 1826.22 1075.43C1826.38 1075.99 1826.84 1076.13 1827.22 1075.82C1827.35 1075.72 1827.51 1075.62 1827.67 1075.59C1827.99 1075.54 1828.08 1075.37 1828.09 1075.06C1828.13 1074.01 1828.56 1073.19 1829.47 1072.58C1829.92 1072.28 1830.36 1072.02 1830.89 1071.9C1831.39 1071.79 1831.79 1071.48 1832.23 1071.23C1832.58 1071.02 1832.93 1070.8 1833.35 1070.75C1833.69 1070.71 1834.01 1070.73 1834.33 1070.87C1834.88 1071.1 1835.41 1071.36 1836.01 1071.44C1836.35 1071.48 1836.62 1071.69 1836.79 1072.01C1837.22 1072.81 1837.8 1073.48 1838.38 1074.17C1838.5 1074.31 1838.61 1074.45 1838.7 1074.61C1838.78 1074.75 1838.87 1074.85 1839.02 1074.92C1839.18 1074.98 1839.29 1075.1 1839.39 1075.24C1839.59 1075.52 1839.73 1075.55 1840.05 1075.39C1840.19 1075.32 1840.32 1075.25 1840.47 1075.2C1840.8 1075.09 1840.84 1075.04 1840.78 1074.7C1840.69 1074.1 1840.5 1073.53 1840.29 1072.96C1839.94 1071.99 1839.16 1071.4 1838.39 1070.82C1837.91 1070.45 1837.4 1070.12 1836.97 1069.68C1836.68 1069.39 1836.32 1069.17 1835.96 1068.99C1835.67 1068.85 1835.38 1068.7 1835.13 1068.51C1834.34 1067.92 1834.32 1067.13 1834.96 1066.49C1835.74 1065.72 1836.8 1065.51 1837.82 1065.94C1838.2 1066.1 1838.59 1066.23 1838.99 1066.33C1839.46 1066.45 1839.89 1066.68 1840.33 1066.88C1841.32 1067.33 1842.24 1067.88 1843.09 1068.56C1843.33 1068.75 1843.6 1068.89 1843.88 1069.02C1844.73 1069.44 1845.33 1070.12 1845.84 1070.88C1846.31 1071.58 1846.66 1072.33 1846.88 1073.15C1846.95 1073.38 1847.07 1073.6 1847.16 1073.82C1847.34 1074.27 1847.36 1074.7 1847.28 1075.16C1847.23 1075.47 1847.25 1075.76 1847.35 1076.06C1847.47 1076.42 1847.57 1076.79 1847.61 1077.17C1847.62 1077.34 1847.68 1077.45 1847.87 1077.48C1848.31 1077.54 1848.65 1077.81 1848.96 1078.1C1849.08 1078.22 1849.2 1078.35 1849.34 1078.42C1849.92 1078.73 1850.27 1079.23 1850.59 1079.78C1850.84 1080.23 1851.17 1080.63 1851.53 1081C1851.87 1081.35 1852.29 1081.55 1852.73 1081.73C1853.03 1081.85 1853.34 1081.97 1853.64 1082.1C1853.77 1082.15 1853.9 1082.21 1854.02 1082.26C1854.15 1082.32 1854.28 1082.38 1854.42 1082.44C1854.42 1082.45 1854.43 1082.46 1854.45 1082.46C1853.31 1091.91 1848.67 1100.85 1841.06 1107.21Z" stroke="#0876E4"/>
<path fill-rule="evenodd" clip-rule="evenodd" d="M1804.06 1095.14C1804.04 1095.15 1804.01 1095.15 1803.99 1095.16C1804 1095.14 1804.01 1095.13 1804.02 1095.12C1804.02 1095.12 1804.02 1095.12 1804.02 1095.11C1804.04 1095.12 1804.05 1095.13 1804.06 1095.14Z" stroke="#0876E4"/>
<path fill-rule="evenodd" clip-rule="evenodd" d="M1835.95 1051.01C1835.1 1051.39 1834.2 1051.63 1833.27 1051.71C1833.09 1051.73 1832.91 1051.78 1832.72 1051.77C1832.02 1051.73 1831.43 1052 1830.85 1052.38C1830.36 1052.69 1829.8 1052.77 1829.23 1052.76C1828.85 1052.76 1828.47 1052.73 1828.1 1052.62C1827.63 1052.48 1827.2 1052.56 1826.77 1052.74C1826.13 1053 1825.5 1053.23 1824.81 1053.34C1824.12 1053.46 1823.45 1053.38 1822.79 1053.14C1822.05 1052.85 1821.59 1052.26 1821.29 1051.56C1820.99 1050.86 1820.66 1050.17 1820.47 1049.44C1820.42 1049.25 1820.38 1049.05 1820.34 1048.86C1820.18 1048.15 1819.96 1047.99 1819.22 1048.04C1818.58 1048.09 1817.97 1048.3 1817.35 1048.45C1816.76 1048.6 1816.19 1048.79 1815.56 1048.77C1814.96 1048.74 1814.43 1048.57 1813.94 1048.24C1813.48 1047.93 1813.04 1047.62 1812.53 1047.4C1812.2 1047.25 1811.97 1047.32 1811.69 1047.52C1811.15 1047.94 1810.65 1048.41 1810.17 1048.89C1809.79 1049.29 1809.32 1049.52 1808.78 1049.62C1808.18 1049.73 1807.59 1049.86 1806.98 1049.89C1806.46 1049.92 1806.07 1049.69 1805.79 1049.26C1805.54 1048.86 1805.34 1048.43 1805.25 1047.96C1805.13 1047.31 1805.27 1046.69 1805.62 1046.13C1805.81 1045.82 1806.02 1045.52 1806.24 1045.22C1806.66 1044.65 1807.08 1044.06 1807.37 1043.4C1807.83 1042.39 1808.4 1041.45 1808.94 1040.49C1819.92 1038.27 1831.36 1041.02 1840.12 1047.9C1839.62 1048.34 1839.13 1048.77 1838.63 1049.21C1837.81 1049.92 1836.93 1050.56 1835.95 1051.01Z" stroke="#0876E4"/>
<path fill-rule="evenodd" clip-rule="evenodd" d="M1825.39 1115.11C1820.38 1116.31 1815.25 1116.46 1810.3 1115.64C1810.14 1115 1810.02 1114.34 1810.01 1113.67C1809.97 1112.3 1810.56 1111.28 1811.7 1110.55C1812.66 1109.93 1813.72 1109.72 1814.84 1109.79C1815.66 1109.83 1816.48 1109.88 1817.3 1109.99C1818.49 1110.16 1819.6 1110.56 1820.62 1111.19C1821.7 1111.85 1822.67 1112.66 1823.57 1113.55C1824.04 1114.02 1824.55 1114.46 1825.08 1114.87C1825.18 1114.95 1825.29 1115.02 1825.39 1115.11Z" stroke="#0876E4"/>
<path fill-rule="evenodd" clip-rule="evenodd" d="M1794.34 1058.13C1794.31 1058.15 1794.29 1058.17 1794.26 1058.19C1793.45 1058.31 1792.65 1058.45 1791.83 1058.45C1790.28 1058.46 1788.73 1058.41 1787.23 1057.94C1786.77 1057.8 1786.31 1057.63 1785.84 1057.5C1785.59 1057.44 1785.34 1057.4 1785.08 1057.4C1784.92 1057.39 1784.76 1057.39 1784.61 1057.42C1784.58 1057.43 1784.54 1057.44 1784.5 1057.44C1784.47 1057.45 1784.43 1057.46 1784.4 1057.47C1784.36 1057.49 1784.33 1057.5 1784.29 1057.51C1784.26 1057.53 1784.23 1057.54 1784.19 1057.56C1787.39 1052.47 1791.84 1048.07 1797.41 1044.86C1799.85 1043.45 1802.37 1042.35 1804.96 1041.53C1804.8 1041.77 1804.64 1042.01 1804.5 1042.26C1803.85 1043.38 1803.11 1044.44 1802.27 1045.43C1801.73 1046.06 1801.28 1046.73 1801 1047.52C1800.94 1047.7 1800.92 1047.86 1800.94 1048.05C1801.04 1049.1 1801.05 1050.14 1800.81 1051.18C1800.6 1052.11 1799.97 1052.59 1799.14 1052.89C1798.73 1053.04 1798.28 1053.09 1797.85 1053.19C1797.44 1053.28 1797.03 1053.41 1796.66 1053.63C1796.48 1053.74 1796.37 1053.89 1796.32 1054.09C1796.25 1054.36 1796.24 1054.64 1796.24 1054.91C1796.23 1055.29 1796.2 1055.67 1796.15 1056.05C1796.01 1057.15 1795.42 1057.85 1794.34 1058.13Z" stroke="#0876E4"/>
<path fill-rule="evenodd" clip-rule="evenodd" d="M1852.41 1064.88C1850.47 1064.3 1848.75 1063.31 1847.2 1062C1846.29 1061.23 1845.62 1060.28 1845.19 1059.17C1844.99 1058.66 1844.67 1058.24 1844.14 1058.02C1843.9 1057.93 1843.68 1057.79 1843.47 1057.63C1842.86 1057.19 1842.64 1056.57 1842.8 1055.83C1842.98 1054.97 1843.53 1054.39 1844.19 1053.87C1844.59 1053.54 1845.03 1053.29 1845.47 1053.03C1846.99 1054.8 1848.38 1056.74 1849.59 1058.84C1850.72 1060.8 1851.66 1062.82 1852.41 1064.88Z" stroke="#0876E4"/>
<path fill-rule="evenodd" clip-rule="evenodd" d="M1804.39 1095.08C1804.28 1095.11 1804.17 1095.12 1804.06 1095.14C1804.05 1095.13 1804.04 1095.12 1804.02 1095.11C1804.02 1095.12 1804.02 1095.12 1804.02 1095.12C1804.01 1095.13 1804 1095.14 1803.99 1095.16C1803.94 1095.14 1803.9 1095.13 1803.86 1095.12C1803.62 1095.2 1803.37 1095.17 1803.13 1095.14C1801.52 1094.92 1799.95 1095.04 1798.41 1095.56C1797.29 1095.93 1796.12 1096.04 1794.96 1096.19C1793.94 1096.32 1792.93 1096.36 1791.92 1096.2C1791.28 1096.11 1790.65 1096.02 1790.03 1095.87C1789.5 1095.74 1788.96 1095.65 1788.44 1095.46C1787.13 1094.98 1786.12 1094.15 1785.47 1092.91C1785.11 1092.21 1785.23 1091.49 1785.54 1090.79C1786.04 1089.63 1786.84 1088.68 1787.77 1087.83C1788.37 1087.29 1788.99 1086.79 1789.7 1086.39C1790.41 1085.98 1791.12 1085.56 1791.84 1085.16C1792.34 1084.88 1792.77 1084.53 1793.14 1084.1C1793.83 1083.31 1794.51 1082.52 1795.2 1081.72C1795.71 1081.13 1796.12 1080.48 1796.2 1079.67C1796.18 1079.51 1796.21 1079.34 1796.14 1079.19C1796.21 1078.88 1796.13 1078.58 1796.14 1078.28C1796.16 1077.32 1796.42 1076.41 1796.77 1075.53C1797.02 1074.9 1797.12 1074.25 1797.19 1073.58C1797.42 1071.63 1798.2 1069.93 1799.56 1068.51C1800.12 1067.92 1800.84 1067.56 1801.59 1067.24C1802.26 1066.95 1802.92 1066.64 1803.61 1066.42C1804.4 1066.17 1805.19 1065.95 1806 1065.85C1807.13 1065.71 1808.21 1065.89 1809.27 1066.31C1810.3 1066.72 1811.24 1067.25 1811.97 1068.12C1812.44 1068.67 1812.77 1069.31 1813.07 1069.95C1813.41 1070.69 1813.66 1071.48 1813.95 1072.24C1813.97 1072.28 1813.97 1072.33 1813.98 1072.37L1813.99 1072.38C1814.16 1072.65 1817.07 1076.38 1817.13 1077.71C1817.22 1079.94 1816.2 1082.31 1816.18 1082.59C1816.18 1082.59 1816.18 1082.6 1816.18 1082.6C1816.17 1082.68 1816.17 1082.76 1816.14 1082.82C1815.96 1083.24 1815.8 1083.69 1815.76 1084.13C1815.69 1084.91 1815.18 1085.36 1814.71 1085.86C1814.6 1085.97 1814.47 1086.06 1814.41 1086.2C1814.16 1086.78 1813.72 1087.19 1813.24 1087.57C1812.43 1088.22 1811.52 1088.7 1810.59 1089.15C1810.02 1089.42 1809.42 1089.64 1808.9 1090.04C1808.21 1090.57 1807.82 1091.25 1807.53 1092.03C1807.3 1092.65 1807 1093.23 1806.61 1093.76C1806.06 1094.52 1805.27 1094.88 1804.39 1095.08Z" stroke="#0876E4"/>
<path fill-rule="evenodd" clip-rule="evenodd" d="M1804.06 1095.14C1804.04 1095.15 1804.01 1095.15 1803.99 1095.16C1804 1095.14 1804.01 1095.13 1804.02 1095.12C1804.02 1095.12 1804.02 1095.12 1804.02 1095.11C1804.04 1095.12 1804.05 1095.13 1804.06 1095.14Z" stroke="#0876E4"/>
<path fill-rule="evenodd" clip-rule="evenodd" d="M1805.25 1100.05C1804.24 1100.5 1803.18 1100.61 1802.1 1100.72C1801.12 1100.83 1800.13 1100.86 1799.14 1100.85C1798.5 1100.85 1797.91 1100.69 1797.38 1100.31C1797.04 1100.06 1796.8 1099.75 1796.89 1099.31C1796.97 1098.88 1797.2 1098.55 1797.67 1098.46C1798.2 1098.36 1798.63 1098.02 1799.13 1097.83C1800 1097.5 1800.89 1097.26 1801.81 1097.17C1802.36 1097.12 1802.9 1097.08 1803.45 1097.1C1803.99 1097.12 1804.51 1097.24 1805.02 1097.39C1805.21 1097.45 1805.41 1097.56 1805.63 1097.48L1805.63 1097.48C1805.64 1097.48 1805.64 1097.48 1805.64 1097.48C1805.7 1097.51 1805.75 1097.54 1805.8 1097.55C1806.38 1097.69 1806.71 1098.03 1806.73 1098.64L1806.73 1098.64C1806.52 1099.41 1805.93 1099.76 1805.25 1100.05Z" stroke="#0876E4"/>
</g>
<path d="M1846.04 1029.11L1834.81 1009.65L1815.35 1020.88" stroke="#053D75"/>
<path d="M1786.97 1126.79L1798.21 1146.25L1817.67 1135.01" stroke="#053D75"/>
<path d="M1865.35 1107.48L1884.81 1096.25L1873.57 1076.79" stroke="#053D75"/>
<path d="M1767.67 1048.41L1748.21 1059.65L1759.44 1079.11" stroke="#053D75"/>
<g clip-path="url(#clip1_3040_7685)">
<rect x="2409.55" y="1468.36" width="50" height="50" rx="25" transform="rotate(120 2409.55 1468.36)" fill="#FF0000"/>
<g clip-path="url(#clip2_3040_7685)">
<path fill-rule="evenodd" clip-rule="evenodd" d="M2376.46 1493.55C2375.82 1493.72 2375.15 1493.73 2374.52 1493.56C2370.57 1492.42 2365.23 1489.07 2362.01 1486.36C2361.55 1485.89 2361.21 1485.31 2361.04 1484.67C2360.87 1484.04 2360.87 1483.37 2361.04 1482.73C2361.65 1480.4 2366.34 1472.28 2366.34 1472.28C2366.34 1472.28 2371.02 1464.17 2372.74 1462.47C2373.2 1462.01 2373.78 1461.67 2374.42 1461.5C2375.06 1461.33 2375.73 1461.33 2376.36 1461.5C2380.3 1462.62 2385.62 1466.01 2388.85 1468.69C2389.32 1469.15 2389.65 1469.73 2389.82 1470.37C2389.99 1471.01 2389.99 1471.68 2389.82 1472.31C2389.21 1474.65 2384.54 1482.77 2384.54 1482.77C2384.54 1482.77 2379.86 1490.89 2378.14 1492.58C2377.68 1493.05 2377.1 1493.38 2376.46 1493.55ZM2373.05 1481.67L2373.04 1472.69L2380.83 1477.19L2373.05 1481.67Z" fill="white"/>
</g>
</g>
<path d="M2407.7 1477.07C2403.33 1494.61 2395.27 1504.78 2378.86 1507.36C2362.44 1509.94 2342.54 1494.45 2339.96 1478.03L2348.82 1484.21C2348.82 1484.21 2334.74 1454.6 2316.69 1449.57C2316.69 1449.57 2331.73 1446.88 2336.74 1455.16C2336.74 1455.16 2324.31 1436.91 2325.09 1425.48L2331.64 1438.43C2332.3 1406.55 2335.11 1388.78 2315.06 1357.41C2315.06 1357.41 2327.64 1368.57 2333.13 1379.59L2325.06 1322.46C2325.06 1322.46 2342.35 1343.44 2362.59 1378.56C2362.59 1378.56 2361.44 1368.18 2364.08 1359.24C2366.13 1378.64 2381.35 1420.38 2386.91 1427.86L2383.18 1410.88C2391.34 1416.57 2394.56 1427.2 2395.32 1443.29L2399.54 1423.49C2397.64 1436.53 2405.01 1462.03 2405.01 1462.03L2407.33 1455.26C2408.8 1463.47 2409.75 1468.81 2407.7 1477.07Z" stroke="#D9D9D9" stroke-linejoin="round"/>
<path d="M2407.7 1477.07C2403.33 1494.61 2395.27 1504.78 2378.86 1507.36C2362.44 1509.94 2342.54 1494.45 2339.96 1478.03L2348.82 1484.21C2348.82 1484.21 2334.74 1454.6 2316.69 1449.57C2316.69 1449.57 2331.73 1446.88 2336.74 1455.16C2336.74 1455.16 2324.31 1436.91 2325.09 1425.48L2331.64 1438.43C2332.3 1406.55 2335.11 1388.78 2315.06 1357.41C2315.06 1357.41 2327.64 1368.57 2333.13 1379.59L2325.06 1322.46C2325.06 1322.46 2342.35 1343.44 2362.59 1378.56C2362.59 1378.56 2361.44 1368.18 2364.08 1359.24C2366.13 1378.64 2381.35 1420.38 2386.91 1427.86L2383.18 1410.88C2391.34 1416.57 2394.56 1427.2 2395.32 1443.29L2399.54 1423.49C2397.64 1436.53 2405.01 1462.03 2405.01 1462.03L2407.33 1455.26C2408.8 1463.47 2409.75 1468.81 2407.7 1477.07Z" stroke="#053D75" stroke-linejoin="round"/>
<rect x="1260" y="1370" width="50" height="50" rx="25" fill="#0F1622"/>
<path d="M1291.9 1385.73C1290.87 1384.56 1290.31 1383.06 1290.31 1381.5L1285.67 1381.5L1285.67 1400.1C1285.64 1401.11 1285.21 1402.06 1284.49 1402.76C1283.76 1403.46 1282.8 1403.85 1281.79 1403.85C1279.66 1403.85 1277.89 1402.11 1277.89 1399.95C1277.89 1397.37 1280.38 1395.44 1282.94 1396.23L1282.94 1391.49C1277.77 1390.8 1273.24 1394.82 1273.24 1399.95C1273.24 1404.95 1277.38 1408.5 1281.77 1408.5C1286.48 1408.5 1290.31 1404.68 1290.31 1399.95L1290.31 1390.52C1292.19 1391.87 1294.45 1392.59 1296.76 1392.59L1296.76 1387.95C1296.76 1387.95 1293.94 1388.09 1291.9 1385.73Z" fill="white"/>
<path d="M1270.42 1368.23C1287 1361 1299.97 1364.85 1310.35 1377.38C1320.73 1389.92 1317.63 1414.42 1305.09 1424.8L1305.87 1414.25C1305.87 1414.25 1287.97 1440.92 1292.75 1458.63C1292.75 1458.63 1282.96 1447.3 1287.44 1438.95C1287.44 1438.95 1278.28 1458.54 1268.26 1463.59L1275.89 1451.61C1248.72 1466.99 1232.34 1473.51 1215.94 1506.07C1215.94 1506.07 1219.05 1489.9 1225.59 1479.76L1181.5 1515.13C1181.5 1515.13 1190.53 1490.07 1210 1455.47C1210 1455.47 1201.83 1461.62 1192.98 1463.87C1208.29 1452.45 1235.84 1418.76 1239.36 1410.34L1226.92 1421.97C1227.64 1412.25 1234.98 1404.23 1248.16 1395.54L1229.36 1401.89C1241.3 1396.97 1259.09 1378.01 1259.09 1378.01L1252.23 1379.44C1258.41 1374.1 1262.77 1371.56 1270.42 1368.23Z" stroke="#D9D9D9" stroke-linejoin="round"/>
<path d="M1270.42 1368.23C1287 1361 1299.97 1364.85 1310.35 1377.38C1320.73 1389.92 1317.63 1414.42 1305.09 1424.8L1305.87 1414.25C1305.87 1414.25 1287.97 1440.92 1292.75 1458.63C1292.75 1458.63 1282.96 1447.3 1287.44 1438.95C1287.44 1438.95 1278.28 1458.54 1268.26 1463.59L1275.89 1451.61C1248.72 1466.99 1232.34 1473.51 1215.94 1506.07C1215.94 1506.07 1219.05 1489.9 1225.59 1479.76L1181.5 1515.13C1181.5 1515.13 1190.53 1490.07 1210 1455.47C1210 1455.47 1201.83 1461.62 1192.98 1463.87C1208.29 1452.45 1235.84 1418.76 1239.36 1410.34L1226.92 1421.97C1227.64 1412.25 1234.98 1404.23 1248.16 1395.54L1229.36 1401.89C1241.3 1396.97 1259.09 1378.01 1259.09 1378.01L1252.23 1379.44C1258.41 1374.1 1262.77 1371.56 1270.42 1368.23Z" stroke="#053D75" stroke-linejoin="round"/>
<circle cx="1547.62" cy="1215.21" r="15.0027" fill="#5865F2"/>
<path d="M1554.06 1209.44C1552.95 1208.92 1551.75 1208.55 1550.5 1208.33C1550.49 1208.33 1550.48 1208.33 1550.47 1208.34C1550.46 1208.34 1550.45 1208.35 1550.44 1208.36C1550.29 1208.63 1550.12 1208.99 1550 1209.27C1548.67 1209.07 1547.33 1209.07 1546 1209.27C1545.88 1208.98 1545.71 1208.63 1545.55 1208.36C1545.54 1208.34 1545.52 1208.33 1545.49 1208.33C1544.24 1208.55 1543.05 1208.92 1541.93 1209.44C1541.93 1209.44 1541.92 1209.45 1541.91 1209.46C1539.64 1212.85 1539.02 1216.15 1539.33 1219.42C1539.33 1219.43 1539.33 1219.45 1539.35 1219.46C1540.85 1220.56 1542.29 1221.22 1543.72 1221.67C1543.74 1221.67 1543.77 1221.67 1543.78 1221.65C1544.11 1221.19 1544.41 1220.71 1544.67 1220.2C1544.68 1220.17 1544.67 1220.13 1544.63 1220.12C1544.16 1219.94 1543.71 1219.72 1543.27 1219.47C1543.23 1219.46 1543.23 1219.41 1543.26 1219.38C1543.35 1219.32 1543.44 1219.24 1543.53 1219.17C1543.55 1219.16 1543.58 1219.16 1543.59 1219.17C1546.46 1220.47 1549.55 1220.47 1552.38 1219.17C1552.4 1219.16 1552.43 1219.16 1552.44 1219.17C1552.53 1219.25 1552.63 1219.32 1552.72 1219.39C1552.75 1219.42 1552.75 1219.47 1552.71 1219.48C1552.28 1219.74 1551.82 1219.95 1551.34 1220.13C1551.31 1220.14 1551.3 1220.18 1551.31 1220.21C1551.58 1220.72 1551.88 1221.2 1552.2 1221.66C1552.23 1221.67 1552.25 1221.67 1552.28 1221.67C1553.71 1221.22 1555.15 1220.56 1556.65 1219.46C1556.67 1219.45 1556.68 1219.43 1556.68 1219.42C1557.04 1215.64 1556.07 1212.37 1554.09 1209.46C1554.08 1209.45 1554.08 1209.44 1554.06 1209.44ZM1545.1 1217.42C1544.24 1217.42 1543.53 1216.63 1543.53 1215.66C1543.53 1214.68 1544.23 1213.89 1545.1 1213.89C1545.98 1213.89 1546.68 1214.69 1546.68 1215.66C1546.68 1216.63 1545.98 1217.42 1545.1 1217.42ZM1550.91 1217.42C1550.05 1217.42 1549.33 1216.63 1549.33 1215.66C1549.33 1214.68 1550.03 1213.89 1550.91 1213.89C1551.79 1213.89 1552.49 1214.69 1552.48 1215.66C1552.48 1216.63 1551.79 1217.42 1550.91 1217.42Z" fill="white"/>
<path d="M1545.67 1196.48C1556 1195.5 1562.91 1200.95 1566.02 1210.19C1569.13 1219.43 1562.12 1232.46 1552.88 1235.57L1555.59 1229.83C1555.59 1229.83 1539.84 1240.89 1538.7 1251.83C1538.7 1251.83 1535.67 1243.39 1539.97 1239.68C1539.97 1239.68 1530.64 1248.66 1523.95 1249.34L1530.79 1244.28C1512.29 1247.03 1501.73 1247.15 1485.56 1261.83C1485.56 1261.83 1490.78 1253.46 1496.61 1249.2L1464.35 1259.49C1464.35 1259.49 1474.79 1247.42 1493.12 1232.26C1493.12 1232.26 1487.23 1233.94 1481.8 1233.29C1492.81 1230.2 1515.46 1217.3 1519.24 1213.34L1509.79 1217.17C1512.28 1211.89 1518.11 1208.98 1527.34 1206.96L1515.47 1206.47C1523.2 1206.29 1537.23 1199.51 1537.23 1199.51L1533.09 1198.84C1537.69 1197.18 1540.69 1196.95 1545.67 1196.48Z" stroke="#D9D9D9" stroke-linejoin="round"/>
<path d="M1545.67 1196.48C1556 1195.5 1562.91 1200.95 1566.02 1210.19C1569.13 1219.43 1562.12 1232.46 1552.88 1235.57L1555.59 1229.83C1555.59 1229.83 1539.84 1240.89 1538.7 1251.83C1538.7 1251.83 1535.67 1243.39 1539.97 1239.68C1539.97 1239.68 1530.64 1248.66 1523.95 1249.34L1530.79 1244.28C1512.29 1247.03 1501.73 1247.15 1485.56 1261.83C1485.56 1261.83 1490.78 1253.46 1496.61 1249.2L1464.35 1259.49C1464.35 1259.49 1474.79 1247.42 1493.12 1232.26C1493.12 1232.26 1487.23 1233.94 1481.8 1233.29C1492.81 1230.2 1515.46 1217.3 1519.24 1213.34L1509.79 1217.17C1512.28 1211.89 1518.11 1208.98 1527.34 1206.96L1515.47 1206.47C1523.2 1206.29 1537.23 1199.51 1537.23 1199.51L1533.09 1198.84C1537.69 1197.18 1540.69 1196.95 1545.67 1196.48Z" stroke="#053D75" stroke-linejoin="round"/>
<g clip-path="url(#clip3_3040_7685)">
<rect x="1786.68" y="2557.95" width="25.25" height="25.25" rx="12.625" transform="rotate(-156.254 1786.68 2557.95)" fill="#7360F2"/>
<path fill-rule="evenodd" clip-rule="evenodd" d="M1777.69 2547.79C1774.78 2546.84 1773.77 2545.46 1773.54 2545.06C1772.77 2543.78 1772.84 2541.51 1774.29 2538.37C1775.57 2535.58 1777.75 2535.72 1778.49 2535.76C1778.56 2535.77 1778.62 2535.77 1778.66 2535.77C1778.86 2535.77 1780.6 2535.88 1782.64 2536.73C1782.95 2536.54 1783.37 2536.29 1783.67 2536.12C1783.76 2536.07 1783.85 2536.02 1783.93 2535.97C1784.34 2535.72 1784.66 2535.53 1784.98 2535.75C1785.29 2535.97 1785.1 2536.5 1785.1 2536.5L1784.68 2537.82L1784.68 2537.82C1787.47 2539.66 1786.4 2542.83 1785.82 2544.51C1785.24 2546.2 1784.47 2547.46 1783.24 2548.1C1781.07 2549.1 1777.69 2547.79 1777.69 2547.79ZM1778.04 2546.88C1775.57 2546.08 1774.63 2544.95 1774.44 2544.62C1773.78 2543.54 1773.91 2541.53 1775.13 2538.9C1776.19 2536.6 1777.91 2536.74 1778.54 2536.79C1778.61 2536.8 1778.66 2536.8 1778.7 2536.8C1778.87 2536.8 1780.4 2536.9 1782.14 2537.59C1782.14 2537.59 1783.98 2536.42 1784.53 2536.13C1784.61 2536.09 1784.7 2536.09 1784.74 2536.12C1784.81 2536.16 1784.8 2536.25 1784.76 2536.37C1784.7 2536.55 1784.05 2538.55 1784.05 2538.55C1786.33 2540.05 1785.45 2542.59 1784.95 2544.03C1784.93 2544.08 1784.92 2544.12 1784.9 2544.17C1784.42 2545.58 1783.78 2546.65 1782.74 2547.18C1780.9 2548.01 1778.04 2546.88 1778.04 2546.88Z" fill="white"/>
<path d="M1778.18 2542.14C1778 2542.8 1778.22 2543.25 1778.84 2543.48" stroke="white" stroke-width="0.432092" stroke-linecap="round" stroke-linejoin="round"/>
<path d="M1777.42 2541.59C1777.21 2542.18 1777.23 2542.75 1777.47 2543.27C1777.71 2543.8 1778.16 2544.19 1778.8 2544.45" stroke="white" stroke-width="0.432092" stroke-linecap="round" stroke-linejoin="round"/>
<path d="M1776.66 2540.97C1776.34 2542.02 1776.38 2542.94 1776.81 2543.74C1777.23 2544.55 1777.9 2545.1 1778.82 2545.4" stroke="white" stroke-width="0.432092" stroke-linecap="round" stroke-linejoin="round"/>
<path d="M1779.84 2540.23C1779.84 2540.23 1779.62 2540.14 1779.44 2540.25L1779.1 2540.48C1778.93 2540.6 1778.62 2540.6 1778.39 2540.36C1778.22 2540.17 1778.06 2539.98 1777.91 2539.78C1777.77 2539.58 1777.49 2539.15 1777.49 2539.15C1777.36 2538.94 1777.39 2538.7 1777.59 2538.5C1777.59 2538.5 1777.59 2538.5 1777.59 2538.5C1777.8 2538.31 1778.04 2538.15 1778.3 2538.04C1778.3 2538.04 1778.3 2538.04 1778.31 2538.03C1778.53 2537.94 1778.73 2537.92 1778.9 2537.95C1778.93 2537.95 1778.95 2537.96 1778.98 2537.97C1779.05 2537.99 1779.12 2538.03 1779.18 2538.07L1779.19 2538.08C1779.42 2538.24 1779.8 2538.56 1780.39 2539.19C1780.74 2539.56 1781.05 2539.95 1781.33 2540.36C1781.47 2540.57 1781.6 2540.79 1781.71 2541.01L1781.72 2541.03L1781.74 2541.06L1781.75 2541.08C1781.75 2541.09 1781.76 2541.1 1781.76 2541.1C1781.87 2541.33 1781.98 2541.56 1782.06 2541.79C1782.24 2542.26 1782.37 2542.74 1782.47 2543.23C1782.63 2544.09 1782.68 2544.58 1782.67 2544.86L1782.67 2544.87C1782.67 2544.95 1782.66 2545.03 1782.64 2545.1C1782.63 2545.13 1782.62 2545.15 1782.61 2545.17C1782.53 2545.34 1782.39 2545.48 1782.19 2545.61C1782.19 2545.61 1782.19 2545.61 1782.19 2545.61C1781.94 2545.76 1781.68 2545.86 1781.4 2545.92C1781.4 2545.92 1781.4 2545.92 1781.39 2545.92C1781.12 2545.97 1780.91 2545.85 1780.82 2545.63C1780.82 2545.62 1780.62 2545.15 1780.55 2544.92C1780.47 2544.68 1780.41 2544.43 1780.36 2544.19C1780.29 2543.86 1780.48 2543.61 1780.67 2543.54L1781.05 2543.39C1781.25 2543.32 1781.3 2543.08 1781.3 2543.08C1781.3 2543.08 1781.4 2541.21 1779.84 2540.23Z" fill="white"/>
</g>
<path d="M1777.82 2557.4C1768.41 2554.71 1764.31 2548.85 1764.18 2540.09C1764.06 2531.34 1773.63 2522.12 1782.39 2522L1778.5 2526.16C1778.5 2526.16 1795 2521.02 1798.97 2511.99C1798.97 2511.99 1799.25 2520.04 1794.56 2522.03C1794.56 2522.03 1805 2516.91 1810.91 2518.17L1803.67 2520.62C1820.24 2523.34 1829.3 2526.14 1847.16 2518.03C1847.16 2518.03 1840.4 2523.75 1834.24 2525.8L1864.65 2525.85C1864.65 2525.85 1852.41 2533.31 1832.58 2541.24C1832.58 2541.24 1838.08 2541.41 1842.54 2543.46C1832.27 2543.08 1809.36 2547.89 1805.05 2550.24L1814.18 2549.56C1810.6 2553.39 1804.82 2554.27 1796.37 2553.47L1806.38 2557.15C1799.72 2555.18 1785.87 2557.12 1785.87 2557.12L1789.23 2558.84C1784.84 2558.99 1782.14 2558.63 1777.82 2557.4Z" stroke="#D9D9D9" stroke-linejoin="round"/>
<path d="M1777.82 2557.4C1768.41 2554.71 1764.31 2548.85 1764.18 2540.09C1764.06 2531.34 1773.63 2522.12 1782.39 2522L1778.5 2526.16C1778.5 2526.16 1795 2521.02 1798.97 2511.99C1798.97 2511.99 1799.25 2520.04 1794.56 2522.03C1794.56 2522.03 1805 2516.91 1810.91 2518.17L1803.67 2520.62C1820.24 2523.34 1829.3 2526.14 1847.16 2518.03C1847.16 2518.03 1840.4 2523.75 1834.24 2525.8L1864.65 2525.85C1864.65 2525.85 1852.41 2533.31 1832.58 2541.24C1832.58 2541.24 1838.08 2541.41 1842.54 2543.46C1832.27 2543.08 1809.36 2547.89 1805.05 2550.24L1814.18 2549.56C1810.6 2553.39 1804.82 2554.27 1796.37 2553.47L1806.38 2557.15C1799.72 2555.18 1785.87 2557.12 1785.87 2557.12L1789.23 2558.84C1784.84 2558.99 1782.14 2558.63 1777.82 2557.4Z" stroke="#053D75" stroke-linejoin="round"/>
<g clip-path="url(#clip4_3040_7685)">
<rect x="2403.96" y="1868.57" width="50" height="50" rx="25" transform="rotate(125.943 2403.96 1868.57)" fill="#00E676"/>
<path fill-rule="evenodd" clip-rule="evenodd" d="M2380.04 1883.11C2377.98 1885.96 2374.82 1887.93 2371.28 1888.45C2367.79 1889 2364.24 1888.15 2361.33 1886.04C2355.33 1881.69 2353.93 1873.24 2358.28 1867.24C2359.57 1865.45 2361.28 1863.97 2363.33 1863.01L2366.03 1856.17L2370.55 1861.81C2372.86 1862.12 2375.09 1862.93 2377 1864.3C2383.04 1868.6 2384.44 1877.05 2380.04 1883.11ZM2363.65 1878.2L2362.88 1878.64C2362.74 1878.72 2362.63 1878.73 2362.63 1878.73L2362.22 1878.43L2362.22 1878.43C2361.96 1878.16 2361.71 1877.88 2361.56 1877.59C2361.48 1877.45 2361.45 1877.24 2361.42 1877.04C2361.4 1876.93 2361.4 1876.84 2361.4 1876.75C2361.4 1876.66 2361.4 1876.57 2361.38 1876.46L2361.35 1876.26C2361.33 1876.14 2361.35 1876.06 2361.37 1875.95C2361.39 1875.87 2361.41 1875.79 2361.41 1875.67C2361.46 1875.35 2361.6 1874.9 2361.82 1874.61L2362.25 1874.01C2362.34 1873.95 2362.43 1873.85 2362.52 1873.76C2362.61 1873.67 2362.7 1873.57 2362.8 1873.5C2364.38 1872.2 2366.18 1871.34 2368.16 1870.86C2368.33 1870.87 2368.5 1870.83 2368.68 1870.79C2368.77 1870.77 2368.87 1870.75 2368.98 1870.73L2369.39 1870.67C2370.97 1870.36 2372.5 1870.38 2374.01 1870.67L2374.24 1870.74C2374.78 1870.86 2375.34 1871.08 2375.82 1871.43C2376.47 1871.9 2376.95 1872.62 2377.19 1873.42C2377.2 1873.52 2377.23 1873.61 2377.26 1873.7C2377.28 1873.78 2377.31 1873.87 2377.33 1873.97C2377.31 1874.06 2377.32 1874.15 2377.32 1874.24C2377.32 1874.33 2377.32 1874.42 2377.31 1874.5L2377.32 1874.61C2377.28 1874.67 2377.25 1874.74 2377.22 1874.81C2377.2 1874.88 2377.17 1874.95 2377.12 1875.01L2376.65 1875.66C2376.46 1875.79 2376.32 1875.87 2376.05 1875.86C2375.57 1875.78 2373.44 1875.33 2373.1 1875.17C2372.88 1875.1 2372.69 1874.87 2372.6 1874.62C2372.58 1874.52 2372.54 1874.42 2372.5 1874.32C2372.45 1874.23 2372.41 1874.13 2372.4 1874.02C2372.35 1873.72 2372.22 1873.26 2372.22 1873.26C2372.2 1873.16 2372.09 1873.08 2371.97 1872.99C2371.91 1872.98 2371.86 1872.97 2371.82 1872.96C2371.75 1872.94 2371.71 1872.93 2371.64 1872.94L2371.48 1872.91C2370.73 1872.82 2369.95 1872.89 2369.24 1873C2369.13 1873.02 2369.02 1873.05 2368.91 1873.08C2368.79 1873.11 2368.68 1873.15 2368.58 1873.16C2367.76 1873.29 2366.97 1873.63 2366.2 1874.07L2365.87 1874.28C2365.76 1874.29 2365.62 1874.37 2365.57 1874.43L2365.53 1874.49C2365.45 1874.61 2365.42 1874.77 2365.49 1874.91C2365.84 1876.44 2365.86 1876.54 2365.86 1876.54C2365.83 1876.7 2365.8 1876.86 2365.68 1877.04C2365.65 1877.07 2365.62 1877.09 2365.58 1877.11C2365.54 1877.13 2365.51 1877.15 2365.49 1877.18C2364.76 1877.55 2363.65 1878.2 2363.65 1878.2Z" stroke="white" stroke-width="1.5" stroke-linejoin="round"/>
</g>
<path d="M2398.4 1890.06C2385.62 1906.34 2372.62 1908.93 2356.26 1902.75C2339.9 1896.57 2329.76 1872.04 2335.94 1855.68L2340.83 1865.95C2340.83 1865.95 2343.36 1831.52 2329.47 1817.53C2329.47 1817.53 2344.63 1822.9 2344.9 1833.08C2344.9 1833.08 2343.03 1809.92 2349.69 1799.87L2348.94 1815.12C2366.14 1786.31 2377.96 1771.51 2375.95 1732.38C2375.95 1732.38 2381.64 1749.14 2380.94 1762.07L2403.28 1705.61C2403.28 1705.61 2408.19 1733.81 2408.42 1776.47C2408.42 1776.47 2412.77 1766.38 2419.84 1759.57C2411.62 1778.38 2403.81 1824.48 2405.01 1834.22L2410.43 1816.75C2414.93 1826.2 2412.34 1837.6 2404.66 1852.71L2418.83 1836.79C2410.3 1847.73 2403.77 1874.9 2403.77 1874.9L2409.42 1869.92C2406.49 1878.18 2403.94 1883 2398.4 1890.06Z" stroke="#D9D9D9" stroke-linejoin="round"/>
<path d="M2398.4 1890.06C2385.62 1906.34 2372.62 1908.93 2356.26 1902.75C2339.9 1896.57 2329.76 1872.04 2335.94 1855.68L2340.83 1865.95C2340.83 1865.95 2343.36 1831.52 2329.47 1817.53C2329.47 1817.53 2344.63 1822.9 2344.9 1833.08C2344.9 1833.08 2343.03 1809.92 2349.69 1799.87L2348.94 1815.12C2366.14 1786.31 2377.96 1771.51 2375.95 1732.38C2375.95 1732.38 2381.64 1749.14 2380.94 1762.07L2403.28 1705.61C2403.28 1705.61 2408.19 1733.81 2408.42 1776.47C2408.42 1776.47 2412.77 1766.38 2419.84 1759.57C2411.62 1778.38 2403.81 1824.48 2405.01 1834.22L2410.43 1816.75C2414.93 1826.2 2412.34 1837.6 2404.66 1852.71L2418.83 1836.79C2410.3 1847.73 2403.77 1874.9 2403.77 1874.9L2409.42 1869.92C2406.49 1878.18 2403.94 1883 2398.4 1890.06Z" stroke="#053D75" stroke-linejoin="round"/>
<g clip-path="url(#clip5_3040_7685)">
<rect x="2164.8" y="2421.07" width="31.3741" height="31.3741" rx="15.687" transform="rotate(-162.198 2164.8 2421.07)" fill="#229ED9"/>
<path fill-rule="evenodd" clip-rule="evenodd" d="M2162.57 2404.92C2156.85 2405.19 2153.03 2405.36 2151.13 2405.42C2145.7 2405.6 2144.59 2405.58 2143.93 2405.37C2143.79 2405.33 2143.47 2405.2 2143.31 2404.98C2143.17 2404.8 2143.17 2404.62 2143.19 2404.49C2143.2 2404.37 2143.26 2404.09 2143.35 2403.89C2144.38 2401.59 2147.38 2396.17 2148.82 2393.69C2149.43 2392.64 2150.03 2392.42 2150.51 2392.53C2151.56 2392.78 2152.12 2393.68 2152.93 2394.56C2154.19 2395.92 2154.89 2396.74 2156.11 2398.07C2157.53 2399.61 2156.23 2399.79 2154.96 2400.35C2154.63 2400.5 2149.02 2402.57 2148.83 2402.86C2148.81 2402.89 2148.75 2403.04 2148.83 2403.15C2148.9 2403.26 2149.06 2403.28 2149.18 2403.3C2149.34 2403.32 2152.26 2402.71 2157.92 2401.47C2158.76 2401.28 2159.46 2401.28 2160.02 2401.48C2160.64 2401.69 2161.75 2402.37 2162.57 2402.91C2163.57 2403.56 2164.39 2404.01 2164.14 2404.5C2164.02 2404.76 2163.49 2404.9 2162.57 2404.92Z" fill="white"/>
</g>
<path d="M2160.07 2420.78C2151.51 2423.03 2140.78 2418.79 2135.93 2409.35C2131.08 2399.91 2136.5 2384.75 2145.93 2379.9L2143.96 2386.51C2143.96 2386.51 2159.1 2372.04 2158.54 2360.09C2158.54 2360.09 2163.18 2368.68 2159.16 2373.37C2159.16 2373.37 2167.74 2362.18 2174.83 2360.37L2168.29 2366.93C2187.75 2360.95 2199.09 2359.1 2214.11 2340.67C2214.11 2340.67 2209.85 2350.53 2204.27 2356.06L2237.31 2339.74C2237.31 2339.74 2228.04 2354.43 2210.79 2373.73C2210.79 2373.73 2216.85 2370.95 2222.8 2370.77C2211.45 2375.89 2189.18 2393.46 2185.76 2398.34L2195.31 2392.67C2193.49 2398.76 2187.69 2402.84 2178.08 2406.52L2190.93 2405.12C2182.64 2406.57 2168.65 2416.15 2168.65 2416.15L2173.22 2416.2C2168.54 2418.73 2165.33 2419.4 2160.07 2420.78Z" stroke="#D9D9D9" stroke-linejoin="round"/>
<path d="M2160.07 2420.78C2151.51 2423.03 2140.78 2418.79 2135.93 2409.35C2131.08 2399.91 2136.5 2384.75 2145.93 2379.9L2143.96 2386.51C2143.96 2386.51 2159.1 2372.04 2158.54 2360.09C2158.54 2360.09 2163.18 2368.68 2159.16 2373.37C2159.16 2373.37 2167.74 2362.18 2174.83 2360.37L2168.29 2366.93C2187.75 2360.95 2199.09 2359.1 2214.11 2340.67C2214.11 2340.67 2209.85 2350.53 2204.27 2356.06L2237.31 2339.74C2237.31 2339.74 2228.04 2354.43 2210.79 2373.73C2210.79 2373.73 2216.85 2370.95 2222.8 2370.77C2211.45 2375.89 2189.18 2393.46 2185.76 2398.34L2195.31 2392.67C2193.49 2398.76 2187.69 2402.84 2178.08 2406.52L2190.93 2405.12C2182.64 2406.57 2168.65 2416.15 2168.65 2416.15L2173.22 2416.2C2168.54 2418.73 2165.33 2419.4 2160.07 2420.78Z" stroke="#053D75" stroke-linejoin="round"/>
<g clip-path="url(#clip6_3040_7685)">
<rect x="2097.8" y="1212.61" width="32.2623" height="32.2623" rx="16.1311" transform="rotate(60 2097.8 1212.61)" fill="url(#paint0_linear_3040_7685)"/>
<path d="M2086.55 1242.1L2082.77 1235.54C2081.51 1233.36 2082.26 1230.57 2084.44 1229.31L2091 1225.52C2093.17 1224.26 2095.97 1225.01 2097.23 1227.19L2101.02 1233.75C2102.27 1235.93 2101.52 1238.73 2099.35 1239.98L2092.79 1243.77C2090.61 1245.03 2087.81 1244.28 2086.55 1242.1Z" stroke="white" stroke-width="1.5"/>
<path d="M2088.27 1236.74C2087.11 1234.74 2087.8 1232.18 2089.8 1231.02C2091.8 1229.87 2094.36 1230.56 2095.52 1232.55C2096.67 1234.55 2095.98 1237.12 2093.99 1238.27C2091.99 1239.42 2089.42 1238.74 2088.27 1236.74Z" stroke="white" stroke-width="1.5"/>
<path d="M2098.99 1237.07C2098.66 1237.26 2098.23 1237.15 2098.03 1236.81C2097.84 1236.47 2097.95 1236.04 2098.29 1235.84C2098.63 1235.65 2099.06 1235.76 2099.25 1236.1C2099.45 1236.44 2099.33 1236.87 2098.99 1237.07V1237.07Z" fill="white"/>
</g>
<path d="M2108.66 1223.63C2113.72 1233.4 2111.75 1242.55 2104 1249.61C2096.25 1256.68 2080.38 1255.44 2073.31 1247.69L2080.13 1247.86C2080.13 1247.86 2062.41 1237.16 2051.15 1240.78C2051.15 1240.78 2058.15 1234.14 2063.66 1236.76C2063.66 1236.76 2050.77 1231.47 2047.21 1225.17L2055.16 1229.72C2044.42 1212.69 2039.72 1202.36 2018.25 1192.8C2018.25 1192.8 2028.76 1194.3 2035.48 1198.2L2011.36 1170.91C2011.36 1170.91 2027.77 1175.95 2050.65 1187.41C2050.65 1187.41 2046.43 1182.34 2044.72 1176.72C2052.54 1186.22 2075.07 1202.92 2080.6 1204.93L2072.73 1197.28C2079.01 1197.44 2084.4 1201.92 2090.4 1210.14L2085.73 1198.23C2089.27 1205.77 2102.02 1216.64 2102.02 1216.64L2100.89 1212.27C2104.51 1216.08 2106.19 1218.86 2108.66 1223.63Z" stroke="#D9D9D9" stroke-linejoin="round"/>
<path d="M2108.66 1223.63C2113.72 1233.4 2111.75 1242.55 2104 1249.61C2096.25 1256.68 2080.38 1255.44 2073.31 1247.69L2080.13 1247.86C2080.13 1247.86 2062.41 1237.16 2051.15 1240.78C2051.15 1240.78 2058.15 1234.14 2063.66 1236.76C2063.66 1236.76 2050.77 1231.47 2047.21 1225.17L2055.16 1229.72C2044.42 1212.69 2039.72 1202.36 2018.25 1192.8C2018.25 1192.8 2028.76 1194.3 2035.48 1198.2L2011.36 1170.91C2011.36 1170.91 2027.77 1175.95 2050.65 1187.41C2050.65 1187.41 2046.43 1182.34 2044.72 1176.72C2052.54 1186.22 2075.07 1202.92 2080.6 1204.93L2072.73 1197.28C2079.01 1197.44 2084.4 1201.92 2090.4 1210.14L2085.73 1198.23C2089.27 1205.77 2102.02 1216.64 2102.02 1216.64L2100.89 1212.27C2104.51 1216.08 2106.19 1218.86 2108.66 1223.63Z" stroke="#053D75" stroke-linejoin="round"/>
<defs>
<linearGradient id="paint0_linear_3040_7685" x1="2100.75" y1="1241.92" x2="2127.11" y2="1215.56" gradientUnits="userSpaceOnUse">
<stop stop-color="#FFC107"/>
<stop offset="0.507" stop-color="#F44336"/>
<stop offset="0.99" stop-color="#9C27B0"/>
</linearGradient>
<clipPath id="clip0_3040_7685">
<rect width="76.4045" height="76.4045" fill="white" transform="translate(1830.49 1025.76) rotate(60)"/>
</clipPath>
<clipPath id="clip1_3040_7685">
<rect x="2409.55" y="1468.36" width="50" height="50" rx="25" transform="rotate(120 2409.55 1468.36)" fill="white"/>
</clipPath>
<clipPath id="clip2_3040_7685">
<rect width="30" height="30" fill="white" transform="translate(2395.89 1472.02) rotate(120)"/>
</clipPath>
<clipPath id="clip3_3040_7685">
<rect x="1786.68" y="2557.95" width="25.25" height="25.25" rx="12.625" transform="rotate(-156.254 1786.68 2557.95)" fill="white"/>
</clipPath>
<clipPath id="clip4_3040_7685">
<rect x="2403.96" y="1868.57" width="50" height="50" rx="25" transform="rotate(125.943 2403.96 1868.57)" fill="white"/>
</clipPath>
<clipPath id="clip5_3040_7685">
<rect x="2164.8" y="2421.07" width="31.3741" height="31.3741" rx="15.687" transform="rotate(-162.198 2164.8 2421.07)" fill="white"/>
</clipPath>
<clipPath id="clip6_3040_7685">
<rect x="2097.8" y="1212.61" width="32.2623" height="32.2623" rx="16.1311" transform="rotate(60 2097.8 1212.61)" fill="white"/>
</clipPath>
</defs>
</svg>
