<svg width="206" height="446" viewBox="0 0 206 446" fill="none" xmlns="http://www.w3.org/2000/svg">
<g clip-path="url(#clip0_2530_3553)">
<rect width="205.86" height="445.756" rx="10.9792" fill="#E8F0FF"/>
<path d="M181.21 5.34888V10.8428H180.516V6.21574L179.116 6.7261V6.09941L181.101 5.34888H181.21ZM185.533 5.34888V10.8428H184.839V6.21574L183.439 6.7261V6.09941L185.424 5.34888H185.533ZM187.62 10.475C187.62 10.3574 187.656 10.2586 187.728 10.1786C187.803 10.096 187.911 10.0547 188.051 10.0547C188.191 10.0547 188.298 10.096 188.37 10.1786C188.445 10.2586 188.483 10.3574 188.483 10.475C188.483 10.5901 188.445 10.6877 188.37 10.7677C188.298 10.8478 188.191 10.8878 188.051 10.8878C187.911 10.8878 187.803 10.8478 187.728 10.7677C187.656 10.6877 187.62 10.5901 187.62 10.475ZM187.623 7.16141C187.623 7.04383 187.66 6.94501 187.732 6.86495C187.807 6.78239 187.915 6.74111 188.055 6.74111C188.195 6.74111 188.301 6.78239 188.374 6.86495C188.449 6.94501 188.486 7.04383 188.486 7.16141C188.486 7.27649 188.449 7.37406 188.374 7.45412C188.301 7.53418 188.195 7.5742 188.055 7.5742C187.915 7.5742 187.807 7.53418 187.732 7.45412C187.66 7.37406 187.623 7.27649 187.623 7.16141ZM191.718 5.34888V10.8428H191.023V6.21574L189.624 6.7261V6.09941L191.609 5.34888H191.718ZM196.041 5.34888V10.8428H195.346V6.21574L193.947 6.7261V6.09941L195.932 5.34888H196.041Z" fill="#838993"/>
<path d="M9.51779 5.07868V10.8428H8.81979V5.07868H9.51779ZM11.3866 6.78239V10.8428H10.6886V6.78239H11.3866ZM10.6361 5.70538C10.6361 5.5928 10.6699 5.49773 10.7374 5.42018C10.8075 5.34262 10.91 5.30384 11.0451 5.30384C11.1777 5.30384 11.279 5.34262 11.3491 5.42018C11.4216 5.49773 11.4579 5.5928 11.4579 5.70538C11.4579 5.81296 11.4216 5.90552 11.3491 5.98308C11.279 6.05813 11.1777 6.09566 11.0451 6.09566C10.91 6.09566 10.8075 6.05813 10.7374 5.98308C10.6699 5.90552 10.6361 5.81296 10.6361 5.70538ZM13.5369 10.8428H12.8426V6.35459C12.8426 6.06188 12.8952 5.81546 13.0003 5.61532C13.1078 5.41267 13.2617 5.26006 13.4618 5.15749C13.662 5.05242 13.8996 4.99988 14.1748 4.99988C14.2549 4.99988 14.335 5.00488 14.415 5.01489C14.4976 5.0249 14.5776 5.03991 14.6552 5.05992L14.6177 5.62657C14.5651 5.61406 14.5051 5.60531 14.4375 5.6003C14.3725 5.5953 14.3074 5.5928 14.2424 5.5928C14.0948 5.5928 13.9672 5.62282 13.8596 5.68286C13.7545 5.7404 13.6745 5.82546 13.6194 5.93804C13.5644 6.05062 13.5369 6.18947 13.5369 6.35459V10.8428ZM14.4 6.78239V7.31527H12.2009V6.78239H14.4ZM16.7679 10.9178C16.4852 10.9178 16.2288 10.8703 15.9986 10.7752C15.771 10.6777 15.5746 10.5413 15.4095 10.3662C15.2468 10.1911 15.1218 9.98341 15.0342 9.74324C14.9466 9.50307 14.9029 9.24039 14.9029 8.95518V8.79757C14.9029 8.46734 14.9516 8.17338 15.0492 7.9157C15.1468 7.65551 15.2794 7.43536 15.447 7.25523C15.6146 7.0751 15.8047 6.93875 16.0174 6.84619C16.23 6.75362 16.4502 6.70734 16.6779 6.70734C16.9681 6.70734 17.2182 6.75738 17.4284 6.85745C17.641 6.95752 17.8149 7.09762 17.95 7.27774C18.0851 7.45537 18.1852 7.66552 18.2502 7.90819C18.3153 8.14836 18.3478 8.41105 18.3478 8.69625V9.00772H15.3156V8.44107H17.6536V8.38853C17.6435 8.2084 17.606 8.03328 17.541 7.86316C17.4784 7.69304 17.3784 7.55294 17.2408 7.44286C17.1032 7.33278 16.9155 7.27774 16.6779 7.27774C16.5203 7.27774 16.3751 7.31152 16.2426 7.37907C16.11 7.44411 15.9961 7.54168 15.9011 7.67177C15.806 7.80187 15.7322 7.96073 15.6797 8.14836C15.6271 8.336 15.6009 8.5524 15.6009 8.79757V8.95518C15.6009 9.14782 15.6271 9.3292 15.6797 9.49932C15.7347 9.66694 15.8135 9.81454 15.9161 9.94213C16.0211 10.0697 16.1475 10.1698 16.2951 10.2423C16.4452 10.3149 16.6153 10.3512 16.8055 10.3512C17.0506 10.3512 17.2583 10.3011 17.4284 10.2011C17.5985 10.101 17.7474 9.96715 17.875 9.79953L18.2953 10.1335C18.2077 10.2661 18.0964 10.3925 17.9613 10.5125C17.8262 10.6326 17.6598 10.7302 17.4622 10.8052C17.267 10.8803 17.0356 10.9178 16.7679 10.9178ZM20.7833 10.3474C20.9484 10.3474 21.101 10.3136 21.2411 10.2461C21.3812 10.1786 21.4963 10.086 21.5863 9.9684C21.6764 9.84832 21.7277 9.71197 21.7402 9.55936H22.4007C22.3882 9.79953 22.3069 10.0234 22.1568 10.2311C22.0091 10.4362 21.8153 10.6026 21.5751 10.7302C21.3349 10.8553 21.071 10.9178 20.7833 10.9178C20.4781 10.9178 20.2116 10.864 19.984 10.7565C19.7588 10.6489 19.5712 10.5013 19.4211 10.3136C19.2735 10.126 19.1621 9.91086 19.0871 9.66819C19.0145 9.42302 18.9782 9.16408 18.9782 8.89139V8.73378C18.9782 8.46108 19.0145 8.2034 19.0871 7.96073C19.1621 7.71556 19.2735 7.49915 19.4211 7.31152C19.5712 7.12389 19.7588 6.97628 19.984 6.8687C20.2116 6.76113 20.4781 6.70734 20.7833 6.70734C21.101 6.70734 21.3787 6.77239 21.6164 6.90248C21.854 7.03007 22.0404 7.20519 22.1755 7.42785C22.3131 7.64801 22.3882 7.89818 22.4007 8.17838H21.7402C21.7277 8.01076 21.6802 7.85941 21.5976 7.72431C21.5175 7.58922 21.4075 7.48164 21.2674 7.40158C21.1298 7.31902 20.9684 7.27774 20.7833 7.27774C20.5706 7.27774 20.3917 7.32027 20.2466 7.40533C20.104 7.48789 19.9902 7.60047 19.9052 7.74307C19.8226 7.88317 19.7626 8.03953 19.725 8.21216C19.69 8.38228 19.6725 8.55615 19.6725 8.73378V8.89139C19.6725 9.06902 19.69 9.24414 19.725 9.41676C19.7601 9.58938 19.8188 9.74575 19.9014 9.88584C19.9865 10.0259 20.1003 10.1385 20.2429 10.2236C20.388 10.3061 20.5681 10.3474 20.7833 10.3474ZM24.8662 10.9178C24.5835 10.9178 24.327 10.8703 24.0969 10.7752C23.8692 10.6777 23.6728 10.5413 23.5077 10.3662C23.3451 10.1911 23.22 9.98341 23.1324 9.74324C23.0449 9.50307 23.0011 9.24039 23.0011 8.95518V8.79757C23.0011 8.46734 23.0499 8.17338 23.1475 7.9157C23.245 7.65551 23.3776 7.43536 23.5452 7.25523C23.7129 7.0751 23.903 6.93875 24.1156 6.84619C24.3283 6.75362 24.5484 6.70734 24.7761 6.70734C25.0663 6.70734 25.3165 6.75738 25.5266 6.85745C25.7393 6.95752 25.9132 7.09762 26.0483 7.27774C26.1834 7.45537 26.2834 7.66552 26.3485 7.90819C26.4135 8.14836 26.446 8.41105 26.446 8.69625V9.00772H23.4139V8.44107H25.7518V8.38853C25.7418 8.2084 25.7043 8.03328 25.6392 7.86316C25.5767 7.69304 25.4766 7.55294 25.339 7.44286C25.2014 7.33278 25.0138 7.27774 24.7761 7.27774C24.6185 7.27774 24.4734 7.31152 24.3408 7.37907C24.2082 7.44411 24.0944 7.54168 23.9993 7.67177C23.9042 7.80187 23.8304 7.96073 23.7779 8.14836C23.7254 8.336 23.6991 8.5524 23.6991 8.79757V8.95518C23.6991 9.14782 23.7254 9.3292 23.7779 9.49932C23.8329 9.66694 23.9117 9.81454 24.0143 9.94213C24.1194 10.0697 24.2457 10.1698 24.3933 10.2423C24.5434 10.3149 24.7136 10.3512 24.9037 10.3512C25.1489 10.3512 25.3565 10.3011 25.5266 10.2011C25.6968 10.101 25.8456 9.96715 25.9732 9.79953L26.3935 10.1335C26.3059 10.2661 26.1946 10.3925 26.0595 10.5125C25.9244 10.6326 25.7581 10.7302 25.5604 10.8052C25.3653 10.8803 25.1339 10.9178 24.8662 10.9178ZM28.0109 5.07868V10.8428H27.3129V5.07868H28.0109ZM29.8797 5.07868V10.8428H29.1817V5.07868H29.8797Z" fill="#838993"/>
<path d="M144.378 12.133L139.592 6.1695C141.149 5.07587 142.744 4.52905 144.378 4.52905C146.012 4.52905 147.607 5.07587 149.164 6.1695L144.378 12.133Z" fill="#838993"/>
<path d="M152.891 12.3451L161.112 4.12354V12.3451H152.891Z" fill="#838993"/>
<path d="M171.135 4.93411C171.289 4.93411 171.418 4.99201 171.521 5.1078C171.637 5.21074 171.695 5.3394 171.695 5.49379V11.8047C171.695 11.9591 171.637 12.0878 171.521 12.1907C171.418 12.2936 171.289 12.3451 171.135 12.3451H168.124C167.97 12.3451 167.835 12.2936 167.719 12.1907C167.616 12.0878 167.564 11.9591 167.564 11.8047V5.49379C167.564 5.3394 167.616 5.21074 167.719 5.1078C167.835 4.99201 167.97 4.93411 168.124 4.93411H168.8V4.12354H170.459V4.93411H171.135Z" fill="#838993"/>
</g>
<defs>
<clipPath id="clip0_2530_3553">
<rect width="205.86" height="445.756" rx="10.9792" fill="white"/>
</clipPath>
</defs>
</svg>
