<svg width="389" height="562" viewBox="0 0 389 562" fill="none" xmlns="http://www.w3.org/2000/svg">
<path d="M131.316 342.626C131.316 342.626 78.869 364.666 69.979 378.292C66.4156 383.754 67.3402 392.251 67.3402 392.251H93.6857L131.316 342.626Z" fill="url(#paint0_linear_3084_7753)"/>
<path d="M263.12 403.566C306.934 404.972 383.543 401.726 388.262 358.385C392.334 320.986 378.991 261.714 362.162 236.359C361.343 235.125 360.517 233.974 359.683 232.907C357.797 230.492 355.874 228.522 353.939 227.071C323.75 204.446 220.93 235.125 220.035 276.562C219.46 303.097 219.307 402.161 263.12 403.566Z" fill="url(#paint1_linear_3084_7753)"/>
<path d="M349.638 299.79L369.083 292.038C373.478 290.287 378.423 292.774 379.611 297.355C383.696 313.111 389.986 345.772 374.132 352.458C354.916 360.562 348.106 338.394 344.727 307.942C344.338 304.43 346.36 301.096 349.638 299.79Z" fill="url(#paint2_linear_3084_7753)"/>
<path d="M322.925 250.564C323.2 251.105 323.837 251.339 324.388 251.12L324.408 251.113C328.266 249.581 332.228 248.164 336.165 246.74L362.164 236.36C361.345 235.125 360.519 233.975 359.685 232.907L334.835 243.511C331.023 245.302 327.221 247.072 323.434 248.998C322.861 249.29 322.632 249.991 322.925 250.564Z" fill="#9CBDEA"/>
<path d="M2.26188 202.238C2.8816 205.819 3.73002 209.473 4.80961 213.152C9.39356 228.793 32.3281 252.519 68.048 269.288C69.3539 269.903 70.6794 270.506 72.0196 271.101C74.319 272.121 76.6675 273.11 79.0652 274.067C91.4842 260.662 95.9378 222.797 96.9707 202.059C96.9412 202.044 96.9117 202.027 96.8797 202.01C95.0574 201.055 93.277 200.077 91.5433 199.073C89.7382 198.033 87.9872 196.966 86.2953 195.874C82.1712 193.213 78.4136 190.405 75.1527 187.449C75.1527 187.449 74.6288 161.632 67.3078 159.001C58.3661 155.789 51.7435 173.948 51.7435 173.948L51.741 173.945C51.441 173.638 31.3321 153.044 19.5574 155.054C4.21693 157.668 -1.8745 178.308 2.26188 202.238Z" fill="url(#paint3_linear_3084_7753)"/>
<path d="M79.0661 274.066C82.2729 275.345 85.5657 276.565 88.9422 277.716C107.625 284.088 128.848 288.364 152.05 289.036C160.013 289.279 168.207 289.082 176.61 288.406L183.956 257.037L189.836 231.928C189.836 231.928 177.053 229.599 159.58 224.954C145.777 221.299 129.049 216.201 113.369 209.682C111.154 208.762 108.96 207.813 106.798 206.834C103.429 205.312 100.141 203.721 96.9715 202.059C95.9387 222.797 91.485 260.661 79.0661 274.066Z" fill="url(#paint4_linear_3084_7753)"/>
<path d="M87.2694 392.251H201.58C201.58 392.251 230.589 442.586 245.957 441.373C286.384 438.184 329.931 431.783 332.317 355.083C333.795 307.403 310.211 260.492 292.146 231.835C281.146 214.374 272.194 203.677 272.194 203.677L160.913 209.358C160.913 209.358 160.482 215.225 159.585 224.956C159.026 231.033 158.281 238.61 157.337 247.202C155.987 259.54 154.241 273.963 152.052 289.038C148.7 312.133 144.311 336.742 138.782 357.67C136.397 366.724 95.4044 361.462 87.2694 392.251Z" fill="url(#paint5_linear_3084_7753)"/>
<path d="M185.726 489.508C179.497 499.622 159.73 536.867 178.427 552.446C196.271 567.324 229.203 564.877 246.557 541.493C258.024 526.022 260.353 508.19 259.702 494.546C259.229 484.798 257.98 475.325 258.902 466.708C259.175 464.124 259.647 461.618 260.393 459.203C253.013 431.173 232.581 419.189 222.73 414.927C204.972 407.252 184.851 407.933 172.98 416.223C172.235 417.913 171.566 419.644 170.974 421.407C164.533 440.525 166.935 463.349 176.308 474.492C181.477 480.637 187.042 487.469 187.042 487.469C186.739 487.904 186.287 488.595 185.726 489.508Z" fill="url(#paint6_linear_3084_7753)"/>
<path d="M172.98 416.223C184.85 407.933 204.971 407.252 222.729 414.927C232.581 419.189 253.012 431.173 260.392 459.203C261.223 456.505 262.399 453.923 264.029 451.478C264.614 450.598 265.313 449.752 266.11 448.936C277.577 437.161 309.507 431.5 325.922 412.68C336.271 400.831 341.811 379.306 340.869 352.941C340.741 349.397 340.496 345.765 340.129 342.054C320.76 360.685 254.414 355.188 242.482 345.743C242.211 345.529 241.953 345.315 241.707 345.096C235.829 362.706 230.463 376.229 226.676 380.703C225.872 381.659 225.139 382.193 224.488 382.286C216.537 383.393 208.739 385.616 201.346 388.993C194.734 392.017 188.345 395.999 183.048 401.237C182.435 401.847 181.84 402.474 181.267 403.121C177.856 406.947 175.104 411.408 172.98 416.223Z" fill="url(#paint7_linear_3084_7753)"/>
<path d="M241.709 345.096C241.955 345.315 242.213 345.529 242.483 345.743C254.415 355.188 320.762 360.685 340.131 342.054C339.669 337.381 339.014 332.586 338.159 327.692C337.409 323.406 336.504 319.046 335.439 314.629C327.245 280.625 309.548 243.184 279.839 209.589C279.839 209.589 266.5 262.949 252.519 310.36C251.086 315.226 249.642 320.032 248.208 324.709C246.007 331.88 243.826 338.754 241.709 345.096Z" fill="url(#paint8_linear_3084_7753)"/>
<path d="M185.727 489.508C188.118 490.034 190.629 490.514 193.213 490.915C196.74 491.463 200.433 491.891 203.849 492.026C207.258 492.171 210.334 492.051 212.525 491.647C209.142 491.367 206.122 491.099 203.185 490.688C201.729 490.501 200.308 490.283 198.914 490.051C197.519 489.825 196.147 489.577 194.807 489.299C192.121 488.753 189.529 488.133 187.043 487.469C186.741 487.905 186.288 488.596 185.727 489.508Z" fill="#9CBDEA"/>
<path d="M91.5158 154.259C92.9003 154.348 94.0931 153.298 94.1816 151.913L98.7975 79.7207C98.8861 78.3362 97.836 77.1435 96.4514 77.055C81.9298 76.1278 69.4051 87.1451 68.478 101.667L66.9041 126.283C65.9745 140.807 76.9942 153.332 91.5158 154.259Z" fill="url(#paint9_linear_3084_7753)"/>
<path d="M334.74 92.2869C333.355 92.1984 332.163 93.2485 332.074 94.633L327.458 166.825C327.37 168.21 328.42 169.403 329.804 169.491C344.326 170.418 356.85 159.401 357.778 144.879L359.352 120.263C360.281 105.741 349.261 93.2165 334.74 92.2869Z" fill="url(#paint10_linear_3084_7753)"/>
<path d="M89.844 124.154C90.3309 192.234 145.916 247.028 213.994 246.541C282.075 246.054 336.868 190.471 336.382 122.39C336.222 100.034 330.12 79.1108 319.588 61.107C315.579 54.2557 310.929 47.8273 305.715 41.9056C282.931 15.9905 249.449 -0.262388 212.231 0.00320636C176.44 0.258963 144.32 15.7446 121.976 40.2677C116.841 45.9018 112.223 52.0104 108.197 58.5249C96.4076 77.5861 89.6718 100.09 89.844 124.154Z" fill="url(#paint11_linear_3084_7753)"/>
<path d="M121.974 40.2679C146.552 25.7734 178.381 18.0195 214.374 18.29C250.101 18.5753 281.552 26.8923 305.714 41.9058C310.927 47.8275 315.577 54.2559 319.586 61.1072C296.142 37.6194 258.856 24.2561 214.293 23.9019C169.825 23.5257 132.222 35.9889 108.195 58.5251C112.221 52.0106 116.839 45.902 121.974 40.2679Z" fill="#9CBDEA"/>
<path d="M137.681 361.292C141.146 362.001 145.447 362.827 150.4 363.683C156.236 364.689 162.984 365.736 170.344 366.671C171.556 366.823 172.786 366.976 174.03 367.123C188.041 368.778 203.993 369.968 220 369.723C225.602 369.634 230.127 365.126 230.275 359.522L231.618 306.376C231.77 300.39 226.881 295.499 220.898 295.651C213.041 295.853 201.8 296.079 189.949 296.119C188.729 296.124 187.502 296.126 186.272 296.126C171.923 296.128 157.104 295.828 146.628 294.864C141.035 294.346 136.046 298.364 135.328 303.939L131.993 329.679L129.396 349.7C128.693 355.142 132.295 360.198 137.681 361.292Z" fill="url(#paint12_linear_3084_7753)"/>
<path d="M221.699 295.664L242.829 297.916C247.462 298.41 250.929 302.389 250.787 307.045L249.178 359.77C249.038 364.366 245.421 368.102 240.832 368.39L221.311 369.612" fill="white"/>
<path d="M221.699 295.664L242.829 297.916C247.462 298.41 250.929 302.389 250.787 307.045L249.178 359.77C249.038 364.366 245.421 368.102 240.832 368.39L221.311 369.612" fill="url(#paint13_linear_3084_7753)"/>
<path d="M241.707 345.096C241.953 345.315 242.212 345.529 242.482 345.743C254.414 355.188 320.761 360.685 340.13 342.054C340.42 341.776 340.7 341.491 340.968 341.201C344.217 337.696 345.269 334.027 345.107 330.562C344.955 333.614 343.791 336.781 340.968 339.826C340.7 340.116 340.42 340.401 340.13 340.679C320.761 359.31 254.414 353.814 242.482 344.368C242.212 344.154 241.953 343.94 241.707 343.721C238.533 340.942 237.291 338.026 237.121 335.286C236.927 338.407 237.996 341.847 241.707 345.096Z" fill="#9CBDEA"/>
<path d="M237.121 335.286C237.291 338.026 238.533 340.942 241.708 343.721C241.954 343.94 242.212 344.154 242.482 344.368C254.414 353.814 320.761 359.31 340.13 340.679C340.42 340.401 340.701 340.116 340.969 339.826C343.792 336.781 344.955 333.614 345.107 330.562C344.699 321.731 336.39 314.238 336.39 314.238C336.39 314.238 336.077 314.38 335.438 314.629C330.237 316.67 303.426 325.939 248.207 324.709C246.334 324.667 244.425 324.613 242.482 324.547C242.482 324.547 237.493 329.327 237.121 335.286Z" fill="url(#paint14_linear_3084_7753)"/>
<path d="M170.344 366.67C171.557 366.823 172.786 366.975 174.031 367.123L174.195 338.166L189.969 328.653L189.949 296.118C188.729 296.123 187.502 296.126 186.273 296.126V326.839L170.477 336.562L170.344 366.67Z" fill="#0876E4"/>
<path d="M155.444 337.824C144.307 337.824 135.278 328.795 135.278 317.658C135.278 306.521 144.307 297.493 155.444 297.493C166.581 297.493 175.609 306.521 175.609 317.658C175.609 328.795 166.581 337.824 155.444 337.824Z" fill="url(#paint15_radial_3084_7753)"/>
<path fill-rule="evenodd" clip-rule="evenodd" d="M146.292 310.589L153.795 306.167C154.737 305.614 155.905 305.614 156.844 306.167L164.347 310.589C165.262 311.127 165.823 312.108 165.823 313.171V322.203C165.823 323.263 165.262 324.247 164.347 324.786L156.844 329.207C155.903 329.763 154.734 329.763 153.795 329.207L146.292 324.786C145.377 324.247 144.816 323.263 144.816 322.203V313.171C144.816 312.108 145.377 311.127 146.292 310.589ZM152.777 304.445C154.346 303.521 156.291 303.521 157.86 304.445L165.363 308.867C166.888 309.765 167.822 311.403 167.822 313.171V322.203C167.822 323.972 166.888 325.607 165.363 326.507L157.86 330.929C156.291 331.853 154.346 331.853 152.777 330.929L145.274 326.507C143.749 325.609 142.815 323.972 142.815 322.203V313.171C142.815 311.403 143.749 309.767 145.274 308.867L152.777 304.445Z" fill="#0876E4"/>
<path fill-rule="evenodd" clip-rule="evenodd" d="M155.126 310.906C157.428 310.906 159.295 312.77 159.295 315.069C159.295 315.465 158.972 315.787 158.576 315.787C158.18 315.787 157.858 315.465 157.858 315.069C157.858 313.562 156.636 312.342 155.129 312.342C153.621 312.342 152.399 313.564 152.399 315.069V316.36H158.867C159.582 316.36 160.16 316.938 160.16 317.651V321.384C160.16 322.575 159.196 323.539 158.003 323.539H152.254C151.064 323.539 150.097 322.575 150.097 321.384V317.651C150.097 317.088 150.456 316.611 150.96 316.432V315.067C150.958 312.77 152.824 310.906 155.126 310.906ZM151.676 317.799C151.678 317.799 151.678 317.799 151.676 317.799H158.719V321.389C158.719 321.785 158.397 322.107 158.001 322.107H152.251C151.855 322.107 151.533 321.785 151.533 321.389V317.799H151.676ZM155.126 319.378C155.443 319.378 155.702 319.636 155.702 319.953C155.702 320.27 155.443 320.529 155.126 320.529C154.809 320.529 154.551 320.27 154.551 319.953C154.551 319.636 154.809 319.378 155.126 319.378ZM156.277 319.953C156.277 319.319 155.763 318.805 155.126 318.805C154.489 318.805 153.975 319.319 153.975 319.953C153.975 320.588 154.489 321.102 155.126 321.102C155.763 321.102 156.277 320.585 156.277 319.953Z" fill="#0876E4"/>
<path d="M99.5384 401.886C109.483 413.914 132.843 425.522 150.026 414.755C164.375 405.762 165.268 397.216 175.442 389.809C177.136 388.575 189.634 384.805 206.206 376.65C208.398 375.575 210.66 374.419 212.977 373.185C212.863 372.929 212.772 372.661 212.704 372.381C212.576 371.859 200.73 324.697 171.522 316.731C169.505 318.131 167.486 319.52 165.475 320.897C143.74 335.778 122.473 349.5 106.225 364.162C86.7776 381.709 89.8369 390.151 99.5384 401.886Z" fill="url(#paint16_linear_3084_7753)"/>
<path d="M171.522 316.731C200.73 324.696 212.576 371.859 212.704 372.38C212.773 372.661 212.864 372.929 212.977 373.185C215.714 371.726 218.532 370.152 221.4 368.458C241.209 356.772 263.499 339.363 279.828 313.915L237.099 259.697C221.481 279.184 201.461 295.398 180.897 310.126C177.781 312.361 174.65 314.56 171.522 316.731Z" fill="url(#paint17_linear_3084_7753)"/>
<path d="M165.475 320.897C190.925 330.997 203.022 365.884 206.206 376.65C208.398 375.575 210.66 374.419 212.977 373.185C212.863 372.929 212.772 372.661 212.704 372.381C212.576 371.859 200.73 324.697 171.522 316.731C169.505 318.131 167.486 319.52 165.475 320.897Z" fill="#0876E4"/>
<path d="M2.26185 202.238C17.0466 205.467 46.6283 210.523 50.4032 200.249C55.4618 186.477 51.7435 173.948 51.7435 173.948L51.741 173.945C51.441 173.638 31.3321 153.044 19.5574 155.054C4.21691 157.668 -1.87453 178.308 2.26185 202.238Z" fill="url(#paint18_linear_3084_7753)"/>
<mask id="mask0_3084_7753" style="mask-type:luminance" maskUnits="userSpaceOnUse" x="87" y="32" width="254" height="204">
<path d="M87.4652 134.581C88.9555 159.741 98.4062 182.609 113.348 201.1C124.55 214.962 168.577 237.739 221.116 235.032C269.83 232.521 312.573 203.554 322.061 188.437C334.716 168.274 341.4 144.425 339.91 119.265C335.968 52.6844 277.825 28.5104 208.111 32.7402C138.398 36.9701 83.5231 68.0003 87.4652 134.581Z" fill="white"/>
</mask>
<g mask="url(#mask0_3084_7753)">
<path d="M87.4652 134.581C88.9555 159.741 98.4062 182.609 113.348 201.1C124.55 214.962 168.577 237.739 221.116 235.032C269.83 232.521 312.573 203.554 322.061 188.437C334.716 168.274 341.4 144.425 339.91 119.265C335.968 52.6844 277.825 28.5104 208.111 32.7402C138.398 36.9701 83.5231 68.0003 87.4652 134.581Z" fill="#371A45"/>
</g>
<mask id="mask1_3084_7753" style="mask-type:luminance" maskUnits="userSpaceOnUse" x="87" y="32" width="254" height="204">
<path d="M87.4652 134.581C88.9555 159.741 98.4062 182.609 113.348 201.1C124.55 214.962 168.577 237.739 221.116 235.032C269.83 232.521 312.573 203.554 322.061 188.437C334.716 168.274 341.4 144.425 339.91 119.265C335.968 52.6844 277.825 28.5104 208.111 32.7402C138.398 36.9701 83.5231 68.0003 87.4652 134.581Z" fill="white"/>
</mask>
<g mask="url(#mask1_3084_7753)">
<path d="M279.387 141.556C279.387 141.556 281.434 132.697 294.475 126.329C307.514 119.961 313.187 127.647 314.746 136.539C316.304 145.431 307.531 168.897 297.665 173.529C287.799 178.161 281.597 171.413 281.597 171.413L279.389 141.555L279.387 141.556Z" fill="url(#paint19_linear_3084_7753)"/>
<g style="mix-blend-mode:multiply" opacity="0.6">
<path d="M280.532 157.057L281.205 166.154C281.205 166.154 284.615 155.428 287.164 155.389C289.713 155.35 289.175 162.295 290.248 164.618C291.322 166.941 294.715 164.138 294.948 156.314C295.178 148.491 289.841 148.971 289.841 148.971C289.841 148.971 294.737 134.663 302.349 138.153C309.964 141.643 307.1 160.422 307.1 160.422C307.1 160.422 315.872 142.146 313.288 135.844C310.707 129.54 304.417 129.546 294.717 136.418C289.96 139.787 285.599 146.872 282.392 153.213C281.718 154.542 281.096 155.838 280.532 157.057Z" fill="url(#paint20_linear_3084_7753)"/>
</g>
<g style="mix-blend-mode:multiply" opacity="0.6">
<path d="M280.472 156.228L280.93 162.43C282.241 159.375 285.683 152.014 287.642 153.704C290.097 155.821 289.204 160.118 291.323 162.898C293.445 165.679 295.601 157.618 293.632 152.512C291.663 147.406 285.54 149.94 283.779 151.561C283.356 151.951 282.885 152.526 282.39 153.214C281.765 154.086 281.107 155.137 280.472 156.228Z" fill="url(#paint21_linear_3084_7753)"/>
</g>
<path d="M148.367 151.242C148.367 151.242 145.039 142.781 131.206 138.4C117.372 134.018 112.892 142.455 112.657 151.48C112.423 160.505 124.552 182.425 134.991 185.556C145.431 188.687 150.574 181.1 150.574 181.1L148.367 151.242Z" fill="url(#paint22_linear_3084_7753)"/>
<g style="mix-blend-mode:multiply" opacity="0.6">
<path d="M149.513 166.744L150.185 175.841C150.185 175.841 145.235 165.733 142.708 166.069C140.181 166.406 141.734 173.196 141.014 175.651C140.294 178.107 136.525 175.833 135.145 168.129C133.766 160.425 139.116 160.115 139.116 160.115C139.116 160.115 132.169 146.682 125.151 151.254C118.132 155.826 123.726 173.979 123.726 173.979C123.726 173.979 112.361 157.192 113.991 150.578C115.617 143.964 121.839 143.044 132.445 148.416C137.645 151.048 143.001 157.415 147.105 163.215C147.967 164.43 148.774 165.621 149.513 166.744Z" fill="url(#paint23_linear_3084_7753)"/>
</g>
<g style="mix-blend-mode:multiply" opacity="0.6">
<path d="M149.451 165.914L149.91 172.116C148.164 169.288 143.68 162.513 141.988 164.472C139.871 166.928 141.387 171.047 139.699 174.108C138.009 177.17 134.692 169.514 135.888 164.174C137.084 158.834 143.514 160.441 145.494 161.785C145.972 162.108 146.521 162.608 147.11 163.215C147.855 163.987 148.661 164.929 149.451 165.914Z" fill="url(#paint24_linear_3084_7753)"/>
</g>
<path d="M195.424 259.08C194.838 251.152 192.048 213.417 192.048 213.417L218.826 214.625L245.135 209.493C245.135 209.493 247.925 247.227 248.511 255.155C249.097 263.083 254.949 265.265 254.949 265.265C254.949 265.265 250.151 273.351 223.314 275.335C196.478 277.319 190.543 270.026 190.543 270.026C190.543 270.026 196.01 267.008 195.424 259.08Z" fill="url(#paint25_linear_3084_7753)"/>
<g style="mix-blend-mode:multiply" opacity="0.6">
<path d="M192.047 213.415C192.047 213.415 193.636 234.902 194.667 248.855C199.211 252.838 204.979 255.814 212.081 255.816C229.558 255.82 242.197 234.053 246.345 225.837C245.684 216.896 245.137 209.487 245.137 209.487L218.825 214.62L192.047 213.415Z" fill="#D077B7"/>
</g>
<path d="M145.398 128.25C143.733 105.722 136.671 53.7683 206.762 48.5865C276.854 43.4046 277.509 95.8321 279.175 118.36C280.915 141.903 290.331 175.875 284.605 187.762C270.868 216.277 233.246 228.133 220.108 229.104C206.97 230.076 168.013 223.881 150.233 197.696C142.821 186.78 147.139 151.793 145.398 128.25Z" fill="url(#paint26_linear_3084_7753)"/>
<g style="mix-blend-mode:multiply" opacity="0.6">
<path d="M150.231 197.693C168.009 223.881 206.968 230.073 220.106 229.102C233.244 228.13 270.867 216.275 284.603 187.759C286.592 183.632 286.171 168.962 285.569 162.283C285.884 167.842 286.132 181.566 284.41 185.141C270.676 213.657 233.051 225.51 219.913 226.481C206.774 227.453 167.818 221.258 150.037 195.075C147.805 191.789 146.035 178.181 145.529 172.636C145.916 179.334 147.657 193.903 150.231 197.693Z" fill="url(#paint27_linear_3084_7753)"/>
</g>
<path d="M226.188 119.035C226.188 119.035 231.085 118.962 236.111 117.415C237.697 116.929 239.296 116.294 240.759 115.47C246.849 112.034 247.966 110.334 253.222 109.075C258.479 107.816 267.447 108.023 267.447 108.023C267.447 108.023 265.265 104.362 262.702 101.875C261.867 101.064 260.992 100.377 260.137 99.9828L260.986 101.516C260.838 101.292 259.187 99.2289 249.395 100.777C239.05 102.412 227.045 108.275 227.045 108.275L226.646 114.648C226.646 114.648 225.433 113.369 225.019 111.163C225.017 111.16 223.363 114.889 226.188 119.035Z" fill="url(#paint28_linear_3084_7753)"/>
<g style="mix-blend-mode:multiply" opacity="0.6">
<path d="M236.107 117.415C237.693 116.929 239.292 116.294 240.755 115.47C246.845 112.034 247.962 110.334 253.219 109.075C258.475 107.816 267.443 108.024 267.443 108.024C267.443 108.024 265.261 104.362 262.698 101.875C259.284 101.988 254.431 102.729 250.176 105.694C250.176 105.694 250.363 104.169 252.96 102.187C252.957 102.187 244.158 102.624 236.107 117.415C236.11 117.415 236.11 117.413 236.107 117.415Z" fill="#D077B7"/>
</g>
<path d="M196.091 121.26C196.091 121.26 191.236 121.908 186.038 121.117C184.397 120.869 182.723 120.476 181.154 119.876C174.625 117.373 173.27 115.856 167.886 115.384C162.504 114.911 153.661 116.435 153.661 116.435C153.661 116.435 155.281 112.493 157.45 109.656C158.157 108.731 158.921 107.923 159.71 107.407L159.095 109.049C159.209 108.805 160.538 106.522 170.451 106.613C180.925 106.709 193.661 110.743 193.661 110.743L194.993 116.988C194.993 116.988 196.005 115.545 196.089 113.301C196.094 113.298 198.276 116.743 196.091 121.26Z" fill="url(#paint29_linear_3084_7753)"/>
<g style="mix-blend-mode:multiply" opacity="0.6">
<path d="M186.04 121.116C184.399 120.868 182.725 120.476 181.156 119.876C174.627 117.373 173.273 115.856 167.888 115.383C162.506 114.911 153.663 116.435 153.663 116.435C153.663 116.435 155.283 112.492 157.453 109.656C160.846 109.265 165.756 109.285 170.4 111.592C170.4 111.592 169.991 110.111 167.131 108.532C167.134 108.532 175.901 107.669 186.04 121.116C186.037 121.117 186.037 121.114 186.04 121.116Z" fill="#D077B7"/>
</g>
<path d="M202.346 184.942C206.04 185.296 206.549 183.688 209.678 183.457C212.805 183.226 214.004 185.232 216.766 185.028C219.528 184.823 220.419 182.663 223.546 182.431C226.672 182.2 227.415 183.719 231.017 182.822C234.256 182.017 235.239 174.776 233.44 170.42C233.433 170.405 233.433 170.394 233.427 170.39C233.229 169.911 232.995 169.466 232.725 169.067C230.017 165.075 219.895 161.422 215.047 161.78C210.199 162.139 200.725 167.241 198.633 171.588C198.309 172.265 198.085 173.046 197.953 173.885C197.236 178.43 199.224 184.643 202.346 184.942Z" fill="url(#paint30_linear_3084_7753)"/>
<g style="mix-blend-mode:multiply" opacity="0.6">
<path d="M202.345 184.942C206.039 185.296 206.548 183.688 209.677 183.457C212.804 183.226 214.003 185.232 216.765 185.028C219.527 184.823 220.418 182.663 223.545 182.431C226.672 182.2 227.414 183.719 231.016 182.822C234.255 182.017 235.238 174.776 233.439 170.42C233.58 170.833 234.81 174.857 233.104 178.256C232.487 179.484 231.049 180.058 229.735 179.654C226.786 178.749 220.694 177.308 214.305 178.344C209.07 179.19 205.487 180.483 203.419 181.409C202.019 182.034 200.373 181.463 199.68 180.094C198.933 178.62 198.16 176.515 197.953 173.885C197.235 178.43 199.223 184.643 202.345 184.942Z" fill="#D077B7"/>
</g>
<path d="M229.674 183.066C231.45 182.744 228.565 179.806 222.087 182.71C222.087 182.71 228.336 183.307 229.674 183.066Z" fill="url(#paint31_linear_3084_7753)"/>
<path d="M203.613 184.993C201.808 184.935 204.443 182.139 211.065 183.525C211.065 183.525 204.972 185.034 203.613 184.993Z" fill="url(#paint32_linear_3084_7753)"/>
<g style="mix-blend-mode:multiply" opacity="0.6">
<path d="M231.661 182.56C232.499 180.93 230.908 179.991 229.734 179.655C228.562 179.318 223.435 177.571 216.246 178.102C209.058 178.634 199.347 181.8 201.67 184.777C203.993 187.754 211.682 188.968 218.328 188.477C227.87 187.772 231.661 182.56 231.661 182.56Z" fill="#D077B7"/>
</g>
<g style="mix-blend-mode:multiply" opacity="0.6">
<path d="M231.992 168.15C229.448 167.321 227.573 169.952 226.324 170.946C225.073 171.94 227.436 167.815 230.375 166.79L231.992 168.15Z" fill="url(#paint33_linear_3084_7753)"/>
</g>
<g style="mix-blend-mode:multiply" opacity="0.6">
<path d="M199.225 170.573C201.619 169.378 203.86 171.705 205.242 172.504C206.626 173.304 203.61 169.577 200.552 168.994L199.225 170.573Z" fill="url(#paint34_linear_3084_7753)"/>
</g>
<path opacity="0.2" d="M212.413 173.661C212.717 174.212 213.386 176.054 211.911 176.372C210.436 176.69 208.896 175.704 208.655 175.274C208.414 174.848 208.586 173.471 209.686 173.181C210.783 172.893 211.883 172.703 212.413 173.661Z" fill="#FFCEBE"/>
<path d="M232.43 158.266C232.43 158.266 251.813 163.038 261.192 160.831C269.062 158.978 273.344 147.441 272.964 141.949C272.894 140.897 272.652 140.065 272.23 139.57C267.5 133.965 247.25 126.23 238.388 133.54C233.942 137.203 232.458 143.411 232.081 148.691C231.707 153.936 232.43 158.266 232.43 158.266Z" fill="url(#paint35_linear_3084_7753)"/>
<mask id="mask2_3084_7753" style="mask-type:luminance" maskUnits="userSpaceOnUse" x="231" y="130" width="42" height="32">
<path d="M272.231 139.569C274.85 142.674 270.571 158.624 261.192 160.831C251.813 163.038 232.431 158.266 232.431 158.266C232.431 158.266 229.526 140.846 238.388 133.537C247.248 126.228 267.5 133.962 272.231 139.569Z" fill="white"/>
</mask>
<g mask="url(#mask2_3084_7753)">
<path d="M250.415 156.88C242.711 157.449 236.004 151.665 235.434 143.961C234.864 136.257 240.648 129.549 248.353 128.98C256.057 128.41 262.764 134.194 263.334 141.898C263.904 149.603 258.12 156.31 250.415 156.88Z" fill="url(#paint36_linear_3084_7753)"/>
</g>
<mask id="mask3_3084_7753" style="mask-type:luminance" maskUnits="userSpaceOnUse" x="231" y="130" width="42" height="32">
<path d="M272.231 139.569C274.85 142.674 270.571 158.624 261.192 160.831C251.813 163.038 232.431 158.266 232.431 158.266C232.431 158.266 229.526 140.846 238.388 133.537C247.248 126.228 267.5 133.962 272.231 139.569Z" fill="white"/>
</mask>
<g mask="url(#mask3_3084_7753)">
<path opacity="0.8" d="M250.336 155.767C243.246 156.292 237.073 150.969 236.549 143.879C236.025 136.789 241.348 130.616 248.438 130.092C255.528 129.568 261.7 134.891 262.224 141.981C262.749 149.071 257.426 155.243 250.336 155.767Z" fill="url(#paint37_linear_3084_7753)"/>
</g>
<mask id="mask4_3084_7753" style="mask-type:luminance" maskUnits="userSpaceOnUse" x="231" y="130" width="42" height="32">
<path d="M272.231 139.569C274.85 142.674 270.571 158.624 261.192 160.831C251.813 163.038 232.431 158.266 232.431 158.266C232.431 158.266 229.526 140.846 238.388 133.537C247.248 126.228 267.5 133.962 272.231 139.569Z" fill="white"/>
</mask>
<g mask="url(#mask4_3084_7753)">
<path d="M249.966 150.799C245.62 151.12 241.837 147.858 241.516 143.512C241.194 139.166 244.457 135.382 248.803 135.061C253.149 134.739 256.932 138.002 257.254 142.348C257.575 146.694 254.312 150.478 249.966 150.799Z" fill="url(#paint38_linear_3084_7753)"/>
</g>
<g style="mix-blend-mode:multiply" opacity="0.6">
<path d="M232.082 148.688C238.935 143.17 251.915 139.746 272.962 141.946C272.892 140.895 272.65 140.063 272.229 139.567C267.498 133.963 247.248 126.228 238.386 133.537C233.942 137.2 232.456 143.409 232.082 148.688Z" fill="#D077B7"/>
</g>
<path d="M252.467 124.447C263.5 125.186 271.541 138.846 271.541 138.846C271.541 138.846 259.343 128.604 245.967 133.695C234.523 138.051 232.401 145.795 232.4 145.779C232.402 145.766 230.448 122.973 252.467 124.447Z" fill="#714237"/>
<path d="M271.877 148.722C267.238 154.629 263.279 160.682 252.473 161.346C252.473 161.346 258.544 162.646 264.793 159.469C271.044 156.292 271.877 148.722 271.877 148.722Z" fill="#714237"/>
<path d="M231.984 152.668C231.984 152.668 229.415 156.214 231.08 158.323C232.741 160.429 238.947 159.639 238.947 159.639C238.947 159.639 234.096 158.668 233.072 157.292C232.048 155.913 231.984 152.668 231.984 152.668Z" fill="#714237"/>
<path d="M272.229 139.57C272.229 139.57 268.695 130.906 250.651 130.649C236.693 130.452 232.029 139.824 231.399 141.509C230.772 143.193 232.404 145.779 232.404 145.779C232.404 145.779 238.637 134.658 251.602 133.759C264.567 132.857 272.229 139.57 272.229 139.57Z" fill="#301126"/>
<path d="M265.182 143.431C265.182 143.431 264.237 142.563 258.104 145.661C257.899 145.764 258.193 146.096 258.414 146.052C259.941 145.735 265.249 144.552 265.182 143.431Z" fill="url(#paint39_linear_3084_7753)"/>
<path d="M255.468 145.492C256.446 146.205 255.726 146.948 254.745 147.134C254.024 147.273 253.826 146.133 254.092 145.816C254.358 145.497 254.848 145.039 255.468 145.492Z" fill="url(#paint40_linear_3084_7753)"/>
<path d="M195.048 161.215C195.048 161.215 176.578 168.785 166.977 167.981C158.919 167.306 152.986 156.521 152.555 151.035C152.47 149.985 152.587 149.127 152.931 148.574C156.786 142.335 175.679 131.706 185.519 137.633C190.456 140.603 192.836 146.526 193.985 151.692C195.124 156.828 195.048 161.215 195.048 161.215Z" fill="url(#paint41_linear_3084_7753)"/>
<mask id="mask5_3084_7753" style="mask-type:luminance" maskUnits="userSpaceOnUse" x="152" y="135" width="44" height="34">
<path d="M152.929 148.573C150.795 152.03 157.373 167.177 166.974 167.98C176.576 168.784 195.046 161.214 195.046 161.214C195.046 161.214 195.357 143.556 185.517 137.63C175.679 131.703 156.787 142.334 152.929 148.573Z" fill="white"/>
</mask>
<g mask="url(#mask5_3084_7753)">
<path d="M177.052 162.488C169.348 163.058 162.64 157.274 162.071 149.569C161.501 141.865 167.285 135.158 174.989 134.588C182.694 134.018 189.401 139.802 189.971 147.507C190.54 155.211 184.756 161.918 177.052 162.488Z" fill="url(#paint42_linear_3084_7753)"/>
</g>
<mask id="mask6_3084_7753" style="mask-type:luminance" maskUnits="userSpaceOnUse" x="152" y="135" width="44" height="34">
<path d="M152.929 148.573C150.795 152.03 157.373 167.177 166.974 167.98C176.576 168.784 195.046 161.214 195.046 161.214C195.046 161.214 195.357 143.556 185.517 137.63C175.679 131.703 156.787 142.334 152.929 148.573Z" fill="white"/>
</mask>
<g mask="url(#mask6_3084_7753)">
<path opacity="0.6" d="M188.85 149.612C188.258 156.697 182.031 161.96 174.949 161.367C167.863 160.775 162.601 154.549 163.193 147.466C163.785 140.381 170.012 135.119 177.094 135.711C184.18 136.303 189.442 142.527 188.85 149.612Z" fill="url(#paint43_linear_3084_7753)"/>
</g>
<mask id="mask7_3084_7753" style="mask-type:luminance" maskUnits="userSpaceOnUse" x="152" y="135" width="44" height="34">
<path d="M152.929 148.573C150.795 152.03 157.373 167.177 166.974 167.98C176.576 168.784 195.046 161.214 195.046 161.214C195.046 161.214 195.357 143.556 185.517 137.63C175.679 131.703 156.787 142.334 152.929 148.573Z" fill="white"/>
</mask>
<g mask="url(#mask7_3084_7753)">
<path d="M183.883 149.197C183.52 153.54 179.705 156.764 175.362 156.401C171.019 156.037 167.795 152.223 168.158 147.879C168.521 143.536 172.336 140.312 176.679 140.675C181.022 141.039 184.247 144.853 183.883 149.197Z" fill="url(#paint44_linear_3084_7753)"/>
</g>
<g style="mix-blend-mode:multiply" opacity="0.6">
<path d="M193.982 151.692C186.392 147.242 173.05 145.764 152.555 151.035C152.469 149.985 152.587 149.126 152.931 148.574C156.786 142.335 175.678 131.706 185.519 137.633C190.455 140.603 192.836 146.525 193.982 151.692Z" fill="#D077B7"/>
</g>
<path d="M170.253 130.71C159.449 133.064 153.504 147.757 153.504 147.757C153.504 147.757 164.063 135.833 178.042 138.901C190.002 141.527 193.24 148.875 193.238 148.859C193.235 148.847 191.816 126.013 170.253 130.71Z" fill="#714237"/>
<path d="M154.625 157.578C160.083 162.738 164.889 168.143 175.674 167.212C175.674 167.212 169.861 169.39 163.213 167.167C156.562 164.944 154.625 157.578 154.625 157.578Z" fill="#714237"/>
<path d="M194.664 155.615C194.664 155.615 197.727 158.744 196.39 161.074C195.057 163.402 188.802 163.531 188.802 163.531C188.802 163.531 193.457 161.857 194.268 160.345C195.08 158.831 194.664 155.615 194.664 155.615Z" fill="#714237"/>
<path d="M152.93 148.574C152.93 148.574 155.151 139.486 172.962 136.58C186.739 134.332 192.731 142.917 193.602 144.49C194.47 146.064 193.235 148.862 193.235 148.862C193.235 148.862 185.435 138.778 172.479 139.796C159.522 140.81 152.93 148.574 152.93 148.574Z" fill="#301126"/>
<path d="M160.468 151.357C160.468 151.357 161.275 150.36 167.797 152.523C168.014 152.594 167.773 152.966 167.548 152.954C165.991 152.868 160.566 152.478 160.468 151.357Z" fill="url(#paint45_linear_3084_7753)"/>
<path d="M170.385 151.97C169.523 152.819 170.344 153.447 171.341 153.487C172.075 153.518 172.103 152.362 171.793 152.088C171.481 151.811 170.928 151.431 170.385 151.97Z" fill="url(#paint46_linear_3084_7753)"/>
<g style="mix-blend-mode:multiply" opacity="0.6">
<path d="M234.596 209.142C234.596 209.142 228.766 220.841 219.025 221.207C209.284 221.573 202.083 209.865 202.083 209.865C202.083 209.865 209.115 218.907 219.281 218.522C229.444 218.142 234.596 209.142 234.596 209.142Z" fill="#D077B7"/>
</g>
<path d="M237.93 201.67C237.93 201.67 233.963 217.959 219.282 218.515C204.6 219.068 197.998 203.274 197.998 203.274L201.86 203.88C201.86 203.88 211.279 210.253 218.961 209.963C226.877 209.666 234.958 202.754 234.958 202.754L237.93 201.67Z" fill="#8F5038"/>
<path d="M237.93 201.67C237.93 201.67 230.617 191.052 217.252 191.557C206.419 191.964 197.997 203.271 197.997 203.271L201.86 203.876C206.166 202.928 215.3 198.683 220.657 199.01C225.079 199.283 230.793 201.846 234.957 202.75C234.957 202.75 236.895 202.557 237.93 201.67Z" fill="#8A4838"/>
<path d="M201.859 203.88C202.738 204.723 204.268 205.903 205.9 206.984C207.459 208.017 209.112 208.96 210.39 209.436C220.873 213.341 229.612 207.828 231.459 206.412C231.551 206.34 231.63 206.279 231.687 206.228C233.856 204.379 234.96 202.753 234.96 202.753C229.39 197.655 222.291 195.698 217.776 195.87C209.889 196.165 201.859 203.88 201.859 203.88Z" fill="#623116"/>
<g style="mix-blend-mode:multiply" opacity="0.6">
<path d="M201.859 203.88C202.738 204.723 204.268 205.903 205.9 206.984C206.081 204.042 229.258 202.265 231.099 206.429C231.099 206.429 231.225 206.423 231.459 206.412C231.551 206.34 231.63 206.279 231.687 206.228C233.856 204.379 234.96 202.753 234.96 202.753C229.39 197.655 222.291 195.698 217.776 195.87C209.889 196.165 201.859 203.88 201.859 203.88Z" fill="#CE77B5"/>
</g>
<g style="mix-blend-mode:multiply" opacity="0.6">
<path d="M236.907 202.375C236.907 202.375 229.386 191.498 217.755 191.937C206.951 192.346 199.384 203.286 199.384 203.286L197.998 203.274C197.998 203.274 206.12 191.98 217.718 191.542C230.672 191.055 237.927 201.674 237.927 201.674L236.907 202.375Z" fill="#CE77B5"/>
</g>
<path d="M210.351 211.211L209.221 214.7L205.945 213.634C205.945 213.634 205.352 210.364 208.042 209.646L210.351 211.211Z" fill="#FFDDEB"/>
<path d="M208.048 208.373C208.048 208.373 208.607 208.687 209.554 209.095C209.651 209.138 209.752 209.181 209.857 209.223C209.861 209.223 209.864 209.227 209.868 209.226L209.872 209.226C209.898 209.238 209.924 209.247 209.95 209.26C209.954 209.259 209.958 209.263 209.961 209.262C211.87 210.041 214.984 211.033 218.281 210.908C221.086 210.803 223.506 210.24 225.392 209.603C228.148 208.674 229.761 207.598 229.761 207.598C227.158 206.574 220.625 206.753 218.749 207.56C218.749 207.56 217.639 207.002 213.71 207.082C210.68 207.146 208.048 208.373 208.048 208.373Z" fill="#BF273F"/>
<g style="mix-blend-mode:multiply" opacity="0.6">
<path d="M212.894 207.753C217.682 207.705 218.432 209.079 218.432 209.079C218.863 206.887 229.042 207.373 225.312 209.556C225.312 209.556 225.339 209.572 225.392 209.604C228.148 208.675 229.762 207.599 229.762 207.599C227.158 206.575 220.625 206.754 218.749 207.561C218.749 207.561 217.639 207.003 213.71 207.082C210.68 207.143 208.048 208.37 208.048 208.37C208.048 208.37 208.607 208.684 209.554 209.092C208.642 208.577 208.506 207.796 212.894 207.753Z" fill="#CE77B5"/>
</g>
<path d="M218.076 195.857C221.946 195.71 225.878 197.268 225.878 197.268C219.999 198.041 217.218 198.278 210.86 197.728C210.86 197.728 214.17 196.004 218.076 195.857Z" fill="#FFDDEB"/>
<path d="M271.619 44.0435C271.619 44.0435 299.873 18.8514 305.078 48.8982C306.741 58.5084 302.706 81.6026 276.892 105.201L277.537 90.8381C277.537 90.8381 311.357 66.6759 301.849 47.3003C295.849 35.0763 276.561 46.2948 276.561 46.2948L271.619 44.0435Z" fill="url(#paint47_linear_3084_7753)"/>
<path d="M129.999 90.9819C132.014 93.8861 133.651 93.3905 133.651 93.3905L145.832 149.101C145.832 149.101 145.42 115.541 149.776 95.3679C149.776 95.3679 157.084 73.7107 172.638 67.2164C172.638 67.2164 200.974 68.428 243.288 62.497C243.288 62.497 258.674 67.466 266.609 81.8976C266.609 81.8976 277.86 120.918 282.569 143.795C282.569 143.795 285.367 130.845 283.589 106.799C283.589 106.799 295.938 99.2318 300.47 91.4522C300.611 91.2041 300.738 90.9597 300.849 90.7215C304.383 83.1759 303.142 70.1223 292.922 55.777C287.431 48.0694 276.501 39.4284 276.501 39.4284C276.501 39.4284 278.448 32.6046 275.581 27.3041C274.96 26.1283 274.085 25.0254 272.908 24.0895C266.404 18.9288 238.677 5.32763 227.78 7.65979C227.78 7.65979 226.539 4.4917 223.768 2.44407C223.123 1.9648 222.397 1.54575 221.58 1.24715C217.265 -0.342755 196.427 -3.38208 188.549 3.68907L184.126 10.8717C184.119 10.8799 184.119 10.8876 184.119 10.8876C184.119 10.8876 182.248 10.2407 179.71 10.015C177.58 9.82121 174.987 9.93026 172.636 10.972C167.499 13.2606 154.906 23.6355 153.023 34.3164C153.023 34.3164 140.283 39.3189 139.084 57.4789C139.084 57.4789 135.361 58.7693 132.316 62.3008C129.269 65.8428 127.976 88.0782 129.999 90.9819Z" fill="url(#paint48_linear_3084_7753)"/>
<g style="mix-blend-mode:multiply" opacity="0.6">
<path d="M130 90.9817C132.015 93.8859 133.652 93.3903 133.652 93.3903L145.833 149.101C145.833 149.101 145.421 115.541 149.778 95.3677C149.778 95.3677 157.086 73.7105 172.639 67.2162C172.654 67.2151 172.663 67.2222 172.678 67.2211C173.888 67.2685 201.905 68.297 243.292 62.4966C243.292 62.4966 258.677 67.4656 266.613 81.8972C266.613 81.8972 277.864 120.918 282.572 143.794C282.572 143.794 285.371 130.845 283.593 106.798C283.593 106.798 295.942 99.2314 300.473 91.4518C300.703 90.2208 300.788 89.313 300.711 88.7918C299.662 81.7399 299.181 77.3635 286.725 68.28C279.908 63.3078 252.025 59.3092 252.025 59.3092C264.925 55.6845 277.029 46.5212 277.029 46.5212C255.767 53.1172 248.493 57.5942 240.904 58.6047C232.337 59.7418 219.165 59.7004 217.92 58.0127C214.364 53.1688 231.943 29.4918 244.846 28.4913C257.75 27.4909 276.505 39.428 276.505 39.428C276.505 39.428 278.452 32.6041 275.585 27.3037C269.838 21.431 249.808 20.0316 235.734 25.6467C221.643 31.2683 215.951 54.0899 214.386 57.0005C212.814 59.9194 200.943 61.0476 199.072 59.9201C197.208 58.7819 197.601 50.3552 202.717 33.4347C207.826 16.52 227.784 7.66195 227.784 7.66195C227.784 7.66195 226.543 4.49386 223.772 2.44622C216.077 2.33578 208.745 8.30489 200.933 23.1361C193.127 37.959 192.996 60.3693 192.996 60.3693C188.698 60.6871 183.247 52.4315 183.247 52.4315C175.155 32.4166 184.123 10.8898 184.123 10.8898C184.123 10.8898 182.252 10.2429 179.714 10.0172C171.705 27.4744 179.502 49.9161 178.189 52.8055C176.877 55.7051 166.199 66.1657 163.048 64.8721C159.899 63.5782 152.079 47.361 153.024 34.3187C153.024 34.3187 146.309 36.954 142.174 45.35C140.607 48.5113 139.412 52.5027 139.085 57.4813C139.085 57.4813 135.363 58.7716 132.318 62.3032C130.552 64.3503 129.381 72.6512 129.094 79.8483C128.885 85.0945 129.145 89.7559 130 90.9817Z" fill="url(#paint49_linear_3084_7753)"/>
</g>
<g style="mix-blend-mode:multiply">
<path d="M265.59 64.669C265.59 64.669 288.338 68.0346 297.188 85.9012C298.952 89.462 290.363 101.827 290.363 101.827L283.591 106.799C283.591 106.799 276.347 79.3981 265.59 64.669Z" fill="url(#paint50_linear_3084_7753)"/>
</g>
<g style="mix-blend-mode:multiply">
<path d="M130 90.9823C132.015 93.8866 133.652 93.391 133.652 93.391L145.833 149.102C145.833 149.102 145.421 115.542 149.777 95.3683C149.777 95.3683 157.085 73.7111 172.639 67.2169C150.986 78.3157 149.759 70.9387 149.759 70.9387C142.443 60.7984 142.179 45.3502 142.179 45.3502C140.612 48.5115 139.417 52.503 139.09 57.4816C139.09 57.4816 135.368 58.7719 132.322 62.3034C132.322 62.3034 146.362 86.97 143.74 88.6904C141.119 90.4108 136.419 90.2469 129.182 79.9251C129.182 79.9251 129.157 79.8959 129.099 79.846C128.885 85.0951 129.144 89.7566 130 90.9823Z" fill="url(#paint51_linear_3084_7753)"/>
</g>
<path opacity="0.2" d="M177.162 17.8164C177.162 17.8164 171.033 24.8487 162.172 28.9264C154.378 32.5119 153.271 41.4022 153.271 41.4022L153.768 44.4961C153.768 44.4961 157.461 34.9059 160.505 32.1984C163.549 29.491 173.189 31.0541 176.06 30.3717C176.057 30.3719 175.983 22.1321 177.162 17.8164Z" fill="white"/>
<path opacity="0.2" d="M249.941 28.6804C249.941 28.6804 258.313 33.3645 262.712 38.6705C267.113 43.9763 268.549 49.2766 268.549 49.2766L253.333 54.8496C253.333 54.8496 257.204 45.4709 252.071 38.0262C246.941 30.5812 234.179 33.2218 234.179 33.2218C234.179 33.2218 241.233 27.1698 249.941 28.6804Z" fill="white"/>
</g>
<mask id="mask8_3084_7753" style="mask-type:luminance" maskUnits="userSpaceOnUse" x="87" y="32" width="254" height="204">
<path d="M87.4652 134.581C88.9555 159.741 98.4062 182.609 113.348 201.1C124.55 214.962 168.577 237.739 221.116 235.032C269.83 232.521 312.573 203.554 322.061 188.437C334.716 168.274 341.4 144.425 339.91 119.265C335.968 52.6844 277.825 28.5104 208.111 32.7402C138.398 36.9701 83.5231 68.0003 87.4652 134.581Z" fill="white"/>
</mask>
<g mask="url(#mask8_3084_7753)">
<path opacity="0.1" d="M87.4652 134.581C88.9555 159.741 98.4062 182.609 113.348 201.1C124.55 214.962 168.577 237.739 221.116 235.032C269.83 232.521 312.573 203.554 322.061 188.437C334.716 168.274 341.4 144.425 339.91 119.265C335.968 52.6844 277.825 28.5104 208.111 32.7402C138.398 36.9701 83.5231 68.0003 87.4652 134.581Z" fill="#371A45"/>
</g>
<mask id="mask9_3084_7753" style="mask-type:luminance" maskUnits="userSpaceOnUse" x="87" y="32" width="254" height="204">
<path d="M87.4652 134.581C88.9555 159.741 98.4062 182.609 113.348 201.1C124.55 214.962 168.577 237.739 221.116 235.032C269.83 232.521 312.573 203.554 322.061 188.437C334.716 168.274 341.4 144.425 339.91 119.265C335.968 52.6844 277.825 28.5104 208.111 32.7402C138.398 36.9701 83.5231 68.0003 87.4652 134.581Z" fill="white"/>
</mask>
<g mask="url(#mask9_3084_7753)">
<g opacity="0.5">
<path d="M111.016 127.824C108.144 115.576 112.932 103.977 121.711 101.919C130.49 99.8602 139.935 108.121 142.807 120.37C145.679 132.618 140.891 144.217 132.112 146.275C123.333 148.334 113.888 140.073 111.016 127.824Z" fill="white"/>
</g>
</g>
<mask id="mask10_3084_7753" style="mask-type:luminance" maskUnits="userSpaceOnUse" x="87" y="32" width="254" height="204">
<path d="M87.4652 134.581C88.9555 159.741 98.4062 182.609 113.348 201.1C124.55 214.962 168.577 237.739 221.116 235.032C269.83 232.521 312.573 203.554 322.061 188.437C334.716 168.274 341.4 144.425 339.91 119.265C335.968 52.6844 277.825 28.5104 208.111 32.7402C138.398 36.9701 83.5231 68.0003 87.4652 134.581Z" fill="white"/>
</mask>
<g mask="url(#mask10_3084_7753)">
<g opacity="0.5">
<path d="M141.197 171.02C139.21 165.604 141.332 159.843 145.938 158.154C150.543 156.464 155.888 159.486 157.875 164.902C159.862 170.319 157.739 176.079 153.134 177.769C148.528 179.458 143.184 176.437 141.197 171.02Z" fill="white"/>
</g>
</g>
<mask id="mask11_3084_7753" style="mask-type:luminance" maskUnits="userSpaceOnUse" x="87" y="32" width="254" height="204">
<path d="M87.4652 134.581C88.9555 159.741 98.4062 182.609 113.348 201.1C124.55 214.962 168.577 237.739 221.116 235.032C269.83 232.521 312.573 203.554 322.061 188.437C334.716 168.274 341.4 144.425 339.91 119.265C335.968 52.6844 277.825 28.5104 208.111 32.7402C138.398 36.9701 83.5231 68.0003 87.4652 134.581Z" fill="white"/>
</mask>
<g mask="url(#mask11_3084_7753)">
<g opacity="0.35">
<path d="M108.338 70.9785C93.7895 86.8207 85.8881 107.837 87.4669 134.578C88.9572 159.743 98.4128 182.612 113.345 201.102C124.552 214.962 168.581 237.74 221.117 235.037C239.667 234.085 257.346 229.292 272.662 222.881C208.01 224.809 154.367 196.831 140.475 179.638C121.51 156.173 109.516 127.144 107.63 95.2164C107.121 86.6805 107.389 78.607 108.338 70.9785Z" fill="#111A28"/>
</g>
</g>
<mask id="mask12_3084_7753" style="mask-type:luminance" maskUnits="userSpaceOnUse" x="87" y="32" width="254" height="204">
<path d="M87.4652 134.581C88.9555 159.741 98.4062 182.609 113.348 201.1C124.55 214.962 168.577 237.739 221.116 235.032C269.83 232.521 312.573 203.554 322.061 188.437C334.716 168.274 341.4 144.425 339.91 119.265C335.968 52.6844 277.825 28.5104 208.111 32.7402C138.398 36.9701 83.5231 68.0003 87.4652 134.581Z" fill="white"/>
</mask>
<g mask="url(#mask12_3084_7753)">
<g opacity="0.5">
<path d="M312.859 161.655C312.859 161.655 329.34 94.7374 292.824 70.6839C256.307 46.6305 206.004 49.7881 207.374 52.985C207.374 52.985 263.876 63.2547 288.308 106.505C307.146 139.856 312.859 161.655 312.859 161.655Z" fill="white"/>
</g>
</g>
<path d="M170.974 421.407C223.778 401.195 252.312 452.792 258.902 466.708C259.175 464.124 259.647 461.618 260.393 459.203C253.013 431.173 232.581 419.189 222.73 414.927C204.972 407.252 184.851 407.933 172.98 416.223C172.235 417.913 171.566 419.644 170.974 421.407Z" fill="#0876E4"/>
<path d="M68.048 269.289C69.3539 269.903 70.6794 270.506 72.0196 271.101C74.319 272.122 76.6675 273.11 79.0652 274.067C91.4842 260.662 95.9378 222.797 96.9707 202.059C96.9412 202.044 96.9117 202.027 96.8797 202.01C95.0574 201.056 93.277 200.077 91.5433 199.073C89.7382 198.033 87.9872 196.966 86.2953 195.874C81.9548 238.755 73.1656 261.39 68.048 269.289Z" fill="#0876E4"/>
<defs>
<linearGradient id="paint0_linear_3084_7753" x1="131.316" y1="367.439" x2="67.232" y2="367.439" gradientUnits="userSpaceOnUse">
<stop stop-color="#B4D6FE"/>
<stop offset="1" stop-color="#D0E5FD"/>
</linearGradient>
<linearGradient id="paint1_linear_3084_7753" x1="389.001" y1="311.606" x2="219.919" y2="311.606" gradientUnits="userSpaceOnUse">
<stop stop-color="#B4D6FE"/>
<stop offset="1" stop-color="#D0E5FD"/>
</linearGradient>
<linearGradient id="paint2_linear_3084_7753" x1="347.134" y1="338.978" x2="394.07" y2="298.507" gradientUnits="userSpaceOnUse">
<stop stop-color="#84BCFD"/>
<stop offset="1" stop-color="#D0E5FD"/>
</linearGradient>
<linearGradient id="paint3_linear_3084_7753" x1="45.3924" y1="201.453" x2="91.1101" y2="228.434" gradientUnits="userSpaceOnUse">
<stop stop-color="#B4D6FE"/>
<stop offset="1" stop-color="#D0E5FD"/>
</linearGradient>
<linearGradient id="paint4_linear_3084_7753" x1="88.1717" y1="239.375" x2="157.029" y2="255.114" gradientUnits="userSpaceOnUse">
<stop stop-color="#B4D6FE"/>
<stop offset="1" stop-color="#D0E5FD"/>
</linearGradient>
<linearGradient id="paint5_linear_3084_7753" x1="153.831" y1="289.779" x2="207.793" y2="306.83" gradientUnits="userSpaceOnUse">
<stop stop-color="#B4D6FE"/>
<stop offset="1" stop-color="#D0E5FD"/>
</linearGradient>
<linearGradient id="paint6_linear_3084_7753" x1="215.916" y1="421.296" x2="211.419" y2="517.978" gradientUnits="userSpaceOnUse">
<stop stop-color="#B4D6FE"/>
<stop offset="1" stop-color="#D0E5FD"/>
</linearGradient>
<linearGradient id="paint7_linear_3084_7753" x1="277.305" y1="355.125" x2="246.67" y2="422.858" gradientUnits="userSpaceOnUse">
<stop stop-color="#84BCFD"/>
<stop offset="1" stop-color="#D0E5FD"/>
</linearGradient>
<linearGradient id="paint8_linear_3084_7753" x1="313.307" y1="312.136" x2="282.391" y2="291.713" gradientUnits="userSpaceOnUse">
<stop stop-color="#B4D6FE"/>
<stop offset="1" stop-color="#D0E5FD"/>
</linearGradient>
<linearGradient id="paint9_linear_3084_7753" x1="98.8016" y1="115.633" x2="66.8478" y2="115.633" gradientUnits="userSpaceOnUse">
<stop stop-color="#9AC9FD"/>
<stop offset="1" stop-color="#D0E5FD"/>
</linearGradient>
<linearGradient id="paint10_linear_3084_7753" x1="359.408" y1="130.914" x2="327.454" y2="130.914" gradientUnits="userSpaceOnUse">
<stop stop-color="#9AC9FD"/>
<stop offset="1" stop-color="#D0E5FD"/>
</linearGradient>
<linearGradient id="paint11_linear_3084_7753" x1="336.386" y1="123.272" x2="89.8419" y2="123.272" gradientUnits="userSpaceOnUse">
<stop stop-color="#9AC9FD"/>
<stop offset="1" stop-color="#D0E5FD"/>
</linearGradient>
<linearGradient id="paint12_linear_3084_7753" x1="194.829" y1="310.08" x2="175.717" y2="345.212" gradientUnits="userSpaceOnUse">
<stop stop-color="#84BCFD"/>
<stop offset="1" stop-color="#D0E5FD"/>
</linearGradient>
<linearGradient id="paint13_linear_3084_7753" x1="243.463" y1="368.425" x2="232.221" y2="321.771" gradientUnits="userSpaceOnUse">
<stop stop-color="#84BCFD"/>
<stop offset="1" stop-color="#D0E5FD"/>
</linearGradient>
<linearGradient id="paint14_linear_3084_7753" x1="248.892" y1="339.755" x2="336.758" y2="331.894" gradientUnits="userSpaceOnUse">
<stop stop-color="#84BCFD"/>
<stop offset="1" stop-color="#D0E5FD"/>
</linearGradient>
<radialGradient id="paint15_radial_3084_7753" cx="0" cy="0" r="1" gradientUnits="userSpaceOnUse" gradientTransform="translate(155.445 317.658) rotate(180) scale(20.1655 20.1655)">
<stop stop-color="#84BCFD"/>
<stop offset="1" stop-color="#84BCFD" stop-opacity="0"/>
</radialGradient>
<linearGradient id="paint16_linear_3084_7753" x1="108.171" y1="399.754" x2="163.819" y2="363.779" gradientUnits="userSpaceOnUse">
<stop stop-color="#B4D6FE"/>
<stop offset="1" stop-color="#D0E5FD"/>
</linearGradient>
<linearGradient id="paint17_linear_3084_7753" x1="195.799" y1="329.842" x2="254.258" y2="303.049" gradientUnits="userSpaceOnUse">
<stop stop-color="#B4D6FE"/>
<stop offset="1" stop-color="#D0E5FD"/>
</linearGradient>
<linearGradient id="paint18_linear_3084_7753" x1="30.1157" y1="160.934" x2="25.9936" y2="194.286" gradientUnits="userSpaceOnUse">
<stop stop-color="#84BCFD"/>
<stop offset="1" stop-color="#B4D6FE"/>
</linearGradient>
<linearGradient id="paint19_linear_3084_7753" x1="299.715" y1="174.537" x2="296.014" y2="124.475" gradientUnits="userSpaceOnUse">
<stop stop-color="#946A51"/>
<stop offset="0.0128" stop-color="#946950"/>
<stop offset="0.3419" stop-color="#94583C"/>
<stop offset="0.6714" stop-color="#944D30"/>
<stop offset="1" stop-color="#944A2C"/>
</linearGradient>
<linearGradient id="paint20_linear_3084_7753" x1="298.419" y1="164.886" x2="295.986" y2="131.97" gradientUnits="userSpaceOnUse">
<stop stop-color="#FFE9DA"/>
<stop offset="0.9944" stop-color="#D077F3"/>
</linearGradient>
<linearGradient id="paint21_linear_3084_7753" x1="287.985" y1="163.781" x2="286.939" y2="149.636" gradientUnits="userSpaceOnUse">
<stop stop-color="#FFE9DA"/>
<stop offset="0.9944" stop-color="#D077F3"/>
</linearGradient>
<linearGradient id="paint22_linear_3084_7753" x1="133.108" y1="186.855" x2="129.407" y2="136.793" gradientUnits="userSpaceOnUse">
<stop stop-color="#946A51"/>
<stop offset="0.0128" stop-color="#946950"/>
<stop offset="0.3419" stop-color="#94583C"/>
<stop offset="0.6714" stop-color="#944D30"/>
<stop offset="1" stop-color="#944A2C"/>
</linearGradient>
<linearGradient id="paint23_linear_3084_7753" x1="132.97" y1="177.118" x2="130.537" y2="144.202" gradientUnits="userSpaceOnUse">
<stop stop-color="#FFE9DA"/>
<stop offset="0.9944" stop-color="#D077F3"/>
</linearGradient>
<linearGradient id="paint24_linear_3084_7753" x1="143.129" y1="174.491" x2="142.083" y2="160.346" gradientUnits="userSpaceOnUse">
<stop stop-color="#FFE9DA"/>
<stop offset="0.9944" stop-color="#D077F3"/>
</linearGradient>
<linearGradient id="paint25_linear_3084_7753" x1="222.769" y1="267.954" x2="219.168" y2="219.254" gradientUnits="userSpaceOnUse">
<stop stop-color="#94765A"/>
<stop offset="0.257" stop-color="#946951"/>
<stop offset="0.6287" stop-color="#945D48"/>
<stop offset="1" stop-color="#945945"/>
</linearGradient>
<linearGradient id="paint26_linear_3084_7753" x1="220.108" y1="229.103" x2="206.763" y2="48.5867" gradientUnits="userSpaceOnUse">
<stop stop-color="#946A3D"/>
<stop offset="0.4274" stop-color="#8D6546"/>
<stop offset="0.4875" stop-color="#8E6242"/>
<stop offset="0.7439" stop-color="#935936"/>
<stop offset="1" stop-color="#945632"/>
</linearGradient>
<linearGradient id="paint27_linear_3084_7753" x1="220.107" y1="229.103" x2="215.549" y2="167.46" gradientUnits="userSpaceOnUse">
<stop offset="0.005587" stop-color="#D077F3"/>
<stop offset="0.1573" stop-color="#D480F1"/>
<stop offset="0.4008" stop-color="#DD97EC"/>
<stop offset="0.7036" stop-color="#EDBDE4"/>
<stop offset="1" stop-color="#FFE9DA"/>
</linearGradient>
<linearGradient id="paint28_linear_3084_7753" x1="244.921" y1="96.6639" x2="246.562" y2="118.855" gradientUnits="userSpaceOnUse">
<stop stop-color="#3D253F"/>
<stop offset="1" stop-color="#41112F"/>
</linearGradient>
<linearGradient id="paint29_linear_3084_7753" x1="174.272" y1="101.887" x2="175.913" y2="124.078" gradientUnits="userSpaceOnUse">
<stop stop-color="#3D253F"/>
<stop offset="1" stop-color="#41112F"/>
</linearGradient>
<linearGradient id="paint30_linear_3084_7753" x1="216.718" y1="184.403" x2="215.114" y2="162.714" gradientUnits="userSpaceOnUse">
<stop stop-color="#8D5541"/>
<stop offset="0.4655" stop-color="#925F3D"/>
<stop offset="1" stop-color="#94633B"/>
</linearGradient>
<linearGradient id="paint31_linear_3084_7753" x1="230.152" y1="182.123" x2="222.088" y2="182.719" gradientUnits="userSpaceOnUse">
<stop stop-color="#77254B"/>
<stop offset="1" stop-color="#8D2542"/>
</linearGradient>
<linearGradient id="paint32_linear_3084_7753" x1="203.027" y1="184.247" x2="211.074" y2="183.652" gradientUnits="userSpaceOnUse">
<stop stop-color="#77254B"/>
<stop offset="1" stop-color="#8D2542"/>
</linearGradient>
<linearGradient id="paint33_linear_3084_7753" x1="229.035" y1="170.264" x2="228.71" y2="165.866" gradientUnits="userSpaceOnUse">
<stop stop-color="#FFE9DA"/>
<stop offset="0.9944" stop-color="#D077F3"/>
</linearGradient>
<linearGradient id="paint34_linear_3084_7753" x1="202.456" y1="172.229" x2="202.131" y2="167.831" gradientUnits="userSpaceOnUse">
<stop stop-color="#FFE9DA"/>
<stop offset="0.9944" stop-color="#D077F3"/>
</linearGradient>
<linearGradient id="paint35_linear_3084_7753" x1="255.58" y1="162.149" x2="248.023" y2="130.025" gradientUnits="userSpaceOnUse">
<stop stop-color="#EDE1FF"/>
<stop offset="0.996" stop-color="#BCC8FA"/>
</linearGradient>
<linearGradient id="paint36_linear_3084_7753" x1="263.001" y1="139.725" x2="235.768" y2="146.132" gradientUnits="userSpaceOnUse">
<stop stop-color="#566496"/>
<stop offset="1" stop-color="#341752"/>
</linearGradient>
<linearGradient id="paint37_linear_3084_7753" x1="249.882" y1="136.992" x2="252.041" y2="111.172" gradientUnits="userSpaceOnUse">
<stop stop-color="#149DEA"/>
<stop offset="1" stop-color="#083A75"/>
</linearGradient>
<linearGradient id="paint38_linear_3084_7753" x1="250.671" y1="148.397" x2="247.874" y2="136.504" gradientUnits="userSpaceOnUse">
<stop stop-color="#334A79"/>
<stop offset="1" stop-color="#070459"/>
</linearGradient>
<linearGradient id="paint39_linear_3084_7753" x1="262.521" y1="145.79" x2="260.771" y2="143.563" gradientUnits="userSpaceOnUse">
<stop stop-color="#EDE1FF"/>
<stop offset="0.996" stop-color="#BCC8FA"/>
</linearGradient>
<linearGradient id="paint40_linear_3084_7753" x1="255.141" y1="147.044" x2="254.738" y2="145.332" gradientUnits="userSpaceOnUse">
<stop stop-color="#EDE1FF"/>
<stop offset="0.996" stop-color="#BCC8FA"/>
</linearGradient>
<linearGradient id="paint41_linear_3084_7753" x1="172.719" y1="168.462" x2="175.47" y2="135.576" gradientUnits="userSpaceOnUse">
<stop stop-color="#EDE1FF"/>
<stop offset="0.996" stop-color="#BCC8FA"/>
</linearGradient>
<linearGradient id="paint42_linear_3084_7753" x1="162.081" y1="147.373" x2="189.96" y2="149.705" gradientUnits="userSpaceOnUse">
<stop stop-color="#566496"/>
<stop offset="1" stop-color="#341752"/>
</linearGradient>
<linearGradient id="paint43_linear_3084_7753" x1="176.517" y1="142.6" x2="178.676" y2="116.776" gradientUnits="userSpaceOnUse">
<stop stop-color="#149DEA"/>
<stop offset="1" stop-color="#083A75"/>
</linearGradient>
<linearGradient id="paint44_linear_3084_7753" x1="175.553" y1="154.137" x2="176.571" y2="141.962" gradientUnits="userSpaceOnUse">
<stop stop-color="#334A79"/>
<stop offset="1" stop-color="#070459"/>
</linearGradient>
<linearGradient id="paint45_linear_3084_7753" x1="163.448" y1="153.302" x2="164.851" y2="150.841" gradientUnits="userSpaceOnUse">
<stop stop-color="#EDE1FF"/>
<stop offset="0.996" stop-color="#BCC8FA"/>
</linearGradient>
<linearGradient id="paint46_linear_3084_7753" x1="170.934" y1="153.456" x2="171.081" y2="151.703" gradientUnits="userSpaceOnUse">
<stop stop-color="#EDE1FF"/>
<stop offset="0.996" stop-color="#BCC8FA"/>
</linearGradient>
<linearGradient id="paint47_linear_3084_7753" x1="306.589" y1="68.0319" x2="273.573" y2="70.4728" gradientUnits="userSpaceOnUse">
<stop stop-color="#3D253F"/>
<stop offset="1" stop-color="#41112F"/>
</linearGradient>
<linearGradient id="paint48_linear_3084_7753" x1="219.287" y1="129.742" x2="212.343" y2="35.8166" gradientUnits="userSpaceOnUse">
<stop stop-color="#3D253F"/>
<stop offset="1" stop-color="#41112F"/>
</linearGradient>
<linearGradient id="paint49_linear_3084_7753" x1="217.9" y1="127.997" x2="210.25" y2="24.5241" gradientUnits="userSpaceOnUse">
<stop stop-color="#FFE9DA"/>
<stop offset="0.9944" stop-color="#8880EA"/>
</linearGradient>
<linearGradient id="paint50_linear_3084_7753" x1="283.346" y1="100.681" x2="281.065" y2="69.8272" gradientUnits="userSpaceOnUse">
<stop stop-color="#FFE9DA"/>
<stop offset="0.9944" stop-color="#D077F3"/>
</linearGradient>
<linearGradient id="paint51_linear_3084_7753" x1="155.082" y1="133.732" x2="149.622" y2="59.8857" gradientUnits="userSpaceOnUse">
<stop stop-color="#FFE9DA"/>
<stop offset="0.9944" stop-color="#D077F3"/>
</linearGradient>
</defs>
</svg>
