<svg width="389" height="563" viewBox="0 0 389 563" fill="none" xmlns="http://www.w3.org/2000/svg">
<path d="M130.936 343.014C130.936 343.014 78.4881 365.053 69.5981 378.68C66.0347 384.141 66.9594 392.638 66.9594 392.638H93.3048L130.936 343.014Z" fill="url(#paint0_linear_3084_7507)"/>
<path d="M262.741 403.952C306.555 405.359 383.164 402.113 387.883 358.772C391.955 321.372 378.612 262.101 361.783 236.746C360.964 235.512 360.138 234.361 359.305 233.293C357.418 230.878 355.495 228.909 353.56 227.458C323.371 204.833 220.551 235.512 219.656 276.949C219.081 303.484 218.928 402.548 262.741 403.952Z" fill="url(#paint1_linear_3084_7507)"/>
<path d="M349.257 300.177L368.702 292.426C373.097 290.675 378.042 293.161 379.23 297.742C383.315 313.498 389.605 346.159 373.751 352.846C354.535 360.949 347.725 338.781 344.346 308.329C343.958 304.817 345.979 301.483 349.257 300.177Z" fill="url(#paint2_linear_3084_7507)"/>
<path d="M322.544 250.951C322.82 251.492 323.457 251.726 324.007 251.507L324.027 251.499C327.886 249.967 331.847 248.551 335.785 247.127L361.783 236.747C360.964 235.512 360.138 234.361 359.304 233.294L334.454 243.898C330.642 245.688 326.84 247.459 323.053 249.385C322.48 249.677 322.252 250.378 322.544 250.951Z" fill="#9CBDEA"/>
<path d="M1.88297 202.625C2.50269 206.206 3.35111 209.86 4.4307 213.539C9.01465 229.179 31.9492 252.906 67.6691 269.675C68.9749 270.29 70.3005 270.892 71.6407 271.488C73.9401 272.508 76.2886 273.497 78.6863 274.453C91.1053 261.048 95.5589 223.184 96.5918 202.445C96.5623 202.431 96.5328 202.413 96.5008 202.396C94.6785 201.442 92.8981 200.463 91.1643 199.46C89.3593 198.42 87.6083 197.352 85.9164 196.261C81.7923 193.6 78.0347 190.791 74.7738 187.835C74.7738 187.835 74.2499 162.019 66.9289 159.387C57.9872 156.176 51.3646 174.334 51.3646 174.334L51.3621 174.332C51.0621 174.024 30.9532 153.431 19.1785 155.44C3.83802 158.054 -2.25341 178.694 1.88297 202.625Z" fill="url(#paint3_linear_3084_7507)"/>
<path d="M78.6871 274.453C81.8939 275.732 85.1868 276.952 88.5633 278.103C107.246 284.474 128.469 288.751 151.671 289.422C159.634 289.666 167.828 289.469 176.231 288.793L183.577 257.423L189.457 232.315C189.457 232.315 176.674 229.986 159.201 225.34C145.398 221.686 128.67 216.588 112.991 210.069C110.775 209.149 108.581 208.2 106.42 207.221C103.05 205.699 99.7625 204.108 96.5926 202.445C95.5597 223.184 91.1061 261.048 78.6871 274.453Z" fill="url(#paint4_linear_3084_7507)"/>
<path d="M86.8885 392.638H201.2C201.2 392.638 230.208 442.973 245.576 441.761C286.003 438.571 329.55 432.17 331.936 355.47C333.414 307.791 309.83 260.879 291.765 232.222C280.765 214.761 271.813 204.064 271.813 204.064L160.532 209.745C160.532 209.745 160.101 215.612 159.204 225.343C158.646 231.42 157.9 238.997 156.956 247.589C155.606 259.927 153.86 274.35 151.671 289.425C148.319 312.52 143.93 337.129 138.401 358.057C136.016 367.112 95.0235 361.849 86.8885 392.638Z" fill="url(#paint5_linear_3084_7507)"/>
<path d="M185.347 489.894C179.118 500.009 159.351 537.254 178.048 552.833C195.892 567.711 228.824 565.264 246.178 541.879C257.645 526.409 259.974 508.577 259.323 494.933C258.85 485.185 257.601 475.712 258.523 467.095C258.796 464.51 259.269 462.004 260.014 459.589C252.634 431.559 232.203 419.576 222.351 415.314C204.593 407.639 184.472 408.32 172.601 416.61C171.856 418.299 171.187 420.031 170.595 421.794C164.154 440.912 166.557 463.736 175.929 474.878C181.098 481.024 186.663 487.856 186.663 487.856C186.361 488.291 185.908 488.982 185.347 489.894Z" fill="url(#paint6_linear_3084_7507)"/>
<path d="M172.603 416.61C184.473 408.32 204.594 407.639 222.352 415.314C232.204 419.576 252.635 431.559 260.015 459.589C260.846 456.892 262.022 454.31 263.652 451.865C264.237 450.985 264.936 450.139 265.733 449.322C277.2 437.548 309.13 431.887 325.545 413.066C335.894 401.218 341.434 379.692 340.492 353.327C340.365 349.784 340.119 346.151 339.752 342.44C320.384 361.071 254.037 355.575 242.105 346.129C241.834 345.915 241.576 345.701 241.33 345.482C235.452 363.093 230.086 376.616 226.299 381.089C225.495 382.046 224.762 382.58 224.111 382.673C216.16 383.78 208.362 386.003 200.97 389.379C194.357 392.404 187.968 396.385 182.671 401.624C182.058 402.233 181.463 402.861 180.89 403.507C177.479 407.334 174.727 411.795 172.603 416.61Z" fill="url(#paint7_linear_3084_7507)"/>
<path d="M241.33 345.483C241.576 345.701 241.834 345.915 242.104 346.129C254.036 355.575 320.383 361.071 339.752 342.441C339.29 337.768 338.635 332.973 337.78 328.079C337.03 323.792 336.125 319.432 335.06 315.016C326.866 281.012 309.169 243.571 279.46 209.976C279.46 209.976 266.121 263.335 252.14 310.746C250.707 315.613 249.263 320.418 247.829 325.096C245.628 332.267 243.447 339.14 241.33 345.483Z" fill="url(#paint8_linear_3084_7507)"/>
<path d="M185.347 489.895C187.737 490.421 190.248 490.9 192.832 491.301C196.359 491.85 200.053 492.278 203.468 492.413C206.877 492.558 209.953 492.437 212.145 492.034C208.761 491.754 205.741 491.486 202.804 491.075C201.349 490.888 199.927 490.669 198.533 490.438C197.138 490.212 195.766 489.963 194.426 489.686C191.741 489.14 189.149 488.52 186.662 487.856C186.36 488.291 185.907 488.982 185.347 489.895Z" fill="#9CBDEA"/>
<path d="M91.1369 154.646C92.5214 154.734 93.7142 153.684 93.8027 152.3L98.4186 80.1075C98.5071 78.7229 97.4571 77.5302 96.0725 77.4417C81.5509 76.5146 69.0262 87.5318 68.0991 102.053L66.5252 126.67C65.5956 141.194 76.6153 153.719 91.1369 154.646Z" fill="url(#paint9_linear_3084_7507)"/>
<path d="M334.361 92.6737C332.976 92.5851 331.784 93.6352 331.695 95.0198L327.079 167.212C326.991 168.597 328.041 169.789 329.425 169.878C343.947 170.805 356.472 159.788 357.399 145.266L358.973 120.65C359.902 106.128 348.882 93.6032 334.361 92.6737Z" fill="url(#paint10_linear_3084_7507)"/>
<path d="M89.4631 124.54C89.95 192.621 145.535 247.414 213.614 246.928C281.694 246.441 336.488 190.858 336.001 122.777C335.841 100.42 329.74 79.4976 319.207 61.4937C315.198 54.6424 310.548 48.2141 305.334 42.2923C282.55 16.3772 249.068 0.124331 211.85 0.389925C176.059 0.645682 143.939 16.1313 121.595 40.6545C116.46 46.2885 111.842 52.3972 107.816 58.9116C96.0267 77.9729 89.291 100.477 89.4631 124.54Z" fill="url(#paint11_linear_3084_7507)"/>
<path d="M121.595 40.6547C146.173 26.1601 178.002 18.4063 213.995 18.6768C249.722 18.962 281.173 27.2791 305.335 42.2925C310.548 48.2143 315.199 54.6426 319.207 61.4939C295.763 38.0061 258.477 24.6428 213.914 24.2887C169.446 23.9124 131.843 36.3756 107.816 58.9118C111.842 52.3974 116.461 46.2887 121.595 40.6547Z" fill="#9CBDEA"/>
<path d="M137.302 361.679C140.767 362.387 145.068 363.214 150.021 364.069C155.857 365.075 162.605 366.123 169.965 367.057C171.178 367.21 172.407 367.362 173.652 367.51C187.662 369.165 203.614 370.355 219.621 370.109C225.223 370.021 229.748 365.513 229.896 359.908L231.239 306.763C231.391 300.777 226.502 295.886 220.519 296.038C212.662 296.24 201.421 296.466 189.57 296.505C188.35 296.51 187.123 296.513 185.893 296.513C171.544 296.515 156.725 296.215 146.249 295.251C140.656 294.732 135.667 298.751 134.949 304.326L131.614 330.066L129.017 350.086C128.314 355.529 131.916 360.585 137.302 361.679Z" fill="url(#paint12_linear_3084_7507)"/>
<path d="M221.322 296.05L242.452 298.303C247.085 298.797 250.552 302.776 250.41 307.431L248.802 360.157C248.661 364.753 245.044 368.489 240.455 368.776L220.934 369.999" fill="white"/>
<path d="M221.322 296.05L242.452 298.303C247.085 298.797 250.552 302.776 250.41 307.431L248.802 360.157C248.661 364.753 245.044 368.489 240.455 368.776L220.934 369.999" fill="url(#paint13_linear_3084_7507)"/>
<path d="M241.328 345.483C241.574 345.702 241.833 345.915 242.103 346.129C254.035 355.575 320.382 361.072 339.751 342.441C340.041 342.163 340.321 341.877 340.589 341.587C343.838 338.083 344.89 334.414 344.728 330.949C344.576 334.001 343.412 337.168 340.589 340.213C340.321 340.503 340.041 340.788 339.751 341.066C320.382 359.697 254.035 354.2 242.103 344.755C241.833 344.541 241.574 344.327 241.328 344.108C238.154 341.329 236.912 338.412 236.742 335.673C236.548 338.794 237.618 342.234 241.328 345.483Z" fill="#9CBDEA"/>
<path d="M236.742 335.673C236.912 338.412 238.154 341.329 241.329 344.108C241.575 344.327 241.833 344.541 242.104 344.755C254.036 354.2 320.382 359.697 339.751 341.066C340.041 340.788 340.322 340.503 340.59 340.213C343.413 337.168 344.576 334.001 344.729 330.949C344.32 322.118 336.011 314.625 336.011 314.625C336.011 314.625 335.698 314.767 335.059 315.016C329.858 317.057 303.047 326.325 247.829 325.096C245.955 325.054 244.046 325 242.104 324.934C242.104 324.934 237.114 329.714 236.742 335.673Z" fill="url(#paint14_linear_3084_7507)"/>
<path d="M169.965 367.057C171.178 367.209 172.407 367.362 173.652 367.509L173.817 338.552L189.59 329.04L189.57 296.505C188.35 296.51 187.123 296.512 185.894 296.512V327.225L170.098 336.949L169.965 367.057Z" fill="#0876E4"/>
<path d="M155.069 338.21C143.932 338.21 134.903 329.182 134.903 318.045C134.903 306.908 143.932 297.879 155.069 297.879C166.206 297.879 175.234 306.908 175.234 318.045C175.234 329.182 166.206 338.21 155.069 338.21Z" fill="url(#paint15_radial_3084_7507)"/>
<path fill-rule="evenodd" clip-rule="evenodd" d="M145.913 310.975L153.416 306.553C154.358 306 155.526 306 156.465 306.553L163.969 310.975C164.883 311.513 165.444 312.495 165.444 313.557V322.59C165.444 323.649 164.883 324.633 163.969 325.172L156.465 329.593C155.524 330.149 154.355 330.149 153.416 329.593L145.913 325.172C144.998 324.633 144.438 323.649 144.438 322.59V313.557C144.438 312.495 144.998 311.513 145.913 310.975ZM152.398 304.832C153.967 303.907 155.912 303.907 157.481 304.832L164.984 309.253C166.509 310.151 167.443 311.789 167.443 313.557V322.59C167.443 324.358 166.509 325.993 164.984 326.893L157.481 331.315C155.912 332.24 153.967 332.24 152.398 331.315L144.895 326.893C143.37 325.996 142.436 324.358 142.436 322.59V313.557C142.436 311.789 143.37 310.153 144.895 309.253L152.398 304.832Z" fill="#0876E4"/>
<path fill-rule="evenodd" clip-rule="evenodd" d="M154.747 311.292C157.049 311.292 158.916 313.156 158.916 315.455C158.916 315.851 158.593 316.174 158.198 316.174C157.802 316.174 157.479 315.851 157.479 315.455C157.479 313.948 156.257 312.728 154.75 312.728C153.242 312.728 152.02 313.95 152.02 315.455V316.746H158.488C159.203 316.746 159.781 317.324 159.781 318.038V321.771C159.781 322.961 158.817 323.925 157.625 323.925H151.875C150.685 323.925 149.718 322.961 149.718 321.771V318.038C149.718 317.474 150.077 316.997 150.581 316.818V315.453C150.579 313.156 152.445 311.292 154.747 311.292ZM151.297 318.185C151.299 318.185 151.299 318.185 151.297 318.185H158.34V321.776C158.34 322.172 158.018 322.494 157.622 322.494H151.872C151.477 322.494 151.154 322.172 151.154 321.776V318.185H151.297ZM154.747 319.764C155.064 319.764 155.323 320.022 155.323 320.339C155.323 320.657 155.064 320.915 154.747 320.915C154.43 320.915 154.172 320.657 154.172 320.339C154.172 320.022 154.43 319.764 154.747 319.764ZM155.898 320.339C155.898 319.705 155.384 319.191 154.747 319.191C154.11 319.191 153.596 319.705 153.596 320.339C153.596 320.974 154.11 321.488 154.747 321.488C155.384 321.488 155.898 320.971 155.898 320.339Z" fill="#0876E4"/>
<path d="M99.1595 402.273C109.105 414.301 132.465 425.908 149.647 415.142C163.996 406.149 164.889 397.603 175.063 390.196C176.757 388.961 189.255 385.191 205.827 377.037C208.019 375.962 210.281 374.806 212.598 373.572C212.485 373.316 212.394 373.048 212.325 372.767C212.197 372.246 200.351 325.084 171.143 317.118C169.126 318.517 167.107 319.907 165.096 321.284C143.361 336.165 122.094 349.887 105.846 364.549C86.3987 382.095 89.458 390.538 99.1595 402.273Z" fill="url(#paint16_linear_3084_7507)"/>
<path d="M171.143 317.118C200.351 325.083 212.197 372.246 212.325 372.767C212.394 373.047 212.485 373.316 212.598 373.571C215.335 372.113 218.154 370.539 221.021 368.845C240.83 357.159 263.12 339.75 279.449 314.302L236.721 260.084C221.102 279.571 201.082 295.784 180.518 310.512C177.402 312.748 174.272 314.946 171.143 317.118Z" fill="url(#paint17_linear_3084_7507)"/>
<path d="M165.096 321.284C190.546 331.384 202.643 366.27 205.827 377.037C208.019 375.962 210.281 374.806 212.598 373.572C212.485 373.316 212.394 373.048 212.325 372.767C212.197 372.246 200.351 325.084 171.143 317.118C169.126 318.517 167.107 319.907 165.096 321.284Z" fill="#0876E4"/>
<path d="M1.88294 202.625C16.6677 205.854 46.2494 210.91 50.0243 200.635C55.0829 186.864 51.3646 174.334 51.3646 174.334L51.3621 174.332C51.0621 174.024 30.9532 153.431 19.1785 155.44C3.83799 158.054 -2.25344 178.694 1.88294 202.625Z" fill="url(#paint18_linear_3084_7507)"/>
<mask id="mask0_3084_7507" style="mask-type:luminance" maskUnits="userSpaceOnUse" x="86" y="32" width="254" height="204">
<path d="M87.0882 134.967C88.5785 160.128 98.0292 182.996 112.971 201.486C124.173 215.349 168.2 238.126 220.739 235.419C269.453 232.908 312.196 203.941 321.684 188.824C334.339 168.661 341.023 144.812 339.533 119.652C335.591 53.0711 277.448 28.8971 207.734 33.127C138.021 37.3568 83.1461 68.387 87.0882 134.967Z" fill="white"/>
</mask>
<g mask="url(#mask0_3084_7507)">
<path d="M87.0882 134.967C88.5785 160.128 98.0292 182.996 112.971 201.486C124.173 215.349 168.2 238.126 220.739 235.419C269.453 232.908 312.196 203.941 321.684 188.824C334.339 168.661 341.023 144.812 339.533 119.652C335.591 53.0711 277.448 28.8971 207.734 33.127C138.021 37.3568 83.1461 68.387 87.0882 134.967Z" fill="#371A45"/>
</g>
<mask id="mask1_3084_7507" style="mask-type:luminance" maskUnits="userSpaceOnUse" x="86" y="32" width="254" height="204">
<path d="M87.0882 134.967C88.5785 160.128 98.0292 182.996 112.971 201.486C124.173 215.349 168.2 238.126 220.739 235.419C269.453 232.908 312.196 203.941 321.684 188.824C334.339 168.661 341.023 144.812 339.533 119.652C335.591 53.0711 277.448 28.8971 207.734 33.127C138.021 37.3568 83.1461 68.387 87.0882 134.967Z" fill="white"/>
</mask>
<g mask="url(#mask1_3084_7507)">
<path d="M120.434 138.124C125.383 156.408 143.249 198.021 157.905 204.138C163.185 206.342 160.871 200.304 160.38 196.346C159.975 193.035 216.773 186.508 253.042 196.426C255.37 166.341 261.442 85.1423 259.914 76.9261C267.089 91.3983 277.149 124.457 279.335 138.122C281.788 153.374 273.954 181.372 276.647 180.637C277.271 180.468 277.874 180.232 278.453 179.946C273.725 188.729 267.827 195.248 262.821 199.743C265.971 201.064 268.843 202.563 271.36 204.267C271.36 204.267 270.913 208.284 273.74 209.07C278.742 210.458 299.425 184.053 303.082 168.147C303.082 168.147 310.911 165.466 316.541 151.265C322.176 137.076 317.52 115.289 312.63 108.196C311.587 106.683 309.848 103.694 307.703 99.8606C307.696 99.8457 307.689 99.8382 307.689 99.8308C307.681 99.8233 307.681 99.8158 307.681 99.8158C299.788 85.6815 286.409 60.1109 281.79 54.3394C275.917 46.9952 263.432 55.3233 263.432 55.3233C263.432 55.3233 243.775 25.7328 224.756 29.3751C219.983 30.2869 213.784 33.1938 206.333 36.8435C195.804 41.984 182.77 48.6002 167.724 53.1593C148.258 59.0625 137.361 65.1222 130.568 75.167C128.379 78.3845 126.618 82.0119 125.134 86.166C125.132 86.166 114.896 117.652 120.434 138.124Z" fill="url(#paint19_linear_3084_7507)"/>
<g style="mix-blend-mode:multiply" opacity="0.9">
<path d="M120.434 138.125C125.383 156.408 143.249 198.021 157.905 204.138C160.511 205.224 161.269 204.307 161.297 202.618C157.823 199.189 154.732 195.326 152.228 190.978C149.217 185.743 149.122 175.485 149.863 163.72C151.17 165.951 152.477 168.038 153.734 169.954C157.624 175.909 156.554 139.392 170.785 134.135C183.071 132.284 197.138 127.196 197.58 127.042C197.449 127.342 193.777 135.839 199.548 135.362C205.421 134.87 218.955 125.566 218.955 125.566C218.955 125.566 232.341 124.83 244.09 114.353C252.292 107.039 257.514 87.846 259.914 76.9266C259.017 72.1017 259.782 66.9612 260.823 62.9015C261.146 61.6319 261.132 60.2506 261.469 59.2369C262.314 56.7101 263.43 55.3238 263.43 55.3238C263.43 55.3238 253.82 40.3894 240.378 32.7197C240.378 32.7197 243.111 36.7794 243.693 42.7298C243.693 42.7298 243.969 48.4665 238.214 53.3635C238.214 53.3635 244.177 49.4429 251.68 53.1573C251.68 53.1573 252.232 55.1474 252.172 57.9524C252.15 59.4356 251.959 61.14 251.432 62.909C251.432 62.909 243.156 96.9666 218.955 112.49C218.955 112.49 223.191 78.5937 235.198 58.012C235.198 58.012 199.364 96.4151 167.972 110.882C167.972 110.882 162.34 93.3989 164.052 85.2546C165.264 79.498 173.612 66.8022 178.415 59.8555C180.397 56.9685 181.779 55.0753 181.779 55.0753C181.771 55.0753 181.764 55.0828 181.756 55.0828C180.817 55.5225 150.623 69.7613 139.336 86.4671C136.399 90.815 128.916 83.7366 130.568 75.1651C128.379 78.3825 126.618 82.0099 125.135 86.164C125.132 86.1665 114.896 117.653 120.434 138.125Z" fill="#D077B7"/>
</g>
<g style="mix-blend-mode:multiply" opacity="0.9">
<path d="M262.821 199.748C265.971 201.07 268.843 202.568 271.36 204.272C271.36 204.272 270.913 208.29 273.74 209.075C278.741 210.464 299.425 184.058 303.082 168.152C303.082 168.152 310.911 165.472 316.541 151.27C322.176 137.076 317.52 115.289 312.63 108.196C311.587 106.683 309.848 103.694 307.703 99.8607C308.086 100.837 314.583 117.667 313.738 123.367C313.738 123.367 310.67 123.859 305.286 114.313C300.754 106.288 295.336 96.0668 293.721 93.0109C295.263 96.1389 300.175 107.235 301.577 124.38C301.584 124.46 301.592 124.534 301.599 124.616C301.753 126.517 301.855 128.495 301.915 130.549C301.974 132.649 301.982 134.83 301.915 137.076L300.878 166.545L295.254 154.473C295.254 154.473 293.939 115.048 284.923 97.4259C276.714 81.366 272.528 74.4566 271.845 73.356C273.084 75.4926 286.399 99.329 287.132 142.952C287.388 158.16 283.614 170.393 278.453 179.954C273.725 188.734 267.83 195.253 262.821 199.748Z" fill="#D077B7"/>
</g>
<path d="M280.442 146.164C280.442 146.164 283.041 137.789 296.035 132.591C309.029 127.394 313.938 135.19 314.805 143.853C315.672 152.517 305.565 174.463 295.747 178.217C285.928 181.971 280.442 175.039 280.442 175.039V146.164Z" fill="url(#paint20_linear_3084_7507)"/>
<g style="mix-blend-mode:multiply" opacity="0.6">
<path d="M280.442 161.158V169.956C280.442 169.956 284.484 159.881 286.939 160.025C289.394 160.169 288.382 166.81 289.249 169.121C290.117 171.431 293.58 168.977 294.36 161.468C295.138 153.96 289.97 154.042 289.97 154.042C289.97 154.042 295.697 140.628 302.77 144.527C309.846 148.425 305.757 166.283 305.757 166.283C305.757 166.283 315.493 149.329 313.456 143.083C311.421 136.837 305.371 136.395 295.553 142.315C290.738 145.217 286.039 151.722 282.504 157.593C281.761 158.822 281.07 160.022 280.442 161.158Z" fill="url(#paint21_linear_3084_7507)"/>
</g>
<g style="mix-blend-mode:multiply" opacity="0.6">
<path d="M280.443 160.355V166.353C281.921 163.508 285.752 156.673 287.518 158.437C289.73 160.649 288.564 164.718 290.405 167.543C292.249 170.368 294.895 162.768 293.365 157.717C291.834 152.666 285.764 154.668 283.956 156.102C283.521 156.447 283.026 156.967 282.502 157.593C281.841 158.385 281.133 159.349 280.443 160.355Z" fill="url(#paint22_linear_3084_7507)"/>
</g>
<path d="M153.73 146.164C153.73 146.164 151.132 137.789 138.138 132.591C125.144 127.394 120.234 135.19 119.367 143.853C118.5 152.517 128.607 174.463 138.426 178.217C148.245 181.971 153.73 175.039 153.73 175.039V146.164Z" fill="url(#paint23_linear_3084_7507)"/>
<g style="mix-blend-mode:multiply" opacity="0.6">
<path d="M153.73 161.158V169.956C153.73 169.956 149.688 159.881 147.233 160.025C144.779 160.169 145.79 166.81 144.923 169.121C144.056 171.431 140.592 168.977 139.812 161.468C139.035 153.96 144.202 154.042 144.202 154.042C144.202 154.042 138.476 140.628 131.402 144.527C124.326 148.425 128.416 166.283 128.416 166.283C128.416 166.283 118.679 149.329 120.716 143.083C122.751 136.837 128.801 136.395 138.62 142.315C143.435 145.217 148.133 151.722 151.668 157.593C152.411 158.822 153.102 160.022 153.73 161.158Z" fill="url(#paint24_linear_3084_7507)"/>
</g>
<g style="mix-blend-mode:multiply" opacity="0.6">
<path d="M153.73 160.355V166.353C152.252 163.508 148.421 156.673 146.655 158.437C144.443 160.649 145.609 164.718 143.768 167.543C141.924 170.368 139.278 162.768 140.809 157.717C142.339 152.666 148.409 154.668 150.217 156.102C150.652 156.447 151.147 156.967 151.671 157.593C152.334 158.385 153.04 159.349 153.73 160.355Z" fill="url(#paint25_linear_3084_7507)"/>
</g>
<path d="M191.327 253.231C191.327 245.564 191.327 209.072 191.327 209.072L216.997 212.138L242.667 209.072C242.667 209.072 242.667 245.564 242.667 253.231C242.667 260.899 248.141 263.413 248.141 263.413C248.141 263.413 242.95 270.849 216.997 270.849C191.042 270.849 185.854 263.413 185.854 263.413C185.854 263.413 191.327 260.899 191.327 253.231Z" fill="url(#paint26_linear_3084_7507)"/>
<g style="mix-blend-mode:multiply" opacity="0.6">
<path d="M191.326 209.072C191.326 209.072 191.326 229.852 191.326 243.346C195.413 247.5 200.749 250.772 207.579 251.279C224.389 252.526 238.094 232.488 242.668 224.881C242.668 216.235 242.668 209.069 242.668 209.069L216.996 212.135L191.326 209.072Z" fill="#D077B7"/>
</g>
<path d="M152.516 123.838C152.516 102.051 149.415 51.5781 217.202 51.5781C284.987 51.5781 281.889 102.051 281.889 123.838C281.889 146.606 288.53 179.95 282.177 190.976C266.937 217.426 229.908 226.155 217.202 226.155C204.496 226.155 167.467 217.426 152.227 190.976C145.874 179.95 152.516 146.606 152.516 123.838Z" fill="url(#paint27_linear_3084_7507)"/>
<g style="mix-blend-mode:multiply" opacity="0.6">
<path d="M152.227 190.976C167.464 217.429 204.493 226.154 217.202 226.154C229.908 226.154 266.937 217.426 282.177 190.976C284.383 187.148 285.021 173.008 284.917 166.541C284.825 171.91 284.087 185.128 282.177 188.444C266.937 214.895 229.908 223.62 217.202 223.62C204.496 223.62 167.467 214.892 152.227 188.444C150.314 185.125 149.578 171.91 149.486 166.541C149.382 173.008 150.021 187.148 152.227 190.976Z" fill="url(#paint28_linear_3084_7507)"/>
</g>
<path d="M233.213 120.688C233.213 120.688 236.55 119.245 244.604 118.966C244.607 118.966 244.607 118.966 244.609 118.966C246.999 118.884 249.804 118.907 253.062 119.098C267.298 119.935 277.348 122.529 277.348 122.529C277.263 122.278 273.338 116.084 268.309 113.321C268.344 113.384 268.97 114.442 268.89 115.58C268.89 115.58 263.121 111.177 255.141 109.391C253.653 109.058 252.088 108.815 250.468 108.71C240.167 108.042 235.31 115.62 235.31 115.62C235.31 115.62 235.561 113.652 236.651 112.479C236.646 112.479 233.295 114.658 233.213 120.688Z" fill="url(#paint29_linear_3084_7507)"/>
<g style="mix-blend-mode:multiply" opacity="0.6">
<path d="M244.609 118.966C246.999 118.884 249.804 118.907 253.062 119.098C267.298 119.935 277.348 122.529 277.348 122.529C277.263 122.278 273.338 116.084 268.309 113.322C268.344 113.384 268.97 114.442 268.89 115.58C268.89 115.58 263.121 111.177 255.141 109.391C257.964 110.785 264.09 113.943 267.636 118.76C267.631 118.76 259.931 116.072 244.609 118.966Z" fill="#D077B7"/>
</g>
<path d="M200.783 120.688C200.783 120.688 197.446 119.245 189.392 118.966C189.389 118.966 189.389 118.966 189.387 118.966C186.997 118.884 184.192 118.907 180.934 119.098C166.698 119.935 156.648 122.529 156.648 122.529C156.733 122.278 160.658 116.084 165.687 113.321C165.652 113.384 165.026 114.442 165.106 115.58C165.106 115.58 170.875 111.177 178.855 109.391C180.343 109.058 181.908 108.815 183.528 108.71C193.829 108.042 198.689 115.62 198.689 115.62C198.689 115.62 198.438 113.652 197.347 112.479C197.35 112.479 200.701 114.658 200.783 120.688Z" fill="url(#paint30_linear_3084_7507)"/>
<path opacity="0.6" d="M189.387 118.966C186.997 118.884 184.192 118.907 180.934 119.098C166.698 119.935 156.648 122.529 156.648 122.529C156.733 122.278 160.658 116.084 165.687 113.322C165.652 113.384 165.026 114.442 165.106 115.58C165.106 115.58 170.875 111.177 178.855 109.391C176.032 110.785 169.906 113.943 166.36 118.76C166.365 118.76 174.065 116.072 189.387 118.966Z" fill="#D077B7"/>
<path d="M199.618 177.559C200.284 179.345 206.815 178.953 208.783 179.735C210.751 180.518 212.316 182.866 217.581 182.866C222.845 182.866 224.411 180.518 226.378 179.735C228.346 178.953 234.878 179.345 235.544 177.559C236.91 173.897 235.31 171.226 233.402 169.479V169.477C232.473 168.63 231.474 167.996 230.704 167.579C229.834 167.107 229.042 166.513 228.316 165.844C225.767 163.482 222.741 162.294 220.552 161.708C218.607 161.186 216.557 161.186 214.614 161.708C212.425 162.297 209.399 163.482 206.85 165.844C206.125 166.515 205.332 167.107 204.463 167.579C203.663 168.013 202.607 168.679 201.648 169.586C199.784 171.335 198.279 173.974 199.618 177.559Z" fill="url(#paint31_linear_3084_7507)"/>
<g style="mix-blend-mode:multiply" opacity="0.6">
<path d="M199.618 177.559C200.284 179.345 206.815 178.952 208.783 179.735C210.751 180.518 212.316 182.866 217.581 182.866C222.845 182.866 224.411 180.518 226.378 179.735C228.346 178.952 234.878 179.345 235.544 177.559C236.91 173.896 235.31 171.226 233.402 169.479C235.263 174.016 234.545 176.821 233.402 176.885C232.262 176.95 228.607 175.842 225.541 176.364C222.475 176.885 221.288 177.603 217.737 177.603C214.187 177.603 213.002 176.885 209.933 176.364C206.868 175.842 203.213 176.95 202.07 176.885C200.93 176.821 200.212 174.016 202.07 169.477L201.643 169.586C199.784 171.335 198.279 173.974 199.618 177.559Z" fill="#D077B7"/>
</g>
<path d="M231.254 179.045C228.63 178.039 226.379 179.733 226.379 179.733L231.254 179.045Z" fill="url(#paint32_linear_3084_7507)"/>
<path d="M204.055 179.045C206.679 178.039 208.93 179.733 208.93 179.733L204.055 179.045Z" fill="url(#paint33_linear_3084_7507)"/>
<g style="mix-blend-mode:multiply" opacity="0.6">
<path d="M235.17 178.041C235.17 178.041 235.205 177.097 233.403 176.886C231.602 176.674 228.544 175.581 225.217 176.56C221.89 177.539 219.326 177.748 217.257 177.599C215.189 177.45 210.143 175.777 207.338 176.173C204.533 176.568 203.199 176.886 202.071 176.886C200.943 176.886 199.892 177.37 199.994 178.041C200.096 178.712 207.997 186.955 217.592 186.955C227.187 186.955 235.17 178.041 235.17 178.041Z" fill="#D077B7"/>
</g>
<g style="mix-blend-mode:multiply" opacity="0.6">
<path d="M231.254 167.894C229.02 167.991 229.89 172.09 229.89 172.09C229.89 172.09 228.123 168.888 229.398 166.744L231.254 167.894Z" fill="url(#paint34_linear_3084_7507)"/>
</g>
<g style="mix-blend-mode:multiply" opacity="0.6">
<path d="M204.055 167.894C206.289 167.991 205.419 172.09 205.419 172.09C205.419 172.09 207.186 168.888 205.911 166.744L204.055 167.894Z" fill="url(#paint35_linear_3084_7507)"/>
</g>
<path d="M213.665 172.091C214.497 173.283 213.861 174.014 213.665 174.406C213.468 174.799 211.12 174.799 210.924 174.406C210.728 174.014 210.728 172.126 210.924 172.091C211.12 172.058 213.329 171.609 213.665 172.091Z" fill="#FFCEBE"/>
<path d="M159.716 149.189C159.716 149.189 162.782 155.661 172.454 158.382C182.124 161.102 192.482 161.189 198.785 158.58C198.785 158.58 198.519 156.401 197.401 153.447C197.401 153.445 197.399 153.44 197.399 153.437C195.458 148.319 190.954 140.878 180.84 138.414C166.81 135.002 161.127 145.909 159.952 148.603C159.793 148.978 159.716 149.189 159.716 149.189Z" fill="url(#paint36_linear_3084_7507)"/>
<mask id="mask2_3084_7507" style="mask-type:luminance" maskUnits="userSpaceOnUse" x="159" y="137" width="40" height="24">
<path d="M198.783 158.58C198.783 158.58 196.798 142.301 180.838 138.416C164.875 134.53 159.717 149.191 159.717 149.191C159.717 149.191 162.785 155.663 172.455 158.381C182.125 161.099 192.482 161.189 198.783 158.58Z" fill="white"/>
</mask>
<g mask="url(#mask2_3084_7507)">
<path d="M181.958 160.486C174.475 160.486 168.41 154.42 168.41 146.938C168.41 139.455 174.475 133.39 181.958 133.39C189.44 133.39 195.506 139.455 195.506 146.938C195.506 154.42 189.44 160.486 181.958 160.486Z" fill="url(#paint37_linear_3084_7507)"/>
</g>
<mask id="mask3_3084_7507" style="mask-type:luminance" maskUnits="userSpaceOnUse" x="159" y="137" width="40" height="24">
<path d="M198.783 158.58C198.783 158.58 196.798 142.301 180.838 138.416C164.875 134.53 159.717 149.191 159.717 149.191C159.717 149.191 162.785 155.663 172.455 158.381C182.125 161.099 192.482 161.189 198.783 158.58Z" fill="white"/>
</mask>
<g mask="url(#mask3_3084_7507)">
<path d="M194.428 146.938C194.428 153.825 188.845 159.405 181.958 159.405C175.071 159.405 169.491 153.822 169.491 146.938C169.491 140.05 175.073 134.468 181.958 134.468C188.845 134.468 194.428 140.05 194.428 146.938Z" fill="url(#paint38_linear_3084_7507)"/>
</g>
<mask id="mask4_3084_7507" style="mask-type:luminance" maskUnits="userSpaceOnUse" x="159" y="137" width="40" height="24">
<path d="M198.783 158.58C198.783 158.58 196.798 142.301 180.838 138.416C164.875 134.53 159.717 149.191 159.717 149.191C159.717 149.191 162.785 155.663 172.455 158.381C182.125 161.099 192.482 161.189 198.783 158.58Z" fill="white"/>
</mask>
<g mask="url(#mask4_3084_7507)">
<g style="mix-blend-mode:multiply">
<path d="M181.957 154.58C177.737 154.58 174.315 151.158 174.315 146.937C174.315 142.717 177.737 139.295 181.957 139.295C186.178 139.295 189.6 142.717 189.6 146.937C189.6 151.158 186.178 154.58 181.957 154.58Z" fill="url(#paint39_linear_3084_7507)"/>
</g>
</g>
<g style="mix-blend-mode:multiply" opacity="0.6">
<path d="M159.952 148.602C163.458 145.899 169.645 143.211 178.276 143.211C188.949 143.211 197.029 152.602 197.396 153.437C195.456 148.319 190.952 140.878 180.837 138.413C166.807 135.002 161.125 145.912 159.952 148.602Z" fill="#D077B7"/>
</g>
<path d="M196.102 150.53C196.102 150.53 195.339 137.671 183.813 132.868C169.408 126.865 161.602 145.594 161.602 145.594C161.602 145.594 179.021 126.036 196.102 150.53Z" fill="#DC4C6A"/>
<path d="M192.748 160.123C191.578 160.262 172.455 157.139 161.431 151.661C161.133 151.512 165.53 158.014 173.965 160.073C185.528 162.896 192.748 160.123 192.748 160.123Z" fill="#DC6B7C"/>
<path d="M197.399 153.45C197.399 153.45 200.837 158.071 200.455 159.353C200.07 160.635 195.506 159.616 195.506 159.616C195.506 159.616 198.017 158.304 197.995 157.487C197.973 156.672 197.399 153.45 197.399 153.45Z" fill="#E08A97"/>
<path d="M160.344 147.765C160.344 147.765 161.494 141.872 162.776 140.123C164.058 138.374 172.081 134.761 181.179 136.16C190.28 137.559 194.928 146.697 197.09 152.675C197.09 152.675 189.475 139.191 177.465 139.422C165.457 139.656 160.344 147.765 160.344 147.765Z" fill="#4E1B3D"/>
<path d="M172.217 146.535C172.637 146.953 165.981 148.863 165.633 148.165C165.283 147.464 171.283 145.606 172.217 146.535Z" fill="white"/>
<path d="M177.083 145.308C177.495 145.44 177.577 146.652 177.083 146.533C176.589 146.414 175.657 146.367 175.657 145.924C175.654 145.485 176.529 145.134 177.083 145.308Z" fill="white"/>
<path d="M272.686 149.221C272.686 149.221 269.62 155.693 259.95 158.413C250.28 161.134 239.922 161.221 233.619 158.612C233.619 158.612 233.885 156.433 235.003 153.479C235.003 153.477 235.006 153.472 235.006 153.469C236.946 148.351 241.45 140.91 251.565 138.445C265.595 135.034 271.277 145.941 272.452 148.634C272.609 149.007 272.686 149.221 272.686 149.221Z" fill="url(#paint40_linear_3084_7507)"/>
<mask id="mask5_3084_7507" style="mask-type:luminance" maskUnits="userSpaceOnUse" x="233" y="137" width="40" height="24">
<path d="M233.621 158.612C233.621 158.612 235.606 142.333 251.567 138.447C267.53 134.562 272.688 149.223 272.688 149.223C272.688 149.223 269.619 155.695 259.949 158.413C250.282 161.131 239.924 161.218 233.621 158.612Z" fill="white"/>
</mask>
<g mask="url(#mask5_3084_7507)">
<path d="M250.446 160.515C242.964 160.515 236.898 154.449 236.898 146.967C236.898 139.485 242.964 133.419 250.446 133.419C257.928 133.419 263.994 139.485 263.994 146.967C263.994 154.449 257.928 160.515 250.446 160.515Z" fill="url(#paint41_linear_3084_7507)"/>
</g>
<mask id="mask6_3084_7507" style="mask-type:luminance" maskUnits="userSpaceOnUse" x="233" y="137" width="40" height="24">
<path d="M233.621 158.612C233.621 158.612 235.606 142.333 251.567 138.447C267.53 134.562 272.688 149.223 272.688 149.223C272.688 149.223 269.619 155.695 259.949 158.413C250.282 161.131 239.924 161.218 233.621 158.612Z" fill="white"/>
</mask>
<g mask="url(#mask6_3084_7507)">
<path d="M237.979 146.967C237.979 153.854 243.562 159.434 250.446 159.434C257.333 159.434 262.916 153.851 262.916 146.967C262.916 140.08 257.333 134.497 250.446 134.497C243.559 134.5 237.979 140.08 237.979 146.967Z" fill="url(#paint42_linear_3084_7507)"/>
</g>
<mask id="mask7_3084_7507" style="mask-type:luminance" maskUnits="userSpaceOnUse" x="233" y="137" width="40" height="24">
<path d="M233.621 158.612C233.621 158.612 235.606 142.333 251.567 138.447C267.53 134.562 272.688 149.223 272.688 149.223C272.688 149.223 269.619 155.695 259.949 158.413C250.282 161.131 239.924 161.218 233.621 158.612Z" fill="white"/>
</mask>
<g mask="url(#mask7_3084_7507)">
<g style="mix-blend-mode:multiply">
<path d="M242.803 146.967C242.803 151.188 246.224 154.609 250.446 154.609C254.667 154.609 258.088 151.188 258.088 146.967C258.088 142.746 254.667 139.325 250.446 139.325C246.224 139.325 242.803 142.746 242.803 146.967Z" fill="url(#paint43_linear_3084_7507)"/>
</g>
</g>
<g style="mix-blend-mode:multiply" opacity="0.6">
<path d="M272.453 148.634C268.947 145.931 262.761 143.243 254.13 143.243C243.456 143.243 235.377 152.634 235.009 153.469C236.95 148.351 241.454 140.91 251.568 138.445C265.596 135.031 271.278 145.941 272.453 148.634Z" fill="#D077B7"/>
</g>
<path d="M236.303 150.562C236.303 150.562 237.066 137.702 248.591 132.9C262.996 126.897 270.803 145.625 270.803 145.625C270.803 145.625 253.381 126.067 236.303 150.562Z" fill="#DC4C6A"/>
<path d="M239.657 160.152C240.827 160.291 259.95 157.168 270.974 151.69C271.272 151.541 266.875 158.043 258.44 160.103C246.874 162.927 239.657 160.152 239.657 160.152Z" fill="#DC6B7C"/>
<path d="M235.003 153.479C235.003 153.479 231.565 158.1 231.947 159.382C232.332 160.664 236.896 159.646 236.896 159.646C236.896 159.646 234.385 158.334 234.407 157.516C234.429 156.701 235.003 153.479 235.003 153.479Z" fill="#E08A97"/>
<path d="M272.057 147.795C272.057 147.795 270.906 141.901 269.624 140.152C268.342 138.403 260.32 134.791 251.222 136.189C242.121 137.588 237.472 146.726 235.311 152.704C235.311 152.704 242.926 139.22 254.936 139.452C266.944 139.688 272.057 147.795 272.057 147.795Z" fill="#4E1B3D"/>
<path d="M260.186 146.564C259.767 146.982 266.423 148.892 266.77 148.194C267.121 147.496 261.118 145.635 260.186 146.564Z" fill="white"/>
<path d="M255.322 145.34C254.91 145.469 254.828 146.684 255.322 146.564C255.816 146.445 256.748 146.398 256.748 145.956C256.748 145.514 255.876 145.166 255.322 145.34Z" fill="white"/>
<g style="mix-blend-mode:multiply" opacity="0.6">
<path d="M231.613 207.832C231.613 207.832 226.08 217.959 217.249 218.067C208.419 218.176 202.149 207.758 202.149 207.758C202.149 207.758 208.323 215.836 217.539 215.72C226.752 215.608 231.613 207.832 231.613 207.832Z" fill="#CE77B5"/>
</g>
<path d="M234.86 201.169C234.86 201.169 230.918 215.397 217.617 215.566C204.315 215.732 198.679 201.71 198.679 201.71L202.163 202.326C202.163 202.326 210.551 208.132 217.511 208.044C224.682 207.955 232.146 202.056 232.146 202.056L234.86 201.169Z" fill="#FF6563"/>
<path d="M235.095 200.725C235.095 200.725 228.693 191.331 216.561 191.478C206.727 191.596 198.843 201.246 198.843 201.246L202.333 201.857C206.259 201.127 214.635 197.633 219.486 198.035C223.492 198.369 228.618 200.722 232.375 201.599C232.375 201.599 234.137 201.474 235.095 200.725Z" fill="#D93F57"/>
<path d="M202.284 202.107C203.061 202.868 204.421 203.941 205.874 204.929C207.262 205.872 208.738 206.738 209.883 207.186C219.283 210.853 227.308 206.187 229.009 204.981C229.094 204.919 229.167 204.868 229.22 204.824C231.221 203.242 232.255 201.835 232.255 201.835C227.326 197.224 220.945 195.345 216.857 195.399C209.715 195.487 202.284 202.107 202.284 202.107Z" fill="#812751"/>
<g style="mix-blend-mode:multiply" opacity="0.6">
<path d="M202.283 202.036C203.062 202.792 204.424 203.855 205.879 204.835C206.107 202.269 227.152 201.223 228.73 204.899C228.73 204.899 228.845 204.896 229.057 204.892C229.142 204.831 229.215 204.78 229.268 204.736C231.273 203.169 232.309 201.773 232.309 201.773C227.372 197.2 220.98 195.337 216.884 195.388C209.729 195.474 202.283 202.036 202.283 202.036Z" fill="#CE77B5"/>
</g>
<g style="mix-blend-mode:multiply" opacity="0.6">
<path d="M234.155 201.308C234.155 201.308 227.57 191.691 217.011 191.82C207.202 191.939 200.1 201.282 200.1 201.282L198.843 201.241C198.843 201.241 206.456 191.603 216.986 191.476C228.746 191.334 235.096 200.722 235.096 200.722L234.155 201.308Z" fill="#CE77B5"/>
</g>
<path d="M209.573 208.829L208.488 211.939L205.58 210.908C205.58 210.908 205.12 207.957 207.541 207.372L209.573 208.829Z" fill="#FFDDEB"/>
<path d="M207.652 206.379C207.652 206.379 208.154 206.659 209.005 207.028C209.092 207.066 209.183 207.105 209.277 207.144C209.281 207.144 209.284 207.146 209.287 207.146L209.291 207.146C209.314 207.157 209.338 207.165 209.361 207.177C209.364 207.176 209.368 207.179 209.371 207.179C211.088 207.884 213.897 208.799 216.896 208.765C219.449 208.738 221.661 208.312 223.389 207.81C225.915 207.08 227.405 206.199 227.405 206.199C225.061 205.268 219.12 205.277 217.396 205.923C217.396 205.923 216.4 205.423 212.827 205.404C210.072 205.392 207.652 206.379 207.652 206.379Z" fill="#BF273F"/>
<g style="mix-blend-mode:multiply" opacity="0.6">
<path d="M212.073 205.938C216.43 206.004 217.081 207.18 217.081 207.18C217.522 205.34 226.769 205.977 223.328 207.736C223.328 207.736 223.351 207.75 223.399 207.779C225.927 207.056 227.418 206.185 227.418 206.185C225.073 205.262 219.128 205.268 217.403 205.907C217.403 205.907 216.406 205.411 212.831 205.391C210.074 205.374 207.652 206.351 207.652 206.351C207.652 206.351 208.154 206.629 209.006 206.994C208.188 206.539 208.082 205.876 212.073 205.938Z" fill="#CE77B5"/>
</g>
<path d="M217.234 195.244C220.757 195.207 224.299 196.605 224.299 196.605C218.933 197.123 216.398 197.26 210.627 196.655C210.627 196.655 213.677 195.279 217.234 195.244Z" fill="#FFDDEB"/>
<path d="M135.412 128.023C138.709 128.264 141.537 126.555 141.537 126.555C138.255 139.824 141.465 147.747 145.055 151.777C146.583 153.504 148.183 154.515 149.373 154.928C149.651 155.029 149.909 155.089 150.136 155.126C150.136 155.126 155.915 154.048 170.784 134.14C190.119 129.799 207.677 121.936 208.218 121.692C207.14 122.646 206.112 123.968 205.252 125.29C203.637 127.757 202.593 130.224 202.837 130.232C208.725 130.468 218.954 125.568 218.954 125.568C218.954 125.568 232.341 124.833 244.09 114.356C251.588 107.672 256.594 91.0633 259.23 79.9178C259.479 78.8668 259.707 77.8681 259.914 76.9289C276.157 92.6285 279.335 119.094 279.335 138.125C279.335 139.387 279.298 140.731 279.233 142.135C278.478 157.834 273.976 180.672 276.649 180.642C286.495 180.555 291.335 160.083 291.335 160.083C291.335 160.083 294.001 157.139 296.659 151.924C299.517 146.306 302.364 138.053 301.857 128.023C300.881 108.681 291.335 87.4384 291.335 87.4384C279.829 69.6245 261.471 59.2417 261.471 59.2417C261.471 59.2417 254.187 49.3882 243.695 42.7347H243.687C238.092 39.1818 231.585 36.5433 224.78 36.8016C212.929 37.2489 195.453 45.0626 179.833 56.0268H179.825C169.641 63.1722 160.25 71.6518 153.736 80.2954C147.281 88.8571 143.082 96.8472 140.357 103.749L140.349 103.757C134.605 118.306 135.412 128.023 135.412 128.023Z" fill="url(#paint44_linear_3084_7507)"/>
<g style="mix-blend-mode:multiply" opacity="0.9">
<path d="M153.733 80.2927C160.247 71.6491 198.397 50.086 223.776 50.4289C246.477 50.7345 243.692 42.7344 243.692 42.7344C254.187 49.3879 261.469 59.2414 261.469 59.2414C261.469 59.2414 260.028 65.3285 259.884 73.3535C259.926 73.3361 264.259 71.5422 271.931 85.3685C279.64 99.2619 280.868 125.262 279.457 140.383C279.397 140.999 279.325 141.581 279.228 142.137C279.295 140.733 279.33 139.392 279.33 138.127C279.33 119.093 276.15 92.6308 259.908 76.9311C259.822 77.3237 259.732 77.7287 259.638 78.1411C259.598 78.32 259.556 78.5014 259.513 78.6852C259.424 79.0778 259.33 79.4753 259.235 79.8827C259.233 79.8952 259.23 79.9076 259.225 79.92C256.587 91.0655 251.583 107.674 244.085 114.36C232.335 124.84 218.949 125.573 218.949 125.573C218.949 125.573 242.373 110.402 248.982 80.2952C248.982 80.2952 238.336 99.7215 208.213 121.695C207.669 121.938 190.114 129.801 170.779 134.142C170.779 134.142 198.074 89.8406 252.897 64.6254C252.897 64.6254 236.644 57.4675 196.847 71.3584C153.726 86.412 141.532 126.557 141.532 126.557C141.532 126.557 138.704 128.269 135.407 128.025C135.412 128.023 133.658 106.909 153.733 80.2927Z" fill="#D077B7"/>
</g>
<g style="mix-blend-mode:multiply" opacity="0.9">
<path d="M291.336 160.08C291.336 160.08 294.002 157.136 296.66 151.921C296.653 151.914 296.653 151.914 296.653 151.914C296.653 151.914 296.72 113.759 276.158 83.2866C276.158 83.2866 291.636 124.167 291.336 160.08Z" fill="#D077B7"/>
</g>
<g style="mix-blend-mode:multiply" opacity="0.9">
<path d="M135.412 128.023C138.709 128.264 141.536 126.555 141.536 126.555C138.254 139.825 141.464 147.748 145.055 151.777C146.583 153.504 148.183 154.515 149.373 154.928C143.74 147.358 145.929 135.079 147.045 129.976C154.381 96.4326 196.852 71.3564 196.852 71.3564C196.852 71.3564 169.132 78.3329 147.04 98.1121C135.385 108.547 135.412 128.023 135.412 128.023Z" fill="#D077B7"/>
</g>
<g style="mix-blend-mode:multiply" opacity="0.9">
<path d="M240.809 70.7148C240.809 70.7148 194.651 83.2889 175.804 104.032C153.843 128.201 151.816 151.273 151.816 151.273C151.816 151.273 173.302 112.951 191.111 99.6271C216.783 80.4193 240.809 70.7148 240.809 70.7148Z" fill="#D077B7"/>
</g>
<path d="M214.57 66.0938C214.57 66.0938 211.293 67.3186 211.047 72.4566C210.804 77.597 217.939 78.5511 217.939 78.5511C217.939 78.5511 207.447 82.8592 202.632 85.3661C202.632 85.3661 192.814 79.4331 196.851 71.3559L214.57 66.0938Z" fill="#FFD3DF"/>
<path d="M291.713 70.7148C284.234 75.7311 282.031 81.6367 282.031 81.6367C282.031 81.6367 281.295 90.0816 284.051 96.3227C284.051 96.3227 281.606 89.53 286.408 83.2889C291.211 77.0479 298.754 83.52 298.754 83.52L291.713 70.7148Z" fill="#FFD3DF"/>
<path d="M212.164 34.041C212.164 34.041 200.799 40.2026 189.266 44.9753C189.266 44.9753 181.738 52.4115 193.058 57.1122C193.058 57.1122 202.847 53.122 213.398 51.3208C213.398 51.3208 194.648 54.4686 196.849 48.5953C199.676 41.0573 209.485 40.784 212.164 34.041Z" fill="#FFD3DF"/>
</g>
<mask id="mask8_3084_7507" style="mask-type:luminance" maskUnits="userSpaceOnUse" x="86" y="32" width="254" height="204">
<path d="M87.0882 134.967C88.5785 160.128 98.0292 182.996 112.971 201.486C124.173 215.349 168.2 238.126 220.739 235.419C269.453 232.908 312.196 203.941 321.684 188.824C334.339 168.661 341.023 144.812 339.533 119.652C335.591 53.0711 277.448 28.8971 207.734 33.127C138.021 37.3568 83.1461 68.387 87.0882 134.967Z" fill="white"/>
</mask>
<g mask="url(#mask8_3084_7507)">
<path opacity="0.1" d="M87.0882 134.967C88.5785 160.128 98.0292 182.996 112.971 201.486C124.173 215.349 168.2 238.126 220.739 235.419C269.453 232.908 312.196 203.941 321.684 188.824C334.339 168.661 341.023 144.812 339.533 119.652C335.591 53.0711 277.448 28.8971 207.734 33.127C138.021 37.3568 83.1461 68.387 87.0882 134.967Z" fill="#371A45"/>
</g>
<mask id="mask9_3084_7507" style="mask-type:luminance" maskUnits="userSpaceOnUse" x="86" y="32" width="254" height="204">
<path d="M87.0882 134.967C88.5785 160.128 98.0292 182.996 112.971 201.486C124.173 215.349 168.2 238.126 220.739 235.419C269.453 232.908 312.196 203.941 321.684 188.824C334.339 168.661 341.023 144.812 339.533 119.652C335.591 53.0711 277.448 28.8971 207.734 33.127C138.021 37.3568 83.1461 68.387 87.0882 134.967Z" fill="white"/>
</mask>
<g mask="url(#mask9_3084_7507)">
<g opacity="0.5">
<path d="M110.639 128.211C107.767 115.962 112.555 104.364 121.334 102.306C130.113 100.247 139.558 108.508 142.43 120.756C145.302 133.005 140.514 144.603 131.735 146.662C122.956 148.721 113.511 140.46 110.639 128.211Z" fill="white"/>
</g>
</g>
<mask id="mask10_3084_7507" style="mask-type:luminance" maskUnits="userSpaceOnUse" x="86" y="32" width="254" height="204">
<path d="M87.0882 134.967C88.5785 160.128 98.0292 182.996 112.971 201.486C124.173 215.349 168.2 238.126 220.739 235.419C269.453 232.908 312.196 203.941 321.684 188.824C334.339 168.661 341.023 144.812 339.533 119.652C335.591 53.0711 277.448 28.8971 207.734 33.127C138.021 37.3568 83.1461 68.387 87.0882 134.967Z" fill="white"/>
</mask>
<g mask="url(#mask10_3084_7507)">
<g opacity="0.5">
<path d="M140.82 171.407C138.833 165.99 140.955 160.23 145.561 158.54C150.167 156.851 155.511 159.872 157.498 165.288C159.485 170.705 157.362 176.465 152.757 178.155C148.151 179.844 142.807 176.823 140.82 171.407Z" fill="white"/>
</g>
</g>
<mask id="mask11_3084_7507" style="mask-type:luminance" maskUnits="userSpaceOnUse" x="86" y="32" width="254" height="204">
<path d="M87.0882 134.967C88.5785 160.128 98.0292 182.996 112.971 201.486C124.173 215.349 168.2 238.126 220.739 235.419C269.453 232.908 312.196 203.941 321.684 188.824C334.339 168.661 341.023 144.812 339.533 119.652C335.591 53.0711 277.448 28.8971 207.734 33.127C138.021 37.3568 83.1461 68.387 87.0882 134.967Z" fill="white"/>
</mask>
<g mask="url(#mask11_3084_7507)">
<g opacity="0.35">
<path d="M107.959 71.3652C93.4106 87.2074 85.5092 108.224 87.088 134.965C88.5783 160.13 98.0339 182.998 112.966 201.489C124.173 215.349 168.202 238.126 220.738 235.424C239.288 234.472 256.967 229.679 272.283 223.268C207.631 225.196 153.988 197.217 140.096 180.025C121.131 156.559 109.137 127.531 107.251 95.6031C106.742 87.0672 107.01 78.9937 107.959 71.3652Z" fill="#111A28"/>
</g>
</g>
<mask id="mask12_3084_7507" style="mask-type:luminance" maskUnits="userSpaceOnUse" x="86" y="32" width="254" height="204">
<path d="M87.0882 134.967C88.5785 160.128 98.0292 182.996 112.971 201.486C124.173 215.349 168.2 238.126 220.739 235.419C269.453 232.908 312.196 203.941 321.684 188.824C334.339 168.661 341.023 144.812 339.533 119.652C335.591 53.0711 277.448 28.8971 207.734 33.127C138.021 37.3568 83.1461 68.387 87.0882 134.967Z" fill="white"/>
</mask>
<g mask="url(#mask12_3084_7507)">
<g opacity="0.5">
<path d="M312.482 162.04C312.482 162.04 328.963 95.1231 292.447 71.0697C255.93 47.0162 205.627 50.1738 206.997 53.3708C206.997 53.3708 263.499 63.6404 287.931 106.89C306.769 140.242 312.482 162.04 312.482 162.04Z" fill="white"/>
</g>
</g>
<path d="M170.595 421.794C223.399 401.582 251.933 453.178 258.523 467.095C258.796 464.51 259.269 462.004 260.014 459.589C252.634 431.559 232.203 419.576 222.351 415.314C204.593 407.639 184.472 408.32 172.601 416.61C171.856 418.299 171.187 420.031 170.595 421.794Z" fill="#0876E4"/>
<path d="M67.6691 269.675C68.9749 270.29 70.3005 270.893 71.6407 271.488C73.9401 272.508 76.2886 273.497 78.6863 274.454C91.1053 261.048 95.5589 223.184 96.5918 202.446C96.5623 202.431 96.5328 202.414 96.5008 202.396C94.6785 201.442 92.8981 200.464 91.1643 199.46C89.3593 198.42 87.6083 197.353 85.9164 196.261C81.5759 239.142 72.7867 261.776 67.6691 269.675Z" fill="#0876E4"/>
<defs>
<linearGradient id="paint0_linear_3084_7507" x1="130.935" y1="367.826" x2="66.8511" y2="367.826" gradientUnits="userSpaceOnUse">
<stop stop-color="#B4D6FE"/>
<stop offset="1" stop-color="#D0E5FD"/>
</linearGradient>
<linearGradient id="paint1_linear_3084_7507" x1="388.622" y1="311.993" x2="219.54" y2="311.993" gradientUnits="userSpaceOnUse">
<stop stop-color="#B4D6FE"/>
<stop offset="1" stop-color="#D0E5FD"/>
</linearGradient>
<linearGradient id="paint2_linear_3084_7507" x1="346.754" y1="339.366" x2="393.689" y2="298.894" gradientUnits="userSpaceOnUse">
<stop stop-color="#84BCFD"/>
<stop offset="1" stop-color="#D0E5FD"/>
</linearGradient>
<linearGradient id="paint3_linear_3084_7507" x1="45.0135" y1="201.84" x2="90.7312" y2="228.821" gradientUnits="userSpaceOnUse">
<stop stop-color="#B4D6FE"/>
<stop offset="1" stop-color="#D0E5FD"/>
</linearGradient>
<linearGradient id="paint4_linear_3084_7507" x1="87.7928" y1="239.762" x2="156.65" y2="255.501" gradientUnits="userSpaceOnUse">
<stop stop-color="#B4D6FE"/>
<stop offset="1" stop-color="#D0E5FD"/>
</linearGradient>
<linearGradient id="paint5_linear_3084_7507" x1="153.45" y1="290.166" x2="207.412" y2="307.217" gradientUnits="userSpaceOnUse">
<stop stop-color="#B4D6FE"/>
<stop offset="1" stop-color="#D0E5FD"/>
</linearGradient>
<linearGradient id="paint6_linear_3084_7507" x1="215.537" y1="421.682" x2="211.04" y2="518.364" gradientUnits="userSpaceOnUse">
<stop stop-color="#B4D6FE"/>
<stop offset="1" stop-color="#D0E5FD"/>
</linearGradient>
<linearGradient id="paint7_linear_3084_7507" x1="276.928" y1="355.511" x2="246.293" y2="423.245" gradientUnits="userSpaceOnUse">
<stop stop-color="#84BCFD"/>
<stop offset="1" stop-color="#D0E5FD"/>
</linearGradient>
<linearGradient id="paint8_linear_3084_7507" x1="312.928" y1="312.523" x2="282.012" y2="292.099" gradientUnits="userSpaceOnUse">
<stop stop-color="#B4D6FE"/>
<stop offset="1" stop-color="#D0E5FD"/>
</linearGradient>
<linearGradient id="paint9_linear_3084_7507" x1="98.4227" y1="116.019" x2="66.4689" y2="116.019" gradientUnits="userSpaceOnUse">
<stop stop-color="#9AC9FD"/>
<stop offset="1" stop-color="#D0E5FD"/>
</linearGradient>
<linearGradient id="paint10_linear_3084_7507" x1="359.029" y1="131.301" x2="327.075" y2="131.301" gradientUnits="userSpaceOnUse">
<stop stop-color="#9AC9FD"/>
<stop offset="1" stop-color="#D0E5FD"/>
</linearGradient>
<linearGradient id="paint11_linear_3084_7507" x1="336.005" y1="123.658" x2="89.461" y2="123.658" gradientUnits="userSpaceOnUse">
<stop stop-color="#9AC9FD"/>
<stop offset="1" stop-color="#D0E5FD"/>
</linearGradient>
<linearGradient id="paint12_linear_3084_7507" x1="194.45" y1="310.467" x2="175.338" y2="345.599" gradientUnits="userSpaceOnUse">
<stop stop-color="#84BCFD"/>
<stop offset="1" stop-color="#D0E5FD"/>
</linearGradient>
<linearGradient id="paint13_linear_3084_7507" x1="243.086" y1="368.812" x2="231.844" y2="322.157" gradientUnits="userSpaceOnUse">
<stop stop-color="#84BCFD"/>
<stop offset="1" stop-color="#D0E5FD"/>
</linearGradient>
<linearGradient id="paint14_linear_3084_7507" x1="248.513" y1="340.141" x2="336.379" y2="332.281" gradientUnits="userSpaceOnUse">
<stop stop-color="#84BCFD"/>
<stop offset="1" stop-color="#D0E5FD"/>
</linearGradient>
<radialGradient id="paint15_radial_3084_7507" cx="0" cy="0" r="1" gradientUnits="userSpaceOnUse" gradientTransform="translate(155.07 318.045) rotate(180) scale(20.1655 20.1655)">
<stop stop-color="#84BCFD"/>
<stop offset="1" stop-color="#84BCFD" stop-opacity="0"/>
</radialGradient>
<linearGradient id="paint16_linear_3084_7507" x1="107.792" y1="400.14" x2="163.44" y2="364.166" gradientUnits="userSpaceOnUse">
<stop stop-color="#B4D6FE"/>
<stop offset="1" stop-color="#D0E5FD"/>
</linearGradient>
<linearGradient id="paint17_linear_3084_7507" x1="195.42" y1="330.229" x2="253.879" y2="303.435" gradientUnits="userSpaceOnUse">
<stop stop-color="#B4D6FE"/>
<stop offset="1" stop-color="#D0E5FD"/>
</linearGradient>
<linearGradient id="paint18_linear_3084_7507" x1="29.7368" y1="161.321" x2="25.6147" y2="194.672" gradientUnits="userSpaceOnUse">
<stop stop-color="#84BCFD"/>
<stop offset="1" stop-color="#B4D6FE"/>
</linearGradient>
<linearGradient id="paint19_linear_3084_7507" x1="218.955" y1="45.0435" x2="218.955" y2="145.355" gradientUnits="userSpaceOnUse">
<stop stop-color="#5A365D"/>
<stop offset="1" stop-color="#5F1945"/>
</linearGradient>
<linearGradient id="paint20_linear_3084_7507" x1="297.65" y1="179.333" x2="297.65" y2="130.919" gradientUnits="userSpaceOnUse">
<stop stop-color="#FFB29C"/>
<stop offset="0.2186" stop-color="#FF9B8E"/>
<stop offset="0.479" stop-color="#FF8781"/>
<stop offset="0.7398" stop-color="#FF7B7A"/>
<stop offset="1" stop-color="#FF7777"/>
</linearGradient>
<linearGradient id="paint21_linear_3084_7507" x1="297.09" y1="169.958" x2="297.09" y2="138.126" gradientUnits="userSpaceOnUse">
<stop stop-color="#FFE9DA"/>
<stop offset="0.9944" stop-color="#D077F3"/>
</linearGradient>
<linearGradient id="paint22_linear_3084_7507" x1="287.133" y1="168.154" x2="287.133" y2="154.474" gradientUnits="userSpaceOnUse">
<stop stop-color="#FFE9DA"/>
<stop offset="0.9944" stop-color="#D077F3"/>
</linearGradient>
<linearGradient id="paint23_linear_3084_7507" x1="136.522" y1="179.333" x2="136.522" y2="130.919" gradientUnits="userSpaceOnUse">
<stop stop-color="#FFB29C"/>
<stop offset="0.2186" stop-color="#FF9B8E"/>
<stop offset="0.479" stop-color="#FF8781"/>
<stop offset="0.7398" stop-color="#FF7B7A"/>
<stop offset="1" stop-color="#FF7777"/>
</linearGradient>
<linearGradient id="paint24_linear_3084_7507" x1="137.082" y1="169.958" x2="137.082" y2="138.126" gradientUnits="userSpaceOnUse">
<stop stop-color="#FFE9DA"/>
<stop offset="0.9944" stop-color="#D077F3"/>
</linearGradient>
<linearGradient id="paint25_linear_3084_7507" x1="147.04" y1="168.154" x2="147.04" y2="154.474" gradientUnits="userSpaceOnUse">
<stop stop-color="#FFE9DA"/>
<stop offset="0.9944" stop-color="#D077F3"/>
</linearGradient>
<linearGradient id="paint26_linear_3084_7507" x1="216.999" y1="263.713" x2="216.999" y2="216.616" gradientUnits="userSpaceOnUse">
<stop stop-color="#FFB29C"/>
<stop offset="0.2186" stop-color="#FF9B8E"/>
<stop offset="0.479" stop-color="#FF8781"/>
<stop offset="0.7398" stop-color="#FF7B7A"/>
<stop offset="1" stop-color="#FF7777"/>
</linearGradient>
<linearGradient id="paint27_linear_3084_7507" x1="217.201" y1="226.155" x2="217.201" y2="51.5795" gradientUnits="userSpaceOnUse">
<stop stop-color="#FFA995"/>
<stop offset="0.4274" stop-color="#F8AA98"/>
<stop offset="0.5417" stop-color="#FBA28F"/>
<stop offset="0.771" stop-color="#FE9883"/>
<stop offset="1" stop-color="#FF957F"/>
</linearGradient>
<linearGradient id="paint28_linear_3084_7507" x1="217.201" y1="226.154" x2="217.201" y2="166.54" gradientUnits="userSpaceOnUse">
<stop offset="0.005587" stop-color="#D077F3"/>
<stop offset="0.1573" stop-color="#D480F1"/>
<stop offset="0.4008" stop-color="#DD97EC"/>
<stop offset="0.7036" stop-color="#EDBDE4"/>
<stop offset="1" stop-color="#FFE9DA"/>
</linearGradient>
<linearGradient id="paint29_linear_3084_7507" x1="255.279" y1="111.066" x2="255.279" y2="121.34" gradientUnits="userSpaceOnUse">
<stop stop-color="#5A365D"/>
<stop offset="1" stop-color="#5F1945"/>
</linearGradient>
<linearGradient id="paint30_linear_3084_7507" x1="178.717" y1="111.066" x2="178.717" y2="121.34" gradientUnits="userSpaceOnUse">
<stop stop-color="#5A365D"/>
<stop offset="1" stop-color="#5F1945"/>
</linearGradient>
<linearGradient id="paint31_linear_3084_7507" x1="217.581" y1="180.691" x2="217.581" y2="159.459" gradientUnits="userSpaceOnUse">
<stop stop-color="#F87A7E"/>
<stop offset="0.0566" stop-color="#F97C7E"/>
<stop offset="0.5286" stop-color="#FD887F"/>
<stop offset="1" stop-color="#FF8C7F"/>
</linearGradient>
<linearGradient id="paint32_linear_3084_7507" x1="231.255" y1="179.23" x2="226.38" y2="179.23" gradientUnits="userSpaceOnUse">
<stop stop-color="#77254B"/>
<stop offset="1" stop-color="#8D2542"/>
</linearGradient>
<linearGradient id="paint33_linear_3084_7507" x1="204.055" y1="179.23" x2="208.93" y2="179.23" gradientUnits="userSpaceOnUse">
<stop stop-color="#77254B"/>
<stop offset="1" stop-color="#8D2542"/>
</linearGradient>
<linearGradient id="paint34_linear_3084_7507" x1="230.096" y1="172.514" x2="230.096" y2="166.248" gradientUnits="userSpaceOnUse">
<stop stop-color="#FFE9DA"/>
<stop offset="0.9944" stop-color="#D077F3"/>
</linearGradient>
<linearGradient id="paint35_linear_3084_7507" x1="205.213" y1="172.514" x2="205.213" y2="166.248" gradientUnits="userSpaceOnUse">
<stop stop-color="#FFE9DA"/>
<stop offset="0.9944" stop-color="#D077F3"/>
</linearGradient>
<linearGradient id="paint36_linear_3084_7507" x1="179.25" y1="160.481" x2="179.25" y2="137.76" gradientUnits="userSpaceOnUse">
<stop stop-color="#EDE1FF"/>
<stop offset="0.996" stop-color="#BCC8FA"/>
</linearGradient>
<linearGradient id="paint37_linear_3084_7507" x1="168.41" y1="146.937" x2="195.506" y2="146.937" gradientUnits="userSpaceOnUse">
<stop stop-color="#72791A"/>
<stop offset="1" stop-color="#594A0B"/>
</linearGradient>
<linearGradient id="paint38_linear_3084_7507" x1="181.958" y1="155.814" x2="181.958" y2="136.508" gradientUnits="userSpaceOnUse">
<stop stop-color="#A58C18"/>
<stop offset="1" stop-color="#402F40"/>
</linearGradient>
<linearGradient id="paint39_linear_3084_7507" x1="181.957" y1="152.377" x2="181.957" y2="140.544" gradientUnits="userSpaceOnUse">
<stop stop-color="#72791A"/>
<stop offset="1" stop-color="#594A0B"/>
</linearGradient>
<linearGradient id="paint40_linear_3084_7507" x1="253.152" y1="160.511" x2="253.152" y2="137.791" gradientUnits="userSpaceOnUse">
<stop stop-color="#EDE1FF"/>
<stop offset="0.996" stop-color="#BCC8FA"/>
</linearGradient>
<linearGradient id="paint41_linear_3084_7507" x1="263.994" y1="146.967" x2="236.899" y2="146.967" gradientUnits="userSpaceOnUse">
<stop stop-color="#72791A"/>
<stop offset="1" stop-color="#594A0B"/>
</linearGradient>
<linearGradient id="paint42_linear_3084_7507" x1="250.447" y1="155.844" x2="250.447" y2="136.538" gradientUnits="userSpaceOnUse">
<stop stop-color="#A58C18"/>
<stop offset="1" stop-color="#402F40"/>
</linearGradient>
<linearGradient id="paint43_linear_3084_7507" x1="250.446" y1="152.408" x2="250.446" y2="140.575" gradientUnits="userSpaceOnUse">
<stop stop-color="#72791A"/>
<stop offset="1" stop-color="#594A0B"/>
</linearGradient>
<linearGradient id="paint44_linear_3084_7507" x1="218.645" y1="45.0438" x2="218.645" y2="145.355" gradientUnits="userSpaceOnUse">
<stop stop-color="#5A365D"/>
<stop offset="1" stop-color="#5F1945"/>
</linearGradient>
</defs>
</svg>
