<svg width="388" height="558" viewBox="0 0 388 558" fill="none" xmlns="http://www.w3.org/2000/svg">
<g clip-path="url(#clip0_3084_8009)">
<path d="M129.359 340.295C129.359 340.295 77.2834 362.178 68.4563 375.708C64.9182 381.131 65.8363 389.568 65.8363 389.568H91.9951L129.359 340.295Z" fill="url(#paint0_linear_3084_8009)"/>
<path d="M260.233 400.802C303.735 402.199 379.802 398.976 384.488 355.942C388.531 318.807 375.282 259.955 358.573 234.78C357.76 233.555 356.939 232.412 356.112 231.352C354.239 228.954 352.329 226.998 350.408 225.558C320.432 203.093 218.341 233.555 217.452 274.699C216.881 301.046 216.73 399.408 260.233 400.802Z" fill="url(#paint1_linear_3084_8009)"/>
<path d="M346.138 297.762L365.445 290.065C369.808 288.327 374.719 290.795 375.898 295.344C379.954 310.989 386.2 343.418 370.458 350.057C351.378 358.103 344.617 336.093 341.262 305.856C340.876 302.369 342.883 299.058 346.138 297.762Z" fill="url(#paint2_linear_3084_8009)"/>
<path d="M319.611 248.884C319.885 249.421 320.517 249.653 321.064 249.436L321.084 249.429C324.915 247.907 328.848 246.501 332.758 245.087L358.572 234.78C357.759 233.555 356.939 232.412 356.111 231.352L331.437 241.881C327.652 243.659 323.877 245.417 320.117 247.329C319.548 247.619 319.321 248.315 319.611 248.884Z" fill="#9CBDEA"/>
<path d="M1.22166 200.901C1.83699 204.456 2.6794 208.084 3.75134 211.737C8.30283 227.267 31.0749 250.825 66.5419 267.476C67.8385 268.086 69.1546 268.685 70.4854 269.276C72.7685 270.289 75.1004 271.271 77.4811 272.22C89.8121 258.91 94.2342 221.314 95.2598 200.722C95.2305 200.708 95.2012 200.691 95.1694 200.674C93.3601 199.726 91.5922 198.754 89.8708 197.758C88.0785 196.725 86.3399 195.665 84.66 194.581C80.5651 191.939 76.834 189.151 73.5962 186.216C73.5962 186.216 73.0761 160.582 65.8069 157.969C56.9286 154.78 50.3528 172.81 50.3528 172.81L50.3504 172.808C50.0525 172.503 30.086 152.055 18.3947 154.05C3.16287 156.646 -2.88543 177.14 1.22166 200.901Z" fill="url(#paint3_linear_3084_8009)"/>
<path d="M77.4814 272.221C80.6655 273.49 83.935 274.701 87.2876 275.844C105.838 282.171 126.91 286.417 149.949 287.084C157.855 287.326 165.991 287.13 174.335 286.459L181.628 255.311L187.467 230.381C187.467 230.381 174.774 228.068 157.425 223.456C143.72 219.827 127.111 214.765 111.542 208.292C109.342 207.379 107.164 206.436 105.017 205.465C101.672 203.953 98.4075 202.373 95.26 200.723C94.2345 221.314 89.8124 258.91 77.4814 272.221Z" fill="url(#paint4_linear_3084_8009)"/>
<path d="M85.6244 389.568H199.126C199.126 389.568 227.929 439.546 243.188 438.343C283.329 435.176 326.568 428.82 328.936 352.663C330.404 305.321 306.987 258.742 289.05 230.288C278.128 212.951 269.239 202.329 269.239 202.329L158.746 207.97C158.746 207.97 158.319 213.796 157.428 223.458C156.873 229.492 156.133 237.015 155.196 245.546C153.855 257.797 152.122 272.118 149.948 287.086C146.62 310.017 142.262 334.452 136.772 355.231C134.404 364.222 93.7018 358.997 85.6244 389.568Z" fill="url(#paint5_linear_3084_8009)"/>
<path d="M183.388 486.136C177.203 496.179 157.576 533.16 176.141 548.628C193.858 563.401 226.556 560.972 243.788 537.753C255.174 522.391 257.486 504.686 256.839 491.139C256.37 481.46 255.13 472.054 256.046 463.498C256.317 460.932 256.786 458.443 257.525 456.046C250.198 428.214 229.911 416.315 220.129 412.084C202.497 404.463 182.519 405.139 170.732 413.37C169.992 415.048 169.328 416.767 168.74 418.518C162.345 437.5 164.73 460.162 174.036 471.226C179.168 477.328 184.694 484.112 184.694 484.112C184.394 484.544 183.945 485.23 183.388 486.136Z" fill="url(#paint6_linear_3084_8009)"/>
<path d="M170.732 413.37C182.518 405.139 202.497 404.463 220.129 412.084C229.911 416.315 250.197 428.214 257.525 456.045C258.35 453.367 259.518 450.803 261.137 448.376C261.718 447.502 262.411 446.662 263.202 445.851C274.588 434.16 306.292 428.539 322.591 409.852C332.866 398.087 338.368 376.714 337.433 350.536C337.306 347.017 337.061 343.411 336.698 339.726C317.466 358.225 251.589 352.768 239.742 343.389C239.473 343.176 239.217 342.964 238.972 342.747C233.137 360.232 227.809 373.66 224.048 378.101C223.25 379.051 222.522 379.581 221.875 379.674C213.981 380.773 206.238 382.98 198.898 386.332C192.332 389.336 185.988 393.289 180.728 398.49C180.12 399.096 179.53 399.718 178.961 400.361C175.574 404.16 172.841 408.589 170.732 413.37Z" fill="url(#paint7_linear_3084_8009)"/>
<path d="M238.972 342.747C239.216 342.964 239.473 343.176 239.741 343.389C251.589 352.768 317.466 358.225 336.697 339.726C336.238 335.087 335.589 330.325 334.739 325.466C333.994 321.21 333.096 316.881 332.038 312.495C323.902 278.733 306.331 241.556 276.832 208.199C276.832 208.199 263.588 261.181 249.706 308.256C248.283 313.089 246.849 317.86 245.426 322.504C243.24 329.624 241.074 336.449 238.972 342.747Z" fill="url(#paint8_linear_3084_8009)"/>
<path d="M183.388 486.136C185.761 486.658 188.254 487.134 190.821 487.532C194.322 488.077 197.99 488.502 201.381 488.636C204.766 488.78 207.82 488.66 209.996 488.26C206.636 487.982 203.638 487.715 200.722 487.308C199.277 487.122 197.865 486.905 196.481 486.675C195.096 486.451 193.734 486.204 192.403 485.928C189.737 485.386 187.163 484.771 184.694 484.111C184.394 484.544 183.945 485.23 183.388 486.136Z" fill="#9CBDEA"/>
<path d="M89.8447 153.261C91.2195 153.349 92.4038 152.307 92.4917 150.932L97.0749 79.2508C97.1628 77.8761 96.1202 76.6918 94.7454 76.6039C80.3267 75.6833 67.8907 86.6226 66.9701 101.041L65.4073 125.484C64.4844 139.905 75.426 152.341 89.8447 153.261Z" fill="url(#paint9_linear_3084_8009)"/>
<path d="M331.344 91.7283C329.969 91.6404 328.785 92.6831 328.697 94.0578L324.114 165.739C324.026 167.114 325.069 168.298 326.444 168.386C340.862 169.306 353.298 158.367 354.219 143.948L355.782 119.506C356.705 105.087 345.763 92.6513 331.344 91.7283Z" fill="url(#paint10_linear_3084_8009)"/>
<path d="M88.1817 123.369C88.6652 190.968 143.857 245.373 211.453 244.89C279.051 244.406 333.457 189.217 332.973 121.618C332.815 99.4201 326.757 78.6453 316.298 60.769C312.318 53.9662 307.701 47.5834 302.524 41.7035C279.901 15.972 246.656 -0.165803 209.702 0.0979102C174.164 0.351856 142.272 15.7278 120.086 40.0773C114.988 45.6714 110.402 51.7368 106.405 58.2051C94.6989 77.1314 88.0108 99.4762 88.1817 123.369Z" fill="url(#paint11_linear_3084_8009)"/>
<path d="M120.087 40.0771C144.49 25.6852 176.094 17.9862 211.832 18.2548C247.306 18.5381 278.534 26.7962 302.525 41.7033C307.701 47.5832 312.319 53.966 316.299 60.7688C293.021 37.4473 255.999 24.1786 211.751 23.827C167.599 23.4534 130.262 35.8284 106.405 58.2049C110.402 51.7366 114.988 45.6712 120.087 40.0771Z" fill="#9CBDEA"/>
<path d="M135.682 358.828C139.123 359.531 143.393 360.352 148.311 361.201C154.105 362.2 160.806 363.24 168.114 364.168C169.318 364.32 170.539 364.471 171.774 364.617C185.685 366.261 201.525 367.443 217.419 367.198C222.981 367.111 227.474 362.635 227.62 357.07L228.954 304.3C229.105 298.357 224.251 293.5 218.31 293.652C210.508 293.852 199.347 294.077 187.58 294.116C186.369 294.121 185.15 294.123 183.929 294.123C169.682 294.126 154.967 293.828 144.565 292.87C139.013 292.355 134.058 296.345 133.345 301.881L130.034 327.439L127.456 347.317C126.757 352.721 130.335 357.741 135.682 358.828Z" fill="url(#paint12_linear_3084_8009)"/>
<path d="M219.105 293.664L240.084 295.901C244.685 296.392 248.128 300.342 247.986 304.965L246.389 357.317C246.25 361.88 242.658 365.589 238.102 365.875L218.719 367.089" fill="white"/>
<path d="M219.105 293.664L240.084 295.901C244.685 296.392 248.128 300.342 247.986 304.965L246.389 357.317C246.25 361.88 242.658 365.589 238.102 365.875L218.719 367.089" fill="url(#paint13_linear_3084_8009)"/>
<path d="M238.971 342.746C239.215 342.964 239.472 343.176 239.74 343.389C251.588 352.768 317.465 358.225 336.696 339.726C336.984 339.45 337.263 339.167 337.529 338.879C340.755 335.399 341.8 331.756 341.638 328.315C341.487 331.346 340.332 334.491 337.529 337.514C337.263 337.802 336.984 338.085 336.696 338.361C317.465 356.86 251.588 351.403 239.74 342.024C239.472 341.811 239.215 341.599 238.971 341.381C235.819 338.622 234.586 335.726 234.417 333.006C234.224 336.105 235.286 339.521 238.971 342.746Z" fill="#9CBDEA"/>
<path d="M234.417 333.006C234.586 335.726 235.819 338.622 238.971 341.382C239.215 341.599 239.472 341.811 239.74 342.024C251.588 351.403 317.465 356.86 336.696 338.361C336.985 338.085 337.263 337.802 337.529 337.514C340.332 334.491 341.487 331.346 341.639 328.316C341.233 319.547 332.983 312.107 332.983 312.107C332.983 312.107 332.672 312.249 332.038 312.495C326.873 314.522 300.253 323.725 245.425 322.504C243.564 322.463 241.669 322.409 239.74 322.343C239.74 322.343 234.786 327.09 234.417 333.006Z" fill="url(#paint14_linear_3084_8009)"/>
<path d="M168.114 364.169C169.318 364.32 170.539 364.471 171.774 364.618L171.938 335.866L187.6 326.421L187.58 294.116C186.369 294.121 185.151 294.124 183.93 294.124V324.619L168.246 334.274L168.114 364.169Z" fill="#0876E4"/>
<path d="M153.321 335.526C142.263 335.526 133.298 326.562 133.298 315.504C133.298 304.445 142.263 295.481 153.321 295.481C164.379 295.481 173.344 304.445 173.344 315.504C173.344 326.562 164.379 335.526 153.321 335.526Z" fill="url(#paint15_radial_3084_8009)"/>
<path fill-rule="evenodd" clip-rule="evenodd" d="M144.23 308.483L151.679 304.093C152.615 303.544 153.775 303.544 154.707 304.093L162.157 308.483C163.066 309.018 163.622 309.993 163.622 311.047V320.016C163.622 321.068 163.066 322.045 162.157 322.58L154.707 326.97C153.772 327.522 152.612 327.522 151.679 326.97L144.23 322.58C143.321 322.045 142.765 321.068 142.765 320.016V311.047C142.765 309.993 143.321 309.018 144.23 308.483ZM150.669 302.384C152.226 301.466 154.158 301.466 155.716 302.384L163.166 306.774C164.68 307.665 165.607 309.292 165.607 311.047V320.016C165.607 321.772 164.68 323.395 163.166 324.289L155.716 328.68C154.158 329.598 152.226 329.598 150.669 328.68L143.219 324.289C141.705 323.398 140.777 321.772 140.777 320.016V311.047C140.777 309.292 141.705 307.668 143.219 306.774L150.669 302.384Z" fill="#0876E4"/>
<path fill-rule="evenodd" clip-rule="evenodd" d="M153 308.798C155.285 308.798 157.139 310.649 157.139 312.932C157.139 313.325 156.819 313.645 156.426 313.645C156.032 313.645 155.713 313.325 155.713 312.932C155.713 311.435 154.499 310.224 153.002 310.224C151.505 310.224 150.292 311.438 150.292 312.932V314.214H156.714C157.424 314.214 157.998 314.788 157.998 315.496V319.203C157.998 320.385 157.041 321.342 155.857 321.342H150.148C148.966 321.342 148.006 320.385 148.006 319.203V315.496C148.006 314.937 148.363 314.463 148.863 314.285V312.93C148.861 310.649 150.714 308.798 153 308.798ZM149.574 315.643C149.576 315.643 149.576 315.643 149.574 315.643H156.567V319.208C156.567 319.601 156.247 319.921 155.854 319.921H150.145C149.752 319.921 149.432 319.601 149.432 319.208V315.643H149.574ZM153 317.21C153.315 317.21 153.571 317.467 153.571 317.782C153.571 318.097 153.315 318.353 153 318.353C152.685 318.353 152.428 318.097 152.428 317.782C152.428 317.467 152.685 317.21 153 317.21ZM154.142 317.782C154.142 317.152 153.632 316.641 153 316.641C152.367 316.641 151.857 317.152 151.857 317.782C151.857 318.412 152.367 318.922 153 318.922C153.632 318.922 154.142 318.409 154.142 317.782Z" fill="#0876E4"/>
<path d="M97.8105 399.135C107.685 411.078 130.88 422.603 147.94 411.913C162.188 402.983 163.075 394.498 173.176 387.143C174.859 385.917 187.268 382.174 203.723 374.077C205.899 373.01 208.145 371.862 210.445 370.637C210.333 370.383 210.243 370.117 210.174 369.838C210.047 369.321 198.285 322.492 169.284 314.583C167.282 315.972 165.277 317.352 163.28 318.719C141.699 333.495 120.583 347.12 104.45 361.678C85.1401 379.1 88.1777 387.483 97.8105 399.135Z" fill="url(#paint16_linear_3084_8009)"/>
<path d="M169.284 314.583C198.285 322.492 210.047 369.321 210.174 369.838C210.242 370.117 210.332 370.383 210.445 370.637C213.162 369.189 215.961 367.626 218.808 365.944C238.476 354.34 260.609 337.055 276.822 311.787L234.396 257.953C218.888 277.302 199.01 293.401 178.592 308.024C175.498 310.244 172.389 312.427 169.284 314.583Z" fill="url(#paint17_linear_3084_8009)"/>
<path d="M163.28 318.719C188.55 328.748 200.561 363.387 203.723 374.077C205.899 373.01 208.145 371.862 210.445 370.637C210.333 370.383 210.243 370.117 210.174 369.838C210.047 369.321 198.285 322.492 169.284 314.583C167.282 315.972 165.277 317.352 163.28 318.719Z" fill="#0876E4"/>
<path d="M1.22316 200.901C15.9032 204.107 45.2754 209.127 49.0236 198.925C54.0463 185.251 50.3544 172.81 50.3544 172.81L50.3519 172.808C50.054 172.503 30.0875 152.055 18.3962 154.05C3.16437 156.646 -2.88393 177.14 1.22316 200.901Z" fill="url(#paint18_linear_3084_8009)"/>
<mask id="mask0_3084_8009" style="mask-type:luminance" maskUnits="userSpaceOnUse" x="85" y="32" width="252" height="202">
<path d="M85.8228 133.722C87.3025 158.704 96.6863 181.411 111.523 199.77C122.645 213.535 166.36 236.151 218.527 233.462C266.896 230.969 309.337 202.207 318.757 187.198C331.323 167.177 337.959 143.497 336.48 118.515C332.565 52.406 274.834 28.4033 205.614 32.6031C136.395 36.803 81.9086 67.6135 85.8228 133.722Z" fill="white"/>
</mask>
<g mask="url(#mask0_3084_8009)">
<path d="M85.8228 133.722C87.3025 158.704 96.6863 181.411 111.523 199.77C122.645 213.535 166.36 236.151 218.527 233.462C266.896 230.969 309.337 202.207 318.757 187.198C331.323 167.177 337.959 143.497 336.48 118.515C332.565 52.406 274.834 28.4033 205.614 32.6031C136.395 36.803 81.9086 67.6135 85.8228 133.722Z" fill="#371A45"/>
</g>
<mask id="mask1_3084_8009" style="mask-type:luminance" maskUnits="userSpaceOnUse" x="85" y="32" width="252" height="202">
<path d="M85.8228 133.722C87.3025 158.704 96.6863 181.411 111.523 199.77C122.645 213.535 166.36 236.151 218.527 233.462C266.896 230.969 309.337 202.207 318.757 187.198C331.323 167.177 337.959 143.497 336.48 118.515C332.565 52.406 274.834 28.4033 205.614 32.6031C136.395 36.803 81.9086 67.6135 85.8228 133.722Z" fill="white"/>
</mask>
<g mask="url(#mask1_3084_8009)">
<path d="M274.771 136.467C274.771 136.467 277.518 127.503 291.258 121.94C304.998 116.378 310.19 124.722 311.105 133.996C312.021 143.267 301.336 166.757 290.953 170.776C280.573 174.795 274.771 167.377 274.771 167.377V136.467Z" fill="url(#paint19_linear_3084_8009)"/>
<g style="mix-blend-mode:multiply" opacity="0.6">
<path d="M274.771 152.514V161.932C274.771 161.932 279.047 151.149 281.64 151.303C284.235 151.457 283.166 158.567 284.082 161.038C284.997 163.512 288.662 160.884 289.485 152.848C290.306 144.813 284.843 144.898 284.843 144.898C284.843 144.898 290.899 130.54 298.378 134.713C305.857 138.886 301.535 158.001 301.535 158.001C301.535 158.001 311.83 139.853 309.676 133.17C307.523 126.484 301.128 126.011 290.745 132.347C285.657 135.453 280.688 142.415 276.947 148.697C276.165 150.014 275.435 151.3 274.771 152.514Z" fill="url(#paint20_linear_3084_8009)"/>
</g>
<g style="mix-blend-mode:multiply" opacity="0.6">
<path d="M274.771 151.657V158.076C276.333 155.031 280.387 147.716 282.252 149.603C284.592 151.972 283.358 156.326 285.305 159.349C287.253 162.371 290.051 154.235 288.435 148.832C286.816 143.426 280.399 145.567 278.487 147.103C278.026 147.474 277.503 148.028 276.951 148.697C276.248 149.547 275.501 150.58 274.771 151.657Z" fill="url(#paint21_linear_3084_8009)"/>
</g>
<path d="M140.799 136.467C140.799 136.467 138.052 127.503 124.312 121.94C110.572 116.378 105.381 124.722 104.465 133.996C103.549 143.267 114.235 166.757 124.617 170.776C134.997 174.795 140.799 167.377 140.799 167.377V136.467Z" fill="url(#paint22_linear_3084_8009)"/>
<g style="mix-blend-mode:multiply" opacity="0.6">
<path d="M140.799 152.514V161.932C140.799 161.932 136.523 151.149 133.93 151.303C131.334 151.457 132.404 158.567 131.488 161.038C130.573 163.512 126.907 160.884 126.085 152.848C125.264 144.813 130.726 144.898 130.726 144.898C130.726 144.898 124.671 130.54 117.192 134.713C109.71 138.886 114.034 158.001 114.034 158.001C114.034 158.001 103.74 139.853 105.893 133.17C108.047 126.484 114.442 126.011 124.825 132.347C129.913 135.453 134.882 142.415 138.623 148.697C139.402 150.014 140.132 151.3 140.799 152.514Z" fill="url(#paint23_linear_3084_8009)"/>
</g>
<g style="mix-blend-mode:multiply" opacity="0.6">
<path d="M140.799 151.657V158.076C139.236 155.031 135.185 147.716 133.317 149.603C130.978 151.972 132.211 156.326 130.265 159.349C128.316 162.371 125.518 154.235 127.135 148.832C128.754 143.426 135.171 145.567 137.082 147.103C137.544 147.474 138.066 148.028 138.618 148.697C139.319 149.547 140.069 150.58 140.799 151.657Z" fill="url(#paint24_linear_3084_8009)"/>
</g>
<path d="M180.547 251.064C180.547 242.858 180.547 203.799 180.547 203.799L207.69 207.081L234.83 203.799C234.83 203.799 234.83 242.858 234.83 251.064C234.83 259.271 240.617 261.962 240.617 261.962C240.617 261.962 235.13 269.922 207.69 269.922C180.246 269.922 174.762 261.962 174.762 261.962C174.762 261.962 180.547 259.271 180.547 251.064Z" fill="url(#paint25_linear_3084_8009)"/>
<g style="mix-blend-mode:multiply" opacity="0.6">
<path d="M180.548 203.799C180.548 203.799 180.548 226.041 180.548 240.484C184.868 244.931 190.511 248.435 197.733 248.974C215.507 250.31 229.997 228.861 234.834 220.72C234.834 211.466 234.834 203.799 234.834 203.799L207.689 207.081L180.548 203.799Z" fill="#D077B7"/>
</g>
<path d="M139.51 112.571C139.51 89.2545 136.233 35.2324 207.902 35.2324C279.571 35.2324 276.294 89.2545 276.294 112.571C276.294 136.94 283.317 172.629 276.599 184.431C260.486 212.741 221.337 222.083 207.902 222.083C194.467 222.083 155.318 212.743 139.205 184.431C132.49 172.629 139.51 136.94 139.51 112.571Z" fill="url(#paint26_linear_3084_8009)"/>
<g style="mix-blend-mode:multiply" opacity="0.6">
<path d="M139.206 184.43C155.317 212.743 194.468 222.083 207.903 222.083C221.338 222.083 260.489 212.743 276.6 184.43C278.932 180.333 279.608 165.199 279.499 158.276C279.401 164.022 278.622 178.17 276.6 181.72C260.489 210.028 221.338 219.37 207.903 219.37C194.468 219.37 155.317 210.03 139.206 181.72C137.184 178.17 136.405 164.022 136.307 158.276C136.2 165.199 136.874 180.333 139.206 184.43Z" fill="url(#paint27_linear_3084_8009)"/>
</g>
<path d="M216.052 94.4998C219.841 101.703 224.967 102.099 224.967 102.099C225.733 102.235 226.683 102.316 227.78 102.35C234.995 102.585 248.33 100.866 254.522 100.866C261.652 100.866 270.941 106.565 270.941 106.565C270.941 106.565 271.48 104.482 269.627 101.298C268.999 100.221 268.098 99.022 266.812 97.7303C266.504 97.4226 266.211 97.1369 265.932 96.8732C265.063 96.0405 264.316 95.391 263.681 94.8831H263.679C261.305 92.9956 260.443 93.0738 260.443 93.0738C260.419 93.3131 260.807 93.6427 260.807 93.6427C260.807 93.6427 259.222 93.4229 256.803 93.1177C256.803 93.1177 256.8 93.1177 256.798 93.1177C255.233 92.9175 253.311 92.688 251.245 92.456C251.243 92.456 251.243 92.456 251.24 92.456C246.467 91.9261 240.909 91.4085 237.073 91.3621C229.003 91.2668 220.933 92.3144 220.933 92.3144C220.747 94.1189 222.437 96.1138 222.437 96.1138C219.453 94.8441 217.981 92.6904 217.981 92.6904L215.905 92.2655C215.903 92.2704 215.72 93.8674 216.052 94.4998Z" fill="url(#paint28_linear_3084_8009)"/>
<g style="mix-blend-mode:multiply" opacity="0.6">
<path d="M227.78 102.35C234.995 102.585 248.33 100.866 254.522 100.866C261.652 100.866 270.941 106.565 270.941 106.565C270.941 106.565 271.48 104.482 269.627 101.298C264.458 99.3028 259.262 98.2895 257.337 97.5399C255.198 96.7072 260.788 96.7194 265.935 96.8732C265.066 96.0406 264.318 95.3911 263.684 94.8832H263.681C255.968 94.2312 243.17 98.0892 242.804 98.1991C249.712 94.3533 256.571 93.1593 256.8 93.1178C255.235 92.9175 253.313 92.688 251.248 92.4561C251.245 92.4561 251.245 92.4561 251.243 92.4561C235.576 96.0284 227.78 102.35 227.78 102.35Z" fill="#F1ABD2"/>
</g>
<path d="M197.906 94.4998C194.117 101.703 188.991 102.099 188.991 102.099C188.225 102.235 187.275 102.316 186.178 102.35C178.963 102.585 165.628 100.866 159.436 100.866C152.306 100.866 143.017 106.565 143.017 106.565C143.017 106.565 142.478 104.482 144.331 101.298C144.959 100.221 145.86 99.022 147.147 97.7303C147.454 97.4226 147.747 97.1369 148.026 96.8732C148.895 96.0405 149.642 95.391 150.277 94.8831H150.279C152.653 92.9956 153.515 93.0738 153.515 93.0738C153.539 93.3131 153.151 93.6427 153.151 93.6427C153.151 93.6427 154.736 93.4229 157.155 93.1177C157.155 93.1177 157.158 93.1177 157.16 93.1177C158.725 92.9175 160.647 92.688 162.713 92.456C162.715 92.456 162.715 92.456 162.718 92.456C167.492 91.9261 173.049 91.4085 176.885 91.3621C184.955 91.2668 193.025 92.3144 193.025 92.3144C193.211 94.1189 191.521 96.1138 191.521 96.1138C194.505 94.8441 195.977 92.6904 195.977 92.6904L198.053 92.2655C198.055 92.2704 198.238 93.8674 197.906 94.4998Z" fill="url(#paint29_linear_3084_8009)"/>
<g style="mix-blend-mode:multiply" opacity="0.6">
<path d="M186.178 102.35C178.962 102.585 165.628 100.866 159.435 100.866C152.305 100.866 143.017 106.565 143.017 106.565C143.017 106.565 142.477 104.482 144.33 101.298C149.497 99.3028 154.693 98.2895 156.62 97.5399C158.759 96.7072 153.17 96.7194 148.022 96.8732C148.892 96.0406 149.639 95.3911 150.274 94.8832H150.276C157.99 94.2312 170.787 98.0892 171.153 98.1991C164.246 94.3533 157.387 93.1593 157.157 93.1178C158.722 92.9175 160.644 92.688 162.71 92.4561C162.712 92.4561 162.712 92.4561 162.715 92.4561C178.381 96.0284 186.178 102.35 186.178 102.35Z" fill="#F1ABD2"/>
</g>
<path d="M227.019 150.729C227.019 150.729 239.743 157.312 250.506 156.853C264.049 156.274 270.156 143.821 270.832 135.363C271.508 126.905 258.635 114.928 244.407 119.543C230.179 124.16 227.244 141.355 227.019 150.729Z" fill="url(#paint30_linear_3084_8009)"/>
<mask id="mask2_3084_8009" style="mask-type:luminance" maskUnits="userSpaceOnUse" x="227" y="118" width="44" height="39">
<path d="M227.019 150.729C227.019 150.729 239.631 157.312 250.506 156.853C264.049 156.282 270.156 143.821 270.832 135.363C271.508 126.905 258.635 114.928 244.407 119.543C230.179 124.16 227.244 141.355 227.019 150.729Z" fill="white"/>
</mask>
<g mask="url(#mask2_3084_8009)">
<path d="M248.484 149.062C241.38 149.062 235.621 143.232 235.621 136.04C235.621 128.848 241.38 123.018 248.484 123.018C255.589 123.018 261.348 128.848 261.348 136.04C261.348 143.232 255.589 149.062 248.484 149.062Z" fill="url(#paint31_linear_3084_8009)"/>
</g>
<mask id="mask3_3084_8009" style="mask-type:luminance" maskUnits="userSpaceOnUse" x="227" y="118" width="44" height="39">
<path d="M227.019 150.729C227.019 150.729 239.631 157.312 250.506 156.853C264.049 156.282 270.156 143.821 270.832 135.363C271.508 126.905 258.635 114.928 244.407 119.543C230.179 124.16 227.244 141.355 227.019 150.729Z" fill="white"/>
</mask>
<g mask="url(#mask3_3084_8009)">
<path d="M248.484 148.016C241.95 148.016 236.654 142.654 236.654 136.039C236.654 129.425 241.95 124.062 248.484 124.062C255.018 124.062 260.314 129.425 260.314 136.039C260.314 142.654 255.018 148.016 248.484 148.016Z" fill="url(#paint32_linear_3084_8009)"/>
</g>
<mask id="mask4_3084_8009" style="mask-type:luminance" maskUnits="userSpaceOnUse" x="227" y="118" width="44" height="39">
<path d="M227.019 150.729C227.019 150.729 239.631 157.312 250.506 156.853C264.049 156.282 270.156 143.821 270.832 135.363C271.508 126.905 258.635 114.928 244.407 119.543C230.179 124.16 227.244 141.355 227.019 150.729Z" fill="white"/>
</mask>
<g mask="url(#mask4_3084_8009)">
<g style="mix-blend-mode:multiply">
<path d="M248.484 143.504C252.549 143.504 255.855 140.156 255.855 136.042C255.855 131.927 252.549 128.58 248.484 128.58C244.418 128.58 241.112 131.927 241.112 136.042C241.112 140.156 244.418 143.504 248.484 143.504Z" fill="url(#paint33_linear_3084_8009)"/>
</g>
</g>
<path d="M268.635 128.101C268.813 128.302 264.926 114.64 251.262 114.298C237.597 113.956 231.883 128.565 231.883 128.565C231.883 128.565 248.939 105.754 268.635 128.101Z" fill="#DC4C6A"/>
<g style="mix-blend-mode:multiply" opacity="0.6">
<path d="M227.686 142.969C227.686 142.969 234.584 131.461 247.288 128.983C259.993 126.502 270.188 131.09 270.188 131.09C268.2 126.443 264.337 120.058 250.507 119.543C230.179 118.786 227.686 142.969 227.686 142.969Z" fill="#D077B7"/>
</g>
<path d="M270.109 130.965C270.109 130.965 268.383 125.725 262.327 121.428C247.73 111.065 228.45 118.144 227.686 142.969C227.686 142.969 232.721 114.071 257.366 121.701C265.231 124.136 270.109 130.965 270.109 130.965Z" fill="#4E1B3D"/>
<path d="M269.738 140.593C269.738 140.593 266.21 152.282 250.507 156.853C250.507 156.853 268.088 158.079 269.738 140.593Z" fill="#DC6B7C"/>
<path d="M227.685 144.706C227.685 144.706 226.403 147.272 226.389 149.592C226.379 151.135 227.685 152.163 231.883 152.895C231.883 152.895 228.711 150.585 227.81 148.842C227.478 148.207 227.685 144.706 227.685 144.706Z" fill="#DC6B7C"/>
<path d="M264.432 135.439C264.432 135.439 262.173 133.38 255.849 135.439C255.849 135.439 258.671 137.382 264.432 135.439Z" fill="white"/>
<path d="M252.948 134.526C252.948 134.526 254.001 136.14 252.948 136.303C251.896 136.467 250.47 135.732 250.506 135.414C250.541 135.097 252.624 133.891 252.948 134.526Z" fill="white"/>
<path d="M186.57 150.729C186.57 150.729 173.846 157.312 163.083 156.853C149.541 156.274 143.434 143.821 142.757 135.363C142.081 126.905 154.954 114.928 169.182 119.543C183.408 124.16 186.346 141.355 186.57 150.729Z" fill="url(#paint34_linear_3084_8009)"/>
<mask id="mask5_3084_8009" style="mask-type:luminance" maskUnits="userSpaceOnUse" x="142" y="118" width="45" height="39">
<path d="M186.57 150.729C186.57 150.729 173.958 157.312 163.083 156.853C149.541 156.282 143.434 143.821 142.757 135.363C142.081 126.905 154.954 114.928 169.182 119.543C183.408 124.16 186.346 141.355 186.57 150.729Z" fill="white"/>
</mask>
<g mask="url(#mask5_3084_8009)">
<path d="M165.105 149.062C158.001 149.062 152.242 143.232 152.242 136.04C152.242 128.848 158.001 123.018 165.105 123.018C172.21 123.018 177.969 128.848 177.969 136.04C177.969 143.232 172.21 149.062 165.105 149.062Z" fill="url(#paint35_linear_3084_8009)"/>
</g>
<mask id="mask6_3084_8009" style="mask-type:luminance" maskUnits="userSpaceOnUse" x="142" y="118" width="45" height="39">
<path d="M186.57 150.729C186.57 150.729 173.958 157.312 163.083 156.853C149.541 156.282 143.434 143.821 142.757 135.363C142.081 126.905 154.954 114.928 169.182 119.543C183.408 124.16 186.346 141.355 186.57 150.729Z" fill="white"/>
</mask>
<g mask="url(#mask6_3084_8009)">
<path d="M165.105 148.016C158.58 148.016 153.274 142.644 153.274 136.039C153.274 129.434 158.583 124.062 165.105 124.062C171.629 124.062 176.938 129.434 176.938 136.039C176.938 142.644 171.629 148.016 165.105 148.016Z" fill="url(#paint36_linear_3084_8009)"/>
</g>
<mask id="mask7_3084_8009" style="mask-type:luminance" maskUnits="userSpaceOnUse" x="142" y="118" width="45" height="39">
<path d="M186.57 150.729C186.57 150.729 173.958 157.312 163.083 156.853C149.541 156.282 143.434 143.821 142.757 135.363C142.081 126.905 154.954 114.928 169.182 119.543C183.408 124.16 186.346 141.355 186.57 150.729Z" fill="white"/>
</mask>
<g mask="url(#mask7_3084_8009)">
<g style="mix-blend-mode:multiply">
<path d="M165.105 143.501C161.033 143.501 157.733 140.16 157.733 136.039C157.733 131.918 161.033 128.577 165.105 128.577C169.176 128.577 172.477 131.918 172.477 136.039C172.477 140.16 169.176 143.501 165.105 143.501Z" fill="url(#paint37_linear_3084_8009)"/>
</g>
</g>
<path d="M144.956 128.101C144.777 128.302 148.665 114.64 162.329 114.298C175.993 113.956 181.707 128.565 181.707 128.565C181.707 128.565 164.651 105.754 144.956 128.101Z" fill="#DC4C6A"/>
<g style="mix-blend-mode:multiply" opacity="0.6">
<path d="M185.904 142.969C185.904 142.969 179.006 131.461 166.302 128.983C153.597 126.502 143.403 131.09 143.403 131.09C145.39 126.443 149.253 120.058 163.083 119.543C183.409 118.786 185.904 142.969 185.904 142.969Z" fill="#D077B7"/>
</g>
<path d="M143.481 130.965C143.481 130.965 145.207 125.725 151.263 121.428C165.86 111.065 185.14 118.144 185.904 142.969C185.904 142.969 180.869 114.071 156.224 121.701C148.359 124.136 143.481 130.965 143.481 130.965Z" fill="#4E1B3D"/>
<path d="M143.852 140.593C143.852 140.593 147.381 152.282 163.084 156.853C163.084 156.853 145.503 158.079 143.852 140.593Z" fill="#DC6B7C"/>
<path d="M185.905 144.706C185.905 144.706 187.186 147.272 187.201 149.592C187.211 151.135 185.905 152.163 181.707 152.895C181.707 152.895 184.879 150.585 185.78 148.842C186.112 148.207 185.905 144.706 185.905 144.706Z" fill="#DC6B7C"/>
<path d="M149.157 135.439C149.157 135.439 151.416 133.38 157.74 135.439C157.74 135.439 154.918 137.382 149.157 135.439Z" fill="white"/>
<path d="M160.64 134.526C160.64 134.526 159.587 136.14 160.64 136.303C161.692 136.469 163.118 135.732 163.081 135.414C163.047 135.097 160.967 133.891 160.64 134.526Z" fill="white"/>
<path d="M194.302 158.66C197.652 156.682 207.703 156.966 207.703 156.966C207.703 156.966 217.753 156.682 221.103 158.66C223.858 160.287 226.966 171.121 224.732 171.956C222.498 172.791 217.892 173.06 214.403 174.691C210.914 176.322 207.703 176.17 207.703 176.17C207.703 176.17 204.492 176.322 201.003 174.691C197.513 173.06 192.906 172.791 190.674 171.956C188.44 171.121 191.548 160.287 194.302 158.66Z" fill="url(#paint38_linear_3084_8009)"/>
<g style="mix-blend-mode:multiply" opacity="0.6">
<path d="M190.671 171.958C192.905 172.791 197.51 173.059 201 174.69C204.489 176.324 207.7 176.17 207.7 176.17C207.7 176.17 210.911 176.321 214.4 174.69C217.89 173.059 222.497 172.791 224.729 171.958C226.236 171.394 225.31 166.269 223.699 162.499C223.757 162.713 225.191 167.829 223.696 169.489C222.17 171.189 207.7 171.753 207.7 171.753C207.7 171.753 193.23 171.189 191.704 169.489C190.21 167.827 191.643 162.713 191.701 162.499C190.092 166.269 189.164 171.392 190.671 171.958Z" fill="#D077B7"/>
</g>
<path d="M222.779 172.369C222.779 172.369 219.918 171.734 215.869 174.063C215.869 174.063 219.847 173.78 222.779 172.369Z" fill="url(#paint39_linear_3084_8009)"/>
<path d="M192.385 172.369C192.385 172.369 195.246 171.734 199.295 174.063C199.295 174.063 195.315 173.78 192.385 172.369Z" fill="url(#paint40_linear_3084_8009)"/>
<g style="mix-blend-mode:multiply" opacity="0.6">
<path d="M225.066 171.711C225.066 171.711 224.324 169.704 222.315 170.154C220.305 170.603 213.929 171.711 207.075 171.711C200.221 171.711 193.934 170.266 192.373 169.902C190.813 169.538 190.674 171.956 190.674 171.956C190.674 171.956 197.54 180.126 207.869 180.126C218.2 180.126 225.066 171.711 225.066 171.711Z" fill="#D077B7"/>
</g>
<g style="mix-blend-mode:multiply" opacity="0.6">
<path d="M220.344 158.294C217.704 158.096 217.24 164.408 217.24 164.408C217.24 164.408 216.637 159.18 218.056 157.649L220.344 158.294Z" fill="url(#paint41_linear_3084_8009)"/>
</g>
<g style="mix-blend-mode:multiply" opacity="0.6">
<path d="M194.828 158.294C197.467 158.096 197.931 164.408 197.931 164.408C197.931 164.408 198.534 159.18 197.116 157.649L194.828 158.294Z" fill="url(#paint42_linear_3084_8009)"/>
</g>
<path d="M203.188 165.632C204.057 167.129 203.003 168.364 202.165 168.552C201.327 168.74 200.304 167.61 200.119 167.092C199.931 166.574 202.836 165.024 203.188 165.632Z" fill="#FFCEBE"/>
<path d="M247.175 36.2364C247.175 36.2364 237.857 9.45976 222.33 6.2073C206.802 2.95484 141.231 36.6735 112.859 57.7778C106.259 62.6858 122.439 112.181 131.236 125.552L138.335 135.583C138.567 135.969 138.698 134.557 138.74 134.108C139.118 129.845 139.826 118.254 140.798 107.878C141.975 95.3032 152.844 80.6696 152.844 80.6696C152.844 80.6696 176.912 78.4427 201.367 65.6526C225.824 52.8625 235.049 42.3897 235.049 42.3897C235.049 42.3897 250.474 48.1474 259.208 55.6144C259.208 55.6144 268.138 76.0497 270.853 92.1607C270.853 92.1607 271.61 116.029 273.568 128.665C273.705 129.544 277.275 136.337 277.739 135.585C278.996 133.544 279.389 131.136 281.841 128.66C281.841 128.66 292.978 92.6783 290.648 72.5751C288.319 52.4718 268.521 35.8921 252.217 38.456C252.217 38.456 263.603 28.6327 279.509 25.4657C279.509 25.4657 275.509 18.5847 266.97 20.0058C258.431 21.4245 247.175 36.2364 247.175 36.2364Z" fill="url(#paint43_linear_3084_8009)"/>
<g style="mix-blend-mode:multiply" opacity="0.5">
<path d="M131.236 125.552L138.332 135.581C138.564 135.966 138.695 134.56 138.735 134.111C139.115 129.842 139.821 118.251 140.793 107.876C141.972 95.3009 152.843 80.6673 152.843 80.6673C152.843 80.6673 165.499 79.4952 181.778 73.9792C187.951 71.8817 194.644 69.1689 201.366 65.6478C225.823 52.8602 235.046 42.3849 235.046 42.3849C235.046 42.3849 250.473 48.1451 259.207 55.6121C259.207 55.6121 268.137 76.0474 270.852 92.1583C270.852 92.1583 271.614 116.012 273.57 128.658C273.709 129.54 277.274 136.345 277.748 135.583C278.998 133.539 279.394 131.134 281.848 128.658C281.848 128.658 292.98 92.6784 290.653 72.5728C289.72 64.5002 286.468 58.237 281.855 52.3816C281.926 52.7357 283.269 58.0637 282.888 61.5066C282.5 65.0423 263.285 54.2374 259.403 51.4855C255.52 48.7336 245.607 42.3849 245.607 42.3849C245.607 42.3849 248.2 38.881 247.174 36.239C247.174 36.239 247.15 36.1828 247.111 36.0656C246.908 35.4991 246.195 33.5823 245.016 30.972C245.016 30.972 227.376 14.5461 219.419 14.153C212.027 13.7916 192.913 28.6133 190.234 30.7352C192.036 29.4459 201.159 23.1583 211.072 21.2244C222.136 19.0634 235.722 33.6018 235.722 33.6018C235.722 33.6018 217.67 30.2615 210.489 31.6362C203.308 33.0109 186.071 61.3063 177.298 69.5571C168.524 77.8104 152.26 76.2379 152.26 76.2379C152.26 76.2379 164.681 56.1957 178.074 48.7311C178.074 48.7311 167.01 50.3183 152.26 65.3451C137.509 80.3645 134.984 88.0268 134.984 88.0268C134.984 88.0268 132.654 72.309 137.895 63.0742C143.049 53.981 185.448 33.8533 186.777 33.2233C185.705 33.6238 154.626 45.2638 145.852 49.3196C136.923 53.4462 133.819 55.8026 132.654 56.1957C131.49 56.5888 129.744 50.2866 132.654 44.5948C125.1 49.2171 118.292 53.7197 112.856 57.7682C106.261 62.6859 122.44 112.176 131.236 125.552Z" fill="url(#paint44_linear_3084_8009)"/>
</g>
<path opacity="0.5" d="M181.779 73.9789C187.952 71.8814 194.645 69.1685 201.367 65.6475C225.824 52.8598 235.047 42.3846 235.047 42.3846C222.718 38.9099 209.977 38.9099 207.904 39.894C205.87 40.8585 192.191 65.0908 181.779 73.9789Z" fill="url(#paint45_linear_3084_8009)"/>
<path opacity="0.5" d="M136.297 56.3984C128.967 63.0792 122.64 76.0475 122.601 85.6755C122.562 95.3034 129.448 112.987 129.448 112.987C129.448 112.987 113.732 87.1332 115.962 70.8196C117.129 62.2929 136.297 56.3984 136.297 56.3984Z" fill="url(#paint46_linear_3084_8009)"/>
<path d="M188.83 15.3252C184.289 22.0133 192.439 26.7283 192.439 26.7283C192.439 26.7283 192.247 31.5533 174.387 35.2331C174.387 35.2331 185.234 25.107 177.093 20.6117L188.83 15.3252Z" fill="#FFD8BA"/>
<path d="M192.439 32.4268C192.439 32.4268 189.565 37.1614 195.738 42.6432C195.738 42.6432 193.409 49.1261 184.87 56.3978C184.87 56.3978 183.9 43.0363 175.359 40.4822C175.359 40.4822 178.853 39.3028 192.439 32.4268Z" fill="#FFD8BA"/>
<g style="mix-blend-mode:multiply" opacity="0.6">
<path d="M191.794 202.403C191.879 202.527 192.568 203.502 193.82 204.74C193.85 204.769 193.882 204.801 193.911 204.83C195.161 206.051 196.944 207.511 199.229 208.666C199.266 208.686 199.302 208.703 199.339 208.72C201.6 209.848 204.349 210.671 207.546 210.671C207.665 210.671 207.785 210.668 207.905 210.666H207.907H207.91C208.029 210.668 208.146 210.671 208.269 210.671C211.465 210.671 214.212 209.848 216.475 208.72C216.512 208.703 216.549 208.686 216.585 208.666C218.871 207.511 220.653 206.051 221.903 204.83C221.933 204.801 221.965 204.771 221.994 204.74C223.246 203.502 223.935 202.527 224.021 202.403C224.023 202.4 224.025 202.398 224.025 202.398C223.832 202.73 217.628 213.298 208.066 213.298C208.015 213.298 207.961 213.298 207.91 213.296C207.858 213.298 207.805 213.298 207.753 213.298C198.191 213.298 191.987 202.728 191.794 202.398C191.789 202.398 191.791 202.4 191.794 202.403Z" fill="#CE77B5"/>
</g>
<path d="M193.713 196.295L194.627 196.374L195.911 196.484C195.911 196.484 200.062 196.484 207.9 196.484C207.903 196.484 207.903 196.484 207.905 196.484C215.743 196.484 219.894 196.484 219.894 196.484L221.179 196.374L222.092 196.295L227.615 195.829C227.613 195.832 227.613 195.832 227.613 195.832C227.579 195.937 226.558 199.05 224.018 202.395C224.016 202.398 224.014 202.4 224.014 202.402C223.42 203.179 222.746 203.97 221.987 204.739C221.958 204.768 221.926 204.8 221.897 204.83C220.453 206.27 218.695 207.628 216.578 208.666C216.542 208.685 216.505 208.702 216.468 208.719C214.083 209.874 211.25 210.629 207.905 210.658H207.903H207.9C204.553 210.629 201.72 209.877 199.337 208.719C199.3 208.702 199.264 208.685 199.227 208.666C197.11 207.625 195.352 206.27 193.909 204.83C193.88 204.8 193.848 204.771 193.818 204.739C193.057 203.97 192.383 203.179 191.792 202.402C191.789 202.4 191.787 202.398 191.787 202.395C189.247 199.05 188.227 195.937 188.193 195.832C188.193 195.829 188.193 195.829 188.19 195.829L193.713 196.295Z" fill="#FF6563"/>
<path d="M207.902 185.137C207.905 185.137 207.905 185.137 207.907 185.137C220.907 185.403 227.617 195.829 227.617 195.829C227.615 195.832 227.615 195.832 227.615 195.832C225.615 197.934 222.179 196.662 222.179 196.662C221.84 196.576 221.508 196.479 221.181 196.374C217.537 195.204 214.546 192.975 210.515 192.579C209.694 192.499 208.818 192.501 207.907 192.565H207.905H207.902C206.991 192.499 206.115 192.499 205.294 192.579C201.263 192.975 198.272 195.204 194.629 196.374C194.301 196.479 193.969 196.576 193.63 196.662C193.63 196.662 190.194 197.932 188.195 195.832C188.195 195.829 188.195 195.829 188.192 195.829C188.192 195.829 194.902 185.403 207.902 185.137Z" fill="url(#paint47_linear_3084_8009)"/>
<path d="M192.902 196.457C198.559 205.621 206.344 206.336 207.901 206.402H207.906C216.663 206.402 222.916 197.07 222.916 196.457C222.916 196.384 222.071 195.942 221.908 195.829C220.462 194.855 219.495 191.195 214.58 189.219H214.577C214.575 189.217 214.572 189.217 214.57 189.217C214.546 189.207 214.524 189.197 214.499 189.188C214.438 189.163 214.38 189.141 214.316 189.117C214.284 189.105 214.25 189.092 214.216 189.08C214.179 189.066 214.138 189.051 214.099 189.039C214.079 189.031 214.057 189.024 214.035 189.017C213.947 188.985 213.847 188.951 213.74 188.917C213.637 188.882 213.532 188.846 213.425 188.814C213.325 188.782 213.225 188.751 213.115 188.719C213.08 188.709 213.046 188.699 213.012 188.69C212.27 188.477 211.474 188.306 210.624 188.191C209.774 188.074 208.868 188.008 207.906 188.008C207.906 188.008 207.906 188.008 207.904 188.008H207.901C205.977 188.011 204.28 188.267 202.796 188.69C202.759 188.699 202.727 188.712 202.693 188.719C202.583 188.751 202.483 188.782 202.383 188.814C202.278 188.848 202.171 188.882 202.068 188.917C201.961 188.953 201.86 188.985 201.773 189.017C201.751 189.024 201.729 189.031 201.709 189.039C201.67 189.053 201.631 189.066 201.592 189.08C201.555 189.095 201.524 189.107 201.492 189.117C201.431 189.141 201.37 189.163 201.309 189.188C201.284 189.197 201.262 189.205 201.238 189.217C201.235 189.217 201.233 189.219 201.231 189.219H201.228C196.313 191.195 194.997 194.762 193.9 195.829C193.764 195.964 192.863 196.391 192.902 196.457Z" fill="#812751"/>
<path d="M201.371 205.115L198.099 207.247C196.341 206.402 194.827 205.045 194.827 205.045L199.938 203.995L201.371 205.115Z" fill="#FFDDEB"/>
<path d="M208.046 204.222C208.361 204.129 212.876 203.374 215.107 204.312C215.107 204.312 212.036 206.402 207.97 206.402C207.999 206.402 207.858 206.405 207.887 206.402C204.798 206.402 200.896 204.312 200.896 204.312C202.657 203.469 205.108 203.279 208.046 204.222Z" fill="#BF273F"/>
<g style="mix-blend-mode:multiply" opacity="0.6">
<path d="M192.902 196.457C196.216 201.55 198.855 202.998 199.173 203.245C199.815 199.892 212.871 199.182 216.424 203.472C219.913 201.047 222.914 197.07 222.914 196.457C222.914 196.384 222.289 196.127 221.906 195.829C220.714 194.901 219.493 191.195 214.578 189.219H214.575C214.573 189.217 214.57 189.217 214.568 189.217C214.544 189.207 214.522 189.197 214.497 189.188C214.436 189.163 214.378 189.141 214.314 189.117C214.282 189.105 214.248 189.092 214.214 189.08C214.177 189.066 214.136 189.051 214.097 189.039C214.077 189.031 214.055 189.024 214.033 189.017C213.945 188.985 213.845 188.951 213.738 188.917C213.635 188.882 213.53 188.846 213.423 188.814C213.323 188.782 213.223 188.751 213.113 188.719C213.079 188.709 213.044 188.699 213.01 188.69C212.268 188.477 211.472 188.306 210.622 188.191C209.772 188.074 208.866 188.008 207.904 188.008C207.904 188.008 207.904 188.008 207.902 188.008H207.9C205.975 188.011 204.278 188.267 202.794 188.69C202.757 188.699 202.725 188.712 202.691 188.719C202.581 188.751 202.481 188.782 202.381 188.814C202.276 188.848 202.169 188.882 202.066 188.917C201.959 188.953 201.859 188.985 201.771 189.017C201.749 189.024 201.727 189.031 201.707 189.039C201.668 189.053 201.629 189.066 201.59 189.08C201.553 189.095 201.522 189.107 201.49 189.117C201.429 189.141 201.368 189.163 201.307 189.188C201.282 189.197 201.26 189.205 201.236 189.217C201.233 189.217 201.231 189.219 201.229 189.219H201.226C196.311 191.195 194.98 194.818 193.898 195.829C193.52 196.183 192.861 196.391 192.902 196.457Z" fill="#CE77B5"/>
</g>
<g style="mix-blend-mode:multiply" opacity="0.6">
<path d="M218.566 195.351C213.08 198.777 195.506 195.759 197.025 193.187C198.539 190.626 205.464 186.971 212.144 188.785C215.856 189.791 220.91 193.888 218.566 195.351Z" fill="#CE77B5"/>
</g>
<path d="M201.231 189.217C201.233 189.215 201.236 189.215 201.238 189.215C201.25 189.21 201.275 189.2 201.309 189.185C201.353 189.168 201.414 189.144 201.49 189.114C201.521 189.102 201.556 189.09 201.59 189.078C201.626 189.063 201.668 189.049 201.707 189.036C201.727 189.029 201.748 189.022 201.77 189.014C202.01 188.929 202.32 188.826 202.689 188.714C202.723 188.704 202.757 188.694 202.791 188.685C204.034 188.321 205.887 187.906 207.858 187.906H207.897H207.902H207.941C209.911 187.906 211.765 188.321 213.008 188.685C213.044 188.694 213.076 188.707 213.11 188.714C213.479 188.824 213.791 188.929 214.028 189.014C214.05 189.022 214.072 189.029 214.092 189.036C214.131 189.051 214.17 189.063 214.209 189.078C214.246 189.092 214.277 189.105 214.309 189.114C214.385 189.144 214.448 189.168 214.492 189.185C214.529 189.2 214.553 189.207 214.563 189.215C214.565 189.215 214.568 189.217 214.57 189.217C212.39 189.62 210.031 189.725 207.899 189.683C205.773 189.727 203.411 189.622 201.231 189.217Z" fill="#FFDDEB"/>
</g>
<mask id="mask8_3084_8009" style="mask-type:luminance" maskUnits="userSpaceOnUse" x="85" y="32" width="252" height="202">
<path d="M85.8228 133.722C87.3025 158.704 96.6863 181.411 111.523 199.77C122.645 213.535 166.36 236.151 218.527 233.462C266.896 230.969 309.337 202.207 318.757 187.198C331.323 167.177 337.959 143.497 336.48 118.515C332.565 52.406 274.834 28.4033 205.614 32.6031C136.395 36.803 81.9086 67.6135 85.8228 133.722Z" fill="white"/>
</mask>
<g mask="url(#mask8_3084_8009)">
<path opacity="0.1" d="M85.8228 133.722C87.3025 158.704 96.6863 181.411 111.523 199.77C122.645 213.535 166.36 236.151 218.527 233.462C266.896 230.969 309.337 202.207 318.757 187.198C331.323 167.177 337.959 143.497 336.48 118.515C332.565 52.406 274.834 28.4033 205.614 32.6031C136.395 36.803 81.9086 67.6135 85.8228 133.722Z" fill="#371A45"/>
</g>
<mask id="mask9_3084_8009" style="mask-type:luminance" maskUnits="userSpaceOnUse" x="85" y="32" width="252" height="202">
<path d="M85.8228 133.722C87.3025 158.704 96.6863 181.411 111.523 199.77C122.645 213.535 166.36 236.151 218.527 233.462C266.896 230.969 309.337 202.207 318.757 187.198C331.323 167.177 337.959 143.497 336.48 118.515C332.565 52.406 274.834 28.4033 205.614 32.6031C136.395 36.803 81.9086 67.6135 85.8228 133.722Z" fill="white"/>
</mask>
<g mask="url(#mask9_3084_8009)">
<g opacity="0.5">
<path d="M109.206 127.014C106.354 114.852 111.108 103.336 119.825 101.292C128.542 99.248 137.92 107.45 140.772 119.612C143.624 131.774 138.869 143.29 130.152 145.334C121.436 147.378 112.058 139.176 109.206 127.014Z" fill="white"/>
</g>
</g>
<mask id="mask10_3084_8009" style="mask-type:luminance" maskUnits="userSpaceOnUse" x="85" y="32" width="252" height="202">
<path d="M85.8228 133.722C87.3025 158.704 96.6863 181.411 111.523 199.77C122.645 213.535 166.36 236.151 218.527 233.462C266.896 230.969 309.337 202.207 318.757 187.198C331.323 167.177 337.959 143.497 336.48 118.515C332.565 52.406 274.834 28.4033 205.614 32.6031C136.395 36.803 81.9086 67.6135 85.8228 133.722Z" fill="white"/>
</mask>
<g mask="url(#mask10_3084_8009)">
<g opacity="0.5">
<path d="M139.174 169.904C137.201 164.525 139.309 158.806 143.882 157.128C148.455 155.451 153.761 158.45 155.734 163.829C157.707 169.207 155.6 174.926 151.027 176.604C146.454 178.281 141.147 175.282 139.174 169.904Z" fill="white"/>
</g>
</g>
<mask id="mask11_3084_8009" style="mask-type:luminance" maskUnits="userSpaceOnUse" x="85" y="32" width="252" height="202">
<path d="M85.8228 133.722C87.3025 158.704 96.6863 181.411 111.523 199.77C122.645 213.535 166.36 236.151 218.527 233.462C266.896 230.969 309.337 202.207 318.757 187.198C331.323 167.177 337.959 143.497 336.48 118.515C332.565 52.406 274.834 28.4033 205.614 32.6031C136.395 36.803 81.9086 67.6135 85.8228 133.722Z" fill="white"/>
</mask>
<g mask="url(#mask11_3084_8009)">
<g opacity="0.35">
<path d="M106.547 70.5703C92.1012 86.3003 84.2557 107.168 85.8234 133.72C87.3031 158.707 96.6917 181.413 111.518 199.773C122.646 213.535 166.363 236.15 218.527 233.467C236.946 232.522 254.5 227.763 269.707 221.397C205.512 223.311 152.25 195.531 138.456 178.461C119.625 155.161 107.716 126.338 105.844 94.6366C105.338 86.1611 105.604 78.1447 106.547 70.5703Z" fill="#111A28"/>
</g>
</g>
<mask id="mask12_3084_8009" style="mask-type:luminance" maskUnits="userSpaceOnUse" x="85" y="32" width="252" height="202">
<path d="M85.8228 133.722C87.3025 158.704 96.6863 181.411 111.523 199.77C122.645 213.535 166.36 236.151 218.527 233.462C266.896 230.969 309.337 202.207 318.757 187.198C331.323 167.177 337.959 143.497 336.48 118.515C332.565 52.406 274.834 28.4033 205.614 32.6031C136.395 36.803 81.9086 67.6135 85.8228 133.722Z" fill="white"/>
</mask>
<g mask="url(#mask12_3084_8009)">
<g opacity="0.5">
<path d="M309.619 160.604C309.619 160.604 325.984 94.1606 289.726 70.2775C253.468 46.3944 203.521 49.5296 204.881 52.704C204.881 52.704 260.984 62.9009 285.243 105.845C303.947 138.96 309.619 160.604 309.619 160.604Z" fill="white"/>
</g>
</g>
<path d="M168.74 418.518C221.17 398.449 249.502 449.68 256.046 463.498C256.317 460.932 256.786 458.443 257.525 456.046C250.198 428.214 229.911 416.315 220.129 412.084C202.497 404.463 182.519 405.139 170.732 413.37C169.992 415.048 169.328 416.767 168.74 418.518Z" fill="#0876E4"/>
<path d="M66.5419 267.476C67.8385 268.087 69.1546 268.685 70.4854 269.276C72.7685 270.289 75.1004 271.271 77.4811 272.221C89.8121 258.91 94.2342 221.314 95.2598 200.723C95.2305 200.708 95.2012 200.691 95.1694 200.674C93.3601 199.726 91.5922 198.755 89.8708 197.758C88.0785 196.725 86.3399 195.666 84.66 194.582C80.3502 237.159 71.6233 259.633 66.5419 267.476Z" fill="#0876E4"/>
</g>
<defs>
<linearGradient id="paint0_linear_3084_8009" x1="129.359" y1="364.931" x2="65.7288" y2="364.931" gradientUnits="userSpaceOnUse">
<stop stop-color="#B4D6FE"/>
<stop offset="1" stop-color="#D0E5FD"/>
</linearGradient>
<linearGradient id="paint1_linear_3084_8009" x1="385.222" y1="309.494" x2="217.337" y2="309.494" gradientUnits="userSpaceOnUse">
<stop stop-color="#B4D6FE"/>
<stop offset="1" stop-color="#D0E5FD"/>
</linearGradient>
<linearGradient id="paint2_linear_3084_8009" x1="343.652" y1="336.673" x2="390.255" y2="296.488" gradientUnits="userSpaceOnUse">
<stop stop-color="#84BCFD"/>
<stop offset="1" stop-color="#D0E5FD"/>
</linearGradient>
<linearGradient id="paint3_linear_3084_8009" x1="44.0467" y1="200.121" x2="89.4407" y2="226.911" gradientUnits="userSpaceOnUse">
<stop stop-color="#B4D6FE"/>
<stop offset="1" stop-color="#D0E5FD"/>
</linearGradient>
<linearGradient id="paint4_linear_3084_8009" x1="86.5225" y1="237.775" x2="154.893" y2="253.403" gradientUnits="userSpaceOnUse">
<stop stop-color="#B4D6FE"/>
<stop offset="1" stop-color="#D0E5FD"/>
</linearGradient>
<linearGradient id="paint5_linear_3084_8009" x1="151.715" y1="287.822" x2="205.294" y2="304.752" gradientUnits="userSpaceOnUse">
<stop stop-color="#B4D6FE"/>
<stop offset="1" stop-color="#D0E5FD"/>
</linearGradient>
<linearGradient id="paint6_linear_3084_8009" x1="213.364" y1="418.407" x2="208.899" y2="514.404" gradientUnits="userSpaceOnUse">
<stop stop-color="#B4D6FE"/>
<stop offset="1" stop-color="#D0E5FD"/>
</linearGradient>
<linearGradient id="paint7_linear_3084_8009" x1="274.318" y1="352.704" x2="243.9" y2="419.958" gradientUnits="userSpaceOnUse">
<stop stop-color="#84BCFD"/>
<stop offset="1" stop-color="#D0E5FD"/>
</linearGradient>
<linearGradient id="paint8_linear_3084_8009" x1="310.063" y1="310.02" x2="279.367" y2="289.741" gradientUnits="userSpaceOnUse">
<stop stop-color="#B4D6FE"/>
<stop offset="1" stop-color="#D0E5FD"/>
</linearGradient>
<linearGradient id="paint9_linear_3084_8009" x1="97.079" y1="114.908" x2="65.3515" y2="114.908" gradientUnits="userSpaceOnUse">
<stop stop-color="#9AC9FD"/>
<stop offset="1" stop-color="#D0E5FD"/>
</linearGradient>
<linearGradient id="paint10_linear_3084_8009" x1="355.837" y1="130.082" x2="324.11" y2="130.082" gradientUnits="userSpaceOnUse">
<stop stop-color="#9AC9FD"/>
<stop offset="1" stop-color="#D0E5FD"/>
</linearGradient>
<linearGradient id="paint11_linear_3084_8009" x1="332.978" y1="122.493" x2="88.1797" y2="122.493" gradientUnits="userSpaceOnUse">
<stop stop-color="#9AC9FD"/>
<stop offset="1" stop-color="#D0E5FD"/>
</linearGradient>
<linearGradient id="paint12_linear_3084_8009" x1="192.425" y1="307.979" x2="173.449" y2="342.861" gradientUnits="userSpaceOnUse">
<stop stop-color="#84BCFD"/>
<stop offset="1" stop-color="#D0E5FD"/>
</linearGradient>
<linearGradient id="paint13_linear_3084_8009" x1="240.714" y1="365.91" x2="229.551" y2="319.586" gradientUnits="userSpaceOnUse">
<stop stop-color="#84BCFD"/>
<stop offset="1" stop-color="#D0E5FD"/>
</linearGradient>
<linearGradient id="paint14_linear_3084_8009" x1="246.104" y1="337.443" x2="333.349" y2="329.639" gradientUnits="userSpaceOnUse">
<stop stop-color="#84BCFD"/>
<stop offset="1" stop-color="#D0E5FD"/>
</linearGradient>
<radialGradient id="paint15_radial_3084_8009" cx="0" cy="0" r="1" gradientUnits="userSpaceOnUse" gradientTransform="translate(153.322 315.503) rotate(180) scale(20.0226 20.0227)">
<stop stop-color="#84BCFD"/>
<stop offset="1" stop-color="#84BCFD" stop-opacity="0"/>
</radialGradient>
<linearGradient id="paint16_linear_3084_8009" x1="106.382" y1="397.017" x2="161.636" y2="361.297" gradientUnits="userSpaceOnUse">
<stop stop-color="#B4D6FE"/>
<stop offset="1" stop-color="#D0E5FD"/>
</linearGradient>
<linearGradient id="paint17_linear_3084_8009" x1="193.389" y1="327.601" x2="251.433" y2="300.998" gradientUnits="userSpaceOnUse">
<stop stop-color="#B4D6FE"/>
<stop offset="1" stop-color="#D0E5FD"/>
</linearGradient>
<linearGradient id="paint18_linear_3084_8009" x1="28.8798" y1="159.889" x2="24.7868" y2="193.004" gradientUnits="userSpaceOnUse">
<stop stop-color="#84BCFD"/>
<stop offset="1" stop-color="#B4D6FE"/>
</linearGradient>
<linearGradient id="paint19_linear_3084_8009" x1="292.965" y1="171.969" x2="292.965" y2="120.15" gradientUnits="userSpaceOnUse">
<stop stop-color="#FFB29C"/>
<stop offset="0.2186" stop-color="#FF9B8E"/>
<stop offset="0.479" stop-color="#FF8781"/>
<stop offset="0.7398" stop-color="#FF7B7A"/>
<stop offset="1" stop-color="#FF7777"/>
</linearGradient>
<linearGradient id="paint20_linear_3084_8009" x1="292.373" y1="161.934" x2="292.373" y2="127.863" gradientUnits="userSpaceOnUse">
<stop stop-color="#FFE9DA"/>
<stop offset="0.9944" stop-color="#D077F3"/>
</linearGradient>
<linearGradient id="paint21_linear_3084_8009" x1="281.844" y1="160.003" x2="281.844" y2="145.361" gradientUnits="userSpaceOnUse">
<stop stop-color="#FFE9DA"/>
<stop offset="0.9944" stop-color="#D077F3"/>
</linearGradient>
<linearGradient id="paint22_linear_3084_8009" x1="122.604" y1="171.969" x2="122.604" y2="120.15" gradientUnits="userSpaceOnUse">
<stop stop-color="#FFB29C"/>
<stop offset="0.2186" stop-color="#FF9B8E"/>
<stop offset="0.479" stop-color="#FF8781"/>
<stop offset="0.7398" stop-color="#FF7B7A"/>
<stop offset="1" stop-color="#FF7777"/>
</linearGradient>
<linearGradient id="paint23_linear_3084_8009" x1="123.196" y1="161.934" x2="123.196" y2="127.863" gradientUnits="userSpaceOnUse">
<stop stop-color="#FFE9DA"/>
<stop offset="0.9944" stop-color="#D077F3"/>
</linearGradient>
<linearGradient id="paint24_linear_3084_8009" x1="133.724" y1="160.003" x2="133.724" y2="145.361" gradientUnits="userSpaceOnUse">
<stop stop-color="#FFE9DA"/>
<stop offset="0.9944" stop-color="#D077F3"/>
</linearGradient>
<linearGradient id="paint25_linear_3084_8009" x1="207.688" y1="262.281" x2="207.688" y2="211.872" gradientUnits="userSpaceOnUse">
<stop stop-color="#FFB29C"/>
<stop offset="0.2186" stop-color="#FF9B8E"/>
<stop offset="0.479" stop-color="#FF8781"/>
<stop offset="0.7398" stop-color="#FF7B7A"/>
<stop offset="1" stop-color="#FF7777"/>
</linearGradient>
<linearGradient id="paint26_linear_3084_8009" x1="207.904" y1="222.083" x2="207.904" y2="35.2322" gradientUnits="userSpaceOnUse">
<stop stop-color="#FFA995"/>
<stop offset="0.4274" stop-color="#F8AA98"/>
<stop offset="0.5417" stop-color="#FBA28F"/>
<stop offset="0.771" stop-color="#FE9883"/>
<stop offset="1" stop-color="#FF957F"/>
</linearGradient>
<linearGradient id="paint27_linear_3084_8009" x1="207.905" y1="222.083" x2="207.905" y2="158.276" gradientUnits="userSpaceOnUse">
<stop offset="0.005587" stop-color="#D077F3"/>
<stop offset="0.1573" stop-color="#D480F1"/>
<stop offset="0.4008" stop-color="#DD97EC"/>
<stop offset="0.7036" stop-color="#EDBDE4"/>
<stop offset="1" stop-color="#FFE9DA"/>
</linearGradient>
<linearGradient id="paint28_linear_3084_8009" x1="243.434" y1="94.6026" x2="243.434" y2="106.084" gradientUnits="userSpaceOnUse">
<stop stop-color="#ED9963"/>
<stop offset="1" stop-color="#CE635E"/>
</linearGradient>
<linearGradient id="paint29_linear_3084_8009" x1="170.525" y1="94.6026" x2="170.525" y2="106.084" gradientUnits="userSpaceOnUse">
<stop stop-color="#ED9963"/>
<stop offset="1" stop-color="#CE635E"/>
</linearGradient>
<linearGradient id="paint30_linear_3084_8009" x1="248.938" y1="156.876" x2="248.938" y2="118.517" gradientUnits="userSpaceOnUse">
<stop stop-color="#EDE1FF"/>
<stop offset="0.996" stop-color="#BCC8FA"/>
</linearGradient>
<linearGradient id="paint31_linear_3084_8009" x1="248.484" y1="149.266" x2="248.484" y2="125.49" gradientUnits="userSpaceOnUse">
<stop stop-color="#781813"/>
<stop offset="1" stop-color="#45000A"/>
</linearGradient>
<linearGradient id="paint32_linear_3084_8009" x1="248.484" y1="146.592" x2="248.484" y2="126.523" gradientUnits="userSpaceOnUse">
<stop stop-color="#AA4B15"/>
<stop offset="1" stop-color="#85171B"/>
</linearGradient>
<linearGradient id="paint33_linear_3084_8009" x1="248.483" y1="143.503" x2="248.483" y2="128.577" gradientUnits="userSpaceOnUse">
<stop stop-color="#9987A4"/>
<stop offset="0.9944" stop-color="#534181"/>
</linearGradient>
<linearGradient id="paint34_linear_3084_8009" x1="164.651" y1="156.876" x2="164.651" y2="118.517" gradientUnits="userSpaceOnUse">
<stop stop-color="#EDE1FF"/>
<stop offset="0.996" stop-color="#BCC8FA"/>
</linearGradient>
<linearGradient id="paint35_linear_3084_8009" x1="165.106" y1="149.266" x2="165.106" y2="125.49" gradientUnits="userSpaceOnUse">
<stop stop-color="#781813"/>
<stop offset="1" stop-color="#45000A"/>
</linearGradient>
<linearGradient id="paint36_linear_3084_8009" x1="165.105" y1="146.592" x2="165.105" y2="126.523" gradientUnits="userSpaceOnUse">
<stop stop-color="#AA4B15"/>
<stop offset="1" stop-color="#85171B"/>
</linearGradient>
<linearGradient id="paint37_linear_3084_8009" x1="165.105" y1="143.503" x2="165.105" y2="128.577" gradientUnits="userSpaceOnUse">
<stop stop-color="#9987A4"/>
<stop offset="0.9944" stop-color="#534181"/>
</linearGradient>
<linearGradient id="paint38_linear_3084_8009" x1="207.702" y1="173.827" x2="207.702" y2="161.732" gradientUnits="userSpaceOnUse">
<stop stop-color="#F87A7E"/>
<stop offset="0.0566" stop-color="#F97C7E"/>
<stop offset="0.5286" stop-color="#FD887F"/>
<stop offset="1" stop-color="#FF8C7F"/>
</linearGradient>
<linearGradient id="paint39_linear_3084_8009" x1="222.779" y1="173.176" x2="215.869" y2="173.176" gradientUnits="userSpaceOnUse">
<stop stop-color="#91314B"/>
<stop offset="1" stop-color="#992542"/>
</linearGradient>
<linearGradient id="paint40_linear_3084_8009" x1="192.384" y1="173.176" x2="199.294" y2="173.176" gradientUnits="userSpaceOnUse">
<stop stop-color="#91314B"/>
<stop offset="1" stop-color="#992542"/>
</linearGradient>
<linearGradient id="paint41_linear_3084_8009" x1="218.729" y1="158.001" x2="218.729" y2="164.692" gradientUnits="userSpaceOnUse">
<stop stop-color="#FFE9DA"/>
<stop offset="0.9944" stop-color="#D077F3"/>
</linearGradient>
<linearGradient id="paint42_linear_3084_8009" x1="196.442" y1="158.001" x2="196.442" y2="164.692" gradientUnits="userSpaceOnUse">
<stop stop-color="#FFE9DA"/>
<stop offset="0.9944" stop-color="#D077F3"/>
</linearGradient>
<linearGradient id="paint43_linear_3084_8009" x1="290.972" y1="70.8169" x2="111.318" y2="70.8169" gradientUnits="userSpaceOnUse">
<stop stop-color="#FEDAB6"/>
<stop offset="1" stop-color="#F4B995"/>
</linearGradient>
<linearGradient id="paint44_linear_3084_8009" x1="201.144" y1="139.644" x2="201.144" y2="37.6867" gradientUnits="userSpaceOnUse">
<stop stop-color="#FFE9DA"/>
<stop offset="0.9944" stop-color="#EA7052"/>
</linearGradient>
<linearGradient id="paint45_linear_3084_8009" x1="217.632" y1="109.156" x2="206.13" y2="45.5569" gradientUnits="userSpaceOnUse">
<stop stop-color="#FFE9DA"/>
<stop offset="0.9944" stop-color="#EA7052"/>
</linearGradient>
<linearGradient id="paint46_linear_3084_8009" x1="136.342" y1="123.892" x2="124.861" y2="60.4059" gradientUnits="userSpaceOnUse">
<stop stop-color="#FFE9DA"/>
<stop offset="0.9944" stop-color="#EA7052"/>
</linearGradient>
<linearGradient id="paint47_linear_3084_8009" x1="207.904" y1="188.388" x2="207.904" y2="204.426" gradientUnits="userSpaceOnUse">
<stop stop-color="#D93F57"/>
<stop offset="1" stop-color="#FF6563"/>
</linearGradient>
<clipPath id="clip0_3084_8009">
<rect width="388" height="557.948" fill="white" transform="matrix(-1 0 0 1 388 0)"/>
</clipPath>
</defs>
</svg>
