<svg width="345" height="293" viewBox="0 0 345 293" fill="none" xmlns="http://www.w3.org/2000/svg">
<rect width="108.333" height="91" rx="5" fill="white" fill-opacity="0.8"/>
<g clip-path="url(#clip0_2525_6070)">
<path d="M38.3004 30.8558C38.2996 33.6501 39.033 36.3785 40.4275 38.7833L38.167 47L46.6136 44.7952C48.9498 46.0613 51.5673 46.7248 54.2273 46.7249H54.2343C63.0153 46.7249 70.1632 39.6116 70.167 30.8683C70.1687 26.6316 68.5128 22.6477 65.5044 19.6504C62.4964 16.6533 58.496 15.0019 54.2336 15C45.4516 15 38.3041 22.113 38.3005 30.8558" fill="url(#paint0_linear_2525_6070)"/>
<path d="M49.7432 23.7433C49.4115 23.0365 49.0623 23.0223 48.7468 23.0099C48.4884 22.9992 48.1931 23 47.898 23C47.6027 23 47.1228 23.1065 46.7172 23.531C46.3111 23.9559 45.167 24.9826 45.167 27.0709C45.167 29.1593 46.754 31.1774 46.9752 31.4609C47.1968 31.7438 50.039 36.1664 54.5404 37.8678C58.2815 39.2817 59.0429 39.0005 59.8548 38.9296C60.6669 38.8589 62.4751 37.9031 62.844 36.9119C63.2132 35.9209 63.2132 35.0714 63.1025 34.8939C62.9918 34.717 62.6965 34.6108 62.2536 34.3987C61.8106 34.1864 59.6333 33.1595 59.2274 33.0178C58.8213 32.8763 58.5261 32.8056 58.2308 33.2306C57.9354 33.655 57.0873 34.6108 56.8288 34.8939C56.5706 35.1776 56.3121 35.213 55.8694 35.0007C55.4262 34.7877 53.9999 34.34 52.3078 32.8941C50.9912 31.769 50.1024 30.3797 49.8441 29.9546C49.5857 29.5303 49.8164 29.3003 50.0385 29.0888C50.2374 28.8986 50.4815 28.5931 50.7031 28.3454C50.9239 28.0975 50.9976 27.9206 51.1453 27.6375C51.2931 27.3542 51.2192 27.1063 51.1086 26.894C50.9976 26.6817 50.137 24.5826 49.7432 23.7434" fill="white"/>
</g>
<path d="M30.7536 72H29.6051L27.5885 65.3076C27.4928 65.0114 27.3857 64.6377 27.2673 64.1865C27.1488 63.7354 27.0872 63.4642 27.0827 63.373C26.9824 63.9746 26.8229 64.6331 26.6042 65.3486L24.6491 72H23.5007L20.8415 62.0059H22.0719L23.651 68.1787C23.8698 69.0446 24.0293 69.8285 24.1296 70.5303C24.2526 69.6963 24.4349 68.8805 24.6764 68.083L26.4674 62.0059H27.6979L29.5778 68.1377C29.7966 68.8441 29.9811 69.6416 30.1315 70.5303C30.2181 69.8831 30.3822 69.0947 30.6237 68.165L32.196 62.0059H33.4264L30.7536 72ZM39.9479 72V67.1533C39.9479 66.5426 39.8089 66.0869 39.5309 65.7861C39.2529 65.4854 38.8177 65.335 38.2253 65.335C37.4369 65.335 36.8604 65.5492 36.4958 65.9775C36.1357 66.4059 35.9557 67.1077 35.9557 68.083V72H34.821V61.3633H35.9557V64.583C35.9557 64.9704 35.9375 65.2917 35.901 65.5469H35.9694C36.1927 65.1868 36.5094 64.9043 36.9196 64.6992C37.3343 64.4896 37.806 64.3848 38.3346 64.3848C39.2507 64.3848 39.9365 64.6035 40.3923 65.041C40.8525 65.474 41.0827 66.1644 41.0827 67.1123V72H39.9479ZM48.028 72L47.8024 70.9336H47.7477C47.374 71.403 47.0003 71.722 46.6266 71.8906C46.2575 72.0547 45.7949 72.1367 45.2389 72.1367C44.4961 72.1367 43.9128 71.9453 43.4889 71.5625C43.0697 71.1797 42.86 70.6351 42.86 69.9287C42.86 68.4157 44.07 67.6227 46.4899 67.5498L47.7614 67.5088V67.0439C47.7614 66.4561 47.6338 66.0231 47.3786 65.7451C47.1279 65.4626 46.7246 65.3213 46.1686 65.3213C45.5443 65.3213 44.8379 65.5127 44.0495 65.8955L43.7008 65.0273C44.07 64.8268 44.4733 64.6696 44.9108 64.5557C45.3529 64.4417 45.7949 64.3848 46.237 64.3848C47.1302 64.3848 47.791 64.583 48.2194 64.9795C48.6523 65.376 48.8688 66.0117 48.8688 66.8867V72H48.028ZM45.4645 71.2002C46.1709 71.2002 46.7246 71.0065 47.1257 70.6191C47.5313 70.2318 47.7341 69.6895 47.7341 68.9922V68.3154L46.5993 68.3633C45.6969 68.3952 45.0452 68.5365 44.6442 68.7871C44.2477 69.0332 44.0495 69.4183 44.0495 69.9424C44.0495 70.3525 44.1725 70.6647 44.4186 70.8789C44.6693 71.0931 45.0179 71.2002 45.4645 71.2002ZM53.6335 71.2002C53.834 71.2002 54.0277 71.1865 54.2145 71.1592C54.4014 71.1273 54.5495 71.0954 54.6589 71.0635V71.9316C54.5358 71.9909 54.3535 72.0387 54.112 72.0752C53.875 72.1162 53.6608 72.1367 53.4694 72.1367C52.0202 72.1367 51.2956 71.3734 51.2956 69.8467V65.3896H50.2223V64.8428L51.2956 64.3711L51.7741 62.7715H52.4303V64.5078H54.6042V65.3896H52.4303V69.7988C52.4303 70.25 52.5374 70.5964 52.7516 70.8379C52.9658 71.0794 53.2598 71.2002 53.6335 71.2002ZM60.9958 69.9561C60.9958 70.6533 60.736 71.1911 60.2165 71.5693C59.6969 71.9476 58.9678 72.1367 58.029 72.1367C57.0355 72.1367 56.2607 71.9795 55.7048 71.665V70.6123C56.0648 70.7946 56.4499 70.9382 56.86 71.043C57.2747 71.1478 57.6735 71.2002 58.0563 71.2002C58.6488 71.2002 59.1045 71.1068 59.4235 70.9199C59.7425 70.7285 59.902 70.4391 59.902 70.0518C59.902 69.7601 59.7744 69.5117 59.5192 69.3066C59.2686 69.097 58.7764 68.8509 58.0426 68.5684C57.3454 68.3086 56.8486 68.083 56.5524 67.8916C56.2607 67.6956 56.042 67.4746 55.8962 67.2285C55.7549 66.9824 55.6842 66.6885 55.6842 66.3467C55.6842 65.736 55.9326 65.2552 56.4294 64.9043C56.9261 64.5488 57.6074 64.3711 58.4733 64.3711C59.2799 64.3711 60.0684 64.5352 60.8385 64.8633L60.4352 65.7861C59.6833 65.4762 59.002 65.3213 58.3913 65.3213C57.8535 65.3213 57.4479 65.4056 57.1745 65.5742C56.901 65.7428 56.7643 65.9753 56.7643 66.2715C56.7643 66.472 56.8145 66.6429 56.9147 66.7842C57.0195 66.9255 57.1859 67.0599 57.4137 67.1875C57.6416 67.3151 58.0791 67.4997 58.7262 67.7412C59.6149 68.0648 60.2142 68.3906 60.5241 68.7188C60.8385 69.0469 60.9958 69.4593 60.9958 69.9561ZM69.3014 72L68.0573 68.8213H64.0514L62.821 72H61.6452L65.5964 61.9648H66.5739L70.5046 72H69.3014ZM67.695 67.7754L66.5329 64.6787C66.3825 64.2868 66.2275 63.806 66.068 63.2363C65.9678 63.6738 65.8242 64.1546 65.6374 64.6787L64.4616 67.7754H67.695ZM75.194 72.1367C74.7064 72.1367 74.2598 72.0479 73.8542 71.8701C73.4531 71.6878 73.1159 71.4098 72.8424 71.0361H72.7604C72.8151 71.4736 72.8424 71.8883 72.8424 72.2803V75.3633H71.7077V64.5078H72.6305L72.7878 65.5332H72.8424C73.1341 65.123 73.4736 64.8268 73.861 64.6445C74.2484 64.4622 74.6927 64.3711 75.194 64.3711C76.1875 64.3711 76.9531 64.7106 77.4909 65.3896C78.0332 66.0687 78.3044 67.0212 78.3044 68.2471C78.3044 69.4775 78.0286 70.4346 77.4772 71.1182C76.9303 71.7972 76.1693 72.1367 75.194 72.1367ZM75.0299 65.335C74.2643 65.335 73.7106 65.5469 73.3688 65.9707C73.027 66.3945 72.8516 67.069 72.8424 67.9941V68.2471C72.8424 69.2998 73.0179 70.054 73.3688 70.5098C73.7197 70.9609 74.2826 71.1865 75.0573 71.1865C75.7044 71.1865 76.2103 70.9245 76.5749 70.4004C76.944 69.8763 77.1286 69.154 77.1286 68.2334C77.1286 67.2992 76.944 66.5837 76.5749 66.0869C76.2103 65.5856 75.6953 65.335 75.0299 65.335ZM83.78 72.1367C83.2923 72.1367 82.8457 72.0479 82.4401 71.8701C82.0391 71.6878 81.7018 71.4098 81.4284 71.0361H81.3464C81.401 71.4736 81.4284 71.8883 81.4284 72.2803V75.3633H80.2936V64.5078H81.2165L81.3737 65.5332H81.4284C81.7201 65.123 82.0596 64.8268 82.4469 64.6445C82.8343 64.4622 83.2787 64.3711 83.78 64.3711C84.7734 64.3711 85.5391 64.7106 86.0768 65.3896C86.6191 66.0687 86.8903 67.0212 86.8903 68.2471C86.8903 69.4775 86.6146 70.4346 86.0632 71.1182C85.5163 71.7972 84.7552 72.1367 83.78 72.1367ZM83.6159 65.335C82.8503 65.335 82.2966 65.5469 81.9548 65.9707C81.613 66.3945 81.4375 67.069 81.4284 67.9941V68.2471C81.4284 69.2998 81.6038 70.054 81.9548 70.5098C82.3057 70.9609 82.8685 71.1865 83.6432 71.1865C84.2904 71.1865 84.7962 70.9245 85.1608 70.4004C85.53 69.8763 85.7145 69.154 85.7145 68.2334C85.7145 67.2992 85.53 66.5837 85.1608 66.0869C84.7962 65.5856 84.2813 65.335 83.6159 65.335Z" fill="#434A57"/>
<rect x="118.333" width="108.333" height="91" rx="5" fill="white" fill-opacity="0.8"/>
<g clip-path="url(#clip1_2525_6070)">
<path d="M172.5 15C168.257 15 164.185 16.6868 161.188 19.6863C158.187 22.6869 156.501 26.7565 156.5 31C156.5 35.2417 158.188 39.3142 161.188 42.3137C164.185 45.3132 168.257 47 172.5 47C176.743 47 180.815 45.3132 183.812 42.3137C186.812 39.3142 188.5 35.2417 188.5 31C188.5 26.7583 186.812 22.6858 183.812 19.6863C180.815 16.6868 176.743 15 172.5 15Z" fill="url(#paint1_radial_2525_6070)"/>
<g clip-path="url(#clip2_2525_6070)">
<path d="M172.48 21.0781C175.176 21.0781 175.508 21.0977 176.562 21.1367C177.598 21.1758 178.32 21.3516 178.965 21.6055C179.629 21.8594 180.176 22.1914 180.723 22.7383C181.27 23.2852 181.602 23.832 181.855 24.4961C182.109 25.1406 182.285 25.8633 182.324 26.8984C182.363 27.9531 182.383 28.2852 182.383 30.9805C182.383 33.6758 182.363 34.0078 182.324 35.0625C182.285 36.0977 182.109 36.8203 181.855 37.4648C181.602 38.1289 181.27 38.6758 180.723 39.2227C180.176 39.7695 179.629 40.1016 178.965 40.3555C178.32 40.6094 177.598 40.7852 176.562 40.8242C175.508 40.8633 175.176 40.8828 172.48 40.8828C169.785 40.8828 169.453 40.8633 168.398 40.8242C167.363 40.7852 166.641 40.6094 165.996 40.3555C165.332 40.1016 164.785 39.7695 164.238 39.2227C163.691 38.6758 163.359 38.1289 163.105 37.4648C162.852 36.8203 162.676 36.0977 162.637 35.0625C162.598 34.0078 162.578 33.6758 162.578 30.9805C162.578 28.2852 162.598 27.9531 162.637 26.8984C162.676 25.8633 162.852 25.1406 163.105 24.4961C163.359 23.832 163.691 23.2852 164.238 22.7383C164.785 22.1914 165.332 21.8594 165.996 21.6055C166.641 21.3516 167.363 21.1758 168.398 21.1367C169.453 21.0977 169.785 21.0781 172.48 21.0781ZM172.48 22.3672C169.668 22.3672 169.336 22.3867 168.242 22.4258C167.227 22.4648 166.66 22.6602 166.289 22.7969C165.332 23.1875 164.688 23.832 164.297 24.7891C164.16 25.1602 163.965 25.7266 163.926 26.7422C163.887 27.8359 163.867 28.168 163.867 30.9805C163.867 33.793 163.887 34.125 163.926 35.2188C163.965 36.2344 164.16 36.8008 164.297 37.1719C164.688 38.1289 165.332 38.7734 166.289 39.1641C166.66 39.3008 167.227 39.4961 168.242 39.5352C169.336 39.5742 169.668 39.5938 172.48 39.5938C175.293 39.5938 175.625 39.5742 176.719 39.5352C177.734 39.4961 178.301 39.3008 178.672 39.1641C179.629 38.7734 180.273 38.1289 180.664 37.1719C180.801 36.8008 180.996 36.2344 181.035 35.2188C181.074 34.125 181.094 33.793 181.094 30.9805C181.094 28.168 181.074 27.8359 181.035 26.7422C180.996 25.7266 180.801 25.1602 180.664 24.7891C180.273 23.832 179.629 23.1875 178.672 22.7969C178.301 22.6602 177.734 22.4648 176.719 22.4258C175.625 22.3867 175.293 22.3672 172.48 22.3672ZM172.48 34.9453C174.668 34.9453 176.445 33.168 176.445 30.9805C176.445 28.793 174.668 27.0156 172.48 27.0156C170.293 27.0156 168.516 28.793 168.516 30.9805C168.516 33.168 170.293 34.9453 172.48 34.9453ZM172.48 25.9023C175.293 25.9023 177.559 28.168 177.559 30.9805C177.559 33.793 175.293 36.0586 172.48 36.0586C169.668 36.0586 167.402 33.793 167.402 30.9805C167.402 28.168 169.668 25.9023 172.48 25.9023ZM178.965 25.707C178.965 26.3711 178.418 26.8789 177.754 26.8789C177.09 26.8789 176.582 26.3711 176.582 25.707C176.582 25.043 177.09 24.4961 177.754 24.4961C178.418 24.4961 178.965 25.043 178.965 25.707Z" fill="white"/>
</g>
</g>
<path d="M140.801 72V62.0059H141.964V72H140.801ZM149.668 72V67.1533C149.668 66.5426 149.529 66.0869 149.251 65.7861C148.973 65.4854 148.537 65.335 147.945 65.335C147.161 65.335 146.587 65.5469 146.222 65.9707C145.858 66.3945 145.675 67.0941 145.675 68.0693V72H144.541V64.5078H145.464L145.648 65.5332H145.703C145.935 65.1641 146.261 64.8792 146.68 64.6787C147.1 64.4736 147.567 64.3711 148.082 64.3711C148.984 64.3711 149.663 64.5898 150.119 65.0273C150.575 65.4603 150.802 66.1553 150.802 67.1123V72H149.668ZM157.973 69.9561C157.973 70.6533 157.714 71.1911 157.194 71.5693C156.674 71.9476 155.945 72.1367 155.007 72.1367C154.013 72.1367 153.238 71.9795 152.682 71.665V70.6123C153.042 70.7946 153.427 70.9382 153.838 71.043C154.252 71.1478 154.651 71.2002 155.034 71.2002C155.626 71.2002 156.082 71.1068 156.401 70.9199C156.72 70.7285 156.88 70.4391 156.88 70.0518C156.88 69.7601 156.752 69.5117 156.497 69.3066C156.246 69.097 155.754 68.8509 155.02 68.5684C154.323 68.3086 153.826 68.083 153.53 67.8916C153.238 67.6956 153.02 67.4746 152.874 67.2285C152.732 66.9824 152.662 66.6885 152.662 66.3467C152.662 65.736 152.91 65.2552 153.407 64.9043C153.904 64.5488 154.585 64.3711 155.451 64.3711C156.257 64.3711 157.046 64.5352 157.816 64.8633L157.413 65.7861C156.661 65.4762 155.979 65.3213 155.369 65.3213C154.831 65.3213 154.425 65.4056 154.152 65.5742C153.879 65.7428 153.742 65.9753 153.742 66.2715C153.742 66.472 153.792 66.6429 153.892 66.7842C153.997 66.9255 154.163 67.0599 154.391 67.1875C154.619 67.3151 155.057 67.4997 155.704 67.7412C156.592 68.0648 157.192 68.3906 157.502 68.7188C157.816 69.0469 157.973 69.4593 157.973 69.9561ZM162.246 71.2002C162.446 71.2002 162.64 71.1865 162.827 71.1592C163.014 71.1273 163.162 71.0954 163.271 71.0635V71.9316C163.148 71.9909 162.966 72.0387 162.724 72.0752C162.487 72.1162 162.273 72.1367 162.082 72.1367C160.632 72.1367 159.908 71.3734 159.908 69.8467V65.3896H158.835V64.8428L159.908 64.3711L160.386 62.7715H161.043V64.5078H163.216V65.3896H161.043V69.7988C161.043 70.25 161.15 70.5964 161.364 70.8379C161.578 71.0794 161.872 71.2002 162.246 71.2002ZM169.382 72L169.157 70.9336H169.102C168.729 71.403 168.355 71.722 167.981 71.8906C167.612 72.0547 167.149 72.1367 166.593 72.1367C165.851 72.1367 165.267 71.9453 164.843 71.5625C164.424 71.1797 164.215 70.6351 164.215 69.9287C164.215 68.4157 165.424 67.6227 167.844 67.5498L169.116 67.5088V67.0439C169.116 66.4561 168.988 66.0231 168.733 65.7451C168.482 65.4626 168.079 65.3213 167.523 65.3213C166.899 65.3213 166.192 65.5127 165.404 65.8955L165.055 65.0273C165.424 64.8268 165.828 64.6696 166.265 64.5557C166.707 64.4417 167.149 64.3848 167.591 64.3848C168.485 64.3848 169.146 64.583 169.574 64.9795C170.007 65.376 170.223 66.0117 170.223 66.8867V72H169.382ZM166.819 71.2002C167.525 71.2002 168.079 71.0065 168.48 70.6191C168.886 70.2318 169.089 69.6895 169.089 68.9922V68.3154L167.954 68.3633C167.051 68.3952 166.4 68.5365 165.999 68.7871C165.602 69.0332 165.404 69.4183 165.404 69.9424C165.404 70.3525 165.527 70.6647 165.773 70.8789C166.024 71.0931 166.372 71.2002 166.819 71.2002ZM178.7 64.5078V65.2256L177.312 65.3896C177.44 65.5492 177.554 65.7588 177.654 66.0186C177.754 66.2738 177.804 66.5632 177.804 66.8867C177.804 67.6204 177.554 68.2061 177.052 68.6436C176.551 69.0811 175.863 69.2998 174.988 69.2998C174.765 69.2998 174.555 69.2816 174.359 69.2451C173.876 69.5003 173.634 69.8216 173.634 70.209C173.634 70.4141 173.719 70.5667 173.887 70.667C174.056 70.7627 174.345 70.8105 174.756 70.8105H176.082C176.893 70.8105 177.515 70.9814 177.948 71.3232C178.385 71.665 178.604 72.1618 178.604 72.8135C178.604 73.6429 178.271 74.2741 177.606 74.707C176.941 75.1445 175.97 75.3633 174.694 75.3633C173.714 75.3633 172.958 75.181 172.424 74.8164C171.896 74.4518 171.632 73.9368 171.632 73.2715C171.632 72.8158 171.777 72.4215 172.069 72.0889C172.361 71.7562 172.771 71.5306 173.299 71.4121C173.108 71.3255 172.946 71.1911 172.814 71.0088C172.687 70.8265 172.623 70.6146 172.623 70.373C172.623 70.0996 172.696 69.8604 172.841 69.6553C172.987 69.4502 173.217 69.252 173.532 69.0605C173.145 68.901 172.828 68.6299 172.582 68.2471C172.34 67.8643 172.219 67.4268 172.219 66.9346C172.219 66.1143 172.465 65.4831 172.958 65.041C173.45 64.5944 174.147 64.3711 175.049 64.3711C175.441 64.3711 175.795 64.4167 176.109 64.5078H178.7ZM172.725 73.2578C172.725 73.6634 172.896 73.971 173.238 74.1807C173.58 74.3903 174.07 74.4951 174.708 74.4951C175.66 74.4951 176.364 74.3516 176.82 74.0645C177.28 73.7819 177.51 73.3968 177.51 72.9092C177.51 72.5036 177.385 72.221 177.134 72.0615C176.884 71.9066 176.412 71.8291 175.719 71.8291H174.359C173.844 71.8291 173.443 71.9521 173.156 72.1982C172.869 72.4443 172.725 72.7975 172.725 73.2578ZM173.34 66.9072C173.34 67.4313 173.489 67.8278 173.785 68.0967C174.081 68.3656 174.493 68.5 175.022 68.5C176.13 68.5 176.683 67.9622 176.683 66.8867C176.683 65.7611 176.123 65.1982 175.002 65.1982C174.468 65.1982 174.058 65.3418 173.771 65.6289C173.484 65.916 173.34 66.3421 173.34 66.9072ZM183.656 64.3711C183.989 64.3711 184.287 64.3984 184.551 64.4531L184.394 65.5059C184.084 65.4375 183.811 65.4033 183.574 65.4033C182.968 65.4033 182.448 65.6494 182.015 66.1416C181.587 66.6338 181.373 67.2467 181.373 67.9805V72H180.238V64.5078H181.174L181.304 65.8955H181.359C181.637 65.4079 181.972 65.0319 182.364 64.7676C182.756 64.5033 183.187 64.3711 183.656 64.3711ZM190.56 72L190.335 70.9336H190.28C189.906 71.403 189.533 71.722 189.159 71.8906C188.79 72.0547 188.327 72.1367 187.771 72.1367C187.028 72.1367 186.445 71.9453 186.021 71.5625C185.602 71.1797 185.392 70.6351 185.392 69.9287C185.392 68.4157 186.602 67.6227 189.022 67.5498L190.294 67.5088V67.0439C190.294 66.4561 190.166 66.0231 189.911 65.7451C189.66 65.4626 189.257 65.3213 188.701 65.3213C188.076 65.3213 187.37 65.5127 186.582 65.8955L186.233 65.0273C186.602 64.8268 187.006 64.6696 187.443 64.5557C187.885 64.4417 188.327 64.3848 188.769 64.3848C189.662 64.3848 190.323 64.583 190.752 64.9795C191.185 65.376 191.401 66.0117 191.401 66.8867V72H190.56ZM187.997 71.2002C188.703 71.2002 189.257 71.0065 189.658 70.6191C190.063 70.2318 190.266 69.6895 190.266 68.9922V68.3154L189.132 68.3633C188.229 68.3952 187.577 68.5365 187.176 68.7871C186.78 69.0332 186.582 69.4183 186.582 69.9424C186.582 70.3525 186.705 70.6647 186.951 70.8789C187.201 71.0931 187.55 71.2002 187.997 71.2002ZM203.296 72V67.126C203.296 66.529 203.168 66.0824 202.913 65.7861C202.658 65.4854 202.261 65.335 201.723 65.335C201.017 65.335 200.495 65.5378 200.158 65.9434C199.821 66.349 199.652 66.9733 199.652 67.8164V72H198.517V67.126C198.517 66.529 198.39 66.0824 198.134 65.7861C197.879 65.4854 197.48 65.335 196.938 65.335C196.227 65.335 195.705 65.5492 195.373 65.9775C195.045 66.4014 194.881 67.0986 194.881 68.0693V72H193.746V64.5078H194.669L194.853 65.5332H194.908C195.122 65.1686 195.423 64.8838 195.81 64.6787C196.202 64.4736 196.64 64.3711 197.123 64.3711C198.294 64.3711 199.06 64.7949 199.42 65.6426H199.474C199.698 65.2507 200.021 64.9408 200.445 64.7129C200.869 64.485 201.352 64.3711 201.894 64.3711C202.742 64.3711 203.375 64.5898 203.795 65.0273C204.218 65.4603 204.43 66.1553 204.43 67.1123V72H203.296Z" fill="#434A57"/>
<rect x="236.667" width="108.333" height="91" rx="5" fill="white" fill-opacity="0.8"/>
<g clip-path="url(#clip3_2525_6070)">
<path d="M290.834 15C286.591 15 282.519 16.6868 279.521 19.6863C276.521 22.6869 274.835 26.7565 274.834 31C274.834 35.2417 276.521 39.3142 279.521 42.3137C282.519 45.3132 286.591 47 290.834 47C295.076 47 299.149 45.3132 302.146 42.3137C305.146 39.3142 306.834 35.2417 306.834 31C306.834 26.7583 305.146 22.6858 302.146 19.6863C299.149 16.6868 295.076 15 290.834 15Z" fill="url(#paint2_linear_2525_6070)"/>
<path d="M282.076 30.8311C286.741 28.7991 289.851 27.4593 291.406 26.8121C295.851 24.9638 296.774 24.6428 297.376 24.6319C297.509 24.6298 297.804 24.6626 297.996 24.8182C298.156 24.9494 298.201 25.1269 298.224 25.2516C298.244 25.3761 298.271 25.6598 298.249 25.8813C298.009 28.4113 296.966 34.5508 296.436 37.3846C296.214 38.5836 295.771 38.9856 295.344 39.0248C294.414 39.1103 293.709 38.4108 292.809 37.8211C291.401 36.8978 290.606 36.3233 289.239 35.4226C287.659 34.3816 288.684 33.8093 289.584 32.8743C289.819 32.6296 293.914 28.9058 293.991 28.5681C294.001 28.5258 294.011 28.3683 293.916 28.2853C293.824 28.2021 293.686 28.2306 293.586 28.2531C293.444 28.2851 291.196 29.7721 286.836 32.7138C286.199 33.1523 285.621 33.3661 285.101 33.3548C284.531 33.3426 283.431 33.0318 282.614 32.7663C281.614 32.4406 280.816 32.2683 280.886 31.7151C280.921 31.4271 281.319 31.1323 282.076 30.8311Z" fill="white"/>
</g>
<path d="M264.673 72H263.51V63.0381H260.345V62.0059H267.838V63.0381H264.673V72ZM272.342 72.1367C271.235 72.1367 270.36 71.7995 269.717 71.125C269.079 70.4505 268.76 69.514 268.76 68.3154C268.76 67.1077 269.057 66.1484 269.649 65.4375C270.246 64.7266 271.046 64.3711 272.049 64.3711C272.987 64.3711 273.73 64.681 274.277 65.3008C274.824 65.916 275.097 66.7295 275.097 67.7412V68.459H269.936C269.959 69.3385 270.18 70.0062 270.599 70.4619C271.023 70.9176 271.618 71.1455 272.383 71.1455C273.19 71.1455 273.988 70.9769 274.776 70.6396V71.6514C274.375 71.8245 273.994 71.9476 273.634 72.0205C273.279 72.098 272.848 72.1367 272.342 72.1367ZM272.035 65.3213C271.433 65.3213 270.952 65.5173 270.592 65.9092C270.237 66.3011 270.027 66.8434 269.964 67.5361H273.881C273.881 66.8206 273.721 66.2738 273.402 65.8955C273.083 65.5127 272.627 65.3213 272.035 65.3213ZM278.174 72H277.039V61.3633H278.174V72ZM283.745 72.1367C282.637 72.1367 281.762 71.7995 281.12 71.125C280.482 70.4505 280.163 69.514 280.163 68.3154C280.163 67.1077 280.459 66.1484 281.051 65.4375C281.648 64.7266 282.448 64.3711 283.451 64.3711C284.39 64.3711 285.132 64.681 285.679 65.3008C286.226 65.916 286.5 66.7295 286.5 67.7412V68.459H281.339C281.361 69.3385 281.582 70.0062 282.002 70.4619C282.425 70.9176 283.02 71.1455 283.786 71.1455C284.592 71.1455 285.39 70.9769 286.178 70.6396V71.6514C285.777 71.8245 285.397 71.9476 285.037 72.0205C284.681 72.098 284.251 72.1367 283.745 72.1367ZM283.437 65.3213C282.836 65.3213 282.355 65.5173 281.995 65.9092C281.639 66.3011 281.43 66.8434 281.366 67.5361H285.283C285.283 66.8206 285.123 66.2738 284.804 65.8955C284.485 65.5127 284.03 65.3213 283.437 65.3213ZM294.573 64.5078V65.2256L293.185 65.3896C293.313 65.5492 293.427 65.7588 293.527 66.0186C293.627 66.2738 293.677 66.5632 293.677 66.8867C293.677 67.6204 293.427 68.2061 292.925 68.6436C292.424 69.0811 291.736 69.2998 290.861 69.2998C290.638 69.2998 290.428 69.2816 290.232 69.2451C289.749 69.5003 289.507 69.8216 289.507 70.209C289.507 70.4141 289.592 70.5667 289.76 70.667C289.929 70.7627 290.218 70.8105 290.629 70.8105H291.955C292.766 70.8105 293.388 70.9814 293.821 71.3232C294.258 71.665 294.477 72.1618 294.477 72.8135C294.477 73.6429 294.145 74.2741 293.479 74.707C292.814 75.1445 291.843 75.3633 290.567 75.3633C289.587 75.3633 288.831 75.181 288.298 74.8164C287.769 74.4518 287.505 73.9368 287.505 73.2715C287.505 72.8158 287.65 72.4215 287.942 72.0889C288.234 71.7562 288.644 71.5306 289.173 71.4121C288.981 71.3255 288.819 71.1911 288.687 71.0088C288.56 70.8265 288.496 70.6146 288.496 70.373C288.496 70.0996 288.569 69.8604 288.715 69.6553C288.86 69.4502 289.09 69.252 289.405 69.0605C289.018 68.901 288.701 68.6299 288.455 68.2471C288.213 67.8643 288.092 67.4268 288.092 66.9346C288.092 66.1143 288.339 65.4831 288.831 65.041C289.323 64.5944 290.02 64.3711 290.923 64.3711C291.314 64.3711 291.668 64.4167 291.982 64.5078H294.573ZM288.598 73.2578C288.598 73.6634 288.769 73.971 289.111 74.1807C289.453 74.3903 289.943 74.4951 290.581 74.4951C291.533 74.4951 292.237 74.3516 292.693 74.0645C293.153 73.7819 293.383 73.3968 293.383 72.9092C293.383 72.5036 293.258 72.221 293.007 72.0615C292.757 71.9066 292.285 71.8291 291.592 71.8291H290.232C289.717 71.8291 289.316 71.9521 289.029 72.1982C288.742 72.4443 288.598 72.7975 288.598 73.2578ZM289.214 66.9072C289.214 67.4313 289.362 67.8278 289.658 68.0967C289.954 68.3656 290.367 68.5 290.895 68.5C292.003 68.5 292.556 67.9622 292.556 66.8867C292.556 65.7611 291.996 65.1982 290.875 65.1982C290.341 65.1982 289.931 65.3418 289.644 65.6289C289.357 65.916 289.214 66.3421 289.214 66.9072ZM299.529 64.3711C299.862 64.3711 300.16 64.3984 300.424 64.4531L300.267 65.5059C299.957 65.4375 299.684 65.4033 299.447 65.4033C298.841 65.4033 298.321 65.6494 297.888 66.1416C297.46 66.6338 297.246 67.2467 297.246 67.9805V72H296.111V64.5078H297.048L297.177 65.8955H297.232C297.51 65.4079 297.845 65.0319 298.237 64.7676C298.629 64.5033 299.06 64.3711 299.529 64.3711ZM306.433 72L306.208 70.9336H306.153C305.779 71.403 305.406 71.722 305.032 71.8906C304.663 72.0547 304.2 72.1367 303.644 72.1367C302.901 72.1367 302.318 71.9453 301.894 71.5625C301.475 71.1797 301.265 70.6351 301.265 69.9287C301.265 68.4157 302.475 67.6227 304.895 67.5498L306.167 67.5088V67.0439C306.167 66.4561 306.039 66.0231 305.784 65.7451C305.533 65.4626 305.13 65.3213 304.574 65.3213C303.95 65.3213 303.243 65.5127 302.455 65.8955L302.106 65.0273C302.475 64.8268 302.879 64.6696 303.316 64.5557C303.758 64.4417 304.2 64.3848 304.642 64.3848C305.535 64.3848 306.196 64.583 306.625 64.9795C307.058 65.376 307.274 66.0117 307.274 66.8867V72H306.433ZM303.87 71.2002C304.576 71.2002 305.13 71.0065 305.531 70.6191C305.937 70.2318 306.139 69.6895 306.139 68.9922V68.3154L305.005 68.3633C304.102 68.3952 303.451 68.5365 303.049 68.7871C302.653 69.0332 302.455 69.4183 302.455 69.9424C302.455 70.3525 302.578 70.6647 302.824 70.8789C303.075 71.0931 303.423 71.2002 303.87 71.2002ZM319.169 72V67.126C319.169 66.529 319.041 66.0824 318.786 65.7861C318.531 65.4854 318.134 65.335 317.596 65.335C316.89 65.335 316.368 65.5378 316.031 65.9434C315.694 66.349 315.525 66.9733 315.525 67.8164V72H314.39V67.126C314.39 66.529 314.263 66.0824 314.007 65.7861C313.752 65.4854 313.354 65.335 312.811 65.335C312.1 65.335 311.578 65.5492 311.246 65.9775C310.918 66.4014 310.754 67.0986 310.754 68.0693V72H309.619V64.5078H310.542L310.726 65.5332H310.781C310.995 65.1686 311.296 64.8838 311.683 64.6787C312.075 64.4736 312.513 64.3711 312.996 64.3711C314.167 64.3711 314.933 64.7949 315.293 65.6426H315.347C315.571 65.2507 315.894 64.9408 316.318 64.7129C316.742 64.485 317.225 64.3711 317.767 64.3711C318.615 64.3711 319.248 64.5898 319.668 65.0273C320.091 65.4603 320.303 66.1553 320.303 67.1123V72H319.169Z" fill="#434A57"/>
<rect y="101" width="108.333" height="91" rx="5" fill="white" fill-opacity="0.8"/>
<rect x="38.167" y="116" width="32" height="32" rx="16" fill="#222222"/>
<path d="M59.424 127.422C59.3149 127.366 59.2088 127.304 59.1059 127.238C58.8071 127.042 58.533 126.812 58.2897 126.551C57.6802 125.861 57.4527 125.16 57.3694 124.671H57.3723C57.3026 124.263 57.3313 124 57.3364 124H54.5617V134.625C54.5617 134.767 54.5617 134.909 54.556 135.048C54.556 135.065 54.5538 135.081 54.5531 135.1C54.5531 135.107 54.5531 135.116 54.551 135.124V135.13C54.5218 135.511 54.3986 135.879 54.192 136.202C53.9855 136.525 53.702 136.793 53.3665 136.982C53.0164 137.179 52.6205 137.282 52.2179 137.282C50.9257 137.282 49.8775 136.238 49.8775 134.949C49.8775 133.659 50.9257 132.615 52.2179 132.615C52.4626 132.615 52.706 132.653 52.9386 132.729L52.9422 129.93C52.2358 129.84 51.5182 129.896 50.8347 130.094C50.1511 130.292 49.5165 130.629 48.9709 131.082C48.4926 131.493 48.0906 131.984 47.7828 132.533C47.6657 132.732 47.2235 133.537 47.1704 134.841C47.1367 135.58 47.3614 136.348 47.4683 136.664V136.672C47.5351 136.858 47.7964 137.495 48.2214 138.032C48.5641 138.463 48.969 138.841 49.4231 139.155V139.148L49.4296 139.155C50.772 140.058 52.2616 139.999 52.2616 139.999C52.5194 139.989 53.383 139.999 54.3636 139.539C55.4512 139.029 56.07 138.269 56.07 138.269C56.4656 137.814 56.7803 137.297 57.0004 136.738C57.2517 136.083 57.3349 135.3 57.3349 134.987V129.349C57.3687 129.369 57.8173 129.663 57.8173 129.663C57.8173 129.663 58.4634 130.073 59.4706 130.34C60.1928 130.53 61.167 130.57 61.167 130.57V127.842C60.826 127.879 60.1332 127.772 59.4233 127.422L59.424 127.422Z" fill="white"/>
<path d="M37.5075 173H36.3454V164.038H33.1803V163.006H40.6725V164.038H37.5075V173ZM43.1471 173H42.0124V165.508H43.1471V173ZM41.9167 163.478C41.9167 163.218 41.9805 163.029 42.1081 162.91C42.2357 162.787 42.3952 162.726 42.5866 162.726C42.7689 162.726 42.9261 162.787 43.0583 162.91C43.1904 163.033 43.2565 163.222 43.2565 163.478C43.2565 163.733 43.1904 163.924 43.0583 164.052C42.9261 164.175 42.7689 164.236 42.5866 164.236C42.3952 164.236 42.2357 164.175 42.1081 164.052C41.9805 163.924 41.9167 163.733 41.9167 163.478ZM46.6745 169.165C46.8704 168.887 47.1689 168.522 47.57 168.071L49.9899 165.508H51.3366L48.3014 168.7L51.5485 173H50.1745L47.529 169.459L46.6745 170.197V173H45.5534V162.363H46.6745V168.003C46.6745 168.254 46.6563 168.641 46.6198 169.165H46.6745ZM56.1559 173H54.9938V164.038H51.8288V163.006H59.321V164.038H56.1559V173ZM67.1276 169.247C67.1276 170.468 66.82 171.423 66.2048 172.111C65.5895 172.795 64.7396 173.137 63.6549 173.137C62.985 173.137 62.3903 172.979 61.8708 172.665C61.3512 172.351 60.9502 171.899 60.6676 171.312C60.3851 170.724 60.2438 170.035 60.2438 169.247C60.2438 168.026 60.5492 167.076 61.1598 166.396C61.7705 165.713 62.6182 165.371 63.7028 165.371C64.751 165.371 65.5827 165.72 66.1979 166.417C66.8177 167.114 67.1276 168.058 67.1276 169.247ZM61.4196 169.247C61.4196 170.204 61.611 170.933 61.9938 171.435C62.3766 171.936 62.9395 172.187 63.6823 172.187C64.4251 172.187 64.988 171.938 65.3708 171.441C65.7581 170.94 65.9518 170.209 65.9518 169.247C65.9518 168.295 65.7581 167.572 65.3708 167.08C64.988 166.583 64.4206 166.335 63.6686 166.335C62.9258 166.335 62.3652 166.579 61.987 167.066C61.6087 167.554 61.4196 168.281 61.4196 169.247ZM70.2448 169.165C70.4408 168.887 70.7393 168.522 71.1403 168.071L73.5602 165.508H74.9069L71.8717 168.7L75.1188 173H73.7448L71.0993 169.459L70.2448 170.197V173H69.1237V162.363H70.2448V168.003C70.2448 168.254 70.2266 168.641 70.1901 169.165H70.2448Z" fill="#434A57"/>
<rect x="118.333" y="101" width="108.333" height="91" rx="5" fill="white" fill-opacity="0.8"/>
<rect x="156.5" y="116" width="32" height="32" rx="16" fill="#FFFC00"/>
<path d="M172.505 139.612C174.1 139.611 174.575 138.943 175.625 138.477C176.562 138.062 177.903 138.69 178.182 137.577C178.217 137.002 179.229 137.094 179.796 136.702C180.313 136.344 180.365 135.77 179.833 135.545C178.63 135.033 177.365 133.913 177.06 132.712C176.868 131.964 179.259 131.733 178.761 130.321C178.467 129.487 177.412 129.781 176.838 129.967C177.22 127.006 175.779 124.387 172.5 124.387C169.222 124.387 167.78 127.006 168.163 129.967C167.589 129.781 166.533 129.487 166.24 130.321C165.742 131.733 168.132 131.964 167.941 132.712C167.635 133.913 166.37 135.033 165.167 135.545C164.636 135.77 164.687 136.344 165.205 136.702C165.772 137.095 166.783 137.002 166.819 137.577C167.097 138.69 168.439 138.062 169.376 138.477C170.426 138.943 170.901 139.611 172.495 139.612H172.505Z" fill="white" stroke="#0F1622" stroke-linecap="round" stroke-linejoin="round"/>
<path d="M149.175 170.341C149.175 171.22 148.856 171.906 148.218 172.398C147.58 172.891 146.715 173.137 145.621 173.137C144.436 173.137 143.524 172.984 142.886 172.679V171.558C143.297 171.731 143.743 171.868 144.226 171.968C144.709 172.068 145.188 172.118 145.662 172.118C146.437 172.118 147.02 171.972 147.412 171.681C147.804 171.384 148 170.974 148 170.45C148 170.104 147.929 169.821 147.788 169.603C147.651 169.379 147.419 169.174 147.09 168.987C146.767 168.8 146.272 168.589 145.607 168.352C144.677 168.019 144.012 167.625 143.611 167.169C143.215 166.713 143.016 166.118 143.016 165.385C143.016 164.615 143.306 164.002 143.884 163.546C144.463 163.09 145.229 162.862 146.181 162.862C147.175 162.862 148.089 163.045 148.923 163.409L148.56 164.421C147.735 164.075 146.933 163.901 146.154 163.901C145.539 163.901 145.058 164.034 144.712 164.298C144.365 164.562 144.192 164.929 144.192 165.398C144.192 165.745 144.256 166.03 144.383 166.253C144.511 166.472 144.725 166.674 145.026 166.861C145.331 167.044 145.796 167.246 146.421 167.47C147.469 167.843 148.189 168.244 148.581 168.673C148.977 169.101 149.175 169.657 149.175 170.341ZM156.175 173V168.153C156.175 167.543 156.036 167.087 155.758 166.786C155.48 166.485 155.045 166.335 154.453 166.335C153.669 166.335 153.095 166.547 152.73 166.971C152.366 167.395 152.183 168.094 152.183 169.069V173H151.049V165.508H151.971L152.156 166.533H152.211C152.443 166.164 152.769 165.879 153.188 165.679C153.607 165.474 154.075 165.371 154.59 165.371C155.492 165.371 156.171 165.59 156.627 166.027C157.082 166.46 157.31 167.155 157.31 168.112V173H156.175ZM164.256 173L164.03 171.934H163.975C163.602 172.403 163.228 172.722 162.854 172.891C162.485 173.055 162.022 173.137 161.466 173.137C160.724 173.137 160.14 172.945 159.716 172.562C159.297 172.18 159.088 171.635 159.088 170.929C159.088 169.416 160.298 168.623 162.717 168.55L163.989 168.509V168.044C163.989 167.456 163.861 167.023 163.606 166.745C163.355 166.463 162.952 166.321 162.396 166.321C161.772 166.321 161.065 166.513 160.277 166.896L159.928 166.027C160.298 165.827 160.701 165.67 161.138 165.556C161.58 165.442 162.022 165.385 162.465 165.385C163.358 165.385 164.019 165.583 164.447 165.979C164.88 166.376 165.096 167.012 165.096 167.887V173H164.256ZM161.692 172.2C162.398 172.2 162.952 172.007 163.353 171.619C163.759 171.232 163.962 170.689 163.962 169.992V169.315L162.827 169.363C161.924 169.395 161.273 169.536 160.872 169.787C160.475 170.033 160.277 170.418 160.277 170.942C160.277 171.353 160.4 171.665 160.646 171.879C160.897 172.093 161.245 172.2 161.692 172.2ZM170.927 173.137C170.44 173.137 169.993 173.048 169.588 172.87C169.187 172.688 168.849 172.41 168.576 172.036H168.494C168.549 172.474 168.576 172.888 168.576 173.28V176.363H167.441V165.508H168.364L168.521 166.533H168.576C168.868 166.123 169.207 165.827 169.594 165.645C169.982 165.462 170.426 165.371 170.927 165.371C171.921 165.371 172.687 165.711 173.224 166.39C173.767 167.069 174.038 168.021 174.038 169.247C174.038 170.478 173.762 171.435 173.211 172.118C172.664 172.797 171.903 173.137 170.927 173.137ZM170.763 166.335C169.998 166.335 169.444 166.547 169.102 166.971C168.76 167.395 168.585 168.069 168.576 168.994V169.247C168.576 170.3 168.751 171.054 169.102 171.51C169.453 171.961 170.016 172.187 170.791 172.187C171.438 172.187 171.944 171.924 172.308 171.4C172.677 170.876 172.862 170.154 172.862 169.233C172.862 168.299 172.677 167.584 172.308 167.087C171.944 166.586 171.429 166.335 170.763 166.335ZM179.021 173.137C177.937 173.137 177.096 172.804 176.499 172.139C175.906 171.469 175.61 170.523 175.61 169.302C175.61 168.049 175.911 167.08 176.512 166.396C177.118 165.713 177.98 165.371 179.096 165.371C179.456 165.371 179.816 165.41 180.176 165.487C180.536 165.565 180.819 165.656 181.024 165.761L180.675 166.725C180.425 166.624 180.151 166.542 179.855 166.479C179.559 166.41 179.297 166.376 179.069 166.376C177.547 166.376 176.786 167.347 176.786 169.288C176.786 170.209 176.97 170.915 177.34 171.407C177.713 171.899 178.265 172.146 178.994 172.146C179.618 172.146 180.258 172.011 180.915 171.742V172.747C180.413 173.007 179.782 173.137 179.021 173.137ZM187.826 173V168.153C187.826 167.543 187.687 167.087 187.409 166.786C187.131 166.485 186.696 166.335 186.103 166.335C185.315 166.335 184.738 166.549 184.374 166.978C184.014 167.406 183.834 168.108 183.834 169.083V173H182.699V162.363H183.834V165.583C183.834 165.97 183.815 166.292 183.779 166.547H183.847C184.071 166.187 184.387 165.904 184.798 165.699C185.212 165.49 185.684 165.385 186.213 165.385C187.129 165.385 187.814 165.604 188.27 166.041C188.73 166.474 188.961 167.164 188.961 168.112V173H187.826ZM195.906 173L195.68 171.934H195.626C195.252 172.403 194.878 172.722 194.505 172.891C194.135 173.055 193.673 173.137 193.117 173.137C192.374 173.137 191.791 172.945 191.367 172.562C190.948 172.18 190.738 171.635 190.738 170.929C190.738 169.416 191.948 168.623 194.368 168.55L195.639 168.509V168.044C195.639 167.456 195.512 167.023 195.257 166.745C195.006 166.463 194.603 166.321 194.047 166.321C193.422 166.321 192.716 166.513 191.927 166.896L191.579 166.027C191.948 165.827 192.351 165.67 192.789 165.556C193.231 165.442 193.673 165.385 194.115 165.385C195.008 165.385 195.669 165.583 196.097 165.979C196.53 166.376 196.747 167.012 196.747 167.887V173H195.906ZM193.342 172.2C194.049 172.2 194.603 172.007 195.004 171.619C195.409 171.232 195.612 170.689 195.612 169.992V169.315L194.477 169.363C193.575 169.395 192.923 169.536 192.522 169.787C192.126 170.033 191.927 170.418 191.927 170.942C191.927 171.353 192.05 171.665 192.297 171.879C192.547 172.093 192.896 172.2 193.342 172.2ZM201.511 172.2C201.712 172.2 201.906 172.187 202.092 172.159C202.279 172.127 202.427 172.095 202.537 172.063V172.932C202.414 172.991 202.231 173.039 201.99 173.075C201.753 173.116 201.539 173.137 201.347 173.137C199.898 173.137 199.174 172.373 199.174 170.847V166.39H198.1V165.843L199.174 165.371L199.652 163.771H200.308V165.508H202.482V166.39H200.308V170.799C200.308 171.25 200.415 171.596 200.63 171.838C200.844 172.079 201.138 172.2 201.511 172.2Z" fill="#434A57"/>
<rect x="236.667" y="101" width="108.333" height="91" rx="5" fill="white" fill-opacity="0.8"/>
<g clip-path="url(#clip4_2525_6070)">
<path d="M305.667 133.988C305.76 133.335 305.808 132.676 305.811 132.016C305.811 128.042 304.232 124.231 301.422 121.421C298.612 118.611 294.801 117.032 290.827 117.032C290.167 117.035 289.508 117.083 288.855 117.176C285.161 115.186 280.599 115.854 277.633 118.821C274.666 121.788 273.997 126.35 275.988 130.043C275.895 130.696 275.847 131.355 275.844 132.016C275.844 140.291 282.552 146.999 290.827 146.999C291.487 146.996 292.146 146.948 292.8 146.855C296.493 148.846 301.055 148.177 304.022 145.21C306.988 142.243 307.657 137.682 305.667 133.988Z" fill="white"/>
<path d="M284.333 135.008C289.573 135.008 293.82 130.761 293.82 125.521C293.82 120.282 289.573 116.035 284.333 116.035C279.094 116.035 274.847 120.282 274.847 125.521C274.847 130.761 279.094 135.008 284.333 135.008Z" fill="url(#paint3_linear_2525_6070)"/>
<path d="M297.322 147.997C302.561 147.997 306.808 143.749 306.808 138.51C306.808 133.271 302.561 129.023 297.322 129.023C292.082 129.023 287.835 133.271 287.835 138.51C287.835 143.749 292.082 147.997 297.322 147.997Z" fill="url(#paint4_linear_2525_6070)"/>
<path d="M297.322 129.023C295.626 129.023 293.961 129.478 292.501 130.342C294.943 126.225 293.938 120.933 290.157 117.997C286.376 115.06 281.001 115.397 277.616 118.782C274.231 122.167 273.894 127.542 276.831 131.323C279.767 135.104 285.058 136.109 289.176 133.667C286.99 137.372 287.571 142.085 290.591 145.148C293.612 148.212 298.316 148.859 302.052 146.725C305.788 144.591 307.62 140.21 306.515 136.052C305.411 131.894 301.646 129 297.344 129.001L297.322 129.023Z" fill="#00B9F1"/>
<path d="M290.527 150.424C300.317 150.424 308.254 142.487 308.254 132.697C308.254 122.907 300.317 114.971 290.527 114.971C280.737 114.971 272.801 122.907 272.801 132.697C272.801 142.487 280.737 150.424 290.527 150.424Z" fill="url(#paint5_radial_2525_6070)"/>
<path d="M290.827 146.999C299.102 146.999 305.811 140.291 305.811 132.016C305.811 123.74 299.102 117.032 290.827 117.032C282.552 117.032 275.844 123.74 275.844 132.016C275.844 140.291 282.552 146.999 290.827 146.999Z" fill="url(#paint6_linear_2525_6070)"/>
<path d="M290.827 146.999C299.102 146.999 305.811 140.291 305.811 132.016C305.811 123.74 299.102 117.032 290.827 117.032C282.552 117.032 275.844 123.74 275.844 132.016C275.844 140.291 282.552 146.999 290.827 146.999Z" fill="url(#paint7_linear_2525_6070)"/>
<path d="M285.364 130.176C285.011 129.515 284.836 128.775 284.854 128.026C284.831 127.08 285.154 126.158 285.763 125.433C286.403 124.711 287.22 124.168 288.134 123.859C289.127 123.509 290.173 123.332 291.226 123.338C291.916 123.333 292.606 123.385 293.287 123.493C293.773 123.575 294.252 123.697 294.717 123.859C295.14 124.005 295.52 124.252 295.825 124.579C296.058 124.842 296.185 125.182 296.18 125.532C296.189 125.716 296.161 125.9 296.098 126.073C296.035 126.246 295.939 126.405 295.814 126.541C295.698 126.665 295.557 126.762 295.4 126.827C295.244 126.892 295.075 126.923 294.906 126.918C294.668 126.914 294.434 126.861 294.218 126.763C293.696 126.531 293.16 126.335 292.611 126.175C292.102 126.042 291.576 125.978 291.049 125.987C290.366 125.964 289.69 126.133 289.098 126.474C288.849 126.626 288.646 126.842 288.509 127.099C288.373 127.357 288.308 127.646 288.323 127.937C288.319 128.316 288.462 128.681 288.722 128.957C289.04 129.285 289.415 129.552 289.83 129.744C290.284 129.965 290.938 130.265 291.869 130.641L292.157 130.752C293.036 131.087 293.879 131.511 294.673 132.016C295.305 132.425 295.839 132.971 296.235 133.611C296.625 134.284 296.821 135.051 296.801 135.828C296.832 136.78 296.556 137.716 296.014 138.499C295.457 139.252 294.684 139.816 293.797 140.117C292.749 140.491 291.641 140.671 290.528 140.649C289.006 140.699 287.492 140.412 286.095 139.807C285.737 139.645 285.422 139.403 285.175 139.097C284.981 138.81 284.88 138.469 284.887 138.122C284.875 137.939 284.903 137.756 284.97 137.585C285.038 137.415 285.142 137.261 285.275 137.136C285.552 136.891 285.914 136.763 286.283 136.781C286.697 136.787 287.103 136.889 287.469 137.08C287.924 137.302 288.278 137.479 288.577 137.59C288.874 137.715 289.182 137.812 289.497 137.878C289.886 137.967 290.284 138.008 290.683 138C291.389 138.052 292.092 137.865 292.678 137.468C292.899 137.299 293.076 137.078 293.194 136.825C293.312 136.573 293.367 136.295 293.354 136.016C293.365 135.606 293.213 135.208 292.933 134.908C292.571 134.54 292.152 134.233 291.692 133.999C291.149 133.711 290.373 133.368 289.387 132.947C288.5 132.594 287.65 132.156 286.849 131.639C286.249 131.24 285.726 130.798 285.364 130.176Z" fill="white"/>
</g>
<path d="M278.577 170.341C278.577 171.22 278.258 171.906 277.62 172.398C276.982 172.891 276.116 173.137 275.022 173.137C273.837 173.137 272.926 172.984 272.288 172.679V171.558C272.698 171.731 273.145 171.868 273.628 171.968C274.111 172.068 274.589 172.118 275.063 172.118C275.838 172.118 276.421 171.972 276.813 171.681C277.205 171.384 277.401 170.974 277.401 170.45C277.401 170.104 277.33 169.821 277.189 169.603C277.052 169.379 276.82 169.174 276.492 168.987C276.168 168.8 275.674 168.589 275.008 168.352C274.079 168.019 273.413 167.625 273.012 167.169C272.616 166.713 272.418 166.118 272.418 165.385C272.418 164.615 272.707 164.002 273.286 163.546C273.865 163.09 274.63 162.862 275.583 162.862C276.576 162.862 277.49 163.045 278.324 163.409L277.962 164.421C277.137 164.075 276.335 163.901 275.555 163.901C274.94 163.901 274.459 164.034 274.113 164.298C273.767 164.562 273.593 164.929 273.593 165.398C273.593 165.745 273.657 166.03 273.785 166.253C273.912 166.472 274.127 166.674 274.427 166.861C274.733 167.044 275.198 167.246 275.822 167.47C276.87 167.843 277.59 168.244 277.982 168.673C278.379 169.101 278.577 169.657 278.577 170.341ZM281.571 169.165C281.767 168.887 282.065 168.522 282.466 168.071L284.886 165.508H286.233L283.198 168.7L286.445 173H285.071L282.425 169.459L281.571 170.197V173H280.45V162.363H281.571V168.003C281.571 168.254 281.553 168.641 281.516 169.165H281.571ZM286.616 165.508H287.833L289.473 169.78C289.833 170.756 290.057 171.46 290.143 171.893H290.198C290.257 171.66 290.38 171.264 290.567 170.703C290.758 170.138 291.378 168.406 292.426 165.508H293.643L290.424 174.039C290.104 174.882 289.731 175.479 289.302 175.83C288.879 176.186 288.357 176.363 287.737 176.363C287.391 176.363 287.049 176.325 286.712 176.247V175.338C286.962 175.393 287.243 175.42 287.552 175.42C288.332 175.42 288.888 174.982 289.22 174.107L289.637 173.041L286.616 165.508ZM298.346 173.137C297.859 173.137 297.412 173.048 297.007 172.87C296.605 172.688 296.268 172.41 295.995 172.036H295.913C295.967 172.474 295.995 172.888 295.995 173.28V176.363H294.86V165.508H295.783L295.94 166.533H295.995C296.286 166.123 296.626 165.827 297.013 165.645C297.401 165.462 297.845 165.371 298.346 165.371C299.34 165.371 300.105 165.711 300.643 166.39C301.186 167.069 301.457 168.021 301.457 169.247C301.457 170.478 301.181 171.435 300.63 172.118C300.083 172.797 299.322 173.137 298.346 173.137ZM298.182 166.335C297.417 166.335 296.863 166.547 296.521 166.971C296.179 167.395 296.004 168.069 295.995 168.994V169.247C295.995 170.3 296.17 171.054 296.521 171.51C296.872 171.961 297.435 172.187 298.21 172.187C298.857 172.187 299.363 171.924 299.727 171.4C300.096 170.876 300.281 170.154 300.281 169.233C300.281 168.299 300.096 167.584 299.727 167.087C299.363 166.586 298.848 166.335 298.182 166.335ZM306.611 173.137C305.504 173.137 304.629 172.799 303.986 172.125C303.348 171.451 303.029 170.514 303.029 169.315C303.029 168.108 303.325 167.148 303.918 166.438C304.515 165.727 305.314 165.371 306.317 165.371C307.256 165.371 307.999 165.681 308.546 166.301C309.092 166.916 309.366 167.729 309.366 168.741V169.459H304.205C304.228 170.339 304.449 171.006 304.868 171.462C305.292 171.918 305.886 172.146 306.652 172.146C307.459 172.146 308.256 171.977 309.045 171.64V172.651C308.644 172.825 308.263 172.948 307.903 173.021C307.548 173.098 307.117 173.137 306.611 173.137ZM306.303 166.321C305.702 166.321 305.221 166.517 304.861 166.909C304.506 167.301 304.296 167.843 304.232 168.536H308.149C308.149 167.821 307.99 167.274 307.671 166.896C307.352 166.513 306.896 166.321 306.303 166.321Z" fill="#434A57"/>
<rect y="202" width="108.333" height="91" rx="5" fill="white" fill-opacity="0.8"/>
<rect x="38.167" y="217" width="32" height="32" rx="16" fill="#934CED"/>
<path fill-rule="evenodd" clip-rule="evenodd" d="M58.1474 225.909C55.5256 225.323 52.8067 225.323 50.1849 225.909L49.9024 225.972C49.1649 226.137 48.4876 226.503 47.9456 227.03C47.4037 227.556 47.0184 228.223 46.8324 228.955C46.1678 231.574 46.1678 234.317 46.8324 236.936C47.0097 237.635 47.3686 238.274 47.8726 238.789C48.3766 239.304 49.0079 239.677 49.7024 239.869L50.0899 242.183C50.1023 242.256 50.1341 242.325 50.1821 242.382C50.2301 242.439 50.2925 242.482 50.3628 242.507C50.4331 242.531 50.5087 242.537 50.5818 242.522C50.6548 242.508 50.7227 242.474 50.7783 242.424L53.0541 240.389C54.7625 240.493 56.4771 240.356 58.1474 239.983L58.4308 239.92C59.1682 239.755 59.8456 239.389 60.3875 238.863C60.9295 238.336 61.3148 237.669 61.5008 236.937C62.1653 234.318 62.1653 231.575 61.5008 228.956C61.3148 228.223 60.9293 227.557 60.3872 227.03C59.8451 226.504 59.1676 226.137 58.4299 225.973L58.1474 225.909ZM50.8883 228.888C50.7334 228.865 50.5755 228.896 50.4408 228.976H50.4291C50.1166 229.159 49.8349 229.39 49.5949 229.662C49.3949 229.893 49.2866 230.126 49.2583 230.351C49.2416 230.484 49.2533 230.619 49.2924 230.747L49.3074 230.755C49.5324 231.416 49.8258 232.052 50.1841 232.65C50.6461 233.491 51.2147 234.268 51.8758 234.963L51.8958 234.991L51.9274 235.014L51.9466 235.037L51.9699 235.057C52.6672 235.72 53.4463 236.291 54.2883 236.757C55.2508 237.281 55.8349 237.529 56.1858 237.632V237.637C56.2883 237.669 56.3816 237.683 56.4758 237.683C56.7745 237.661 57.0573 237.539 57.2791 237.338C57.5499 237.098 57.7791 236.815 57.9574 236.501V236.495C58.1249 236.179 58.0683 235.88 57.8266 235.678C57.3412 235.254 56.8163 234.877 56.2591 234.553C55.8858 234.35 55.5066 234.473 55.3533 234.678L55.0258 235.091C54.8574 235.296 54.5524 235.268 54.5524 235.268L54.5441 235.273C52.2683 234.692 51.6608 232.388 51.6608 232.388C51.6608 232.388 51.6324 232.074 51.8433 231.914L52.2533 231.584C52.4499 231.424 52.5866 231.046 52.3758 230.673C52.0538 230.115 51.6778 229.59 51.2533 229.106C51.1607 228.992 51.0308 228.914 50.8866 228.887L50.8883 228.888ZM54.7333 227.886C54.6228 227.886 54.5168 227.93 54.4386 228.008C54.3605 228.086 54.3166 228.192 54.3166 228.303C54.3166 228.413 54.3605 228.519 54.4386 228.597C54.5168 228.675 54.6228 228.719 54.7333 228.719C55.7874 228.719 56.6624 229.064 57.3549 229.724C57.7108 230.084 57.9883 230.512 58.1699 230.98C58.3524 231.449 58.4358 231.95 58.4141 232.452C58.4118 232.507 58.4203 232.561 58.4391 232.613C58.4579 232.664 58.4867 232.711 58.5238 232.752C58.5986 232.833 58.7028 232.881 58.8133 232.886C58.9238 232.891 59.0316 232.851 59.113 232.776C59.1944 232.702 59.2428 232.597 59.2474 232.487C59.2733 231.87 59.1708 231.254 58.9466 230.679C58.7214 230.1 58.3799 229.574 57.9433 229.134L57.9349 229.125C57.0758 228.304 55.9883 227.886 54.7333 227.886ZM54.7049 229.256C54.5944 229.256 54.4884 229.3 54.4103 229.378C54.3322 229.456 54.2883 229.562 54.2883 229.673C54.2883 229.783 54.3322 229.889 54.4103 229.967C54.4884 230.045 54.5944 230.089 54.7049 230.089H54.7191C55.4791 230.144 56.0324 230.397 56.4199 230.813C56.8174 231.241 57.0233 231.774 57.0074 232.432C57.0049 232.542 57.0463 232.649 57.1227 232.729C57.199 232.809 57.304 232.856 57.4145 232.858C57.525 232.861 57.632 232.819 57.7119 232.743C57.7919 232.667 57.8382 232.562 57.8408 232.451C57.8608 231.587 57.5824 230.841 57.0308 230.246V230.244C56.4666 229.639 55.6924 229.319 54.7608 229.257L54.7466 229.255L54.7049 229.256ZM54.6891 230.652C54.6333 230.647 54.5771 230.653 54.5239 230.671C54.4707 230.688 54.4214 230.716 54.3792 230.752C54.3369 230.789 54.3025 230.834 54.278 230.884C54.2534 230.935 54.2393 230.989 54.2364 231.045C54.2335 231.101 54.2418 231.157 54.261 231.21C54.2802 231.262 54.3098 231.31 54.348 231.351C54.3862 231.392 54.4322 231.425 54.4834 231.448C54.5346 231.47 54.5898 231.483 54.6458 231.484C54.9941 231.502 55.2166 231.607 55.3566 231.748C55.4974 231.889 55.6024 232.117 55.6216 232.473C55.6226 232.529 55.6349 232.584 55.6577 232.635C55.6805 232.686 55.7134 232.732 55.7543 232.77C55.7952 232.808 55.8434 232.838 55.896 232.857C55.9486 232.876 56.0044 232.884 56.0603 232.881C56.1161 232.878 56.1708 232.864 56.2211 232.839C56.2713 232.815 56.3161 232.78 56.3528 232.738C56.3894 232.696 56.4172 232.647 56.4345 232.594C56.4518 232.54 56.4581 232.484 56.4533 232.429C56.4266 231.929 56.2699 231.487 55.9491 231.162C55.6266 230.837 55.1874 230.679 54.6891 230.652Z" fill="white"/>
<path d="M44.2272 264.006H45.4782L41.8757 274H40.7272L37.1452 264.006H38.3757L40.6725 270.473C40.9369 271.215 41.1465 271.938 41.3014 272.64C41.4655 271.901 41.6797 271.165 41.944 270.432L44.2272 264.006ZM47.8229 274H46.6882V266.508H47.8229V274ZM46.5924 264.478C46.5924 264.218 46.6563 264.029 46.7839 263.91C46.9115 263.787 47.071 263.726 47.2624 263.726C47.4447 263.726 47.6019 263.787 47.7341 263.91C47.8662 264.033 47.9323 264.222 47.9323 264.478C47.9323 264.733 47.8662 264.924 47.7341 265.052C47.6019 265.175 47.4447 265.236 47.2624 265.236C47.071 265.236 46.9115 265.175 46.7839 265.052C46.6563 264.924 46.5924 264.733 46.5924 264.478ZM53.7155 266.385C54.6999 266.385 55.4632 266.722 56.0055 267.396C56.5524 268.066 56.8258 269.017 56.8258 270.247C56.8258 271.478 56.5501 272.435 55.9987 273.118C55.4518 273.797 54.6908 274.137 53.7155 274.137C53.2279 274.137 52.7813 274.048 52.3757 273.87C51.9746 273.688 51.6374 273.41 51.3639 273.036H51.2819L51.0426 274H50.2292V263.363H51.3639V265.947C51.3639 266.526 51.3457 267.046 51.3092 267.506H51.3639C51.8926 266.758 52.6764 266.385 53.7155 266.385ZM53.5514 267.335C52.7767 267.335 52.2184 267.558 51.8766 268.005C51.5348 268.447 51.3639 269.194 51.3639 270.247C51.3639 271.3 51.5394 272.054 51.8903 272.51C52.2412 272.961 52.804 273.187 53.5788 273.187C54.276 273.187 54.7956 272.934 55.1374 272.428C55.4792 271.917 55.6501 271.186 55.6501 270.233C55.6501 269.258 55.4792 268.531 55.1374 268.053C54.7956 267.574 54.2669 267.335 53.5514 267.335ZM61.9801 274.137C60.8727 274.137 59.9977 273.799 59.3551 273.125C58.7171 272.451 58.3981 271.514 58.3981 270.315C58.3981 269.108 58.6943 268.148 59.2868 267.438C59.8838 266.727 60.6836 266.371 61.6862 266.371C62.625 266.371 63.3678 266.681 63.9147 267.301C64.4616 267.916 64.735 268.729 64.735 269.741V270.459H59.5739C59.5967 271.339 59.8177 272.006 60.237 272.462C60.6608 272.918 61.2555 273.146 62.0212 273.146C62.8278 273.146 63.6253 272.977 64.4137 272.64V273.651C64.0127 273.825 63.6322 273.948 63.2721 274.021C62.9167 274.098 62.486 274.137 61.9801 274.137ZM61.6725 267.321C61.071 267.321 60.5902 267.517 60.2301 267.909C59.8747 268.301 59.665 268.843 59.6012 269.536H63.5182C63.5182 268.821 63.3587 268.274 63.0397 267.896C62.7207 267.513 62.265 267.321 61.6725 267.321ZM70.0944 266.371C70.4271 266.371 70.7256 266.398 70.9899 266.453L70.8327 267.506C70.5228 267.438 70.2494 267.403 70.0124 267.403C69.4063 267.403 68.8867 267.649 68.4538 268.142C68.0254 268.634 67.8112 269.247 67.8112 269.98V274H66.6764V266.508H67.613L67.7428 267.896H67.7975C68.0755 267.408 68.4105 267.032 68.8024 266.768C69.1943 266.503 69.625 266.371 70.0944 266.371Z" fill="#434A57"/>
<rect x="118.333" y="202" width="108.333" height="91" rx="5" fill="white" fill-opacity="0.8"/>
<rect x="156.5" y="217" width="32" height="32" rx="16" fill="#5865F2"/>
<g clip-path="url(#clip5_2525_6070)">
<path d="M179.442 226.524C178.13 225.91 176.743 225.474 175.316 225.227C175.138 225.548 174.931 225.98 174.788 226.324C173.249 226.093 171.725 226.093 170.215 226.324C170.072 225.981 169.859 225.548 169.68 225.227C168.252 225.474 166.863 225.911 165.551 226.527C162.94 230.473 162.232 234.32 162.586 238.113C164.318 239.407 165.996 240.192 167.646 240.707C168.056 240.143 168.419 239.546 168.73 238.922C168.137 238.696 167.566 238.418 167.023 238.091C167.166 237.985 167.306 237.875 167.442 237.76C170.732 239.299 174.308 239.299 177.559 237.76C177.696 237.874 177.835 237.984 177.977 238.091C177.434 238.419 176.861 238.697 176.268 238.923C176.581 239.55 176.943 240.147 177.352 240.708C179.003 240.194 180.683 239.408 182.415 238.113C182.83 233.716 181.706 229.904 179.442 226.524ZM169.178 235.781C168.19 235.781 167.38 234.859 167.38 233.736C167.38 232.613 168.173 231.689 169.178 231.689C170.183 231.689 170.993 232.611 170.976 233.736C170.978 234.859 170.183 235.781 169.178 235.781ZM175.823 235.781C174.835 235.781 174.025 234.859 174.025 233.736C174.025 232.613 174.817 231.689 175.823 231.689C176.828 231.689 177.638 232.611 177.62 233.736C177.62 234.859 176.828 235.781 175.823 235.781Z" fill="white"/>
</g>
<path d="M156.914 268.907C156.914 270.557 156.465 271.819 155.567 272.694C154.674 273.565 153.386 274 151.705 274H148.936V264.006H151.999C153.553 264.006 154.76 264.437 155.622 265.298C156.483 266.159 156.914 267.362 156.914 268.907ZM155.683 268.948C155.683 267.645 155.355 266.663 154.699 266.002C154.047 265.341 153.076 265.011 151.787 265.011H150.098V272.995H151.513C152.899 272.995 153.94 272.656 154.637 271.977C155.335 271.293 155.683 270.284 155.683 268.948ZM160.113 274H158.978V266.508H160.113V274ZM158.882 264.478C158.882 264.218 158.946 264.029 159.074 263.91C159.201 263.787 159.361 263.726 159.552 263.726C159.735 263.726 159.892 263.787 160.024 263.91C160.156 264.033 160.222 264.222 160.222 264.478C160.222 264.733 160.156 264.924 160.024 265.052C159.892 265.175 159.735 265.236 159.552 265.236C159.361 265.236 159.201 265.175 159.074 265.052C158.946 264.924 158.882 264.733 158.882 264.478ZM167.352 271.956C167.352 272.653 167.092 273.191 166.573 273.569C166.053 273.948 165.324 274.137 164.385 274.137C163.392 274.137 162.617 273.979 162.061 273.665V272.612C162.421 272.795 162.806 272.938 163.216 273.043C163.631 273.148 164.03 273.2 164.413 273.2C165.005 273.2 165.461 273.107 165.78 272.92C166.099 272.729 166.258 272.439 166.258 272.052C166.258 271.76 166.131 271.512 165.876 271.307C165.625 271.097 165.133 270.851 164.399 270.568C163.702 270.309 163.205 270.083 162.909 269.892C162.617 269.696 162.398 269.475 162.253 269.229C162.111 268.982 162.041 268.688 162.041 268.347C162.041 267.736 162.289 267.255 162.786 266.904C163.283 266.549 163.964 266.371 164.83 266.371C165.636 266.371 166.425 266.535 167.195 266.863L166.792 267.786C166.04 267.476 165.358 267.321 164.748 267.321C164.21 267.321 163.804 267.406 163.531 267.574C163.257 267.743 163.121 267.975 163.121 268.271C163.121 268.472 163.171 268.643 163.271 268.784C163.376 268.925 163.542 269.06 163.77 269.188C163.998 269.315 164.436 269.5 165.083 269.741C165.971 270.065 166.571 270.391 166.881 270.719C167.195 271.047 167.352 271.459 167.352 271.956ZM172.199 274.137C171.114 274.137 170.273 273.804 169.676 273.139C169.084 272.469 168.788 271.523 168.788 270.302C168.788 269.049 169.089 268.08 169.69 267.396C170.296 266.713 171.158 266.371 172.274 266.371C172.634 266.371 172.994 266.41 173.354 266.487C173.714 266.565 173.997 266.656 174.202 266.761L173.853 267.725C173.603 267.624 173.329 267.542 173.033 267.479C172.737 267.41 172.475 267.376 172.247 267.376C170.725 267.376 169.964 268.347 169.964 270.288C169.964 271.209 170.148 271.915 170.517 272.407C170.891 272.899 171.442 273.146 172.172 273.146C172.796 273.146 173.436 273.011 174.092 272.742V273.747C173.591 274.007 172.96 274.137 172.199 274.137ZM182.343 270.247C182.343 271.468 182.036 272.423 181.421 273.111C180.805 273.795 179.955 274.137 178.871 274.137C178.201 274.137 177.606 273.979 177.087 273.665C176.567 273.351 176.166 272.899 175.883 272.312C175.601 271.724 175.46 271.035 175.46 270.247C175.46 269.026 175.765 268.076 176.376 267.396C176.986 266.713 177.834 266.371 178.919 266.371C179.967 266.371 180.799 266.72 181.414 267.417C182.034 268.114 182.343 269.058 182.343 270.247ZM176.635 270.247C176.635 271.204 176.827 271.933 177.21 272.435C177.592 272.936 178.155 273.187 178.898 273.187C179.641 273.187 180.204 272.938 180.587 272.441C180.974 271.94 181.168 271.209 181.168 270.247C181.168 269.295 180.974 268.572 180.587 268.08C180.204 267.583 179.636 267.335 178.884 267.335C178.142 267.335 177.581 267.579 177.203 268.066C176.825 268.554 176.635 269.281 176.635 270.247ZM187.757 266.371C188.09 266.371 188.389 266.398 188.653 266.453L188.496 267.506C188.186 267.438 187.912 267.403 187.675 267.403C187.069 267.403 186.55 267.649 186.117 268.142C185.688 268.634 185.474 269.247 185.474 269.98V274H184.34V266.508H185.276L185.406 267.896H185.461C185.739 267.408 186.074 267.032 186.465 266.768C186.857 266.503 187.288 266.371 187.757 266.371ZM195.154 272.995H195.092C194.568 273.756 193.785 274.137 192.741 274.137C191.761 274.137 190.998 273.802 190.451 273.132C189.909 272.462 189.637 271.509 189.637 270.274C189.637 269.039 189.911 268.08 190.458 267.396C191.005 266.713 191.766 266.371 192.741 266.371C193.757 266.371 194.536 266.74 195.079 267.479H195.168L195.12 266.938L195.092 266.412V263.363H196.227V274H195.304L195.154 272.995ZM192.884 273.187C193.659 273.187 194.22 272.977 194.566 272.558C194.917 272.134 195.092 271.452 195.092 270.514V270.274C195.092 269.213 194.915 268.456 194.559 268.005C194.208 267.549 193.646 267.321 192.871 267.321C192.205 267.321 191.695 267.581 191.34 268.101C190.989 268.616 190.813 269.345 190.813 270.288C190.813 271.245 190.989 271.967 191.34 272.455C191.69 272.943 192.205 273.187 192.884 273.187Z" fill="#434A57"/>
<defs>
<linearGradient id="paint0_linear_2525_6070" x1="54.167" y1="47" x2="54.167" y2="15" gradientUnits="userSpaceOnUse">
<stop stop-color="#1FAF38"/>
<stop offset="1" stop-color="#60D669"/>
</linearGradient>
<radialGradient id="paint1_radial_2525_6070" cx="0" cy="0" r="1" gradientUnits="userSpaceOnUse" gradientTransform="translate(181.5 17) rotate(116.131) scale(29.5169)">
<stop stop-color="#5162CF"/>
<stop offset="0.15625" stop-color="#903EBC"/>
<stop offset="0.447917" stop-color="#BA378A"/>
<stop offset="0.682292" stop-color="#E75C4D"/>
<stop offset="0.984375" stop-color="#FBCE73"/>
</radialGradient>
<linearGradient id="paint2_linear_2525_6070" x1="290.834" y1="15" x2="290.834" y2="47" gradientUnits="userSpaceOnUse">
<stop stop-color="#2AABEE"/>
<stop offset="1" stop-color="#229ED9"/>
</linearGradient>
<linearGradient id="paint3_linear_2525_6070" x1="1075.01" y1="127.115" x2="1372.01" y2="2002.28" gradientUnits="userSpaceOnUse">
<stop offset="0.01" stop-color="#00B7F0"/>
<stop offset="0.34" stop-color="#009DE5"/>
<stop offset="0.76" stop-color="#0082D9"/>
<stop offset="1" stop-color="#0078D4"/>
</linearGradient>
<linearGradient id="paint4_linear_2525_6070" x1="414.178" y1="1552.02" x2="2058.82" y2="603.355" gradientUnits="userSpaceOnUse">
<stop stop-color="#0078D4"/>
<stop offset="0.37" stop-color="#007AD5"/>
<stop offset="0.57" stop-color="#0082D9"/>
<stop offset="0.74" stop-color="#0090DF"/>
<stop offset="0.88" stop-color="#00A3E7"/>
<stop offset="1" stop-color="#00BCF2"/>
</linearGradient>
<radialGradient id="paint5_radial_2525_6070" cx="0" cy="0" r="1" gradientUnits="userSpaceOnUse" gradientTransform="translate(1993.65 1887.62) scale(1773.39)">
<stop/>
<stop offset="1" stop-opacity="0"/>
</radialGradient>
<linearGradient id="paint6_linear_2525_6070" x1="1187.92" y1="600.22" x2="2686.27" y2="3195.75" gradientUnits="userSpaceOnUse">
<stop stop-color="#00B7F0"/>
<stop offset="1" stop-color="#007CC1"/>
</linearGradient>
<linearGradient id="paint7_linear_2525_6070" x1="1643.42" y1="3108.19" x2="1904.97" y2="122.576" gradientUnits="userSpaceOnUse">
<stop stop-color="#0078D4"/>
<stop offset="1" stop-color="#00BCF2"/>
</linearGradient>
<clipPath id="clip0_2525_6070">
<rect width="32" height="32" fill="white" transform="translate(38.167 15)"/>
</clipPath>
<clipPath id="clip1_2525_6070">
<rect x="156.5" y="15" width="32" height="32" rx="16" fill="white"/>
</clipPath>
<clipPath id="clip2_2525_6070">
<rect width="20" height="20" fill="white" transform="translate(162.5 21)"/>
</clipPath>
<clipPath id="clip3_2525_6070">
<rect x="274.834" y="15" width="32" height="32" rx="16" fill="white"/>
</clipPath>
<clipPath id="clip4_2525_6070">
<rect width="32" height="32" fill="white" transform="translate(274.834 116)"/>
</clipPath>
<clipPath id="clip5_2525_6070">
<rect width="20" height="15.5461" fill="white" transform="translate(162.5 225.227)"/>
</clipPath>
</defs>
</svg>
