<svg width="325" height="239" viewBox="0 0 325 239" fill="none" xmlns="http://www.w3.org/2000/svg">
<path d="M325.36 584.513C468.486 584.513 584.513 468.486 584.513 325.36C584.513 182.234 468.486 66.207 325.36 66.207C182.234 66.207 66.2072 182.234 66.2072 325.36C66.2072 468.486 182.234 584.513 325.36 584.513Z" stroke="#F8B22C" stroke-miterlimit="10"/>
<path d="M325.36 48.3243V0.719971" stroke="#F8B22C" stroke-miterlimit="10" stroke-linecap="round"/>
<path d="M293.093 18.2749L291.422 2.50049" stroke="#F8B22C" stroke-miterlimit="10" stroke-linecap="round"/>
<path d="M310.866 48.6992L310.039 32.8467" stroke="#F8B22C" stroke-miterlimit="10" stroke-linecap="round"/>
<path d="M282.019 51.7291L274.585 4.71826" stroke="#F8B22C" stroke-miterlimit="10" stroke-linecap="round"/>
<path d="M245.442 27.1149L241.334 11.7778" stroke="#F8B22C" stroke-miterlimit="10" stroke-linecap="round"/>
<path d="M267.76 54.3684L264.465 38.8595" stroke="#F8B22C" stroke-miterlimit="10" stroke-linecap="round"/>
<path d="M239.757 61.8807L225.044 16.6035" stroke="#F8B22C" stroke-miterlimit="10" stroke-linecap="round"/>
<path d="M199.774 43.2796L193.324 28.7859" stroke="#F8B22C" stroke-miterlimit="10" stroke-linecap="round"/>
<path d="M226.075 66.7226L220.39 51.9009" stroke="#F8B22C" stroke-miterlimit="10" stroke-linecap="round"/>
<path d="M199.587 78.5141L177.971 36.1107" stroke="#F8B22C" stroke-miterlimit="10" stroke-linecap="round"/>
<path d="M157.199 66.3946L148.546 53.0879" stroke="#F8B22C" stroke-miterlimit="10" stroke-linecap="round"/>
<path d="M186.842 85.433L178.908 71.689" stroke="#F8B22C" stroke-miterlimit="10" stroke-linecap="round"/>
<path d="M162.525 101.223L134.537 62.7241" stroke="#F8B22C" stroke-miterlimit="10" stroke-linecap="round"/>
<path d="M118.747 95.8973L108.142 84.1056" stroke="#F8B22C" stroke-miterlimit="10" stroke-linecap="round"/>
<path d="M151.014 110.063L141.034 97.7246" stroke="#F8B22C" stroke-miterlimit="10" stroke-linecap="round"/>
<path d="M129.461 129.461L95.8036 95.8036" stroke="#F8B22C" stroke-miterlimit="10" stroke-linecap="round"/>
<path d="M85.4018 131.038L73.0634 121.058" stroke="#F8B22C" stroke-miterlimit="10" stroke-linecap="round"/>
<path d="M119.481 139.987L107.689 129.367" stroke="#F8B22C" stroke-miterlimit="10" stroke-linecap="round"/>
<path d="M101.223 162.524L62.7242 134.537" stroke="#F8B22C" stroke-miterlimit="10" stroke-linecap="round"/>
<path d="M57.9607 170.974L44.2166 163.04" stroke="#F8B22C" stroke-miterlimit="10" stroke-linecap="round"/>
<path d="M93.0079 174.472L79.7011 165.836" stroke="#F8B22C" stroke-miterlimit="10" stroke-linecap="round"/>
<path d="M78.5143 199.587L36.1109 177.971" stroke="#F8B22C" stroke-miterlimit="10" stroke-linecap="round"/>
<path d="M37.0949 214.705L22.2888 209.02" stroke="#F8B22C" stroke-miterlimit="10" stroke-linecap="round"/>
<path d="M72.267 212.675L57.7733 206.224" stroke="#F8B22C" stroke-miterlimit="10" stroke-linecap="round"/>
<path d="M61.8809 239.757L16.6038 225.044" stroke="#F8B22C" stroke-miterlimit="10" stroke-linecap="round"/>
</svg>
