<svg width="369" height="414" viewBox="0 0 369 414" fill="none" xmlns="http://www.w3.org/2000/svg">
<path d="M82.9346 225.171C82.9346 225.171 45.776 210.29 35.7384 223.305C24.4008 238.006 6.06684 286.631 11.1705 305.097C14.4728 317.042 36.2892 323.376 36.2892 323.376L82.9346 225.171Z" fill="url(#paint0_linear_2643_41531)"/>
<path d="M70.5371 361.898C79.7837 374.014 96.0344 379.227 108.187 381.464C111.353 380.578 114.546 379.308 117.712 377.632C109.333 377.148 84.7803 374.289 74.0144 357.395C72.9597 358.602 71.8111 360.058 70.5371 361.898Z" fill="#0876E4"/>
<path d="M75.3196 413.308C95.387 418.507 99.8354 393.023 100.765 384.334C100.825 383.759 100.872 383.26 100.906 382.847C103.297 382.612 105.735 382.154 108.187 381.464C96.0344 379.227 79.7837 374.014 70.5371 361.898C70.2839 362.264 70.0228 362.649 69.7592 363.049C69.318 363.715 68.7437 364.622 68.091 365.728C66.9084 367.73 65.47 370.378 64.0812 373.413C57.9777 386.744 52.8924 407.489 75.3196 413.308Z" fill="url(#paint1_linear_2643_41531)"/>
<path d="M15.1959 343.405C15.2638 343.567 15.3342 343.729 15.4047 343.888C22.3749 359.724 42.9069 364.141 53.5945 365.375C55.7247 364.403 57.7845 363.211 59.7659 361.825C48.8433 360.712 27.0739 356.365 18.54 339.429C17.4436 340.728 16.3236 342.053 15.1959 343.405Z" fill="#0876E4"/>
<path d="M16.6369 398.7C36.9235 403.952 40.9724 377.054 41.7373 368.391C42.6249 368.334 43.5047 368.242 44.3714 368.114C47.585 367.649 50.6602 366.716 53.5945 365.375C42.9069 364.141 22.3748 359.723 15.4047 343.888C15.3342 343.728 15.2637 343.566 15.1958 343.404C14.2665 344.52 13.3293 345.652 12.3999 346.797C11.9561 347.344 11.5123 347.895 11.0712 348.449C5.67514 355.225 -13.7004 390.832 16.6369 398.7Z" fill="url(#paint2_linear_2643_41531)"/>
<path d="M172.639 188.685C174.941 197.066 182.031 213.087 202.916 216.401C203.97 214.726 205.033 212.985 206.101 211.171C188.007 207.404 179.577 194.718 175.737 185.235C174.69 186.424 173.654 187.574 172.639 188.685Z" fill="#0876E4"/>
<path d="M298.936 29.4025C308.653 29.6548 317.474 35.1287 322.019 43.7239L345.022 87.2285C349.497 95.6891 349.143 105.893 344.094 114.032L317.608 156.731C312.559 164.869 303.574 169.718 294.008 169.469L244.816 168.186C235.099 167.931 226.278 162.46 221.734 153.865L198.73 110.358C194.257 101.896 194.609 91.693 199.658 83.5543L226.144 40.8556C231.191 32.718 240.175 27.8689 249.742 28.1181L298.936 29.4025Z" fill="#0876E4"/>
<path d="M241.514 147.733C238.093 145.61 235.224 142.596 233.279 138.916L217.456 108.975C213.641 101.752 213.946 92.9524 218.255 86.0061L236.55 56.5147C240.86 49.5684 248.609 45.3836 256.775 45.5944L290.627 46.468C298.945 46.6832 306.528 51.3863 310.417 58.7453L326.24 88.6864C330.058 95.9083 329.751 104.709 325.441 111.656L307.147 141.147C302.837 148.093 295.089 152.277 286.921 152.065L253.069 151.191C248.911 151.086 244.935 149.855 241.514 147.733ZM298.125 56.472C295.844 55.0568 293.192 54.2366 290.42 54.1649L256.567 53.2889C251.125 53.1485 245.957 55.9383 243.084 60.5699L224.789 90.0613C221.917 94.693 221.713 100.559 224.257 105.373L240.08 135.314C242.672 140.219 247.729 143.354 253.274 143.498L287.127 144.374C292.572 144.516 297.738 141.727 300.611 137.095L318.906 107.604C321.778 102.972 321.985 97.1053 319.437 92.2898L303.614 62.3486C302.318 59.8964 300.408 57.8862 298.125 56.472Z" fill="white"/>
<path fill-rule="evenodd" clip-rule="evenodd" d="M288.408 73.7715C279.684 68.3602 268.221 71.051 262.806 79.7825C261.872 81.2877 262.334 83.266 263.837 84.1973C265.341 85.131 267.319 84.6666 268.253 83.1613C271.802 77.4393 279.312 75.6764 285.026 79.2237C290.743 82.7698 292.499 90.2824 288.95 96.002L285.906 100.908L261.395 85.7024C258.689 84.0226 255.131 84.8576 253.45 87.5667L244.659 101.742C241.858 106.257 243.246 112.189 247.756 114.988L269.542 128.505C274.056 131.305 279.983 129.911 282.784 125.396L291.575 111.221C292.899 109.086 292.664 106.419 291.178 104.565L294.396 99.3784C299.815 90.6507 297.132 79.1851 288.408 73.7715ZM285.25 108.051L258.561 91.4944L250.107 105.124C249.173 106.629 249.635 108.605 251.141 109.537L272.927 123.054C274.43 123.988 276.408 123.523 277.34 122.019L285.794 108.39L285.25 108.051ZM268.457 105.938C267.255 105.192 265.673 105.564 264.926 106.768C264.18 107.971 264.55 109.554 265.752 110.3C266.955 111.046 268.537 110.674 269.284 109.471C270.03 108.267 269.66 106.684 268.457 105.938ZM262.747 105.416C264.243 103.007 267.402 102.266 269.81 103.757C272.216 105.252 272.958 108.414 271.463 110.822C269.967 113.231 266.805 113.973 264.4 112.481C261.991 110.987 261.252 107.825 262.747 105.416Z" fill="white"/>
<path d="M175.737 185.235C179.577 194.718 188.007 207.404 206.101 211.171C207.022 209.608 207.946 207.99 208.876 206.317C210.823 202.809 212.784 199.063 214.742 195.063C214.742 195.063 219.031 195.785 223.813 194.807C228.917 193.767 232.673 189.19 235.114 183.685C238.064 177.022 239.09 169.005 238.239 164.226C236.359 153.676 230.076 153.676 230.076 153.676C228.554 150.372 225.518 147.682 220.571 145.996C207.792 141.641 201.026 151.619 201.026 151.619C195.76 159.782 190.544 167.036 185.529 173.443C183.514 176.021 181.53 178.462 179.588 180.768C178.285 182.318 177.003 183.805 175.737 185.235Z" fill="url(#paint3_linear_2643_41531)"/>
<path d="M18.5401 339.429C27.074 356.365 48.8435 360.712 59.766 361.825C61.4081 360.683 63.0005 359.405 64.5407 358.006C65.457 357.17 66.3577 356.294 67.2374 355.377C70.686 351.798 73.8526 347.597 76.7346 342.939C76.7346 342.939 79.7524 344.568 84.7908 346.005C84.736 346.092 84.6812 346.178 84.6263 346.264C81.8252 350.648 79.4783 351.976 76.4135 354.898C75.8732 355.411 75.3119 355.973 74.7193 356.613C74.4896 356.861 74.2546 357.123 74.0144 357.395C78.0242 363.686 83.945 368.033 90.2312 371.032C100.825 376.09 112.452 377.329 117.712 377.632C119.138 376.877 120.558 376.043 121.97 375.12C134.997 366.63 147.167 350.993 154.61 326.735C164.246 295.302 165.259 268.096 165.295 258.905C165.295 258.905 165.29 258.9 165.295 258.892C165.303 256.748 165.259 255.59 165.259 255.59C165.259 255.59 180.953 249.17 199.794 221.196C200.822 219.664 201.864 218.067 202.916 216.402C182.031 213.087 174.941 197.066 172.639 188.686C171.25 190.202 169.895 191.642 168.574 193.009C163.301 198.472 158.607 202.778 154.777 206.04C154.777 206.04 143.703 236.746 118.511 235.047C99.5535 233.766 86.3493 226.371 78.2749 219.933C78.0164 219.724 77.7606 219.517 77.5152 219.311C71.3438 214.24 68.42 209.914 68.42 209.914C67.3001 214.276 65.7285 219.598 63.8568 225.349C63.755 225.668 63.6479 225.982 63.5487 226.309C61.9641 231.129 60.1941 236.223 58.3145 241.284C52.882 255.985 46.6271 270.383 41.9177 276.923C33.5352 288.558 32.1777 319.186 32.1777 319.186C31.9714 320.485 31.4206 321.92 30.5879 323.481C30.4991 323.651 30.4051 323.818 30.3059 323.988C28.3532 327.501 25.0952 331.6 21.3387 336.098C20.4328 337.186 19.4956 338.297 18.5401 339.429Z" fill="url(#paint4_linear_2643_41531)"/>
<path d="M216.532 159.5C216.611 159.22 216.692 158.933 216.783 158.64L216.391 159.364L216.532 159.5Z" fill="white"/>
<path d="M144.076 214.223C144.395 214.02 148.389 211.481 154.775 206.039L144.076 214.223Z" fill="white"/>
<path d="M138.761 322.427C134.934 322.216 130.653 321.907 126.069 321.471C128.778 321.928 131.279 322.315 133.514 322.642C135.302 322.895 137.08 322.814 138.761 322.427Z" fill="white"/>
<path d="M156.803 312.693C151.22 312.693 146.695 308.161 146.695 302.572C146.695 296.982 151.22 292.45 156.803 292.45C162.385 292.45 166.911 296.982 166.911 302.572C166.911 308.161 162.385 312.693 156.803 312.693Z" fill="url(#paint5_linear_2643_41531)"/>
<path d="M85.6731 317.915L124.262 324.22L127.006 324.669L142.857 327.26C149.626 328.363 156.074 323.728 157.179 316.942L158.21 310.604L162.139 286.471C163.251 279.688 158.612 273.234 151.835 272.128L149.827 271.802L147.086 271.352L94.6612 262.789C93.818 262.65 92.98 262.598 92.1603 262.634C86.3675 262.87 81.3056 267.164 80.3371 273.103L75.3718 303.575C74.2676 310.36 78.9065 316.812 85.6731 317.915Z" fill="url(#paint6_linear_2643_41531)"/>
<path d="M145.188 327.409C144.424 327.443 143.648 327.394 142.857 327.26L85.6731 317.915C80.713 317.102 76.8964 313.427 75.6511 308.84C75.1943 307.172 75.0794 305.386 75.377 303.575L77.5777 290.037L78.3035 285.57L80.3345 273.104C81.4388 266.318 87.8894 261.683 94.6586 262.786L107.014 264.81C101.143 264.953 95.9874 269.272 95.0058 275.273L92.3195 291.731L90.0379 305.75C88.9362 312.528 93.5726 318.987 100.342 320.093L145.188 327.409Z" fill="url(#paint7_linear_2643_41531)"/>
<path d="M45.7995 265.1C45.7995 265.1 40.3069 267.546 38.4977 273.268C36.4067 279.884 39.5968 283.75 39.5968 283.75C39.5968 283.75 54.2603 298.174 83.7178 300.059C83.7178 300.059 94.9275 291.524 87.5579 282.702C87.5605 282.702 57.1136 278.4 45.7995 265.1Z" fill="url(#paint8_linear_2643_41531)"/>
<g opacity="0.35">
<path d="M38.8867 282.569C39.7769 280.418 40.7846 278.494 41.9176 276.921C42.505 276.105 43.1184 275.167 43.7528 274.113C42.9383 271.818 42.8391 269.285 43.57 266.854C43.5883 266.786 43.6144 266.723 43.6327 266.653C43.664 266.546 43.7006 266.433 43.7528 266.334C41.9933 267.594 39.5838 269.845 38.5004 273.274C37.0855 277.744 38.0853 280.959 38.8867 282.569Z" fill="#371A45"/>
</g>
<path d="M21.2968 283.552C22.3776 283.193 23.5183 282.901 24.7035 282.668C35.0361 280.642 48.8799 283.17 57.4738 285.238C57.7036 283.737 58.0534 281.897 58.5859 279.837C48.2795 277.223 31.3944 274.241 22.8318 277.79C22.2496 279.717 21.738 281.641 21.2968 283.552Z" fill="#0876E4"/>
<path d="M21.7719 314.923C23.2417 318.598 26.4918 321.808 30.3058 323.988C39.3253 329.153 51.5166 328.588 50.8404 314.923C50.4515 307.088 56.2991 311.03 59.2856 310.578C62.2642 310.121 64.3501 308.16 62.1389 301.508C61.3975 299.267 59.9617 295.276 58.2335 291.705C57.8498 290.908 57.4504 290.134 57.0431 289.402C57.0431 289.402 57.0797 287.821 57.4739 285.238C48.8799 283.171 35.0361 280.643 24.7036 282.669C23.5184 282.901 22.3776 283.194 21.2968 283.552C20.7199 286.043 20.2656 288.514 19.9341 290.931C18.6836 300.083 19.2214 308.537 21.7719 314.923Z" fill="url(#paint9_linear_2643_41531)"/>
<path d="M22.8318 277.791C31.3944 274.241 48.2795 277.223 58.586 279.837C59.0506 278.044 59.6563 276.081 60.4394 274.024C62.6924 268.111 66.4411 261.43 72.6699 255.77L75.7634 235.985L78.2748 219.933L78.4105 219.06C78.4105 219.06 78.0972 219.135 77.5151 219.311C75.5258 219.907 70.3778 221.637 63.8567 225.349C63.593 225.498 63.3241 225.655 63.0552 225.811C53.9209 231.152 42.3065 240.319 32.8642 255.501C29.8385 260.371 27.2802 265.565 25.2283 270.845C24.3303 273.151 23.5314 275.472 22.8318 277.791Z" fill="url(#paint10_linear_2643_41531)"/>
<path d="M195.314 164.274C194.314 174.369 191.463 184.325 186.756 193.618C184.963 197.16 182.901 200.605 180.567 203.925C178.841 206.38 176.977 208.761 174.962 211.061C173.986 212.183 172.962 213.286 171.913 214.376C168.728 217.651 165.342 220.613 161.786 223.266C158.729 225.558 155.539 227.618 152.263 229.448C149.05 231.244 145.742 232.815 142.364 234.166C141.583 234.477 140.798 234.778 140.009 235.068C138.477 235.622 136.934 236.137 135.383 236.608C130.026 238.226 124.542 239.311 119.012 239.862C119.012 239.862 119.012 239.862 119.01 239.862C95.2068 242.233 70.5998 234.702 52.0622 217.102C18.4017 185.159 17.4933 132.15 50.0182 98.6993C56.2861 92.2611 63.3398 87.0043 70.8843 82.9684C71.7614 82.49 72.6569 82.0325 73.5601 81.5934C75.967 80.4067 78.4157 79.3401 80.901 78.3965C86.6521 76.2112 92.5963 74.669 98.6084 73.7645C104.618 72.8549 110.714 72.5856 116.765 72.9594C118.018 73.0378 119.271 73.1398 120.521 73.2705C121.19 73.3411 121.858 73.4195 122.529 73.5057C125.403 73.8822 128.256 74.3945 131.094 75.0663C133.138 75.5446 135.167 76.0988 137.177 76.7314C149.063 80.4615 160.28 86.8684 169.869 95.9729C172.419 98.3908 174.779 100.932 176.951 103.574C191.283 121.007 197.431 142.928 195.314 164.274Z" fill="url(#paint11_linear_2643_41531)"/>
<path d="M137.174 76.734C136.292 76.4935 135.407 76.2714 134.514 76.0596C126.672 75.8871 118.493 77.0739 110.095 79.5963C106.798 80.587 103.467 81.7842 100.107 83.1827C78.609 92.1461 60.7423 111.061 52.3102 133.782C44.7709 154.103 45.5332 175.111 54.4587 192.941C64.2327 212.457 79.7994 226.118 99.4751 232.449C113.04 236.812 127.888 237.327 142.361 234.166C141.581 234.477 140.795 234.778 140.007 235.068C138.474 235.622 136.931 236.137 135.381 236.608C130.024 238.226 124.539 239.311 119.01 239.862C119.01 239.862 119.01 239.862 119.007 239.862C111.935 239.473 104.978 238.215 98.3134 236.072C77.6431 229.422 61.3036 215.097 51.0598 194.643C41.6566 175.861 40.8343 153.776 48.7468 132.454C57.5366 108.763 76.1916 89.0276 98.645 79.6669C106.069 76.572 113.384 74.4337 120.516 73.2705C121.184 73.3411 121.853 73.4195 122.524 73.5058C125.398 73.8822 128.251 74.3945 131.089 75.0663C133.133 75.5473 135.164 76.1015 137.174 76.734Z" fill="#9CBDEA"/>
<mask id="mask0_2643_41531" style="mask-type:luminance" maskUnits="userSpaceOnUse" x="51" y="82" width="145" height="145">
<path d="M195.314 164.274C194.609 171.384 192.988 178.426 190.445 185.214C189.377 188.064 188.148 190.871 186.756 193.618C175.406 208.118 160.228 218.506 143.601 223.499C135.057 226.063 126.131 227.205 117.141 226.745C91.4033 225.433 69.8897 211.192 58.1161 187.677C49.9973 171.46 49.2872 152.393 56.119 133.988C63.7053 113.547 79.802 96.5193 99.1775 88.4395C128.309 76.2923 154.419 81.3896 176.949 103.574C191.283 121.007 197.431 142.928 195.314 164.274Z" fill="white"/>
</mask>
<g mask="url(#mask0_2643_41531)">
<path d="M195.314 164.274C194.609 171.384 192.988 178.426 190.445 185.214C189.377 188.064 188.148 190.871 186.756 193.618C175.406 208.118 160.228 218.506 143.601 223.499C135.057 226.063 126.131 227.205 117.141 226.745C91.4033 225.433 69.8897 211.192 58.1161 187.677C49.9973 171.46 49.2872 152.393 56.119 133.988C63.7053 113.547 79.802 96.5193 99.1775 88.4395C128.309 76.2923 154.419 81.3896 176.949 103.574C191.283 121.007 197.431 142.928 195.314 164.274Z" fill="#371A45"/>
</g>
<mask id="mask1_2643_41531" style="mask-type:luminance" maskUnits="userSpaceOnUse" x="51" y="82" width="145" height="145">
<path d="M195.314 164.274C194.609 171.384 192.988 178.426 190.445 185.214C189.377 188.064 188.148 190.871 186.756 193.618C175.406 208.118 160.228 218.506 143.601 223.499C135.057 226.063 126.131 227.205 117.141 226.745C91.4033 225.433 69.8897 211.192 58.1161 187.677C49.9973 171.46 49.2872 152.393 56.119 133.988C63.7053 113.547 79.802 96.5193 99.1775 88.4395C128.309 76.2923 154.419 81.3896 176.949 103.574C191.283 121.007 197.431 142.928 195.314 164.274Z" fill="white"/>
</mask>
<g mask="url(#mask1_2643_41531)">
<path d="M86.0369 168.883C86.0369 168.883 84.9872 163.698 77.5068 159.784C70.0278 155.87 66.6087 160.25 65.5617 165.396C64.5147 170.543 69.2433 184.332 74.9052 187.186C80.5672 190.039 84.2796 186.213 84.2796 186.213L86.0354 168.883L86.0369 168.883Z" fill="url(#paint12_linear_2643_41531)"/>
<g style="mix-blend-mode:multiply" opacity="0.6">
<path d="M85.1251 177.88L84.5901 183.16C84.5901 183.16 82.778 176.867 81.2968 176.803C79.8156 176.74 80.0183 180.787 79.3577 182.121C78.6971 183.455 76.7689 181.77 76.7574 177.216C76.7475 172.663 79.8424 173.028 79.8424 173.028C79.8424 173.028 77.2228 164.627 72.7428 166.535C68.2614 168.442 69.6286 179.41 69.6286 179.41C69.6286 179.41 64.8189 168.64 66.4208 165.015C68.0211 161.391 71.6769 161.495 77.2067 165.649C79.9184 167.684 82.3411 171.875 84.1049 175.615C84.4757 176.398 84.8169 177.162 85.1251 177.88Z" fill="url(#paint13_linear_2643_41531)"/>
</g>
<g style="mix-blend-mode:multiply" opacity="0.6">
<path d="M85.1718 177.399L84.8071 180.998C84.0934 179.201 82.2094 174.864 81.044 175.815C79.5831 177.007 80.0347 179.521 78.7586 181.104C77.481 182.686 76.3559 177.963 77.581 175.026C78.8062 172.088 82.3253 173.66 83.3231 174.631C83.5629 174.865 83.8279 175.207 84.1043 175.615C84.4539 176.132 84.82 176.754 85.1718 177.399Z" fill="url(#paint14_linear_2643_41531)"/>
</g>
<path d="M162.023 176.606C162.023 176.606 164.091 171.738 172.202 169.413C180.313 167.087 182.785 172.066 182.778 177.319C182.771 182.572 175.374 195.126 169.255 196.779C163.137 198.432 160.267 193.937 160.267 193.937L162.023 176.606Z" fill="url(#paint15_linear_2643_41531)"/>
<g style="mix-blend-mode:multiply" opacity="0.6">
<path d="M161.112 185.604L160.577 190.884C160.577 190.884 163.615 185.084 165.078 185.321C166.542 185.557 165.532 189.481 165.911 190.921C166.291 192.361 168.518 191.099 169.442 186.641C170.365 182.182 167.26 181.915 167.26 181.915C167.26 181.915 171.511 174.215 175.519 176.987C179.526 179.759 175.987 190.227 175.987 190.227C175.987 190.227 182.858 180.647 182.016 176.774C181.175 172.901 177.573 172.266 171.324 175.219C168.259 176.666 165.045 180.283 162.568 183.59C162.047 184.283 161.56 184.962 161.112 185.604Z" fill="url(#paint16_linear_2643_41531)"/>
</g>
<g style="mix-blend-mode:multiply" opacity="0.6">
<path d="M161.162 185.124L160.797 188.724C161.857 187.107 164.57 183.239 165.523 184.405C166.715 185.868 165.768 188.239 166.701 190.047C167.635 191.855 169.684 187.455 169.073 184.33C168.462 181.205 164.7 182.036 163.528 182.786C163.244 182.967 162.918 183.248 162.565 183.592C162.12 184.029 161.637 184.564 161.162 185.124Z" fill="url(#paint17_linear_2643_41531)"/>
</g>
<path d="M132.96 238.586C133.427 233.984 135.647 212.082 135.647 212.082L120.063 212.354L104.852 208.947C104.852 208.947 102.632 230.849 102.166 235.451C101.699 240.053 98.2632 241.227 98.2632 241.227C98.2632 241.227 100.924 246.007 116.491 247.592C132.058 249.177 135.624 245.031 135.624 245.031C135.624 245.031 132.494 243.188 132.96 238.586Z" fill="url(#paint18_linear_2643_41531)"/>
<g style="mix-blend-mode:multiply" opacity="0.6">
<path d="M135.649 212.08C135.649 212.08 134.385 224.552 133.564 232.651C130.86 234.894 127.46 236.532 123.333 236.419C113.174 236.141 106.173 223.278 103.892 218.433C104.418 213.244 104.854 208.943 104.854 208.943L120.066 212.351L135.649 212.08Z" fill="#D077B7"/>
</g>
<path d="M164.126 163.289C165.451 150.213 170.378 120.11 129.715 115.968C89.0527 111.825 87.8422 142.308 86.5174 155.384C85.133 169.049 79.1216 188.656 82.262 195.662C89.7959 212.468 111.478 219.969 119.1 220.746C126.722 221.522 149.466 218.546 160.216 203.603C164.698 197.373 162.741 176.954 164.126 163.289Z" fill="url(#paint19_linear_2643_41531)"/>
<g style="mix-blend-mode:multiply" opacity="0.6">
<path d="M160.204 203.607C149.456 218.548 126.715 221.522 119.094 220.745C111.473 219.969 89.7945 212.47 82.2619 195.668C81.1714 193.236 81.6481 184.713 82.1038 180.839C81.8326 184.066 81.4716 192.042 82.4158 194.149C89.9469 210.951 111.627 218.449 119.248 219.225C126.869 220.001 149.609 217.026 160.357 202.087C161.707 200.213 162.951 192.328 163.333 189.112C163.002 193 161.76 201.444 160.204 203.607Z" fill="url(#paint20_linear_2643_41531)"/>
</g>
<path d="M117.314 156.629C117.314 156.629 114.468 156.508 111.572 155.528C110.658 155.219 109.739 154.824 108.901 154.322C105.416 152.226 104.794 151.22 101.759 150.403C98.7233 149.586 93.5075 149.563 93.5075 149.563C93.5075 149.563 94.8337 147.469 96.3626 146.064C96.8607 145.606 97.38 145.22 97.8836 145.005L97.3656 145.883C97.4553 145.755 98.4474 144.582 104.114 145.64C110.101 146.757 116.985 150.359 116.985 150.359L117.117 154.071C117.117 154.071 117.842 153.347 118.117 152.071C118.119 152.07 119.021 154.264 117.314 156.629Z" fill="url(#paint21_linear_2643_41531)"/>
<g style="mix-blend-mode:multiply" opacity="0.6">
<path d="M111.574 155.529C110.66 155.22 109.741 154.826 108.903 154.323C105.418 152.227 104.796 151.221 101.761 150.404C98.7254 149.587 93.5095 149.564 93.5095 149.564C93.5095 149.564 94.8358 147.47 96.3647 146.065C98.3473 146.186 101.156 146.695 103.582 148.487C103.582 148.487 103.498 147.597 102.02 146.403C102.021 146.403 107.129 146.798 111.574 155.529C111.573 155.529 111.573 155.527 111.574 155.529Z" fill="#D077B7"/>
</g>
<path d="M134.767 158.4C134.767 158.4 137.578 158.855 140.612 158.479C141.57 158.361 142.549 158.16 143.47 157.836C147.304 156.486 148.116 155.626 151.253 155.438C154.388 155.249 159.504 156.278 159.504 156.278C159.504 156.278 158.625 153.96 157.409 152.275C157.013 151.726 156.581 151.244 156.131 150.931L156.462 151.896C156.4 151.753 155.664 150.403 149.901 150.297C143.812 150.184 136.346 152.324 136.346 152.324L135.473 155.934C135.473 155.934 134.907 155.078 134.894 153.773C134.891 153.771 133.568 155.739 134.767 158.4Z" fill="url(#paint22_linear_2643_41531)"/>
<g style="mix-blend-mode:multiply" opacity="0.6">
<path d="M140.61 158.478C141.567 158.36 142.547 158.159 143.468 157.836C147.302 156.485 148.114 155.625 151.251 155.437C154.386 155.249 159.502 156.277 159.502 156.277C159.502 156.277 158.623 153.959 157.407 152.274C155.44 151.993 152.587 151.925 149.851 153.192C149.851 153.192 150.112 152.337 151.799 151.465C151.798 151.465 146.715 150.822 140.61 158.478C140.612 158.478 140.612 158.477 140.61 158.478Z" fill="#D077B7"/>
</g>
<path d="M130.119 195.348C127.966 195.495 127.696 194.552 125.881 194.367C124.068 194.182 123.338 195.33 121.737 195.167C120.135 195.004 119.651 193.733 117.837 193.548C116.024 193.363 115.568 194.235 113.489 193.655C111.619 193.135 111.162 188.908 112.277 186.403C112.281 186.395 112.282 186.389 112.285 186.386C112.408 186.111 112.551 185.856 112.714 185.628C114.351 183.35 120.292 181.388 123.104 181.674C125.916 181.96 131.342 185.08 132.489 187.642C132.666 188.041 132.784 188.499 132.847 188.989C133.193 191.644 131.938 195.225 130.119 195.348Z" fill="url(#paint23_linear_2643_41531)"/>
<g style="mix-blend-mode:multiply" opacity="0.6">
<path d="M130.119 195.348C127.966 195.495 127.696 194.552 125.881 194.367C124.067 194.182 123.338 195.33 121.736 195.167C120.134 195.004 119.651 193.733 117.837 193.548C116.024 193.364 115.568 194.235 113.489 193.655C111.619 193.135 111.162 188.909 112.277 186.404C112.189 186.642 111.41 188.963 112.348 190.966C112.687 191.691 113.513 192.048 114.283 191.834C116.012 191.355 119.575 190.615 123.272 191.319C126.301 191.896 128.363 192.705 129.55 193.277C130.354 193.663 131.32 193.357 131.744 192.572C132.202 191.727 132.685 190.515 132.847 188.989C133.192 191.644 131.938 195.225 130.119 195.348Z" fill="#D077B7"/>
</g>
<path d="M114.265 193.821C113.238 193.605 114.962 191.943 118.681 193.736C118.681 193.736 115.039 193.982 114.265 193.821Z" fill="url(#paint24_linear_2643_41531)"/>
<path d="M129.38 195.358C130.43 195.354 128.943 193.686 125.073 194.385C125.073 194.385 128.59 195.361 129.38 195.358Z" fill="url(#paint25_linear_2643_41531)"/>
<g style="mix-blend-mode:multiply" opacity="0.6">
<path d="M113.118 193.494C112.657 192.532 113.596 192.012 114.284 191.835C114.971 191.658 117.978 190.724 122.148 191.149C126.317 191.573 131.911 193.571 130.514 195.265C129.116 196.958 124.628 197.541 120.773 197.148C115.239 196.585 113.118 193.494 113.118 193.494Z" fill="#D077B7"/>
</g>
<g style="mix-blend-mode:multiply" opacity="0.6">
<path d="M113.156 185.107C114.647 184.666 115.695 186.226 116.405 186.824C117.117 187.422 115.809 184.986 114.117 184.342L113.156 185.107Z" fill="url(#paint26_linear_2643_41531)"/>
</g>
<g style="mix-blend-mode:multiply" opacity="0.6">
<path d="M132.161 187.04C130.788 186.307 129.449 187.624 128.633 188.067C127.816 188.51 129.628 186.391 131.414 186.101L132.161 187.04Z" fill="url(#paint27_linear_2643_41531)"/>
</g>
<path opacity="0.2" d="M124.447 188.625C124.261 188.941 123.843 190.001 124.695 190.21C125.548 190.419 126.458 189.87 126.605 189.624C126.752 189.38 126.674 188.576 126.039 188.39C125.406 188.205 124.77 188.077 124.447 188.625Z" fill="#FFCEBE"/>
<path d="M113.062 179.351C113.062 179.351 101.72 181.814 96.3039 180.38C91.7584 179.176 89.452 172.397 89.7599 169.209C89.8172 168.599 89.9712 168.119 90.2241 167.838C93.0625 164.654 104.955 160.482 109.991 164.875C112.517 167.077 113.281 170.712 113.416 173.788C113.551 176.845 113.062 179.351 113.062 179.351Z" fill="url(#paint28_linear_2643_41531)"/>
<mask id="mask2_2643_41531" style="mask-type:luminance" maskUnits="userSpaceOnUse" x="89" y="162" width="25" height="19">
<path d="M90.2242 167.836C88.6529 169.6 90.8888 178.943 96.3058 180.378C101.723 181.813 113.065 179.351 113.065 179.351C113.065 179.351 115.028 169.269 109.992 164.875C104.957 160.482 93.0626 164.652 90.2242 167.836Z" fill="white"/>
</mask>
<g mask="url(#mask2_2643_41531)">
<path d="M104.858 177.14C109.328 177.595 113.319 174.34 113.771 169.869C114.224 165.397 110.968 161.403 106.498 160.948C102.028 160.492 98.0378 163.747 97.5851 168.219C97.1324 172.69 100.389 176.684 104.858 177.14Z" fill="url(#paint29_linear_2643_41531)"/>
</g>
<mask id="mask3_2643_41531" style="mask-type:luminance" maskUnits="userSpaceOnUse" x="89" y="162" width="25" height="19">
<path d="M90.2242 167.836C88.6529 169.6 90.8888 178.943 96.3058 180.378C101.723 181.813 113.065 179.351 113.065 179.351C113.065 179.351 115.028 169.269 109.992 164.875C104.957 160.482 93.0626 164.652 90.2242 167.836Z" fill="white"/>
</mask>
<g mask="url(#mask3_2643_41531)">
<path opacity="0.8" d="M104.924 176.494C109.037 176.913 112.709 173.918 113.126 169.803C113.542 165.688 110.546 162.012 106.432 161.593C102.319 161.174 98.6468 164.17 98.2302 168.284C97.8136 172.399 100.81 176.075 104.924 176.494Z" fill="url(#paint30_linear_2643_41531)"/>
</g>
<mask id="mask4_2643_41531" style="mask-type:luminance" maskUnits="userSpaceOnUse" x="89" y="162" width="25" height="19">
<path d="M90.2242 167.836C88.6529 169.6 90.8888 178.943 96.3058 180.378C101.723 181.813 113.065 179.351 113.065 179.351C113.065 179.351 115.028 169.269 109.992 164.875C104.957 160.482 93.0626 164.652 90.2242 167.836Z" fill="white"/>
</mask>
<g mask="url(#mask4_2643_41531)">
<path d="M105.216 173.61C107.737 173.867 109.988 172.031 110.243 169.509C110.499 166.987 108.662 164.734 106.141 164.477C103.619 164.22 101.368 166.056 101.113 168.578C100.858 171.1 102.694 173.353 105.216 173.61Z" fill="url(#paint31_linear_2643_41531)"/>
</g>
<g style="mix-blend-mode:multiply" opacity="0.6">
<path d="M113.416 173.784C109.521 170.466 102.031 168.266 89.7631 169.206C89.8204 168.596 89.9744 168.116 90.2272 167.835C93.0654 164.652 104.957 160.481 109.992 164.873C112.517 167.075 113.282 170.709 113.416 173.784Z" fill="#D077B7"/>
</g>
<path d="M101.952 159.36C95.5277 159.612 90.6379 167.425 90.6379 167.425C90.6379 167.425 97.8896 161.666 105.583 164.842C112.166 167.559 113.277 172.096 113.278 172.087C113.277 172.08 114.773 158.857 101.952 159.36Z" fill="#714237"/>
<path d="M90.2845 173.168C92.8874 176.678 95.0928 180.262 101.363 180.822C101.363 180.822 97.8134 181.48 94.2317 179.532C90.6486 177.584 90.2845 173.168 90.2845 173.168Z" fill="#714237"/>
<path d="M113.407 176.102C113.407 176.102 114.845 178.205 113.844 179.405C112.845 180.603 109.25 180.044 109.25 180.044C109.25 180.044 112.085 179.557 112.702 178.773C113.319 177.988 113.407 176.102 113.407 176.102Z" fill="#714237"/>
<path d="M90.2271 167.836C90.2271 167.836 92.4179 162.856 102.909 162.996C111.025 163.106 113.587 168.631 113.927 169.62C114.265 170.609 113.275 172.087 113.275 172.087C113.275 172.087 109.829 165.52 102.307 164.789C94.7864 164.056 90.2271 167.836 90.2271 167.836Z" fill="#301126"/>
<path d="M96.488 169.083C96.488 169.083 97.051 168.594 100.566 170.494C100.684 170.557 100.508 170.745 100.38 170.716C99.4977 170.507 96.4311 169.734 96.488 169.083Z" fill="url(#paint32_linear_2643_41531)"/>
<path d="M102.101 170.437C101.521 170.836 101.928 171.28 102.495 171.404C102.912 171.496 103.045 170.836 102.896 170.648C102.746 170.458 102.468 170.184 102.101 170.437Z" fill="url(#paint33_linear_2643_41531)"/>
<path d="M134.736 181.659C134.736 181.659 145.352 186.359 150.945 186.046C155.639 185.783 159.258 179.606 159.596 176.423C159.662 175.813 159.607 175.312 159.416 174.986C157.274 171.295 146.461 164.81 140.648 168.098C137.731 169.746 136.254 173.152 135.504 176.138C134.761 179.107 134.736 181.659 134.736 181.659Z" fill="url(#paint34_linear_2643_41531)"/>
<mask id="mask5_2643_41531" style="mask-type:luminance" maskUnits="userSpaceOnUse" x="134" y="167" width="26" height="20">
<path d="M159.415 174.987C160.601 177.031 156.539 185.733 150.945 186.045C145.351 186.357 134.734 181.657 134.734 181.657C134.734 181.657 134.831 171.384 140.645 168.097C146.457 164.809 157.271 171.296 159.415 174.987Z" fill="white"/>
</mask>
<g mask="url(#mask5_2643_41531)">
<path d="M147.403 181.574C151.872 182.03 155.863 178.774 156.315 174.303C156.768 169.832 153.512 165.838 149.042 165.382C144.572 164.926 140.582 168.182 140.129 172.653C139.676 177.125 142.933 181.119 147.403 181.574Z" fill="url(#paint35_linear_2643_41531)"/>
</g>
<mask id="mask6_2643_41531" style="mask-type:luminance" maskUnits="userSpaceOnUse" x="134" y="167" width="26" height="20">
<path d="M159.415 174.987C160.601 177.031 156.539 185.733 150.945 186.045C145.351 186.357 134.734 181.657 134.734 181.657C134.734 181.657 134.831 171.384 140.645 168.097C146.457 164.809 157.271 171.296 159.415 174.987Z" fill="white"/>
</mask>
<g mask="url(#mask6_2643_41531)">
<path opacity="0.6" d="M140.747 173.895C140.98 178.026 144.516 181.186 148.643 180.956C152.771 180.726 155.928 177.19 155.696 173.062C155.463 168.932 151.927 165.771 147.8 166.001C143.672 166.231 140.515 169.765 140.747 173.895Z" fill="url(#paint36_linear_2643_41531)"/>
</g>
<mask id="mask7_2643_41531" style="mask-type:luminance" maskUnits="userSpaceOnUse" x="134" y="167" width="26" height="20">
<path d="M159.415 174.987C160.601 177.031 156.539 185.733 150.945 186.045C145.351 186.357 134.734 181.657 134.734 181.657C134.734 181.657 134.831 171.384 140.645 168.097C146.457 164.809 157.271 171.296 159.415 174.987Z" fill="white"/>
</mask>
<g mask="url(#mask7_2643_41531)">
<path d="M143.641 173.734C143.784 176.266 145.95 178.202 148.481 178.061C151.011 177.92 152.946 175.754 152.803 173.222C152.66 170.69 150.494 168.754 147.963 168.895C145.433 169.036 143.498 171.202 143.641 173.734Z" fill="url(#paint37_linear_2643_41531)"/>
</g>
<g style="mix-blend-mode:multiply" opacity="0.6">
<path d="M135.507 176.136C139.989 173.671 147.767 173.026 159.595 176.421C159.662 175.812 159.607 175.311 159.416 174.984C157.274 171.294 146.462 164.81 140.649 168.098C137.732 169.745 136.255 173.151 135.507 176.136Z" fill="#D077B7"/>
</g>
<path d="M149.632 164.316C155.874 165.859 159.097 174.499 159.097 174.499C159.097 174.499 153.149 167.395 144.975 168.954C137.982 170.289 135.984 174.509 135.985 174.5C135.987 174.493 137.174 161.238 149.632 164.316Z" fill="#714237"/>
<path d="M158.287 180.195C155.033 183.108 152.154 186.174 145.9 185.459C145.9 185.459 149.244 186.819 153.144 185.633C157.044 184.447 158.287 180.195 158.287 180.195Z" fill="#714237"/>
<path d="M135.047 178.411C135.047 178.411 133.218 180.182 133.957 181.559C134.696 182.934 138.329 183.11 138.329 183.11C138.329 183.11 135.65 182.061 135.203 181.169C134.754 180.275 135.047 178.411 135.047 178.411Z" fill="#714237"/>
<path d="M159.416 174.983C159.416 174.983 158.269 169.663 147.964 167.687C139.992 166.159 136.373 171.054 135.842 171.954C135.313 172.855 135.986 174.502 135.986 174.502C135.986 174.502 140.679 168.765 148.193 169.565C155.708 170.363 159.416 174.983 159.416 174.983Z" fill="#301126"/>
<path d="M157.218 175.367C157.218 175.367 156.764 174.774 152.94 175.927C152.812 175.965 152.946 176.185 153.078 176.182C153.984 176.157 157.143 176.017 157.218 175.367Z" fill="url(#paint38_linear_2643_41531)"/>
<path d="M151.445 175.564C151.933 176.072 151.445 176.425 150.865 176.432C150.438 176.438 150.44 175.765 150.624 175.61C150.81 175.454 151.137 175.242 151.445 175.564Z" fill="url(#paint39_linear_2643_41531)"/>
<g style="mix-blend-mode:multiply" opacity="0.6">
<path d="M111.459 209.888C111.459 209.888 115.53 215.116 120.996 215.661C126.755 216.235 130.543 211.641 130.543 211.641C130.543 211.641 124.429 215.351 111.459 209.888Z" fill="#D077B7"/>
</g>
<g style="mix-blend-mode:multiply">
<path d="M139.22 204.303L140.02 203.556C140.02 203.556 139.788 203.179 139.459 203.134L139.177 203.891C138.337 204.189 137.182 204.493 136.317 204.319C133.883 203.517 128.72 202.031 122.218 201.383C115.884 200.751 110.637 201.151 108.02 201.453C107.097 201.583 105.877 200.992 105.033 200.486L105.078 199.674C105.078 199.674 104.393 199.69 104.356 200.065L104.91 200.881C109.035 208.726 116.471 212.721 121.338 213.207C126.719 213.743 132.103 212.037 139.22 204.303Z" fill="#834E27"/>
</g>
<path d="M110.538 208.172C110.538 208.172 120.922 203.52 129.483 211.381C129.483 211.381 124.9 213.732 119.389 212.55C113.878 211.365 111.992 210.674 110.538 208.172Z" fill="#DD4C6B"/>
<path d="M111.892 201.264C111.892 201.264 116.414 205.248 122.316 205.369C127.348 205.473 132.166 203.122 132.166 203.122C132.166 203.122 122.706 199.968 111.892 201.264Z" fill="#FFDFED"/>
<path d="M122.361 199.972C115.778 199.316 107.978 201.443 107.978 201.443C117.989 201.052 122.175 201.838 122.175 201.838C122.175 201.838 126.434 201.893 136.172 204.253C136.172 204.255 128.944 200.628 122.361 199.972Z" fill="#8A4838"/>
<path d="M113.794 210.442C113.794 210.442 118.145 210.454 121.649 210.755C125.152 211.057 128.352 211.853 128.352 211.853C128.352 211.853 124.834 213.175 121.085 212.81C116.304 212.347 113.794 210.442 113.794 210.442Z" fill="#FFDFED"/>
<path d="M121.125 212.404C114.163 211.71 109.531 207.126 109.531 207.126C112.296 212.957 120.962 214.045 120.962 214.045C120.962 214.045 129.527 214.815 133.53 209.519C133.53 209.519 128.088 213.098 121.125 212.404Z" fill="#8F5038"/>
<path d="M92.1071 112.285C92.1071 112.285 76.0819 97.1772 72.5795 114.571C71.46 120.134 73.4392 133.632 88.0715 147.773L87.9241 139.408C87.9241 139.408 68.6474 124.811 74.4815 113.693C78.1635 106.679 89.1981 113.515 89.1981 113.515L92.1071 112.285Z" fill="url(#paint40_linear_2643_41531)"/>
<path d="M173.669 141.854C172.452 143.511 171.508 143.196 171.508 143.196L163.545 175.403C163.545 175.403 164.316 155.89 162.104 144.087C162.104 144.087 158.2 131.374 149.263 127.347C149.263 127.347 132.774 127.596 108.273 123.467C108.273 123.467 99.2517 126.11 94.4105 134.376C94.4105 134.376 87.2518 156.89 84.1523 170.12C84.1523 170.12 82.7311 162.543 84.1458 148.586C84.1458 148.586 77.0885 143.987 74.578 139.389C74.4995 139.243 74.4298 139.099 74.3687 138.958C72.4344 134.513 73.363 126.941 79.5309 118.761C82.8446 114.367 89.3345 109.517 89.3345 109.517C89.3345 109.517 88.3111 105.517 90.0613 102.48C90.4412 101.806 90.9671 101.179 91.6662 100.653C95.5281 97.7561 111.86 90.2908 118.157 91.8223C118.157 91.8223 118.928 89.9996 120.571 88.8532C120.954 88.5848 121.382 88.3527 121.862 88.1922C124.396 87.3368 136.556 85.9038 141.022 90.143L143.479 94.3915C143.483 94.3964 143.483 94.4009 143.483 94.4009C143.483 94.4009 144.581 94.0547 146.06 93.9642C147.301 93.8857 148.806 93.9908 150.156 94.6344C153.105 96.048 160.26 102.284 161.186 108.527C161.186 108.527 168.511 111.641 168.92 122.222C168.92 122.222 171.063 123.033 172.777 125.136C174.492 127.245 174.891 140.198 173.669 141.854Z" fill="url(#paint41_linear_2643_41531)"/>
<g style="mix-blend-mode:multiply" opacity="0.6">
<path d="M173.668 141.854C172.45 143.511 171.507 143.196 171.507 143.196L163.543 175.402C163.543 175.402 164.315 155.89 162.103 144.087C162.103 144.087 158.199 131.374 149.262 127.347C149.253 127.346 149.248 127.35 149.239 127.349C148.535 127.357 132.234 127.505 108.27 123.467C108.27 123.467 99.249 126.11 94.4078 134.376C94.4078 134.376 87.2492 156.89 84.1497 170.119C84.1497 170.119 82.7285 162.543 84.1432 148.586C84.1432 148.586 77.0859 143.986 74.5753 139.389C74.4616 138.669 74.4264 138.14 74.4796 137.838C75.2007 133.753 75.5498 131.216 82.9335 126.133C86.975 123.35 103.245 121.473 103.245 121.473C95.8043 119.157 88.9145 113.633 88.9145 113.633C101.168 117.811 105.325 120.532 109.72 121.242C114.681 122.041 122.338 122.228 123.089 121.266C125.232 118.506 115.39 104.453 107.906 103.664C100.422 102.875 89.3318 109.516 89.3318 109.516C89.3318 109.516 88.3084 105.516 90.0586 102.48C93.4925 99.1562 105.157 98.6641 113.248 102.156C121.349 105.652 124.295 119.017 125.159 120.735C126.026 122.457 132.908 123.304 134.013 122.679C135.115 122.047 135.02 117.139 132.315 107.216C129.614 97.296 118.154 91.8235 118.154 91.8235C118.154 91.8235 118.926 90.0008 120.568 88.8544C125.043 88.9138 129.21 92.5032 133.515 101.255C137.817 110.001 137.538 123.037 137.538 123.037C140.031 123.291 143.33 118.577 143.33 118.577C148.351 107.066 143.48 94.4021 143.48 94.4021C143.48 94.4021 144.578 94.0559 146.057 93.9654C150.435 104.247 145.547 117.174 146.264 118.876C146.981 120.584 153.021 126.839 154.874 126.137C156.724 125.435 161.526 116.129 161.184 108.528C161.184 108.528 165.045 110.169 167.316 115.118C168.176 116.982 168.808 119.323 168.918 122.224C168.918 122.224 171.062 123.034 172.776 125.137C173.769 126.356 174.318 131.203 174.371 135.393C174.409 138.448 174.184 141.155 173.668 141.854Z" fill="url(#paint42_linear_2643_41531)"/>
</g>
<g style="mix-blend-mode:multiply">
<path d="M95.2804 124.378C95.2804 124.378 82.0043 125.971 76.5762 136.221C75.4943 138.263 80.2908 145.593 80.2908 145.593L84.1485 148.594C84.1485 148.594 88.7937 132.773 95.2804 124.378Z" fill="url(#paint43_linear_2643_41531)"/>
</g>
<g style="mix-blend-mode:multiply">
<path d="M173.664 141.85C172.447 143.507 171.503 143.192 171.503 143.192L163.538 175.402C163.538 175.402 164.31 155.888 162.097 144.083C162.097 144.083 158.192 131.369 149.253 127.341C161.665 134.145 162.495 129.874 162.495 129.874C166.909 124.093 167.308 115.111 167.308 115.111C168.168 116.975 168.8 119.316 168.911 122.217C168.911 122.217 171.054 123.028 172.769 125.131C172.769 125.131 164.216 139.253 165.713 140.296C167.209 141.339 169.944 141.319 174.315 135.431C174.315 135.431 174.33 135.415 174.364 135.387C174.405 138.443 174.181 141.151 173.664 141.85Z" fill="url(#paint44_linear_2643_41531)"/>
</g>
<path opacity="0.2" d="M130.104 95.3306C130.104 95.3306 135.737 99.5856 144.591 98.2365C144.591 98.2365 145.478 101.942 145.539 104.789C145.539 104.789 144.741 102.314 140.723 100.792C136.706 99.27 136.046 102.699 134.462 103.405C134.46 103.405 132.129 97.8881 130.104 95.3306Z" fill="white"/>
<path opacity="0.2" d="M147.417 98.5332C147.417 98.5332 150.868 102.722 155.954 105.236C160.427 107.446 160.93 112.635 160.93 112.635L160.592 114.426C160.592 114.426 158.597 108.789 156.871 107.166C155.144 105.542 149.517 106.296 147.859 105.853C147.86 105.854 148.034 101.062 147.417 98.5332Z" fill="white"/>
<path opacity="0.2" d="M125.37 96.7695C125.37 96.7695 124.471 98.7039 118.469 99.7542C113.215 100.673 106.694 100.262 106.694 100.262C106.694 100.262 111.995 100.645 116.413 104.187C116.413 104.187 116.891 102.162 120.89 101.114C124.89 100.066 126.121 103.318 130.712 103.284C130.712 103.283 128.352 99.1427 125.37 96.7695Z" fill="white"/>
<path opacity="0.2" d="M104.948 103.692C104.948 103.692 100.008 106.282 97.3671 109.298C94.7248 112.313 93.8065 115.373 93.8065 115.373L102.562 118.858C102.562 118.858 100.461 113.341 103.562 109.094C106.662 104.846 114.038 106.587 114.038 106.587C114.038 106.587 110.034 102.954 104.948 103.692Z" fill="white"/>
</g>
<mask id="mask8_2643_41531" style="mask-type:luminance" maskUnits="userSpaceOnUse" x="51" y="82" width="145" height="145">
<path d="M195.314 164.274C194.609 171.384 192.988 178.426 190.445 185.214C189.377 188.064 188.148 190.871 186.756 193.618C175.406 208.118 160.228 218.506 143.601 223.499C135.057 226.063 126.131 227.205 117.141 226.745C91.4033 225.433 69.8897 211.192 58.1161 187.677C49.9973 171.46 49.2872 152.393 56.119 133.988C63.7053 113.547 79.802 96.5193 99.1775 88.4395C128.309 76.2923 154.419 81.3896 176.949 103.574C191.283 121.007 197.431 142.928 195.314 164.274Z" fill="white"/>
</mask>
<g mask="url(#mask8_2643_41531)">
<path opacity="0.1" d="M195.314 164.274C194.609 171.384 192.988 178.426 190.445 185.214C189.377 188.064 188.148 190.871 186.756 193.618C175.406 208.118 160.228 218.506 143.601 223.499C135.057 226.063 126.131 227.205 117.141 226.745C91.4033 225.433 69.8897 211.192 58.1161 187.677C49.9973 171.46 49.2872 152.393 56.119 133.988C63.7053 113.547 79.802 96.5193 99.1775 88.4395C128.309 76.2923 154.419 81.3896 176.949 103.574C191.283 121.007 197.431 142.928 195.314 164.274Z" fill="#371A45"/>
</g>
<mask id="mask9_2643_41531" style="mask-type:luminance" maskUnits="userSpaceOnUse" x="51" y="82" width="145" height="145">
<path d="M195.314 164.274C194.609 171.384 192.988 178.426 190.445 185.214C189.377 188.064 188.148 190.871 186.756 193.618C175.406 208.118 160.228 218.506 143.601 223.499C135.057 226.063 126.131 227.205 117.141 226.745C91.4033 225.433 69.8897 211.192 58.1161 187.677C49.9973 171.46 49.2872 152.393 56.119 133.988C63.7053 113.547 79.802 96.5193 99.1775 88.4395C128.309 76.2923 154.419 81.3896 176.949 103.574C191.283 121.007 197.431 142.928 195.314 164.274Z" fill="white"/>
</mask>
<g mask="url(#mask9_2643_41531)">
<g opacity="0.1">
<path d="M59.7634 186.853C86.2971 239.862 158.153 236.046 190.443 185.217L190.993 183.447C144.429 213.563 81.5537 205.036 53.7121 151.938C52.4251 163.694 54.1951 175.723 59.7634 186.853Z" fill="#220F30"/>
</g>
</g>
<mask id="mask10_2643_41531" style="mask-type:luminance" maskUnits="userSpaceOnUse" x="51" y="82" width="145" height="145">
<path d="M195.314 164.274C194.609 171.384 192.988 178.426 190.445 185.214C189.377 188.064 188.148 190.871 186.756 193.618C175.406 208.118 160.228 218.506 143.601 223.499C135.057 226.063 126.131 227.205 117.141 226.745C91.4033 225.433 69.8897 211.192 58.1161 187.677C49.9973 171.46 49.2872 152.393 56.119 133.988C63.7053 113.547 79.802 96.5193 99.1775 88.4395C128.309 76.2923 154.419 81.3896 176.949 103.574C191.283 121.007 197.431 142.928 195.314 164.274Z" fill="white"/>
</mask>
<g mask="url(#mask10_2643_41531)">
<g opacity="0.5">
<path d="M63.74 159.562C62.9561 152.405 67.3651 146.048 73.5877 145.365C79.8103 144.682 85.4901 149.93 86.274 157.088C87.0579 164.246 82.6489 170.602 76.4263 171.285C70.2037 171.969 64.5239 166.72 63.74 159.562Z" fill="white"/>
</g>
</g>
<mask id="mask11_2643_41531" style="mask-type:luminance" maskUnits="userSpaceOnUse" x="51" y="82" width="145" height="145">
<path d="M195.314 164.274C194.609 171.384 192.988 178.426 190.445 185.214C189.377 188.064 188.148 190.871 186.756 193.618C175.406 208.118 160.228 218.506 143.601 223.499C135.057 226.063 126.131 227.205 117.141 226.745C91.4033 225.433 69.8897 211.192 58.1161 187.677C49.9973 171.46 49.2872 152.393 56.119 133.988C63.7053 113.547 79.802 96.5193 99.1775 88.4395C128.309 76.2923 154.419 81.3896 176.949 103.574C191.283 121.007 197.431 142.928 195.314 164.274Z" fill="white"/>
</mask>
<g mask="url(#mask11_2643_41531)">
<g opacity="0.5">
<path d="M73.0896 181.908C73.0414 178.934 75.0967 176.49 77.6801 176.448C80.2635 176.406 82.3967 178.783 82.4449 181.756C82.493 184.73 80.4377 187.175 77.8543 187.217C75.2709 187.258 73.1377 184.882 73.0896 181.908Z" fill="white"/>
</g>
</g>
<mask id="mask12_2643_41531" style="mask-type:luminance" maskUnits="userSpaceOnUse" x="51" y="82" width="145" height="145">
<path d="M195.314 164.274C194.609 171.384 192.988 178.426 190.445 185.214C189.377 188.064 188.148 190.871 186.756 193.618C175.406 208.118 160.228 218.506 143.601 223.499C135.057 226.063 126.131 227.205 117.141 226.745C91.4033 225.433 69.8897 211.192 58.1161 187.677C49.9973 171.46 49.2872 152.393 56.119 133.988C63.7053 113.547 79.802 96.5193 99.1775 88.4395C128.309 76.2923 154.419 81.3896 176.949 103.574C191.283 121.007 197.431 142.928 195.314 164.274Z" fill="white"/>
</mask>
<g mask="url(#mask12_2643_41531)">
<g opacity="0.5">
<path d="M116.042 94.7733C150.853 86.9105 181.366 114.676 186.798 150.425C168.563 120.126 143.528 101.261 116.042 94.7733Z" fill="white"/>
</g>
</g>
<path d="M26.3639 197.283C31.9009 212.836 45.8543 222.592 57.5366 219.068C69.2188 215.544 74.1971 200.075 68.6601 184.522C68.6262 184.422 68.587 184.32 68.5505 184.224C62.9456 168.843 49.0862 159.237 37.4901 162.737C28.468 165.458 23.4427 175.31 24.1737 186.819C24.3904 190.207 25.1056 193.746 26.3639 197.283Z" fill="url(#paint45_linear_2643_41531)"/>
<path d="M124.262 324.22L127.006 324.67L131.95 300.595L145.048 295.874L149.828 271.802L147.086 271.353L142.578 293.977L129.431 298.854L124.262 324.22Z" fill="#0876E4"/>
<path fill-rule="evenodd" clip-rule="evenodd" d="M103.339 279.809L112.204 276.714C113.316 276.324 114.551 276.573 115.428 277.359L122.427 283.625C123.281 284.388 123.667 285.546 123.443 286.67L121.537 296.232C121.312 297.356 120.514 298.277 119.43 298.653L110.565 301.748C109.453 302.137 108.218 301.889 107.341 301.102L100.342 294.837C99.4881 294.073 99.1018 292.915 99.3263 291.791L101.232 282.229C101.456 281.108 102.258 280.185 103.339 279.809ZM111.491 274.675C113.345 274.027 115.402 274.44 116.867 275.749L123.865 282.015C125.288 283.288 125.93 285.22 125.557 287.091L123.651 296.653C123.278 298.525 121.944 300.059 120.143 300.689L111.277 303.784C109.424 304.432 107.367 304.019 105.902 302.71L98.9034 296.444C97.4806 295.171 96.8384 293.239 97.2117 291.368L99.1174 281.806C99.4907 279.934 100.825 278.4 102.626 277.77L111.491 274.675Z" fill="#0876E4"/>
<path fill-rule="evenodd" clip-rule="evenodd" d="M112.611 282.013C115.044 282.499 116.624 284.867 116.141 287.301C116.057 287.722 115.65 287.994 115.23 287.91C114.809 287.826 114.538 287.418 114.622 286.998C114.94 285.403 113.904 283.85 112.311 283.531C110.716 283.213 109.165 284.248 108.847 285.842L108.575 287.209L115.415 288.576C116.17 288.728 116.66 289.463 116.509 290.218L115.721 294.17C115.47 295.43 114.246 296.246 112.987 295.995L106.91 294.779C105.652 294.528 104.835 293.303 105.085 292.045L105.874 288.093C105.991 287.497 106.474 287.066 107.043 286.985L107.33 285.539C107.811 283.105 110.178 281.527 112.611 282.013ZM107.508 288.579C107.51 288.579 107.51 288.579 107.508 288.579C107.51 288.582 107.51 288.582 107.508 288.579L114.956 290.066L114.199 293.867C114.115 294.288 113.708 294.56 113.288 294.476L107.21 293.261C106.79 293.177 106.518 292.769 106.602 292.348L107.359 288.548L107.508 288.579ZM110.823 290.981C111.16 291.049 111.377 291.376 111.309 291.711C111.241 292.045 110.915 292.265 110.58 292.197C110.244 292.129 110.027 291.802 110.095 291.468C110.163 291.133 110.489 290.913 110.823 290.981ZM111.917 291.833C112.05 291.162 111.614 290.508 110.943 290.375C110.272 290.242 109.62 290.675 109.484 291.347C109.351 292.019 109.787 292.673 110.458 292.806C111.131 292.939 111.784 292.503 111.917 291.833Z" fill="#0876E4"/>
<path d="M214.742 195.063C214.742 195.063 219.031 195.785 223.813 194.807C228.917 193.767 232.673 189.19 235.114 183.685C238.064 177.022 239.09 169.005 238.239 164.226C236.359 153.676 230.076 153.676 230.076 153.676C226.75 165.701 216.282 158.504 216.282 158.504C216.282 158.504 207.346 158.828 204.568 175.508C201.788 192.191 214.742 195.063 214.742 195.063Z" fill="url(#paint46_linear_2643_41531)"/>
<path d="M74.0143 357.394C78.0241 363.686 83.9449 368.033 90.2311 371.031L112.781 351.418C112.781 351.418 96.4703 349.228 84.7907 346.005C84.7359 346.091 84.6811 346.177 84.6262 346.264C81.8251 350.647 79.4782 351.975 76.4134 354.898C75.8731 355.41 75.3118 355.972 74.7192 356.612C74.4895 356.861 74.2545 357.122 74.0143 357.394Z" fill="url(#paint47_linear_2643_41531)"/>
<defs>
<linearGradient id="paint0_linear_2643_41531" x1="82.9349" y1="270.672" x2="10.2923" y2="270.672" gradientUnits="userSpaceOnUse">
<stop stop-color="#84BCFD"/>
<stop offset="1" stop-color="#D0E5FD"/>
</linearGradient>
<linearGradient id="paint1_linear_2643_41531" x1="108.186" y1="387.949" x2="58.8716" y2="387.949" gradientUnits="userSpaceOnUse">
<stop stop-color="#B4D6FE"/>
<stop offset="1" stop-color="#D0E5FD"/>
</linearGradient>
<linearGradient id="paint2_linear_2643_41531" x1="53.5936" y1="371.389" x2="-0.000982545" y2="371.389" gradientUnits="userSpaceOnUse">
<stop stop-color="#B4D6FE"/>
<stop offset="1" stop-color="#D0E5FD"/>
</linearGradient>
<linearGradient id="paint3_linear_2643_41531" x1="228.575" y1="158.482" x2="207.962" y2="178.769" gradientUnits="userSpaceOnUse">
<stop stop-color="#B4D6FE"/>
<stop offset="1" stop-color="#D0E5FD"/>
</linearGradient>
<linearGradient id="paint4_linear_2643_41531" x1="108.57" y1="276.782" x2="82.249" y2="319.103" gradientUnits="userSpaceOnUse">
<stop stop-color="#B4D6FE"/>
<stop offset="1" stop-color="#D0E5FD"/>
</linearGradient>
<linearGradient id="paint5_linear_2643_41531" x1="166.912" y1="302.572" x2="146.693" y2="302.572" gradientUnits="userSpaceOnUse">
<stop stop-color="#9AC9FD"/>
<stop offset="1" stop-color="#D0E5FD"/>
</linearGradient>
<linearGradient id="paint6_linear_2643_41531" x1="162.303" y1="295.023" x2="75.2083" y2="295.023" gradientUnits="userSpaceOnUse">
<stop stop-color="#84BCFD"/>
<stop offset="1" stop-color="#D0E5FD"/>
</linearGradient>
<linearGradient id="paint7_linear_2643_41531" x1="145.188" y1="295.022" x2="75.2128" y2="295.022" gradientUnits="userSpaceOnUse">
<stop stop-color="#84BCFD"/>
<stop offset="1" stop-color="#D0E5FD"/>
</linearGradient>
<linearGradient id="paint8_linear_2643_41531" x1="90.0675" y1="282.579" x2="37.7877" y2="282.579" gradientUnits="userSpaceOnUse">
<stop stop-color="#9AC9FD"/>
<stop offset="1" stop-color="#D0E5FD"/>
</linearGradient>
<linearGradient id="paint9_linear_2643_41531" x1="63.0606" y1="304.46" x2="19.2866" y2="304.46" gradientUnits="userSpaceOnUse">
<stop stop-color="#84BCFD"/>
<stop offset="1" stop-color="#B4D6FE"/>
</linearGradient>
<linearGradient id="paint10_linear_2643_41531" x1="34.8031" y1="261.265" x2="64.844" y2="250.705" gradientUnits="userSpaceOnUse">
<stop stop-color="#84BCFD"/>
<stop offset="1" stop-color="#B4D6FE"/>
</linearGradient>
<linearGradient id="paint11_linear_2643_41531" x1="29.8354" y1="180.993" x2="192.365" y2="132.327" gradientUnits="userSpaceOnUse">
<stop stop-color="#9AC9FD"/>
<stop offset="1" stop-color="#D0E5FD"/>
</linearGradient>
<linearGradient id="paint12_linear_2643_41531" x1="73.6975" y1="187.739" x2="76.6573" y2="158.683" gradientUnits="userSpaceOnUse">
<stop stop-color="#946A51"/>
<stop offset="0.0128" stop-color="#946950"/>
<stop offset="0.3419" stop-color="#94583C"/>
<stop offset="0.6714" stop-color="#944D30"/>
<stop offset="1" stop-color="#944A2C"/>
</linearGradient>
<linearGradient id="paint13_linear_2643_41531" x1="74.6042" y1="182.145" x2="76.5502" y2="163.042" gradientUnits="userSpaceOnUse">
<stop stop-color="#FFE9DA"/>
<stop offset="0.9944" stop-color="#D077F3"/>
</linearGradient>
<linearGradient id="paint14_linear_2643_41531" x1="80.6851" y1="181.671" x2="81.5213" y2="173.461" gradientUnits="userSpaceOnUse">
<stop stop-color="#FFE9DA"/>
<stop offset="0.9944" stop-color="#D077F3"/>
</linearGradient>
<linearGradient id="paint15_linear_2643_41531" x1="170.33" y1="197.565" x2="173.29" y2="168.509" gradientUnits="userSpaceOnUse">
<stop stop-color="#946A51"/>
<stop offset="0.0128" stop-color="#946950"/>
<stop offset="0.3419" stop-color="#94583C"/>
<stop offset="0.6714" stop-color="#944D30"/>
<stop offset="1" stop-color="#944A2C"/>
</linearGradient>
<linearGradient id="paint16_linear_2643_41531" x1="170.564" y1="191.903" x2="172.51" y2="172.8" gradientUnits="userSpaceOnUse">
<stop stop-color="#FFE9DA"/>
<stop offset="0.9944" stop-color="#D077F3"/>
</linearGradient>
<linearGradient id="paint17_linear_2643_41531" x1="164.701" y1="190.214" x2="165.537" y2="182.004" gradientUnits="userSpaceOnUse">
<stop stop-color="#FFE9DA"/>
<stop offset="0.9944" stop-color="#D077F3"/>
</linearGradient>
<linearGradient id="paint18_linear_2643_41531" x1="116.925" y1="243.309" x2="119.803" y2="215.043" gradientUnits="userSpaceOnUse">
<stop stop-color="#94765A"/>
<stop offset="0.257" stop-color="#946951"/>
<stop offset="0.6287" stop-color="#945D48"/>
<stop offset="1" stop-color="#945945"/>
</linearGradient>
<linearGradient id="paint19_linear_2643_41531" x1="119.1" y1="220.745" x2="129.772" y2="115.973" gradientUnits="userSpaceOnUse">
<stop stop-color="#946A3D"/>
<stop offset="0.4274" stop-color="#8D6546"/>
<stop offset="0.4875" stop-color="#8E6242"/>
<stop offset="0.7439" stop-color="#935936"/>
<stop offset="1" stop-color="#945632"/>
</linearGradient>
<linearGradient id="paint20_linear_2643_41531" x1="119.094" y1="220.746" x2="122.737" y2="184.977" gradientUnits="userSpaceOnUse">
<stop offset="0.005587" stop-color="#D077F3"/>
<stop offset="0.1573" stop-color="#D480F1"/>
<stop offset="0.4008" stop-color="#DD97EC"/>
<stop offset="0.7036" stop-color="#EDBDE4"/>
<stop offset="1" stop-color="#FFE9DA"/>
</linearGradient>
<linearGradient id="paint21_linear_2643_41531" x1="106.779" y1="143.32" x2="105.468" y2="156.196" gradientUnits="userSpaceOnUse">
<stop stop-color="#3D253F"/>
<stop offset="1" stop-color="#41112F"/>
</linearGradient>
<linearGradient id="paint22_linear_2643_41531" x1="147.754" y1="147.487" x2="146.443" y2="160.363" gradientUnits="userSpaceOnUse">
<stop stop-color="#3D253F"/>
<stop offset="1" stop-color="#41112F"/>
</linearGradient>
<linearGradient id="paint23_linear_2643_41531" x1="121.775" y1="194.805" x2="123.056" y2="182.217" gradientUnits="userSpaceOnUse">
<stop stop-color="#8D5541"/>
<stop offset="0.4655" stop-color="#925F3D"/>
<stop offset="1" stop-color="#94633B"/>
</linearGradient>
<linearGradient id="paint24_linear_2643_41531" x1="114.002" y1="193.265" x2="118.68" y2="193.739" gradientUnits="userSpaceOnUse">
<stop stop-color="#77254B"/>
<stop offset="1" stop-color="#8D2542"/>
</linearGradient>
<linearGradient id="paint25_linear_2643_41531" x1="129.733" y1="194.934" x2="125.065" y2="194.461" gradientUnits="userSpaceOnUse">
<stop stop-color="#77254B"/>
<stop offset="1" stop-color="#8D2542"/>
</linearGradient>
<linearGradient id="paint26_linear_2643_41531" x1="114.84" y1="186.384" x2="115.1" y2="183.832" gradientUnits="userSpaceOnUse">
<stop stop-color="#FFE9DA"/>
<stop offset="0.9944" stop-color="#D077F3"/>
</linearGradient>
<linearGradient id="paint27_linear_2643_41531" x1="130.257" y1="187.952" x2="130.516" y2="185.399" gradientUnits="userSpaceOnUse">
<stop stop-color="#FFE9DA"/>
<stop offset="0.9944" stop-color="#D077F3"/>
</linearGradient>
<linearGradient id="paint28_linear_2643_41531" x1="99.545" y1="181.237" x2="104.458" y2="162.68" gradientUnits="userSpaceOnUse">
<stop stop-color="#EDE1FF"/>
<stop offset="0.996" stop-color="#BCC8FA"/>
</linearGradient>
<linearGradient id="paint29_linear_2643_41531" x1="97.8131" y1="166.96" x2="113.546" y2="171.114" gradientUnits="userSpaceOnUse">
<stop stop-color="#566496"/>
<stop offset="1" stop-color="#341752"/>
</linearGradient>
<linearGradient id="paint30_linear_2643_41531" x1="105.484" y1="165.582" x2="104.644" y2="150.531" gradientUnits="userSpaceOnUse">
<stop stop-color="#149DEA"/>
<stop offset="1" stop-color="#083A75"/>
</linearGradient>
<linearGradient id="paint31_linear_2643_41531" x1="104.844" y1="172.202" x2="106.663" y2="165.332" gradientUnits="userSpaceOnUse">
<stop stop-color="#334A79"/>
<stop offset="1" stop-color="#070459"/>
</linearGradient>
<linearGradient id="paint32_linear_2643_41531" x1="97.9972" y1="170.498" x2="99.0499" y2="169.231" gradientUnits="userSpaceOnUse">
<stop stop-color="#EDE1FF"/>
<stop offset="0.996" stop-color="#BCC8FA"/>
</linearGradient>
<linearGradient id="paint33_linear_2643_41531" x1="102.267" y1="171.345" x2="102.529" y2="170.356" gradientUnits="userSpaceOnUse">
<stop stop-color="#EDE1FF"/>
<stop offset="0.996" stop-color="#BCC8FA"/>
</linearGradient>
<linearGradient id="paint34_linear_2643_41531" x1="147.6" y1="186.233" x2="146.529" y2="167.063" gradientUnits="userSpaceOnUse">
<stop stop-color="#EDE1FF"/>
<stop offset="0.996" stop-color="#BCC8FA"/>
</linearGradient>
<linearGradient id="paint35_linear_2643_41531" x1="156.344" y1="173.026" x2="140.101" y2="173.941" gradientUnits="userSpaceOnUse">
<stop stop-color="#566496"/>
<stop offset="1" stop-color="#341752"/>
</linearGradient>
<linearGradient id="paint36_linear_2643_41531" x1="148.027" y1="170.017" x2="147.188" y2="154.963" gradientUnits="userSpaceOnUse">
<stop stop-color="#149DEA"/>
<stop offset="1" stop-color="#083A75"/>
</linearGradient>
<linearGradient id="paint37_linear_2643_41531" x1="148.406" y1="176.742" x2="148.01" y2="169.645" gradientUnits="userSpaceOnUse">
<stop stop-color="#334A79"/>
<stop offset="1" stop-color="#070459"/>
</linearGradient>
<linearGradient id="paint38_linear_2643_41531" x1="155.455" y1="176.45" x2="154.679" y2="174.996" gradientUnits="userSpaceOnUse">
<stop stop-color="#EDE1FF"/>
<stop offset="0.996" stop-color="#BCC8FA"/>
</linearGradient>
<linearGradient id="paint39_linear_2643_41531" x1="151.102" y1="176.42" x2="151.045" y2="175.398" gradientUnits="userSpaceOnUse">
<stop stop-color="#EDE1FF"/>
<stop offset="0.996" stop-color="#BCC8FA"/>
</linearGradient>
<linearGradient id="paint40_linear_2643_41531" x1="71.3975" y1="125.676" x2="90.5527" y2="127.618" gradientUnits="userSpaceOnUse">
<stop stop-color="#3D253F"/>
<stop offset="1" stop-color="#41112F"/>
</linearGradient>
<linearGradient id="paint41_linear_2643_41531" x1="121.157" y1="162.963" x2="126.707" y2="108.449" gradientUnits="userSpaceOnUse">
<stop stop-color="#3D253F"/>
<stop offset="1" stop-color="#41112F"/>
</linearGradient>
<linearGradient id="paint42_linear_2643_41531" x1="121.99" y1="161.971" x2="128.105" y2="101.915" gradientUnits="userSpaceOnUse">
<stop stop-color="#FFE9DA"/>
<stop offset="0.9944" stop-color="#8880EA"/>
</linearGradient>
<linearGradient id="paint43_linear_2643_41531" x1="84.3878" y1="145.039" x2="86.2112" y2="127.131" gradientUnits="userSpaceOnUse">
<stop stop-color="#FFE9DA"/>
<stop offset="0.9944" stop-color="#D077F3"/>
</linearGradient>
<linearGradient id="paint44_linear_2643_41531" x1="158.405" y1="166.313" x2="162.769" y2="123.449" gradientUnits="userSpaceOnUse">
<stop stop-color="#FFE9DA"/>
<stop offset="0.9944" stop-color="#D077F3"/>
</linearGradient>
<linearGradient id="paint45_linear_2643_41531" x1="26.4213" y1="197.328" x2="68.8462" y2="184.624" gradientUnits="userSpaceOnUse">
<stop stop-color="#9AC9FD"/>
<stop offset="1" stop-color="#D0E5FD"/>
</linearGradient>
<linearGradient id="paint46_linear_2643_41531" x1="216.765" y1="194.248" x2="222.298" y2="170.352" gradientUnits="userSpaceOnUse">
<stop stop-color="#84BCFD"/>
<stop offset="1" stop-color="#B4D6FE"/>
</linearGradient>
<linearGradient id="paint47_linear_2643_41531" x1="81.0072" y1="351.678" x2="93.9652" y2="357.697" gradientUnits="userSpaceOnUse">
<stop stop-color="#B4D6FE"/>
<stop offset="1" stop-color="#D0E5FD"/>
</linearGradient>
</defs>
</svg>
