<svg width="346" height="391" viewBox="0 0 346 391" fill="none" xmlns="http://www.w3.org/2000/svg">
<path d="M84.603 198.215C84.603 198.215 46.6969 183.064 36.4574 196.315C24.8917 211.282 6.18898 260.786 11.3953 279.586C14.7641 291.748 37.0193 298.196 37.0193 298.196L84.603 198.215Z" fill="url(#paint0_linear_2458_2887)"/>
<path d="M71.9561 337.415C81.3887 349.75 97.9663 355.056 110.363 357.334C113.593 356.432 116.85 355.139 120.08 353.433C111.532 352.941 86.4858 350.029 75.5033 332.829C74.4274 334.059 73.2557 335.541 71.9561 337.415Z" fill="#0876E4"/>
<path d="M76.8349 389.754C97.3059 395.047 101.844 369.102 102.792 360.256C102.853 359.671 102.901 359.163 102.936 358.742C105.375 358.503 107.862 358.037 110.363 357.334C97.9663 355.056 81.3888 349.75 71.9562 337.415C71.6979 337.787 71.4316 338.179 71.1626 338.586C70.7125 339.264 70.1267 340.188 69.4609 341.314C68.2545 343.352 66.7872 346.048 65.3704 349.138C59.1442 362.71 53.9565 383.83 76.8349 389.754Z" fill="url(#paint1_linear_2458_2887)"/>
<path d="M15.5017 318.586C15.571 318.751 15.6429 318.916 15.7148 319.079C22.8252 335.201 43.7702 339.698 54.6728 340.954C56.8458 339.964 58.947 338.751 60.9683 337.34C49.826 336.207 27.6187 331.781 18.9131 314.539C17.7946 315.861 16.6522 317.211 15.5017 318.586Z" fill="#0876E4"/>
<path d="M16.9717 374.883C37.6664 380.229 41.7968 352.845 42.5771 344.025C43.4825 343.967 44.38 343.874 45.2641 343.743C48.5424 343.27 51.6794 342.32 54.6727 340.954C43.7701 339.698 22.8251 335.201 15.7147 319.079C15.6428 318.916 15.5709 318.751 15.5017 318.586C14.5537 319.723 13.5976 320.875 12.6495 322.041C12.1968 322.597 11.7441 323.158 11.294 323.723C5.78949 330.621 -13.9758 366.872 16.9717 374.883Z" fill="url(#paint2_linear_2458_2887)"/>
<path d="M176.111 161.069C178.46 169.601 185.693 185.912 206.998 189.286C208.073 187.58 209.157 185.808 210.246 183.961C191.789 180.126 183.19 167.211 179.272 157.556C178.204 158.767 177.147 159.938 176.111 161.069Z" fill="#0876E4"/>
<path d="M288.987 23.6624C296.882 23.871 304.053 28.3154 307.75 35.2905L326.459 70.5945C330.099 77.4603 329.815 85.7386 325.715 92.3394L304.211 126.97C300.111 133.57 292.812 137.501 285.039 137.295L245.066 136.234C237.169 136.024 230 131.581 226.303 124.606L207.593 89.3C203.955 82.4334 204.237 74.156 208.337 67.5552L229.841 32.9249C233.939 26.3249 241.238 22.3946 249.011 22.6006L288.987 23.6624Z" fill="#0876E4"/>
<path d="M242.38 119.638C239.599 117.914 237.267 115.467 235.685 112.481L222.813 88.1806C219.709 82.3184 219.952 75.1789 223.45 69.5454L238.3 45.6275C241.799 39.994 248.094 36.6027 254.728 36.7779L282.235 37.5039C288.994 37.6828 295.158 41.5024 298.322 47.4749L311.194 71.7751C314.3 77.6364 314.055 84.7767 310.556 90.4103L295.706 114.328C292.208 119.962 285.915 123.352 279.277 123.176L251.771 122.45C248.392 122.362 245.161 121.362 242.38 119.638ZM288.332 45.6243C286.478 44.4749 284.324 43.8082 282.071 43.7485L254.563 43.0206C250.142 42.9039 245.944 45.1646 243.612 48.921L228.762 72.8389C226.43 76.5952 226.267 81.3542 228.337 85.2614L241.209 109.562C243.318 113.542 247.428 116.089 251.934 116.208L279.441 116.936C283.866 117.054 288.062 114.794 290.394 111.037L305.244 87.1196C307.576 83.3633 307.74 78.6034 305.668 74.6951L292.796 50.395C291.741 48.4048 290.188 46.7728 288.332 45.6243Z" fill="white"/>
<path fill-rule="evenodd" clip-rule="evenodd" d="M280.449 59.6526C273.358 55.2589 264.044 57.4373 259.647 64.5191C258.888 65.74 259.265 67.3452 260.486 68.1014C261.709 68.8596 263.316 68.4835 264.074 67.2626C266.956 62.6217 273.058 61.1945 277.703 64.0747C282.35 66.9541 283.78 73.0499 280.898 77.6888L278.427 81.6678L258.503 69.3215C256.303 67.9576 253.412 68.6336 252.047 70.8309L244.909 82.3283C242.635 85.9901 243.765 90.8037 247.431 93.0762L265.14 104.051C268.809 106.325 273.625 105.196 275.899 101.535L283.038 90.0372C284.113 88.306 283.92 86.1419 282.712 84.6374L285.325 80.4304C289.725 73.3517 287.54 64.0483 280.449 59.6526ZM277.897 87.4631L256.202 74.0195L249.338 85.0738C248.579 86.2947 248.955 87.8979 250.179 88.6552L267.888 99.6301C269.111 100.388 270.718 100.012 271.474 98.7922L278.339 87.7379L277.897 87.4631ZM264.25 85.7421C263.272 85.1363 261.987 85.4371 261.38 86.4135C260.774 87.3898 261.076 88.674 262.053 89.2797C263.031 89.8855 264.316 89.5847 264.923 88.6083C265.529 87.6319 265.227 86.3478 264.25 85.7421ZM259.609 85.3161C260.824 83.3625 263.391 82.7626 265.348 83.9732C267.304 85.1867 267.908 87.7522 266.694 89.7057C265.479 91.6593 262.91 92.2601 260.955 91.0486C258.997 89.836 258.395 87.2696 259.609 85.3161Z" fill="white"/>
<path d="M179.272 157.556C183.19 167.211 191.789 180.126 210.246 183.961C211.187 182.37 212.129 180.722 213.077 179.019C215.064 175.448 217.064 171.634 219.061 167.562C219.061 167.562 223.437 168.297 228.315 167.302C233.522 166.242 237.354 161.583 239.844 155.978C242.853 149.194 243.9 141.032 243.031 136.167C241.114 125.427 234.704 125.427 234.704 125.427C233.151 122.063 230.054 119.324 225.008 117.608C211.972 113.174 205.069 123.332 205.069 123.332C199.698 131.643 194.377 139.028 189.261 145.551C187.206 148.175 185.182 150.661 183.2 153.008C181.871 154.586 180.564 156.1 179.272 157.556Z" fill="url(#paint3_linear_2458_2887)"/>
<path d="M18.9132 314.539C27.6188 331.781 49.8261 336.207 60.9684 337.34C62.6434 336.177 64.2679 334.876 65.8391 333.452C66.7738 332.601 67.6926 331.709 68.59 330.775C72.108 327.132 75.3383 322.855 78.2783 318.113C78.2783 318.113 81.3568 319.771 86.4965 321.234C86.4406 321.322 86.3846 321.41 86.3287 321.498C83.4713 325.961 81.0772 327.313 77.9507 330.288C77.3995 330.81 76.8269 331.382 76.2224 332.034C75.9881 332.287 75.7484 332.553 75.5034 332.829C79.5938 339.235 85.6337 343.661 92.0463 346.713C102.853 351.863 114.714 353.124 120.08 353.433C121.534 352.664 122.983 351.815 124.424 350.875C137.713 342.232 150.128 326.312 157.72 301.615C167.55 269.614 168.583 241.915 168.62 232.558C168.62 232.558 168.615 232.553 168.62 232.545C168.628 230.363 168.583 229.184 168.583 229.184C168.583 229.184 184.593 222.648 203.813 194.167C204.862 192.607 205.924 190.981 206.998 189.286C185.693 185.912 178.46 169.601 176.111 161.069C174.695 162.612 173.312 164.079 171.965 165.471C166.586 171.033 161.797 175.416 157.891 178.737C157.891 178.737 146.594 209.999 120.895 208.269C101.556 206.965 88.0864 199.436 79.8495 192.882C79.5859 192.669 79.3249 192.458 79.0745 192.248C72.7791 187.085 69.7964 182.681 69.7964 182.681C68.654 187.123 67.0508 192.541 65.1414 198.396C65.0375 198.72 64.9283 199.04 64.8271 199.372C63.2106 204.28 61.4051 209.467 59.4877 214.619C53.9458 229.586 47.5651 244.244 42.761 250.902C34.2099 262.748 32.8251 293.93 32.8251 293.93C32.6147 295.252 32.0528 296.713 31.2033 298.302C31.1127 298.475 31.0169 298.646 30.9157 298.818C28.9237 302.395 25.6002 306.568 21.768 311.148C20.8439 312.255 19.8879 313.386 18.9132 314.539Z" fill="url(#paint4_linear_2458_2887)"/>
<path d="M220.888 131.356C220.968 131.071 221.05 130.778 221.144 130.48L220.744 131.218L220.888 131.356Z" fill="white"/>
<path d="M146.975 187.069C147.3 186.862 151.374 184.278 157.888 178.737L146.975 187.069Z" fill="white"/>
<path d="M141.553 297.23C137.649 297.014 133.281 296.7 128.605 296.256C131.369 296.721 133.92 297.115 136.2 297.448C138.024 297.706 139.838 297.624 141.553 297.23Z" fill="white"/>
<path d="M159.957 287.319C154.262 287.319 149.646 282.706 149.646 277.015C149.646 271.324 154.262 266.71 159.957 266.71C165.652 266.71 170.268 271.324 170.268 277.015C170.268 282.706 165.652 287.319 159.957 287.319Z" fill="url(#paint5_linear_2458_2887)"/>
<path d="M87.3966 292.636L126.762 299.055L129.561 299.513L145.731 302.15C152.636 303.273 159.214 298.555 160.341 291.646L161.393 285.193L165.4 260.624C166.535 253.718 161.803 247.147 154.889 246.022L152.841 245.689L150.045 245.231L96.5655 236.513C95.7054 236.372 94.8505 236.319 94.0143 236.356C88.105 236.596 82.9413 240.968 81.9533 247.014L76.8882 278.037C75.7617 284.945 80.4939 291.513 87.3966 292.636Z" fill="url(#paint6_linear_2458_2887)"/>
<path d="M148.109 302.302C147.329 302.337 146.538 302.286 145.731 302.15L87.3966 292.636C82.3367 291.809 78.4433 288.067 77.173 283.397C76.707 281.699 76.5898 279.881 76.8934 278.037L79.1384 264.254L79.8787 259.706L81.9506 247.014C83.0771 240.106 89.6575 235.387 96.5628 236.51L109.167 238.57C103.178 238.717 97.9183 243.113 96.917 249.223L94.1767 265.979L91.8492 280.251C90.7254 287.152 95.455 293.728 102.36 294.853L148.109 302.302Z" fill="url(#paint7_linear_2458_2887)"/>
<path d="M46.7209 238.866C46.7209 238.866 41.1178 241.356 39.2723 247.182C37.1392 253.918 40.3935 257.854 40.3935 257.854C40.3935 257.854 55.3519 272.539 85.4019 274.457C85.4019 274.457 96.8371 265.768 89.3193 256.786C89.322 256.786 58.2626 252.406 46.7209 238.866Z" fill="url(#paint8_linear_2458_2887)"/>
<g opacity="0.35">
<path d="M39.6691 256.651C40.5772 254.461 41.6051 252.502 42.7609 250.9C43.3601 250.07 43.9859 249.114 44.6331 248.042C43.8022 245.705 43.701 243.126 44.4466 240.651C44.4653 240.582 44.4919 240.518 44.5105 240.446C44.5425 240.337 44.5798 240.223 44.6331 240.122C42.8382 241.404 40.3801 243.696 39.275 247.187C37.8316 251.738 38.8515 255.011 39.6691 256.651Z" fill="#371A45"/>
</g>
<path d="M21.7253 257.651C22.8278 257.287 23.9916 256.989 25.2006 256.752C35.741 254.689 49.8632 257.263 58.6301 259.368C58.8644 257.84 59.2213 255.967 59.7645 253.87C49.2507 251.209 32.026 248.172 23.2912 251.786C22.6973 253.747 22.1754 255.706 21.7253 257.651Z" fill="#0876E4"/>
<path d="M22.2099 289.589C23.7092 293.331 27.0248 296.599 30.9155 298.818C40.1164 304.077 52.5529 303.502 51.8632 289.589C51.4664 281.613 57.4317 285.627 60.4782 285.166C63.5168 284.7 65.6445 282.705 63.3889 275.932C62.6326 273.651 61.1679 269.587 59.405 265.952C59.0135 265.14 58.606 264.352 58.1906 263.607C58.1906 263.607 58.2279 261.997 58.63 259.368C49.8632 257.263 35.741 254.689 25.2006 256.752C23.9915 256.989 22.8278 257.287 21.7253 257.651C21.1367 260.188 20.6734 262.702 20.3352 265.164C19.0595 274.481 19.6081 283.088 22.2099 289.589Z" fill="url(#paint9_linear_2458_2887)"/>
<path d="M23.2912 251.786C32.0261 248.172 49.2508 251.209 59.7646 253.87C60.2386 252.044 60.8564 250.046 61.6553 247.951C63.9536 241.931 67.7777 235.129 74.1318 229.368L77.2876 209.224L79.8494 192.882L79.9879 191.993C79.9879 191.993 79.6683 192.07 79.0745 192.248C77.0452 192.855 71.7937 194.617 65.1413 198.396C64.8724 198.547 64.598 198.707 64.3237 198.867C55.0057 204.304 43.1577 213.637 33.5254 229.093C30.4389 234.051 27.8291 239.339 25.7359 244.715C24.8198 247.062 24.0049 249.426 23.2912 251.786Z" fill="url(#paint10_linear_2458_2887)"/>
<path d="M199.243 136.216C198.223 146.493 195.315 156.63 190.513 166.091C188.684 169.697 186.58 173.204 184.199 176.584C182.439 179.083 180.537 181.508 178.481 183.849C177.485 184.991 176.441 186.114 175.371 187.224C172.122 190.559 168.668 193.574 165.041 196.275C161.922 198.609 158.668 200.706 155.326 202.569C152.048 204.397 148.674 205.996 145.228 207.372C144.431 207.689 143.63 207.995 142.826 208.29C141.262 208.855 139.689 209.379 138.107 209.858C132.642 211.505 127.047 212.61 121.407 213.171C121.407 213.171 121.407 213.171 121.404 213.171C97.1221 215.585 72.02 207.918 53.1096 190C18.772 157.479 17.8453 103.511 51.0244 69.4551C57.4185 62.9004 64.614 57.5486 72.3103 53.4396C73.2051 52.9526 74.1185 52.4868 75.0399 52.0398C77.4953 50.8315 79.9932 49.7457 82.5285 48.785C88.3952 46.5602 94.459 44.9901 100.592 44.0693C106.722 43.1431 112.941 42.869 119.114 43.2496C120.392 43.3294 121.67 43.4332 122.946 43.5663C123.628 43.6381 124.309 43.718 124.994 43.8058C127.926 44.189 130.837 44.7106 133.731 45.3946C135.816 45.8816 137.886 46.4458 139.936 47.0898C152.061 50.8874 163.504 57.4102 173.286 66.6794C175.888 69.141 178.295 71.7278 180.511 74.4183C195.131 92.1663 201.402 114.484 199.243 136.216Z" fill="url(#paint11_linear_2458_2887)"/>
<path d="M139.934 47.0925C139.033 46.8476 138.131 46.6214 137.22 46.4059C129.22 46.2302 120.877 47.4384 112.31 50.0065C108.946 51.0152 105.548 52.234 102.121 53.6578C80.1904 62.7833 61.9643 82.0402 53.3626 105.172C45.6717 125.861 46.4493 147.249 55.5544 165.402C65.5249 185.271 81.4047 199.178 101.476 205.624C115.314 210.066 130.461 210.59 145.225 207.372C144.429 207.689 143.627 207.995 142.823 208.29C141.26 208.855 139.686 209.379 138.104 209.858C132.639 211.505 127.044 212.61 121.404 213.171C121.404 213.171 121.404 213.171 121.401 213.171C114.187 212.775 107.09 211.495 100.291 209.312C79.205 202.542 62.5369 187.958 52.087 167.134C42.4947 148.013 41.6558 125.528 49.7276 103.82C58.6941 79.7009 77.7244 59.6084 100.629 50.0784C108.203 46.9275 115.665 44.7505 122.941 43.5663C123.622 43.6381 124.304 43.718 124.988 43.8058C127.92 44.189 130.831 44.7106 133.726 45.3946C135.811 45.8842 137.883 46.4484 139.934 47.0925Z" fill="#9CBDEA"/>
<mask id="mask0_2458_2887" style="mask-type:luminance" maskUnits="userSpaceOnUse" x="52" y="52" width="148" height="148">
<path d="M199.243 136.216C198.524 143.454 196.87 150.624 194.276 157.535C193.187 160.436 191.933 163.294 190.513 166.091C178.934 180.853 163.451 191.429 146.49 196.512C137.774 199.122 128.669 200.285 119.497 199.817C93.242 198.481 71.2957 183.983 59.2852 160.042C51.0031 143.531 50.2788 124.12 57.248 105.382C64.9869 84.5711 81.4073 67.2356 101.173 59.0096C130.89 46.6427 157.526 51.8322 180.508 74.4184C195.131 92.1663 201.402 114.484 199.243 136.216Z" fill="white"/>
</mask>
<g mask="url(#mask0_2458_2887)">
<path d="M199.243 136.216C198.524 143.454 196.87 150.624 194.276 157.535C193.187 160.436 191.933 163.294 190.513 166.091C178.934 180.853 163.451 191.429 146.49 196.512C137.774 199.122 128.669 200.285 119.497 199.817C93.242 198.481 71.2957 183.983 59.2852 160.042C51.0031 143.531 50.2788 124.12 57.248 105.382C64.9869 84.5711 81.4073 67.2356 101.173 59.0096C130.89 46.6427 157.526 51.8322 180.508 74.4184C195.131 92.1663 201.402 114.484 199.243 136.216Z" fill="#371A45"/>
</g>
<mask id="mask1_2458_2887" style="mask-type:luminance" maskUnits="userSpaceOnUse" x="52" y="52" width="148" height="148">
<path d="M199.243 136.216C198.524 143.454 196.87 150.624 194.276 157.535C193.187 160.436 191.933 163.294 190.513 166.091C178.934 180.853 163.451 191.429 146.49 196.512C137.774 199.122 128.669 200.285 119.497 199.817C93.242 198.481 71.2957 183.983 59.2852 160.042C51.0031 143.531 50.2788 124.12 57.248 105.382C64.9869 84.5711 81.4073 67.2356 101.173 59.0096C130.89 46.6427 157.526 51.8322 180.508 74.4184C195.131 92.1663 201.402 114.484 199.243 136.216Z" fill="white"/>
</mask>
<g mask="url(#mask1_2458_2887)">
<path d="M131.939 200.812C111.098 201.911 105.13 205.528 104.214 207.226C104.214 207.226 103.766 210.67 102.576 211.91C102.576 211.91 100.802 214.007 98.9276 214.225C97.0528 214.443 95.0848 212.895 93.8625 213.549C92.6401 214.204 90.9411 217.711 90.9411 217.711L81.2875 222.935L179.443 217.754C179.443 217.754 162.183 212.301 158.12 209.155C158.12 209.155 154.777 205.382 155.795 203.208C155.792 203.208 153.03 199.7 131.939 200.812Z" fill="url(#paint12_linear_2458_2887)"/>
<path d="M88.0836 139.116C88.0836 139.116 86.2248 134.087 78.1158 131.332C70.0067 128.578 67.2584 133.496 67.0108 138.816C66.7604 144.133 73.6445 157.21 79.7668 159.185C85.8866 161.16 89.0157 156.753 89.0157 156.753L88.0836 139.116Z" fill="url(#paint13_linear_2458_2887)"/>
<g style="mix-blend-mode:multiply" opacity="0.6">
<path d="M88.5683 148.271L88.8532 153.644C88.8532 153.644 86.057 147.622 84.563 147.789C83.069 147.957 83.8999 151.981 83.4445 153.418C82.9891 154.858 80.7921 153.469 80.0731 148.91C79.3567 144.351 82.5151 144.234 82.5151 144.234C82.5151 144.234 78.5818 136.229 74.3848 138.837C70.1878 141.445 73.2636 152.218 73.2636 152.218C73.2636 152.218 66.7657 142.18 67.8097 138.299C68.8509 134.419 72.5339 133.954 78.7256 137.254C81.7615 138.872 84.8426 142.69 87.1941 146.161C87.6841 146.887 88.1448 147.598 88.5683 148.271Z" fill="url(#paint14_linear_2458_2887)"/>
</g>
<g style="mix-blend-mode:multiply" opacity="0.6">
<path d="M88.5416 147.781L88.736 151.443C87.74 149.753 85.1782 145.703 84.1582 146.839C82.8773 148.26 83.7215 150.709 82.6882 152.492C81.6523 154.275 79.7908 149.719 80.5631 146.587C81.3354 143.454 85.1089 144.479 86.2594 145.298C86.5363 145.495 86.8559 145.796 87.1941 146.161C87.6229 146.624 88.0862 147.191 88.5416 147.781Z" fill="url(#paint15_linear_2458_2887)"/>
</g>
<path d="M165.512 135.029C165.512 135.029 166.83 129.831 174.604 126.238C182.377 122.646 185.629 127.247 186.436 132.511C187.246 137.772 181.778 151.502 175.898 154.11C170.021 156.718 166.444 152.665 166.444 152.665L165.512 135.029Z" fill="url(#paint16_linear_2458_2887)"/>
<g style="mix-blend-mode:multiply" opacity="0.6">
<path d="M165.994 144.183L166.279 149.556C166.279 149.556 168.423 143.273 169.928 143.284C171.432 143.292 171.03 147.382 171.632 148.763C172.237 150.147 174.274 148.535 174.508 143.925C174.74 139.316 171.587 139.531 171.587 139.531C171.587 139.531 174.652 131.156 179.102 133.309C183.552 135.462 181.629 146.499 181.629 146.499C181.629 146.499 187.033 135.832 185.584 132.083C184.138 128.333 180.428 128.258 174.62 132.192C171.773 134.118 169.11 138.241 167.139 141.94C166.727 142.714 166.343 143.47 165.994 144.183Z" fill="url(#paint17_linear_2458_2887)"/>
</g>
<g style="mix-blend-mode:multiply" opacity="0.6">
<path d="M165.97 143.694L166.165 147.356C166.977 145.57 169.097 141.275 170.231 142.294C171.653 143.574 171.073 146.094 172.29 147.76C173.507 149.426 174.878 144.7 173.781 141.663C172.684 138.629 169.038 140.045 167.981 140.982C167.725 141.208 167.44 141.538 167.142 141.94C166.759 142.446 166.359 143.058 165.97 143.694Z" fill="url(#paint18_linear_2458_2887)"/>
</g>
<path d="M145.995 201.621C145.747 196.94 144.57 174.655 144.57 174.655L128.983 177.356L113.199 176.313C113.199 176.313 114.376 198.598 114.624 203.279C114.871 207.961 111.609 209.674 111.609 209.674C111.609 209.674 115.021 214.047 130.879 213.211C146.738 212.373 149.67 207.665 149.67 207.665C149.67 207.665 146.242 206.303 145.995 201.621Z" fill="url(#paint19_linear_2458_2887)"/>
<g style="mix-blend-mode:multiply" opacity="0.6">
<path d="M144.57 174.655C144.57 174.655 145.241 187.344 145.678 195.586C143.316 198.255 140.16 200.424 136.003 200.953C125.771 202.257 116.752 190.463 113.708 185.965C113.428 180.685 113.196 176.31 113.196 176.31L128.983 177.353L144.57 174.655Z" fill="#D077B7"/>
</g>
<path d="M165.534 121.355C164.83 108.051 165.094 77.1302 123.675 79.3178C82.2541 81.5053 85.7774 112.224 86.4831 125.528C87.2181 139.43 84.2355 160.007 88.4751 166.535C98.64 182.194 121.55 186.33 129.313 185.92C137.076 185.51 159.422 178.987 167.88 162.344C171.403 155.406 166.269 135.258 165.534 121.355Z" fill="url(#paint20_linear_2458_2887)"/>
<g style="mix-blend-mode:multiply" opacity="0.6">
<path d="M167.877 162.344C159.419 178.987 137.073 185.513 129.311 185.923C121.545 186.332 98.6373 182.2 88.4724 166.538C86.9997 164.271 86.1555 155.659 86.0091 151.704C86.2381 154.98 87.1169 163.025 88.3899 164.992C98.5548 180.651 121.465 184.786 129.228 184.376C136.991 183.967 159.337 177.444 167.794 160.8C168.854 158.711 168.878 150.618 168.761 147.337C169.035 151.281 169.102 159.933 167.877 162.344Z" fill="url(#paint21_linear_2458_2887)"/>
</g>
<path d="M120.754 113.382C118.781 117.608 115.83 117.989 115.83 117.989C115.391 118.09 114.845 118.164 114.214 118.217C110.051 118.571 102.291 117.997 98.7119 118.185C94.5922 118.404 89.3939 121.938 89.3939 121.938C89.3939 121.938 89.0184 120.767 89.9957 118.893C90.3259 118.26 90.8106 117.547 91.5137 116.772C91.6814 116.589 91.8412 116.416 91.9957 116.256C92.4724 115.756 92.8851 115.362 93.2367 115.053H93.2393C94.5549 113.904 95.0529 113.922 95.0529 113.922C95.0742 114.058 94.8611 114.257 94.8611 114.257C94.8611 114.257 95.7692 114.084 97.1593 113.837H97.162C98.0595 113.675 99.1646 113.486 100.352 113.291C100.355 113.291 100.355 113.291 100.355 113.291C103.098 112.844 106.294 112.379 108.509 112.235C113.17 111.934 117.865 112.285 117.865 112.285C118.027 113.31 117.111 114.5 117.111 114.5C118.797 113.683 119.582 112.411 119.582 112.411L120.767 112.104C120.773 112.104 120.925 113.009 120.754 113.382Z" fill="url(#paint22_linear_2458_2887)"/>
<g style="mix-blend-mode:multiply" opacity="0.6">
<path d="M114.214 118.217C110.051 118.571 102.291 117.997 98.7119 118.186C94.5921 118.404 89.3938 121.938 89.3938 121.938C89.3938 121.938 89.0184 120.767 89.9957 118.893C92.9224 117.597 95.8944 116.86 96.9836 116.373C98.1953 115.833 94.965 116.011 91.9957 116.256C92.4724 115.756 92.8851 115.362 93.2366 115.053H93.2393C97.676 114.446 105.191 116.256 105.404 116.309C101.295 114.327 97.2952 113.853 97.162 113.837C98.0595 113.675 99.1646 113.486 100.352 113.291C100.355 113.291 100.355 113.291 100.355 113.291C109.516 114.848 114.214 118.217 114.214 118.217Z" fill="#F1ABD2"/>
</g>
<path d="M131.241 112.826C133.649 116.82 136.623 116.889 136.623 116.889C137.071 116.945 137.622 116.961 138.256 116.948C142.431 116.86 150.088 115.474 153.667 115.285C157.787 115.066 163.329 118.034 163.329 118.034C163.329 118.034 163.579 116.828 162.41 115.069C162.016 114.473 161.459 113.816 160.676 113.118C160.49 112.953 160.311 112.799 160.144 112.655C159.616 112.208 159.166 111.86 158.783 111.588H158.78C157.353 110.585 156.857 110.654 156.857 110.654C156.849 110.793 157.084 110.968 157.084 110.968C157.084 110.968 156.162 110.891 154.753 110.793H154.751C153.84 110.726 152.722 110.654 151.521 110.585C151.518 110.585 151.518 110.585 151.518 110.585C148.743 110.428 145.515 110.303 143.297 110.393C138.631 110.585 133.998 111.429 133.998 111.429C133.944 112.464 134.98 113.55 134.98 113.55C133.217 112.916 132.301 111.732 132.301 111.732L131.089 111.554C131.087 111.559 131.028 112.477 131.241 112.826Z" fill="url(#paint23_linear_2458_2887)"/>
<g style="mix-blend-mode:multiply" opacity="0.6">
<path d="M138.253 116.948C142.429 116.86 150.085 115.474 153.664 115.285C157.784 115.067 163.326 118.034 163.326 118.034C163.326 118.034 163.576 116.828 162.407 115.069C159.361 114.09 156.327 113.669 155.19 113.299C153.928 112.89 157.161 112.727 160.138 112.655C159.611 112.208 159.161 111.86 158.777 111.588H158.775C154.298 111.453 147.017 114.042 146.81 114.116C150.684 111.711 154.615 110.822 154.745 110.79C153.835 110.723 152.716 110.651 151.515 110.582C151.513 110.582 151.513 110.582 151.513 110.582C142.57 113.102 138.253 116.948 138.253 116.948Z" fill="#F1ABD2"/>
</g>
<path d="M116.11 145.796C116.11 145.796 108.954 149.94 102.72 150.006C94.8744 150.089 90.9703 143.172 90.3232 138.366C89.6761 133.56 96.7545 126.334 105.117 128.535C113.481 130.733 115.697 140.455 116.11 145.796Z" fill="url(#paint24_linear_2458_2887)"/>
<mask id="mask2_2458_2887" style="mask-type:luminance" maskUnits="userSpaceOnUse" x="90" y="128" width="27" height="23">
<path d="M116.11 145.796C116.11 145.796 109.021 149.937 102.72 150.006C94.8744 150.094 90.9703 143.172 90.3232 138.366C89.6761 133.56 96.7545 126.334 105.117 128.535C113.481 130.733 115.697 140.455 116.11 145.796Z" fill="white"/>
</mask>
<g mask="url(#mask2_2458_2887)">
<path d="M105.923 142.847C101.813 142.847 98.4802 139.517 98.4802 135.409C98.4802 131.301 101.813 127.971 105.923 127.971C110.034 127.971 113.367 131.301 113.367 135.409C113.367 139.517 110.034 142.847 105.923 142.847Z" fill="url(#paint25_linear_2458_2887)"/>
</g>
<mask id="mask3_2458_2887" style="mask-type:luminance" maskUnits="userSpaceOnUse" x="90" y="128" width="27" height="23">
<path d="M116.11 145.796C116.11 145.796 109.021 149.937 102.72 150.006C94.8744 150.094 90.9703 143.172 90.3232 138.366C89.6761 133.56 96.7545 126.334 105.117 128.535C113.481 130.733 115.697 140.455 116.11 145.796Z" fill="white"/>
</mask>
<g mask="url(#mask3_2458_2887)">
<path d="M105.923 142.251C102.142 142.251 99.0767 139.188 99.0767 135.409C99.0767 131.63 102.142 128.567 105.923 128.567C109.705 128.567 112.77 131.63 112.77 135.409C112.77 139.188 109.705 142.251 105.923 142.251Z" fill="url(#paint26_linear_2458_2887)"/>
</g>
<mask id="mask4_2458_2887" style="mask-type:luminance" maskUnits="userSpaceOnUse" x="90" y="128" width="27" height="23">
<path d="M116.11 145.796C116.11 145.796 109.021 149.937 102.72 150.006C94.8744 150.094 90.9703 143.172 90.3232 138.366C89.6761 133.56 96.7545 126.334 105.117 128.535C113.481 130.733 115.697 140.455 116.11 145.796Z" fill="white"/>
</mask>
<g mask="url(#mask4_2458_2887)">
<g style="mix-blend-mode:multiply">
<path d="M106.15 139.667C103.801 139.792 101.788 137.983 101.665 135.635C101.54 133.288 103.351 131.276 105.7 131.154C108.049 131.029 110.062 132.838 110.184 135.186C110.31 137.53 108.499 139.542 106.15 139.667Z" fill="url(#paint27_linear_2458_2887)"/>
</g>
</g>
<path d="M91.3778 134.156C91.282 134.276 93.1142 126.364 101.002 125.749C108.887 125.137 112.632 133.299 112.632 133.299C112.632 133.299 102.086 120.804 91.3778 134.156Z" fill="#DC4C6A"/>
<g style="mix-blend-mode:multiply" opacity="0.6">
<path d="M115.489 141.389C115.489 141.389 111.156 135.034 103.74 134.007C96.3231 132.98 90.5682 135.907 90.5682 135.907C91.5775 133.195 93.6174 129.435 101.593 128.719C113.319 127.668 115.489 141.389 115.489 141.389Z" fill="#D077B7"/>
</g>
<path d="M90.6109 135.835C90.6109 135.835 91.4524 132.793 94.8212 130.156C102.946 123.798 114.301 127.25 115.492 141.389C115.492 141.389 111.71 125.054 97.6973 130.161C93.2233 131.79 90.6109 135.835 90.6109 135.835Z" fill="#4E1B3D"/>
<path d="M91.1168 141.317C91.1168 141.317 93.5083 147.877 102.722 150.006C102.72 150.006 92.5975 151.241 91.1168 141.317Z" fill="#DC6B7C"/>
<path d="M115.542 142.379C115.542 142.379 116.36 143.806 116.44 145.128C116.493 146.009 115.769 146.634 113.364 147.18C113.364 147.18 115.127 145.764 115.596 144.742C115.769 144.37 115.542 142.379 115.542 142.379Z" fill="#DC6B7C"/>
<path d="M96.6906 135.553C96.6906 135.553 97.9343 134.31 101.652 135.292C101.649 135.289 100.078 136.484 96.6906 135.553Z" fill="white"/>
<path d="M103.298 134.68C103.298 134.68 102.738 135.633 103.351 135.694C103.963 135.755 104.765 135.292 104.736 135.111C104.706 134.933 103.468 134.307 103.298 134.68Z" fill="white"/>
<path d="M139.486 144.561C139.486 144.561 147.039 147.928 153.246 147.337C161.054 146.594 164.21 139.303 164.346 134.456C164.482 129.61 156.682 123.17 148.596 126.238C140.511 129.307 139.334 139.207 139.486 144.561Z" fill="url(#paint28_linear_2458_2887)"/>
<mask id="mask5_2458_2887" style="mask-type:luminance" maskUnits="userSpaceOnUse" x="139" y="125" width="26" height="23">
<path d="M139.486 144.561C139.486 144.561 146.975 147.933 153.246 147.337C161.057 146.597 164.21 139.303 164.346 134.456C164.482 129.61 156.682 123.17 148.596 126.238C140.511 129.307 139.334 139.207 139.486 144.561Z" fill="white"/>
</mask>
<g mask="url(#mask5_2458_2887)">
<path d="M154.112 140.303C150.001 140.303 146.668 136.973 146.668 132.865C146.668 128.757 150.001 125.427 154.112 125.427C158.222 125.427 161.555 128.757 161.555 132.865C161.555 136.973 158.222 140.303 154.112 140.303Z" fill="url(#paint29_linear_2458_2887)"/>
</g>
<mask id="mask6_2458_2887" style="mask-type:luminance" maskUnits="userSpaceOnUse" x="139" y="125" width="26" height="23">
<path d="M139.486 144.561C139.486 144.561 146.975 147.933 153.246 147.337C161.057 146.597 164.21 139.303 164.346 134.456C164.482 129.61 156.682 123.17 148.596 126.238C140.511 129.307 139.334 139.207 139.486 144.561Z" fill="white"/>
</mask>
<g mask="url(#mask6_2458_2887)">
<path d="M154.474 139.696C158.245 139.497 161.15 136.269 160.95 132.503C160.751 128.735 157.523 125.831 153.752 126.031C149.981 126.23 147.076 129.459 147.276 133.224C147.473 136.993 150.703 139.896 154.474 139.696Z" fill="url(#paint30_linear_2458_2887)"/>
</g>
<mask id="mask7_2458_2887" style="mask-type:luminance" maskUnits="userSpaceOnUse" x="139" y="125" width="26" height="23">
<path d="M139.486 144.561C139.486 144.561 146.975 147.933 153.246 147.337C161.057 146.597 164.21 139.303 164.346 134.456C164.482 129.61 156.682 123.17 148.596 126.238C140.511 129.307 139.334 139.207 139.486 144.561Z" fill="white"/>
</mask>
<g mask="url(#mask7_2458_2887)">
<g style="mix-blend-mode:multiply">
<path d="M154.112 137.128C151.756 137.128 149.845 135.22 149.845 132.865C149.845 130.51 151.756 128.602 154.112 128.602C156.468 128.602 158.378 130.51 158.378 132.865C158.378 135.22 156.468 137.128 154.112 137.128Z" fill="url(#paint31_linear_2458_2887)"/>
</g>
</g>
<path d="M162.855 130.382C162.964 130.491 160.306 122.816 152.399 123.037C144.493 123.258 141.63 131.769 141.63 131.769C141.63 131.769 150.799 118.233 162.855 130.382Z" fill="#DC4C6A"/>
<g style="mix-blend-mode:multiply" opacity="0.6">
<path d="M139.638 140.114C139.638 140.114 143.278 133.339 150.543 131.537C157.811 129.735 163.84 132.04 163.84 132.04C162.551 129.448 160.125 125.924 152.117 126.052C140.349 126.241 139.638 140.114 139.638 140.114Z" fill="#D077B7"/>
</g>
<path d="M163.795 131.971C163.795 131.971 162.639 129.035 159.009 126.768C150.261 121.302 139.332 125.93 139.638 140.114C139.638 140.114 141.675 123.473 156.149 127.074C160.769 128.224 163.795 131.971 163.795 131.971Z" fill="#4E1B3D"/>
<path d="M163.869 137.474C163.869 137.474 162.183 144.25 153.246 147.337C153.246 147.337 163.443 147.502 163.869 137.474Z" fill="#DC6B7C"/>
<path d="M139.691 141.104C139.691 141.104 139.028 142.608 139.089 143.933C139.129 144.814 139.918 145.362 142.365 145.65C142.365 145.65 140.461 144.428 139.888 143.462C139.675 143.108 139.691 141.104 139.691 141.104Z" fill="#DC6B7C"/>
<path d="M163.31 132.035C163.31 132.035 161.944 130.93 158.349 132.295C158.351 132.295 160.04 133.32 163.31 132.035Z" fill="white"/>
<path d="M156.647 131.864C156.647 131.864 157.305 132.753 156.7 132.878C156.096 133.003 155.251 132.628 155.262 132.445C155.273 132.264 156.439 131.51 156.647 131.864Z" fill="white"/>
<path d="M135.257 149.322C133.263 148.295 127.462 148.763 127.462 148.763C127.462 148.763 121.646 148.91 119.769 150.139C118.227 151.151 116.757 157.428 118.072 157.836C119.388 158.243 122.059 158.256 124.126 159.081C126.192 159.906 128.043 159.72 128.043 159.72C128.043 159.72 129.902 159.709 131.87 158.671C133.838 157.633 136.493 157.341 137.758 156.795C139.023 156.25 136.9 150.166 135.257 149.322Z" fill="url(#paint32_linear_2458_2887)"/>
<g style="mix-blend-mode:multiply" opacity="0.6">
<path d="M137.758 156.798C136.493 157.341 133.838 157.636 131.87 158.671C129.902 159.709 128.043 159.72 128.043 159.72C128.043 159.72 126.192 159.906 124.126 159.078C122.059 158.253 119.388 158.243 118.072 157.836C117.183 157.559 117.566 154.608 118.381 152.407C118.355 152.532 117.681 155.494 118.594 156.396C119.529 157.319 127.907 157.2 127.907 157.2C127.907 157.2 136.253 156.436 137.084 155.419C137.896 154.427 136.916 151.55 136.874 151.43C137.92 153.532 138.61 156.428 137.758 156.798Z" fill="#D077B7"/>
</g>
<path d="M119.215 158.011C119.215 158.011 120.85 157.562 123.26 158.767C123.26 158.767 120.951 158.727 119.215 158.011Z" fill="url(#paint33_linear_2458_2887)"/>
<path d="M136.78 157.083C136.78 157.083 135.108 156.806 132.839 158.261C132.836 158.261 135.127 157.979 136.78 157.083Z" fill="url(#paint34_linear_2458_2887)"/>
<g style="mix-blend-mode:multiply" opacity="0.6">
<path d="M117.873 157.708C117.873 157.708 118.243 156.54 119.417 156.737C120.592 156.933 124.309 157.37 128.272 157.16C132.235 156.949 135.822 155.933 136.714 155.68C137.606 155.425 137.758 156.8 137.758 156.8C137.758 156.8 134.035 161.671 128.064 161.985C122.094 162.296 117.873 157.708 117.873 157.708Z" fill="#D077B7"/>
</g>
<g style="mix-blend-mode:multiply" opacity="0.6">
<path d="M120.198 149.908C121.715 149.714 122.176 153.301 122.176 153.301C122.176 153.301 122.368 150.299 121.502 149.469L120.198 149.908Z" fill="url(#paint35_linear_2458_2887)"/>
</g>
<g style="mix-blend-mode:multiply" opacity="0.6">
<path d="M134.943 149.128C133.412 149.096 133.334 152.71 133.334 152.71C133.334 152.71 132.828 149.745 133.601 148.83L134.943 149.128Z" fill="url(#paint36_linear_2458_2887)"/>
</g>
<path d="M130.333 153.57C129.875 154.451 130.522 155.124 131.012 155.204C131.502 155.286 132.059 154.61 132.152 154.31C132.243 154.009 130.517 153.213 130.333 153.57Z" fill="#FFCEBE"/>
<path d="M101.01 81.0875C101.01 81.0875 105.588 65.5271 114.464 63.1985C123.34 60.8699 162.253 78.1042 179.286 89.2789C183.248 91.8789 175.39 120.61 170.711 128.506L166.91 134.446C166.788 134.672 166.668 133.874 166.633 133.618C166.287 131.196 165.528 124.607 164.652 118.718C163.592 111.578 156.871 103.562 156.871 103.562C156.871 103.562 142.895 103.027 128.373 96.4749C113.854 89.9229 108.206 84.2305 108.206 84.2305C108.206 84.2305 99.4656 87.9855 94.6428 92.5123C94.6428 92.5123 90.0996 104.443 89.0157 113.717C89.0157 113.717 89.298 127.359 88.547 134.627C88.4938 135.132 86.6349 139.116 86.3447 138.701C85.5564 137.575 85.2555 136.213 83.7641 134.877C83.7641 134.877 76.2436 114.689 76.9813 103.147C77.7216 91.6048 88.6615 81.5426 98.1633 82.5086C98.1633 82.5086 91.2873 77.25 81.9985 75.93C81.9985 75.93 84.1024 71.8822 89.0796 72.4331C94.0569 72.9813 101.01 81.0875 101.01 81.0875Z" fill="url(#paint37_linear_2458_2887)"/>
<g style="mix-blend-mode:multiply" opacity="0.5">
<path d="M170.708 128.509L166.91 134.446C166.788 134.672 166.668 133.874 166.633 133.621C166.285 131.196 165.526 124.605 164.652 118.715C163.59 111.578 156.868 103.559 156.868 103.559C156.868 103.559 149.518 103.277 139.944 100.627C136.314 99.6179 132.365 98.274 128.373 96.4723C113.854 89.9229 108.206 84.2278 108.206 84.2278C108.206 84.2278 99.4629 87.9855 94.6401 92.5123C94.6401 92.5123 90.0969 104.443 89.013 113.717C89.013 113.717 89.2926 127.348 88.5443 134.624C88.4911 135.13 86.6349 139.122 86.3393 138.701C85.5564 137.573 85.2528 136.213 83.7614 134.877C83.7614 134.877 76.241 114.689 76.9813 103.149C77.2769 98.5161 78.9679 94.8436 81.4552 91.3627C81.4259 91.5676 80.8108 94.6467 81.133 96.6C81.4632 98.6066 92.2433 91.855 94.4031 90.1651C96.5628 88.4778 102.102 84.5525 102.102 84.5525C102.102 84.5525 100.499 82.6311 101.01 81.0928C101.01 81.0928 101.021 81.0609 101.042 80.9917C101.141 80.6617 101.497 79.5467 102.099 78.0218C102.099 78.0218 111.798 68.1112 116.387 67.6455C120.648 67.2144 132.141 75.0864 133.753 76.2148C132.674 75.5335 127.212 72.2255 121.423 71.4245C114.965 70.5303 107.551 79.2379 107.551 79.2379C107.551 79.2379 117.883 76.7816 122.075 77.3458C126.267 77.91 137.081 93.5263 142.399 97.9679C147.718 102.41 157.07 101.015 157.07 101.015C157.07 101.015 149.286 89.9602 141.321 86.1093C141.321 86.1093 147.763 86.6762 156.74 94.801C165.717 102.921 167.408 107.216 167.408 107.216C167.408 107.216 168.279 98.1782 164.974 93.0685C161.72 88.0387 136.61 77.8488 135.824 77.5294C136.456 77.7263 154.769 83.4188 159.96 85.4626C165.243 87.5437 167.11 88.7945 167.794 88.9835C168.479 89.1724 169.299 85.5238 167.446 82.3649C171.952 84.7707 176.021 87.1312 179.286 89.2762C183.246 91.8789 175.387 120.607 170.708 128.509Z" fill="url(#paint38_linear_2458_2887)"/>
</g>
<path opacity="0.5" d="M139.942 100.626C136.312 99.6179 132.362 98.2739 128.371 96.4723C113.851 89.9229 108.203 84.2278 108.203 84.2278C115.223 81.8699 122.586 81.4814 123.814 81.979C125.02 82.466 133.657 95.8735 139.942 100.626Z" fill="url(#paint39_linear_2458_2887)"/>
<path opacity="0.5" d="M165.696 89.2097C170.133 92.797 174.181 100.004 174.495 105.494C174.806 110.987 171.36 121.286 171.36 121.286C171.36 121.286 179.664 106.058 177.882 96.8155C176.953 91.9854 165.696 89.2097 165.696 89.2097Z" fill="url(#paint40_linear_2458_2887)"/>
<path d="M134.096 67.3794C136.924 71.0573 132.354 73.9953 132.354 73.9953C132.354 73.9953 132.613 76.7417 143.044 78.2959C143.044 78.2959 136.472 72.8483 141.039 70.038L134.096 67.3794Z" fill="#FFD8BA"/>
<path d="M132.528 77.2446C132.528 77.2446 134.33 79.858 130.93 83.1739C130.93 83.1739 132.472 86.8012 137.627 90.6893C137.627 90.6893 137.784 83.0382 142.645 81.319C142.642 81.3217 140.586 80.7548 132.528 77.2446Z" fill="#FFD8BA"/>
<g style="mix-blend-mode:multiply" opacity="0.6">
<path d="M138.163 170.94C135.51 173.17 132.799 176.092 129.068 176.59C125.337 177.087 121.313 173.928 118.549 171.674C123.907 175.461 133.089 175.254 138.163 170.94Z" fill="#CE77B5"/>
</g>
<path d="M143.459 167.445C141.124 170.245 135.923 173.936 128.746 174.322C121.321 174.721 114.863 171.302 112.224 168.75C112.224 168.75 122.882 169.915 127.939 171.533C132.895 169.308 143.459 167.445 143.459 167.445Z" fill="#FF6563"/>
<g style="mix-blend-mode:multiply" opacity="0.6">
<path d="M136.799 170.248C133.044 173.34 125.22 174.325 120.011 171.137L136.557 169.928L136.799 170.248Z" fill="#CE77B5"/>
</g>
<path d="M111.252 168.489C111.564 168.789 121.18 172.326 128.2 171.954C135.843 171.547 144.005 167.395 144.562 166.727C140.972 167.927 133.846 168.869 129.263 169.085C128.863 169.103 128.44 169.122 128.014 169.135C126.504 169.183 124.964 169.292 123.446 169.34C119.486 169.463 115.095 169.207 111.252 168.489Z" fill="#812751"/>
<path d="M119.556 167.07C123.063 165.825 132.701 165.311 136.304 166.203C139.907 167.094 139.878 166.935 143.217 167.124C138.756 168.63 133.249 169.08 128.019 169.133C122.717 169.479 118.405 169.846 112.507 168.704C115.819 168.1 116.048 168.316 119.556 167.07Z" fill="#D93F57"/>
<path d="M115.771 169.199C119.971 171.6 123.971 172.18 128.498 171.938C132.416 171.77 136.184 170.599 139.526 168.593C139.904 168.366 140.277 168.116 140.645 167.85C136.519 168.67 132.237 168.962 128.067 169.122C124.054 169.276 120.208 169.612 116.232 169.245C116.224 169.245 116.219 169.242 116.219 169.242C116.07 169.231 115.921 169.215 115.771 169.199Z" fill="#FFDDEB"/>
<path d="M112.877 167.23C111.678 168.302 110.752 169.383 110.126 170.857C110.179 169.708 110.296 168.087 110.994 167.227C111.694 166.368 112.152 166.953 112.877 167.23Z" fill="#DA6B7C"/>
<path d="M142.772 165.636C144.093 166.554 145.108 167.549 145.888 168.944C145.715 167.805 145.433 166.227 144.65 165.442C143.867 164.654 143.47 165.279 142.772 165.636Z" fill="#DA6B7C"/>
<path d="M123.191 172.22C122.57 172.837 122.6 172.829 122.267 173.638C121.995 173.527 121.726 173.412 121.454 173.298C121.484 172.462 121.484 172.499 121.979 171.869C122.36 171.962 122.807 172.127 123.191 172.22Z" fill="#FFDDEB"/>
<g style="mix-blend-mode:multiply" opacity="0.6">
<path d="M116.232 169.245C116.616 169.303 124.924 170.525 139.526 168.593C139.904 168.366 140.277 168.116 140.645 167.85C136.519 168.67 132.237 168.962 128.067 169.122C124.054 169.276 120.208 169.609 116.232 169.245Z" fill="#CE77B5"/>
</g>
</g>
<mask id="mask8_2458_2887" style="mask-type:luminance" maskUnits="userSpaceOnUse" x="52" y="52" width="148" height="148">
<path d="M199.243 136.216C198.524 143.454 196.87 150.624 194.276 157.535C193.187 160.436 191.933 163.294 190.513 166.091C178.934 180.853 163.451 191.429 146.49 196.512C137.774 199.122 128.669 200.285 119.497 199.817C93.242 198.481 71.2957 183.983 59.2852 160.042C51.0031 143.531 50.2788 124.12 57.248 105.382C64.9869 84.5711 81.4073 67.2356 101.173 59.0096C130.89 46.6427 157.526 51.8322 180.508 74.4184C195.131 92.1663 201.402 114.484 199.243 136.216Z" fill="white"/>
</mask>
<g mask="url(#mask8_2458_2887)">
<path opacity="0.1" d="M199.243 136.216C198.524 143.454 196.87 150.624 194.276 157.535C193.187 160.436 191.933 163.294 190.513 166.091C178.934 180.853 163.451 191.429 146.49 196.512C137.774 199.122 128.669 200.285 119.497 199.817C93.242 198.481 71.2957 183.983 59.2852 160.042C51.0031 143.531 50.2788 124.12 57.248 105.382C64.9869 84.5711 81.4073 67.2356 101.173 59.0096C130.89 46.6427 157.526 51.8322 180.508 74.4184C195.131 92.1663 201.402 114.484 199.243 136.216Z" fill="#371A45"/>
</g>
<mask id="mask9_2458_2887" style="mask-type:luminance" maskUnits="userSpaceOnUse" x="52" y="52" width="148" height="148">
<path d="M199.243 136.216C198.524 143.454 196.87 150.624 194.276 157.535C193.187 160.436 191.933 163.294 190.513 166.091C178.934 180.853 163.451 191.429 146.49 196.512C137.774 199.122 128.669 200.285 119.497 199.817C93.242 198.481 71.2957 183.983 59.2852 160.042C51.0031 143.531 50.2788 124.12 57.248 105.382C64.9869 84.5711 81.4073 67.2356 101.173 59.0096C130.89 46.6427 157.526 51.8322 180.508 74.4184C195.131 92.1663 201.402 114.484 199.243 136.216Z" fill="white"/>
</mask>
<g mask="url(#mask9_2458_2887)">
<g opacity="0.1">
<path d="M60.9657 159.204C88.0331 213.171 161.334 209.286 194.273 157.538L194.835 155.736C147.334 186.396 83.1943 177.715 54.7927 123.657C53.4798 135.625 55.2854 147.872 60.9657 159.204Z" fill="#220F30"/>
</g>
</g>
<mask id="mask10_2458_2887" style="mask-type:luminance" maskUnits="userSpaceOnUse" x="52" y="52" width="148" height="148">
<path d="M199.243 136.216C198.524 143.454 196.87 150.624 194.276 157.535C193.187 160.436 191.933 163.294 190.513 166.091C178.934 180.853 163.451 191.429 146.49 196.512C137.774 199.122 128.669 200.285 119.497 199.817C93.242 198.481 71.2957 183.983 59.2852 160.042C51.0031 143.531 50.2788 124.12 57.248 105.382C64.9869 84.5711 81.4073 67.2356 101.173 59.0096C130.89 46.6427 157.526 51.8322 180.508 74.4184C195.131 92.1663 201.402 114.484 199.243 136.216Z" fill="white"/>
</mask>
<g mask="url(#mask10_2458_2887)">
<g opacity="0.5">
<path d="M65.0223 131.419C64.2226 124.132 68.7203 117.661 75.068 116.965C81.4158 116.269 87.2099 121.613 88.0096 128.9C88.8092 136.187 84.3116 142.659 77.9638 143.354C71.616 144.05 65.8219 138.706 65.0223 131.419Z" fill="white"/>
</g>
</g>
<mask id="mask11_2458_2887" style="mask-type:luminance" maskUnits="userSpaceOnUse" x="52" y="52" width="148" height="148">
<path d="M199.243 136.216C198.524 143.454 196.87 150.624 194.276 157.535C193.187 160.436 191.933 163.294 190.513 166.091C178.934 180.853 163.451 191.429 146.49 196.512C137.774 199.122 128.669 200.285 119.497 199.817C93.242 198.481 71.2957 183.983 59.2852 160.042C51.0031 143.531 50.2788 124.12 57.248 105.382C64.9869 84.5711 81.4073 67.2356 101.173 59.0096C130.89 46.6427 157.526 51.8322 180.508 74.4184C195.131 92.1663 201.402 114.484 199.243 136.216Z" fill="white"/>
</mask>
<g mask="url(#mask11_2458_2887)">
<g opacity="0.5">
<path d="M74.5599 154.169C74.5108 151.142 76.6074 148.653 79.2428 148.611C81.8781 148.568 84.0543 150.988 84.1034 154.015C84.1525 157.042 82.0559 159.531 79.4205 159.574C76.7852 159.617 74.609 157.197 74.5599 154.169Z" fill="white"/>
</g>
</g>
<mask id="mask12_2458_2887" style="mask-type:luminance" maskUnits="userSpaceOnUse" x="52" y="52" width="148" height="148">
<path d="M199.243 136.216C198.524 143.454 196.87 150.624 194.276 157.535C193.187 160.436 191.933 163.294 190.513 166.091C178.934 180.853 163.451 191.429 146.49 196.512C137.774 199.122 128.669 200.285 119.497 199.817C93.242 198.481 71.2957 183.983 59.2852 160.042C51.0031 143.531 50.2788 124.12 57.248 105.382C64.9869 84.5711 81.4073 67.2356 101.173 59.0096C130.89 46.6427 157.526 51.8322 180.508 74.4184C195.131 92.1663 201.402 114.484 199.243 136.216Z" fill="white"/>
</mask>
<g mask="url(#mask12_2458_2887)">
<g opacity="0.5">
<path d="M118.376 65.4579C153.888 57.4528 185.014 85.7207 190.556 122.116C171.954 91.2695 146.415 72.0631 118.376 65.4579Z" fill="white"/>
</g>
</g>
<path d="M26.8944 169.822C32.5427 185.656 46.7768 195.588 58.6941 192.001C70.6113 188.413 75.6897 172.664 70.0414 156.83C70.0068 156.728 69.9668 156.625 69.9296 156.526C64.212 140.867 50.0737 131.087 38.2444 134.651C29.0408 137.421 23.9144 147.451 24.6601 159.169C24.8811 162.618 25.6108 166.221 26.8944 169.822Z" fill="url(#paint41_linear_2458_2887)"/>
<path d="M126.762 299.055L129.561 299.513L134.605 275.003L147.965 270.197L152.841 245.689L150.045 245.231L145.446 268.265L132.035 273.23L126.762 299.055Z" fill="#0876E4"/>
<path fill-rule="evenodd" clip-rule="evenodd" d="M105.418 253.84L114.461 250.69C115.596 250.293 116.855 250.546 117.75 251.347L124.89 257.726C125.761 258.503 126.155 259.682 125.926 260.826L123.982 270.561C123.753 271.706 122.938 272.642 121.833 273.026L112.789 276.176C111.654 276.573 110.395 276.32 109.5 275.519L102.36 269.14C101.49 268.363 101.095 267.184 101.324 266.04L103.268 256.305C103.497 255.163 104.315 254.224 105.418 253.84ZM113.734 248.614C115.625 247.954 117.724 248.374 119.218 249.708L126.357 256.087C127.809 257.383 128.464 259.349 128.083 261.255L126.139 270.99C125.758 272.895 124.397 274.457 122.56 275.099L113.516 278.25C111.625 278.91 109.527 278.489 108.033 277.156L100.893 270.777C99.4417 269.481 98.7865 267.514 99.1674 265.609L101.111 255.874C101.492 253.968 102.853 252.406 104.691 251.765L113.734 248.614Z" fill="#0876E4"/>
<path fill-rule="evenodd" clip-rule="evenodd" d="M114.877 256.084C117.359 256.579 118.97 258.99 118.477 261.468C118.392 261.896 117.977 262.173 117.548 262.088C117.119 262.003 116.842 261.587 116.927 261.159C117.252 259.536 116.195 257.955 114.571 257.63C112.943 257.305 111.362 258.359 111.037 259.983L110.76 261.375L117.737 262.766C118.507 262.921 119.007 263.669 118.853 264.438L118.049 268.461C117.793 269.744 116.544 270.575 115.26 270.319L109.061 269.082C107.777 268.826 106.944 267.578 107.199 266.298L108.003 262.274C108.123 261.667 108.616 261.228 109.196 261.146L109.489 259.674C109.979 257.196 112.395 255.589 114.877 256.084ZM109.671 262.769C109.673 262.769 109.673 262.769 109.671 262.769C109.673 262.772 109.673 262.772 109.671 262.769L117.268 264.283L116.496 268.153C116.411 268.581 115.995 268.858 115.567 268.773L109.367 267.535C108.938 267.45 108.661 267.035 108.746 266.607L109.519 262.737L109.671 262.769ZM113.053 265.215C113.396 265.284 113.617 265.617 113.548 265.957C113.479 266.298 113.146 266.521 112.805 266.452C112.461 266.383 112.24 266.05 112.31 265.71C112.379 265.369 112.712 265.146 113.053 265.215ZM114.168 266.082C114.304 265.398 113.86 264.733 113.175 264.597C112.491 264.462 111.825 264.903 111.686 265.587C111.551 266.271 111.995 266.937 112.68 267.072C113.367 267.208 114.033 266.764 114.168 266.082Z" fill="#0876E4"/>
<path d="M219.061 167.562C219.061 167.562 223.437 168.297 228.315 167.302C233.522 166.242 237.354 161.583 239.844 155.978C242.853 149.194 243.9 141.032 243.031 136.167C241.114 125.427 234.704 125.427 234.704 125.427C231.311 137.668 220.632 130.342 220.632 130.342C220.632 130.342 211.517 130.672 208.683 147.654C205.847 164.638 219.061 167.562 219.061 167.562Z" fill="url(#paint42_linear_2458_2887)"/>
<path d="M75.5033 332.829C79.5938 339.235 85.6337 343.661 92.0463 346.713L115.05 326.746C115.05 326.746 98.411 324.516 86.4965 321.234C86.4406 321.322 86.3846 321.41 86.3287 321.498C83.4712 325.961 81.0772 327.313 77.9507 330.288C77.3995 330.81 76.8269 331.382 76.2224 332.034C75.988 332.287 75.7483 332.553 75.5033 332.829Z" fill="url(#paint43_linear_2458_2887)"/>
<defs>
<linearGradient id="paint0_linear_2458_2887" x1="84.6033" y1="244.538" x2="10.4994" y2="244.538" gradientUnits="userSpaceOnUse">
<stop stop-color="#84BCFD"/>
<stop offset="1" stop-color="#D0E5FD"/>
</linearGradient>
<linearGradient id="paint1_linear_2458_2887" x1="110.362" y1="363.937" x2="60.056" y2="363.937" gradientUnits="userSpaceOnUse">
<stop stop-color="#B4D6FE"/>
<stop offset="1" stop-color="#D0E5FD"/>
</linearGradient>
<linearGradient id="paint2_linear_2458_2887" x1="54.6718" y1="347.078" x2="-0.000807146" y2="347.078" gradientUnits="userSpaceOnUse">
<stop stop-color="#B4D6FE"/>
<stop offset="1" stop-color="#D0E5FD"/>
</linearGradient>
<linearGradient id="paint3_linear_2458_2887" x1="233.173" y1="130.319" x2="212.187" y2="151.015" gradientUnits="userSpaceOnUse">
<stop stop-color="#B4D6FE"/>
<stop offset="1" stop-color="#D0E5FD"/>
</linearGradient>
<linearGradient id="paint4_linear_2458_2887" x1="110.754" y1="250.759" x2="83.9805" y2="293.893" gradientUnits="userSpaceOnUse">
<stop stop-color="#B4D6FE"/>
<stop offset="1" stop-color="#D0E5FD"/>
</linearGradient>
<linearGradient id="paint5_linear_2458_2887" x1="170.269" y1="277.015" x2="149.644" y2="277.015" gradientUnits="userSpaceOnUse">
<stop stop-color="#9AC9FD"/>
<stop offset="1" stop-color="#D0E5FD"/>
</linearGradient>
<linearGradient id="paint6_linear_2458_2887" x1="165.568" y1="269.33" x2="76.7213" y2="269.33" gradientUnits="userSpaceOnUse">
<stop stop-color="#84BCFD"/>
<stop offset="1" stop-color="#D0E5FD"/>
</linearGradient>
<linearGradient id="paint7_linear_2458_2887" x1="148.108" y1="269.329" x2="76.7259" y2="269.329" gradientUnits="userSpaceOnUse">
<stop stop-color="#84BCFD"/>
<stop offset="1" stop-color="#D0E5FD"/>
</linearGradient>
<linearGradient id="paint8_linear_2458_2887" x1="91.8794" y1="256.661" x2="38.548" y2="256.661" gradientUnits="userSpaceOnUse">
<stop stop-color="#9AC9FD"/>
<stop offset="1" stop-color="#D0E5FD"/>
</linearGradient>
<linearGradient id="paint9_linear_2458_2887" x1="64.3291" y1="278.937" x2="19.6747" y2="278.937" gradientUnits="userSpaceOnUse">
<stop stop-color="#84BCFD"/>
<stop offset="1" stop-color="#B4D6FE"/>
</linearGradient>
<linearGradient id="paint10_linear_2458_2887" x1="35.5033" y1="234.961" x2="66.1351" y2="224.173" gradientUnits="userSpaceOnUse">
<stop stop-color="#84BCFD"/>
<stop offset="1" stop-color="#B4D6FE"/>
</linearGradient>
<linearGradient id="paint11_linear_2458_2887" x1="30.4357" y1="153.237" x2="196.181" y2="103.51" gradientUnits="userSpaceOnUse">
<stop stop-color="#9AC9FD"/>
<stop offset="1" stop-color="#D0E5FD"/>
</linearGradient>
<linearGradient id="paint12_linear_2458_2887" x1="129.32" y1="200.803" x2="130.344" y2="220.2" gradientUnits="userSpaceOnUse">
<stop stop-color="#64B3C5"/>
<stop offset="1" stop-color="#46408D"/>
</linearGradient>
<linearGradient id="paint13_linear_2458_2887" x1="78.6193" y1="159.78" x2="77.0572" y2="130.216" gradientUnits="userSpaceOnUse">
<stop stop-color="#FFB29C"/>
<stop offset="0.2186" stop-color="#FF9B8E"/>
<stop offset="0.479" stop-color="#FF8781"/>
<stop offset="0.7398" stop-color="#FF7B7A"/>
<stop offset="1" stop-color="#FF7777"/>
</linearGradient>
<linearGradient id="paint14_linear_2458_2887" x1="78.6586" y1="154.037" x2="77.6315" y2="134.599" gradientUnits="userSpaceOnUse">
<stop stop-color="#FFE9DA"/>
<stop offset="0.9944" stop-color="#D077F3"/>
</linearGradient>
<linearGradient id="paint15_linear_2458_2887" x1="84.6851" y1="152.614" x2="84.2437" y2="144.261" gradientUnits="userSpaceOnUse">
<stop stop-color="#FFE9DA"/>
<stop offset="0.9944" stop-color="#D077F3"/>
</linearGradient>
<linearGradient id="paint16_linear_2458_2887" x1="177.085" y1="154.619" x2="175.523" y2="125.056" gradientUnits="userSpaceOnUse">
<stop stop-color="#FFB29C"/>
<stop offset="0.2186" stop-color="#FF9B8E"/>
<stop offset="0.479" stop-color="#FF8781"/>
<stop offset="0.7398" stop-color="#FF7B7A"/>
<stop offset="1" stop-color="#FF7777"/>
</linearGradient>
<linearGradient id="paint17_linear_2458_2887" x1="176.439" y1="148.913" x2="175.412" y2="129.475" gradientUnits="userSpaceOnUse">
<stop stop-color="#FFE9DA"/>
<stop offset="0.9944" stop-color="#D077F3"/>
</linearGradient>
<linearGradient id="paint18_linear_2458_2887" x1="170.296" y1="148.132" x2="169.855" y2="139.779" gradientUnits="userSpaceOnUse">
<stop stop-color="#FFE9DA"/>
<stop offset="0.9944" stop-color="#D077F3"/>
</linearGradient>
<linearGradient id="paint19_linear_2458_2887" x1="130.629" y1="208.701" x2="129.11" y2="179.942" gradientUnits="userSpaceOnUse">
<stop stop-color="#FFB29C"/>
<stop offset="0.2186" stop-color="#FF9B8E"/>
<stop offset="0.479" stop-color="#FF8781"/>
<stop offset="0.7398" stop-color="#FF7B7A"/>
<stop offset="1" stop-color="#FF7777"/>
</linearGradient>
<linearGradient id="paint20_linear_2458_2887" x1="129.291" y1="185.774" x2="123.658" y2="79.1716" gradientUnits="userSpaceOnUse">
<stop stop-color="#FFA995"/>
<stop offset="0.4274" stop-color="#F8AA98"/>
<stop offset="0.5417" stop-color="#FBA28F"/>
<stop offset="0.771" stop-color="#FE9883"/>
<stop offset="1" stop-color="#FF957F"/>
</linearGradient>
<linearGradient id="paint21_linear_2458_2887" x1="129.291" y1="185.774" x2="127.368" y2="149.371" gradientUnits="userSpaceOnUse">
<stop offset="0.005587" stop-color="#D077F3"/>
<stop offset="0.1573" stop-color="#D480F1"/>
<stop offset="0.4008" stop-color="#DD97EC"/>
<stop offset="0.7036" stop-color="#EDBDE4"/>
<stop offset="1" stop-color="#FFE9DA"/>
</linearGradient>
<linearGradient id="paint22_linear_2458_2887" x1="104.91" y1="114.129" x2="105.256" y2="120.679" gradientUnits="userSpaceOnUse">
<stop stop-color="#ED9963"/>
<stop offset="1" stop-color="#CE635E"/>
</linearGradient>
<linearGradient id="paint23_linear_2458_2887" x1="147.05" y1="111.925" x2="147.396" y2="118.475" gradientUnits="userSpaceOnUse">
<stop stop-color="#ED9963"/>
<stop offset="1" stop-color="#CE635E"/>
</linearGradient>
<linearGradient id="paint24_linear_2458_2887" x1="103.608" y1="149.825" x2="102.451" y2="127.941" gradientUnits="userSpaceOnUse">
<stop stop-color="#EDE1FF"/>
<stop offset="0.996" stop-color="#BCC8FA"/>
</linearGradient>
<linearGradient id="paint25_linear_2458_2887" x1="106.303" y1="142.808" x2="105.587" y2="129.243" gradientUnits="userSpaceOnUse">
<stop stop-color="#781813"/>
<stop offset="1" stop-color="#45000A"/>
</linearGradient>
<linearGradient id="paint26_linear_2458_2887" x1="106.223" y1="141.282" x2="105.618" y2="129.833" gradientUnits="userSpaceOnUse">
<stop stop-color="#AA4B15"/>
<stop offset="1" stop-color="#85171B"/>
</linearGradient>
<linearGradient id="paint27_linear_2458_2887" x1="106.129" y1="139.52" x2="105.679" y2="131.005" gradientUnits="userSpaceOnUse">
<stop stop-color="#9987A4"/>
<stop offset="0.9944" stop-color="#534181"/>
</linearGradient>
<linearGradient id="paint28_linear_2458_2887" x1="152.322" y1="147.261" x2="151.165" y2="125.376" gradientUnits="userSpaceOnUse">
<stop stop-color="#EDE1FF"/>
<stop offset="0.996" stop-color="#BCC8FA"/>
</linearGradient>
<linearGradient id="paint29_linear_2458_2887" x1="154.493" y1="140.272" x2="153.776" y2="126.707" gradientUnits="userSpaceOnUse">
<stop stop-color="#781813"/>
<stop offset="1" stop-color="#45000A"/>
</linearGradient>
<linearGradient id="paint30_linear_2458_2887" x1="154.412" y1="138.746" x2="153.807" y2="127.296" gradientUnits="userSpaceOnUse">
<stop stop-color="#AA4B15"/>
<stop offset="1" stop-color="#85171B"/>
</linearGradient>
<linearGradient id="paint31_linear_2458_2887" x1="154.319" y1="136.984" x2="153.869" y2="128.468" gradientUnits="userSpaceOnUse">
<stop stop-color="#9987A4"/>
<stop offset="0.9944" stop-color="#534181"/>
</linearGradient>
<linearGradient id="paint32_linear_2458_2887" x1="127.952" y1="158.237" x2="127.587" y2="151.336" gradientUnits="userSpaceOnUse">
<stop stop-color="#F87A7E"/>
<stop offset="0.0566" stop-color="#F97C7E"/>
<stop offset="0.5286" stop-color="#FD887F"/>
<stop offset="1" stop-color="#FF8C7F"/>
</linearGradient>
<linearGradient id="paint33_linear_2458_2887" x1="119.219" y1="158.325" x2="123.213" y2="158.114" gradientUnits="userSpaceOnUse">
<stop stop-color="#91314B"/>
<stop offset="1" stop-color="#992542"/>
</linearGradient>
<linearGradient id="paint34_linear_2458_2887" x1="136.786" y1="157.409" x2="132.793" y2="157.62" gradientUnits="userSpaceOnUse">
<stop stop-color="#91314B"/>
<stop offset="1" stop-color="#992542"/>
</linearGradient>
<linearGradient id="paint35_linear_2458_2887" x1="121.101" y1="149.544" x2="121.303" y2="153.361" gradientUnits="userSpaceOnUse">
<stop stop-color="#FFE9DA"/>
<stop offset="0.9944" stop-color="#D077F3"/>
</linearGradient>
<linearGradient id="paint36_linear_2458_2887" x1="133.984" y1="148.875" x2="134.185" y2="152.692" gradientUnits="userSpaceOnUse">
<stop stop-color="#FFE9DA"/>
<stop offset="0.9944" stop-color="#D077F3"/>
</linearGradient>
<linearGradient id="paint37_linear_2458_2887" x1="76.7182" y1="102.01" x2="180.545" y2="96.5166" gradientUnits="userSpaceOnUse">
<stop stop-color="#FEDAB6"/>
<stop offset="1" stop-color="#F4B995"/>
</linearGradient>
<linearGradient id="paint38_linear_2458_2887" x1="130.709" y1="138.534" x2="127.636" y2="80.3654" gradientUnits="userSpaceOnUse">
<stop stop-color="#FFE9DA"/>
<stop offset="0.9944" stop-color="#EA7052"/>
</linearGradient>
<linearGradient id="paint39_linear_2458_2887" x1="120.336" y1="121.56" x2="124.967" y2="85.0026" gradientUnits="userSpaceOnUse">
<stop stop-color="#FFE9DA"/>
<stop offset="0.9944" stop-color="#EA7052"/>
</linearGradient>
<linearGradient id="paint40_linear_2458_2887" x1="167.755" y1="127.567" x2="172.386" y2="91.0096" gradientUnits="userSpaceOnUse">
<stop stop-color="#FFE9DA"/>
<stop offset="0.9944" stop-color="#EA7052"/>
</linearGradient>
<linearGradient id="paint41_linear_2458_2887" x1="26.9529" y1="169.867" x2="70.2171" y2="156.887" gradientUnits="userSpaceOnUse">
<stop stop-color="#9AC9FD"/>
<stop offset="1" stop-color="#D0E5FD"/>
</linearGradient>
<linearGradient id="paint42_linear_2458_2887" x1="221.125" y1="166.732" x2="226.749" y2="142.399" gradientUnits="userSpaceOnUse">
<stop stop-color="#84BCFD"/>
<stop offset="1" stop-color="#B4D6FE"/>
</linearGradient>
<linearGradient id="paint43_linear_2458_2887" x1="82.6369" y1="327.01" x2="95.8462" y2="333.158" gradientUnits="userSpaceOnUse">
<stop stop-color="#B4D6FE"/>
<stop offset="1" stop-color="#D0E5FD"/>
</linearGradient>
</defs>
</svg>
