<svg width="365" height="411" viewBox="0 0 365 411" fill="none" xmlns="http://www.w3.org/2000/svg">
<path d="M82.22 223.281C82.22 223.281 45.3817 208.542 35.4306 221.432C24.1907 235.993 6.01483 284.155 11.0745 302.444C14.3484 314.276 35.9767 320.549 35.9767 320.549L82.22 223.281Z" fill="url(#paint0_linear_2643_23975)"/>
<path d="M69.9294 358.704C79.0962 370.704 95.2068 375.866 107.254 378.083C110.394 377.205 113.559 375.947 116.698 374.287C108.39 373.808 84.0497 370.976 73.3766 354.243C72.3311 355.439 71.1923 356.881 69.9294 358.704Z" fill="#0876E4"/>
<path d="M74.6706 409.622C94.5649 414.772 98.975 389.531 99.8963 380.925C99.9559 380.356 100.002 379.861 100.036 379.452C102.407 379.219 104.824 378.766 107.254 378.083C95.2068 375.866 79.0962 370.704 69.9293 358.704C69.6783 359.066 69.4195 359.447 69.1581 359.843C68.7207 360.503 68.1513 361.401 67.5043 362.497C66.3319 364.48 64.9059 367.102 63.5291 370.108C57.4782 383.313 52.4367 403.859 74.6706 409.622Z" fill="url(#paint1_linear_2643_23975)"/>
<path d="M15.0652 340.386C15.1325 340.547 15.2024 340.707 15.2722 340.865C22.1823 356.55 42.5373 360.925 53.1328 362.147C55.2447 361.184 57.2866 360.003 59.251 358.631C48.4226 357.528 26.8408 353.223 18.3805 336.448C17.2935 337.735 16.1832 339.048 15.0652 340.386Z" fill="#0876E4"/>
<path d="M16.4938 395.155C36.6055 400.356 40.6196 373.715 41.3779 365.135C42.2578 365.078 43.13 364.987 43.9892 364.86C47.1751 364.4 50.2238 363.475 53.1328 362.147C42.5373 360.925 22.1823 356.55 15.2722 340.865C15.2023 340.707 15.1325 340.547 15.0652 340.386C14.1439 341.492 13.2147 342.613 12.2934 343.747C11.8534 344.288 11.4134 344.834 10.9761 345.383C5.62657 352.094 -13.5819 387.362 16.4938 395.155Z" fill="url(#paint2_linear_2643_23975)"/>
<path d="M171.151 187.143C173.433 195.444 180.462 211.312 201.167 214.595C202.212 212.935 203.266 211.211 204.324 209.414C186.386 205.683 178.03 193.119 174.223 183.726C173.185 184.904 172.157 186.043 171.151 187.143Z" fill="#0876E4"/>
<path d="M296.341 29.3798C305.973 29.632 314.719 35.0561 319.226 43.5711L342.038 86.6696C346.476 95.0512 346.127 105.159 341.124 113.219L314.879 155.508C309.876 163.569 300.971 168.37 291.488 168.121L242.725 166.839C233.092 166.584 224.347 161.162 219.84 152.647L197.027 109.547C192.591 101.164 192.937 91.0575 197.941 82.9969L224.186 40.708C229.187 32.6485 238.092 27.8473 247.575 28.0964L296.341 29.3798Z" fill="#0876E4"/>
<path d="M239.45 146.577C236.058 144.473 233.214 141.487 231.285 137.842L215.592 108.179C211.807 101.023 212.107 92.3058 216.377 85.4263L234.503 56.2184C238.773 49.3388 246.454 45.1957 254.548 45.4069L288.104 46.2821C296.35 46.4977 303.868 51.1586 307.725 58.4493L323.418 88.1126C327.205 95.2675 326.903 103.985 322.633 110.865L304.507 140.073C300.237 146.952 292.558 151.094 284.461 150.882L250.905 150.007C246.783 149.901 242.842 148.681 239.45 146.577ZM295.539 56.1939C293.278 54.7914 290.65 53.9782 287.901 53.9063L254.344 53.0288C248.95 52.8881 243.828 55.6501 240.981 60.2372L222.855 89.4451C220.009 94.0323 219.809 99.8427 222.332 104.612L238.025 134.276C240.596 139.134 245.609 142.242 251.106 142.386L284.663 143.263C290.061 143.405 295.181 140.644 298.027 136.057L316.153 106.849C319 102.262 319.202 96.4508 316.676 91.68L300.982 62.0167C299.697 59.5873 297.803 57.5954 295.539 56.1939Z" fill="white"/>
<path fill-rule="evenodd" clip-rule="evenodd" d="M285.914 73.3258C277.265 67.9636 265.902 70.6264 260.536 79.2742C259.611 80.765 260.07 82.7247 261.56 83.6476C263.051 84.5729 265.011 84.1132 265.937 82.6224C269.453 76.9552 276.898 75.2107 282.563 78.7258C288.231 82.2398 289.974 89.6818 286.456 95.3466L283.44 100.205L259.139 85.1379C256.456 83.4734 252.93 84.2997 251.264 86.9828L242.552 101.023C239.777 105.494 241.154 111.371 245.626 114.144L267.225 127.538C271.7 130.313 277.575 128.934 280.351 124.462L289.062 110.422C290.375 108.308 290.14 105.666 288.667 103.83L291.856 98.6924C297.226 90.0483 294.563 78.6903 285.914 73.3258ZM282.792 107.281L256.331 90.8746L247.954 104.373C247.028 105.864 247.486 107.821 248.98 108.746L270.579 122.139C272.07 123.065 274.03 122.605 274.954 121.115L283.331 107.617L282.792 107.281ZM266.145 105.184C264.952 104.445 263.384 104.813 262.644 106.005C261.904 107.197 262.272 108.765 263.464 109.504C264.657 110.244 266.225 109.876 266.965 108.684C267.704 107.491 267.337 105.924 266.145 105.184ZM260.484 104.666C261.966 102.28 265.098 101.547 267.485 103.024C269.871 104.505 270.607 107.637 269.125 110.023C267.643 112.408 264.509 113.143 262.124 111.664C259.736 110.184 259.002 107.051 260.484 104.666Z" fill="white"/>
<path d="M174.223 183.726C178.03 193.119 186.386 205.683 204.324 209.414C205.238 207.866 206.154 206.263 207.075 204.606C209.006 201.132 210.95 197.422 212.891 193.46C212.891 193.46 217.143 194.175 221.884 193.207C226.944 192.176 230.668 187.643 233.088 182.19C236.012 175.591 237.029 167.65 236.186 162.917C234.322 152.468 228.093 152.468 228.093 152.468C226.584 149.195 223.574 146.531 218.67 144.861C206.001 140.548 199.293 150.43 199.293 150.43C194.073 158.516 188.902 165.701 183.93 172.046C181.932 174.599 179.965 177.017 178.04 179.301C176.748 180.836 175.478 182.309 174.223 183.726Z" fill="url(#paint3_linear_2643_23975)"/>
<path d="M18.3806 336.448C26.8409 353.223 48.4226 357.528 59.2511 358.631C60.8789 357.5 62.4576 356.234 63.9846 354.849C64.893 354.02 65.7859 353.153 66.658 352.244C70.0769 348.7 73.2162 344.539 76.0734 339.925C76.0734 339.925 79.0651 341.538 84.0601 342.962C84.0057 343.048 83.9514 343.133 83.897 343.219C81.1201 347.561 78.7934 348.876 75.755 351.77C75.2193 352.278 74.6629 352.834 74.0754 353.469C73.8477 353.715 73.6147 353.974 73.3766 354.243C77.3519 360.475 83.2216 364.78 89.4536 367.75C99.9559 372.76 111.483 373.987 116.698 374.287C118.111 373.539 119.519 372.713 120.919 371.799C133.833 363.39 145.899 347.902 153.277 323.876C162.83 292.743 163.834 265.796 163.87 256.693C163.87 256.693 163.865 256.688 163.87 256.68C163.878 254.557 163.834 253.41 163.834 253.41C163.834 253.41 179.393 247.051 198.071 219.343C199.091 217.826 200.124 216.244 201.167 214.595C180.462 211.312 173.433 195.444 171.151 187.143C169.774 188.645 168.431 190.071 167.121 191.425C161.893 196.836 157.24 201.101 153.443 204.332C153.443 204.332 142.465 234.745 117.49 233.062C98.6955 231.794 85.6052 224.469 77.6003 218.093C77.3441 217.885 77.0905 217.681 76.8472 217.476C70.729 212.454 67.8304 208.169 67.8304 208.169C66.7202 212.49 65.1622 217.761 63.3065 223.457C63.2056 223.773 63.0995 224.084 63.0011 224.407C61.4302 229.181 59.6755 234.228 57.8121 239.24C52.4263 253.801 46.2254 268.061 41.5565 274.539C33.2463 286.063 31.9005 316.399 31.9005 316.399C31.6961 317.686 31.15 319.107 30.3244 320.653C30.2364 320.821 30.1432 320.987 30.0449 321.155C28.1091 324.635 24.8791 328.694 21.1549 333.15C20.2569 334.227 19.3278 335.327 18.3806 336.448Z" fill="url(#paint4_linear_2643_23975)"/>
<path d="M214.666 158.236C214.744 157.959 214.824 157.674 214.914 157.384L214.526 158.101L214.666 158.236Z" fill="white"/>
<path d="M142.835 212.438C143.15 212.236 147.11 209.722 153.441 204.332L142.835 212.438Z" fill="white"/>
<path d="M137.565 319.609C133.771 319.4 129.527 319.094 124.982 318.662C127.669 319.115 130.148 319.498 132.363 319.822C134.136 320.073 135.899 319.992 137.565 319.609Z" fill="white"/>
<path d="M155.451 309.968C149.917 309.968 145.43 305.479 145.43 299.943C145.43 294.406 149.917 289.918 155.451 289.918C160.986 289.918 165.472 294.406 165.472 299.943C165.472 305.479 160.986 309.968 155.451 309.968Z" fill="url(#paint5_linear_2643_23975)"/>
<path d="M84.9348 315.14L123.191 321.385L125.911 321.831L141.626 324.396C148.337 325.489 154.729 320.898 155.824 314.177L156.846 307.899L160.741 283.997C161.844 277.278 157.245 270.886 150.526 269.791L148.536 269.467L145.819 269.022L93.8455 260.54C93.0095 260.403 92.1788 260.351 91.3661 260.387C85.6232 260.62 80.605 264.874 79.6448 270.756L74.7224 300.937C73.6276 307.658 78.2266 314.048 84.9348 315.14Z" fill="url(#paint6_linear_2643_23975)"/>
<path d="M143.937 324.544C143.179 324.577 142.41 324.528 141.626 324.396L84.9348 315.14C80.0175 314.335 76.2337 310.695 74.9993 306.151C74.5463 304.499 74.4325 302.731 74.7275 300.937L76.9092 287.528L77.6287 283.103L79.6422 270.756C80.737 264.035 87.132 259.445 93.8428 260.537L106.092 262.541C100.272 262.684 95.1602 266.961 94.1871 272.905L91.524 289.206L89.262 303.091C88.1698 309.804 92.7662 316.202 99.477 317.297L143.937 324.544Z" fill="url(#paint7_linear_2643_23975)"/>
<path d="M45.405 262.829C45.405 262.829 39.9597 265.252 38.1662 270.919C36.0932 277.472 39.2557 281.301 39.2557 281.301C39.2557 281.301 53.7928 295.588 82.9964 297.455C82.9964 297.455 94.1095 289.001 86.8034 280.263C86.806 280.263 56.6216 276.002 45.405 262.829Z" fill="url(#paint8_linear_2643_23975)"/>
<g opacity="0.35">
<path d="M38.5518 280.131C39.4344 278.001 40.4334 276.095 41.5566 274.536C42.1389 273.729 42.7471 272.799 43.376 271.756C42.5685 269.483 42.4701 266.974 43.1948 264.566C43.2129 264.499 43.2388 264.437 43.2569 264.367C43.288 264.26 43.3242 264.149 43.376 264.051C41.6316 265.299 39.2429 267.528 38.1688 270.925C36.7661 275.352 37.7573 278.537 38.5518 280.131Z" fill="#371A45"/>
</g>
<path d="M21.1136 281.105C22.1851 280.75 23.316 280.46 24.491 280.229C34.7345 278.223 48.4589 280.727 56.9788 282.775C57.2065 281.288 57.5533 279.466 58.0813 277.426C47.8637 274.836 31.1242 271.882 22.6354 275.398C22.0582 277.306 21.551 279.212 21.1136 281.105Z" fill="#0876E4"/>
<path d="M21.5845 312.176C23.0416 315.816 26.2637 318.995 30.0449 321.155C38.9866 326.27 51.0728 325.711 50.4025 312.176C50.0168 304.416 55.8141 308.321 58.7748 307.873C61.7278 307.42 63.7956 305.478 61.6035 298.889C60.8685 296.67 59.4451 292.716 57.7318 289.18C57.3514 288.39 56.9554 287.624 56.5517 286.899C56.5517 286.899 56.5879 285.332 56.9787 282.774C48.4588 280.726 34.7344 278.223 24.4909 280.229C23.3159 280.46 22.185 280.75 21.1135 281.105C20.5416 283.572 20.0912 286.019 19.7626 288.413C18.5229 297.478 19.056 305.851 21.5845 312.176Z" fill="url(#paint9_linear_2643_23975)"/>
<path d="M22.6353 275.398C31.1241 271.882 47.8636 274.836 58.0812 277.426C58.5419 275.649 59.1423 273.705 59.9187 271.667C62.1522 265.811 65.8686 259.193 72.0437 253.588L75.1106 233.992L77.6003 218.092L77.7349 217.228C77.7349 217.228 77.4243 217.303 76.8471 217.476C74.8751 218.066 69.7714 219.78 63.3065 223.457C63.0451 223.604 62.7785 223.76 62.5119 223.915C53.4564 229.204 41.9421 238.284 32.5811 253.321C29.5816 258.145 27.0453 263.289 25.0111 268.519C24.1208 270.803 23.3289 273.102 22.6353 275.398Z" fill="url(#paint10_linear_2643_23975)"/>
<path d="M193.63 162.964C192.639 172.963 189.813 182.825 185.147 192.029C183.369 195.537 181.324 198.949 179.01 202.237C177.3 204.669 175.452 207.027 173.454 209.306C172.486 210.416 171.471 211.509 170.431 212.588C167.274 215.833 163.917 218.766 160.392 221.394C157.361 223.664 154.199 225.705 150.951 227.517C147.765 229.296 144.486 230.852 141.137 232.19C140.363 232.498 139.584 232.796 138.803 233.083C137.283 233.632 135.754 234.142 134.216 234.608C128.906 236.211 123.468 237.285 117.987 237.832C117.987 237.832 117.987 237.832 117.984 237.832C94.3864 240.18 69.9914 232.721 51.6137 215.289C18.2434 183.651 17.3427 131.147 49.5873 98.0152C55.8012 91.6384 62.7941 86.4318 70.2735 82.4343C71.1431 81.9605 72.0308 81.5074 72.9263 81.0725C75.3125 79.8971 77.74 78.8407 80.2039 77.9061C85.9053 75.7416 91.7983 74.2141 97.7586 73.3183C103.716 72.4173 109.759 72.1506 115.758 72.5209C117.001 72.5985 118.243 72.6995 119.483 72.8289C120.145 72.8989 120.808 72.9765 121.473 73.062C124.322 73.4348 127.151 73.9422 129.964 74.6076C131.991 75.0814 134.002 75.6303 135.994 76.2568C147.778 79.9514 158.899 86.2972 168.405 95.3148C170.933 97.7097 173.273 100.226 175.426 102.844C189.634 120.11 195.729 141.822 193.63 162.964Z" fill="url(#paint11_linear_2643_23975)"/>
<path d="M135.992 76.2596C135.117 76.0214 134.24 75.8013 133.355 75.5916C125.58 75.4207 117.472 76.5962 109.146 79.0946C105.877 80.0759 102.575 81.2616 99.2442 82.6468C77.9316 91.5246 60.2189 110.259 51.8595 132.763C44.3853 152.89 45.141 173.698 53.9895 191.358C63.6792 210.688 79.1117 224.219 98.6178 230.489C112.065 234.81 126.786 235.32 141.134 232.19C140.361 232.498 139.582 232.796 138.8 233.083C137.281 233.632 135.751 234.142 134.214 234.608C128.903 236.211 123.466 237.286 117.984 237.832C117.984 237.832 117.984 237.832 117.982 237.832C110.971 237.446 104.073 236.201 97.4662 234.078C76.974 227.491 60.7754 213.303 50.6199 193.044C41.2977 174.442 40.4825 152.567 48.3269 131.448C57.0408 107.983 75.535 88.4359 97.7948 79.1645C105.155 76.0991 112.407 73.9812 119.478 72.8291C120.14 72.899 120.803 72.9767 121.468 73.0621C124.317 73.4349 127.146 73.9424 129.959 74.6078C131.986 75.0842 133.999 75.633 135.992 76.2596Z" fill="#9CBDEA"/>
<mask id="mask0_2643_23975" style="mask-type:luminance" maskUnits="userSpaceOnUse" x="51" y="81" width="144" height="144">
<path d="M193.63 162.964C192.932 170.006 191.324 176.981 188.804 183.705C187.745 186.527 186.526 189.308 185.147 192.029C173.894 206.39 158.847 216.679 142.364 221.624C133.893 224.164 125.044 225.296 116.131 224.84C90.6156 223.54 69.2875 209.435 57.6154 186.144C49.5665 170.081 48.8626 151.197 55.6355 132.967C63.1564 112.721 79.1143 95.856 98.3228 87.8533C127.203 75.822 153.089 80.8706 175.423 102.844C189.634 120.11 195.729 141.822 193.63 162.964Z" fill="white"/>
</mask>
<g mask="url(#mask0_2643_23975)">
<path d="M193.63 162.964C192.932 170.006 191.324 176.981 188.804 183.705C187.745 186.527 186.526 189.308 185.147 192.029C173.894 206.39 158.847 216.679 142.364 221.624C133.893 224.164 125.044 225.296 116.131 224.84C90.6156 223.54 69.2875 209.435 57.6154 186.144C49.5665 170.081 48.8626 151.197 55.6355 132.967C63.1564 112.721 79.1143 95.856 98.3228 87.8533C127.203 75.822 153.089 80.8706 175.423 102.844C189.634 120.11 195.729 141.822 193.63 162.964Z" fill="#371A45"/>
</g>
<mask id="mask1_2643_23975" style="mask-type:luminance" maskUnits="userSpaceOnUse" x="51" y="81" width="144" height="144">
<path d="M193.63 162.964C192.932 170.006 191.324 176.981 188.804 183.705C187.745 186.527 186.526 189.308 185.147 192.029C173.894 206.39 158.847 216.679 142.364 221.624C133.893 224.164 125.044 225.296 116.131 224.84C90.6156 223.54 69.2875 209.435 57.6154 186.144C49.5665 170.081 48.8626 151.197 55.6355 132.967C63.1564 112.721 79.1143 95.856 98.3228 87.8533C127.203 75.822 153.089 80.8706 175.423 102.844C189.634 120.11 195.729 141.822 193.63 162.964Z" fill="white"/>
</mask>
<g mask="url(#mask1_2643_23975)">
<path d="M177.969 171.412C173.345 181.839 158.89 204.962 149.607 207.256C146.262 208.083 148.193 204.702 148.85 202.392C149.395 200.458 116.193 191.358 93.698 193.929C95.0758 175.811 98.9198 126.932 100.584 122.182C94.9844 130.136 85.9615 148.886 83.4054 156.817C80.5452 165.668 82.6356 183.05 81.1004 182.365C80.7448 182.207 80.4072 182.011 80.0889 181.788C82.096 187.449 85.0073 191.87 87.5738 195.005C85.5776 195.502 83.7308 196.13 82.0765 196.913C82.0765 196.913 81.9737 199.345 80.219 199.552C77.1151 199.919 67.2313 182.306 66.5157 172.504C66.5157 172.504 62.103 170.19 60.0569 161.221C58.0067 152.26 62.7785 139.722 66.3397 135.95C67.0997 135.145 68.4092 133.526 70.0373 131.442C70.0431 131.433 70.0482 131.43 70.0489 131.425C70.054 131.422 70.0547 131.417 70.0547 131.417C76.0502 123.731 86.3607 109.742 89.6394 106.732C93.8093 102.9 100.474 109.003 100.474 109.003C100.474 109.003 114.89 93.199 125.874 97.1133C128.631 98.0943 132.053 100.393 136.152 103.25C141.946 107.276 149.094 112.41 157.63 116.506C168.672 121.806 174.6 126.413 177.72 133.015C178.727 135.131 179.443 137.451 179.944 140.06C179.945 140.06 183.145 159.738 177.969 171.412Z" fill="url(#paint12_linear_2643_23975)"/>
<g style="mix-blend-mode:multiply" opacity="0.9">
<path d="M177.969 171.413C173.345 181.839 158.89 204.962 149.607 207.256C147.956 207.663 147.589 207.048 147.728 206.04C150.11 204.319 152.304 202.303 154.194 199.946C156.467 197.107 157.465 191.011 158.105 183.942C157.122 185.15 156.153 186.272 155.229 187.296C152.366 190.483 156.358 168.849 148.371 164.414C141.23 162.184 133.326 157.864 133.077 157.731C133.127 157.922 134.532 163.316 131.141 162.502C127.691 161.67 120.492 154.89 120.492 154.89C120.492 154.89 112.593 153.223 106.563 145.909C102.354 140.803 101.009 128.901 100.584 122.183C101.561 119.394 101.577 116.264 101.331 113.753C101.255 112.967 101.391 112.147 101.283 111.512C101.012 109.931 100.476 109.004 100.476 109.004C100.476 109.004 107.566 100.999 116.27 97.6689C116.27 97.6689 114.271 99.8338 113.378 103.322C113.378 103.322 112.687 106.71 115.662 110.153C115.662 110.153 112.473 107.272 107.667 108.793C107.667 108.793 107.156 109.927 106.934 111.602C106.811 112.487 106.768 113.518 106.919 114.62C106.919 114.62 108.716 135.648 121.693 147.108C121.693 147.108 122.285 126.548 117.03 113.196C117.03 113.196 134.828 139.341 152.181 150.834C152.181 150.834 157.138 140.947 156.867 135.943C156.675 132.406 152.873 124.084 150.653 119.509C149.738 117.608 149.09 116.355 149.09 116.355C149.094 116.356 149.098 116.361 149.102 116.361C149.621 116.709 166.282 127.956 171.465 138.935C172.813 141.792 177.917 138.267 177.721 133.014C178.728 135.13 179.443 137.45 179.944 140.059C179.945 140.06 183.145 159.738 177.969 171.413Z" fill="#D077B7"/>
</g>
<g style="mix-blend-mode:multiply" opacity="0.9">
<path d="M87.5733 195.008C85.5771 195.505 83.7303 196.133 82.0759 196.916C82.0759 196.916 81.9731 199.348 80.2184 199.555C77.1145 199.923 67.2307 182.309 66.5151 172.507C66.5151 172.507 62.1024 170.193 60.0563 161.224C58.0066 152.26 62.7784 139.722 66.3396 135.95C67.0996 135.145 68.4091 133.526 70.0372 131.442C69.7198 131.988 64.3076 141.407 64.2869 144.876C64.2869 144.876 66.0677 145.451 70.1485 140.265C73.5824 135.905 77.7459 130.32 78.9876 128.65C77.7821 130.369 73.8399 136.522 71.4313 146.596C71.4196 146.643 71.4083 146.687 71.3963 146.735C71.1301 147.852 70.8878 149.019 70.6637 150.237C70.4353 151.48 70.2306 152.778 70.0642 154.121L67.9742 171.753L72.4304 165.085C72.4304 165.085 76.8335 141.744 83.8177 132.085C90.1778 123.282 93.3038 119.554 93.8115 118.962C92.8774 120.12 82.7646 133.082 78.3219 158.975C76.7729 168.002 77.8953 175.629 80.0882 181.792C82.0954 187.452 85.0053 191.873 87.5733 195.008Z" fill="#D077B7"/>
</g>
<path d="M111.83 229.797C91.5329 226.665 85.0557 228.948 83.8323 230.402C83.8323 230.402 82.7089 233.63 81.3108 234.588C81.3108 234.588 79.1783 236.252 77.3301 236.085C75.4804 235.918 73.8975 234.031 72.5879 234.415C71.2783 234.798 68.9349 237.84 68.9349 237.84L58.5831 240.933L154.176 255.686C154.176 255.686 138.649 246.956 135.368 243.107C135.368 243.107 132.909 238.798 134.326 236.905C134.326 236.905 132.372 232.969 111.83 229.797Z" fill="url(#paint13_linear_2643_23975)"/>
<path d="M82.0078 161.501C82.0078 161.501 81.2304 156.279 73.9749 151.992C66.7195 147.705 63.0818 151.894 61.7701 156.97C60.4584 162.046 64.4576 176.035 69.956 179.171C75.4545 182.307 79.3558 178.685 79.3558 178.685L82.0078 161.501Z" fill="url(#paint14_linear_2643_23975)"/>
<g style="mix-blend-mode:multiply" opacity="0.6">
<path d="M80.6307 170.424L79.8227 175.66C79.8227 175.66 78.3424 169.293 76.8683 169.153C75.3943 169.014 75.3861 173.059 74.6579 174.354C73.9297 175.65 72.094 173.871 72.3193 169.331C72.5461 164.791 75.614 165.315 75.614 165.315C75.614 165.315 73.4379 156.806 68.8704 158.476C64.3015 160.146 65.095 171.15 65.095 171.15C65.095 171.15 60.8577 160.166 62.6437 156.636C64.4283 153.106 68.0692 153.398 73.3687 157.823C75.9676 159.992 78.1662 164.295 79.731 168.113C80.0601 168.913 80.3609 169.691 80.6307 170.424Z" fill="url(#paint15_linear_2643_23975)"/>
</g>
<g style="mix-blend-mode:multiply" opacity="0.6">
<path d="M80.7045 169.947L80.1536 173.516C79.5351 171.687 77.883 167.268 76.6697 168.155C75.1507 169.268 75.4704 171.797 74.1153 173.309C72.7588 174.821 71.8821 170.055 73.2568 167.19C74.6315 164.324 78.0597 166.074 79.0044 167.093C79.2315 167.338 79.478 167.693 79.7325 168.113C80.053 168.646 80.3858 169.285 80.7045 169.947Z" fill="url(#paint16_linear_2643_23975)"/>
</g>
<path d="M157.415 173.139C157.415 173.139 159.731 168.393 167.941 166.494C176.151 164.594 178.357 169.685 178.077 174.92C177.798 180.155 169.767 192.287 163.579 193.619C157.391 194.952 154.763 190.323 154.763 190.323L157.415 173.139Z" fill="url(#paint17_linear_2643_23975)"/>
<g style="mix-blend-mode:multiply" opacity="0.6">
<path d="M156.038 182.062L155.23 187.297C155.23 187.297 158.561 181.673 160.009 181.984C161.456 182.295 160.244 186.155 160.548 187.609C160.852 189.064 163.139 187.921 164.292 183.525C165.445 179.128 162.362 178.702 162.362 178.702C162.362 178.702 167.002 171.246 170.853 174.215C174.706 177.185 170.632 187.437 170.632 187.437C170.632 187.437 177.984 178.242 177.345 174.337C176.708 170.433 173.148 169.615 166.761 172.236C163.629 173.521 160.236 176.96 157.593 180.129C157.038 180.793 156.516 181.444 156.038 182.062Z" fill="url(#paint18_linear_2643_23975)"/>
</g>
<g style="mix-blend-mode:multiply" opacity="0.6">
<path d="M156.112 181.585L155.561 185.154C156.702 183.597 159.61 179.881 160.499 181.093C161.612 182.612 160.545 184.927 161.381 186.777C162.218 188.628 164.491 184.348 164.044 181.201C163.597 178.055 159.801 178.689 158.593 179.376C158.303 179.542 157.961 179.805 157.591 180.13C157.124 180.54 156.615 181.049 156.112 181.585Z" fill="url(#paint19_linear_2643_23975)"/>
</g>
<path d="M125.208 233.403C125.912 228.84 129.264 207.123 129.264 207.123L113.706 206.59L98.7112 202.408C98.7112 202.408 95.3596 224.125 94.6554 228.688C93.9512 233.251 90.463 234.244 90.463 234.244C90.463 234.244 92.8688 239.146 108.314 241.53C123.76 243.914 127.53 239.965 127.53 239.965C127.53 239.965 124.504 237.966 125.208 233.403Z" fill="url(#paint20_linear_2643_23975)"/>
<g style="mix-blend-mode:multiply" opacity="0.6">
<path d="M129.264 207.123C129.264 207.123 127.356 219.49 126.117 227.52C123.303 229.617 119.826 231.074 115.715 230.748C105.597 229.946 99.2814 216.763 97.2581 211.816C98.0522 206.67 98.7103 202.406 98.7103 202.406L113.707 206.589L129.264 207.123Z" fill="#D077B7"/>
</g>
<path d="M160.189 159.964C162.19 146.999 168.671 117.247 128.33 111.021C87.9903 104.795 85.1984 135.117 83.1975 148.082C81.1064 161.632 74.0917 180.865 76.8597 188.011C83.4998 205.151 104.735 213.746 112.296 214.913C119.857 216.08 142.695 214.287 154.194 199.946C158.987 193.967 158.098 173.514 160.189 159.964Z" fill="url(#paint21_linear_2643_23975)"/>
<g style="mix-blend-mode:multiply" opacity="0.6">
<path d="M154.194 199.946C142.697 214.288 119.859 216.08 112.296 214.913C104.735 213.746 83.4999 205.151 76.8597 188.011C75.8984 185.529 76.817 177.056 77.4731 173.217C77.0347 176.421 76.2598 184.355 77.0922 186.504C83.7324 203.644 104.967 212.238 112.529 213.405C120.09 214.572 142.928 212.779 154.427 198.439C155.87 196.639 157.521 188.842 158.069 185.656C157.537 189.514 155.859 197.87 154.194 199.946Z" fill="url(#paint22_linear_2643_23975)"/>
</g>
<path d="M112.455 150.678C112.455 150.678 110.601 149.512 105.833 148.607C105.832 148.607 105.832 148.607 105.831 148.606C104.416 148.338 102.744 148.094 100.788 147.908C92.2394 147.099 86.0204 147.72 86.0204 147.72C86.0937 147.578 88.9987 144.253 92.245 143.07C92.2186 143.104 91.7488 143.677 91.6916 144.361C91.6916 144.361 95.5292 142.271 100.442 141.941C101.359 141.879 102.312 141.878 103.286 141.965C109.478 142.513 111.672 147.469 111.672 147.469C111.672 147.469 111.704 146.275 111.162 145.477C111.165 145.477 112.96 147.082 112.455 150.678Z" fill="url(#paint23_linear_2643_23975)"/>
<g style="mix-blend-mode:multiply" opacity="0.6">
<path d="M105.83 148.607C104.416 148.338 102.744 148.094 100.788 147.909C92.2392 147.099 86.0202 147.72 86.0202 147.72C86.0935 147.578 88.9985 144.253 92.2449 143.071C92.2185 143.104 91.7487 143.677 91.6915 144.361C91.6915 144.361 95.529 142.271 100.442 141.941C98.6345 142.511 94.6984 143.828 92.146 146.369C92.149 146.369 96.9779 145.477 105.83 148.607Z" fill="#D077B7"/>
</g>
<path d="M131.754 153.656C131.754 153.656 133.872 153.104 138.691 153.678C138.693 153.678 138.693 153.678 138.694 153.678C140.124 153.849 141.791 154.12 143.712 154.533C152.107 156.339 157.85 158.805 157.85 158.805C157.823 158.648 156.055 154.602 153.317 152.496C153.332 152.536 153.607 153.223 153.455 153.893C153.455 153.893 150.426 150.743 145.841 148.947C144.986 148.613 144.077 148.324 143.123 148.113C137.054 146.769 133.466 150.832 133.466 150.832C133.466 150.832 133.796 149.685 134.553 149.087C134.551 149.087 132.357 150.075 131.754 153.656Z" fill="url(#paint24_linear_2643_23975)"/>
<path opacity="0.6" d="M138.694 153.678C140.124 153.849 141.791 154.12 143.712 154.533C152.107 156.339 157.85 158.805 157.85 158.805C157.823 158.648 156.055 154.602 153.316 152.496C153.331 152.536 153.607 153.223 153.455 153.893C153.455 153.893 150.426 150.743 145.841 148.947C147.393 150.036 150.749 152.478 152.416 155.67C152.413 155.67 148.078 153.363 138.694 153.678Z" fill="#D077B7"/>
<path d="M127.224 187.608C126.664 188.61 122.813 187.776 121.57 188.061C120.327 188.346 119.18 189.6 116.047 189.116C112.914 188.633 112.198 187.092 111.099 186.445C110 185.799 106.076 185.432 105.844 184.308C105.367 182.003 106.565 180.561 107.861 179.697L107.861 179.695C108.492 179.276 109.144 178.991 109.641 178.813C110.202 178.612 110.728 178.332 111.221 178.001C112.955 176.829 114.865 176.4 116.222 176.252C117.427 176.12 118.647 176.308 119.755 176.797C121.004 177.349 122.696 178.332 123.996 179.972C124.366 180.438 124.784 180.863 125.258 181.223C125.694 181.556 126.261 182.049 126.748 182.677C127.697 183.889 128.35 185.597 127.224 187.608Z" fill="url(#paint25_linear_2643_23975)"/>
<g style="mix-blend-mode:multiply" opacity="0.6">
<path d="M127.224 187.608C126.664 188.61 122.813 187.776 121.57 188.061C120.327 188.346 119.18 189.6 116.047 189.116C112.914 188.633 112.198 187.092 111.099 186.445C110 185.799 106.077 185.433 105.844 184.308C105.367 182.003 106.565 180.561 107.861 179.697C106.337 182.226 106.506 183.961 107.181 184.104C107.853 184.248 110.13 183.924 111.907 184.516C113.683 185.108 114.324 185.644 116.437 185.97C118.55 186.296 119.321 185.978 121.195 185.949C123.067 185.92 125.141 186.915 125.827 186.982C126.511 187.048 127.196 185.445 126.507 182.573L126.751 182.677C127.697 183.889 128.35 185.597 127.224 187.608Z" fill="#D077B7"/>
</g>
<path d="M108.261 185.586C109.915 185.229 111.099 186.444 111.099 186.444L108.261 185.586Z" fill="url(#paint26_linear_2643_23975)"/>
<path d="M124.447 188.084C122.978 187.245 121.483 188.046 121.483 188.046L124.447 188.084Z" fill="url(#paint27_linear_2643_23975)"/>
<g style="mix-blend-mode:multiply" opacity="0.6">
<path d="M106.023 184.63C106.023 184.63 106.089 184.065 107.18 184.104C108.272 184.144 110.192 183.774 112.082 184.663C113.972 185.551 115.479 185.91 116.724 186.012C117.968 186.113 121.124 185.581 122.757 186.074C124.39 186.567 125.155 186.878 125.827 186.982C126.498 187.086 127.079 187.47 126.956 187.86C126.834 188.25 121.375 192.43 115.665 191.549C109.955 190.668 106.023 184.63 106.023 184.63Z" fill="#D077B7"/>
</g>
<g style="mix-blend-mode:multiply" opacity="0.6">
<path d="M109.285 178.951C110.606 179.213 109.712 181.573 109.712 181.573C109.712 181.573 111.057 179.83 110.495 178.437L109.285 178.951Z" fill="url(#paint28_linear_2643_23975)"/>
</g>
<g style="mix-blend-mode:multiply" opacity="0.6">
<path d="M125.471 181.449C124.133 181.301 124.274 183.821 124.274 183.821C124.274 183.821 123.517 181.753 124.472 180.594L125.471 181.449Z" fill="url(#paint29_linear_2643_23975)"/>
</g>
<path d="M119.367 183.063C118.762 183.697 119.073 184.19 119.154 184.441C119.235 184.693 120.632 184.909 120.785 184.693C120.938 184.477 121.111 183.354 120.997 183.315C120.884 183.278 119.61 182.807 119.367 183.063Z" fill="#FFCEBE"/>
<path d="M153.576 174.389C153.576 174.389 151.157 177.959 145.151 178.689C139.147 179.42 132.974 178.521 129.463 176.389C129.463 176.389 129.821 175.117 130.758 173.462C130.758 173.46 130.76 173.458 130.76 173.456C132.385 170.588 135.749 166.574 141.995 166.036C150.657 165.295 153.037 172.307 153.489 174.018C153.549 174.256 153.576 174.389 153.576 174.389Z" fill="url(#paint30_linear_2643_23975)"/>
<mask id="mask2_2643_23975" style="mask-type:luminance" maskUnits="userSpaceOnUse" x="129" y="165" width="25" height="14">
<path d="M129.464 176.39C129.464 176.39 132.141 166.884 141.996 166.038C151.852 165.191 153.575 174.39 153.575 174.39C153.575 174.39 151.155 177.96 145.151 178.689C139.146 179.419 132.974 178.521 129.464 176.39Z" fill="white"/>
</mask>
<g mask="url(#mask2_2643_23975)">
<mask id="mask3_2643_23975" style="mask-type:luminance" maskUnits="userSpaceOnUse" x="131" y="164" width="25" height="14">
<path d="M131.672 175.286C131.672 175.286 134.349 165.78 144.204 164.934C154.06 164.087 155.783 173.286 155.783 173.286C155.783 173.286 153.363 176.856 147.359 177.585C141.354 178.315 135.182 177.417 131.672 175.286Z" fill="white"/>
</mask>
<g mask="url(#mask3_2643_23975)">
<path d="M141.51 177.965C145.963 178.652 150.13 175.599 150.817 171.146C151.504 166.694 148.451 162.527 143.999 161.84C139.546 161.152 135.379 164.205 134.692 168.658C134.004 173.111 137.057 177.277 141.51 177.965Z" fill="url(#paint31_linear_2643_23975)"/>
</g>
<mask id="mask4_2643_23975" style="mask-type:luminance" maskUnits="userSpaceOnUse" x="131" y="164" width="25" height="14">
<path d="M131.672 175.286C131.672 175.286 134.349 165.78 144.204 164.934C154.06 164.087 155.783 173.286 155.783 173.286C155.783 173.286 153.363 176.856 147.359 177.585C141.354 178.315 135.182 177.417 131.672 175.286Z" fill="white"/>
</mask>
<g mask="url(#mask4_2643_23975)">
<path d="M135.333 168.757C134.701 172.856 137.51 176.689 141.609 177.322C145.708 177.954 149.541 175.145 150.173 171.048C150.806 166.949 147.996 163.114 143.899 162.482C139.801 161.849 135.966 164.659 135.333 168.757Z" fill="url(#paint32_linear_2643_23975)"/>
</g>
<mask id="mask5_2643_23975" style="mask-type:luminance" maskUnits="userSpaceOnUse" x="129" y="165" width="25" height="14">
<path d="M129.464 176.39C129.464 176.39 132.141 166.884 141.996 166.038C151.852 165.191 153.575 174.39 153.575 174.39C153.575 174.39 151.155 177.96 145.151 178.689C139.146 179.419 132.974 178.521 129.464 176.39Z" fill="white"/>
</mask>
<g mask="url(#mask5_2643_23975)">
<g style="mix-blend-mode:multiply">
<path d="M142.052 174.45C144.564 174.838 146.915 173.116 147.302 170.604C147.69 168.092 145.968 165.742 143.456 165.354C140.944 164.967 138.594 166.689 138.206 169.2C137.819 171.712 139.541 174.063 142.052 174.45Z" fill="url(#paint33_linear_2643_23975)"/>
</g>
</g>
</g>
<g style="mix-blend-mode:multiply" opacity="0.6">
<path d="M153.489 174.018C151.651 172.087 148.216 169.919 143.08 169.126C136.728 168.146 131.057 172.993 130.762 173.456C132.387 170.588 135.751 166.574 141.996 166.036C150.659 165.295 153.038 172.309 153.489 174.018Z" fill="#D077B7"/>
</g>
<path d="M131.798 171.845C131.798 171.845 133.433 164.262 140.734 162.463C149.858 160.213 152.783 172.076 152.783 172.076C152.783 172.076 144.213 158.837 131.798 171.845Z" fill="#DC4C6A"/>
<path d="M132.914 177.862C133.598 178.052 145.265 177.95 152.328 175.702C152.519 175.641 149.305 179.106 144.096 179.557C136.956 180.175 132.914 177.862 132.914 177.862Z" fill="#DC6B7C"/>
<path d="M130.759 173.464C130.759 173.464 128.288 175.898 128.398 176.696C128.51 177.494 131.319 177.307 131.319 177.307C131.319 177.307 129.945 176.296 130.033 175.811C130.121 175.329 130.759 173.464 130.759 173.464Z" fill="#E08A97"/>
<path d="M153.332 173.484C153.332 173.484 153.189 169.871 152.587 168.712C151.984 167.554 147.542 164.667 141.999 164.664C136.454 164.66 132.849 169.672 131.013 173.03C131.013 173.03 136.784 165.706 143.91 166.946C151.034 168.188 153.332 173.484 153.332 173.484Z" fill="#4E1B3D"/>
<path d="M148.587 170.557C148.299 170.767 152.085 172.515 152.356 172.132C152.629 171.747 149.229 170.09 148.587 170.557Z" fill="white"/>
<path d="M145.805 169.38C145.547 169.421 145.387 170.135 145.692 170.109C145.998 170.084 146.556 170.141 146.597 169.878C146.639 169.616 146.151 169.328 145.805 169.38Z" fill="white"/>
<path d="M86.3426 164.032C86.3426 164.032 87.5727 168.166 93.0774 170.673C98.5821 173.18 104.738 174.183 108.729 173.209C108.729 173.209 108.771 171.888 108.377 170.027C108.377 170.026 108.376 170.023 108.376 170.021C107.691 166.797 105.694 161.955 99.9014 159.56C91.8653 156.241 87.4821 162.21 86.5354 163.705C86.4081 163.912 86.3426 164.032 86.3426 164.032Z" fill="url(#paint34_linear_2643_23975)"/>
<mask id="mask6_2643_23975" style="mask-type:luminance" maskUnits="userSpaceOnUse" x="86" y="158" width="23" height="16">
<path d="M108.729 173.209C108.729 173.209 109.043 163.339 99.9017 159.561C90.7589 155.782 86.3429 164.034 86.3429 164.034C86.3429 164.034 87.5744 168.167 93.0793 170.673C98.5828 173.178 104.739 174.181 108.729 173.209Z" fill="white"/>
</mask>
<g mask="url(#mask6_2643_23975)">
<mask id="mask7_2643_23975" style="mask-type:luminance" maskUnits="userSpaceOnUse" x="87" y="157" width="23" height="16">
<path d="M109.833 172.105C109.833 172.105 110.147 162.235 101.006 158.457C91.8629 154.678 87.4469 162.929 87.4469 162.929C87.4469 162.929 88.6785 167.063 94.1834 169.569C99.6868 172.074 105.843 173.077 109.833 172.105Z" fill="white"/>
</mask>
<g mask="url(#mask7_2643_23975)">
<path d="M99.6456 171.693C104.098 172.38 108.265 169.327 108.952 164.874C109.64 160.422 106.587 156.255 102.134 155.568C97.6813 154.88 93.5145 157.933 92.8273 162.386C92.1401 166.839 95.1927 171.005 99.6456 171.693Z" fill="url(#paint35_linear_2643_23975)"/>
</g>
<mask id="mask8_2643_23975" style="mask-type:luminance" maskUnits="userSpaceOnUse" x="87" y="157" width="23" height="16">
<path d="M109.833 172.105C109.833 172.105 110.147 162.235 101.006 158.457C91.8629 154.678 87.4469 162.929 87.4469 162.929C87.4469 162.929 88.6785 167.063 94.1834 169.569C99.6868 172.074 105.843 173.077 109.833 172.105Z" fill="white"/>
</mask>
<g mask="url(#mask8_2643_23975)">
<path d="M108.309 164.775C107.677 168.874 103.842 171.682 99.7448 171.049C95.6462 170.417 92.8366 166.582 93.4689 162.485C94.1015 158.386 97.9365 155.577 102.035 156.209C106.133 156.843 108.942 160.677 108.309 164.775Z" fill="url(#paint36_linear_2643_23975)"/>
</g>
<mask id="mask9_2643_23975" style="mask-type:luminance" maskUnits="userSpaceOnUse" x="86" y="158" width="23" height="16">
<path d="M108.729 173.209C108.729 173.209 109.043 163.339 99.9017 159.561C90.7589 155.782 86.3429 164.034 86.3429 164.034C86.3429 164.034 87.5744 168.167 93.0793 170.673C98.5828 173.178 104.739 174.181 108.729 173.209Z" fill="white"/>
</mask>
<g mask="url(#mask9_2643_23975)">
<g style="mix-blend-mode:multiply">
<path d="M105.438 164.332C105.05 166.844 102.7 168.566 100.188 168.178C97.6761 167.79 95.9543 165.44 96.342 162.928C96.7297 160.416 99.0799 158.694 101.592 159.082C104.104 159.469 105.826 161.82 105.438 164.332Z" fill="url(#paint37_linear_2643_23975)"/>
</g>
</g>
</g>
<g style="mix-blend-mode:multiply" opacity="0.6">
<path d="M86.5354 163.705C88.8699 162.418 92.7984 161.387 97.9349 162.179C104.287 163.16 108.233 169.491 108.375 170.021C107.69 166.797 105.693 161.955 99.8999 159.559C91.8656 156.24 87.4821 162.21 86.5354 163.705Z" fill="#D077B7"/>
</g>
<path d="M107.871 168.172C107.871 168.172 108.598 160.449 102.18 156.533C94.1591 151.637 87.7934 162.066 87.7934 162.066C87.7934 162.066 99.9573 152.027 107.871 168.172Z" fill="#DC4C6A"/>
<path d="M104.995 173.572C104.285 173.547 93.1918 169.932 87.1346 165.66C86.9708 165.543 88.9907 169.817 93.8212 171.817C100.444 174.56 104.995 173.572 104.995 173.572Z" fill="#DC6B7C"/>
<path d="M108.377 170.028C108.377 170.028 109.999 173.094 109.653 173.822C109.307 174.549 106.684 173.524 106.684 173.524C106.684 173.524 108.299 172.974 108.361 172.485C108.423 171.998 108.377 170.028 108.377 170.028Z" fill="#E08A97"/>
<path d="M86.8477 163.242C86.8477 163.242 88.0735 159.84 88.9971 158.917C89.9207 157.994 95.0267 156.581 100.313 158.249C105.6 159.917 107.527 165.782 108.265 169.538C108.265 169.538 104.971 160.815 97.8026 159.849C90.6351 158.887 86.8477 163.242 86.8477 163.242Z" fill="#4E1B3D"/>
<path d="M95.129 162.496C95.3406 162.783 91.204 163.309 91.0612 162.861C90.9168 162.413 94.6599 161.857 95.129 162.496Z" fill="white"/>
<path d="M98.1365 162.214C98.3701 162.329 98.3073 163.059 98.0241 162.943C97.7408 162.826 97.1906 162.713 97.2313 162.45C97.2719 162.186 97.8228 162.059 98.1365 162.214Z" fill="white"/>
<g style="mix-blend-mode:multiply" opacity="0.6">
<path d="M124.064 202.509C121.036 204.117 117.809 206.383 114.099 206.09C110.389 205.798 107.155 201.906 104.951 199.151C109.344 203.928 118.264 205.632 124.064 202.509Z" fill="#CE77B5"/>
</g>
<path d="M129.91 200.227C127.071 202.451 121.276 204.945 114.258 203.829C106.998 202.675 101.465 198.026 99.4436 195.009C99.4436 195.009 109.504 198.348 114.057 200.963C119.31 199.838 129.91 200.227 129.91 200.227Z" fill="#FF6563"/>
<g style="mix-blend-mode:multiply" opacity="0.6">
<path d="M122.889 201.557C118.617 203.77 110.849 203.1 106.475 198.934L122.721 201.197L122.889 201.557Z" fill="#CE77B5"/>
</g>
<path d="M98.5582 194.555C98.797 194.911 107.359 200.328 114.222 201.424C121.695 202.615 130.448 200.291 131.125 199.76C127.405 200.177 120.32 199.61 115.845 198.868C115.455 198.803 115.042 198.733 114.627 198.658C113.158 198.391 111.647 198.177 110.17 197.909C106.316 197.206 102.124 196.047 98.5582 194.555Z" fill="#812751"/>
<path d="M106.88 194.905C110.529 194.427 119.952 195.929 123.25 197.54C126.548 199.15 126.553 198.989 129.742 199.865C125.117 200.397 119.7 199.69 114.633 198.657C109.435 197.891 105.191 197.352 99.726 195.024C103.054 195.127 103.231 195.383 106.88 194.905Z" fill="#D93F57"/>
<path d="M102.779 196.18C106.341 199.374 110.087 200.766 114.514 201.47C118.336 202.121 122.222 201.769 125.869 200.521C126.282 200.38 126.694 200.215 127.105 200.034C122.947 199.972 118.746 199.367 114.682 198.656C110.77 197.973 106.983 197.5 103.215 196.32C103.208 196.318 103.203 196.314 103.203 196.314C103.061 196.273 102.92 196.227 102.779 196.18Z" fill="#FFDDEB"/>
<path d="M100.39 193.674C99.0088 194.463 97.8885 195.316 96.9774 196.613C97.2676 195.512 97.7174 193.968 98.5704 193.281C99.426 192.594 99.7472 193.256 100.39 193.674Z" fill="#DA6B7C"/>
<path d="M129.621 198.333C130.708 199.495 131.482 200.669 131.947 202.18C132.016 201.042 132.071 199.456 131.477 198.534C130.883 197.609 130.37 198.132 129.621 198.333Z" fill="#DA6B7C"/>
<path d="M109.325 200.642C108.597 201.111 108.627 201.109 108.137 201.823C107.897 201.659 107.661 201.492 107.422 201.325C107.624 200.522 107.616 200.559 108.226 200.051C108.575 200.22 108.973 200.473 109.325 200.642Z" fill="#FFDDEB"/>
<g style="mix-blend-mode:multiply" opacity="0.6">
<path d="M103.215 196.32C103.574 196.456 111.352 199.361 125.869 200.521C126.282 200.38 126.694 200.215 127.105 200.034C122.947 199.972 118.746 199.367 114.682 198.656C110.77 197.973 106.983 197.497 103.215 196.32Z" fill="#CE77B5"/>
</g>
<path d="M169.983 164.025C167.998 163.866 166.473 162.589 166.473 162.589C167.207 170.787 164.569 175.208 162.063 177.276C160.995 178.164 159.95 178.618 159.204 178.754C159.029 178.79 158.869 178.801 158.731 178.803C158.731 178.803 155.391 177.63 148.371 164.417C137.263 160.058 127.536 153.766 127.236 153.571C127.79 154.238 128.281 155.119 128.671 155.985C129.406 157.601 129.8 159.165 129.655 159.147C126.129 158.747 120.492 154.892 120.492 154.892C120.492 154.892 112.593 153.225 106.563 145.911C102.714 141.245 101.261 130.901 100.715 124.026C100.664 123.377 100.62 122.762 100.583 122.184C89.4747 130.035 85.1529 145.493 83.405 156.819C83.2891 157.57 83.1878 158.373 83.0974 159.215C82.1049 168.627 82.6866 182.631 81.0984 182.368C75.2469 181.412 74.2469 168.784 74.2469 168.784C74.2469 168.784 72.9308 166.787 71.8277 163.44C70.6433 159.834 69.7069 154.661 70.9297 148.738C73.2872 137.318 80.9189 125.553 80.9189 125.553C89.4021 116.008 101.281 111.515 101.281 111.515C101.281 111.515 106.521 106.32 113.376 103.324L113.38 103.325C117.036 101.725 121.151 100.752 125.177 101.531C132.189 102.885 141.871 109.141 150.16 117.1L150.164 117.101C155.569 122.288 160.379 128.197 163.462 133.939C166.517 139.627 168.282 144.768 169.27 149.126L169.273 149.131C171.356 158.317 169.983 164.025 169.983 164.025Z" fill="url(#paint38_linear_2643_23975)"/>
<g style="mix-blend-mode:multiply" opacity="0.9">
<path d="M163.463 133.938C160.381 128.196 139.658 111.86 124.523 109.733C110.985 107.83 113.377 103.325 113.377 103.325C106.521 106.32 101.282 111.515 101.282 111.515C101.282 111.515 101.581 115.27 100.929 120.059C100.906 120.045 98.4921 118.58 92.6565 126.103C86.7925 133.663 83.6741 149.023 83.1252 158.151C83.1041 158.524 83.0936 158.876 83.1001 159.216C83.1891 158.375 83.2916 157.573 83.4078 156.821C85.1559 145.493 89.4789 130.037 100.586 122.186C100.602 122.428 100.618 122.677 100.636 122.931C100.643 123.041 100.652 123.153 100.66 123.266C100.677 123.508 100.697 123.753 100.716 124.004C100.716 124.012 100.716 124.02 100.718 124.027C101.265 130.903 102.717 141.246 106.565 145.914C112.595 153.229 120.494 154.895 120.494 154.895C120.494 154.895 107.948 143.716 106.78 125.192C106.78 125.192 111.331 137.73 127.239 153.573C127.541 153.768 137.266 160.06 148.373 164.419C148.373 164.419 136.199 135.548 105.889 115.507C105.889 115.507 116.219 112.74 138.627 124.661C162.906 137.58 166.476 162.591 166.476 162.591C166.476 162.591 168.001 163.869 169.985 164.027C169.983 164.025 172.966 151.622 163.463 133.938Z" fill="#D077B7"/>
</g>
<g style="mix-blend-mode:multiply" opacity="0.9">
<path d="M74.2472 168.782C74.2472 168.782 72.9311 166.786 71.8281 163.438C71.8332 163.434 71.8332 163.434 71.8332 163.434C71.8332 163.434 75.2975 140.722 90.3327 124.476C90.3327 124.476 77.3668 147.382 74.2472 168.782Z" fill="#D077B7"/>
</g>
<g style="mix-blend-mode:multiply" opacity="0.9">
<path d="M169.982 164.025C167.998 163.866 166.473 162.589 166.473 162.589C167.207 170.787 164.569 175.208 162.063 177.276C160.995 178.164 159.95 178.618 159.203 178.754C163.251 174.767 163.076 167.259 162.881 164.119C161.595 143.483 138.624 124.66 138.624 124.66C138.624 124.66 154.479 131.357 165.81 145.157C171.788 152.437 169.982 164.025 169.982 164.025Z" fill="#D077B7"/>
</g>
<g style="mix-blend-mode:multiply" opacity="0.9">
<path d="M112.524 120.241C112.524 120.241 138.838 131.963 148.149 146.039C158.998 162.439 158.086 176.355 158.086 176.355C158.086 176.355 148.819 151.577 139.444 142.012C125.93 128.223 112.524 120.241 112.524 120.241Z" fill="#D077B7"/>
</g>
<path d="M128.562 119.901C128.562 119.901 130.4 120.931 130.074 124.011C129.747 127.092 125.413 127.005 125.413 127.005C125.413 127.005 131.261 130.532 133.896 132.466C133.896 132.466 140.285 129.837 138.624 124.66L128.562 119.901Z" fill="#FFD3DF"/>
<path d="M82.2299 115.566C86.2196 119.238 86.9887 122.955 86.9887 122.955C86.9887 122.955 86.6508 128.048 84.4378 131.509C84.4378 131.509 86.5166 127.691 84.2318 123.536C81.9469 119.381 76.8636 122.539 76.8636 122.539L82.2299 115.566Z" fill="#FFD3DF"/>
<path d="M132.939 101.047C132.939 101.047 139.136 105.758 145.561 109.657C145.561 109.657 149.358 114.774 142.19 116.532C142.19 116.532 136.731 113.258 130.617 111.217C130.617 111.217 141.486 114.812 140.716 111.115C139.726 106.369 133.913 105.306 132.939 101.047Z" fill="#FFD3DF"/>
</g>
<mask id="mask10_2643_23975" style="mask-type:luminance" maskUnits="userSpaceOnUse" x="51" y="81" width="144" height="144">
<path d="M193.63 162.964C192.932 170.006 191.324 176.981 188.804 183.705C187.745 186.527 186.526 189.308 185.147 192.029C173.894 206.39 158.847 216.679 142.364 221.624C133.893 224.164 125.044 225.296 116.131 224.84C90.6156 223.54 69.2875 209.435 57.6154 186.144C49.5665 170.081 48.8626 151.197 55.6355 132.967C63.1564 112.721 79.1143 95.856 98.3228 87.8533C127.203 75.822 153.089 80.8706 175.423 102.844C189.634 120.11 195.729 141.822 193.63 162.964Z" fill="white"/>
</mask>
<g mask="url(#mask10_2643_23975)">
<path opacity="0.1" d="M193.63 162.964C192.932 170.006 191.324 176.981 188.804 183.705C187.745 186.527 186.526 189.308 185.147 192.029C173.894 206.39 158.847 216.679 142.364 221.624C133.893 224.164 125.044 225.296 116.131 224.84C90.6156 223.54 69.2875 209.435 57.6154 186.144C49.5665 170.081 48.8626 151.197 55.6355 132.967C63.1564 112.721 79.1143 95.856 98.3228 87.8533C127.203 75.822 153.089 80.8706 175.423 102.844C189.634 120.11 195.729 141.822 193.63 162.964Z" fill="#371A45"/>
</g>
<mask id="mask11_2643_23975" style="mask-type:luminance" maskUnits="userSpaceOnUse" x="51" y="81" width="144" height="144">
<path d="M193.63 162.964C192.932 170.006 191.324 176.981 188.804 183.705C187.745 186.527 186.526 189.308 185.147 192.029C173.894 206.39 158.847 216.679 142.364 221.624C133.893 224.164 125.044 225.296 116.131 224.84C90.6156 223.54 69.2875 209.435 57.6154 186.144C49.5665 170.081 48.8626 151.197 55.6355 132.967C63.1564 112.721 79.1143 95.856 98.3228 87.8533C127.203 75.822 153.089 80.8706 175.423 102.844C189.634 120.11 195.729 141.822 193.63 162.964Z" fill="white"/>
</mask>
<g mask="url(#mask11_2643_23975)">
<g opacity="0.1">
<path d="M59.2484 185.329C85.5534 237.832 156.789 234.052 188.801 183.708L189.347 181.955C143.184 211.783 80.8509 203.338 53.2493 150.747C51.9734 162.39 53.7281 174.304 59.2484 185.329Z" fill="#220F30"/>
</g>
</g>
<mask id="mask12_2643_23975" style="mask-type:luminance" maskUnits="userSpaceOnUse" x="51" y="81" width="144" height="144">
<path d="M193.63 162.964C192.932 170.006 191.324 176.981 188.804 183.705C187.745 186.527 186.526 189.308 185.147 192.029C173.894 206.39 158.847 216.679 142.364 221.624C133.893 224.164 125.044 225.296 116.131 224.84C90.6156 223.54 69.2875 209.435 57.6154 186.144C49.5665 170.081 48.8626 151.197 55.6355 132.967C63.1564 112.721 79.1143 95.856 98.3228 87.8533C127.203 75.822 153.089 80.8706 175.423 102.844C189.634 120.11 195.729 141.822 193.63 162.964Z" fill="white"/>
</mask>
<g mask="url(#mask12_2643_23975)">
<g opacity="0.5">
<path d="M63.1908 158.298C62.4137 151.209 66.7846 144.913 72.9536 144.236C79.1226 143.559 84.7535 148.758 85.5306 155.847C86.3077 162.937 81.9368 169.233 75.7678 169.909C69.5988 170.586 63.9679 165.388 63.1908 158.298Z" fill="white"/>
</g>
</g>
<mask id="mask13_2643_23975" style="mask-type:luminance" maskUnits="userSpaceOnUse" x="51" y="81" width="144" height="144">
<path d="M193.63 162.964C192.932 170.006 191.324 176.981 188.804 183.705C187.745 186.527 186.526 189.308 185.147 192.029C173.894 206.39 158.847 216.679 142.364 221.624C133.893 224.164 125.044 225.296 116.131 224.84C90.6156 223.54 69.2875 209.435 57.6154 186.144C49.5665 170.081 48.8626 151.197 55.6355 132.967C63.1564 112.721 79.1143 95.856 98.3228 87.8533C127.203 75.822 153.089 80.8706 175.423 102.844C189.634 120.11 195.729 141.822 193.63 162.964Z" fill="white"/>
</mask>
<g mask="url(#mask13_2643_23975)">
<g opacity="0.5">
<path d="M72.4598 180.431C72.4121 177.486 74.4496 175.065 77.0107 175.023C79.5719 174.982 81.6867 177.336 81.7344 180.281C81.7821 183.226 79.7446 185.647 77.1835 185.689C74.6224 185.73 72.5075 183.376 72.4598 180.431Z" fill="white"/>
</g>
</g>
<mask id="mask14_2643_23975" style="mask-type:luminance" maskUnits="userSpaceOnUse" x="51" y="81" width="144" height="144">
<path d="M193.63 162.964C192.932 170.006 191.324 176.981 188.804 183.705C187.745 186.527 186.526 189.308 185.147 192.029C173.894 206.39 158.847 216.679 142.364 221.624C133.893 224.164 125.044 225.296 116.131 224.84C90.6156 223.54 69.2875 209.435 57.6154 186.144C49.5665 170.081 48.8626 151.197 55.6355 132.967C63.1564 112.721 79.1143 95.856 98.3228 87.8533C127.203 75.822 153.089 80.8706 175.423 102.844C189.634 120.11 195.729 141.822 193.63 162.964Z" fill="white"/>
</mask>
<g mask="url(#mask14_2643_23975)">
<g opacity="0.5">
<path d="M115.042 94.1267C149.553 86.3389 179.802 113.84 185.188 149.248C167.111 119.238 142.291 100.553 115.042 94.1267Z" fill="white"/>
</g>
</g>
<path d="M26.1369 195.659C31.6262 211.063 45.4593 220.726 57.0409 217.236C68.6224 213.746 73.5578 198.424 68.0685 183.019C68.0349 182.92 67.9961 182.819 67.9599 182.724C62.4033 167.49 48.6634 157.975 37.1672 161.442C28.2229 164.137 23.2409 173.895 23.9656 185.295C24.1804 188.65 24.8895 192.156 26.1369 195.659Z" fill="url(#paint39_linear_2643_23975)"/>
<path d="M123.191 321.385L125.911 321.83L130.813 297.985L143.797 293.309L148.536 269.467L145.819 269.021L141.349 291.43L128.316 296.261L123.191 321.385Z" fill="#0876E4"/>
<path fill-rule="evenodd" clip-rule="evenodd" d="M102.448 277.397L111.237 274.332C112.34 273.946 113.564 274.192 114.433 274.971L121.372 281.177C122.218 281.933 122.601 283.08 122.379 284.193L120.489 293.664C120.267 294.777 119.475 295.689 118.401 296.062L109.612 299.127C108.509 299.513 107.285 299.267 106.416 298.487L99.4771 292.282C98.6308 291.525 98.2477 290.379 98.4703 289.265L100.36 279.795C100.582 278.684 101.377 277.77 102.448 277.397ZM110.531 272.312C112.368 271.67 114.408 272.079 115.859 273.376L122.798 279.582C124.208 280.843 124.845 282.756 124.475 284.61L122.586 294.081C122.216 295.935 120.893 297.454 119.107 298.078L110.318 301.144C108.481 301.786 106.441 301.377 104.99 300.08L98.051 293.874C96.6406 292.613 96.0039 290.7 96.374 288.846L98.2633 279.375C98.6334 277.521 99.9558 276.002 101.742 275.378L110.531 272.312Z" fill="#0876E4"/>
<path fill-rule="evenodd" clip-rule="evenodd" d="M111.641 279.58C114.053 280.061 115.619 282.407 115.14 284.817C115.057 285.234 114.653 285.504 114.237 285.421C113.82 285.338 113.551 284.934 113.634 284.517C113.949 282.938 112.922 281.4 111.343 281.084C109.762 280.768 108.225 281.793 107.909 283.373L107.64 284.727L114.42 286.081C115.168 286.231 115.655 286.959 115.505 287.707L114.723 291.621C114.475 292.869 113.261 293.677 112.014 293.429L105.989 292.225C104.741 291.976 103.931 290.762 104.18 289.517L104.961 285.602C105.078 285.012 105.556 284.584 106.121 284.504L106.405 283.072C106.881 280.662 109.229 279.098 111.641 279.58ZM106.581 286.083C106.584 286.083 106.584 286.083 106.581 286.083C106.584 286.086 106.584 286.086 106.581 286.083L113.965 287.557L113.214 291.321C113.132 291.738 112.728 292.007 112.311 291.924L106.286 290.72C105.87 290.638 105.6 290.234 105.683 289.817L106.434 286.052L106.581 286.083ZM109.868 288.463C110.202 288.53 110.417 288.854 110.349 289.185C110.282 289.517 109.959 289.734 109.627 289.667C109.294 289.599 109.079 289.276 109.146 288.944C109.213 288.613 109.537 288.395 109.868 288.463ZM110.952 289.307C111.084 288.641 110.652 287.994 109.987 287.862C109.322 287.73 108.675 288.16 108.54 288.825C108.408 289.491 108.841 290.138 109.506 290.27C110.173 290.402 110.82 289.97 110.952 289.307Z" fill="#0876E4"/>
<path d="M212.891 193.46C212.891 193.46 217.143 194.175 221.884 193.206C226.944 192.176 230.668 187.643 233.088 182.19C236.012 175.591 237.029 167.65 236.186 162.917C234.322 152.468 228.093 152.468 228.093 152.468C224.796 164.377 214.418 157.25 214.418 157.25C214.418 157.25 205.559 157.571 202.805 174.092C200.049 190.615 212.891 193.46 212.891 193.46Z" fill="url(#paint40_linear_2643_23975)"/>
<path d="M73.3766 354.243C77.3518 360.475 83.2216 364.78 89.4536 367.75L111.809 348.324C111.809 348.324 95.639 346.155 84.0601 342.962C84.0057 343.048 83.9514 343.133 83.897 343.219C81.1201 347.561 78.7934 348.876 75.755 351.77C75.2193 352.278 74.6629 352.834 74.0754 353.469C73.8476 353.715 73.6147 353.974 73.3766 354.243Z" fill="url(#paint41_linear_2643_23975)"/>
<defs>
<linearGradient id="paint0_linear_2643_23975" x1="82.2203" y1="268.347" x2="10.2039" y2="268.347" gradientUnits="userSpaceOnUse">
<stop stop-color="#84BCFD"/>
<stop offset="1" stop-color="#D0E5FD"/>
</linearGradient>
<linearGradient id="paint1_linear_2643_23975" x1="107.253" y1="384.506" x2="58.3643" y2="384.506" gradientUnits="userSpaceOnUse">
<stop stop-color="#B4D6FE"/>
<stop offset="1" stop-color="#D0E5FD"/>
</linearGradient>
<linearGradient id="paint2_linear_2643_23975" x1="53.1319" y1="368.104" x2="-0.000619571" y2="368.104" gradientUnits="userSpaceOnUse">
<stop stop-color="#B4D6FE"/>
<stop offset="1" stop-color="#D0E5FD"/>
</linearGradient>
<linearGradient id="paint3_linear_2643_23975" x1="226.605" y1="157.228" x2="206.189" y2="177.341" gradientUnits="userSpaceOnUse">
<stop stop-color="#B4D6FE"/>
<stop offset="1" stop-color="#D0E5FD"/>
</linearGradient>
<linearGradient id="paint4_linear_2643_23975" x1="107.634" y1="274.4" x2="81.575" y2="316.339" gradientUnits="userSpaceOnUse">
<stop stop-color="#B4D6FE"/>
<stop offset="1" stop-color="#D0E5FD"/>
</linearGradient>
<linearGradient id="paint5_linear_2643_23975" x1="165.473" y1="299.943" x2="145.429" y2="299.943" gradientUnits="userSpaceOnUse">
<stop stop-color="#9AC9FD"/>
<stop offset="1" stop-color="#D0E5FD"/>
</linearGradient>
<linearGradient id="paint6_linear_2643_23975" x1="160.904" y1="292.467" x2="74.5603" y2="292.467" gradientUnits="userSpaceOnUse">
<stop stop-color="#84BCFD"/>
<stop offset="1" stop-color="#D0E5FD"/>
</linearGradient>
<linearGradient id="paint7_linear_2643_23975" x1="143.936" y1="292.465" x2="74.5647" y2="292.465" gradientUnits="userSpaceOnUse">
<stop stop-color="#84BCFD"/>
<stop offset="1" stop-color="#D0E5FD"/>
</linearGradient>
<linearGradient id="paint8_linear_2643_23975" x1="89.2914" y1="280.141" x2="37.4623" y2="280.141" gradientUnits="userSpaceOnUse">
<stop stop-color="#9AC9FD"/>
<stop offset="1" stop-color="#D0E5FD"/>
</linearGradient>
<linearGradient id="paint9_linear_2643_23975" x1="62.5173" y1="301.813" x2="19.1207" y2="301.813" gradientUnits="userSpaceOnUse">
<stop stop-color="#84BCFD"/>
<stop offset="1" stop-color="#B4D6FE"/>
</linearGradient>
<linearGradient id="paint10_linear_2643_23975" x1="34.5034" y1="259.03" x2="64.2792" y2="248.554" gradientUnits="userSpaceOnUse">
<stop stop-color="#84BCFD"/>
<stop offset="1" stop-color="#B4D6FE"/>
</linearGradient>
<linearGradient id="paint11_linear_2643_23975" x1="29.5784" y1="179.524" x2="190.683" y2="131.24" gradientUnits="userSpaceOnUse">
<stop stop-color="#9AC9FD"/>
<stop offset="1" stop-color="#D0E5FD"/>
</linearGradient>
<linearGradient id="paint12_linear_2643_23975" x1="127.887" y1="106.97" x2="118.674" y2="166.667" gradientUnits="userSpaceOnUse">
<stop stop-color="#5A365D"/>
<stop offset="1" stop-color="#5F1945"/>
</linearGradient>
<linearGradient id="paint13_linear_2643_23975" x1="109.297" y1="229.406" x2="106.38" y2="248.31" gradientUnits="userSpaceOnUse">
<stop stop-color="#9159D0"/>
<stop offset="1" stop-color="#963773"/>
</linearGradient>
<linearGradient id="paint14_linear_2643_23975" x1="68.7205" y1="179.66" x2="73.1671" y2="150.848" gradientUnits="userSpaceOnUse">
<stop stop-color="#FFB29C"/>
<stop offset="0.2186" stop-color="#FF9B8E"/>
<stop offset="0.479" stop-color="#FF8781"/>
<stop offset="0.7398" stop-color="#FF7B7A"/>
<stop offset="1" stop-color="#FF7777"/>
</linearGradient>
<linearGradient id="paint15_linear_2643_23975" x1="69.9149" y1="174.132" x2="72.8385" y2="155.189" gradientUnits="userSpaceOnUse">
<stop stop-color="#FFE9DA"/>
<stop offset="0.9944" stop-color="#D077F3"/>
</linearGradient>
<linearGradient id="paint16_linear_2643_23975" x1="76.0067" y1="173.973" x2="77.2631" y2="165.832" gradientUnits="userSpaceOnUse">
<stop stop-color="#FFE9DA"/>
<stop offset="0.9944" stop-color="#D077F3"/>
</linearGradient>
<linearGradient id="paint17_linear_2643_23975" x1="164.61" y1="194.459" x2="169.056" y2="165.647" gradientUnits="userSpaceOnUse">
<stop stop-color="#FFB29C"/>
<stop offset="0.2186" stop-color="#FF9B8E"/>
<stop offset="0.479" stop-color="#FF8781"/>
<stop offset="0.7398" stop-color="#FF7B7A"/>
<stop offset="1" stop-color="#FF7777"/>
</linearGradient>
<linearGradient id="paint18_linear_2643_23975" x1="165.137" y1="188.828" x2="168.061" y2="169.884" gradientUnits="userSpaceOnUse">
<stop stop-color="#FFE9DA"/>
<stop offset="0.9944" stop-color="#D077F3"/>
</linearGradient>
<linearGradient id="paint19_linear_2643_23975" x1="159.377" y1="186.84" x2="160.633" y2="178.699" gradientUnits="userSpaceOnUse">
<stop stop-color="#FFE9DA"/>
<stop offset="0.9944" stop-color="#D077F3"/>
</linearGradient>
<linearGradient id="paint20_linear_2643_23975" x1="108.968" y1="237.283" x2="113.294" y2="209.255" gradientUnits="userSpaceOnUse">
<stop stop-color="#FFB29C"/>
<stop offset="0.2186" stop-color="#FF9B8E"/>
<stop offset="0.479" stop-color="#FF8781"/>
<stop offset="0.7398" stop-color="#FF7B7A"/>
<stop offset="1" stop-color="#FF7777"/>
</linearGradient>
<linearGradient id="paint21_linear_2643_23975" x1="112.296" y1="214.913" x2="128.33" y2="111.022" gradientUnits="userSpaceOnUse">
<stop stop-color="#FFA995"/>
<stop offset="0.4274" stop-color="#F8AA98"/>
<stop offset="0.5417" stop-color="#FBA28F"/>
<stop offset="0.771" stop-color="#FE9883"/>
<stop offset="1" stop-color="#FF957F"/>
</linearGradient>
<linearGradient id="paint22_linear_2643_23975" x1="112.297" y1="214.913" x2="117.772" y2="179.436" gradientUnits="userSpaceOnUse">
<stop offset="0.005587" stop-color="#D077F3"/>
<stop offset="0.1573" stop-color="#D480F1"/>
<stop offset="0.4008" stop-color="#DD97EC"/>
<stop offset="0.7036" stop-color="#EDBDE4"/>
<stop offset="1" stop-color="#FFE9DA"/>
</linearGradient>
<linearGradient id="paint23_linear_2643_23975" x1="100.206" y1="142.925" x2="99.2627" y2="149.039" gradientUnits="userSpaceOnUse">
<stop stop-color="#5A365D"/>
<stop offset="1" stop-color="#5F1945"/>
</linearGradient>
<linearGradient id="paint24_linear_2643_23975" x1="145.769" y1="149.957" x2="144.826" y2="156.071" gradientUnits="userSpaceOnUse">
<stop stop-color="#5A365D"/>
<stop offset="1" stop-color="#5F1945"/>
</linearGradient>
<linearGradient id="paint25_linear_2643_23975" x1="116.246" y1="187.822" x2="118.197" y2="175.186" gradientUnits="userSpaceOnUse">
<stop stop-color="#F87A7E"/>
<stop offset="0.0566" stop-color="#F97C7E"/>
<stop offset="0.5286" stop-color="#FD887F"/>
<stop offset="1" stop-color="#FF8C7F"/>
</linearGradient>
<linearGradient id="paint26_linear_2643_23975" x1="108.244" y1="185.697" x2="111.145" y2="186.144" gradientUnits="userSpaceOnUse">
<stop stop-color="#77254B"/>
<stop offset="1" stop-color="#8D2542"/>
</linearGradient>
<linearGradient id="paint27_linear_2643_23975" x1="124.43" y1="188.195" x2="121.529" y2="187.747" gradientUnits="userSpaceOnUse">
<stop stop-color="#77254B"/>
<stop offset="1" stop-color="#8D2542"/>
</linearGradient>
<linearGradient id="paint28_linear_2643_23975" x1="109.55" y1="181.806" x2="110.125" y2="178.077" gradientUnits="userSpaceOnUse">
<stop stop-color="#FFE9DA"/>
<stop offset="0.9944" stop-color="#D077F3"/>
</linearGradient>
<linearGradient id="paint29_linear_2643_23975" x1="124.358" y1="184.092" x2="124.933" y2="180.363" gradientUnits="userSpaceOnUse">
<stop stop-color="#FFE9DA"/>
<stop offset="0.9944" stop-color="#D077F3"/>
</linearGradient>
<linearGradient id="paint30_linear_2643_23975" x1="140.914" y1="179.314" x2="143.001" y2="165.793" gradientUnits="userSpaceOnUse">
<stop stop-color="#EDE1FF"/>
<stop offset="0.996" stop-color="#BCC8FA"/>
</linearGradient>
<linearGradient id="paint31_linear_2643_23975" x1="150.817" y1="171.146" x2="134.692" y2="168.657" gradientUnits="userSpaceOnUse">
<stop stop-color="#72791A"/>
<stop offset="1" stop-color="#594A0B"/>
</linearGradient>
<linearGradient id="paint32_linear_2643_23975" x1="141.939" y1="175.185" x2="143.712" y2="163.696" gradientUnits="userSpaceOnUse">
<stop stop-color="#A58C18"/>
<stop offset="1" stop-color="#402F40"/>
</linearGradient>
<linearGradient id="paint33_linear_2643_23975" x1="142.255" y1="173.14" x2="143.342" y2="166.098" gradientUnits="userSpaceOnUse">
<stop stop-color="#72791A"/>
<stop offset="1" stop-color="#594A0B"/>
</linearGradient>
<linearGradient id="paint34_linear_2643_23975" x1="96.9303" y1="172.546" x2="99.017" y2="159.024" gradientUnits="userSpaceOnUse">
<stop stop-color="#EDE1FF"/>
<stop offset="0.996" stop-color="#BCC8FA"/>
</linearGradient>
<linearGradient id="paint35_linear_2643_23975" x1="92.8271" y1="162.386" x2="108.952" y2="164.875" gradientUnits="userSpaceOnUse">
<stop stop-color="#72791A"/>
<stop offset="1" stop-color="#594A0B"/>
</linearGradient>
<linearGradient id="paint36_linear_2643_23975" x1="100.074" y1="168.913" x2="101.847" y2="157.424" gradientUnits="userSpaceOnUse">
<stop stop-color="#A58C18"/>
<stop offset="1" stop-color="#402F40"/>
</linearGradient>
<linearGradient id="paint37_linear_2643_23975" x1="100.39" y1="166.868" x2="101.477" y2="159.826" gradientUnits="userSpaceOnUse">
<stop stop-color="#72791A"/>
<stop offset="1" stop-color="#594A0B"/>
</linearGradient>
<linearGradient id="paint38_linear_2643_23975" x1="128.071" y1="106.999" x2="118.858" y2="166.696" gradientUnits="userSpaceOnUse">
<stop stop-color="#5A365D"/>
<stop offset="1" stop-color="#5F1945"/>
</linearGradient>
<linearGradient id="paint39_linear_2643_23975" x1="26.1938" y1="195.703" x2="68.2466" y2="183.099" gradientUnits="userSpaceOnUse">
<stop stop-color="#9AC9FD"/>
<stop offset="1" stop-color="#D0E5FD"/>
</linearGradient>
<linearGradient id="paint40_linear_2643_23975" x1="214.897" y1="192.653" x2="220.373" y2="168.982" gradientUnits="userSpaceOnUse">
<stop stop-color="#84BCFD"/>
<stop offset="1" stop-color="#B4D6FE"/>
</linearGradient>
<linearGradient id="paint41_linear_2643_23975" x1="80.3092" y1="348.582" x2="93.1513" y2="354.552" gradientUnits="userSpaceOnUse">
<stop stop-color="#B4D6FE"/>
<stop offset="1" stop-color="#D0E5FD"/>
</linearGradient>
</defs>
</svg>
